<?xml version="1.0" standalone="no"?><!DOCTYPE svg PUBLIC "-//W3C//DTD SVG 1.1//EN" "http://www.w3.org/Graphics/SVG/1.1/DTD/svg11.dtd"><svg t="1610340995697" class="icon" viewBox="0 0 1024 1024" version="1.1" xmlns="http://www.w3.org/2000/svg" p-id="5446" xmlns:xlink="http://www.w3.org/1999/xlink" width="200" height="200"><defs><style type="text/css"></style></defs><path d="M544.023273 545.512727V351.930182h128c17.687273 0 31.976727-14.289455 31.976727-31.976727v-128a31.976727 31.976727 0 0 0-32.023273-32.023273H352.069818a31.976727 31.976727 0 0 0-32.023273 32.023273v128c0 17.687273 14.336 32.023273 32.023273 32.023272h128v193.442909m0 64.046546v263.400727a63.767273 63.767273 0 0 0-32.023273 55.109818 64 64 0 1 0 128 0 63.767273 63.767273 0 0 0-32.023272-55.109818v-345.413818h-63.953455m-192.046545-47.476364h77.498182a31.976727 31.976727 0 1 0 0-64.046545H287.976727A31.976727 31.976727 0 0 1 256 384v-256c0-17.687273 14.336-32.023273 32.023273-32.023273h448c17.687273 0 31.976727 14.336 31.976727 32.023273v256c0 17.687273-14.336 32.023273-32.023273 32.023273h-90.577454a31.976727 31.976727 0 1 0 0 63.953454h90.624c53.015273 0 95.976727-42.961455 95.976727-95.976727v-256c0-53.061818-42.961455-96.023273-96.023273-96.023273H288.023273c-53.061818 0-96.023273 43.008-96.023273 96.023273v256c0 53.061818 42.961455 96.023273 96.023273 96.023273z" p-id="5447"></path></svg>