<?xml version="1.0" encoding="UTF-8"?>
<svg width="32px" height="32px" viewBox="0 0 32 32" version="1.1" xmlns="http://www.w3.org/2000/svg" xmlns:xlink="http://www.w3.org/1999/xlink">
    <!-- Generator: Sketch 64 (93537) - https://sketch.com -->
    <title>删除</title>
    <desc>Created with Sketch.</desc>
    <g id="删除" stroke="none" stroke-width="1" fill="none" fill-rule="evenodd">
        <g id="编组-7">
            <rect id="矩形" fill="#FF595E" x="0" y="0" width="32" height="32" rx="2"></rect>
            <g id="编组-11" transform="translate(7.000000, 7.000000)" fill-rule="nonzero">
                <rect id="矩形" fill="#000000" opacity="0" x="0" y="0" width="18" height="18"></rect>
                <path d="M12.28125,0.9 L12.4118381,0.907053233 C12.9695144,0.967648906 13.4136011,1.41173562 13.4741968,1.96941193 L13.48125,2.1 L13.48125,3.853125 L16.21875,3.853125 L16.316635,3.86186739 C16.5388403,3.90207328 16.7135517,4.07678467 16.7537576,4.29899002 L16.7625,4.396875 L16.7625,5.053125 L16.7553769,5.07898298 L16.7367955,5.09756441 L16.7109375,5.1046875 L15.3598909,5.1046875 L14.8533479,15.9374663 L14.8394576,16.072614 C14.7546043,16.603656 14.3249253,17.0137423 13.7908327,17.0736902 L13.6552734,17.08125 L4.34472656,17.08125 L4.20955215,17.0736615 C3.67676184,17.0134927 3.24564759,16.6020207 3.16057204,16.0722681 L3.14665371,15.9375006 L2.64010912,5.1046875 L1.2890625,5.1046875 L1.26320452,5.09756441 L1.24462309,5.07898298 L1.2375,5.053125 L1.2375,4.396875 L1.24624239,4.29899002 C1.28644828,4.07678467 1.46115967,3.90207328 1.68336502,3.86186739 L1.78125,3.853125 L4.5175,3.853 L4.51875,2.1 L4.52580323,1.96941193 C4.58639891,1.41173562 5.03048562,0.967648906 5.58816193,0.907053233 L5.71875,0.9 L12.28125,0.9 Z M13.9936523,5.1046875 L4.00634766,5.1046875 L3.89397311,5.22249895 L4.39026217,15.722499 L4.50263672,15.8296875 L13.4973633,15.8296875 L13.6097378,15.722499 L14.1060269,5.22249895 L13.9936523,5.1046875 Z M6.5,7 L6.5,14 L5.5,14 L5.5,7 L6.5,7 Z M9.5,7 L9.5,14 L8.5,14 L8.5,7 L9.5,7 Z M12.5,7 L12.5,14 L11.5,14 L11.5,7 L12.5,7 Z M12.1171875,2.1 L12.1171875,2.1515625 L5.8828125,2.1515625 L5.8828125,2.1 C5.8828125,2.1721875 5.8355625,2.233875 5.7704625,2.2556625 L5.71875,2.2640625 L5.7703125,2.2640625 L5.770125,3.853125 L12.2296875,3.853125 L12.2296875,2.2640625 L12.28125,2.2640625 C12.2090625,2.2640625 12.147375,2.2168125 12.1255875,2.1517125 L12.1171875,2.1 Z" id="形状结合" fill="#FFFFFF"></path>
            </g>
        </g>
    </g>
</svg>