<?xml version="1.0" encoding="UTF-8"?>
<svg width="14px" height="14px" viewBox="0 0 14 14" version="1.1" xmlns="http://www.w3.org/2000/svg" xmlns:xlink="http://www.w3.org/1999/xlink">
    <!-- Generator: Sketch 64 (93537) - https://sketch.com -->
    <title>icon_发布</title>
    <desc>Created with Sketch.</desc>
    <g id="变化" stroke="none" stroke-width="1" fill="none" fill-rule="evenodd" opacity="0.65">
        <g id="工作空间项目-开发中心-具体工作流" transform="translate(-289.000000, -256.000000)" fill="#000000" fill-rule="nonzero">
            <g id="编组-21" transform="translate(0.000000, 239.000000)">
                <g id="icon_发布" transform="translate(288.000000, 16.000000)">
                    <rect id="矩形" opacity="0" x="0" y="0" width="16" height="16"></rect>
                    <path d="M2.601,7.011 L5.9235,9.0225 C6.08123414,9.11264317 6.17766111,9.28125149 6.17537137,9.46291218 C6.17308164,9.64457287 6.07243556,9.8106972 5.91247948,9.89683606 C5.75252341,9.98297491 5.55843031,9.97557226 5.4055,9.8775 L1.241,7.357 C1.07976185,7.25953474 0.98700123,7.07970781 1.00104755,6.89182508 C1.01509387,6.70394236 1.133562,6.53990712 1.3075,6.4675 L14.3075,1.0385 C14.4772847,0.967754018 14.6722027,0.995939296 14.8149919,1.11188366 C14.957781,1.22782803 15.0253824,1.41280776 14.991,1.5935 L12.7135,13.5935 C12.6826052,13.7562438 12.5731137,13.8931221 12.4211277,13.9590028 C12.2691416,14.0248834 12.0943927,14.0112134 11.9545,13.9225 L7.7325,11.2455 C7.49915969,11.0977638 7.42976383,10.7888403 7.5775,10.5555 C7.72523617,10.3221597 8.03415969,10.2527638 8.2675,10.4005 L11.8685,12.6835 L13.835,2.32 L2.601,7.011 Z M6.5,9.8765 L6.5,14 C6.5,14.2761424 6.27614237,14.5 6,14.5 C5.72385763,14.5 5.5,14.2761424 5.5,14 L5.5,9.6465 C5.5,9.50034409 5.56393112,9.36150134 5.675,9.2665 L11.753,4.0625 C11.8887609,3.94638868 12.0761538,3.91152499 12.2445897,3.97104174 C12.4130255,4.03055849 12.5369148,4.17541368 12.5695897,4.35104174 C12.6022645,4.52666981 12.5387609,4.70638868 12.403,4.8225 L6.5,9.876 L6.5,9.8765 Z" id="形状"></path>
                </g>
            </g>
        </g>
    </g>
</svg>