<?xml version="1.0" standalone="no"?><!DOCTYPE svg PUBLIC "-//W3C//DTD SVG 1.1//EN" "http://www.w3.org/Graphics/SVG/1.1/DTD/svg11.dtd"><svg t="1610340989518" class="icon" viewBox="0 0 1024 1024" version="1.1" xmlns="http://www.w3.org/2000/svg" p-id="5303" xmlns:xlink="http://www.w3.org/1999/xlink" width="200" height="200"><defs><style type="text/css"></style></defs><path d="M960 704h-63.627636v-167.377455a31.976727 31.976727 0 0 0-31.976728-32.023272h-320.418909V416.023273h160.023273c17.687273 0 32.023273-14.336 32.023273-32.023273V95.976727a31.976727 31.976727 0 0 0-32.023273-31.976727h-384a31.976727 31.976727 0 0 0-32.023273 32.023273V384c0 17.687273 14.336 32.023273 32.023273 32.023273h160.023273v88.576H161.978182a31.976727 31.976727 0 0 0-31.976727 31.976727l-0.232728 167.424H64a31.976727 31.976727 0 0 0-32.023273 32.023273v191.953454c0 17.687273 14.336 32.023273 32.023273 32.023273H256c17.687273 0 32.023273-14.336 32.023273-32.023273v-192a31.976727 31.976727 0 0 0-32.023273-31.976727H193.768727l0.186182-135.400727h286.068364v135.400727H415.976727a31.976727 31.976727 0 0 0-31.976727 32.023273v191.953454c0 17.687273 14.336 32.023273 32.023273 32.023273h191.953454c17.687273 0 32.023273-14.336 32.023273-32.023273v-192a31.976727 31.976727 0 0 0-32.023273-31.976727h-63.953454v-135.400727h288.349091v135.400727H768a31.976727 31.976727 0 0 0-32.023273 32.023273v191.953454c0 17.687273 14.336 32.023273 32.023273 32.023273h192c17.687273 0 32.023273-14.336 32.023273-32.023273v-192a31.976727 31.976727 0 0 0-32.023273-31.976727zM351.976727 128h320v224.023273H352.069818V128z m-128 768h-128V768h128v128z m352.023273 0h-128V768h128v128z m352.023273 0h-128V768h128v128z" p-id="5304"></path></svg>