<?xml version="1.0" encoding="UTF-8"?>
<svg width="10px" height="10px" viewBox="0 0 10 10" version="1.1" xmlns="http://www.w3.org/2000/svg" xmlns:xlink="http://www.w3.org/1999/xlink">
    <!-- Generator: Sketch 64 (93537) - https://sketch.com -->
    <title>Group</title>
    <desc>Created with Sketch.</desc>
    <g id="变化" stroke="none" stroke-width="1" fill="none" fill-rule="evenodd">
        <g id="工作空间项目-开发中心-具体工作流" transform="translate(-244.000000, -139.000000)">
            <g id="编组-3" transform="translate(0.000000, 132.000000)">
                <g id="Group" transform="translate(243.000000, 6.000000)">
                    <rect id="Rectangle" x="0" y="0" width="12" height="12"></rect>
                    <path d="M10.3420776,1.65792242 C10.5251358,1.84098068 10.5251358,2.13777677 10.3420776,2.32083503 L6.66262873,5.99962873 L10.3420776,9.67916497 C10.5022536,9.83934095 10.5222756,10.0865974 10.4021436,10.2685436 L10.3420776,10.3420776 C10.1590193,10.5251358 9.86222323,10.5251358 9.67916497,10.3420776 L9.67916497,10.3420776 L5.99962873,6.66262873 L2.32083503,10.3420776 C2.13777677,10.5251358 1.84098068,10.5251358 1.65792242,10.3420776 C1.47486416,10.1590193 1.47486416,9.86222323 1.65792242,9.67916497 L5.33662873,5.99962873 L1.65792242,2.32083503 C1.49774644,2.16065905 1.47772445,1.91340255 1.59785643,1.73145644 L1.65792242,1.65792242 C1.84098068,1.47486416 2.13777677,1.47486416 2.32083503,1.65792242 L2.32083503,1.65792242 L5.99962873,5.33662873 L9.67916497,1.65792242 C9.86222323,1.47486416 10.1590193,1.47486416 10.3420776,1.65792242 Z" id="Combined-Shape" fill-opacity="0.45" fill="#000000"></path>
                </g>
            </g>
        </g>
    </g>
</svg>