<?xml version="1.0" encoding="UTF-8"?>
<svg width="14px" height="13px" viewBox="0 0 14 13" version="1.1" xmlns="http://www.w3.org/2000/svg" xmlns:xlink="http://www.w3.org/1999/xlink">
    <!-- Generator: Sketch 64 (93537) - https://sketch.com -->
    <title>建议</title>
    <desc>Created with Sketch.</desc>
    <g id="变化" stroke="none" stroke-width="1" fill="none" fill-rule="evenodd" opacity="0.65">
        <g id="工作空间项目-开发中心-具体工作流" transform="translate(-234.000000, -875.000000)" fill="#000000" fill-rule="nonzero">
            <g id="编组-23" transform="translate(0.000000, 864.000000)">
                <g id="建议" transform="translate(233.000000, 10.000000)">
                    <rect id="矩形" opacity="0" x="0" y="0" width="16" height="16"></rect>
                    <path d="M13.0456786,11.830183 C13.0456786,13.1240827 13.0231414,13.1466199 11.8419276,13.1466199 L4.13951232,13.1466199 C2.80186394,13.1466199 2.80451538,13.1810886 2.80451538,11.9733605 L2.80318966,4.29348231 C2.80318966,3.07382275 2.80318966,3.09503422 4.14083804,3.09503422 L8.62043552,3.09503422 L8.62043552,2.39107853 L4.10239224,2.39107853 C2.43331464,2.39107853 2.09127967,2.61379897 2.09127967,4.29083088 L2.09127967,11.9508233 C2.09127967,13.8479242 2.43331464,13.8492499 4.10371796,13.8492499 L11.8803734,13.8492499 C13.5507768,13.8492499 13.7628915,13.4979349 13.7628915,11.8195773 L13.7628915,7.65947758 L13.0470043,7.65947758 L13.0456786,11.830183 Z" id="路径" stroke="#000000" stroke-width="0.2"></path>
                    <path d="M13.6939542,3.27002885 L12.6705007,2.24657538 C12.3364201,1.91249472 12.0328309,1.91249472 11.6987502,2.24657538 L5.79930991,8.13275852 C5.79002989,8.14203854 5.78207559,8.14999285 5.775447,8.15927286 C5.72109261,8.20169581 5.67999538,8.26135307 5.66143535,8.33294178 L5.40159483,9.97683077 C5.35121759,10.1571283 5.45727494,10.3427286 5.63757244,10.3917802 C5.67601823,10.4023859 5.71446402,10.406363 5.75290981,10.4037116 C5.78074987,10.406363 5.80858993,10.4050373 5.8377557,10.3997345 L7.67785079,10.1836426 C7.76137095,10.1690597 7.83163395,10.1239853 7.88201119,10.0630024 C7.89129121,10.0550481 7.90189695,10.0470938 7.90985125,10.0378137 L13.6939542,4.24177935 C14.0267091,3.90769869 14.0267091,3.60410951 13.6939542,3.27002885 L13.6939542,3.27002885 Z M7.32521009,9.62021291 L6.22353932,9.79785898 C6.22353932,9.79785898 6.09892193,9.82702475 6.04721897,9.77134464 C6.00877318,9.72759598 6.05782471,9.6188872 6.05782471,9.6188872 L6.33224811,8.64978813 L7.32521009,9.62021291 Z M7.83030823,9.11644048 L6.82011194,8.13143281 L10.9523716,4.0336418 L11.9493107,5.0053923 L7.83030823,9.11644048 L7.83030823,9.11644048 Z M13.0973816,3.85864716 L12.4517574,4.50294559 L11.4574697,3.5325208 L12.116351,2.87894236 C12.186614,2.80867936 12.3006257,2.80867936 12.3708887,2.87894236 L13.0973816,3.60543523 C13.1676446,3.67569823 13.1676446,3.78838417 13.0973816,3.85864716 L13.0973816,3.85864716 Z" id="形状" stroke="#000000" stroke-width="0.2"></path>
                </g>
            </g>
        </g>
    </g>
</svg>