<?xml version="1.0" encoding="UTF-8"?>
<svg width="16px" height="14px" viewBox="0 0 16 14" version="1.1" xmlns="http://www.w3.org/2000/svg" xmlns:xlink="http://www.w3.org/1999/xlink">
    <!-- Generator: Sketch 64 (93537) - https://sketch.com -->
    <title>编组 22</title>
    <desc>Created with Sketch.</desc>
    <g id="变化" stroke="none" stroke-width="1" fill="none" fill-rule="evenodd" opacity="0.65">
        <g id="工作空间项目-开发中心-具体工作流" transform="translate(-376.000000, -256.000000)" fill="#000000" fill-rule="nonzero">
            <g id="编组-21" transform="translate(0.000000, 239.000000)">
                <g id="编组-22" transform="translate(376.000000, 16.000000)">
                    <rect id="矩形" opacity="0" x="0" y="0" width="16" height="16"></rect>
                    <path d="M11.8011207,1.5 C12.5832301,1.5 13.2172551,2.134025 13.2172551,2.91613448 L13.2172551,2.91613448 L13.2172551,3.7962406 C13.2172551,4.05694376 13.0059135,4.26828543 12.7452103,4.26828543 C12.4845072,4.26828543 12.2731655,4.05694376 12.2731655,3.7962406 L12.2731655,3.7962406 L12.2731655,2.91613448 C12.2731655,2.65543132 12.0618238,2.44408965 11.8011207,2.44408965 L11.8011207,2.44408965 L1.41613448,2.44408965 C1.15543132,2.44408965 0.944089653,2.65543132 0.944089653,2.91613448 L0.944089653,2.91613448 L0.944089653,11.4129414 C0.944089653,11.6736445 1.15543132,11.8849862 1.41613448,11.8849862 C7.88280776,11.8861736 11.1155996,11.8861736 11.11451,11.8849862 C11.5518346,11.8849862 11.7077301,12.1345399 11.7077301,12.3738149 C11.7077301,12.6130899 11.517041,12.8290758 11.11451,12.8290758 C11.1156255,12.8288099 9.95631993,12.8287909 7.63659315,12.8290189 L7.0806724,12.8290758 L7.0806724,13.7731655 L10.3849862,13.7731655 C10.6456893,13.7731655 10.857031,13.9845072 10.857031,14.2452103 C10.857031,14.5059135 10.6456893,14.7172551 10.3849862,14.7172551 L10.3849862,14.7172551 L2.83226896,14.7172551 C2.5715658,14.7172551 2.36022413,14.5059135 2.36022413,14.2452103 C2.36022413,13.9845072 2.5715658,13.7731655 2.83226896,13.7731655 L2.83226896,13.7731655 L6.13658275,13.7731655 L6.13658275,12.8290758 L1.41613448,12.8290758 C0.634025003,12.8290758 0,12.1950508 0,11.4129414 L0,11.4129414 L0,2.91613448 C0,2.134025 0.634025003,1.5 1.41613448,1.5 L1.41613448,1.5 Z M3.74699604,4.7993644 C3.9144306,4.81953695 4.05838458,4.92750244 4.12463191,5.0825913 C4.19087924,5.23768016 4.16935537,5.4163307 4.06816814,5.551247 L2.86445383,7.15619941 L4.06816814,8.76115182 C4.22459003,8.96971435 4.18232169,9.26559268 3.97375917,9.42201457 C3.76519665,9.57843646 3.46931832,9.53616813 3.31289642,9.32760561 L1.89676194,7.43942631 C1.77088332,7.27158815 1.77088332,7.04081068 1.89676194,6.87297252 L3.31289642,4.98479321 C3.41408364,4.84987691 3.57956148,4.77919184 3.74699604,4.7993644 Z M7.91560885,4.7993644 C8.0830434,4.77919184 8.24852125,4.84987691 8.34970847,4.98479321 L8.34970847,4.98479321 L9.76584295,6.87297252 C9.89172157,7.04081068 9.89172157,7.27158815 9.76584295,7.43942631 L9.76584295,7.43942631 L8.34970847,9.32760561 C8.19328657,9.53616814 7.89740824,9.57843648 7.68884571,9.42201458 C7.48028318,9.26559268 7.43801485,8.96971435 7.59443675,8.76115182 L7.59443675,8.76115182 L8.79815105,7.15619941 L7.59443675,5.551247 C7.49324952,5.4163307 7.47172565,5.23768016 7.53797298,5.0825913 C7.60422031,4.92750244 7.74817429,4.81953696 7.91560885,4.7993644 Z M6.51492246,4.34361623 C6.76612376,4.39946734 6.92630649,4.64622755 6.87506248,4.89840901 L5.93097283,9.14681245 C5.87053333,9.39694942 5.62088264,9.55258887 5.36968134,9.49673776 C5.11848005,9.44088665 4.95829731,9.19412645 5.00954132,8.94194499 L5.95363098,4.69354155 C6.01407047,4.44340458 6.26372116,4.28776513 6.51492246,4.34361623 Z M12.9723032,4.81654203 L12.8257643,4.96215178 C12.0178647,5.79551166 11.5923638,6.76865089 11.5548444,7.86803727 L11.5542841,7.89266337 L11.4639372,7.82223262 C11.3438226,7.71906804 11.2421356,7.59232645 11.1573746,7.44086566 C10.9996308,7.15899052 10.575332,7.23114418 10.5196286,7.54931686 C10.2473822,9.10436231 10.3813273,10.1842218 10.978282,10.784529 C11.9549636,11.7666957 13.8005079,12.0695562 15.0042355,11.2093284 C16.2234854,10.3380077 16.2785693,8.65965345 15.4121713,7.67678475 C15.2278026,7.46763109 15.0439884,7.30536559 14.7298699,7.06217955 L14.5116914,6.89545894 C13.9224774,6.44719395 13.6857173,6.20670356 13.5416223,5.84505037 C13.4341707,5.57536569 13.4358706,5.38193746 13.5241209,5.23669662 L13.5409423,5.21161 C13.765065,4.87170034 13.3160315,4.49364946 13.0192808,4.77241206 L12.9723032,4.81654203 Z M12.8383045,6.02974549 L12.8643373,5.99143846 L12.9037765,6.09918995 C13.0941958,6.57710883 13.3683546,6.87590863 13.9549456,7.33336802 L14.1898865,7.513315 C14.5477548,7.78567602 14.7284498,7.93948444 14.8971066,8.13081393 C15.5100817,8.82619183 15.4705002,10.0322001 14.6050214,10.650703 C13.6953746,11.30077 12.2190252,11.0584957 11.4651467,10.3003833 L11.4076262,10.236781 C11.1507072,9.92490872 11.035486,9.38212247 11.0811545,8.60694748 L11.0956282,8.40762136 L11.1956963,8.47971423 C11.3814653,8.60506872 11.5909324,8.69987327 11.8228602,8.76318671 C12.0533369,8.82610405 12.276009,8.64022378 12.2552808,8.40221442 C12.178049,7.5154075 12.3706647,6.72829171 12.8383045,6.02974549 Z" id="形状结合"></path>
                </g>
            </g>
        </g>
    </g>
</svg>