<?xml version="1.0" standalone="no"?><!DOCTYPE svg PUBLIC "-//W3C//DTD SVG 1.1//EN" "http://www.w3.org/Graphics/SVG/1.1/DTD/svg11.dtd"><svg t="1610341004319" class="icon" viewBox="0 0 1024 1024" version="1.1" xmlns="http://www.w3.org/2000/svg" p-id="5728" xmlns:xlink="http://www.w3.org/1999/xlink" width="200" height="200"><defs><style type="text/css"></style></defs><path d="M418.496 645.376L259.072 554.624a32 32 0 0 0-31.68 55.552l159.424 90.752a32 32 0 1 0 31.68-55.552z m371.712-265.6a32 32 0 0 0-31.616-55.616L508.8 466.304l-249.728-142.08a32 32 0 0 0-31.68 55.616L480.64 523.904V832a32 32 0 1 0 64 0V522.688c0-0.96-0.448-1.856-0.576-2.816l246.08-140.032z m90.112-147.328L560.192 45.12a95.68 95.68 0 0 0-96.64 0L143.68 232.448A96.64 96.64 0 0 0 96 315.904v397.632c0 34.816 18.624 66.944 48.704 84.032l320 181.952c29.312 16.64 65.28 16.64 94.528 0l320-181.952c30.208-17.216 48.768-49.28 48.768-84.032V315.904a96.64 96.64 0 0 0-47.68-83.456zM864 713.6a32.192 32.192 0 0 1-16.256 28.032l-320 181.952a31.744 31.744 0 0 1-31.488 0l-320-181.952a32.192 32.192 0 0 1-16.256-28.032V315.904c0-11.456 6.08-22.08 15.872-27.776l319.872-187.392a31.808 31.808 0 0 1 32.192 0l320.192 187.392c9.792 5.76 15.872 16.32 15.872 27.776v397.632z m-85.376-259.584L629.312 542.08c-20.608 12.16-37.376 38.912-37.376 59.776v176.448c0 20.864 16.704 27.904 37.376 15.744l149.312-88.128c20.608-12.16 37.376-38.912 37.376-59.776V469.632c0-20.864-16.704-27.904-37.376-15.744z" p-id="5729"></path></svg>