<?xml version="1.0" encoding="UTF-8"?>
<svg width="18px" height="16px" viewBox="0 0 18 16" version="1.1" xmlns="http://www.w3.org/2000/svg" xmlns:xlink="http://www.w3.org/1999/xlink">
    <!-- Generator: Sketch 64 (93537) - https://sketch.com -->
    <title>组织群组</title>
    <desc>Created with Sketch.</desc>
    <g id="变化" stroke="none" stroke-width="1" fill="none" fill-rule="evenodd">
        <g id="工作空间项目-开发中心-具体工作流" transform="translate(-48.000000, -207.000000)" fill-rule="nonzero">
            <g id="编组-24" transform="translate(24.000000, 191.000000)">
                <g id="组织群组" transform="translate(24.000000, 15.000000)">
                    <rect id="矩形" fill="#000000" opacity="0" x="0" y="0" width="18" height="18"></rect>
                    <path d="M16.875,12.375 L15.75675,12.375 L15.75675,9.4325625 C15.75675,9.12190233 15.5049102,8.8700625 15.19425,8.8700625 L9.5625,8.8700625 L9.5625,7.3125 L12.375,7.3125 C12.6856602,7.3125 12.9375,7.06066017 12.9375,6.75 L12.9375,1.6875 C12.9375,1.37683983 12.6856602,1.125 12.375,1.125 L5.625,1.125 C5.31433983,1.125 5.0625,1.37683983 5.0625,1.6875 L5.0625,6.75 C5.0625,7.06066017 5.31433983,7.3125 5.625,7.3125 L8.4375,7.3125 L8.4375,8.8700625 L2.847375,8.8700625 C2.53693437,8.87006234 2.28518544,9.12155952 2.284875,9.432 L2.2815,12.375 L1.125,12.375 C0.814339828,12.375 0.5625,12.6268398 0.5625,12.9375 L0.5625,16.3125 C0.5625,16.6231602 0.814339828,16.875 1.125,16.875 L4.5,16.875 C4.81066017,16.875 5.0625,16.6231602 5.0625,16.3125 L5.0625,12.9375 C5.0625,12.6268398 4.81066017,12.375 4.5,12.375 L3.4065,12.375 L3.4093125,9.9950625 L8.4375,9.9950625 L8.4375,12.375 L7.3125,12.375 C7.00183983,12.375 6.75,12.6268398 6.75,12.9375 L6.75,16.3125 C6.75,16.6231602 7.00183983,16.875 7.3125,16.875 L10.6875,16.875 C10.9981602,16.875 11.25,16.6231602 11.25,16.3125 L11.25,12.9375 C11.25,12.6268398 10.9981602,12.375 10.6875,12.375 L9.5625,12.375 L9.5625,9.9950625 L14.63175,9.9950625 L14.63175,12.375 L13.5,12.375 C13.1893398,12.375 12.9375,12.6268398 12.9375,12.9375 L12.9375,16.3125 C12.9375,16.6231602 13.1893398,16.875 13.5,16.875 L16.875,16.875 C17.1856602,16.875 17.4375,16.6231602 17.4375,16.3125 L17.4375,12.9375 C17.4375,12.6268398 17.1856602,12.375 16.875,12.375 Z M6.1875,2.25 L11.8125,2.25 L11.8125,6.1875 L6.1875,6.1875 L6.1875,2.25 Z M3.9375,15.75 L1.6875,15.75 L1.6875,13.5 L3.9375,13.5 L3.9375,15.75 Z M10.125,15.75 L7.875,15.75 L7.875,13.5 L10.125,13.5 L10.125,15.75 Z M16.3125,15.75 L14.0625,15.75 L14.0625,13.5 L16.3125,13.5 L16.3125,15.75 Z" id="形状" fill="#2E92F7"></path>
                </g>
            </g>
        </g>
    </g>
</svg>