<?xml version="1.0" encoding="UTF-8"?>
<svg width="14px" height="14px" viewBox="0 0 14 14" version="1.1" xmlns="http://www.w3.org/2000/svg" xmlns:xlink="http://www.w3.org/1999/xlink">
    <!-- Generator: Sketch 64 (93537) - https://sketch.com -->
    <title>icon_保存</title>
    <desc>Created with Sketch.</desc>
    <g id="变化" stroke="none" stroke-width="1" fill="none" fill-rule="evenodd" opacity="0.65">
        <g id="工作空间项目-开发中心-具体工作流" transform="translate(-203.000000, -256.000000)" fill="#000000" fill-rule="nonzero">
            <g id="编组-21" transform="translate(0.000000, 239.000000)">
                <g id="icon_保存" transform="translate(202.000000, 16.000000)">
                    <rect id="矩形" opacity="0" x="0" y="0" width="16" height="16"></rect>
                    <path d="M14.707,5.5 L10.5,1.293 C10.3125073,1.10545063 10.0581948,1 9.793,1 L2,1 C1.44771525,1 1,1.44771525 1,2 L1,14 C1,14.5522847 1.44771525,15 2,15 L14,15 C14.5522847,15 15,14.5522847 15,14 L15,6.207 C15,5.94180519 14.8945494,5.68749273 14.707,5.5 Z M4,2 L4.75,2 L4.75,4.5 L4,4.5 L4,2 Z M5.75,2 L8,2 L8,4.5 L5.75,4.5 L5.75,2 Z M4,14 L4,11 L12,11 L12,14 L4,14 Z M14,14 L13,14 L13,10.5 C13,10.2238576 12.7761424,10 12.5,10 L3.5,10 C3.22385763,10 3,10.2238576 3,10.5 L3,14 L2,14 L2,2 L3,2 L3,5 C3,5.27614237 3.22385763,5.5 3.5,5.5 L8.5,5.5 C8.77614237,5.5 9,5.27614237 9,5 L9,2 L9.793,2 L14,6.207 L14,14 Z" id="形状"></path>
                </g>
            </g>
        </g>
    </g>
</svg>