<?xml version="1.0" encoding="UTF-8"?>
<svg width="16px" height="16px" viewBox="0 0 16 16" version="1.1" xmlns="http://www.w3.org/2000/svg" xmlns:xlink="http://www.w3.org/1999/xlink">
    <!-- Generator: Sketch 64 (93537) - https://sketch.com -->
    <desc>Created with Sketch.</desc>
    <g id="变化" stroke="none" stroke-width="1" fill="none" fill-rule="evenodd">
        <g id="工作空间项目-开发中心-具体工作流" transform="translate(-24.000000, -255.000000)" fill="#000000" fill-rule="nonzero">
            <g id="编组-21" transform="translate(0.000000, 239.000000)">
                <g id="icon_设置" transform="translate(24.000000, 16.000000)">
                    <rect id="矩形" opacity="0" x="0" y="0" width="16" height="16"></rect>
                    <path d="M7.545,1.75 L7.275,3.167 L6.9525,3.2375 C6.39926882,3.35862199 5.87159436,3.57591962 5.3935,3.8795 L5.1015,4.0645 L3.9565,3.2045 L3.259,3.902 L4.07,5.096 L3.892,5.3735 C3.58620104,5.8502086 3.36637147,6.37685187 3.2425,6.9295 L3.1675,7.267 L1.75,7.4685 L1.75,8.4545 L3.167,8.725 L3.2375,9.0475 C3.35871117,9.60070328 3.57600258,10.1283626 3.8795,10.6065 L4.0645,10.8985 L3.2045,12.0435 L3.902,12.741 L5.096,11.93 L5.3735,12.108 C5.8502086,12.413799 6.37685187,12.6336285 6.9295,12.7575 L7.267,12.8325 L7.4685,14.25 L8.4545,14.25 L8.725,12.833 L9.0475,12.7625 C9.60070328,12.6412888 10.1283626,12.4239974 10.6065,12.1205 L10.8985,11.9355 L12.0435,12.7955 L12.741,12.098 L11.93,10.904 L12.108,10.6265 C12.413799,10.1497914 12.6336285,9.62314813 12.7575,9.0705 L12.8325,8.733 L14.25,8.5315 L14.25,7.545 L12.833,7.2745 L12.7625,6.952 C12.6412888,6.39879672 12.4239974,5.87113736 12.1205,5.393 L11.9355,5.101 L12.7955,3.956 L12.098,3.2585 L10.904,4.0695 L10.6265,3.8915 C10.1497721,3.58573777 9.62313555,3.36591099 9.0705,3.242 L8.733,3.167 L8.5315,1.7495 L7.545,1.7495 L7.545,1.75 Z M6.415,2.3415 L6.7185,0.75 L9.3995,0.75 L9.628,2.3535 C10.0655,2.4795 10.485,2.6555 10.88,2.878 L12.2205,1.967 L14.1165,3.863 L13.1435,5.158 C13.3635,5.555 13.5365,5.976 13.6585,6.4145 L15.2505,6.718 L15.2505,9.399 L13.647,9.6275 C13.5214061,10.0637948 13.345385,10.4839633 13.1225,10.8795 L14.0335,12.22 L12.1375,14.116 L10.8425,13.143 C10.4455,13.363 10.0245,13.536 9.586,13.658 L9.2825,15.25 L6.6015,15.25 L6.373,13.6465 C5.93670517,13.5209061 5.5165367,13.344885 5.121,13.122 L3.78,14.033 L1.884,12.137 L2.857,10.842 C2.63706533,10.444614 2.46423095,10.0229317 2.342,9.5855 L0.75,9.282 L0.75,6.601 L2.3535,6.3725 C2.4795,5.9355 2.6555,5.5155 2.878,5.1205 L1.967,3.78 L3.863,1.884 L5.158,2.857 C5.55538796,2.63706944 5.97706979,2.46423526 6.4145,2.342 L6.415,2.3415 Z M8,11 C6.34314575,11 5,9.65685425 5,8 C5,6.34314575 6.34314575,5 8,5 C9.65685425,5 11,6.34314575 11,8 C11,9.65685425 9.65685425,11 8,11 Z M8,10 C9.1045695,10 10,9.1045695 10,8 C10,6.8954305 9.1045695,6 8,6 C6.8954305,6 6,6.8954305 6,8 C6,9.1045695 6.8954305,10 8,10 Z" id="形状"></path>
                </g>
            </g>
        </g>
    </g>
</svg>