<?xml version="1.0" encoding="UTF-8"?>
<svg width="14px" height="14px" viewBox="0 0 14 14" version="1.1" xmlns="http://www.w3.org/2000/svg" xmlns:xlink="http://www.w3.org/1999/xlink">
    <!-- Generator: Sketch 64 (93537) - https://sketch.com -->
    <title>Group 55 Copy 2</title>
    <desc>Created with Sketch.</desc>
    <g id="变化" stroke="none" stroke-width="1" fill="none" fill-rule="evenodd" opacity="0.65">
        <g id="工作空间首页-组件商店" transform="translate(-696.000000, -20.000000)" fill="#FFFFFF">
            <g id="导航栏">
                <g id="Group-55-Copy-2" transform="translate(695.000000, 19.000000)">
                    <rect id="Rectangle-40" fill-opacity="0" x="0" y="0" width="16" height="16"></rect>
                    <g id="search" transform="translate(1.000000, 1.000000)" fill-rule="nonzero">
                        <path d="M13.8359375,13.0390625 L10.621875,9.8265625 C11.4828125,8.7875 12,7.4546875 12,6 C12,2.6859375 9.3140625,0 6,0 C2.6859375,0 0,2.6859375 0,6 C0,9.3140625 2.6859375,12 6,12 C7.4546875,12 8.7875,11.4828125 9.8265625,10.621875 L13.040625,13.8359375 C13.15,13.9453125 13.29375,14 13.4390625,14 C13.584375,14 13.7265625,13.9453125 13.8375,13.8359375 C14.0546875,13.615625 14.0546875,13.259375 13.8359375,13.0390625 Z M7.896875,10.4921875 C7.296875,10.746875 6.659375,10.875 6,10.875 C5.340625,10.875 4.703125,10.746875 4.103125,10.4921875 C3.5234375,10.246875 3.0015625,9.8953125 2.553125,9.446875 C2.1046875,8.9984375 1.753125,8.4765625 1.5078125,7.896875 C1.253125,7.296875 1.125,6.659375 1.125,6 C1.125,5.340625 1.253125,4.703125 1.5078125,4.103125 C1.753125,3.5234375 2.1046875,3.0015625 2.553125,2.553125 C3.0015625,2.1046875 3.5234375,1.753125 4.103125,1.5078125 C4.703125,1.253125 5.340625,1.125 6,1.125 C6.659375,1.125 7.296875,1.253125 7.896875,1.5078125 C8.4765625,1.753125 8.9984375,2.1046875 9.446875,2.553125 C9.8953125,3.0015625 10.246875,3.5234375 10.4921875,4.103125 C10.746875,4.703125 10.875,5.340625 10.875,6 C10.875,6.659375 10.746875,7.296875 10.4921875,7.896875 C10.246875,8.4765625 9.8953125,8.9984375 9.446875,9.446875 C8.9984375,9.8953125 8.478125,10.246875 7.896875,10.4921875 Z" id="Shape"></path>
                    </g>
                </g>
            </g>
        </g>
    </g>
</svg>