<?xml version="1.0" encoding="UTF-8"?>
<svg width="14px" height="14px" viewBox="0 0 14 14" version="1.1" xmlns="http://www.w3.org/2000/svg" xmlns:xlink="http://www.w3.org/1999/xlink">
    <!-- Generator: Sketch 64 (93537) - https://sketch.com -->
    <title>版本</title>
    <desc>Created with Sketch.</desc>
    <g id="变化" stroke="none" stroke-width="1" fill="none" fill-rule="evenodd" opacity="0.65">
        <g id="工作空间项目-开发中心-具体工作流" transform="translate(-113.000000, -875.000000)" fill="#000000" fill-rule="nonzero">
            <g id="编组-23" transform="translate(0.000000, 864.000000)">
                <g id="版本" transform="translate(112.000000, 10.000000)">
                    <rect id="矩形" opacity="0" x="0" y="0" width="16" height="16"></rect>
                    <path d="M13.2439375,1.0625 C14.1965312,1.0625 14.96875,1.83498437 14.96875,2.78789063 L14.96875,13.2121094 C14.96875,14.1650156 14.1965312,14.9375 13.2439375,14.9375 L6.84778125,14.9375 C6.1239375,14.9375 5.50423437,14.4914531 5.24835937,13.8591406 L4.55128125,13.8591406 C3.79078125,13.8591406 3.1504375,13.3488281 2.93590625,12.6487656 C2.88801141,12.6648173 2.83782555,12.6729758 2.7873125,12.6729219 C1.84425,12.6729219 1.07796875,11.9158125 1.06273437,10.9760781 L1.0625,10.9475313 L1.0625,5.124375 C1.0625,4.17146875 1.83471875,3.39898437 2.7873125,3.39898437 C2.83235938,3.39898437 2.8759375,3.40535937 2.91715625,3.41726562 C3.1083125,2.69228125 3.7514375,2.153875 4.52321875,2.14110937 L4.55128125,2.14089062 L5.24835937,2.14089062 C5.50423438,1.50851563 6.1239375,1.0625 6.84778125,1.0625 L13.2439375,1.0625 Z M13.2439375,1.99707812 L6.84778125,1.99707812 C6.4111875,1.99707812 6.05725,2.35114063 6.05725,2.78789063 L6.05725,13.2121094 C6.05725,13.6488594 6.4111875,14.0029219 6.84778125,14.0029219 L13.2439375,14.0029219 C13.6805469,14.0029219 14.0344844,13.6488594 14.0344844,13.2121094 L14.0344844,2.78789063 C14.0344844,2.35114063 13.6805469,1.99707812 13.2439375,1.99707812 Z M5.12296875,3.07545313 L4.55128125,3.07545313 C4.1396875,3.07545313 3.80029687,3.4198125 3.79354687,3.853125 L3.7934375,3.86626563 L3.7934375,12.1337656 C3.7934375,12.5688281 4.12871875,12.9175156 4.53882812,12.9244531 L4.55128125,12.9245625 L5.12296875,12.9245625 L5.12296875,3.07545313 L5.12296875,3.07545313 Z M2.79832813,4.3334375 L2.7873125,4.3335625 C2.35507812,4.3335625 2.00385938,4.68057812 1.996875,5.11129687 L1.99676563,5.124375 L1.99676563,10.9475469 C1.99676563,11.3799375 2.34365625,11.7312656 2.77423438,11.73825 L2.7873125,11.7383594 C2.81175,11.7383594 2.83575,11.7402344 2.8591875,11.7438594 L2.8591875,4.32807812 C2.83903885,4.33118348 2.8187094,4.33297372 2.79832813,4.3334375 L2.79832813,4.3334375 Z M12.2897344,5.27285938 C12.5256719,5.36739063 12.6421094,5.63275 12.5538438,5.86965625 L12.5496875,5.88040625 L10.435875,11.1594844 C10.2808125,11.5467344 9.73684375,11.5508906 9.57360938,11.1715625 L9.56876563,11.1599375 L7.44851563,5.88085938 C7.35232813,5.64139063 7.46842188,5.36926563 7.7078125,5.27304688 C7.94364063,5.17826563 8.211125,5.28954688 8.311,5.52179688 L8.31542188,5.5324375 L10.0015625,9.73059375 L11.6824062,5.532875 C11.7783438,5.2933125 12.05025,5.17689063 12.28975,5.27284375 L12.2897344,5.27285938 Z" id="形状"></path>
                </g>
            </g>
        </g>
    </g>
</svg>