<?xml version="1.0" standalone="no"?><!DOCTYPE svg PUBLIC "-//W3C//DTD SVG 1.1//EN" "http://www.w3.org/Graphics/SVG/1.1/DTD/svg11.dtd"><svg t="1610341127988" class="icon" viewBox="0 0 1024 1024" version="1.1" xmlns="http://www.w3.org/2000/svg" p-id="10184" xmlns:xlink="http://www.w3.org/1999/xlink" width="200" height="200"><defs><style type="text/css"></style></defs><path d="M903.533714 256.731429L657.627429 10.678857A36.571429 36.571429 0 0 0 631.734857 0H146.285714a36.571429 36.571429 0 0 0-36.571428 36.571429v950.857142a36.571429 36.571429 0 0 0 36.571428 36.571429h731.428572a36.571429 36.571429 0 0 0 36.571428-36.571429V282.624a36.790857 36.790857 0 0 0-10.752-25.965714z m-73.581714 42.715428h-215.04v-215.04l215.04 215.04z m2.048 642.267429h-640V82.285714h345.161143V329.142857c0 26.477714 21.430857 47.981714 47.981714 47.981714h246.857143v564.589715z m-329.142857-308.589715H292.571429a9.142857 9.142857 0 0 0-9.142858 9.142858v54.857142c0 5.046857 4.096 9.142857 9.142858 9.142858h210.285714A9.142857 9.142857 0 0 0 512 697.124571v-54.857142a9.142857 9.142857 0 0 0-9.142857-9.142858z m-219.428572-146.285714v54.857143c0 5.046857 4.096 9.142857 9.142858 9.142857h438.857142a9.142857 9.142857 0 0 0 9.142858-9.142857v-54.857143A9.142857 9.142857 0 0 0 731.428571 477.696H292.571429a9.142857 9.142857 0 0 0-9.142858 9.142857z" p-id="10185"></path></svg>