<?xml version="1.0" standalone="no"?><!DOCTYPE svg PUBLIC "-//W3C//DTD SVG 1.1//EN" "http://www.w3.org/Graphics/SVG/1.1/DTD/svg11.dtd"><svg t="1610340984271" class="icon" viewBox="0 0 1024 1024" version="1.1" xmlns="http://www.w3.org/2000/svg" p-id="5160" xmlns:xlink="http://www.w3.org/1999/xlink" width="200" height="200"><defs><style type="text/css"></style></defs><path d="M520.750545 545.512727V351.930182h128c17.687273 0 31.976727-14.289455 31.976728-31.976727v-128a31.976727 31.976727 0 0 0-32.023273-32.023273H328.797091a31.976727 31.976727 0 0 0-32.023273 32.023273v128c0 17.687273 14.336 32.023273 32.023273 32.023272h128v193.442909m0 64.046546v263.400727a63.767273 63.767273 0 0 0-32.023273 55.109818 64 64 0 1 0 128 0 63.767273 63.767273 0 0 0-32.023273-55.109818v-345.413818H456.750545m0.651637 0.465454H155.601455a32.116364 32.116364 0 0 0-32.581819 31.557819l-0.186181 165.236363H55.854545a32.116364 32.116364 0 0 0-32.581818 31.604364v189.486545a32.116364 32.116364 0 0 0 32.581818 31.604364h195.49091a32.116364 32.116364 0 0 0 32.581818-31.604364V756.363636a32.116364 32.116364 0 0 0-32.581818-31.604363H188.043636l0.139637-133.585455h269.218909v-63.208727zM544.581818 591.127273h293.608727v133.632H772.654545a32.116364 32.116364 0 0 0-32.581818 31.604363v189.486546a32.116364 32.116364 0 0 0 32.581818 31.604363h195.49091a32.116364 32.116364 0 0 0 32.581818-31.604363V756.363636a32.116364 32.116364 0 0 0-32.581818-31.604363h-64.791273v-165.236364a32.116364 32.116364 0 0 0-32.581818-31.557818h-350.72V591.127273M218.763636 914.292364H88.436364v-126.324364h130.327272v126.324364z m716.8 0h-130.327272v-126.324364h130.327272v126.324364z m-670.859636-434.269091h77.498182a31.976727 31.976727 0 1 0 0-64.046546H264.704A31.976727 31.976727 0 0 1 232.727273 384v-256c0-17.687273 14.336-32.023273 32.023272-32.023273h448c17.687273 0 31.976727 14.336 31.976728 32.023273v256c0 17.687273-14.336 32.023273-32.023273 32.023273h-90.577455a31.976727 31.976727 0 1 0 0 63.953454h90.624c53.015273 0 95.976727-42.961455 95.976728-95.976727v-256c0-53.061818-42.961455-96.023273-96.023273-96.023273H264.750545c-53.061818 0-96.023273 43.008-96.023272 96.023273v256c0 53.061818 42.961455 96.023273 96.023272 96.023273z" p-id="5161"></path></svg>