<?xml version="1.0" encoding="UTF-8"?>
<svg width="66px" height="89px" viewBox="0 0 66 89" version="1.1" xmlns="http://www.w3.org/2000/svg" xmlns:xlink="http://www.w3.org/1999/xlink">
    <!-- Generator: Sketch 64 (93537) - https://sketch.com -->
    <title>数据可视化</title>
    <desc>Created with Sketch.</desc>
    <defs>
        <rect id="path-1" x="0" y="0" width="90" height="90"></rect>
        <linearGradient x1="1.81818182%" y1="50%" x2="100%" y2="50%" id="linearGradient-3">
            <stop stop-color="#D4F8FF" offset="0%"></stop>
            <stop stop-color="#CBF2FF" offset="8%"></stop>
            <stop stop-color="#A2D9FF" offset="49%"></stop>
            <stop stop-color="#88CAFF" offset="81%"></stop>
            <stop stop-color="#7FC4FF" offset="100%"></stop>
        </linearGradient>
        <linearGradient x1="0.0862068966%" y1="50.0182809%" x2="99.9425287%" y2="50.0182809%" id="linearGradient-4">
            <stop stop-color="#7FC4FF" offset="0%"></stop>
            <stop stop-color="#6CAFF2" offset="11%"></stop>
            <stop stop-color="#3E7BD3" offset="41%"></stop>
            <stop stop-color="#1C55BD" offset="66%"></stop>
            <stop stop-color="#083EAF" offset="87%"></stop>
            <stop stop-color="#0035AA" offset="100%"></stop>
        </linearGradient>
        <linearGradient x1="-3.57142857%" y1="49.0694935%" x2="102.142857%" y2="49.0694935%" id="linearGradient-5">
            <stop stop-color="#5778FF" offset="0%"></stop>
            <stop stop-color="#26CAEF" offset="100%"></stop>
        </linearGradient>
        <linearGradient x1="-2%" y1="50%" x2="96.6666667%" y2="50%" id="linearGradient-6">
            <stop stop-color="#5778FF" offset="0%"></stop>
            <stop stop-color="#5C7DFF" offset="18%"></stop>
            <stop stop-color="#6A8AFF" offset="39%"></stop>
            <stop stop-color="#82A0FF" offset="61%"></stop>
            <stop stop-color="#A3BEFF" offset="85%"></stop>
            <stop stop-color="#BCD5FF" offset="100%"></stop>
        </linearGradient>
        <linearGradient x1="0.307692308%" y1="50%" x2="99.7692308%" y2="50%" id="linearGradient-7">
            <stop stop-color="#D4F8FF" offset="0%"></stop>
            <stop stop-color="#CBF2FF" offset="8%"></stop>
            <stop stop-color="#A2D9FF" offset="49%"></stop>
            <stop stop-color="#88CAFF" offset="81%"></stop>
            <stop stop-color="#7FC4FF" offset="100%"></stop>
        </linearGradient>
        <linearGradient x1="-0.0775193798%" y1="50.044843%" x2="100.155039%" y2="50.044843%" id="linearGradient-8">
            <stop stop-color="#D4F8FF" offset="0%"></stop>
            <stop stop-color="#CBF2FF" offset="8%"></stop>
            <stop stop-color="#A2D9FF" offset="49%"></stop>
            <stop stop-color="#88CAFF" offset="81%"></stop>
            <stop stop-color="#7FC4FF" offset="100%"></stop>
        </linearGradient>
        <linearGradient x1="-0.387596899%" y1="50.044843%" x2="99.8449612%" y2="50.044843%" id="linearGradient-9">
            <stop stop-color="#D4F8FF" offset="0%"></stop>
            <stop stop-color="#CBF2FF" offset="8%"></stop>
            <stop stop-color="#A2D9FF" offset="49%"></stop>
            <stop stop-color="#88CAFF" offset="81%"></stop>
            <stop stop-color="#7FC4FF" offset="100%"></stop>
        </linearGradient>
        <linearGradient x1="0%" y1="50%" x2="100.310078%" y2="50%" id="linearGradient-10">
            <stop stop-color="#7BECFF" offset="0%"></stop>
            <stop stop-color="#C5F7FF" offset="100%"></stop>
        </linearGradient>
        <linearGradient x1="-0.0775193798%" y1="49.955157%" x2="100.155039%" y2="49.955157%" id="linearGradient-11">
            <stop stop-color="#7BECFF" offset="0%"></stop>
            <stop stop-color="#C5F7FF" offset="100%"></stop>
        </linearGradient>
        <linearGradient x1="-0.387596899%" y1="49.955157%" x2="99.9224806%" y2="49.955157%" id="linearGradient-12">
            <stop stop-color="#D4F8FF" offset="0%"></stop>
            <stop stop-color="#CBF2FF" offset="8%"></stop>
            <stop stop-color="#A2D9FF" offset="49%"></stop>
            <stop stop-color="#88CAFF" offset="81%"></stop>
            <stop stop-color="#7FC4FF" offset="100%"></stop>
        </linearGradient>
        <linearGradient x1="-0.322492492%" y1="50.2543642%" x2="99.8114264%" y2="50.2543642%" id="linearGradient-13">
            <stop stop-color="#5778FF" offset="0%"></stop>
            <stop stop-color="#5C7DFF" offset="18%"></stop>
            <stop stop-color="#6A8AFF" offset="39%"></stop>
            <stop stop-color="#82A0FF" offset="61%"></stop>
            <stop stop-color="#A3BEFF" offset="85%"></stop>
            <stop stop-color="#BCD5FF" offset="100%"></stop>
        </linearGradient>
        <linearGradient x1="-0.483870968%" y1="50.4894001%" x2="99.6774194%" y2="50.4894001%" id="linearGradient-14">
            <stop stop-color="#5778FF" offset="0%"></stop>
            <stop stop-color="#26CAEF" offset="100%"></stop>
        </linearGradient>
        <linearGradient x1="-0.535714286%" y1="49.5347317%" x2="99.8214286%" y2="49.5347317%" id="linearGradient-15">
            <stop stop-color="#7BECFF" offset="0%"></stop>
            <stop stop-color="#C5F7FF" offset="100%"></stop>
        </linearGradient>
        <linearGradient x1="-0.535714286%" y1="49.4610058%" x2="99.8214286%" y2="49.4610058%" id="linearGradient-16">
            <stop stop-color="#5778FF" offset="0%"></stop>
            <stop stop-color="#26CAEF" offset="100%"></stop>
        </linearGradient>
        <linearGradient x1="0%" y1="49.5284867%" x2="101.785714%" y2="49.5284867%" id="linearGradient-17">
            <stop stop-color="#7BECFF" offset="0%"></stop>
            <stop stop-color="#C5F7FF" offset="100%"></stop>
        </linearGradient>
        <linearGradient x1="-0.714285714%" y1="50.2642109%" x2="99.6428571%" y2="50.2642109%" id="linearGradient-18">
            <stop stop-color="#5778FF" offset="0%"></stop>
            <stop stop-color="#26CAEF" offset="100%"></stop>
        </linearGradient>
        <linearGradient x1="-0.357142857%" y1="50.9618943%" x2="101.428571%" y2="50.9618943%" id="linearGradient-19">
            <stop stop-color="#5778FF" offset="0%"></stop>
            <stop stop-color="#26CAEF" offset="100%"></stop>
        </linearGradient>
        <linearGradient x1="-0.151515152%" y1="50.4521918%" x2="99.8484848%" y2="50.4521918%" id="linearGradient-20">
            <stop stop-color="#7BECFF" offset="0%"></stop>
            <stop stop-color="#C5F7FF" offset="100%"></stop>
        </linearGradient>
        <linearGradient x1="-0.30295251%" y1="50%" x2="99.6713759%" y2="50%" id="linearGradient-21">
            <stop stop-color="#5778FF" offset="0%"></stop>
            <stop stop-color="#5C7DFF" offset="18%"></stop>
            <stop stop-color="#6A8AFF" offset="39%"></stop>
            <stop stop-color="#82A0FF" offset="61%"></stop>
            <stop stop-color="#A3BEFF" offset="85%"></stop>
            <stop stop-color="#BCD5FF" offset="100%"></stop>
        </linearGradient>
        <linearGradient x1="1.08695652%" y1="51.3840478%" x2="100.652174%" y2="51.3840478%" id="linearGradient-22">
            <stop stop-color="#5778FF" offset="0%"></stop>
            <stop stop-color="#5C7DFF" offset="18%"></stop>
            <stop stop-color="#6A8AFF" offset="39%"></stop>
            <stop stop-color="#82A0FF" offset="61%"></stop>
            <stop stop-color="#A3BEFF" offset="85%"></stop>
            <stop stop-color="#BCD5FF" offset="100%"></stop>
        </linearGradient>
        <linearGradient x1="-0.526315789%" y1="49.0867533%" x2="97.8947368%" y2="49.0867533%" id="linearGradient-23">
            <stop stop-color="#5778FF" offset="0%"></stop>
            <stop stop-color="#5C7DFF" offset="18%"></stop>
            <stop stop-color="#6A8AFF" offset="39%"></stop>
            <stop stop-color="#82A0FF" offset="61%"></stop>
            <stop stop-color="#A3BEFF" offset="85%"></stop>
            <stop stop-color="#BCD5FF" offset="100%"></stop>
        </linearGradient>
        <linearGradient x1="-0.102040816%" y1="50.0430779%" x2="100%" y2="50.0430779%" id="linearGradient-24">
            <stop stop-color="#7BECFF" offset="0%"></stop>
            <stop stop-color="#C5F7FF" offset="100%"></stop>
        </linearGradient>
        <linearGradient x1="-0.204081633%" y1="49.7289354%" x2="100%" y2="49.7289354%" id="linearGradient-25">
            <stop stop-color="#5778FF" offset="0%"></stop>
            <stop stop-color="#26CAEF" offset="100%"></stop>
        </linearGradient>
        <linearGradient x1="-0.694444444%" y1="50.1587302%" x2="100.416667%" y2="50.1587302%" id="linearGradient-26">
            <stop stop-color="#5778FF" offset="0%"></stop>
            <stop stop-color="#5C7DFF" offset="18%"></stop>
            <stop stop-color="#6A8AFF" offset="39%"></stop>
            <stop stop-color="#82A0FF" offset="61%"></stop>
            <stop stop-color="#A3BEFF" offset="85%"></stop>
            <stop stop-color="#BCD5FF" offset="100%"></stop>
        </linearGradient>
        <linearGradient x1="0.273972603%" y1="50.1587302%" x2="99.8630137%" y2="50.1587302%" id="linearGradient-27">
            <stop stop-color="#4553C7" offset="0%"></stop>
            <stop stop-color="#4857CA" stop-opacity="0.93" offset="4%"></stop>
            <stop stop-color="#5061D2" stop-opacity="0.73" offset="17%"></stop>
            <stop stop-color="#5769D9" stop-opacity="0.58" offset="30%"></stop>
            <stop stop-color="#5C70DE" stop-opacity="0.45" offset="45%"></stop>
            <stop stop-color="#6074E2" stop-opacity="0.37" offset="60%"></stop>
            <stop stop-color="#6277E4" stop-opacity="0.32" offset="77%"></stop>
            <stop stop-color="#6378E5" stop-opacity="0.3" offset="100%"></stop>
        </linearGradient>
        <linearGradient x1="0.113636364%" y1="50.2993722%" x2="99.6590909%" y2="50.2993722%" id="linearGradient-28">
            <stop stop-color="#5778FF" offset="0%"></stop>
            <stop stop-color="#5C7DFF" offset="18%"></stop>
            <stop stop-color="#6A8AFF" offset="39%"></stop>
            <stop stop-color="#82A0FF" offset="61%"></stop>
            <stop stop-color="#A3BEFF" offset="85%"></stop>
            <stop stop-color="#BCD5FF" offset="100%"></stop>
        </linearGradient>
        <linearGradient x1="0.102040816%" y1="49.6656303%" x2="100.408163%" y2="49.6656303%" id="linearGradient-29">
            <stop stop-color="#4553C7" offset="0%"></stop>
            <stop stop-color="#4857CA" stop-opacity="0.93" offset="4%"></stop>
            <stop stop-color="#5061D2" stop-opacity="0.73" offset="17%"></stop>
            <stop stop-color="#5769D9" stop-opacity="0.58" offset="30%"></stop>
            <stop stop-color="#5C70DE" stop-opacity="0.45" offset="45%"></stop>
            <stop stop-color="#6074E2" stop-opacity="0.37" offset="60%"></stop>
            <stop stop-color="#6277E4" stop-opacity="0.32" offset="77%"></stop>
            <stop stop-color="#6378E5" stop-opacity="0.3" offset="100%"></stop>
        </linearGradient>
        <linearGradient x1="0.272373541%" y1="50.0870513%" x2="100.194553%" y2="50.0870513%" id="linearGradient-30">
            <stop stop-color="#4553C7" offset="0%"></stop>
            <stop stop-color="#4857CA" stop-opacity="0.93" offset="4%"></stop>
            <stop stop-color="#5061D2" stop-opacity="0.73" offset="17%"></stop>
            <stop stop-color="#5769D9" stop-opacity="0.58" offset="30%"></stop>
            <stop stop-color="#5C70DE" stop-opacity="0.45" offset="45%"></stop>
            <stop stop-color="#6074E2" stop-opacity="0.37" offset="60%"></stop>
            <stop stop-color="#6277E4" stop-opacity="0.32" offset="77%"></stop>
            <stop stop-color="#6378E5" stop-opacity="0.3" offset="100%"></stop>
        </linearGradient>
        <linearGradient x1="0%" y1="50%" x2="99.8380567%" y2="50%" id="linearGradient-31">
            <stop stop-color="#5778FF" offset="0%"></stop>
            <stop stop-color="#5C7DFF" offset="18%"></stop>
            <stop stop-color="#6A8AFF" offset="39%"></stop>
            <stop stop-color="#82A0FF" offset="61%"></stop>
            <stop stop-color="#A3BEFF" offset="85%"></stop>
            <stop stop-color="#BCD5FF" offset="100%"></stop>
        </linearGradient>
        <linearGradient x1="12%" y1="50.1111111%" x2="87%" y2="50.1111111%" id="linearGradient-32">
            <stop stop-color="#D4F8FF" offset="0%"></stop>
            <stop stop-color="#CBF2FF" offset="8%"></stop>
            <stop stop-color="#A2D9FF" offset="49%"></stop>
            <stop stop-color="#88CAFF" offset="81%"></stop>
            <stop stop-color="#7FC4FF" offset="100%"></stop>
        </linearGradient>
        <linearGradient x1="-0.191082803%" y1="50%" x2="99.7452229%" y2="50%" id="linearGradient-33">
            <stop stop-color="#D4F8FF" offset="0%"></stop>
            <stop stop-color="#CBF2FF" offset="8%"></stop>
            <stop stop-color="#A2D9FF" offset="49%"></stop>
            <stop stop-color="#88CAFF" offset="81%"></stop>
            <stop stop-color="#7FC4FF" offset="100%"></stop>
        </linearGradient>
        <linearGradient x1="1.81818182%" y1="49.8666667%" x2="103.636364%" y2="49.8666667%" id="linearGradient-34">
            <stop stop-color="#5778FF" offset="0%"></stop>
            <stop stop-color="#5C7DFF" offset="18%"></stop>
            <stop stop-color="#6A8AFF" offset="39%"></stop>
            <stop stop-color="#82A0FF" offset="61%"></stop>
            <stop stop-color="#A3BEFF" offset="85%"></stop>
            <stop stop-color="#BCD5FF" offset="100%"></stop>
        </linearGradient>
        <linearGradient x1="4.54545455%" y1="50.1666667%" x2="100.909091%" y2="50.1666667%" id="linearGradient-35">
            <stop stop-color="#5778FF" offset="0%"></stop>
            <stop stop-color="#26CAEF" offset="100%"></stop>
        </linearGradient>
        <linearGradient x1="-3.33333333%" y1="50%" x2="100%" y2="50%" id="linearGradient-36">
            <stop stop-color="#7BECFF" offset="0%"></stop>
            <stop stop-color="#C5F7FF" offset="100%"></stop>
        </linearGradient>
        <linearGradient x1="-1.81818182%" y1="49.5833333%" x2="99.0909091%" y2="49.5833333%" id="linearGradient-37">
            <stop stop-color="#4553C7" offset="0%"></stop>
            <stop stop-color="#4857CA" stop-opacity="0.93" offset="4%"></stop>
            <stop stop-color="#5061D2" stop-opacity="0.73" offset="17%"></stop>
            <stop stop-color="#5769D9" stop-opacity="0.58" offset="30%"></stop>
            <stop stop-color="#5C70DE" stop-opacity="0.45" offset="45%"></stop>
            <stop stop-color="#6074E2" stop-opacity="0.37" offset="60%"></stop>
            <stop stop-color="#6277E4" stop-opacity="0.32" offset="77%"></stop>
            <stop stop-color="#6378E5" stop-opacity="0.3" offset="100%"></stop>
        </linearGradient>
        <linearGradient x1="3.33333333%" y1="50%" x2="95.8333333%" y2="50%" id="linearGradient-38">
            <stop stop-color="#5778FF" offset="0%"></stop>
            <stop stop-color="#5C7DFF" offset="18%"></stop>
            <stop stop-color="#6A8AFF" offset="39%"></stop>
            <stop stop-color="#82A0FF" offset="61%"></stop>
            <stop stop-color="#A3BEFF" offset="85%"></stop>
            <stop stop-color="#BCD5FF" offset="100%"></stop>
        </linearGradient>
        <linearGradient x1="-3%" y1="49.8333333%" x2="103%" y2="49.8333333%" id="linearGradient-39">
            <stop stop-color="#5778FF" offset="0%"></stop>
            <stop stop-color="#26CAEF" offset="100%"></stop>
        </linearGradient>
        <linearGradient x1="-1.66666667%" y1="49.6190476%" x2="101.666667%" y2="49.6190476%" id="linearGradient-40">
            <stop stop-color="#7BECFF" offset="0%"></stop>
            <stop stop-color="#C5F7FF" offset="100%"></stop>
        </linearGradient>
        <linearGradient x1="0%" y1="49.7959184%" x2="100.909091%" y2="49.7959184%" id="linearGradient-41">
            <stop stop-color="#4553C7" offset="0%"></stop>
            <stop stop-color="#4857CA" stop-opacity="0.93" offset="4%"></stop>
            <stop stop-color="#5061D2" stop-opacity="0.73" offset="17%"></stop>
            <stop stop-color="#5769D9" stop-opacity="0.58" offset="30%"></stop>
            <stop stop-color="#5C70DE" stop-opacity="0.45" offset="45%"></stop>
            <stop stop-color="#6074E2" stop-opacity="0.37" offset="60%"></stop>
            <stop stop-color="#6277E4" stop-opacity="0.32" offset="77%"></stop>
            <stop stop-color="#6378E5" stop-opacity="0.3" offset="100%"></stop>
        </linearGradient>
        <linearGradient x1="-1.81818182%" y1="50.1639344%" x2="99.0909091%" y2="50.1639344%" id="linearGradient-42">
            <stop stop-color="#C0D6FF" offset="0%"></stop>
            <stop stop-color="#C5DBFF" offset="30%"></stop>
            <stop stop-color="#D3E9FF" offset="65%"></stop>
            <stop stop-color="#E9FFFF" offset="100%"></stop>
        </linearGradient>
        <linearGradient x1="-4.54545455%" y1="49.7222222%" x2="96.3636364%" y2="49.7222222%" id="linearGradient-43">
            <stop stop-color="#7BECFF" offset="0%"></stop>
            <stop stop-color="#C5F7FF" offset="100%"></stop>
        </linearGradient>
        <linearGradient x1="0.222807818%" y1="50.1843791%" x2="100.162371%" y2="50.1843791%" id="linearGradient-44">
            <stop stop-color="#C0D6FF" offset="0%"></stop>
            <stop stop-color="#C5DBFF" offset="30%"></stop>
            <stop stop-color="#D3E9FF" offset="65%"></stop>
            <stop stop-color="#E9FFFF" offset="100%"></stop>
        </linearGradient>
        <linearGradient x1="0.175438596%" y1="50.0821299%" x2="99.8245614%" y2="50.0821299%" id="linearGradient-45">
            <stop stop-color="#5778FF" offset="0%"></stop>
            <stop stop-color="#5C7DFF" offset="18%"></stop>
            <stop stop-color="#6A8AFF" offset="39%"></stop>
            <stop stop-color="#82A0FF" offset="61%"></stop>
            <stop stop-color="#A3BEFF" offset="85%"></stop>
            <stop stop-color="#BCD5FF" offset="100%"></stop>
        </linearGradient>
        <linearGradient x1="1.11111111%" y1="50.9508004%" x2="100.277778%" y2="50.9508004%" id="linearGradient-46">
            <stop stop-color="#5778FF" offset="0%"></stop>
            <stop stop-color="#26CAEF" offset="100%"></stop>
        </linearGradient>
        <linearGradient x1="1.25%" y1="50.5555556%" x2="100.625%" y2="50.5555556%" id="linearGradient-47">
            <stop stop-color="#7BECFF" offset="0%"></stop>
            <stop stop-color="#C5F7FF" offset="100%"></stop>
        </linearGradient>
    </defs>
    <g id="工作空间首页" stroke="none" stroke-width="1" fill="none" fill-rule="evenodd">
        <g id="工作空间首页-组件商店" transform="translate(-726.000000, -265.000000)">
            <g id="数据可视化" transform="translate(714.000000, 265.000000)">
                <mask id="mask-2" fill="white">
                    <use xlink:href="#path-1"></use>
                </mask>
                <g id="蒙版"></g>
                <g id="组建商店大图-12" mask="url(#mask-2)">
                    <g transform="translate(12.000000, 0.000000)">
                        <path d="M18.1,87.2 L17.9,23.1 L16.5,22.3 L16.7,86.4 C16.7,87.1 16.9,87.6 17.3,87.8 L18.7,88.6 C18.3,88.4 18.1,87.9 18.1,87.2 Z" id="路径" fill="url(#linearGradient-3)" fill-rule="nonzero"></path>
                        <path d="M17.9,23.1 L17.9,28 L52.7,7.9 L52.7,67.2 C52.6146467,68.6931409 51.8381951,70.0611747 50.6,70.9 L20.2,88.5 C19,89.1 18.1,88.6 18.1,87.2 L17.9,23.1 Z" id="路径" fill="#FFFFFF" fill-rule="nonzero"></path>
                        <path d="M51.3,7.1 L17.9,26.4 L17.9,23.1 C18.0233266,21.593335 18.8351827,20.2279408 20.1,19.4 L50.5,1.8 C50.9522353,1.51922213 51.5144954,1.48173812 52,1.7 L50.7,0.9 C50.1804435,0.680883863 49.5882303,0.717897183 49.1,1 L18.7,18.6 C17.4351827,19.4279408 16.6233266,20.793335 16.5,22.3 L16.5,27.2 L17.8,28 L52.7,7.9 L51.3,7.1 Z" id="路径" fill="#77BDFB" fill-rule="nonzero"></path>
                        <path d="M50.5,1.8 C51.7,1.2 52.7,1.7 52.7,3.1 L52.7,7.9 L17.9,28 L17.9,23.1 C18.0233266,21.593335 18.8351827,20.2279408 20.1,19.4 L50.5,1.8 Z" id="路径" fill="url(#linearGradient-4)" fill-rule="nonzero"></path>
                        <path d="M43.8,8.6 C44.2,8.3 44.5,8.5 44.5,9 C44.451464,9.5099819 44.1990477,9.97875517 43.8,10.3 C43.4,10.5 43.1,10.3 43.1,9.8 C43.1228747,9.30954273 43.384333,8.86132841 43.8,8.6 L43.8,8.6 Z" id="路径" fill="url(#linearGradient-5)" fill-rule="nonzero"></path>
                        <path d="M46.3,7.1 C46.7,6.9 47.1,7.1 47.1,7.5 C47.0538052,8.0354243 46.757158,8.51747611 46.3,8.8 C45.9,9 45.6,8.8 45.6,8.4 C45.6074938,7.87847383 45.8687224,7.39333492 46.3,7.1 L46.3,7.1 Z" id="路径" fill="url(#linearGradient-6)" fill-rule="nonzero"></path>
                        <path d="M48.8,5.6 C48.9657941,5.46753029 49.1971497,5.45415086 49.3771091,5.56662546 C49.5570684,5.67910006 49.6464226,5.89292308 49.6,6.1 C49.5389542,6.60431856 49.2420457,7.04968134 48.8,7.3 C48.4,7.6 48.1,7.4 48.1,6.9 C48.1231532,6.38266861 48.3808444,5.90409935 48.8,5.6 Z" id="路径" fill="#92D7FE" fill-rule="nonzero"></path>
                        <polygon id="路径" fill="url(#linearGradient-7)" fill-rule="nonzero" points="34 42 34.1 56.8 21.2 64.2 21.1 49.4"></polygon>
                        <polygon id="路径" fill="url(#linearGradient-8)" fill-rule="nonzero" points="34 23.6 34 38.4 21.1 45.9 21.1 31.1"></polygon>
                        <polygon id="路径" fill="url(#linearGradient-9)" fill-rule="nonzero" points="49.7 14.5 49.8 29.3 36.9 36.8 36.9 22"></polygon>
                        <polygon id="路径" fill="url(#linearGradient-10)" fill-rule="nonzero" points="49.8 32.9 49.8 47.7 36.9 55.1 36.9 40.3"></polygon>
                        <polygon id="路径" fill="url(#linearGradient-11)" fill-rule="nonzero" points="34.1 60.3 34.1 75.1 21.2 82.6 21.2 67.8"></polygon>
                        <polygon id="路径" fill="url(#linearGradient-12)" fill-rule="nonzero" points="49.8 51.2 49.9 66 37 73.5 37 58.7"></polygon>
                        <path d="M55.6,31.3 C56.1,31 56.6,31.2 56.6,31.9 L56.6,52.1 C56.5767445,52.7747454 56.2449593,53.4014507 55.7,53.8 L32,67.5 C31.8055879,67.6971679 31.5014994,67.7356896 31.2640632,67.5932279 C31.0266271,67.4507663 30.9175164,67.164325 31,66.9 L31,46.7 C30.97425,45.9859623 31.3133199,45.3078226 31.9,44.9 L55.6,31.3 Z" id="路径" fill="#4553C7" fill-rule="nonzero"></path>
                        <path d="M56.1,31.9 C56.1,31.7 56.1,31.7 56,31.7 L55.8,31.7 L32.2,45.4 C31.742842,45.6825239 31.4461948,46.1645757 31.4,46.7 L31.4,49.2 L56.1,35 L56.1,31.9 Z" id="路径" fill="#FFFFFF" fill-rule="nonzero"></path>
                        <path d="M54.2,44 C54.3,43.9 54.4,44 54.4,44.1 C54.3931175,44.2847711 54.3224445,44.4614537 54.2,44.6 L47.6,48.4 C47.4,48.5 47.3,48.4 47.3,48.2 C47.3213672,48.0226497 47.4357266,47.8701706 47.6,47.8 L54.2,44 Z" id="路径" fill="#FFFFFF" fill-rule="nonzero"></path>
                        <path d="M54.2,41.4 C54.3,41.3 54.4,41.3 54.4,41.5 C54.4,41.7 54.3,41.9 54.2,41.9 L47.6,45.8 C47.4,45.8 47.3,45.8 47.3,45.6 C47.3213672,45.4226497 47.4357266,45.2701706 47.6,45.2 L54.2,41.4 Z" id="路径" fill="#FFFFFF" fill-rule="nonzero"></path>
                        <path d="M46.5,48.4 C46.7,48.3 46.8,48.4 46.8,48.5 C46.8175923,48.7137605 46.6968909,48.9149294 46.5,49 L43.3,50.8 C43.2,50.9 43.1,50.8 43.1,50.7 C43.1068825,50.5152289 43.1775555,50.3385463 43.3,50.2 L46.5,48.4 Z" id="路径" fill="#FFFFFF" fill-rule="nonzero"></path>
                        <path d="M49,45.6 C49.2,45.5 49.3,45.5 49.3,45.7 C49.3175923,45.9137605 49.1968909,46.1149294 49,46.2 L43.3,49.4 C43.2,49.5 43.1,49.5 43.1,49.3 C43.1,49.1 43.2,48.9 43.3,48.9 L49,45.6 Z" id="路径" fill="url(#linearGradient-13)" fill-rule="nonzero"></path>
                        <path d="M42.3,50.8 C42.5,50.7 42.6,50.8 42.6,51 C42.5786328,51.1773503 42.4642734,51.3298294 42.3,51.4 L41,52.2 C40.8,52.3 40.7,52.2 40.7,52 C40.7213672,51.8226497 40.8357266,51.6701706 41,51.6 L42.3,50.8 Z" id="路径" fill="#FFFFFF" fill-rule="nonzero"></path>
                        <path d="M54.2,51.6 C54.4,51.6 54.5,51.6 54.5,51.8 C54.5,52 54.4,52.2 54.2,52.2 L34,63.9 C33.8,64 33.7,64 33.7,63.8 C33.6824077,63.5862395 33.8031091,63.3850706 34,63.3 L54.2,51.6 Z" id="路径" fill="#92D7FE" fill-rule="nonzero"></path>
                        <path d="M49,42.9 C49.2,42.9 49.3,42.9 49.3,43.1 C49.3,43.3 49.2,43.5 49,43.5 L43.3,46.8 C43.2,46.9 43.1,46.8 43.1,46.7 C43.1068825,46.5152289 43.1775555,46.3385463 43.3,46.2 L49,42.9 Z" id="路径" fill="url(#linearGradient-14)" fill-rule="nonzero"></path>
                        <path d="M54.2,50.4 C54.4,50.3 54.5,50.4 54.5,50.5 C54.5175923,50.7137605 54.3968909,50.9149294 54.2,51 L34,62.7 C33.8,62.8 33.7,62.7 33.7,62.5 C33.7213672,62.3226497 33.8357266,62.1701706 34,62.1 L54.2,50.4 Z" id="路径" fill="#92D7FE" fill-rule="nonzero"></path>
                        <path d="M54.2,49.1 C54.4,49 54.5,49.1 54.5,49.3 C54.4786328,49.4773503 54.3642734,49.6298294 54.2,49.7 L34,61.4 C33.8,61.5 33.7,61.4 33.7,61.3 C33.6824077,61.0862395 33.8031091,60.8850706 34,60.8 L54.2,49.1 Z" id="路径" fill="#92D7FE" fill-rule="nonzero"></path>
                        <path d="M42.3,52.1 C42.5,52 42.6,52 42.6,52.2 C42.6,52.4 42.5,52.6 42.3,52.6 L37.2,55.6 C37.1,55.7 37,55.6 37,55.4 C37.0272855,55.250365 37.0966633,55.1116094 37.2,55 L42.3,52.1 Z" id="路径" fill="url(#linearGradient-15)" fill-rule="nonzero"></path>
                        <path d="M54.2,47.9 C54.4,47.8 54.5,47.8 54.5,48 C54.5175923,48.2137605 54.3968909,48.4149294 54.2,48.5 L34,60.2 C33.8,60.2 33.7,60.2 33.7,60 C33.7,59.8 33.8,59.6 34,59.6 L54.2,47.9 Z" id="路径" fill="#92D7FE" fill-rule="nonzero"></path>
                        <path d="M54.2,46.6 C54.4,46.5 54.5,46.6 54.5,46.7 C54.5175923,46.9137605 54.3968909,47.1149294 54.2,47.2 L34,58.9 C33.8,59 33.7,58.9 33.7,58.7 C33.7213672,58.5226497 33.8357266,58.3701706 34,58.3 L54.2,46.6 Z" id="路径" fill="#92D7FE" fill-rule="nonzero"></path>
                        <path d="M42.3,49.4 C42.5,49.4 42.6,49.4 42.6,49.6 C42.5786328,49.7773503 42.4642734,49.9298294 42.3,50 L37.2,53 C37.1,53.1 37,53 37,52.8 L37.2,52.4 L42.3,49.4 Z" id="路径" fill="url(#linearGradient-16)" fill-rule="nonzero"></path>
                        <path d="M36.3,55.5 C36.4,55.5 36.5,55.5 36.5,55.7 C36.5,55.9 36.4,56.1 36.3,56.1 L34,57.5 C33.8,57.6 33.7,57.5 33.7,57.3 C33.7213672,57.1226497 33.8357266,56.9701706 34,56.9 L36.3,55.5 Z" id="路径" fill="url(#linearGradient-17)" fill-rule="nonzero"></path>
                        <path d="M40,52.1 C40.2,52.1 40.3,52.1 40.3,52.3 C40.2786328,52.4773503 40.1642734,52.6298294 40,52.7 L34,56.2 C33.8,56.3 33.7,56.3 33.7,56.1 C33.6824077,55.8862395 33.8031091,55.6850706 34,55.6 L40,52.1 Z" id="路径" fill="#FFFFFF" fill-rule="nonzero"></path>
                        <path d="M42.3,46.8 C42.5,46.7 42.6,46.8 42.6,47 C42.5786328,47.1773503 42.4642734,47.3298294 42.3,47.4 L37.2,50.4 C37.1,50.4 37,50.4 37,50.2 C37,50 37.1,49.8 37.2,49.8 L42.3,46.8 Z" id="路径" fill="url(#linearGradient-18)" fill-rule="nonzero"></path>
                        <path d="M36.3,52.9 C36.4,52.8 36.5,52.9 36.5,53.1 C36.4727145,53.249635 36.4033367,53.3883906 36.3,53.5 L34,54.9 C33.8,54.9 33.7,54.9 33.7,54.7 C33.7213672,54.5226497 33.8357266,54.3701706 34,54.3 L36.3,52.9 Z" id="路径" fill="url(#linearGradient-19)" fill-rule="nonzero"></path>
                        <path d="M40,49.5 C40.2,49.4 40.3,49.5 40.3,49.7 C40.2786328,49.8773503 40.1642734,50.0298294 40,50.1 L33.9,53.6 C33.8,53.7 33.7,53.6 33.7,53.5 C33.7068825,53.3152289 33.7775555,53.1385463 33.9,53 L40,49.5 Z" id="路径" fill="url(#linearGradient-20)" fill-rule="nonzero"></path>
                        <path d="M40,46.9 C40.2,46.8 40.3,46.9 40.3,47 C40.3175923,47.2137605 40.1968909,47.4149294 40,47.5 L33.9,51 C33.8,51.1 33.7,51 33.7,50.9 C33.7068825,50.7152289 33.7775555,50.5385463 33.9,50.4 L40,46.9 Z" id="路径" fill="url(#linearGradient-21)" fill-rule="nonzero"></path>
                        <path d="M46.5,45.8 C46.7,45.7 46.8,45.8 46.8,45.9 C46.8175923,46.1137605 46.6968909,46.3149294 46.5,46.4 L43.3,48.2 C43.2,48.3 43.1,48.2 43.1,48.1 C43.1068825,47.9152289 43.1775555,47.7385463 43.3,47.6 L46.5,45.8 Z" id="路径" fill="#FFFFFF" fill-rule="nonzero"></path>
                        <path d="M46.5,43.2 C46.7,43.1 46.8,43.1 46.8,43.3 C46.8,43.5 46.7,43.7 46.5,43.7 L43.3,45.6 C43.2,45.7 43.1,45.6 43.1,45.4 C43.1272855,45.250365 43.1966633,45.1116094 43.3,45 L46.5,43.2 Z" id="路径" fill="#FFFFFF" fill-rule="nonzero"></path>
                        <path d="M54.2,42.6 C54.3,42.5 54.4,42.6 54.4,42.7 L54.4,42.7 C54.3727145,42.849635 54.3033367,42.9883906 54.2,43.1 L50.1,45.5 C49.9,45.5 49.8,45.5 49.8,45.3 L49.8,45.3 C49.8,45.1343146 49.9343146,45 50.1,45 L54.2,42.6 Z" id="路径" fill="url(#linearGradient-22)" fill-rule="nonzero"></path>
                        <path d="M42.3,45.6 C42.3514004,45.5655855 42.4158325,45.5568918 42.4745157,45.5764528 C42.5331989,45.5960139 42.5795284,45.6416282 42.6,45.7 C42.5582571,45.8953403 42.4527154,46.0712432 42.3,46.2 L40.9,47 C40.8,47 40.7,47 40.7,46.8 C40.7,46.6 40.8,46.4 40.9,46.4 L42.3,45.6 Z" id="路径" fill="url(#linearGradient-23)" fill-rule="nonzero"></path>
                        <path d="M33.2,46 C33.4,45.8 33.6,45.9 33.6,46.2 C33.574743,46.5082496 33.4314455,46.7948446 33.2,47 C33,47.1 32.8,47 32.8,46.7 C32.7974185,46.4116258 32.950244,46.1441813 33.2,46 Z" id="路径" fill="#4553C7" fill-rule="nonzero"></path>
                        <path d="M34.7,45.1 C34.9,45 35.1,45.1 35.1,45.4 C35.0708009,45.6791253 34.925653,45.9331341 34.7,46.1 C34.4,46.3 34.2,46.1 34.2,45.9 C34.222504,45.566533 34.4101156,45.2663543 34.7,45.1 Z" id="路径" fill="#4553C7" fill-rule="nonzero"></path>
                        <path d="M36.2,44.3 C36.4,44.1 36.6,44.2 36.6,44.5 C36.574743,44.8082496 36.4314455,45.0948446 36.2,45.3 C35.9,45.4 35.7,45.3 35.7,45 C35.7163609,44.6892882 35.9113897,44.4162479 36.2,44.3 L36.2,44.3 Z" id="路径" fill="#4553C7" fill-rule="nonzero"></path>
                        <path d="M23.6,36.1 C23.257639,39.3960629 21.4605362,42.3667838 18.7,44.2 C16.1,45.7 14,44.6 13.8,41.8 L14.6,41.3 C14.8,43.6 16.6,44.5 18.7,43.3 C20.9890406,41.7817293 22.4898293,39.329221 22.8,36.6 L23.6,36.1 Z" id="路径" fill="url(#linearGradient-24)" fill-rule="nonzero"></path>
                        <path d="M18.7,32.9 C21.3,31.4 23.4,32.5 23.6,35.3 L22.8,35.8 C22.6,33.5 20.8,32.6 18.7,33.8 C16.4109594,35.3182707 14.9101707,37.770779 14.6,40.5 L13.8,41 C14.1143934,37.6946191 15.9182284,34.7127694 18.7,32.9 Z" id="路径" fill="url(#linearGradient-25)" fill-rule="nonzero"></path>
                        <path d="M32,25.2 C32.6845163,24.7527287 33.4823717,24.5099031 34.3,24.5 L33.9,25.6 C33.2325581,25.5872805 32.5747248,25.7603945 32,26.1 C29.5842145,27.6820768 28.0627212,30.3168579 27.9,33.2 C27.9,34.8 28.5,35.7 29.5,36.1 L29,37.1 C27.8,36.8 27.1,35.6 27.1,33.7 C27.2102673,30.2258532 29.0488559,27.0364649 32,25.2 L32,25.2 Z" id="路径" fill="url(#linearGradient-26)" fill-rule="nonzero"></path>
                        <path d="M34.9,24.6 C36.1,25 36.9,26.2 36.9,28 C36.7384422,31.4593388 34.9126259,34.6265711 32,36.5 C31.273982,36.9369229 30.4470681,37.1781061 29.6,37.2 L30.1,36.2 C30.7730349,36.159275 31.4256381,35.9531897 32,35.6 C34.4278922,34.029401 35.9532714,31.3878906 36.1,28.5 C36.1,27 35.5,26 34.5,25.7 L34.9,24.6 Z" id="路径" fill="url(#linearGradient-27)" fill-rule="nonzero"></path>
                        <path d="M1.3,49 C1.5,51.3 3.3,52.2 5.4,50.9 C6.8040736,50.0937333 7.92244616,48.8705133 8.6,47.4 L9.3,47.4 C8.44554694,49.2081426 7.09249275,50.7346653 5.4,51.8 C2.8,53.3 0.7,52.2 0.5,49.3 L1.3,49 Z" id="路径" fill="url(#linearGradient-28)" fill-rule="nonzero"></path>
                        <path d="M5.4,40.5 C8.1,39 10.3,40.2 10.3,43.4 C10.2856316,44.493246 10.0826514,45.5758071 9.7,46.6 L9,46.6 C9.31019944,45.7325881 9.47901751,44.8209706 9.5,43.9 C9.5,41.3 7.7,40.3 5.4,41.6 C3.10069475,43.1083489 1.5966645,45.5661545 1.3,48.3 L0.5,48.7 C0.813515276,45.3677043 2.61391759,42.3547861 5.4,40.5 L5.4,40.5 Z" id="路径" fill="url(#linearGradient-29)" fill-rule="nonzero"></path>
                        <path d="M65,3.7 C65.3,3.5 65.6,3.7 65.6,4.1 L65.6,22 C65.5620674,22.4595741 65.3002545,22.8709943 64.9,23.1 L40.6,37.1 C40.2,37.3 39.9,37.2 39.9,36.8 L39.9,18.9 C39.9299446,18.4633589 40.1490998,18.0615744 40.5,17.8 L65,3.7 Z" id="路径" fill="url(#linearGradient-30)" fill-rule="nonzero"></path>
                        <path d="M40.5,18.9 C40.5565007,18.6503325 40.6581723,18.4130988 40.8,18.2 L65.1,4.2 L65.1,22 C65.0694771,22.2521593 64.9210228,22.4748407 64.7,22.6 L40.4,36.6 L40.5,18.9 Z" id="路径" fill="#FFFFFF" fill-rule="nonzero"></path>
                        <path d="M40.5,32.7 L40.5,36.6 L64.8,22.6 C65.0210228,22.4748407 65.1694771,22.2521593 65.2,22 L65.2,18.5 L40.5,32.7 Z" id="路径" fill="url(#linearGradient-31)" fill-rule="nonzero"></path>
                        <path d="M62.9,21.5 C63.1,21.3 63.3,21.4 63.3,21.7 C63.2708009,21.9791253 63.125653,22.2331341 62.9,22.4 L42.8,34 C42.6,34.1 42.4,34 42.4,33.7 C42.4557823,33.430173 42.5958539,33.1850477 42.8,33 L62.9,21.5 Z" id="路径" fill="#4553C7" fill-rule="nonzero"></path>
                        <path d="M53.7,27.3 C53.7,27 53.5,26.9 53.3,27 L42.8,33 C42.5958539,33.1850477 42.4557823,33.430173 42.4,33.7 C42.4,34 42.6,34.1 42.8,34 L53.4,27.9 C53.5735841,27.7461334 53.6810572,27.5311872 53.7,27.3 L53.7,27.3 Z" id="路径" fill="#FFFFFF" fill-rule="nonzero"></path>
                        <path d="M53.3,26.6 C53.8,26.3 54.1,26.5 54.1,27 C54.0768468,27.5173314 53.8191556,27.9959007 53.4,28.3 C52.9,28.5 52.6,28.3 52.6,27.8 C52.6228747,27.3095427 52.884333,26.8613284 53.3,26.6 Z" id="路径" fill="#FFFFFF" fill-rule="nonzero"></path>
                        <polygon id="路径" fill="#FFFFFF" fill-rule="nonzero" points="22.4 49.4 22.4 58 16 61.7 14.9 63.6 13.8 62.9 7.4 66.6 7.4 58"></polygon>
                        <polygon id="路径" fill="url(#linearGradient-32)" fill-rule="nonzero" points="7.4 66.6 6.7 66.2 6.7 57.6 7.4 58"></polygon>
                        <polygon id="路径" fill="url(#linearGradient-33)" fill-rule="nonzero" points="7.4 58 6.7 57.6 21.6 49 22.4 49.4"></polygon>
                        <path d="M9.3,60.8 L20.5,54.4 C20.6033367,54.2883906 20.6727145,54.149635 20.7,54 C20.7,53.8 20.6,53.8 20.5,53.8 L9.3,60.2 C9.17755551,60.3385463 9.10688247,60.5152289 9.1,60.7 C9.1,60.8 9.2,60.9 9.3,60.8 Z" id="路径" fill="#A9D6FF" fill-rule="nonzero"></path>
                        <path d="M9.3,59.7 L20.5,53.3 C20.6,53.3 20.7,53.1 20.7,52.9 C20.7,52.7 20.6,52.7 20.5,52.8 L9.3,59.2 C9.2,59.2 9.1,59.4 9.1,59.6 C9.1,59.8 9.2,59.8 9.3,59.7 Z" id="路径" fill="#A9D6FF" fill-rule="nonzero"></path>
                        <path d="M9.3,61.9 L20.5,55.5 C20.6224445,55.3614537 20.6931175,55.1847711 20.7,55 C20.7,54.9 20.6,54.8 20.5,54.9 L9.3,61.3 C9.19666332,61.4116094 9.1272855,61.550365 9.1,61.7 C9.1,61.9 9.2,61.9 9.3,61.9 Z" id="路径" fill="#A9D6FF" fill-rule="nonzero"></path>
                        <path d="M20.5,56 L9.3,62.4 C9.2,62.4 9.1,62.6 9.1,62.8 C9.1,63 9.2,63 9.3,62.9 L20.5,56.5 C20.6,56.5 20.7,56.3 20.7,56.1 C20.7,55.9 20.6,55.9 20.5,56 Z" id="路径" fill="#A9D6FF" fill-rule="nonzero"></path>
                        <polygon id="路径" fill="url(#linearGradient-34)" fill-rule="nonzero" points="25.2 71.9 25.2 78.8 24.1 79.4 24.1 72.5"></polygon>
                        <polygon id="路径" fill="url(#linearGradient-35)" fill-rule="nonzero" points="27.1 66.3 27.1 77.7 26.1 78.3 26 66.9"></polygon>
                        <polygon id="路径" fill="url(#linearGradient-36)" fill-rule="nonzero" points="29.4 66.6 29.4 76.4 28.2 77.1 28.2 67.3"></polygon>
                        <polygon id="路径" fill="url(#linearGradient-37)" fill-rule="nonzero" points="31.2 71.2 31.2 75.4 30.1 76 30.1 71.8"></polygon>
                        <polygon id="路径" fill="url(#linearGradient-38)" fill-rule="nonzero" points="45.4 21.3 45.5 28.3 44.4 28.9 44.3 21.9"></polygon>
                        <polygon id="路径" fill="url(#linearGradient-39)" fill-rule="nonzero" points="47.3 15.8 47.3 27.2 46.3 27.8 46.3 16.4"></polygon>
                        <polygon id="路径" fill="url(#linearGradient-40)" fill-rule="nonzero" points="49.6 16.1 49.6 25.9 48.4 26.6 48.4 16.8"></polygon>
                        <polygon id="路径" fill="url(#linearGradient-41)" fill-rule="nonzero" points="51.4 20.6 51.4 24.8 50.3 25.5 50.3 21.3"></polygon>
                        <polygon id="路径" fill="url(#linearGradient-42)" fill-rule="nonzero" points="53.2 18.2 53.2 23.6 52.1 24.3 52.1 18.9"></polygon>
                        <polygon id="路径" fill="#92D7FE" fill-rule="nonzero" points="55 16.5 55 22.4 53.9 23.1 53.9 17.1"></polygon>
                        <polygon id="路径" fill="url(#linearGradient-43)" fill-rule="nonzero" points="56.7 14.7 56.8 21.3 55.7 21.9 55.7 15.3"></polygon>
                        <polygon id="路径" fill="#77BDFB" fill-rule="nonzero" points="58.5 15.9 58.5 20.1 57.4 20.7 57.4 16.5"></polygon>
                        <polygon id="路径" fill="#A9D6FF" fill-rule="nonzero" points="60.3 15.3 60.3 18.9 59.2 19.5 59.2 15.9"></polygon>
                        <polygon id="路径" fill="#92D7FE" fill-rule="nonzero" points="62.1 15.3 62.1 17.7 61 18.3 61 15.9"></polygon>
                        <g id="编组" stroke-width="1" fill="none" fill-rule="evenodd" transform="translate(7.000000, 15.000000)">
                            <path d="M10.6,0.9 C9.6,0.3 8.2,0.4 6.6,1.3 C3.21500727,3.48802769 1.0927669,7.17402411 0.9,11.2 C0.765372168,12.620644 1.41738898,14.0013855 2.6,14.8 L5.2,16.3 C4.01738898,15.5013855 3.36537217,14.120644 3.5,12.7 C3.70802437,8.70515038 5.83047809,5.05601942 9.2,2.9 C10.8,1.9 12.2,1.9 13.2,2.5 L10.6,0.9 Z" id="路径" fill="url(#linearGradient-44)" fill-rule="nonzero"></path>
                            <path d="M9.2,2.9 C12.3,1 14.9,2.5 14.9,6.1 C14.6919756,10.0948496 12.5695219,13.7439806 9.2,15.9 C6.1,17.7 3.5,16.3 3.5,12.7 C3.70802437,8.70515038 5.83047809,5.05601942 9.2,2.9 Z" id="路径" fill="url(#linearGradient-45)" fill-rule="nonzero"></path>
                        </g>
                        <path d="M16.5,20.5 C18.6,19.3 20.2,20.3 20.2,22.6 C20.0602999,25.1501072 18.7260908,27.4849732 16.6,28.9 C14.5,30.1 12.9,29.1 12.9,26.8 C13.0397001,24.2498928 14.3739092,21.9150268 16.5,20.5 Z" id="路径" fill="#A9D6FF" fill-rule="nonzero"></path>
                        <path d="M20.2,22.6 C20.2,20.7 19.1,19.7 17.6,20.1 L16.6,24.6 L19.8,24.6 C20.064052,23.9662751 20.2,23.2865353 20.2,22.6 L20.2,22.6 Z" id="路径" fill="url(#linearGradient-46)" fill-rule="nonzero"></path>
                        <path d="M16.6,24.6 L19,26.4 C19.3475893,25.8750672 19.6170705,25.3024198 19.8,24.7 L16.6,24.7 L16.6,24.6 Z" id="路径" fill="url(#linearGradient-47)" fill-rule="nonzero"></path>
                    </g>
                </g>
            </g>
        </g>
    </g>
</svg>