<?xml version="1.0" encoding="UTF-8"?>
<svg width="90px" height="76px" viewBox="0 0 90 76" version="1.1" xmlns="http://www.w3.org/2000/svg" xmlns:xlink="http://www.w3.org/1999/xlink">
    <!-- Generator: Sketch 64 (93537) - https://sketch.com -->
    <title>数据开发</title>
    <desc>Created with Sketch.</desc>
    <defs>
        <rect id="path-1" x="0" y="0" width="90" height="90"></rect>
        <linearGradient x1="67.0215607%" y1="17.0833333%" x2="8.06397552%" y2="62.2916667%" id="linearGradient-3">
            <stop stop-color="#42E8E0" offset="0%"></stop>
            <stop stop-color="#43E3E0" offset="15%"></stop>
            <stop stop-color="#45D5DF" offset="33%"></stop>
            <stop stop-color="#49BDDD" offset="52%"></stop>
            <stop stop-color="#4E9CDB" offset="72%"></stop>
            <stop stop-color="#5472D8" offset="93%"></stop>
            <stop stop-color="#5761D7" offset="100%"></stop>
        </linearGradient>
        <linearGradient x1="130.460902%" y1="50.6724518%" x2="78.9804511%" y2="59.3481825%" id="linearGradient-4">
            <stop stop-color="#42E8E0" offset="0%"></stop>
            <stop stop-color="#43E3E0" offset="15%"></stop>
            <stop stop-color="#45D5DF" offset="33%"></stop>
            <stop stop-color="#49BDDD" offset="52%"></stop>
            <stop stop-color="#4E9CDB" offset="72%"></stop>
            <stop stop-color="#5472D8" offset="93%"></stop>
            <stop stop-color="#5761D7" offset="100%"></stop>
        </linearGradient>
        <linearGradient x1="-62880.1065%" y1="48.9818725%" x2="-62777.506%" y2="48.9818725%" id="linearGradient-5">
            <stop stop-color="#42E8E0" offset="0%"></stop>
            <stop stop-color="#43E3E0" offset="15%"></stop>
            <stop stop-color="#45D5DF" offset="33%"></stop>
            <stop stop-color="#49BDDD" offset="52%"></stop>
            <stop stop-color="#4E9CDB" offset="72%"></stop>
            <stop stop-color="#5472D8" offset="93%"></stop>
            <stop stop-color="#5761D7" offset="100%"></stop>
        </linearGradient>
        <linearGradient x1="-44557.9971%" y1="32.5095444%" x2="-44584.9555%" y2="67.7127034%" id="linearGradient-6">
            <stop stop-color="#42E8E0" offset="0%"></stop>
            <stop stop-color="#43E3E0" offset="15%"></stop>
            <stop stop-color="#45D5DF" offset="33%"></stop>
            <stop stop-color="#49BDDD" offset="52%"></stop>
            <stop stop-color="#4E9CDB" offset="72%"></stop>
            <stop stop-color="#5472D8" offset="93%"></stop>
            <stop stop-color="#5761D7" offset="100%"></stop>
        </linearGradient>
        <linearGradient x1="-7881.7979%" y1="49.9963763%" x2="-7781.76304%" y2="49.9963763%" id="linearGradient-7">
            <stop stop-color="#42E8E0" offset="0%"></stop>
            <stop stop-color="#43E3E0" offset="15%"></stop>
            <stop stop-color="#45D5DF" offset="33%"></stop>
            <stop stop-color="#49BDDD" offset="52%"></stop>
            <stop stop-color="#4E9CDB" offset="72%"></stop>
            <stop stop-color="#5472D8" offset="93%"></stop>
            <stop stop-color="#5761D7" offset="100%"></stop>
        </linearGradient>
        <linearGradient x1="99.949779%" y1="49.9835372%" x2="-0.0403276106%" y2="49.9835372%" id="linearGradient-8">
            <stop stop-color="#C0D6FF" offset="0%"></stop>
            <stop stop-color="#C5DBFF" offset="30%"></stop>
            <stop stop-color="#D3E9FF" offset="65%"></stop>
            <stop stop-color="#E9FFFF" offset="100%"></stop>
        </linearGradient>
        <linearGradient x1="99.6567344%" y1="49.9253731%" x2="-0.881918003%" y2="49.9253731%" id="linearGradient-9">
            <stop stop-color="#5778FF" offset="0%"></stop>
            <stop stop-color="#5C7DFF" offset="18%"></stop>
            <stop stop-color="#6A8AFF" offset="39%"></stop>
            <stop stop-color="#82A0FF" offset="61%"></stop>
            <stop stop-color="#A3BEFF" offset="85%"></stop>
            <stop stop-color="#BCD5FF" offset="100%"></stop>
        </linearGradient>
        <linearGradient x1="-7321.76157%" y1="49.9246221%" x2="-7221.69039%" y2="49.9246221%" id="linearGradient-10">
            <stop stop-color="#5778FF" offset="0%"></stop>
            <stop stop-color="#5C7DFF" offset="18%"></stop>
            <stop stop-color="#6A8AFF" offset="39%"></stop>
            <stop stop-color="#82A0FF" offset="61%"></stop>
            <stop stop-color="#A3BEFF" offset="85%"></stop>
            <stop stop-color="#BCD5FF" offset="100%"></stop>
        </linearGradient>
        <linearGradient x1="-28372.2145%" y1="49.7848936%" x2="-28272.4913%" y2="49.7848936%" id="linearGradient-11">
            <stop stop-color="#C0D6FF" offset="0%"></stop>
            <stop stop-color="#C5DBFF" offset="30%"></stop>
            <stop stop-color="#D3E9FF" offset="65%"></stop>
            <stop stop-color="#E9FFFF" offset="100%"></stop>
        </linearGradient>
        <linearGradient x1="-7354.47322%" y1="50.0593852%" x2="-7254.46908%" y2="50.0593852%" id="linearGradient-12">
            <stop stop-color="#C0D6FF" offset="0%"></stop>
            <stop stop-color="#C5DBFF" offset="30%"></stop>
            <stop stop-color="#D3E9FF" offset="65%"></stop>
            <stop stop-color="#E9FFFF" offset="100%"></stop>
        </linearGradient>
        <linearGradient x1="-29054.4599%" y1="49.7588835%" x2="-28954.1115%" y2="49.7588835%" id="linearGradient-13">
            <stop stop-color="#C0D6FF" offset="0%"></stop>
            <stop stop-color="#C5DBFF" offset="30%"></stop>
            <stop stop-color="#D3E9FF" offset="65%"></stop>
            <stop stop-color="#E9FFFF" offset="100%"></stop>
        </linearGradient>
        <linearGradient x1="-18818.785%" y1="49.9356483%" x2="-18718.5514%" y2="49.9356483%" id="linearGradient-14">
            <stop stop-color="#42E8E0" offset="0%"></stop>
            <stop stop-color="#43E3E0" offset="15%"></stop>
            <stop stop-color="#45D5DF" offset="33%"></stop>
            <stop stop-color="#49BDDD" offset="52%"></stop>
            <stop stop-color="#4E9CDB" offset="72%"></stop>
            <stop stop-color="#5472D8" offset="93%"></stop>
            <stop stop-color="#5761D7" offset="100%"></stop>
        </linearGradient>
        <linearGradient x1="209.366474%" y1="116.504564%" x2="108.989595%" y2="68.5448378%" id="linearGradient-15">
            <stop stop-color="#5778FF" offset="0%"></stop>
            <stop stop-color="#5C7DFF" offset="18%"></stop>
            <stop stop-color="#6A8AFF" offset="39%"></stop>
            <stop stop-color="#82A0FF" offset="61%"></stop>
            <stop stop-color="#A3BEFF" offset="85%"></stop>
            <stop stop-color="#BCD5FF" offset="100%"></stop>
        </linearGradient>
        <radialGradient cx="-25.3919774%" cy="32.6187518%" fx="-25.3919774%" fy="32.6187518%" r="50.533003%" gradientTransform="translate(-0.253920,0.326188),scale(0.935772,1.000000),rotate(180.000000),translate(0.253920,-0.326188)" id="radialGradient-16">
            <stop stop-color="#2B237C" offset="0%"></stop>
            <stop stop-color="#180D5B" offset="100%"></stop>
        </radialGradient>
        <linearGradient x1="-20239.8678%" y1="49.9196346%" x2="-20140.046%" y2="49.9196346%" id="linearGradient-17">
            <stop stop-color="#5778FF" offset="0%"></stop>
            <stop stop-color="#5C7DFF" offset="18%"></stop>
            <stop stop-color="#6A8AFF" offset="39%"></stop>
            <stop stop-color="#82A0FF" offset="61%"></stop>
            <stop stop-color="#A3BEFF" offset="85%"></stop>
            <stop stop-color="#BCD5FF" offset="100%"></stop>
        </linearGradient>
    </defs>
    <g id="工作空间首页" stroke="none" stroke-width="1" fill="none" fill-rule="evenodd">
        <g id="工作空间首页-组件商店" transform="translate(-64.000000, -272.000000)">
            <g id="数据开发" transform="translate(64.000000, 265.000000)">
                <mask id="mask-2" fill="white">
                    <use xlink:href="#path-1"></use>
                </mask>
                <g id="蒙版"></g>
                <g id="组建商店大图-09" mask="url(#mask-2)">
                    <g transform="translate(-1.000000, 7.000000)">
                        <path d="M20.5,55.7 L20.3,55.4 L23.6,53.4 C23.7,53.4 23.7,53.3 23.7,53.2 C23.7,53.1447715 23.6552285,53.1 23.6,53.1 L20.4,51.1 L20.4,50.9 L23.7,52.8 C23.8291503,52.9138998 23.9031373,53.0777997 23.9031373,53.25 C23.9031373,53.4222003 23.8291503,53.5861002 23.7,53.7 L20.5,55.7 Z" id="路径" fill="url(#linearGradient-3)" fill-rule="nonzero"></path>
                        <path d="M27.2,62.7 L26.3,62.5 L20.4,59.1 L20.6,58.8 L26.4,62.2 C26.8578181,62.4904546 27.4421819,62.4904546 27.9,62.2 L33.7,58.8 L33.7,59.1 L28,62.5 L27.2,62.7 Z" id="路径" fill="url(#linearGradient-4)" fill-rule="nonzero"></path>
                        <path d="M17.3,59.3 C16.5239839,59.3176963 15.7595834,59.1092235 15.1,58.7 L15.1,58.7 C14.520737,58.4771838 14.1385165,57.9206389 14.1385165,57.3 C14.1385165,56.6793611 14.520737,56.1228162 15.1,55.9 C16.518906,55.2024585 18.181094,55.2024585 19.6,55.9 C20.179263,56.1228162 20.5614835,56.6793611 20.5614835,57.3 C20.5614835,57.9206389 20.179263,58.4771838 19.6,58.7 C18.9093998,59.1227252 18.1090939,59.3315006 17.3,59.3 Z M17.3,55.6 C16.5719431,55.6117665 15.8552417,55.7824097 15.2,56.1 C14.6,56.5 14.3,56.9 14.3,57.3 C14.3,57.7 14.6,58.1 15.2,58.5 L15.2,58.5 C16.571525,59.0952879 18.128475,59.0952879 19.5,58.5 C19.984441,58.2981496 20.3,57.8248111 20.3,57.3 C20.3,56.7751889 19.984441,56.3018504 19.5,56.1 C18.813189,55.7711858 18.0614644,55.6003393 17.3,55.6 L17.3,55.6 Z M17.3,58.4 C16.8806587,58.4065659 16.4669172,58.3031305 16.1,58.1 C15.6581722,58.1 15.3,57.7418278 15.3,57.3 C15.3,56.8581722 15.6581722,56.5 16.1,56.5 C16.8870753,56.1073253 17.8129247,56.1073253 18.6,56.5 C19.0418278,56.5 19.4,56.8581722 19.4,57.3 C19.4,57.7418278 19.0418278,58.1 18.6,58.1 C18.2018434,58.3159163 17.7525085,58.419609 17.3,58.4 L17.3,58.4 Z M17.3,56.5 C16.9217762,56.4607407 16.5401982,56.5301185 16.2,56.7 C15.8686292,56.7 15.6,56.9686292 15.6,57.3 C15.6,57.6313708 15.8686292,57.9 16.2,57.9 C16.9383022,58.1949309 17.7616978,58.1949309 18.5,57.9 C18.7106123,57.7734378 18.8394449,57.5457143 18.8394449,57.3 C18.8394449,57.0542857 18.7106123,56.8265622 18.5,56.7 C18.1267506,56.5218644 17.7108475,56.4525472 17.3,56.5 L17.3,56.5 Z" id="形状" fill="url(#linearGradient-5)" fill-rule="nonzero"></path>
                        <path d="M17.3,59.9 C16.2242477,59.93102 15.158043,59.6902641 14.2,59.2 C13.3792509,58.9302328 12.8244998,58.1639464 12.8244998,57.3 C12.8244998,56.4360536 13.3792509,55.6697672 14.2,55.4 C16.181333,54.4015998 18.518667,54.4015998 20.5,55.4 C21.3207491,55.6697672 21.8755002,56.4360536 21.8755002,57.3 C21.8755002,58.1639464 21.3207491,58.9302328 20.5,59.2 C19.5091043,59.6985321 18.4085421,59.9392801 17.3,59.9 L17.3,59.9 Z M17.3,55 C16.2883312,54.9717409 15.2873803,55.2133497 14.4,55.7 C13.7248025,55.9424197 13.2744563,56.5826026 13.2744563,57.3 C13.2744563,58.0173974 13.7248025,58.6575803 14.4,58.9 L14.4,58.9 C16.2406339,59.8957199 18.4593661,59.8957199 20.3,58.9 C20.9751975,58.6575803 21.4255437,58.0173974 21.4255437,57.3 C21.4255437,56.5826026 20.9751975,55.9424197 20.3,55.7 C19.3813808,55.2005097 18.3448165,54.9586448 17.3,55 L17.3,55 Z" id="形状" fill="url(#linearGradient-6)" fill-rule="nonzero"></path>
                        <path d="M62.1,75.1 C61.6352938,75.1073305 61.1802037,74.9673028 60.8,74.7 L29.8,56.8 C29.6,56.7 29.5,56.6 29.5,56.4 C29.4824077,56.1862395 29.6031091,55.9850706 29.8,55.9 L49.1,44.7 L49.2,44.7 L81.5,63.4 C81.6343772,63.5316623 81.7101021,63.7118719 81.7101021,63.9 C81.7101021,64.0881281 81.6343772,64.2683377 81.5,64.4 L63.5,74.7 C63.0889642,74.9814251 62.5976701,75.1217949 62.1,75.1 L62.1,75.1 Z M49.1,45.1 L29.9,56.1 C29.9,56.2 29.8,56.3 29.8,56.4 C29.8,56.5 29.9,56.5 29.9,56.6 L60.9,74.5 C61.6870753,74.8926747 62.6129247,74.8926747 63.4,74.5 L81.3,64.1 C81.4,64.1 81.4,64 81.4,63.9 C81.4092881,63.7905094 81.3731248,63.6820196 81.3,63.6 L49.1,45.1 Z" id="形状" fill="url(#linearGradient-7)" fill-rule="nonzero"></path>
                        <path d="M49.1,37.1 L53.4,11.6 L53,11.4 L53.6,11.1 L53.6,11.1 C53.7,11 53.8,11.1 54,11.1 L88.4,31 C88.6934331,31.2096305 88.8770331,31.5401105 88.9,31.9 L84.5,57.7 C84.5,57.9 84.4,57.9 84.3,58 L84.3,58 L83.8,58.3 L83.8,57.8 L83.9,57.8 L49.5,38 C49.1759172,37.8273529 49.0109815,37.4562476 49.1,37.1 Z" id="路径" fill="url(#linearGradient-8)" fill-rule="nonzero"></path>
                        <path d="M88.2,31.7 L88.8,31.5 C88.8795374,31.6173345 88.9149638,31.7590402 88.9,31.9 L84.5,57.7 C84.5,57.9 84.4,57.9 84.3,58 L84.3,58 L83.8,58.3 L83.8,57.8 L83.9,57.8 L82.1,56.8 L88.2,31.7 Z" id="路径" fill="url(#linearGradient-9)" fill-rule="nonzero"></path>
                        <path d="M49,38.3 L83.4,58.2 C83.7,58.4 83.9,58.3 84,58 L88.3,32.2 C88.3766316,31.8718124 88.208529,31.5356073 87.9,31.4 L53.4,11.5 C53.1,11.3 52.9,11.4 52.9,11.7 L48.5,37.5 C48.5023537,37.8396521 48.6957261,38.149048 49,38.3 L49,38.3 Z" id="路径" fill="#242993" fill-rule="nonzero"></path>
                        <g id="编组" opacity="0.51" stroke-width="1" fill="none" fill-rule="evenodd" transform="translate(49.000000, 13.000000)">
                            <polygon id="路径" fill="#4553C7" fill-rule="nonzero" points="4.9 0.1 38.1 19.3 34 43.6 0.8 24.4"></polygon>
                        </g>
                        <path d="M27.3,50.5 L29.2,51.5 L48,40.6 C48.4323379,40.4871826 48.8900028,40.5223875 49.3,40.7 L81.8,59.5 L83.5,58.6 L82.9,60.4 L82.9,60.4 L82.7,60.6 L62.8,72.1 C62.41565,72.3080031 61.9446205,72.2687507 61.6,72 L28.3,52.8 C28.1,52.7333333 28,52.6333333 28,52.5 L28,52.5 L27.3,50.5 Z" id="路径" fill="url(#linearGradient-10)" fill-rule="nonzero"></path>
                        <path d="M27.6,50.9 L61.7,70.6 C62.1108223,70.7975326 62.5891777,70.7975326 63,70.6 L83.3,58.9 C83.7,58.7 83.6,58.3 83.3,58.1 L49.1,38.4 C48.7239264,38.2043417 48.2760736,38.2043417 47.9,38.4 L27.5,50.1 C27.2,50.3 27.2,50.6 27.6,50.9 Z" id="路径" fill="#C7EAFF" fill-rule="nonzero"></path>
                        <polygon id="路径" fill="#2842A2" fill-rule="nonzero" points="72 66.3 72 65.9 72 65.9 70.6 66.6 70.6 66.6 70.6 67 70.6 67"></polygon>
                        <path d="M70,67.4 L70,67.1 L70,67.1 L68.7,67.9 C68.6,67.9 68.6,67.9 68.6,68 L68.6,68.4 L68.7,68.4 L70,67.6 L70,67.4 Z" id="路径" fill="#2842A2" fill-rule="nonzero"></path>
                        <path d="M78,57.8 L49.7,41.4 C49.5143594,41.2928203 49.2856406,41.2928203 49.1,41.4 L39,47.2 C38.8895431,47.2 38.8,47.2895431 38.8,47.4 C38.8,47.5104569 38.8895431,47.6 39,47.6 L67.3,64 L67.9,64 L78,58.1 C78.2,58 78.2,57.8 78,57.8 Z" id="路径" fill="#ACC8EF" fill-rule="nonzero"></path>
                        <path d="M78,58.1 L77.9,58.1 L49.7,41.9 C49.5143594,41.7928203 49.2856406,41.7928203 49.1,41.9 L39.1,47.7 L39,47.7 C38.8895431,47.7 38.8,47.6104569 38.8,47.5 C38.8,47.3895431 38.8895431,47.3 39,47.3 L49.1,41.5 C49.2856406,41.3928203 49.5143594,41.3928203 49.7,41.5 L78,57.8 C78.2,57.8 78.2,58 78,58.1 Z" id="路径" fill="#91ACD8" fill-rule="nonzero"></path>
                        <polygon id="路径" fill="#242993" fill-rule="nonzero" points="48.3 42.9 72.9 57.1 74 56.4 49.4 42.2"></polygon>
                        <polygon id="路径" fill="#242993" fill-rule="nonzero" points="45.6 44.4 68.7 57.7 69.8 57.1 46.7 43.8"></polygon>
                        <polygon id="路径" fill="#242993" fill-rule="nonzero" points="43.9 45.4 71.1 61.1 72.2 60.5 45 44.8"></polygon>
                        <polygon id="路径" fill="#242993" fill-rule="nonzero" points="42.1 46.4 69.3 62.1 70.4 61.5 43.2 45.8"></polygon>
                        <polygon id="路径" fill="#242993" fill-rule="nonzero" points="40.4 47.4 67.6 63.1 68.7 62.5 41.5 46.8"></polygon>
                        <polygon id="路径" fill="#242993" fill-rule="nonzero" points="74.4 57.9 75.5 58.6 76.6 57.9 75.5 57.3"></polygon>
                        <polygon id="路径" fill="#242993" fill-rule="nonzero" points="70.6 58.8 72.8 60.1 73.9 59.5 71.7 58.2"></polygon>
                        <path d="M48.6,61.7 L40.9,57.3 C40.6,57.1 40.6,56.8 40.9,56.7 L46.2,53.7 C46.5026622,53.4977753 46.8973378,53.4977753 47.2,53.7 L54.9,58.1 C55.2,58.2 55.2,58.5 54.9,58.7 L49.7,61.7 C49.3596588,61.8964961 48.9403412,61.8964961 48.6,61.7 Z" id="路径" fill="url(#linearGradient-11)" fill-rule="nonzero"></path>
                        <path d="M54.9,58.3 L47.2,53.9 C46.8973378,53.6977753 46.5026622,53.6977753 46.2,53.9 L40.9,56.9 L40.9,57.1 C40.7895431,57.0723858 40.7223858,56.9604569 40.75,56.85 C40.7776142,56.7395431 40.8895431,56.6723858 41,56.7 L46.3,53.7 C46.6026622,53.4977753 46.9973378,53.4977753 47.3,53.7 L55,58.1 C55.2,58.2 55.3,58.4 55.2,58.5 L54.9,58.3 Z" id="路径" fill="#91ACD8" fill-rule="nonzero"></path>
                        <g id="编组" opacity="0.11" stroke-width="1" fill="none" fill-rule="evenodd" transform="translate(48.000000, 25.000000)">
                            <g fill-rule="nonzero" id="路径">
                                <path d="M1.1,13.4 L35.2,33.1 C35.6108223,33.2975326 36.0891777,33.2975326 36.5,33.1 L56.8,21.4 C57.2,21.2 57.1,20.9 56.8,20.7 L22.6,0.9 C22.2239264,0.704341679 21.7760736,0.704341679 21.4,0.9 L1,12.7 C0.7,12.8 0.7,13.2 1.1,13.4 Z" fill="url(#linearGradient-12)"></path>
                                <path d="M35.3,16.9 L27.7,12.5 C27.4,12.3 27.4,12 27.7,11.9 L32.9,8.9 C33.2403412,8.70350393 33.6596588,8.70350393 34,8.9 L41.6,13.3 C41.9,13.4 41.9,13.7 41.6,13.9 L36.4,16.9 C36.0596588,17.0964961 35.6403412,17.0964961 35.3,16.9 L35.3,16.9 Z" fill="url(#linearGradient-13)"></path>
                                <path d="M41.6,13.5 L34,9.1 C33.6596588,8.90350393 33.2403412,8.90350393 32.9,9.1 L27.7,12.1 L27.5,12.3 C27.4,12.2 27.5,12 27.7,11.9 L32.9,8.9 C33.2403412,8.70350393 33.6596588,8.70350393 34,8.9 L41.6,13.3 C41.8,13.4 41.9,13.6 41.8,13.7 C41.7,13.8 41.7,13.6 41.6,13.5 Z" fill="#91ACD8"></path>
                                <path d="M45,23.8 L16.6,7.4 C16.4143594,7.29282032 16.1856406,7.29282032 16,7.4 L5.9,13.3 C5.7981424,13.4138803 5.7981424,13.5861197 5.9,13.7 L34.3,30 C34.4856406,30.1071797 34.7143594,30.1071797 34.9,30 L45,24.2 C45.1018576,24.0861197 45.1018576,23.9138803 45,23.8 Z" fill="#ACC8EF"></path>
                                <path d="M45,24.2 L44.9,24.2 L16.6,7.9 C16.4143594,7.79282032 16.1856406,7.79282032 16,7.9 L6,13.7 L5.9,13.7 C5.7981424,13.5861197 5.7981424,13.4138803 5.9,13.3 L16,7.4 C16.1856406,7.29282032 16.4143594,7.29282032 16.6,7.4 L45,23.8 C45.1018576,23.9138803 45.1018576,24.0861197 45,24.2 Z" fill="#91ACD8"></path>
                                <polygon fill="#242993" points="8.6 12.9 33.3 27.1 32.3 27.7 7.6 13.5"></polygon>
                                <polygon fill="#242993" points="11.2 11.4 34.7 24.9 33.7 25.5 10.2 11.9"></polygon>
                                <polygon fill="#242993" points="36.4 26 38.6 27.2 37.6 27.8 35.4 26.5"></polygon>
                                <polygon fill="#242993" points="34.5 27.8 36 28.7 35 29.3 33.5 28.4"></polygon>
                                <polygon fill="#242993" points="12.8 10.4 40.2 26.3 39.2 26.8 11.8 11"></polygon>
                                <polygon fill="#242993" points="14.4 9.5 41.9 25.3 40.9 25.9 13.5 10.1"></polygon>
                                <polygon fill="#242993" points="16.1 8.6 43.5 24.4 42.5 25 15.1 9.1"></polygon>
                            </g>
                        </g>
                        <path d="M18.1,52.4 L17.7,52.4 L1.1,42.7 C0.974097079,42.6055728 0.9,42.4573787 0.9,42.3 L1.1,42 L4.6,40 C4.8668559,39.8249638 5.20123019,39.7878111 5.5,39.9 L22.1,49.6 C22.3,49.6 22.3,49.7 22.3,49.9 C22.2727145,50.049635 22.2033367,50.1883906 22.1,50.3 L18.6,52.3 L18.1,52.4 Z M17.9,52 C18.0856406,52.1071797 18.3143594,52.1071797 18.5,52 L21.9,50 L22,50 L5.3,40.2 C5.2,40.1 4.9,40.2 4.8,40.3 L1.3,42.3 L1.2,42.3 C1.2,42.4 1.2,42.4 1.3,42.4 L17.9,52 Z" id="形状" fill="url(#linearGradient-14)" fill-rule="nonzero"></path>
                        <path d="M7.9,34.4 L9.1,35.4 C9.6,33.8 11.1,33.3 13,34.4 C14.6253829,35.4599356 15.8829112,36.9969146 16.6,38.8 L17.3,39.1 C18.3939265,39.7542944 19.0740379,40.9255972 19.1,42.2 L19.1,42.2 L20,42.6 C21.4110601,43.4555935 22.3090928,44.9523147 22.4,46.6 C22.4,48 21.3,48.6 20,47.9 L7.9,40.8 C6.21104635,39.7803456 5.15622454,37.9720797 5.1,36 C5.1,34.2 6.3,33.5 7.9,34.4 Z" id="路径" fill="url(#linearGradient-15)" fill-rule="nonzero"></path>
                        <path d="M7.9,34.4 C8.1,34.6 8.4,34.7 8.6,35 L10,34.2 L10,34.2 C10.7,33.6 11.8,33.7 13,34.4 C14.6253829,35.4599356 15.8829112,36.9969146 16.6,38.8 L17.3,39.1 C18.3939265,39.7542944 19.0740379,40.9255972 19.1,42.2 L19.1,42.2 L20,42.6 C21.4110601,43.4555935 22.3090928,44.9523147 22.4,46.6 C22.4479484,47.1610648 22.1776209,47.7017198 21.7,48 L21.7,48 L18.3,50 L17.6,46.5 L7.9,40.8 C6.21104635,39.7803456 5.15622454,37.9720797 5.1,36 C5.1,34.2 6.3,33.5 7.9,34.4 Z" id="路径" fill="url(#radialGradient-16)" fill-rule="nonzero"></path>
                        <path d="M2.5,36.2 L5.9,34.2 L5.9,34.2 C6.55735381,33.9225775 7.31059824,33.997902 7.9,34.4 C8.1,34.6 8.4,34.7 8.6,35 L10,34.2 L10,34.2 C10.7,33.6 11.8,33.7 13,34.4 C14.6253829,35.4599356 15.8829112,36.9969146 16.6,38.8 L17.3,39.1 C18.3939265,39.7542944 19.0740379,40.9255972 19.1,42.2 L19.1,42.2 L20,42.6 C21.4110601,43.4555935 22.3090928,44.9523147 22.4,46.6 C22.4479484,47.1610648 22.1776209,47.7017198 21.7,48 L21.7,48 L18.3,50 L17.6,46.5 L7.9,40.8 C6.55354412,39.9642175 5.58520579,38.6372353 5.2,37.1 L2.5,36.2 Z" id="路径" fill="url(#linearGradient-17)" fill-rule="nonzero"></path>
                        <path d="M4.5,36.4 C4.96493417,36.6466364 5.37356623,36.9871631 5.7,37.4 C6.2,35.7 7.8,35.2 9.6,36.3 C11.2818158,37.3413394 12.5532382,38.9306174 13.2,40.8 C13.4813049,40.7780824 13.762104,40.8482822 14,41 C15.0553556,41.6915962 15.7225215,42.8406042 15.8,44.1 L15.8,44.1 C16.1234296,44.1067163 16.4372265,44.2113153 16.7,44.4 C18.0857455,45.2663498 18.948356,46.7665419 19,48.4 C19,49.9 18,50.5 16.7,49.7 L4.5,42.7 C2.91034827,41.6312897 1.88295754,39.9067409 1.7,38 C1.7,36.2 3,35.5 4.5,36.4 Z" id="路径" fill="#C7EAFF" fill-rule="nonzero"></path>
                        <polygon id="路径" fill="#42E8E0" fill-rule="nonzero" opacity="0.5" points="58.2 3.3 54.5 1.2 54.5 0.4 58.2 2.5"></polygon>
                        <polygon id="路径" fill="#42E8E0" fill-rule="nonzero" opacity="0.5" points="60 4.4 58.7 3.6 58.7 2.8 60 3.6"></polygon>
                        <polygon id="路径" fill="#42E8E0" fill-rule="nonzero" opacity="0.5" points="61.5 5.2 60.6 4.7 60.6 3.9 61.5 4.4"></polygon>
                        <polygon id="路径" fill="#42E8E0" fill-rule="nonzero" opacity="0.5" points="56.5 4.2 54.5 3 54.5 2.2 56.5 3.4"></polygon>
                        <polygon id="路径" fill="#42E8E0" fill-rule="nonzero" opacity="0.5" points="59.5 5.9 57.1 4.5 57.1 3.7 59.5 5.1"></polygon>
                        <polygon id="路径" fill="#42E8E0" fill-rule="nonzero" opacity="0.5" points="60.9 6.7 60.1 6.2 60.1 5.4 60.9 5.9"></polygon>
                        <polygon id="路径" fill="#42E8E0" fill-rule="nonzero" opacity="0.5" points="62.3 7.5 61.4 7 61.4 6.2 62.3 6.7"></polygon>
                        <polygon id="路径" fill="#42E8E0" fill-rule="nonzero" points="56 5.7 54.5 4.9 54.5 4.1 56 4.9"></polygon>
                        <polygon id="路径" fill="#42E8E0" fill-rule="nonzero" points="57 6.3 56.5 6 56.5 5.2 57 5.5"></polygon>
                        <polygon id="路径" fill="#42E8E0" fill-rule="nonzero" opacity="0.5" points="58.5 7.1 57.6 6.6 57.6 5.8 58.5 6.3"></polygon>
                        <polygon id="路径" fill="#42E8E0" fill-rule="nonzero" opacity="0.5" points="59.8 9.7 54.5 6.7 54.5 5.9 59.8 8.9"></polygon>
                        <polygon id="路径" fill="#42E8E0" fill-rule="nonzero" opacity="0.5" points="61.7 10.8 60.4 10.1 60.4 9.3 61.7 10"></polygon>
                        <polygon id="路径" fill="#42E8E0" fill-rule="nonzero" opacity="0.5" points="56 9.3 54.5 8.5 54.5 7.7 56 8.5"></polygon>
                        <polygon id="路径" fill="#42E8E0" fill-rule="nonzero" opacity="0.5" points="59.3 11.3 56.5 9.7 56.5 8.9 59.3 10.5"></polygon>
                        <polygon id="路径" fill="#42E8E0" fill-rule="nonzero" opacity="0.5" points="60.8 12.1 59.9 11.6 59.9 10.8 60.8 11.3"></polygon>
                        <polygon id="路径" fill="#42E8E0" fill-rule="nonzero" opacity="0.5" points="57.5 12 54.5 10.3 54.5 9.5 57.5 11.2"></polygon>
                        <polygon id="路径" fill="#42E8E0" fill-rule="nonzero" points="60.1 13.6 58 12.4 58 11.6 60.1 12.8"></polygon>
                        <polygon id="路径" fill="#42E8E0" fill-rule="nonzero" opacity="0.5" points="62.1 14.7 60.7 13.9 60.7 13.1 62.1 13.9"></polygon>
                        <polygon id="路径" fill="#42E8E0" fill-rule="nonzero" opacity="0.5" points="55.5 12.7 54.5 12.2 54.5 11.4 55.5 11.9"></polygon>
                        <polygon id="路径" fill="#42E8E0" fill-rule="nonzero" opacity="0.5" points="57.4 13.8 56.1 13.1 56.1 12.3 57.4 13"></polygon>
                        <polygon id="路径" fill="#42E8E0" fill-rule="nonzero" opacity="0.5" points="60.1 15.4 57.9 14.1 57.9 13.3 60.1 14.6"></polygon>
                        <polygon id="路径" fill="#42E8E0" fill-rule="nonzero" opacity="0.5" points="57.6 15.8 54.5 14 54.5 13.2 57.6 15"></polygon>
                        <polygon id="路径" fill="#42E8E0" fill-rule="nonzero" opacity="0.5" points="61 17.7 58.1 16.1 58.1 15.3 61 16.9"></polygon>
                        <polygon id="路径" fill="#42E8E0" fill-rule="nonzero" points="62.4 18.6 61.5 18 61.5 17.2 62.4 17.8"></polygon>
                        <polygon id="路径" fill="#42E8E0" fill-rule="nonzero" opacity="0.5" points="63.8 19.4 62.9 18.8 62.9 18 63.8 18.6"></polygon>
                        <polygon id="路径" fill="#42E8E0" fill-rule="nonzero" opacity="0.5" points="56.3 16.9 54.5 15.8 54.5 15 56.3 16.1"></polygon>
                        <polygon id="路径" fill="#42E8E0" fill-rule="nonzero" points="64 6.6 66.5 8.1 66.5 7.3 64 5.8"></polygon>
                        <polygon id="路径" fill="#42E8E0" fill-rule="nonzero" opacity="0.5" points="64.5 8.8 66.5 9.9 66.5 9.1 64.5 8"></polygon>
                        <polygon id="路径" fill="#42E8E0" fill-rule="nonzero" opacity="0.5" points="65.1 10.9 66.5 11.8 66.5 11 65.1 10.1"></polygon>
                        <polygon id="路径" fill="#42E8E0" fill-rule="nonzero" opacity="0.5" points="64.4 12.4 66.5 13.6 66.5 12.8 64.4 11.6"></polygon>
                        <polygon id="路径" fill="#42E8E0" fill-rule="nonzero" opacity="0.5" points="65.1 14.6 66.5 15.4 66.5 14.6 65.1 13.8"></polygon>
                        <polygon id="路径" fill="#42E8E0" fill-rule="nonzero" opacity="0.5" points="64.7 16.2 66.5 17.3 66.5 16.4 64.7 15.4"></polygon>
                        <polygon id="路径" fill="#42E8E0" fill-rule="nonzero" opacity="0.5" points="65.5 18.5 66.5 19.1 66.5 18.3 65.5 17.7"></polygon>
                        <polygon id="路径" fill="#42E8E0" fill-rule="nonzero" opacity="0.5" points="64.6 19.8 66.5 20.9 66.5 20.1 64.6 19"></polygon>
                        <polygon id="路径" fill="#42E8E0" fill-rule="nonzero" opacity="0.5" points="64.7 21.7 66.5 22.7 66.5 21.9 64.7 20.9"></polygon>
                        <polygon id="路径" fill="#42E8E0" fill-rule="nonzero" opacity="0.5" points="57.7 17.6 56.9 17.2 56.9 16.4 57.7 16.8"></polygon>
                        <polygon id="路径" fill="#42E8E0" fill-rule="nonzero" opacity="0.5" points="60 19 58.2 18 58.2 17.2 60 18.2"></polygon>
                        <polygon id="路径" fill="#42E8E0" fill-rule="nonzero" opacity="0.5" points="72.3 11.4 68.7 9.3 68.7 8.5 72.3 10.6"></polygon>
                        <polygon id="路径" fill="#42E8E0" fill-rule="nonzero" opacity="0.5" points="74.2 12.5 72.9 11.8 72.9 11 74.2 11.7"></polygon>
                        <polygon id="路径" fill="#42E8E0" fill-rule="nonzero" points="75.6 13.3 74.7 12.8 74.7 12 75.6 12.5"></polygon>
                        <polygon id="路径" fill="#42E8E0" fill-rule="nonzero" opacity="0.5" points="70.6 12.3 68.7 11.2 68.7 10.4 70.6 11.5"></polygon>
                        <polygon id="路径" fill="#42E8E0" fill-rule="nonzero" opacity="0.5" points="73.6 14 71.2 12.6 71.2 11.8 73.6 13.2"></polygon>
                        <polygon id="路径" fill="#42E8E0" fill-rule="nonzero" points="75.1 14.9 74.2 14.3 74.2 13.5 75.1 14.1"></polygon>
                        <polygon id="路径" fill="#42E8E0" fill-rule="nonzero" opacity="0.5" points="76.5 15.7 75.6 15.1 75.6 14.3 76.5 14.9"></polygon>
                        <polygon id="路径" fill="#42E8E0" fill-rule="nonzero" opacity="0.5" points="70.1 13.8 68.7 13 68.7 12.2 70.1 13"></polygon>
                        <polygon id="路径" fill="#42E8E0" fill-rule="nonzero" opacity="0.5" points="71.1 14.4 70.6 14.1 70.6 13.3 71.1 13.6"></polygon>
                        <polygon id="路径" fill="#42E8E0" fill-rule="nonzero" opacity="0.5" points="72.6 15.3 71.7 14.7 71.7 13.9 72.6 14.5"></polygon>
                        <polygon id="路径" fill="#42E8E0" fill-rule="nonzero" opacity="0.5" points="74 17.9 68.7 14.8 68.7 14 74 17.1"></polygon>
                        <polygon id="路径" fill="#42E8E0" fill-rule="nonzero" opacity="0.5" points="75.8 19 74.5 18.2 74.5 17.4 75.8 18.2"></polygon>
                        <polygon id="路径" fill="#42E8E0" fill-rule="nonzero" opacity="0.5" points="70.1 17.5 68.7 16.6 68.7 15.8 70.1 16.7"></polygon>
                        <polygon id="路径" fill="#42E8E0" fill-rule="nonzero" opacity="0.5" points="73.5 19.4 70.6 17.8 70.6 17 73.5 18.6"></polygon>
                        <polygon id="路径" fill="#42E8E0" fill-rule="nonzero" opacity="0.5" points="74.9 20.3 74 19.7 74 18.9 74.9 19.5"></polygon>
                        <polygon id="路径" fill="#42E8E0" fill-rule="nonzero" points="71.6 20.2 68.7 18.5 68.7 17.7 71.6 19.4"></polygon>
                        <polygon id="路径" fill="#42E8E0" fill-rule="nonzero" opacity="0.5" points="74.3 21.7 72.2 20.5 72.2 19.7 74.3 20.9"></polygon>
                        <polygon id="路径" fill="#42E8E0" fill-rule="nonzero" opacity="0.5" points="76.3 22.9 74.8 22 74.8 21.2 76.3 22.1"></polygon>
                        <polygon id="路径" fill="#42E8E0" fill-rule="nonzero" opacity="0.5" points="69.6 20.9 68.7 20.3 68.7 19.5 69.6 20.1"></polygon>
                        <polygon id="路径" fill="#42E8E0" fill-rule="nonzero" opacity="0.5" points="71.5 21.9 70.2 21.2 70.2 20.4 71.5 21.1"></polygon>
                        <polygon id="路径" fill="#42E8E0" fill-rule="nonzero" points="74.2 23.5 72.1 22.3 72.1 21.5 74.2 22.7"></polygon>
                        <polygon id="路径" fill="#42E8E0" fill-rule="nonzero" opacity="0.5" points="71.7 23.9 68.7 22.1 68.7 21.3 71.7 23.1"></polygon>
                        <polygon id="路径" fill="#42E8E0" fill-rule="nonzero" opacity="0.5" points="75.1 25.8 72.3 24.2 72.3 23.4 75.1 25"></polygon>
                        <polygon id="路径" fill="#42E8E0" fill-rule="nonzero" opacity="0.5" points="76.6 26.7 75.7 26.2 75.7 25.4 76.6 25.9"></polygon>
                        <polygon id="路径" fill="#42E8E0" fill-rule="nonzero" opacity="0.5" points="77.9 27.5 77 27 77 26.2 77.9 26.7"></polygon>
                        <polygon id="路径" fill="#42E8E0" fill-rule="nonzero" opacity="0.5" points="70.5 25 68.7 24 68.7 23.2 70.5 24.2"></polygon>
                        <polygon id="路径" fill="#42E8E0" fill-rule="nonzero" points="78.1 14.8 80.6 16.2 80.6 15.4 78.1 14"></polygon>
                        <polygon id="路径" fill="#42E8E0" fill-rule="nonzero" opacity="0.5" points="78.6 16.9 80.6 18.1 80.6 17.3 78.6 16.1"></polygon>
                        <polygon id="路径" fill="#42E8E0" fill-rule="nonzero" opacity="0.5" points="79.2 19.1 80.6 19.9 80.6 19.1 79.2 18.3"></polygon>
                        <polygon id="路径" fill="#42E8E0" fill-rule="nonzero" opacity="0.5" points="78.5 20.5 80.6 21.7 80.6 20.9 78.5 19.7"></polygon>
                        <polygon id="路径" fill="#42E8E0" fill-rule="nonzero" opacity="0.5" points="79.2 22.7 80.6 23.6 80.6 22.8 79.2 21.9"></polygon>
                        <polygon id="路径" fill="#42E8E0" fill-rule="nonzero" opacity="0.5" points="78.8 24.3 80.6 25.4 80.6 24.6 78.8 23.5"></polygon>
                        <polygon id="路径" fill="#42E8E0" fill-rule="nonzero" opacity="0.5" points="79.6 26.6 80.6 27.2 80.6 26.4 79.6 25.8"></polygon>
                        <polygon id="路径" fill="#42E8E0" fill-rule="nonzero" opacity="0.5" points="78.7 27.9 80.6 29 80.6 28.2 78.7 27.1"></polygon>
                        <polygon id="路径" fill="#42E8E0" fill-rule="nonzero" opacity="0.5" points="78.8 29.8 80.6 30.9 80.6 30.1 78.8 29"></polygon>
                        <polygon id="路径" fill="#42E8E0" fill-rule="nonzero" points="71.8 25.8 71 25.3 71 24.5 71.8 25"></polygon>
                        <polygon id="路径" fill="#42E8E0" fill-rule="nonzero" opacity="0.5" points="74.1 27.1 72.4 26.1 72.4 25.3 74.1 26.3"></polygon>
                        <polygon id="路径" fill="#42E8E0" fill-rule="nonzero" opacity="0.5" points="58.2 19.8 54.5 17.7 54.5 16.9 58.2 19"></polygon>
                        <polygon id="路径" fill="#42E8E0" fill-rule="nonzero" opacity="0.5" points="60 20.8 58.7 20.1 58.7 19.3 60 20"></polygon>
                        <polygon id="路径" fill="#42E8E0" fill-rule="nonzero" opacity="0.5" points="61.5 21.7 60.6 21.2 60.6 20.4 61.5 20.9"></polygon>
                        <polygon id="路径" fill="#42E8E0" fill-rule="nonzero" opacity="0.5" points="56.5 20.6 54.5 19.5 54.5 18.7 56.5 19.8"></polygon>
                        <polygon id="路径" fill="#42E8E0" fill-rule="nonzero" opacity="0.5" points="59.5 22.4 57.1 21 57.1 20.2 59.5 21.6"></polygon>
                        <polygon id="路径" fill="#42E8E0" fill-rule="nonzero" opacity="0.5" points="60.9 23.2 60.1 22.7 60.1 21.9 60.9 22.4"></polygon>
                        <polygon id="路径" fill="#42E8E0" fill-rule="nonzero" opacity="0.5" points="62.3 24 61.4 23.5 61.4 22.7 62.3 23.2"></polygon>
                        <polygon id="路径" fill="#42E8E0" fill-rule="nonzero" opacity="0.5" points="56 22.1 54.5 21.3 54.5 20.5 56 21.3"></polygon>
                        <polygon id="路径" fill="#42E8E0" fill-rule="nonzero" opacity="0.5" points="57 22.8 56.5 22.5 56.5 21.7 57 22"></polygon>
                        <polygon id="路径" fill="#42E8E0" fill-rule="nonzero" opacity="0.5" points="58.5 23.6 57.6 23.1 57.6 22.3 58.5 22.8"></polygon>
                        <polygon id="路径" fill="#42E8E0" fill-rule="nonzero" opacity="0.5" points="59.8 26.2 54.5 23.1 54.5 22.3 59.8 25.4"></polygon>
                        <polygon id="路径" fill="#42E8E0" fill-rule="nonzero" opacity="0.5" points="61.7 27.3 60.4 26.5 60.4 25.7 61.7 26.5"></polygon>
                        <polygon id="路径" fill="#42E8E0" fill-rule="nonzero" opacity="0.5" points="56 25.8 54.5 25 54.5 24.2 56 25"></polygon>
                        <polygon id="路径" fill="#42E8E0" fill-rule="nonzero" opacity="0.5" points="59.3 27.8 56.5 26.1 56.5 25.3 59.3 27"></polygon>
                        <polygon id="路径" fill="#42E8E0" fill-rule="nonzero" opacity="0.5" points="60.8 28.6 59.9 28.1 59.9 27.3 60.8 27.8"></polygon>
                        <polygon id="路径" fill="#42E8E0" fill-rule="nonzero" opacity="0.5" points="57.5 28.5 54.5 26.8 54.5 26 57.5 27.7"></polygon>
                        <polygon id="路径" fill="#42E8E0" fill-rule="nonzero" opacity="0.5" points="60.1 30.1 58 28.8 58 28 60.1 29.3"></polygon>
                        <polygon id="路径" fill="#42E8E0" fill-rule="nonzero" opacity="0.5" points="62.1 31.2 60.7 30.4 60.7 29.6 62.1 30.4"></polygon>
                        <polygon id="路径" fill="#42E8E0" fill-rule="nonzero" opacity="0.5" points="55.5 29.2 54.5 28.6 54.5 27.8 55.5 28.4"></polygon>
                        <polygon id="路径" fill="#42E8E0" fill-rule="nonzero" opacity="0.5" points="57.4 30.3 56.1 29.5 56.1 28.7 57.4 29.5"></polygon>
                        <polygon id="路径" fill="#42E8E0" fill-rule="nonzero" opacity="0.5" points="60.1 31.8 57.9 30.6 57.9 29.8 60.1 31"></polygon>
                        <polygon id="路径" fill="#42E8E0" fill-rule="nonzero" opacity="0.5" points="57.6 32.2 54.5 30.5 54.5 29.7 57.6 31.4"></polygon>
                        <polygon id="路径" fill="#42E8E0" fill-rule="nonzero" opacity="0.5" points="61 34.2 58.1 32.5 58.1 31.7 61 33.4"></polygon>
                        <polygon id="路径" fill="#42E8E0" fill-rule="nonzero" opacity="0.5" points="62.4 35 61.5 34.5 61.5 33.7 62.4 34.2"></polygon>
                        <polygon id="路径" fill="#42E8E0" fill-rule="nonzero" opacity="0.5" points="63.8 35.8 62.9 35.3 62.9 34.5 63.8 35"></polygon>
                        <polygon id="路径" fill="#42E8E0" fill-rule="nonzero" opacity="0.5" points="56.3 33.3 54.5 32.3 54.5 31.5 56.3 32.5"></polygon>
                        <polygon id="路径" fill="#42E8E0" fill-rule="nonzero" opacity="0.5" points="64 23.1 66.5 24.6 66.5 23.8 64 22.3"></polygon>
                        <polygon id="路径" fill="#42E8E0" fill-rule="nonzero" opacity="0.5" points="64.5 25.3 66.5 26.4 66.5 25.6 64.5 24.5"></polygon>
                        <polygon id="路径" fill="#42E8E0" fill-rule="nonzero" opacity="0.5" points="65.1 27.4 66.5 28.2 66.5 27.4 65.1 26.6"></polygon>
                        <polygon id="路径" fill="#42E8E0" fill-rule="nonzero" opacity="0.5" points="64.4 28.9 66.5 30.1 66.5 29.3 64.4 28.1"></polygon>
                        <polygon id="路径" fill="#42E8E0" fill-rule="nonzero" opacity="0.5" points="65.1 31.1 66.5 31.9 66.5 31.1 65.1 30.3"></polygon>
                        <polygon id="路径" fill="#42E8E0" fill-rule="nonzero" opacity="0.5" points="64.7 32.7 66.5 33.7 66.5 32.9 64.7 31.9"></polygon>
                        <polygon id="路径" fill="#42E8E0" fill-rule="nonzero" opacity="0.5" points="65.5 35 66.5 35.5 66.5 34.7 65.5 34.2"></polygon>
                        <polygon id="路径" fill="#42E8E0" fill-rule="nonzero" opacity="0.5" points="64.6 36.3 66.5 37.4 66.5 36.6 64.6 35.5"></polygon>
                        <polygon id="路径" fill="#42E8E0" fill-rule="nonzero" opacity="0.5" points="64.7 38.1 66.5 39.2 66.5 38.4 64.7 37.4"></polygon>
                        <polygon id="路径" fill="#42E8E0" fill-rule="nonzero" opacity="0.5" points="57.7 34.1 56.9 33.7 56.9 32.9 57.7 33.3"></polygon>
                        <polygon id="路径" fill="#42E8E0" fill-rule="nonzero" opacity="0.5" points="60 35.4 58.2 34.4 58.2 33.6 60 34.6"></polygon>
                        <polygon id="路径" fill="#42E8E0" fill-rule="nonzero" opacity="0.5" points="61.4 41.6 58.5 39.9 58.5 39.1 61.4 40.8"></polygon>
                        <polygon id="路径" fill="#42E8E0" fill-rule="nonzero" opacity="0.5" points="63.4 42.8 62.3 42.1 62.3 41.3 63.4 42"></polygon>
                        <polygon id="路径" fill="#42E8E0" fill-rule="nonzero" opacity="0.5" points="72.3 27.9 68.7 25.8 68.7 25 72.3 27.1"></polygon>
                        <polygon id="路径" fill="#42E8E0" fill-rule="nonzero" opacity="0.5" points="74.2 29 72.9 28.2 72.9 27.4 74.2 28.2"></polygon>
                        <polygon id="路径" fill="#42E8E0" fill-rule="nonzero" opacity="0.5" points="75.6 29.8 74.7 29.3 74.7 28.5 75.6 29"></polygon>
                        <polygon id="路径" fill="#42E8E0" fill-rule="nonzero" opacity="0.5" points="70.6 28.8 68.7 27.6 68.7 26.8 70.6 28"></polygon>
                        <polygon id="路径" fill="#42E8E0" fill-rule="nonzero" opacity="0.5" points="73.6 30.5 71.2 29.1 71.2 28.3 73.6 29.7"></polygon>
                        <polygon id="路径" fill="#42E8E0" fill-rule="nonzero" opacity="0.5" points="75.1 31.3 74.2 30.8 74.2 30 75.1 30.5"></polygon>
                        <polygon id="路径" fill="#42E8E0" fill-rule="nonzero" opacity="0.5" points="76.5 32.1 75.6 31.6 75.6 30.8 76.5 31.3"></polygon>
                        <polygon id="路径" fill="#42E8E0" fill-rule="nonzero" opacity="0.5" points="70.1 30.3 68.7 29.4 68.7 28.6 70.1 29.5"></polygon>
                        <polygon id="路径" fill="#42E8E0" fill-rule="nonzero" opacity="0.5" points="71.1 30.9 70.6 30.6 70.6 29.8 71.1 30.1"></polygon>
                        <polygon id="路径" fill="#42E8E0" fill-rule="nonzero" opacity="0.5" points="72.6 31.7 71.7 31.2 71.7 30.4 72.6 30.9"></polygon>
                        <polygon id="路径" fill="#42E8E0" fill-rule="nonzero" opacity="0.5" points="74 34.3 68.7 31.3 68.7 30.5 74 33.5"></polygon>
                        <polygon id="路径" fill="#42E8E0" fill-rule="nonzero" opacity="0.5" points="75.8 35.4 74.5 34.7 74.5 33.9 75.8 34.6"></polygon>
                        <polygon id="路径" fill="#42E8E0" fill-rule="nonzero" opacity="0.5" points="70.1 33.9 68.7 33.1 68.7 32.3 70.1 33.1"></polygon>
                        <polygon id="路径" fill="#42E8E0" fill-rule="nonzero" opacity="0.5" points="73.5 35.9 70.6 34.3 70.6 33.5 73.5 35.1"></polygon>
                        <polygon id="路径" fill="#42E8E0" fill-rule="nonzero" opacity="0.5" points="74.9 36.7 74 36.2 74 35.4 74.9 35.9"></polygon>
                        <polygon id="路径" fill="#42E8E0" fill-rule="nonzero" opacity="0.5" points="71.6 36.6 68.7 34.9 68.7 34.1 71.6 35.8"></polygon>
                        <polygon id="路径" fill="#42E8E0" fill-rule="nonzero" opacity="0.5" points="74.3 38.2 72.2 37 72.2 36.2 74.3 37.4"></polygon>
                        <polygon id="路径" fill="#42E8E0" fill-rule="nonzero" opacity="0.5" points="76.3 39.3 74.8 38.5 74.8 37.7 76.3 38.5"></polygon>
                        <polygon id="路径" fill="#42E8E0" fill-rule="nonzero" opacity="0.5" points="69.6 37.3 68.7 36.8 68.7 36 69.6 36.5"></polygon>
                        <polygon id="路径" fill="#42E8E0" fill-rule="nonzero" opacity="0.5" points="71.5 38.4 70.2 37.7 70.2 36.9 71.5 37.6"></polygon>
                        <polygon id="路径" fill="#42E8E0" fill-rule="nonzero" opacity="0.5" points="74.2 40 72.1 38.7 72.1 37.9 74.2 39.2"></polygon>
                        <polygon id="路径" fill="#42E8E0" fill-rule="nonzero" opacity="0.5" points="71.7 40.3 68.7 38.6 68.7 37.8 71.7 39.5"></polygon>
                        <polygon id="路径" fill="#42E8E0" fill-rule="nonzero" opacity="0.5" points="75.1 42.3 72.3 40.7 72.3 39.9 75.1 41.5"></polygon>
                        <polygon id="路径" fill="#42E8E0" fill-rule="nonzero" opacity="0.5" points="76.6 43.2 75.7 42.6 75.7 41.8 76.6 42.4"></polygon>
                        <polygon id="路径" fill="#42E8E0" fill-rule="nonzero" opacity="0.5" points="77.9 44 77 43.4 77 42.6 77.9 43.2"></polygon>
                        <polygon id="路径" fill="#42E8E0" fill-rule="nonzero" opacity="0.5" points="70.5 41.5 68.7 40.4 68.7 39.6 70.5 40.7"></polygon>
                        <polygon id="路径" fill="#42E8E0" fill-rule="nonzero" opacity="0.5" points="78.1 31.2 80.6 32.7 80.6 31.9 78.1 30.4"></polygon>
                        <polygon id="路径" fill="#42E8E0" fill-rule="nonzero" opacity="0.5" points="78.6 33.4 80.6 34.5 80.6 33.7 78.6 32.6"></polygon>
                        <polygon id="路径" fill="#42E8E0" fill-rule="nonzero" opacity="0.5" points="79.2 35.5 80.6 36.4 80.6 35.6 79.2 34.7"></polygon>
                        <polygon id="路径" fill="#42E8E0" fill-rule="nonzero" opacity="0.5" points="78.5 37 80.6 38.2 80.6 37.4 78.5 36.2"></polygon>
                        <polygon id="路径" fill="#42E8E0" fill-rule="nonzero" opacity="0.5" points="79.2 39.2 80.6 40 80.6 39.2 79.2 38.4"></polygon>
                        <polygon id="路径" fill="#42E8E0" fill-rule="nonzero" opacity="0.5" points="78.8 40.8 80.6 41.8 80.6 41 78.8 40"></polygon>
                        <polygon id="路径" fill="#42E8E0" fill-rule="nonzero" opacity="0.5" points="79.6 43.1 80.6 43.7 80.6 42.9 79.6 42.3"></polygon>
                        <polygon id="路径" fill="#42E8E0" fill-rule="nonzero" opacity="0.5" points="78.7 44.4 80.6 45.5 80.6 44.7 78.7 43.6"></polygon>
                        <polygon id="路径" fill="#42E8E0" fill-rule="nonzero" opacity="0.5" points="78.8 46.3 80.6 47.3 80.6 46.5 78.8 45.5"></polygon>
                        <polygon id="路径" fill="#42E8E0" fill-rule="nonzero" opacity="0.5" points="71.8 42.2 71 41.8 71 41 71.8 41.4"></polygon>
                        <polygon id="路径" fill="#42E8E0" fill-rule="nonzero" opacity="0.5" points="74.1 43.6 72.4 42.6 72.4 41.8 74.1 42.8"></polygon>
                        <polygon id="路径" fill="#42E8E0" fill-rule="nonzero" opacity="0.5" points="75.6 49.7 72.6 48 72.6 47.2 75.6 48.9"></polygon>
                        <polygon id="路径" fill="#42E8E0" fill-rule="nonzero" opacity="0.5" points="77.6 50.9 76.4 50.2 76.4 49.4 77.6 50.1"></polygon>
                    </g>
                </g>
            </g>
        </g>
    </g>
</svg>