<?xml version="1.0" encoding="UTF-8"?>
<svg width="362px" height="233px" viewBox="0 0 362 233" version="1.1" xmlns="http://www.w3.org/2000/svg" xmlns:xlink="http://www.w3.org/1999/xlink">
    <title>编组 11</title>
    <defs>
        <linearGradient x1="50%" y1="23.3539127%" x2="50%" y2="75.8919734%" id="linearGradient-1">
            <stop stop-color="#AAF2DA" offset="0%"></stop>
            <stop stop-color="#34CD9A" offset="100%"></stop>
        </linearGradient>
        <linearGradient x1="50%" y1="100%" x2="50%" y2="3.061617e-15%" id="linearGradient-2">
            <stop stop-color="#599EFF" offset="0%"></stop>
            <stop stop-color="#1973F2" offset="99.9127581%"></stop>
        </linearGradient>
        <linearGradient x1="100%" y1="50%" x2="0%" y2="50%" id="linearGradient-3">
            <stop stop-color="#1973F2" offset="0.0872418597%"></stop>
            <stop stop-color="#599EFF" offset="100%"></stop>
        </linearGradient>
    </defs>
    <g id="页面-1" stroke="none" stroke-width="1" fill="none" fill-rule="evenodd">
        <g id="Fes-logo" transform="translate(-312.000000, -180.000000)">
            <g id="编组-11" transform="translate(312.938719, 180.587900)">
                <rect id="矩形备份-186" fill="url(#linearGradient-1)" transform="translate(179.801981, 116.472643) scale(-1, 1) rotate(-45.000000) translate(-179.801981, -116.472643) " x="143.248626" y="-10.2344074" width="73.1067103" height="253.414101" rx="30.7817728"></rect>
                <g id="编组-16备份-10" transform="translate(115.948055, 115.948055) rotate(-45.000000) translate(-115.948055, -115.948055) translate(33.950773, 33.970025)">
                    <path d="M0.0481867714,59.2637891 L59.3119758,59.2637891 L59.3119758,163.956059 L30.8299595,163.956059 C13.8296559,163.956059 0.0481867714,150.17459 0.0481867714,133.174287 L0.0481867714,59.2637891 L0.0481867714,59.2637891 Z" id="矩形备份-182" fill="url(#linearGradient-2)"></path>
                    <path d="M0.0472202895,75.9520701 L0.0481867714,59.2637891 L0.0461296915,59.2637891 L0.017351946,24.1772609 L3.99314558e-07,24.1681816 C-0.00247808834,10.9598356 11.5330724,0.230998197 25.8645189,0.0036581736 L26.3655734,4.54747351e-13 L133.183567,4.54747351e-13 C150.177656,0.0145961112 163.956549,12.642143 163.981254,28.2242722 L163.994554,51.8115325 C164.001076,55.9272978 160.666468,59.265668 156.5507,59.2679887 C156.5493,59.2679895 156.547899,59.2679899 156.546498,59.2637891 L18.0022314,59.2637891 C8.50175631,59.2637891 0.720152073,66.62315 0.0472202895,75.9520701 Z" id="形状结合" fill="url(#linearGradient-3)"></path>
                </g>
                <g id="编组-16备份-11" transform="translate(244.595176, 115.948055) scale(-1, -1) rotate(-45.000000) translate(-244.595176, -115.948055) translate(162.597894, 33.970025)">
                    <path d="M0.0481867714,59.2637891 L59.3119758,59.2637891 L59.3119758,163.956059 L30.8299595,163.956059 C13.8296559,163.956059 0.0481867714,150.17459 0.0481867714,133.174287 L0.0481867714,59.2637891 L0.0481867714,59.2637891 Z" id="矩形备份-182" fill="url(#linearGradient-2)"></path>
                    <path d="M0.0472202895,75.9520701 L0.0481867714,59.2637891 L0.0461296915,59.2637891 L0.017351946,24.1772609 L3.99314558e-07,24.1681816 C-0.00247808834,10.9598356 11.5330724,0.230998197 25.8645189,0.0036581736 L26.3655734,4.54747351e-13 L133.183567,4.54747351e-13 C150.177656,0.0145961112 163.956549,12.642143 163.981254,28.2242722 L163.994554,51.8115325 C164.001076,55.9272978 160.666468,59.265668 156.5507,59.2679887 C156.5493,59.2679895 156.547899,59.2679899 156.546498,59.2637891 L18.0022314,59.2637891 C8.50175631,59.2637891 0.720152073,66.62315 0.0472202895,75.9520701 Z" id="形状结合" fill="url(#linearGradient-3)"></path>
                </g>
            </g>
        </g>
    </g>
</svg>