<?xml version="1.0" standalone="no"?><!DOCTYPE svg PUBLIC "-//W3C//DTD SVG 1.1//EN" "http://www.w3.org/Graphics/SVG/1.1/DTD/svg11.dtd"><svg t="1570517712597" class="icon" viewBox="0 0 1024 1024" version="1.1" xmlns="http://www.w3.org/2000/svg" p-id="7905" width="16" height="16" xmlns:xlink="http://www.w3.org/1999/xlink"><defs><style type="text/css"></style></defs><path d="M167.424 361.984h629.76v541.696H167.424z" fill="#D1DBE5" p-id="7906"></path><path d="M912.896 747.008l-115.712 156.672V357.376h115.712v389.632z" fill="#9BA8B8" p-id="7907"></path><path d="M718.336 535.552H95.744l69.632-173.568h622.592l-69.632 173.568zM903.68 204.288H278.528l86.016-114.176h612.864l-73.728 114.176z" fill="#E1EBF5" p-id="7908"></path><path d="M949.76 477.696l-161.792-115.712 115.712-157.696 120.32 51.2-74.24 222.208z" fill="#D1DBE5" p-id="7909"></path><path d="M167.424 361.984L46.592 417.28l115.712-157.184 116.224-55.808-111.104 157.696z" fill="#D1DBE6" p-id="7910"></path><path d="M787.968 361.984H278.528V204.288h625.152l-115.712 157.696z" fill="#AFC0D2" p-id="7911"></path><path d="M278.528 204.288L167.424 361.984h111.104V204.288z" fill="#98A5B5" p-id="7912"></path><path d="M991.744 819.2l-9.216-4.608a283.136 283.136 0 0 0-6.656-168.96c-22.016-39.936-121.856-36.864-122.88-36.864v-10.24c4.608 0 107.008-3.584 132.096 41.984a284.672 284.672 0 0 1 6.656 178.688z" fill="#D1D9E0" p-id="7913"></path><path d="M949.76 827.392l-4.608-8.192a107.52 107.52 0 0 1 44.032-9.728V819.2a97.792 97.792 0 0 0-39.424 8.192z" fill="#D1D9E0" p-id="7914"></path><path d="M972.8 855.04v-4.608h-4.608a424.96 424.96 0 0 0 17.92-39.424h10.24a229.888 229.888 0 0 1-23.552 44.032z" fill="#D1D9E0" p-id="7915"></path><path d="M1012.224 847.872a324.608 324.608 0 0 0-27.136-31.232l7.68-7.168a329.216 329.216 0 0 1 28.672 33.792zM30.208 819.2c-9.216-18.944-5.12-150.016 33.792-184.32a194.048 194.048 0 0 1 105.472-35.84v10.24a186.88 186.88 0 0 0-99.328 33.28c-34.304 29.696-39.936 153.6-31.744 172.032z" fill="#D1D9E0" p-id="7916"></path><path d="M71.68 827.392A102.4 102.4 0 0 0 32.256 819.2v-10.24a108.032 108.032 0 0 1 44.032 9.728z" fill="#D1D9E0" p-id="7917"></path><path d="M51.2 855.04a229.888 229.888 0 0 1-21.504-46.592h10.24a430.592 430.592 0 0 0 17.92 39.424H51.2z" fill="#D1D9E0" p-id="7918"></path><path d="M9.216 847.872L0 843.264a337.408 337.408 0 0 1 28.672-33.792l7.68 9.728a325.632 325.632 0 0 0-27.136 28.672z" fill="#D1D9E0" p-id="7919"></path><path d="M322.048 651.264m-31.232 0a31.232 31.232 0 1 0 62.464 0 31.232 31.232 0 1 0-62.464 0Z" fill="#9FADBA" p-id="7920"></path><path d="M558.08 651.264m-31.232 0a31.232 31.232 0 1 0 62.464 0 31.232 31.232 0 1 0-62.464 0Z" fill="#9FADBA" p-id="7921"></path><path d="M381.44 794.112l-8.192-6.144a79.36 79.36 0 0 1 133.12 0l-8.192 6.144a69.12 69.12 0 0 0-116.224 0z" fill="#9FADBA" p-id="7922"></path></svg>