<?xml version="1.0" standalone="no"?><!DOCTYPE svg PUBLIC "-//W3C//DTD SVG 1.1//EN" "http://www.w3.org/Graphics/SVG/1.1/DTD/svg11.dtd"><svg t="1581909262132" class="icon" viewBox="0 0 1024 1024" version="1.1" xmlns="http://www.w3.org/2000/svg" p-id="4631" xmlns:xlink="http://www.w3.org/1999/xlink" width="200" height="200"><defs><style type="text/css"></style></defs><path d="M984.8 646.865L864.505 526.561c-4.93-4.937-11.495-7.656-18.492-7.656-7.011 0-13.576 2.718-18.507 7.656l-300.02 300.012c-4.945 4.982-7.664 11.568-7.664 18.56V963.99c0 14.43 11.74 26.17 26.185 26.17h119.819c6.983 0 13.563-2.702 18.535-7.633l179.724-179.729c4.943-4.932 7.662-11.51 7.662-18.508 0-6.998-2.719-13.577-7.662-18.506-4.932-4.939-11.496-7.656-18.492-7.656-7.014 0-13.578 2.717-18.509 7.656L656.008 937.82l-83.832 0.824-0.723-81.946L845.447 581.52l84.482 83.319-22.947 24.03-42.002-42.003c-4.931-4.937-11.495-7.655-18.492-7.655-7.014 0-13.577 2.718-18.508 7.655-4.945 4.931-7.662 11.51-7.662 18.5 0 7 2.717 13.577 7.662 18.509l59.902 59.902c4.945 4.945 11.51 7.662 18.508 7.662s13.562-2.717 18.507-7.662l59.902-59.902c4.944-4.932 7.663-11.51 7.663-18.508 0.002-6.999-2.717-13.57-7.661-18.501zM842.274 375.159l-0.036-71.801c-0.046-2.66-0.621-4.8-1.204-7.046-0.17-0.904-0.53-2.767-1.404-4.714-0.896-2.07-2.016-3.541-2.812-4.615-1.955-3.089-2.89-4.238-3.19-4.253l-1.356-1.457c-1.534-1.426-2.953-2.239-4.246-2.93-1.212-0.818-3.053-2.06-5.636-3.081-2.214-0.85-4.2-1.15-5.763-1.365-0.843-0.23-2.805-0.774-5.275-0.774h-183.64c-17.07 0-30.952 13.898-30.952 30.984 0 17.086 13.883 30.984 30.953 30.984h114.115L533.971 566.046 350.413 396.025l-174.03 193.347c-5.519 6.148-8.317 14.081-7.878 22.344 0.428 8.263 4.047 15.845 10.164 21.333a30.875 30.875 0 0 0 20.773 8.019 30.864 30.864 0 0 0 22.996-10.28l131.945-146.625 183.59 170.014 242.404-269.358v52.923l61.896-62.583z" p-id="4632" fill="#0e932e"></path><path d="M94.393 882.047v-747.92c0-20.42 16.62-37.032 37.048-37.032h747.905c20.43 0 37.047 16.612 37.047 37.033v260.648l61.922 61.242v-321.89c0-54.579-44.398-98.976-98.968-98.976H131.441c-54.578 0-98.977 44.397-98.977 98.976v747.92c0 54.563 44.398 98.962 98.977 98.968h222.645v-61.938H131.44c-20.428 0.001-37.048-16.61-37.048-37.03z" p-id="4633" fill="#0e932e"></path></svg>