<svg viewBox="0 0 1024 1024" version="1.1" xmlns="http://www.w3.org/2000/svg" width="200" height="200"><path d="M386.844 960h-318.578c-37.703 0-68.267-30.564-68.267-68.267v0-318.578c0-37.703 30.564-68.267 68.267-68.267v0h318.578c37.703 0 68.267 30.564 68.267 68.267v0 318.578c0 37.703-30.564 68.267-68.267 68.267v0zM369.778 704h-113.778v-113.778h-56.889v113.778h-113.778v56.889h113.778v113.778h56.889v-113.778h113.778v-56.889zM955.733 960h-318.578c-37.703 0-68.267-30.564-68.267-68.267v0-318.578c0-37.703 30.564-68.267 68.267-68.267h318.578c37.703 0 68.267 30.564 68.267 68.267v0 318.578c0 37.703-30.564 68.267-68.267 68.267v0zM938.667 704h-284.444v56.889h284.444v-56.889zM386.844 391.111h-318.578c-37.703 0-68.267-30.564-68.267-68.267v0-318.578c0-37.703 30.564-68.267 68.267-68.267v0h318.578c37.703 0 68.267 30.564 68.267 68.267v318.578c0 37.703-30.564 68.267-68.267 68.267v0zM348.217 83.115l-40.22-40.22-80.441 80.441-80.441-80.441-40.22 40.22 80.441 80.441-80.441 80.441 40.22 40.22 80.441-80.441 80.441 80.441 40.22-40.22-80.441-80.441 80.441-80.441zM955.733 391.111h-318.578c-37.703 0-68.267-30.564-68.267-68.267v0-318.578c0-37.703 30.564-68.267 68.267-68.267h318.578c37.703 0 68.267 30.564 68.267 68.267v0 318.578c0 37.703-30.564 68.267-68.267 68.267v0zM910.222 78.222h-227.556v56.889h227.556v-56.889zM910.222 192h-227.556v56.889h227.556v-56.889z"></path></svg>