<svg viewBox="0 0 1024 1024" version="1.1" xmlns="http://www.w3.org/2000/svg" p-id="9075" @click="add"><path d="M510.352119 912.416237c-220.548741 0-399.339141-178.82643-399.339141-399.403615S289.803378 113.622281 510.352119 113.622281c220.550637 0 399.341037 178.813156 399.341037 399.390341S730.902756 912.416237 510.352119 912.416237zM510.352119 163.544178c-192.982281 0-349.421037 156.461511-349.421037 349.468444S317.369837 862.482963 510.352119 862.482963s349.421037-156.463407 349.421037-349.470341S703.3344 163.544178 510.352119 163.544178zM660.104533 537.979259 535.313067 537.979259l0 124.81043c0 13.778489-11.174874 24.957156-24.959052 24.957156-13.784178 0-24.957156-11.178667-24.957156-24.957156l0-124.81043-124.795259 0c-13.784178 0-24.959052-11.17677-24.959052-24.966637 0-13.780385 11.17677-24.957156 24.959052-24.957156l124.795259 0 0-124.816119c0-13.778489 11.174874-24.951467 24.957156-24.951467 13.786074 0 24.959052 11.171081 24.959052 24.951467l0 124.816119 124.791467 0c13.786074 0 24.959052 11.17677 24.959052 24.957156C685.063585 526.802489 673.890607 537.979259 660.104533 537.979259z" p-id="9076" /></svg>