<?xml version="1.0" standalone="no"?><!DOCTYPE svg PUBLIC "-//W3C//DTD SVG 1.1//EN" "http://www.w3.org/Graphics/SVG/1.1/DTD/svg11.dtd"><svg t="1591239490707" viewBox="0 0 1024 1024" version="1.1" xmlns="http://www.w3.org/2000/svg" p-id="7627" xmlns:xlink="http://www.w3.org/1999/xlink" width="200" height="200"><defs><style type="text/css"></style></defs><path d="M1024.01728 275.072v-3.968a28.48 28.48 0 0 0-28.672-28.608h-42.048v-59.584c0-54.848-44.544-99.328-99.328-99.328h-84.992V29.568a28.48 28.48 0 0 0-28.608-28.544h-3.968a31.04 31.04 0 0 0-30.976 30.976v57.984H540.17728V30.4a29.824 29.824 0 0 0-29.376-29.44h-3.968a30.144 30.144 0 0 0-30.208 30.208v58.816h-171.52V28.8a27.648 27.648 0 0 0-27.84-27.776h-7.936a28.16 28.16 0 0 0-27.84 27.776v61.184H165.26528c-57.216 0-101.696 44.48-101.696 95.36v57.152H31.82528A31.872 31.872 0 0 0 0.01728 274.24v0.832c0 17.472 13.504 30.976 30.976 30.976h32.576v171.52H30.99328A30.528 30.528 0 0 0 0.01728 508.672v0.768c0 17.472 14.272 31.808 31.808 31.808h31.744v171.52H32.59328a32.704 32.704 0 0 0-32.576 32.64c0 17.472 13.504 30.976 30.976 30.976h32.576v59.52c0 54.848 44.48 99.328 99.264 99.328h85.056v50.048c0 18.304 14.272 32.576 32.576 32.576a30.528 30.528 0 0 0 30.976-30.976v-51.648h171.52v50.048c0 17.472 14.336 32.576 32.64 32.576a30.528 30.528 0 0 0 30.976-30.976v-51.648h171.52v52.48c0 16.64 13.568 30.144 30.208 30.144h5.568a28.48 28.48 0 0 0 28.608-28.608v-54.016h84.992c50.816 0 91.328-41.28 91.328-91.328V776.32h34.176c16.64 0 30.976-13.504 30.976-30.976v-3.968a28.48 28.48 0 0 0-28.608-28.608h-42.048V541.184h39.68c16.64 0 30.208-13.504 30.208-30.208v-3.968a29.824 29.824 0 0 0-29.44-29.44h-40.448v-171.52h39.68A30.528 30.528 0 0 0 1024.01728 275.072z m-128 559.232c0 19.072-25.344 37.312-44.416 37.312H165.26528c-19.072 0-38.144-19.072-38.144-38.144V185.28c0-19.072 19.072-38.144 38.144-38.144h692.672c19.072 0 38.144 19.072 38.144 38.144v648.96z m-616.32-483.84l-101.76 286.08h63.552l19.072-57.216H368.65728l12.736 57.152h63.552L349.45728 350.528H279.69728z m-6.4 177.984l38.144-114.368 38.08 114.368H273.29728z m343.168-177.92H483.02528v285.952h57.152V534.784h69.952c31.744 0 57.152-12.672 76.224-38.08 12.736-19.072 19.072-38.144 19.072-57.216 0-25.408-6.4-50.816-25.408-69.888-12.736-12.736-38.144-19.072-63.552-19.072z m25.408 114.368c-6.4 12.736-19.072 19.072-38.144 19.072H546.57728v-82.56h44.48c19.072 0 31.744 0 38.08 6.336 6.4 6.336 12.736 19.008 12.736 31.744 6.4 12.736 0 19.072 0 25.408z m101.696 171.584h57.152V350.528h-57.152v285.952z" p-id="7628" ></path></svg>