<svg t="1596696810728" viewBox="0 0 1024 1024" version="1.1" xmlns="http://www.w3.org/2000/svg" p-id="8196" width="200" height="200"><path d="M512 72.5c-22.3 0-44.6 4.2-61.6 12.7l-359 179.5c-33.9 17-33.9 44.6 0 61.6l359 179.5c17 8.5 39.3 12.7 61.7 12.7 22.3 0 44.6-4.2 61.6-12.7l359.1-179.5c33.9-17 33.9-44.6 0-61.6L573.6 85.2c-17-8.5-39.3-12.7-61.6-12.7z m0 665.4c-27.5 0-55-5.5-77-16.5L83.2 545.6c-17-8.5-23.9-29.2-15.4-46.3 8.5-17 29.2-23.9 46.3-15.4l351.7 175.9c24.2 12.1 68.2 12.1 92.5 0L910 484c17-8.5 37.7-1.6 46.2 15.4s1.6 37.7-15.4 46.2L589 721.4c-24.1 11.3-50.4 16.9-77 16.5z m0 213.6c-27.5 0-55-5.5-77-16.5L83.3 759.1c-17-8.5-23.9-29.2-15.4-46.2 8.5-17 29.2-23.9 46.2-15.4l351.7 175.9c24.2 12.1 68.2 12.1 92.5 0L910 697.5c17-8.5 37.7-1.6 46.2 15.4s1.6 37.7-15.4 46.2L589 935c-21.9 11-49.4 16.5-77 16.5z" p-id="8197"></path></svg>