<svg width="200px" height="200.00px" viewBox="0 0 1024 1024" version="1.1" xmlns="http://www.w3.org/2000/svg"><path d="M512.1 256v287.7c0 17.7 14.3 32 32 32s32-14.3 32-32V256c0-17.7-14.3-32-32-32s-32 14.3-32 32zM949.1 649.7L788.8 489.4c-12.5-12.5-32.8-12.5-45.3 0s-12.5 32.8 0 45.3l137.7 137.7L744 809.6c-12.5 12.5-12.5 32.8 0 45.3 6.2 6.2 14.4 9.4 22.6 9.4s16.4-3.1 22.6-9.4L949.1 695c12.5-12.5 12.5-32.8 0-45.3zM405.8 278.4L543 141.2l137.7 137.7c6.2 6.2 14.4 9.4 22.6 9.4s16.4-3.1 22.6-9.4c12.5-12.5 12.5-32.8 0-45.3L565.7 73.3c-6-6-14.1-9.4-22.6-9.4s-16.6 3.4-22.6 9.4L360.6 233.2c-12.5 12.5-12.5 32.8 0 45.3 12.5 12.4 32.7 12.4 45.2-0.1zM352.1 767.8c-17.7 0-32 14.3-32 32v127.9c0 17.7 14.3 32 32 32s32-14.3 32-32V799.8c0-17.7-14.4-32-32-32zM544.3 767.8c-17.7 0-32 14.3-32 32v127.9c0 17.7 14.3 32 32 32s32-14.3 32-32V799.8c0-17.7-14.3-32-32-32zM801.5 672c0-17.7-14.3-32-32-32-5.1 0-508.6-0.1-528.7-0.2-63.8-3.3-113.8-55.9-113.8-120 0-66.3 53.9-120.2 120.2-120.2 66.3 0 120.2 53.9 120.2 120.2 0 12.5-1.9 24.7-5.6 36.4-5.4 16.8 4 34.8 20.8 40.2 16.8 5.3 34.8-4 40.2-20.8 5.7-18 8.6-36.8 8.6-55.8 0-101.6-82.6-184.2-184.2-184.2S63 418.3 63 519.9c0 47.6 18.1 92.8 51 127.3 32.8 34.3 76.9 54.4 124.2 56.7 3.8 0.2 525.9 0.2 531.2 0.2 17.7-0.1 32.1-14.4 32.1-32.1z" /></svg>