<svg t="1560156923737" viewBox="0 0 1024 1024" version="1.1" xmlns="http://www.w3.org/2000/svg" p-id="5140" xmlns:xlink="http://www.w3.org/1999/xlink" width="14" height="14"><path d="M647.391744 629.168128l201.129984-201.129984q10.856448-10.856448 10.856448-25.71264t-10.856448-25.71264l-201.129984-201.129984q-17.14176-17.713152-39.426048-7.999488-22.85568 9.713664-22.85568 33.712128l0 91.42272q-67.995648 0-123.420672 11.142144t-92.8512 29.140992-65.138688 45.139968-43.711488 54.567936-25.426944 62.281728-12.284928 63.710208-2.85696 63.138816q0 103.421952 95.422464 230.842368 5.71392 6.856704 14.2848 6.856704 3.999744 0 7.428096-1.714176 12.570624-5.142528 10.856448-18.855936-25.141248-202.272768 35.426304-270.268416 26.284032-29.712384 74.28096-43.140096t127.991808-13.427712l0 91.42272q0 23.998464 22.85568 33.712128 6.856704 2.85696 13.713408 2.85696 14.856192 0 25.71264-10.856448zm303.409152-391.40352l0 548.53632q0 67.995648-48.282624 116.278272t-116.278272 48.282624l-548.53632 0q-67.995648 0-116.278272-48.282624t-48.282624-116.278272l0-548.53632q0-67.995648 48.282624-116.278272t116.278272-48.282624l548.53632 0q67.995648 0 116.278272 48.282624t48.282624 116.278272z" p-id="5141"></path></svg>