<svg t="1596449389947" viewBox="0 0 1024 1024" version="1.1" xmlns="http://www.w3.org/2000/svg" p-id="14508" width="200" height="200"><path d="M994.309938 188.480704L517.323735 386.994601 39.313737 188.480704 516.29994 0l478.112378 188.480704zM0 270.9986L475.860028 474.017197V1023.795241l-117.838832-53.544491A43753.630074 43753.630074 0 0 0 106.986603 859.988002c-16.073585-7.473705-30.713857-17.404519-43.613678-29.587682a219.194561 219.194561 0 0 1-33.887622-40.132774 186.330734 186.330734 0 0 1-21.909218-46.275544A165.342931 165.342931 0 0 1 0 695.873625v-424.875025z m1023.795241 0v422.725055c0 19.247351-3.685663 38.085183-10.954609 56.308739-7.166567 18.121176-16.483103 35.320936-27.847231 51.189762a244.687063 244.687063 0 0 1-37.573285 42.487502c-12.285543 11.159368-25.79964 20.680664-40.439912 28.359128l-121.114977 51.292142a25103.459308 25103.459308 0 0 1-116.712658 49.142171c-40.644671 17.404519-81.391722 34.604279-122.343531 51.292142V474.017197L1023.795241 270.896221z" p-id="14509"></path></svg>