<svg t="1596447007456" viewBox="0 0 1024 1024" version="1.1" xmlns="http://www.w3.org/2000/svg" p-id="66222" width="200" height="200"><path d="M869.262222 116.053333H571.164444c-20.48 0-36.408889 15.928889-36.408888 36.408889v300.373334c0 20.48 15.928889 36.408889 36.408888 36.408888h298.097778c20.48 0 36.408889-15.928889 36.408889-36.408888V152.462222c0-20.48-15.928889-36.408889-36.408889-36.408889z m-75.093333 211.626667h-150.186667c-15.928889 0-29.582222-11.377778-29.582222-25.031111 0-13.653333 13.653333-25.031111 29.582222-25.031111h150.186667c15.928889 0 29.582222 11.377778 29.582222 25.031111 0 13.653333-13.653333 25.031111-29.582222 25.031111z m0 0M436.906667 116.053333H138.808889c-20.48 0-36.408889 15.928889-36.408889 36.408889v300.373334c0 20.48 15.928889 36.408889 36.408889 36.408888h298.097778c20.48 0 36.408889-15.928889 36.408889-36.408888V152.462222c0-20.48-15.928889-36.408889-36.408889-36.408889z m-75.093334 211.626667h-50.062222v50.062222c0 15.928889-11.377778 29.582222-25.031111 29.582222-13.653333 0-25.031111-13.653333-25.031111-29.582222v-50.062222H211.626667c-15.928889 0-29.582222-11.377778-29.582223-25.031111 0-13.653333 13.653333-25.031111 29.582223-25.031111h50.062222V227.555556c0-15.928889 11.377778-29.582222 25.031111-29.582223 13.653333 0 25.031111 13.653333 25.031111 29.582223v50.062222h50.062222c15.928889 0 29.582222 11.377778 29.582223 25.031111 0 13.653333-13.653333 25.031111-29.582223 25.031111z m0 0M436.906667 546.133333H138.808889c-20.48 0-36.408889 15.928889-36.408889 36.408889v300.373334c0 20.48 15.928889 36.408889 36.408889 36.408888h298.097778c20.48 0 36.408889-15.928889 36.408889-36.408888V582.542222c0-20.48-15.928889-36.408889-36.408889-36.408889z m-150.186667 81.92c15.928889 0 29.582222 13.653333 29.582222 29.582223 0 15.928889-13.653333 29.582222-29.582222 29.582222-15.928889 0-29.582222-13.653333-29.582222-29.582222 2.275556-15.928889 13.653333-29.582222 29.582222-29.582223z m0 209.351111c-15.928889 0-29.582222-13.653333-29.582222-29.582222 0-15.928889 13.653333-29.582222 29.582222-29.582222 15.928889 0 29.582222 13.653333 29.582222 29.582222 0 18.204444-13.653333 29.582222-29.582222 29.582222z m75.093333-79.644444H211.626667c-15.928889 0-29.582222-11.377778-29.582223-25.031111 0-13.653333 13.653333-25.031111 29.582223-25.031111h150.186666c15.928889 0 29.582222 11.377778 29.582223 25.031111 0 13.653333-13.653333 25.031111-29.582223 25.031111z m0 0M869.262222 546.133333H571.164444c-20.48 0-36.408889 15.928889-36.408888 36.408889v300.373334c0 20.48 15.928889 36.408889 36.408888 36.408888h298.097778c20.48 0 36.408889-15.928889 36.408889-36.408888V582.542222c0-20.48-15.928889-36.408889-36.408889-36.408889z m-75.093333 259.413334h-150.186667c-15.928889 0-29.582222-11.377778-29.582222-25.031111 0-13.653333 13.653333-25.031111 29.582222-25.031112h150.186667c15.928889 0 29.582222 11.377778 29.582222 25.031112 0 13.653333-13.653333 25.031111-29.582222 25.031111z m0-95.573334h-150.186667c-15.928889 0-29.582222-11.377778-29.582222-25.031111 0-13.653333 13.653333-25.031111 29.582222-25.031111h150.186667c15.928889 0 29.582222 11.377778 29.582222 25.031111 0 13.653333-13.653333 25.031111-29.582222 25.031111z m0 0" p-id="66223"></path></svg>