<svg t="1596449205084" viewBox="0 0 1024 1024" version="1.1" xmlns="http://www.w3.org/2000/svg" p-id="11539" width="200" height="200"><path d="M106.666667 106.666667h810.666666v810.666666H106.666667V106.666667z m85.333333 85.333333v640h640V192H192z m217.941333 316.586667l-93.354666 93.354666a42.666667 42.666667 0 1 1-22.4-22.485333l93.269333-93.269333a42.666667 42.666667 0 1 1 81.536-11.434667l122.816 68.096a42.496 42.496 0 0 1 38.656-7.872l81.642667-147.285333a42.666667 42.666667 0 1 1 26.88 16.96l-83.264 150.186666a42.666667 42.666667 0 1 1-79.381334 15.701334l-122.794666-68.053334a42.496 42.496 0 0 1-43.605334 6.101334z" p-id="11540"></path></svg>