<svg t="1596446575007" viewBox="0 0 1024 1024" version="1.1" xmlns="http://www.w3.org/2000/svg" p-id="45426" width="200" height="200"><path d="M663.850667 352.725333v324.266667H911.786667l-21.333334-75.541333h-139.968v-54.186667h140.373334v-64.853333h-140.373334v-64.853334h141.184l21.333334-64.853333H663.872z m-237.653334 248.32v-183.466666h35.306667c20.117333 0 35.306667 6.549333 45.141333 19.690666 3.712 4.522667 6.165333 11.498667 7.402667 20.522667 1.216 9.024 2.048 27.52 2.048 54.997333 0 19.285333-0.426667 33.664-0.832 43.52-0.405333 9.429333-1.621333 16.426667-2.858667 20.096-1.237333 4.117333-3.285333 4.928-5.76 9.045334-9.834667 12.309333-25.024 15.573333-45.141333 15.573333h-35.306667z m143.658667 44.736c11.904-10.261333 20.949333-20.117333 26.666667-31.616 5.76-11.072 9.450667-22.165333 11.093333-33.642666a289.493333 289.493333 0 0 0 2.474667-41.045334V484.053333c0-16-0.832-29.952-2.474667-41.450666a110.272 110.272 0 0 0-11.093333-34.069334c-5.717333-11.093333-14.762667-17.642667-26.666667-28.309333-24.618667-21.76-58.666667-28.736-102.186667-28.736h-138.730666v323.84h138.730666c43.52 1.642667 77.568-7.381333 102.186667-29.546667zM113.024 676.970667h97.28v-324.266667h-97.28v324.266667z m156.8-503.616c43.093333-20.117333 94.4-17.642667 151.872 6.976 98.496 42.282667 157.610667 68.544 193.728 84.970666 0.832 28.714667 24.213333 52.117333 52.949333 52.117334a53.248 53.248 0 0 0 53.354667-53.354667 53.248 53.248 0 0 0-53.354667-53.354667c-9.856 0-19.285333 2.858667-27.093333 7.786667-36.117333-16.426667-96.448-43.52-198.656-86.997333-72.64-31.210667-137.898667-32.021333-195.776-6.570667-103.04 45.952-137.92 175.253333-139.562667 180.181333l55.829334 0.426667c0-0.853333 29.952-96.469333 106.709333-132.181333z" p-id="45427"></path><path d="M359.296 289.493333c27.925333-13.525333 59.946667-33.237333 121.493333-60.736l-66.901333-28.309333c-38.570667 17.237333-56.64 30.784-77.568 41.045333a53.696 53.696 0 0 0-29.973333-9.045333 53.248 53.248 0 0 0-53.333334 53.376 53.248 53.248 0 0 0 53.333334 53.333333 53.930667 53.930667 0 0 0 52.949333-49.642666m246.677333-109.994667c57.877333-24.64 105.493333-26.282667 148.586667-6.570667 76.757333 35.712 106.304 131.328 106.730667 132.16l55.808-0.426666c-1.237333-4.906667-36.522667-133.781333-139.541334-179.754667-57.877333-25.856-123.562667-24.64-195.797333 6.144-17.642667 7.402667-31.594667 13.546667-47.594667 20.522667 0 0 3.264 1.642667 71.808 27.925333m148.586667 678.464c-43.093333 20.117333-94.4 17.642667-151.850667-6.976-98.517333-42.282667-157.632-68.544-193.749333-84.970667-0.810667-28.736-24.213333-52.117333-52.949333-52.117333a53.248 53.248 0 0 0-53.333334 53.333333 53.248 53.248 0 0 0 53.333334 53.376c9.856 0 19.306667-2.88 27.093333-7.786666 36.117333 16.426667 96.469333 43.498667 198.656 86.997333 72.661333 31.210667 137.92 32.021333 195.797333 6.165333 103.018667-45.973333 137.898667-174.848 139.541334-179.776l-55.808-0.426666c-0.426667 0.853333-30.378667 96.469333-106.730667 132.181333"  p-id="45428"></path><path d="M665.088 741.824c-27.904 13.546667-59.925333 33.237333-121.493333 60.757333l66.901333 28.309334c38.592-17.237333 56.64-30.784 77.568-41.045334 8.618667 5.76 18.88 9.024 29.973333 9.024a53.248 53.248 0 0 0 53.354667-53.333333 53.248 53.248 0 0 0-53.354667-53.376 53.632 53.632 0 0 0-52.949333 49.664M418.005333 851.413333c-57.877333 24.618667-105.493333 26.261333-148.586666 6.570667-76.757333-35.712-106.304-131.349333-106.730667-132.16l-55.808 0.405333c1.642667 4.906667 36.522667 133.802667 139.541333 179.776 57.877333 25.856 123.562667 24.618667 195.797334-6.165333 17.642667-7.381333 31.594667-13.546667 47.616-20.522667 0.405333 0-2.88-1.216-71.829334-27.904"  p-id="45429"></path></svg>