<svg t="1596446933860"  viewBox="0 0 1024 1024" version="1.1" xmlns="http://www.w3.org/2000/svg" p-id="64366" width="200" height="200"><path d="M157.538462 0h590.76923a157.538462 157.538462 0 0 1 157.538462 157.538462v582.57723a157.538462 157.538462 0 0 1-157.538462 157.538462H157.538462a157.538462 157.538462 0 0 1-157.538462-157.538462V157.538462a157.538462 157.538462 0 0 1 157.538462-157.538462z m131.072 234.338462h66.48123a38.4 38.4 0 1 0 0-76.8H196.923077a39.384615 39.384615 0 0 0-39.384615 39.384615v158.129231a38.4 38.4 0 0 0 76.8 0V288.571077l395.69723 395.736615h-66.520615a38.4 38.4 0 0 0 0 76.760616h158.129231a39.384615 39.384615 0 0 0 39.384615-39.384616v-158.168615a38.4 38.4 0 0 0-76.760615 0v66.441846L288.610462 234.338462z m568.832 789.582769H281.245538a38.4 38.4 0 0 1 0-76.8h576.196924a89.678769 89.678769 0 0 0 89.560615-89.560616V277.110154a38.4 38.4 0 1 1 76.8 0v580.450461a166.557538 166.557538 0 0 1-166.360615 166.360616z" p-id="64367"></path></svg>