<svg t="1596453549761" viewBox="0 0 1024 1024" version="1.1" xmlns="http://www.w3.org/2000/svg" p-id="11455" width="200" height="200"><path d="M1024 320 0 320 0 0l1024 0L1024 320zM64 256l896 0L960 64 64 64 64 256zM870.4 108.8c-25.6 0-51.2 25.6-51.2 51.2s25.6 51.2 51.2 51.2 51.2-25.6 51.2-51.2S902.4 108.8 870.4 108.8zM723.2 108.8c-25.6 0-51.2 25.6-51.2 51.2s25.6 51.2 51.2 51.2 51.2-25.6 51.2-51.2S755.2 108.8 723.2 108.8zM576 108.8C550.4 108.8 524.8 128 524.8 160S550.4 211.2 576 211.2s51.2-25.6 51.2-51.2S608 108.8 576 108.8zM870.4 460.8c-25.6 0-51.2 25.6-51.2 51.2s25.6 51.2 51.2 51.2 51.2-25.6 51.2-51.2S902.4 460.8 870.4 460.8zM723.2 460.8c-25.6 0-51.2 25.6-51.2 51.2s25.6 51.2 51.2 51.2 51.2-25.6 51.2-51.2S755.2 460.8 723.2 460.8zM576 460.8C550.4 460.8 524.8 486.4 524.8 512S550.4 563.2 576 563.2 627.2 537.6 627.2 512 608 460.8 576 460.8zM870.4 819.2c-25.6 0-51.2 25.6-51.2 51.2s25.6 51.2 51.2 51.2 51.2-25.6 51.2-51.2S902.4 819.2 870.4 819.2zM723.2 819.2c-25.6 0-51.2 25.6-51.2 51.2s25.6 51.2 51.2 51.2 51.2-25.6 51.2-51.2S755.2 819.2 723.2 819.2zM576 819.2c-25.6 0-51.2 25.6-51.2 51.2s25.6 51.2 51.2 51.2 51.2-25.6 51.2-51.2S608 819.2 576 819.2z" p-id="11456"></path><path d="M1024 672 0 672 0 352l1024 0L1024 672zM64 608l896 0L960 416 64 416 64 608z" p-id="11457"></path><path d="M1024 1024 0 1024l0-320 1024 0L1024 1024zM64 960l896 0 0-192L64 768 64 960z" p-id="11458"></path></svg>