<svg t="1596450990464" viewBox="0 0 1024 1024" version="1.1" xmlns="http://www.w3.org/2000/svg" p-id="2772" width="200" height="200"><path d="M900.1 123.1c-79.6-79.6-208.8-79.6-288.4 0L432 302.8c-14.2 14.2-14.2 37.1 0 51.1 14.2 14.2 37.1 14.2 51.1 0l179.7-179.7c51.3-51.3 134.8-51.3 186.1 0 24.8 24.8 38.6 57.9 38.6 93 0 35.2-13.7 68.2-38.6 93L669.3 539.9c-14.2 14.2-14.2 37.1 0 51.1 7 7 16.3 10.5 25.6 10.5s18.5-3.5 25.6-10.5l179.7-179.7c79.5-79.4 79.5-208.8-0.1-288.2zM376.6 280.2c19.9 0.1 36.1-16.1 36.1-36.1l-0.1-144.9c0.1-19.9-16.1-36.1-36.1-36.1-19.9-0.1-36.1 16.1-36.1 36.1v145c0.1 10 4 18.9 10.7 25.4 6.5 6.5 15.6 10.6 25.5 10.6zM809.1 756c-7.2-7-16.2-10.5-25.5-10.4-9.3 0-18.6 3.5-25.6 10.5-14.2 14-14.2 36.9 0 51.1l102.5 102.4c14 14.2 36.9 14.2 51.1 0 14.2-14 14.2-36.9 0-51.1L809.1 756z m114.5-145.9h-145c-10 0.1-18.9 4-25.4 10.7-6.6 6.6-10.7 15.6-10.7 25.5-0.1 19.9 16.1 36.1 36.1 36.1l144.9-0.1c19.9 0.1 36.102-16.1 36.102-36.1 0.198-19.9-16.002-36.1-36.002-36.1zM647.7 742c-19.9-0.1-36.1 16.1-36.1 36.1l0.1 144.9c-0.1 19.9 16.1 36.1 36.1 36.1 19.9 0.1 36.1-16.1 36.1-36.1V778c-0.1-10-4-18.9-10.7-25.4-6.5-6.5-15.6-10.6-25.5-10.6z m-106.9-73.6L361.2 848.1c-24.8 24.8-57.9 38.6-93 38.6-35.2 0-68.2-13.7-93-38.6-24.8-24.9-38.7-57.9-38.7-93 0-35.2 13.7-68.2 38.6-93l179.7-179.7c14.2-14.2 14.2-37.1 0-51.1-14.2-14.2-37.1-14.2-51.1 0L124 610.8C85.4 649.4 64.2 700.6 64.2 755c0 54.4 21.2 105.7 59.8 144.1 39.8 39.8 92 59.7 144.1 59.7 52.2 0 104.5-19.9 144.1-59.7L592 719.5c14.2-14.2 14.2-37.1 0-51.1-14.2-14.1-37-14.1-51.2 0zM215.2 266.2c7.2 7 16.2 10.5 25.5 10.4 9.3 0 18.6-3.5 25.6-10.5 14.2-14 14.2-36.9 0-51.1L163.8 112.7c-14-14.2-36.9-14.2-51.1 0-14.2 14-14.2 36.9 0 51.1l102.5 102.4z m-114.5 146h145c10-0.1 18.9-4 25.4-10.7 6.6-6.6 10.7-15.6 10.7-25.5 0.1-19.9-16.1-36.1-36.1-36.1l-144.9 0.1c-19.9-0.1-36.1 16.1-36.1 36.1-0.3 19.9 15.9 36.1 36 36.1z" p-id="2773"></path></svg>