<svg t="1596453614246" viewBox="0 0 1024 1024" version="1.1" xmlns="http://www.w3.org/2000/svg" p-id="11600" width="200" height="200"><path d="M0 0l0 256 1024 0L1024 0 0 0 0 0zM505.6 185.6C473.6 185.6 448 166.4 448 134.4s25.6-57.6 57.6-57.6 57.6 25.6 57.6 57.6S537.6 185.6 505.6 185.6L505.6 185.6zM684.8 185.6c-32 0-57.6-25.6-57.6-57.6s25.6-57.6 57.6-57.6 57.6 25.6 57.6 57.6C742.4 166.4 716.8 185.6 684.8 185.6L684.8 185.6zM864 185.6c-32 0-57.6-25.6-57.6-57.6s25.6-57.6 57.6-57.6 57.6 25.6 57.6 57.6C915.2 166.4 896 185.6 864 185.6L864 185.6z" p-id="11601"></path><path d="M0 384l0 256 1024 0L1024 384 0 384 0 384zM505.6 563.2C473.6 563.2 448 537.6 448 505.6S473.6 448 505.6 448s57.6 25.6 57.6 57.6S537.6 563.2 505.6 563.2L505.6 563.2zM684.8 563.2c-32 0-57.6-25.6-57.6-57.6S652.8 448 684.8 448s57.6 25.6 57.6 57.6S716.8 563.2 684.8 563.2L684.8 563.2zM864 563.2c-32 0-57.6-25.6-57.6-57.6S832 448 864 448s57.6 25.6 57.6 57.6S896 563.2 864 563.2L864 563.2z" p-id="11602"></path><path d="M0 768l0 256 1024 0 0-256L0 768 0 768zM505.6 947.2c-32 0-57.6-25.6-57.6-57.6S473.6 832 505.6 832s57.6 25.6 57.6 57.6S537.6 947.2 505.6 947.2L505.6 947.2zM684.8 947.2c-32 0-57.6-25.6-57.6-57.6s25.6-57.6 57.6-57.6 57.6 25.6 57.6 57.6S716.8 947.2 684.8 947.2L684.8 947.2zM864 947.2c-32 0-57.6-25.6-57.6-57.6S832 832 864 832s57.6 25.6 57.6 57.6S896 947.2 864 947.2L864 947.2z" p-id="11603"></path></svg>