<svg t="1596445732447" viewBox="0 0 1024 1024" version="1.1" xmlns="http://www.w3.org/2000/svg" p-id="9089" width="200" height="200"><path d="M921.6 260.096l-84.992 0L584.704 260.096c-13.312 0-21.504 8.192-21.504 21.504 0 13.312 8.192 21.504 21.504 21.504l332.8 0 0 84.992L584.704 388.096c-13.312 0-21.504 8.192-21.504 21.504s8.192 21.504 21.504 21.504l251.904 0 0 498.688-665.6 0L171.008 427.008l251.904 0c13.312 0 21.504-8.192 21.504-21.504s-8.192-21.504-21.504-21.504L89.088 384l0-84.992 332.8 0c13.312 0 21.504-8.192 21.504-21.504 0-13.312-8.192-21.504-21.504-21.504L171.008 256 84.992 256c-21.504 0-43.008 17.408-43.008 43.008l0 84.992c0 21.504 17.408 43.008 43.008 43.008l43.008 0 0 499.712c0 21.504 17.408 43.008 43.008 43.008l665.6 0c21.504 0 43.008-17.408 43.008-43.008L879.616 427.008 921.6 427.008c21.504 0 43.008-17.408 43.008-43.008l0-84.992C964.608 281.6 943.104 260.096 921.6 260.096zM379.904 222.208c4.096 0 13.312-4.096 13.312-8.192l89.088-89.088 0 575.488 0 0c0 13.312 8.192 21.504 21.504 21.504 13.312 0 21.504-8.192 21.504-21.504l0 0L525.312 123.904l90.112 89.088c4.096 4.096 8.192 4.096 13.312 4.096 13.312 0 21.504-8.192 21.504-21.504 0-4.096-4.096-13.312-4.096-13.312L520.192 59.392c-4.096-4.096-8.192-4.096-13.312-4.096s-13.312 4.096-13.312 4.096L366.592 183.296c-4.096 4.096-8.192 8.192-8.192 17.408C358.4 208.896 366.592 222.208 379.904 222.208z" p-id="9090"></path></svg>