<svg viewBox="0 0 1024 1024" version="1.1" xmlns="http://www.w3.org/2000/svg" width="200" height="200"><path d="M44.867 635.996h86.246c2.115 86.912 34.596 158.705 103.163 212.398 54.006 42.312 116.511 55.357 184.31 50.12v-105.216c-2.365 0-4.582 0.092-6.799 0-18.053-0.783-36.244-0.404-54.093-2.703-27.802-3.584-51.871-16.348-72.796-34.806-26.45-23.332-43.039-52.552-50.314-86.932-2.212-10.455-2.836-21.233-4.26-32.44h78.024c-44.411-51.917-87.967-102.83-131.912-154.179-43.832 51.231-87.327 102.067-131.569 153.759zM485.852 5.873c-9.108-6.907-19.63-9.523-30.822-9.533-111.043-0.036-222.085-0.108-333.123 0.026-24.914 0.036-42.578 13.44-48.968 36.598-1.275 4.618-1.736 9.615-1.736 14.418-0.097 98.678-0.097 197.376-0.067 296.064 0.015 24.924 13.379 43.039 36.721 49.418 5.12 1.388 10.655 1.736 15.985 1.751 54.83 0.108 109.655 0.092 164.475 0.092 54.994 0 109.998-0.031 165.002 0 12.308 0 23.767-2.611 33.638-10.481 11.238-8.97 17.254-20.644 18.401-34.903 0.154-1.884 0.184-3.809 0.184-5.734 0.010-98.673-0.015-197.361 0.046-296.054 0.015-17.091-5.944-31.201-19.738-41.661zM526.449 511.191c-13.338 10.030-19.763 23.675-19.799 40.064-0.108 99.732-0.148 199.46 0.036 299.203 0.036 24.033 14.213 41.964 37.228 47.933 4.808 1.249 9.979 1.541 14.981 1.556 110.008 0.087 220.001 0.051 329.999 0.067 21.079 0 37.76-8.013 47.002-27.535 3.139-6.702 4.92-14.684 4.951-22.088 0.312-99.727 0.271-199.455 0.159-299.187-0.031-23.782-13.778-41.585-36.69-47.811-5.12-1.388-10.66-1.7-16.010-1.7-54.81-0.123-109.64-0.072-164.47-0.072h-164.982c-11.761 0.010-22.804 2.365-32.404 9.569zM904.97 259.497c-2.519-90.404-37.228-164.045-110.449-217.61-52.618-38.497-112.671-49.731-177.070-44.826v105.329c10.25 0 20.311-0.379 30.341 0.087 11.428 0.548 23.060 0.748 34.212 3.011 42.24 8.591 74.619 32.020 97.838 68.019 16.63 25.743 24.612 54.246 25.129 85.54h-77.46c44.58 52.086 88.131 102.989 132.081 154.348 43.909-51.308 87.398-102.149 131.702-153.902l-86.323 0.005z"></path></svg>