<svg t="1596513551574" viewBox="0 0 1024 1024" version="1.1" xmlns="http://www.w3.org/2000/svg" p-id="49452" width="200" height="200"><path d="M960 1024H64a64 64 0 0 1-64-64V64a64 64 0 0 1 64-64h896a64 64 0 0 1 64 64v896a64 64 0 0 1-64 64z m0-896a64 64 0 0 0-64-64H128a64 64 0 0 0-64 64v768a64 64 0 0 0 64 64h768a64 64 0 0 0 64-64V128z m-192 640l-32-53.312L704 768H576l96-160L576 448h128l32 53.312L768 448h128l-96 160L896 768h-128zM512 320H438.848l-9.152 64H448a64 64 0 0 1 0 128h-36.544L384 704a64 64 0 0 1-64 64H192a64 64 0 0 1 0-128h73.152l18.304-128H256a64 64 0 0 1 0-128h45.696L320 256a64 64 0 0 1 64-64h128a64 64 0 0 1 0 128z" p-id="49453"></path></svg>