<svg t="1596453809416" viewBox="0 0 1024 1024" version="1.1" xmlns="http://www.w3.org/2000/svg" p-id="3250" width="200" height="200"><path d="M1023.45728 780.8V414.06976 229.79072c0-22.76352-1.63328-44.0064-21.0432-60.01664-17.50016-14.44352-38.42048-12.74368-59.39712-12.74368H493.66016l22.10304 12.68224-72.34048-101.12512c-16.72192-23.38304-67.34848-13.54752-92.0576-13.54752H80.03072c-33.01888 0-33.01888 51.2 0 51.2h340.66944l-22.10304-12.68224 54.912 76.76416c12.416 17.3568 22.0928 37.90336 45.8496 37.90336h465.98144c10.28608 0 6.91712 16.74752 6.91712 23.4752V780.8c0 33.01376 51.2 33.01376 51.2 0z" p-id="3251"></path><path d="M948.05504 852.48H72.79616c-14.17728 0-7.04-65.4592-7.04-74.56768V316.23168 169.11872c0-6.93248-5.86752-61.36832 5.12-62.47936 32.52736-3.28192 32.8448-54.51264 0-51.2-63.34976 6.38976-56.32 64.36864-56.32 110.81216v642.4832c0 41.26208 0.06144 94.9504 57.73312 94.9504h875.76576c33.01376-0.00512 33.01376-51.20512 0-51.20512z" p-id="3252"></path><path d="M63.58016 394.24h908.78976c33.01376 0 33.01376-51.2 0-51.2H63.58528c-33.01888 0-33.01888 51.2-0.00512 51.2z" p-id="3253"></path></svg>