<svg t="1596505878833" viewBox="0 0 1024 1024" version="1.1" xmlns="http://www.w3.org/2000/svg" p-id="10245" width="200" height="200"><path d="M827.076923 39.384615c66.953846 0 118.153846 51.2 118.153846 118.153847v708.923076c0 66.953846-51.2 118.153846-118.153846 118.153847H196.923077c-66.953846 0-118.153846-51.2-118.153846-118.153847V157.538462c0-66.953846 51.2-118.153846 118.153846-118.153847h630.153846m0-39.384615H196.923077C110.276923 0 39.384615 70.892308 39.384615 157.538462v708.923076c0 86.646154 70.892308 157.538462 157.538462 157.538462h630.153846c86.646154 0 157.538462-70.892308 157.538462-157.538462V157.538462c0-86.646154-70.892308-157.538462-157.538462-157.538462z" p-id="10246"></path><path d="M512 196.923077h393.846154v39.384615H512z" p-id="10247"></path><path d="M512 393.846154h393.846154v39.384615H512z" p-id="10248"></path><path d="M512 590.769231h393.846154v39.384615H512z" p-id="10249"></path><path d="M118.153846 787.692308h787.692308v39.384615H118.153846z" p-id="10250"></path><path d="M259.938462 630.153846V283.569231H129.969231V236.307692h311.138461v47.261539H315.076923V630.153846H259.938462z" p-id="10251"></path></svg>