<svg t="1596452545712" viewBox="0 0 1024 1024" version="1.1" xmlns="http://www.w3.org/2000/svg" p-id="5481" width="200" height="200"><path d="M979.392 213.312C971.84 98.432 769.536 9.408 512 9.408S52.16 98.432 44.608 213.312h-0.704v590.72c0 118.016 205.568 210.56 468.096 210.56s468.096-92.544 468.096-210.56v-590.72h-0.704zM512 80.256c234.688 0 393.408 73.216 399.424 148.672C905.472 304.448 746.688 377.6 512 377.6s-393.408-73.152-399.424-148.608C118.528 153.472 277.312 80.32 512 80.32z m0 863.36c-239.232 0-400-76.032-400-153.024V638.08c81.408 60.416 228.288 100.096 400 100.096s318.592-39.68 400-100.096v152.512c0 76.992-160.768 153.024-400 153.024z m400-440.704v11.264C912 591.168 751.232 667.2 512 667.2s-400-75.968-400-152.96V348.48c81.408 60.352 228.288 100.096 400 100.096s318.592-39.68 400-100.096v154.432z" p-id="5482"></path></svg>