<?xml version="1.0" standalone="no"?><!DOCTYPE svg PUBLIC "-//W3C//DTD SVG 1.1//EN" "http://www.w3.org/Graphics/SVG/1.1/DTD/svg11.dtd"><svg width="200px" height="199.42px" viewBox="0 0 1027 1024" version="1.1" xmlns="http://www.w3.org/2000/svg"><path  d="M820.303773 663.768741h-8.529153l2.00686-49.168055c80.274375 3.010289 140.480157-49.66977 158.541891-103.854973 14.549731-43.147477 3.010289-85.793239-34.11661-109.875551-107.366977-70.240078-237.812837 40.638902-239.317981 41.642332l-33.614895-35.621754c1.505145-1.505145 38.632043-36.123469 92.817247-59.704067 74.755512-32.10975 146.500735-30.604606 207.208231 11.037727 55.188633 38.130328 75.257227 102.851543 53.683489 167.572758-24.082313 69.738364-98.837825 137.971583-198.679079 137.971583zM511.749143 387.323861l-47.662911-10.034297c1.505145-6.522293 36.625184-165.064184 176.101911-173.091622 87.298383-5.017148 131.951004 42.144047 143.992161 70.240079l-44.652621 19.566879c0-0.501715-20.570309-45.154336-96.329251-41.140618-101.848114 6.020578-129.944145 129.44243-131.449289 134.459579zM257.379716 237.311122zM219.751102 157.036747c0.501715-2.508574 0.501715-5.017148 0.501715-7.525723 0-29.099461-23.580598-53.181774-53.181773-53.181774-29.099461 0-53.181774 23.580598-53.181774 53.181774 0 29.099461 23.580598 53.181774 53.181774 53.181774 15.051445 0 28.096031-6.020578 37.628613-16.054875 24.082313 14.549731 21.072024 39.133758 20.068594 44.652621l32.10975 6.522293c4.515434-20.570309 0.501715-59.704067-37.126899-80.77609z m-54.686918 17.560019c-13.546301 0-24.584027-11.037727-24.584027-24.584027s11.037727-24.584027 24.584027-24.584028 24.584027 11.037727 24.584028 24.584028-11.037727 24.584027-24.584028 24.584027zM375.784419 112.384125c0-29.099461-23.580598-53.181774-53.181773-53.181773s-53.181774 23.580598-53.181774 53.181773c0 29.099461 23.580598 53.181774 53.181774 53.181774 3.512004 0 7.024008-0.501715 10.034297-1.00343 3.512004 11.037727 9.030867 42.144047-28.096032 78.267516l22.577168 23.580598c55.188633-53.683488 40.638902-102.851543 34.11661-117.902989 9.030867-9.532582 14.549731-22.075453 14.54973-36.123469z m-52.680058 22.577168c-13.546301 0-24.584027-11.037727-24.584028-24.584027s11.037727-24.584027 24.584028-24.584027 24.584027 11.037727 24.584027 24.584027-11.037727 24.584027-24.584027 24.584027zM749.561979 786.688878l-68.233219 95.325821L867.966683 958.275355z"  /><path d="M550.882901 932.687898c-52.178344 0-104.858403-15.051445-152.019599-43.649191-94.824106-57.697207-149.009309-160.047036-136.968153-260.390005l48.66634 5.518863c-9.532582 81.77952 35.120039 165.565899 113.88927 213.228809 51.676629 31.10632 110.878981 43.147477 166.569329 32.611465 54.686918-10.034297 99.841254-40.137188 126.933856-84.288094 27.092602-44.150906 32.611465-97.834395 16.054875-151.517883-16.55659-54.185203-54.185203-101.346399-105.861832-132.954434-53.683488-32.611465-116.899559-43.649192-174.095052-31.106321l-10.536011-47.66291c69.236649-15.051445 145.99902-1.505145 209.716805 37.126899 61.710926 37.628613 107.366977 94.322391 127.435571 160.047035 20.570309 66.728074 13.044586 134.459579-21.072024 191.153357-34.11661 56.192063-90.810387 94.322391-159.545321 106.865262-16.55659 3.512004-33.11318 5.017148-49.168054 5.017148z"  /><path d="M290.492896 751.568839l-12.542872-55.690348c144.493876-32.611465 219.751102-250.857423 220.754533-252.864282l54.185203 18.563449c-3.512004 10.034297-86.796668 250.355708-262.396864 289.991181z m71.745223 98.33611l-15.553161-54.686919c246.843704-70.240078 262.396864-298.520333 262.396865-301.028907l57.195492 3.010289c0 3.010289-4.013719 69.236649-43.649192 145.99902-36.625184 70.741793-111.380696 164.060755-260.390004 206.706517z m123.421852 74.253797l-18.061735-54.185204c206.204802-69.236649 239.317981-288.486036 239.317982-290.492895l46.65948 7.024008c-0.501715 2.508574-3.010289 69.236649-40.137187 140.981871-49.66977 95.325821-128.439 163.55904-227.77854 196.67222z"  /><path d="M244.836845 222.259677v40.137187c68.734934 0 109.373836 54.185203 124.425281 104.858403 17.56002 58.700637 7.525723 136.466438-54.185203 177.105341-23.078883 15.051445-46.659481 22.577168-70.741793 22.577168-60.707496 0-112.384125-46.157766-137.971583-73.752083C65.22293 448.533072 44.150906 402.375306 42.645762 384.815287 42.144047 376.286134 54.686918 352.203822 105.360118 318.588927c36.625184-24.584027 74.755512-41.642332 79.77266-43.649192 20.570309-8.027438 40.638902-12.041156 59.704067-12.041156v-40.638902m0 0c-23.078883 0-48.164625 4.515434-75.257227 15.051445 0 0-172.589907 74.755512-167.071044 150.012739 4.515434 61.209211 112.384125 219.751102 241.324841 219.751102 30.102891 0 61.710926-8.529152 92.817246-29.099461 146.500735-95.827536 80.274375-355.715826-91.813816-355.715825z"  /><path d="M159.545321 365.248408m-24.584028 0a24.584027 24.584027 0 1 0 49.168055 0 24.584027 24.584027 0 1 0-49.168055 0Z"  /></svg>