<svg t="1596451987992" viewBox="0 0 1024 1024" version="1.1" xmlns="http://www.w3.org/2000/svg" p-id="12144" width="200" height="200"><path d="M979.2 567.466667 979.2 567.466667l-213.333333-426.666667 0 0C761.6 132.266667 755.2 128 746.666667 128L277.333333 128c-8.533333 0-14.933333 4.266667-19.2 12.8l0 0-213.333333 426.666667 0 0C42.666667 569.6 42.666667 571.733333 42.666667 576l0 298.666667c0 12.8 8.533333 21.333333 21.333333 21.333333l896 0c12.8 0 21.333333-8.533333 21.333333-21.333333L981.333333 576C981.333333 571.733333 981.333333 569.6 979.2 567.466667zM290.133333 170.666667l443.733333 0 192 384L704 554.666667l-23.466667 0L661.333333 554.666667c-12.8 0-21.333333 8.533333-21.333333 21.333333 0 70.4-57.6 128-128 128s-128-57.6-128-128c0-12.8-8.533333-21.333333-21.333333-21.333333l-19.2 0L320 554.666667 98.133333 554.666667 290.133333 170.666667zM938.666667 853.333333 85.333333 853.333333 85.333333 597.333333l258.133333 0c10.666667 83.2 83.2 149.333333 168.533333 149.333333s157.866667-66.133333 168.533333-149.333333L938.666667 597.333333 938.666667 853.333333z" p-id="12145"></path></svg>