<svg t="1596451849655" viewBox="0 0 1024 1024" version="1.1" xmlns="http://www.w3.org/2000/svg" p-id="9259" width="200" height="200"><path d="M227.4 608C172.4 608 128 565.2 128 512c0-53 44.4-96 99.4-96 55.2 0 99.6 43 99.6 96C327 565.2 282.6 608 227.4 608z" p-id="9260"></path><path d="M512 608c-55 0-99.6-42.8-99.6-96 0-53 44.6-96 99.6-96 55 0 99.4 43 99.4 96C611.4 565.2 567 608 512 608z" p-id="9261"></path><path d="M796.4 608c-55 0-99.6-42.8-99.6-96 0-53 44.4-96 99.6-96 55 0 99.6 43 99.6 96C896 565.2 851.6 608 796.4 608z" p-id="9262"></path></svg>