<svg t="1596449683450" viewBox="0 0 1024 1024" version="1.1" xmlns="http://www.w3.org/2000/svg" p-id="10072" width="200" height="200"><path d="M907.636364 791.272727c0 32.093091-26.088727 58.181818-58.181819 58.181818h-674.90909A58.228364 58.228364 0 0 1 116.363636 791.272727V314.181818h733.090909c32.093091 0 58.181818 26.088727 58.181819 58.181818v418.909091zM116.363636 197.818182c0-6.4 5.236364-11.636364 11.636364-11.636364h305.058909c4.096 0 7.936 2.187636 10.030546 5.725091l30.999272 52.456727H116.363636v-46.545454z m733.090909 46.545454H555.170909l-51.968-87.970909A81.780364 81.780364 0 0 0 433.058909 116.363636H128C83.083636 116.363636 46.545455 152.901818 46.545455 197.818182V791.272727c0 70.562909 57.437091 128 128 128h674.90909c70.562909 0 128-57.437091 128-128V372.363636c0-70.562909-57.437091-128-128-128z" p-id="10073"></path></svg>