<svg t="1596507795930" viewBox="0 0 1024 1024" version="1.1" xmlns="http://www.w3.org/2000/svg" p-id="34956" width="200" height="200"><path d="M399.58718 72.8c-90.4 16-106.8 49.4-106.8 111.2v81.4h213.8v27.2h-294c-62.2 0-116.6 37.4-133.6 108.4-19.6 81.4-20.4 132.2 0 217.2 15.2 63.2 51.4 108.4 113.6 108.4H265.98718v-97.6c0-70.6 61-132.8 133.6-132.8h213.6c59.4 0 106.8-49 106.8-108.6V183.8c0-58-48.8-101.4-106.8-111.2-71.6-11.8-149.4-11.2-213.6 0.2z m-13.4 56.8c22 0 40.2 18.4 40.2 40.8s-18 40.6-40.2 40.6c-22.2 0-40.2-18.2-40.2-40.6 0.2-22.6 18-40.8 40.2-40.8z m370.4 162.8v95c0 73.6-62.4 135.6-133.6 135.6H409.38718c-58.4 0-106.8 50-106.8 108.6v203.6c0 58 50.4 92 106.8 108.6 67.6 19.8 132.6 23.4 213.6 0 53.8-15.6 106.8-47 106.8-108.6v-81.4H516.38718v-27.2h320.4c62.2 0 85.2-43.4 106.8-108.4 22.4-67 21.4-131.4 0-217.2-15.4-61.8-44.6-108.4-106.8-108.4h-80.2zM636.38718 808c22.2 0 40.2 18.2 40.2 40.6 0 22.6-18 40.8-40.2 40.8-22 0-40.2-18.4-40.2-40.8 0.2-22.6 18.2-40.6 40.2-40.6z" p-id="34957"></path></svg>