<svg t="1596450258941" viewBox="0 0 1244 1024" version="1.1" xmlns="http://www.w3.org/2000/svg" p-id="6201" width="200" height="200"><path d="M768 145.921938C768 65.254144 702.618587 0 621.966555 0L146.033445 0C65.365211 0 0 65.331493 0 145.921938L0 878.078062C0 958.745856 65.381413 1024 146.033445 1024L621.966555 1024C702.634789 1024 768 958.668507 768 878.078062L768 658.444946C768 638.159177 751.767223 621.714286 731.428571 621.714286 711.23072 621.714286 694.857143 637.749285 694.857143 658.44107L694.857143 878.050926C694.857143 918.260699 662.40245 950.857143 621.728366 950.857143L146.271634 950.857143C105.883721 950.857143 73.142857 918.008247 73.142857 878.050926L73.142857 145.949074C73.142857 105.739301 105.59755 73.142857 146.271634 73.142857L621.728366 73.142857C662.116279 73.142857 694.857143 105.991753 694.857143 145.949074L694.857143 365.55893C694.857143 385.842578 711.08992 402.285714 731.428571 402.285714 751.626423 402.285714 768 386.248997 768 365.555054L768 145.921938 768 145.921938 768 145.921938ZM876.995547 763.051191C862.018597 776.68992 860.911506 799.652206 874.73653 814.569582 888.465883 829.383717 911.809938 830.270098 926.774528 816.642633L1231.716315 538.948389C1247.332645 524.475538 1247.332645 499.774537 1231.716315 485.301687L926.774528 207.607442C911.764078 193.938249 888.561591 194.763081 874.73653 209.680494 861.007214 224.494592 861.832558 247.390757 876.967205 261.173065L1085.155767 450.759314C1100.117065 464.383781 1095.924736 475.428571 1075.375982 475.428571L658.583845 475.428571C638.221349 475.428571 621.714286 491.661349 621.714286 512 621.714286 532.197851 638.04427 548.571429 658.604507 548.571429L1075.62997 548.571429C1096.003877 548.571429 1100.552485 559.469787 1085.402039 573.266505L876.995547 763.051191 876.995547 763.051191 876.995547 763.051191Z" p-id="6202"></path></svg>