<svg t="1596509523888" viewBox="0 0 1466 1024" version="1.1" xmlns="http://www.w3.org/2000/svg" p-id="50043" width="200" height="200"><path d="M733.605202 1024c-278.882839 0-505.623278-229.674859-505.623278-512.056431S454.609501 0 733.605202 0s505.510416 229.674859 505.510416 511.943569S1012.262317 1024 733.605202 1024zM733.605202 45.144936C479.66494 45.144936 273.12686 254.617436 273.12686 511.943569S479.552078 978.855064 733.605202 978.855064s460.36548-209.472501 460.36548-466.911495S987.31974 45.144936 733.605202 45.144936z" p-id="50044"></path><path d="M733.605202 842.743084a327.300783 327.300783 0 0 1-325.043536-295.81219 330.799515 330.799515 0 0 1 11.286234-126.970131l11.286234-39.388957 27.312686 30.698557a95.594401 95.594401 0 0 0 81.938058 31.940041 98.641684 98.641684 0 0 0 37.470297-182.949851l-34.648738-20.089496 35.213049-19.186598a323.124876 323.124876 0 0 1 120.424116-37.921745 330.686653 330.686653 0 1 1 33.858702 659.68037zM455.399537 467.362945a286.218891 286.218891 0 0 0-1.91866 74.376281A282.155847 282.155847 0 0 0 733.605202 797.598148a297.166538 297.166538 0 0 0 30.021382-1.580072A285.880304 285.880304 0 0 0 733.605202 226.401852a268.160917 268.160917 0 0 0-30.134244 1.580072A276.851317 276.851317 0 0 0 632.029097 245.701312a143.78662 143.78662 0 0 1-86.904001 242.428303 140.513612 140.513612 0 0 1-89.725559-20.76667z" p-id="50045"></path><path d="M733.605202 856.399427c-294.796429 0-565.10173-123.584261-723.109004-330.686653L0 511.943569l10.383335-13.656343C168.39061 291.184834 438.695911 167.487711 733.605202 167.487711s565.10173 124.148573 722.996143 330.799515l10.383335 13.656343-10.383335 13.769205c-158.007274 207.102392-428.312576 330.686653-722.996143 330.686653zM56.995481 511.943569C207.892428 699.746501 459.236857 811.254491 733.605202 811.254491s525.487049-111.507991 676.271134-299.310922C1259.092252 324.253499 1007.747823 212.632646 733.605202 212.632646S207.892428 324.253499 56.995481 511.943569z" p-id="50046"></path></svg>