<svg t="1596451924439" viewBox="0 0 1024 1024" version="1.1" xmlns="http://www.w3.org/2000/svg" p-id="11350" width="200" height="200"><path d="M510.54537 62.365396c-247.564375 0-448.16002 200.594621-448.16002 448.16002s200.595644 448.161043 448.16002 448.161043S958.70539 758.088768 958.70539 510.524392 758.109746 62.365396 510.54537 62.365396L510.54537 62.365396zM510.54537 921.410484c-226.449475 0-410.885068-184.219675-410.885068-410.886091 0-226.449475 184.218652-410.885068 410.885068-410.885068 226.449475 0 410.885068 184.219675 410.885068 410.885068C921.430438 736.974891 736.994845 921.410484 510.54537 921.410484L510.54537 921.410484zM510.54537 921.410484" p-id="11351"></path><path d="M510.54537 165.786861c-190.470029 0-344.737532 154.267503-344.737532 344.737532 0 190.463889 154.267503 344.737532 344.737532 344.737532 190.463889 0 344.737532-154.273642 344.737532-344.737532C855.282902 320.054363 701.00926 165.786861 510.54537 165.786861L510.54537 165.786861zM510.54537 165.786861" p-id="11352"></path></svg>