<svg t="1596446177040" viewBox="0 0 1024 1024" version="1.1" xmlns="http://www.w3.org/2000/svg" p-id="28271" width="200" height="200"><path d="M372.374696 93.15419q25.491887 0 43.61527 17.653053t18.123383 43.113585l0 244.979227q0 25.491887-18.123383 43.61527t-43.61527 18.123383l-244.979227 0q-25.491887 0-43.113585-18.123383t-17.653053-43.61527l0-244.979227q0-25.491887 17.653053-43.113585t43.113585-17.653053l244.979227 0zM372.374696 583.081289q25.491887 0 43.61527 17.653053t18.123383 43.113585l0 245.951242q0 25.491887-18.123383 43.113585t-43.61527 17.653053l-244.979227 0q-25.491887 0-43.113585-17.653053t-17.653053-43.113585l0-245.951242q0-25.491887 17.653053-43.113585t43.113585-17.653053l244.979227 0zM863.27381 583.081289q25.491887 0 43.113585 17.653053t17.653053 43.113585l0 245.951242q0 25.491887-17.653053 43.113585t-43.113585 17.653053l-244.979227 0q-25.491887 0-43.61527-17.653053t-18.123383-43.113585l0-245.951242q0-25.491887 18.123383-43.113585t43.61527-17.653053l244.979227 0zM999.481383 200.922474q19.597084 19.597084 19.597084 46.060986t-19.597084 45.088971l-182.268558 182.268558q-19.597084 19.597084-45.559301 19.597084t-45.559301-19.597084l-182.268558-182.268558q-18.625069-18.625069-18.625069-45.088971t18.625069-46.060986l182.268558-182.268558q19.597084-18.625069 45.559301-18.625069t45.559301 18.625069z" p-id="28272"></path></svg>