<svg t="1596507987689" viewBox="0 0 1024 1024" version="1.1" xmlns="http://www.w3.org/2000/svg" p-id="38953" width="200" height="200"><path d="M792.32 960H231.68c-49.92 0-90.432-41.792-90.432-93.312V157.312C141.248 105.792 181.76 64 231.68 64h560.64c49.92 0 90.432 41.792 90.432 93.312v709.312c0 51.584-40.512 93.376-90.432 93.376z m-558.4-139.008a46.336 46.336 0 1 0 92.672 0 46.336 46.336 0 0 0-92.672 0zM512 157.312c-134.912 0-244.16 112.768-244.16 252.032 0 119.488 80.512 219.52 188.608 245.504a105.6 105.6 0 0 1 21.376-112.768 97.28 97.28 0 0 1 140.736 0c12.992 13.632 35.84 32.256 60.224 51.328a254.592 254.592 0 0 0 77.44-184.064C756.16 270.08 646.912 157.312 512 157.312z m261.312 594.944c-20.608-21.312-198.4-150.464-204.736-157.184a27.328 27.328 0 0 0-39.424 0 29.44 29.44 0 0 0 0 40.704c5.952 5.952 130.56 188.928 152.256 211.328a63.68 63.68 0 0 0 91.904 0 68.672 68.672 0 0 0 0-94.848zM512 434.752c-24.96 0-30.912-5.12-30.912-30.912 0-25.728 5.952-30.848 30.912-30.848s30.912 5.12 30.912 30.912c0 25.728-5.952 30.848-30.912 30.848z" p-id="38954"></path></svg>