<svg t="1596450868957" viewBox="0 0 1024 1024" version="1.1" xmlns="http://www.w3.org/2000/svg" p-id="1786" width="200" height="200"><path d="M196.445424 999.726571 820.216097 999.726571 820.780595 664.979052 196.445424 664.979052ZM851.828004 182.332966C731.589857 57.014333 715.219405 39.514884 701.671444 39.514884l-87.497244 0 0 287.894157c0 17.499449-14.112459 32.176406-32.176406 32.176406l-417.728776 0c-17.499449 0-32.176406-14.112459-32.176406-32.176406L132.092613 39.514884l-52.498346 0c-26.531422 0-47.982359 21.450937-47.982359 47.982359l0 864.246968c0 26.531422 21.450937 47.982359 47.982359 47.982359l52.498346 0 0-370.875413c0-15.805954 14.112459-28.224917 32.176406-28.224917l688.687982 0c17.499449 0 32.176406 12.418964 32.176406 28.224917l0 370.875413 59.272326 0c26.531422 0 47.982359-21.450937 47.982359-47.982359L992.388093 330.231533C992.388093 317.248071 977.711136 308.216097 851.828004 182.332966zM549.821389 39.514884 196.445424 39.514884l0 256.282249 353.375965 0L549.821389 39.514884zM331.925028 238.218302c0 5.080485-3.951488 9.596472-9.596472 9.596472l-45.159868 0c-5.080485 0-9.596472-3.951488-9.596472-9.596472l0-141.124587c0-5.080485 3.951488-9.596472 9.596472-9.596472l45.159868 0c5.080485 0 9.596472 3.951488 9.596472 9.596472L331.925028 238.218302z" p-id="1787"></path></svg>