<svg viewBox="0 0 1024 1024" version="1.1" xmlns="http://www.w3.org/2000/svg" width="200" height="200"><path d="M703.13 737.562c-162.829 0-295.283-130.97-295.283-291.981s132.454-291.981 295.283-291.981c162.803 0 295.27 130.982 295.27 291.994s-132.467 291.968-295.27 291.968zM703.13 223.68c-123.75 0-224.422 99.546-224.422 221.914 0 122.355 100.672 221.901 224.422 221.901 123.738 0 224.397-99.546 224.397-221.901 0-122.368-100.659-221.914-224.397-221.914zM53.043 819.2h917.901c22.234 0 40.256 17.203 40.256 38.4s-18.022 38.4-40.256 38.4h-917.901c-22.234 0-40.243-17.203-40.243-38.4s18.010-38.4 40.243-38.4zM807.053 479.846h-68.506v93.427c0 19.354-15.846 35.034-35.43 35.034s-35.443-15.693-35.443-35.034v-128.461c0-19.354 15.859-35.034 35.443-35.034h103.923c19.571 0 35.456 15.693 35.456 35.034s-15.872 35.034-35.443 35.034zM53.043 614.4h290.163c14.728 29.307 32.072 54.553 52.34 77.12l-0.282-0.32h-342.221c-22.234 0-40.243-17.203-40.243-38.4s18.010-38.4 40.243-38.4zM53.043 204.8h342.221c-19.981 22.248-37.324 47.494-51.15 74.821l-0.908 1.979h-290.163c-22.234 0-40.243-17.203-40.243-38.4s18.010-38.4 40.243-38.4zM970.944 76.8h-917.901c-22.234 0-40.243-17.203-40.243-38.4s18.010-38.4 40.243-38.4h917.901c22.234 0 40.256 17.203 40.256 38.4s-18.022 38.4-40.256 38.4zM53.043 409.6h256.333c-1.395 12.608-2.176 25.408-2.176 38.4s0.781 25.792 2.176 38.4h-256.333c-22.234 0-40.243-17.203-40.243-38.4s18.010-38.4 40.243-38.4z"></path></svg>