<svg t="1596450345742" viewBox="0 0 1024 1024" version="1.1" xmlns="http://www.w3.org/2000/svg" p-id="7457" width="200" height="200"><path d="M426.65984 42.65984q78.00832 0 149.17632 30.49472t122.49088 81.83808 81.83808 122.49088 30.49472 149.17632q0 66.99008-21.83168 128.32768t-62.1568 111.32928l242.33984 241.99168q12.32896 12.32896 12.32896 30.33088 0 18.3296-12.16512 30.49472t-30.49472 12.16512q-18.00192 0-30.33088-12.32896l-241.99168-242.33984q-49.99168 40.32512-111.32928 62.1568t-128.32768 21.83168q-78.00832 0-149.17632-30.49472t-122.49088-81.83808-81.83808-122.49088-30.49472-149.17632 30.49472-149.17632 81.83808-122.49088 122.49088-81.83808 149.17632-30.49472zM426.65984 128q-60.66176 0-115.99872 23.67488t-95.3344 63.67232-63.67232 95.3344-23.67488 115.99872 23.67488 115.99872 63.67232 95.3344 95.3344 63.67232 115.99872 23.67488 115.99872-23.67488 95.3344-63.67232 63.67232-95.3344 23.67488-115.99872-23.67488-115.99872-63.67232-95.3344-95.3344-63.67232-115.99872-23.67488z" p-id="7458"></path></svg>