<?xml version="1.0" standalone="no"?><!DOCTYPE svg PUBLIC "-//W3C//DTD SVG 1.1//EN" "http://www.w3.org/Graphics/SVG/1.1/DTD/svg11.dtd"><svg t="1573121230738" viewBox="0 0 1024 1024" version="1.1" xmlns="http://www.w3.org/2000/svg" p-id="2153" xmlns:xlink="http://www.w3.org/1999/xlink" width="200" height="200"><defs><style type="text/css"></style></defs><path d="M815.165537 501.054489s41.471663-43.519646 110.463102-119.551029c68.991439-76.159381 118.655036-152.190763 88.319283-184.830498-8.319932-51.71158-353.21313 43.519646-353.21313 43.519646S597.119308 136.64145 528.127869 33.410289c-85.503305-95.231226-143.486834 43.455647-143.486834 43.455646L329.473483 337.919814S114.243232 400.447306 31.363905 435.839019C-31.99558 479.230666 20.355995 555.326048 20.355995 555.326048l220.798206 97.919204 121.407013-76.159381-198.654386-87.039293 264.957847-65.279469 44.159642-271.805792 132.478923 206.590322 242.878027-54.399558-165.694654 206.71832 110.463103 206.590322-187.646476-54.399558 22.015821 130.494939s165.630654 48.895603 220.798206 54.399558c99.327193 8.127934 88.319282-97.919204 88.319283-97.919204L815.165537 501.118488z m-446.268374 359.037083l13.311892-189.374462-106.495135 67.967448s-19.839839 170.174617-23.487809 219.07022c-6.015951 79.295356 99.391192 65.27947 99.391192 65.27947l193.598427-197.758393-33.727726-142.526842-142.590841 177.278559z" p-id="2154"></path></svg>