<svg t="1596451307165" viewBox="0 0 1024 1024" version="1.1" xmlns="http://www.w3.org/2000/svg" p-id="8541" width="200" height="200"><path d="M887.904 298.208a32 32 0 0 0-45.216 1.408L415.936 753.984l-233.12-229.696a32 32 0 1 0-44.928 45.568l256.48 252.672 0.32 0.224 0.224 0.32c2.016 1.92 4.448 3.008 6.784 4.288 1.152 0.672 2.144 1.664 3.36 2.144a31.36 31.36 0 0 0 24.032-0.256c1.312-0.544 2.336-1.664 3.552-2.368 2.4-1.408 4.896-2.592 6.944-4.672l0.224-0.352 0.288-0.224L889.28 343.424a31.936 31.936 0 0 0-1.376-45.216z" p-id="8542"></path></svg>