<svg t="1596505042581" viewBox="0 0 1024 1024" version="1.1" xmlns="http://www.w3.org/2000/svg" p-id="9423" width="200" height="200"><path d="M853.333333 1024 170.666667 1024c-93.866667 0-170.666667-76.8-170.666667-170.666667L0 213.333333c0-25.6 17.066667-42.666667 42.666667-42.666667l938.666667 0c25.6 0 42.666667 17.066667 42.666667 42.666667l0 640C1024 947.2 947.2 1024 853.333333 1024zM85.333333 256l0 597.333333c0 46.933333 38.4 85.333333 85.333333 85.333333l682.666667 0c46.933333 0 85.333333-38.4 85.333333-85.333333L938.666667 256 85.333333 256z" p-id="9424"></path><path d="M512 256" p-id="9425"></path><path d="M981.333333 213.333333 42.666667 213.333333 42.666667 170.666667c0-72.533333 55.466667-128 128-128l682.666667 0c72.533333 0 128 55.466667 128 128L981.333333 213.333333z" p-id="9426"></path><path d="M981.333333 256 42.666667 256C17.066667 256 0 238.933333 0 213.333333L0 170.666667c0-93.866667 76.8-170.666667 170.666667-170.666667l682.666667 0c93.866667 0 170.666667 76.8 170.666667 170.666667l0 42.666667C1024 238.933333 1006.933333 256 981.333333 256zM85.333333 170.666667l853.333333 0c0-46.933333-38.4-85.333333-85.333333-85.333333L170.666667 85.333333C123.733333 85.333333 85.333333 123.733333 85.333333 170.666667z" p-id="9427"></path><path d="M298.666667 1024c-25.6 0-42.666667-17.066667-42.666667-42.666667L256 213.333333c0-25.6 17.066667-42.666667 42.666667-42.666667s42.666667 17.066667 42.666667 42.666667l0 768C341.333333 1006.933333 324.266667 1024 298.666667 1024z" p-id="9428"></path><path d="M42.666667 341.333333" p-id="9429"></path><path d="M981.333333 341.333333" p-id="9430"></path><path d="M981.333333 512 42.666667 512c-25.6 0-42.666667-17.066667-42.666667-42.666667s17.066667-42.666667 42.666667-42.666667l938.666667 0c25.6 0 42.666667 17.066667 42.666667 42.666667S1006.933333 512 981.333333 512z" p-id="9431"></path><path d="M981.333333 768 42.666667 768c-25.6 0-42.666667-17.066667-42.666667-42.666667s17.066667-42.666667 42.666667-42.666667l938.666667 0c25.6 0 42.666667 17.066667 42.666667 42.666667S1006.933333 768 981.333333 768z" p-id="9432"></path></svg>