<svg t="1596509653207" viewBox="0 0 1024 1024" version="1.1" xmlns="http://www.w3.org/2000/svg" p-id="54250" width="200" height="200"><path d="M834.688 171.385c-39.44 0-71.709-32.269-71.709-71.709V63.823H225.166c-39.439 0-71.708 32.268-71.708 71.708v752.938c0 39.44 32.269 71.709 71.708 71.709h573.667c39.44 0 71.708-32.269 71.708-71.709V171.385h-35.853z m-441.32 252.489h-80.186v260.502h-32.033V423.874h-79.783V389.02h192.002v34.854z m190.39 260.502L522.627 579.06c-3.414-5.88-6.861-12.481-10.338-19.808-5.504 10.773-9.448 18.148-11.834 22.114l-60.749 103.01h-38.48l93.843-153.998-82.763-141.358h38.1l44.27 75.652c9.087 15.529 15.503 27.675 19.236 36.445 5.195-10.524 11.611-21.737 19.213-33.646l48.978-78.451h34.494l-84.872 138.961 91.52 156.395h-39.487z m241.966-260.502h-80.186v260.502h-32.033V423.874h-79.783V389.02h192.002v34.854z" p-id="54251"></path></svg>