<svg t="1596701136963" viewBox="0 0 1024 1024" version="1.1" xmlns="http://www.w3.org/2000/svg" p-id="3983" width="200" height="200"><path d="M870.4 792.576 598.016 792.576l0 96.256L675.84 888.832l0 57.344L348.16 946.176l0-57.344 77.824 0 0-96.256L153.6 792.576c-36.864 0-77.824-32.768-77.824-69.632L75.776 143.36c0-36.864 30.72-67.584 67.584-67.584l735.232 0c36.864 0 69.632 30.72 69.632 67.584l0 577.536C948.224 759.808 907.264 792.576 870.4 792.576zM888.832 174.08c0-24.576-14.336-38.912-38.912-38.912L174.08 135.168c-24.576 0-38.912 14.336-38.912 38.912l0 444.416c0 24.576 14.336 38.912 38.912 38.912l677.888 0c24.576 0 38.912-14.336 38.912-38.912L890.88 174.08zM765.952 348.16c-2.048 6.144-4.096 12.288-6.144 16.384 0 0 16.384 20.48 6.144 30.72l-4.096 4.096c-8.192 8.192-24.576-4.096-28.672-6.144-6.144 4.096-12.288 6.144-18.432 6.144l2.048 0c0 0-4.096 26.624-16.384 26.624l-4.096 0c-10.24 0-16.384-22.528-16.384-26.624-6.144-2.048-12.288-4.096-18.432-8.192l0 0c0 0-20.48 16.384-30.72 6.144l-4.096-4.096c-8.192-8.192 4.096-26.624 6.144-30.72-2.048-4.096-6.144-10.24-6.144-16.384-4.096 0-26.624-6.144-26.624-16.384l0-4.096c0-12.288 20.48-16.384 26.624-16.384 2.048-6.144 4.096-12.288 6.144-16.384-2.048-4.096-14.336-22.528-8.192-30.72l4.096-4.096c8.192-8.192 26.624 4.096 30.72 6.144 6.144-2.048 10.24-6.144 16.384-6.144 2.048-6.144 6.144-26.624 16.384-26.624l4.096 0c12.288 0 16.384 20.48 16.384 26.624 6.144 2.048 12.288 4.096 16.384 6.144 4.096-2.048 22.528-14.336 30.72-6.144l4.096 4.096c8.192 8.192-4.096 24.576-6.144 30.72 2.048 6.144 6.144 10.24 6.144 16.384 2.048 0 24.576 4.096 24.576 16.384l0 4.096C792.576 339.968 772.096 346.112 765.952 348.16zM696.32 274.432c-30.72 0-55.296 24.576-55.296 55.296s24.576 55.296 55.296 55.296 55.296-24.576 55.296-55.296S724.992 274.432 696.32 274.432zM696.32 364.544c-20.48 0-36.864-16.384-36.864-36.864 0-20.48 16.384-36.864 36.864-36.864 20.48 0 36.864 16.384 36.864 36.864C731.136 348.16 714.752 364.544 696.32 364.544zM696.32 309.248c-10.24 0-18.432 8.192-18.432 18.432 0 10.24 8.192 18.432 18.432 18.432 10.24 0 18.432-8.192 18.432-18.432C714.752 317.44 706.56 309.248 696.32 309.248zM550.912 432.128c-4.096 10.24-8.192 22.528-12.288 30.72 0 2.048 30.72 38.912 12.288 57.344l-8.192 8.192c-14.336 14.336-47.104-8.192-55.296-12.288-10.24 6.144-22.528 10.24-32.768 14.336l2.048 0c0 0-6.144 49.152-32.768 49.152l-8.192 0c-20.48 0-30.72-40.96-32.768-49.152-12.288-4.096-22.528-8.192-32.768-14.336l2.048 2.048c0 0-38.912 30.72-57.344 12.288l-8.192-6.144c-14.336-14.336 8.192-51.2 12.288-59.392-6.144-10.24-10.24-20.48-12.288-30.72-8.192-2.048-49.152-12.288-49.152-32.768l0-8.192c0-22.528 40.96-30.72 49.152-32.768 2.048-10.24 8.192-20.48 12.288-30.72-4.096-6.144-28.672-43.008-14.336-57.344l8.192-8.192c16.384-16.384 49.152 6.144 57.344 12.288 10.24-6.144 20.48-10.24 30.72-12.288 2.048-10.24 14.336-49.152 32.768-49.152l8.192 0c22.528 0 30.72 36.864 32.768 49.152 12.288 4.096 22.528 8.192 32.768 12.288 8.192-6.144 43.008-26.624 57.344-12.288l8.192 8.192c16.384 16.384-6.144 49.152-12.288 57.344 6.144 10.24 10.24 20.48 12.288 32.768 2.048 0 49.152 8.192 49.152 32.768l0 8.192C598.016 419.84 561.152 430.08 550.912 432.128zM415.744 292.864c-57.344 0-102.4 47.104-102.4 102.4 0 57.344 47.104 102.4 102.4 102.4 57.344 0 102.4-47.104 102.4-102.4C518.144 339.968 473.088 292.864 415.744 292.864zM415.744 464.896c-38.912 0-69.632-30.72-69.632-69.632 0-38.912 30.72-69.632 69.632-69.632 38.912 0 69.632 30.72 69.632 69.632C483.328 434.176 452.608 464.896 415.744 464.896zM415.744 362.496c-18.432 0-34.816 16.384-34.816 34.816 0 18.432 16.384 34.816 34.816 34.816 18.432 0 34.816-16.384 34.816-34.816C450.56 376.832 434.176 362.496 415.744 362.496z" p-id="3984"></path></svg>