<svg t="1596446450258" viewBox="0 0 1024 1024" version="1.1" xmlns="http://www.w3.org/2000/svg" p-id="38355" width="200" height="200"><path d="M983.964 953.145 846.307 953.145c-21.721 0-39.33-17.575-39.33-39.249L806.977 796.141c0-21.677 17.609-39.249 39.33-39.249l39.33 0L885.637 580.263c0-21.679-17.607-39.251-39.33-39.251L531.664 541.012l0 215.88 39.332 0c21.721 0 39.33 17.572 39.33 39.249l0 117.756c0 21.674-17.609 39.249-39.33 39.249L433.34 953.146c-21.723 0-39.33-17.575-39.33-39.249L394.01 796.141c0-21.677 17.607-39.249 39.33-39.249l39.33 0 0-215.88L177.693 541.012c-21.721 0-39.33 17.572-39.33 39.251l0 176.629 39.33 0c21.721 0 39.33 17.572 39.33 39.249l0 117.756c0 21.674-17.609 39.249-39.33 39.249L40.036 953.146c-21.721 0-39.33-17.575-39.33-39.249L0.706 796.141c0-21.677 17.609-39.249 39.33-39.249l39.33 0L79.366 560.636c0-43.355 35.219-78.502 78.663-78.502L472.67 482.134 472.67 266.257l-39.33 0c-21.723 0-39.33-17.575-39.33-39.253L394.01 109.252c0-21.679 17.607-39.251 39.33-39.251l137.657 0c21.721 0 39.33 17.572 39.33 39.251l0 117.751c0 21.679-17.609 39.253-39.33 39.253l-39.332 0 0 215.878 334.309 0c43.441 0 78.66 35.147 78.66 78.502l0 196.255 39.33 0c21.721 0 39.33 17.572 39.33 39.249l0 117.756C1023.294 935.571 1005.684 953.145 983.964 953.145z" p-id="38356"></path></svg>