<svg t="1596447095064" viewBox="0 0 1024 1024" version="1.1" xmlns="http://www.w3.org/2000/svg" p-id="66630" width="200" height="200"><path d="M254.160607 395.670551c71.228251 0 128.97035-59.029418 128.97035-131.846864 0-72.816422-57.742099-131.846864-128.97035-131.846864s-128.97035 59.029418-128.97035 131.846864C125.190257 336.641133 182.932356 395.670551 254.160607 395.670551zM254.160607 167.732166c51.399647 0 93.216032 43.106774 93.216032 96.091522 0 52.984748-41.816384 96.091522-93.216032 96.091522-51.399647 0-93.216032-43.106774-93.216032-96.091522C160.944576 210.838939 202.76096 167.732166 254.160607 167.732166z" p-id="66631"></path><path d="M752.005212 757.307985m-131.846864 0a128.844 128.844 0 1 0 263.693728 0 128.844 128.844 0 1 0-263.693728 0Z" p-id="66632"></path><path d="M125.287471 625.208365l263.692704 0 0 264.199241-263.692704 0 0-264.199241Z" p-id="66633"></path><path d="M751.871641 127.830128l136.117664 136.117664-135.856451 135.856451-136.117664-136.117664 135.856451-135.856451Z" p-id="66634"></path><path d="M280.369525 615.942327 280.369525 497.432213 344.293417 497.432213 257.134335 404.507824 169.975253 497.432213 233.899144 497.432213 233.899144 615.942327Z" p-id="66635"></path><path d="M521.360182 240.588497 402.850068 240.588497 402.850068 287.059901 521.360182 287.059901 521.360182 350.98277 614.284571 263.823688 521.360182 176.664605Z" p-id="66636"></path><path d="M728.770022 400.481114 728.770022 518.991228 664.84613 518.991228 752.005212 611.915617 839.164295 518.991228 775.241426 518.991228 775.241426 400.481114Z" p-id="66637"></path></svg>