<svg t="1596511248973" viewBox="0 0 1024 1024" version="1.1" xmlns="http://www.w3.org/2000/svg" p-id="12101" width="200" height="200"><path d="M883.19735 1024h-639.99808A141.055577 141.055577 0 0 1 102.399693 883.200422v-742.397772A141.055577 141.055577 0 0 1 243.19927 0.003072h516.350451a89.087733 89.087733 0 0 1 63.231811 25.599923l189.695431 189.695431A38.399885 38.399885 0 0 1 1023.996928 243.202342v639.99808a141.055577 141.055577 0 0 1-140.799578 140.799578zM243.19927 76.802842A63.999808 63.999808 0 0 0 179.199462 140.80265v742.397772A63.999808 63.999808 0 0 0 243.19927 947.20023h639.99808a63.999808 63.999808 0 0 0 63.999808-63.999808V259.074295l-179.199462-179.199463a12.799962 12.799962 0 0 0-8.447975-3.07199z" p-id="12103"></path><path d="M274.943175 508.417547l-60.927817-109.311672h39.679881L281.599155 451.841716c5.631983 10.495969 10.495969 20.479939 17.151949 34.047898h1.535995c5.887982-13.567959 10.239969-23.551929 15.359954-34.047898l25.599923-52.735841h37.375888l-60.671818 111.103666L383.998848 625.153197h-39.93588l-29.695911-56.063832-18.687944-36.86389c-6.399981 13.823959-12.031964 25.599923-17.407948 36.86389l-30.463908 56.063832H210.175369zM418.046746 399.105875h35.583893v195.839412h95.487714v30.20791h-131.071607zM564.990305 595.969284l20.991937-25.599923a87.551737 87.551737 0 0 0 60.15982 25.599923c27.391918 0 42.751872-12.799962 42.751871-31.999904s-15.359954-27.135919-36.351891-36.351891l-31.231906-13.567959a65.023805 65.023805 0 0 1-46.079862-59.135823 67.071799 67.071799 0 0 1 74.239778-62.207813 96.76771 96.76771 0 0 1 67.327798 30.719908l-18.687944 22.783931a72.191783 72.191783 0 0 0-49.663851-20.223939c-23.039931 0-38.143886 11.007967-38.143886 29.183912s18.175945 25.599923 36.60789 34.047898l30.975907 13.31196A63.23181 63.23181 0 0 1 724.989825 563.201382c0 36.351891-29.95191 65.791803-79.615761 65.791803a112.639662 112.639662 0 0 1-80.383759-33.023901zM807.677577 508.417547l-60.671818-109.311672h39.679881l27.391918 52.735841c5.631983 10.495969 10.495969 20.479939 17.151948 34.047898h1.535996c5.887982-13.567959 10.239969-23.551929 15.359954-34.047898l25.599923-52.735841h37.375888l-60.671818 111.103666 65.023805 114.943656h-38.911884l-29.695911-56.063832-18.687943-36.86389c-6.399981 13.823959-12.031964 25.599923-17.407948 36.86389l-28.927913 56.063832H742.397773z" p-id="12104"></path></svg>