<svg t="1596510983082" viewBox="0 0 1024 1024" version="1.1" xmlns="http://www.w3.org/2000/svg" p-id="11962" width="200" height="200"><path d="M883.19735 1024h-639.99808A141.055577 141.055577 0 0 1 102.399693 883.200422v-742.397772A141.055577 141.055577 0 0 1 243.19927 0.003072h516.350451a89.087733 89.087733 0 0 1 63.231811 25.599923l189.695431 189.695431A38.399885 38.399885 0 0 1 1023.996928 243.202342v639.99808a141.055577 141.055577 0 0 1-140.799578 140.799578zM243.19927 76.802842A63.999808 63.999808 0 0 0 179.199462 140.80265v742.397772A63.999808 63.999808 0 0 0 243.19927 947.20023h639.99808a63.999808 63.999808 0 0 0 63.999808-63.999808V259.074295l-179.199462-179.199463a12.799962 12.799962 0 0 0-8.447975-3.07199z" p-id="11964"></path><path d="M370.686888 508.417547l-60.927817-109.311672h39.679881l27.391918 52.735841c5.631983 10.495969 10.495969 20.479939 17.151948 34.047898h1.535995c5.887982-13.567959 10.239969-23.551929 15.359954-34.047898l25.599924-52.735841h37.375887l-60.671818 111.103666 65.023805 114.943656h-38.399884L409.598771 568.833365l-18.687944-36.863889c-6.399981 13.823959-12.031964 25.599923-17.407948 36.863889l-28.927913 56.063832h-38.655884zM513.790459 399.105875h35.583893v195.839412h95.487713v30.20791h-131.071606zM660.734018 595.969284l20.991937-25.599923a87.551737 87.551737 0 0 0 60.159819 25.599923c27.391918 0 42.751872-12.799962 42.751872-31.999904s-15.359954-27.135919-36.351891-36.351891L716.79785 516.353523a65.023805 65.023805 0 0 1-46.079862-59.135823 67.071799 67.071799 0 0 1 74.239777-62.207813 96.76771 96.76771 0 0 1 68.351795 28.671914l-18.687944 22.783932a71.935784 71.935784 0 0 0-49.663851-20.22394c-23.039931 0-38.143886 11.007967-38.143885 29.183913s18.175945 25.599923 36.60789 34.047898l30.975907 13.31196a62.975811 62.975811 0 0 1 46.079862 60.415818c0 36.351891-29.95191 65.791803-79.615762 65.791803a112.639662 112.639662 0 0 1-80.127759-33.023901z" p-id="11965"></path></svg>