<svg t="1569462393400" viewBox="0 0 1024 1024" version="1.1" xmlns="http://www.w3.org/2000/svg" p-id="2436" width="14" height="14"><path d="M568.552727 954.181818a86.341818 86.341818 0 0 1-41.425454-10.472727l-114.269091-62.836364a86.574545 86.574545 0 0 1-44.916364-76.101818V442.181818a16.989091 16.989091 0 0 0-6.981818-13.730909L97.047273 218.298182 93.090909 214.807273A85.876364 85.876364 0 0 1 155.927273 69.818182h711.214545A86.574545 86.574545 0 0 1 930.909091 214.807273l-3.490909 3.490909-266.24 213.410909a17.454545 17.454545 0 0 0-6.050909 13.730909v422.4A86.341818 86.341818 0 0 1 568.552727 954.181818zM141.963636 166.632727l262.283637 209.454546A85.178182 85.178182 0 0 1 437.061818 442.181818v362.589091a17.92 17.92 0 0 0 8.610909 15.592727l114.269091 62.138182a17.687273 17.687273 0 0 0 17.687273 0 17.221818 17.221818 0 0 0 8.378182-15.36V445.44a85.876364 85.876364 0 0 1 31.883636-67.258182l263.214546-211.549091a17.687273 17.687273 0 0 0 1.62909-18.152727 17.454545 17.454545 0 0 0-15.592727-8.843636H155.927273a17.221818 17.221818 0 0 0-13.963637 27.694545zM920.669091 512h-188.974546a34.443636 34.443636 0 0 1 0-69.818182h188.974546a34.443636 34.443636 0 0 1 0 69.818182z m0 128.930909h-188.974546a34.443636 34.443636 0 0 1 0-69.818182h188.974546a34.443636 34.443636 0 0 1 0 69.818182z m0 128h-188.974546a34.443636 34.443636 0 0 1 0-69.818182h188.974546a34.443636 34.443636 0 0 1 0 69.818182z" p-id="2437"></path></svg>