<svg width="200px" height="200.00px" viewBox="0 0 1024 1024" version="1.1" xmlns="http://www.w3.org/2000/svg"><path d="M452.096 560.420571l199.68 134.656c6.948571 4.608 43.154286 16.164571 54.198857-6.363428 11.190857-22.601143 5.485714-40.448-7.68-49.005714l-190.902857-119.881143V324.973714c0-17.92-10.678857-32.402286-32.402286-32.402285C453.193143 292.571429 438.857143 307.053714 438.857143 324.973714V540.525714l13.238857 19.821715zM945.298286 246.784l24.649143-17.334857c7.972571-5.558857 19.309714-2.925714 25.453714 5.778286a20.845714 20.845714 0 0 1 3.584 9.362285l9.947428 175.542857c1.170286 10.24-5.851429 19.017143-15.798857 19.309715a18.651429 18.651429 0 0 1-9.069714-2.048l-160.914286-69.778286a20.333714 20.333714 0 0 1-9.947428-25.161143 16.310857 16.310857 0 0 1 5.778285-7.241143l61.44-43.008C798.208 163.035429 663.405714 84.626286 518.509714 84.626286c-225.353143 0-411.794286 186.88-438.418285 427.373714H2.779429c26.916571-287.232 247.954286-512 515.730285-512 171.227429 0 330.605714 93.330286 426.788572 246.784zM99.254857 797.110857l-33.792 23.698286c-7.899429 5.558857-19.309714 2.925714-25.380571-5.778286a20.845714 20.845714 0 0 1-3.657143-9.362286L26.331429 630.345143c-1.243429-10.313143 5.778286-19.017143 15.652571-19.309714a18.578286 18.578286 0 0 1 9.142857 2.048l160.694857 69.924571a20.333714 20.333714 0 0 1 9.947429 25.161143 16.237714 16.237714 0 0 1-5.778286 7.168l-51.638857 36.205714c83.017143 117.394286 211.382857 187.830857 348.672 187.830857 201.874286 0 372.662857-150.016 425.106286-354.230857h79.36c-54.345143 251.392-259.876571 438.857143-504.466286 438.857143-163.693714 0-316.489143-85.284571-413.769143-226.889143z" /></svg>