<svg t="1596682048031" viewBox="0 0 1024 1024" version="1.1" xmlns="http://www.w3.org/2000/svg" p-id="3158" width="200" height="200"><path d="M328 680a8 8 0 0 1-8-8v-72a8 8 0 0 1 16 0V672a8 8 0 0 1-8 8zM232 680a8 8 0 0 1-8-8v-72a8 8 0 0 1 16 0V672a8 8 0 0 1-8 8z" p-id="3159"></path><path d="M1016 720v48a16 16 0 0 1-16 16h-976a16 16 0 0 1-16-16v-48a16 16 0 0 1 16-16h976a16 16 0 0 1 16 16z" p-id="3160"></path><path d="M1000 792h-976C10.768 792 0 781.232 0 768v-48c0-13.232 10.768-24 24-24h976c13.232 0 24 10.768 24 24v48c0 13.232-10.768 24-24 24z m-976-80a8 8 0 0 0-8 8v48a8 8 0 0 0 8 8h976a8 8 0 0 0 8-8v-48a8 8 0 0 0-8-8h-976zM136 1016A8 8 0 0 1 128 1008V816a8 8 0 0 1 16 0v192a8 8 0 0 1-8 8zM72 1016A8 8 0 0 1 64 1008V816a8 8 0 0 1 16 0v192a8 8 0 0 1-8 8zM952 1016a8 8 0 0 1-8-8V816a8 8 0 0 1 16 0v192a8 8 0 0 1-8 8zM888 1016a8 8 0 0 1-8-8V816a8 8 0 0 1 16 0v192a8 8 0 0 1-8 8zM488 608h-416c-26.464 0-48-21.536-48-48V288c0-26.464 21.536-48 48-48h416c26.464 0 48 21.536 48 48v272c0 26.464-21.536 48-48 48z m-416-352c-17.648 0-32 14.352-32 32v272c0 17.648 14.352 32 32 32h416c17.648 0 32-14.352 32-32V288c0-17.648-14.352-32-32-32h-416z" p-id="3161"></path><path d="M584 672V480h64v192"  p-id="3162"></path><path d="M648 680a8 8 0 0 1-8-8V488h-48V672a8 8 0 0 1-16 0V480a8 8 0 0 1 8-8h64a8 8 0 0 1 8 8v192a8 8 0 0 1-8 8z" p-id="3163"></path><path d="M648 672V480h64v192" p-id="3164"></path><path d="M712 680a8 8 0 0 1-8-8V488h-48V672a8 8 0 0 1-16 0V480a8 8 0 0 1 8-8h64a8 8 0 0 1 8 8v192a8 8 0 0 1-8 8z"  p-id="3165"></path><path d="M712 672V480h64v192" p-id="3166"></path><path d="M776 680a8 8 0 0 1-8-8V488h-48V672a8 8 0 0 1-16 0V480a8 8 0 0 1 8-8h64a8 8 0 0 1 8 8v192a8 8 0 0 1-8 8zM224 56h-64a8 8 0 0 1 0-16h64a8 8 0 0 1 0 16z"p-id="3167"></path><path d="M192 88a8 8 0 0 1-8-8V16a8 8 0 0 1 16 0v64a8 8 0 0 1-8 8zM112 160H48a8 8 0 0 1 0-16h64a8 8 0 0 1 0 16z" p-id="3168"></path><path d="M80 192a8 8 0 0 1-8-8v-64a8 8 0 0 1 16 0v64a8 8 0 0 1-8 8zM480 184H320a8 8 0 0 1 0-16h160a8 8 0 0 1 0 16zM528 184h-16a8 8 0 0 1 0-16h16a8 8 0 0 1 0 16z" p-id="3169"></path><path d="M836 672v-96a16 16 0 0 1 16-16h128a16 16 0 0 1 16 16v96" p-id="3170"></path><path d="M996 680a8 8 0 0 1-8-8v-96a8 8 0 0 0-8-8h-128a8 8 0 0 0-8 8v96a8 8 0 0 1-16 0v-96c0-13.232 10.768-24 24-24h128c13.232 0 24 10.768 24 24v96a8 8 0 0 1-8 8z"  p-id="3171"></path><path d="M940 528v-52h8c30.88 0 56-25.12 56-56v-8a24 24 0 1 0-48 0v8a8 8 0 0 1-8 8h-8V376a24 24 0 1 0-48 0v84h-8a8 8 0 0 1-8-8v-8a24 24 0 1 0-48 0v8c0 30.88 25.12 56 56 56h8V528" p-id="3172"></path><path d="M940 536a8 8 0 0 1-8-8v-52a8 8 0 0 1 8-8h8c26.464 0 48-21.536 48-48v-8c0-8.816-7.184-16-16-16s-16 7.184-16 16v8c0 8.816-7.184 16-16 16h-8a8 8 0 0 1-8-8V376c0-8.816-7.184-16-16-16s-16 7.184-16 16v84a8 8 0 0 1-8 8h-8c-8.816 0-16-7.184-16-16v-8c0-8.816-7.184-16-16-16s-16 7.184-16 16v8c0 26.464 21.536 48 48 48h8a8 8 0 0 1 8 8V528a8 8 0 0 1-16 0v-12c-35.296 0-64-28.704-64-64v-8c0-17.648 14.352-32 32-32s32 14.352 32 32v8-76c0-17.648 14.352-32 32-32s32 14.352 32 32v44-8c0-17.648 14.352-32 32-32s32 14.352 32 32v8c0 35.296-28.704 64-64 64V528a8 8 0 0 1-8 8z"  p-id="3173"></path><path d="M920 216c-57.344 0-104-46.656-104-104S862.656 8 920 8 1024 54.656 1024 112s-46.656 104-104 104z m0-192C871.472 24 832 63.472 832 112s39.472 88 88 88S1008 160.528 1008 112s-39.472-88-88-88z" p-id="3174"></path><path d="M928 128h-48a8 8 0 0 1 0-16h40V56a8 8 0 0 1 16 0v64a8 8 0 0 1-8 8z" p-id="3175"></path><path d="M856 952H528c-13.232 0-24-10.768-24-24v-112a8 8 0 0 1 16 0v112a8 8 0 0 0 8 8h328a8 8 0 0 1 0 16z" p-id="3176"></path><path d="M528 544H32a8 8 0 0 1 0-16h496a8 8 0 0 1 0 16z" p-id="3177"></path><path d="M480 384a8 8 0 0 1-8-8v-64a8 8 0 0 0-8-8h-64a8 8 0 0 1 0-16h64c13.232 0 24 10.768 24 24v64a8 8 0 0 1-8 8z" p-id="3178"></path><path d="M724 888h-80a8 8 0 0 1 0-16h80a8 8 0 0 1 0 16z" p-id="3179"></path></svg>