<svg t="1596683217841" viewBox="0 0 1024 1024" version="1.1" xmlns="http://www.w3.org/2000/svg" p-id="4831" width="200" height="200"><path d="M641.536 189.781333V64c0-35.157333-23.893333-64-56.490667-64H448.597333c-32.426667 0-66.048 28.842667-66.048 64v125.781333H179.2c7.850667 0-51.2 12.885333-51.2 66.218667 0 35.157333 26.624 64 59.050667 64h649.898666C869.376 320 896 291.157333 896 256c0-53.333333-59.050667-66.218667-59.050667-66.218667h-195.413333zM448 192V128c0-44.544 28.416-64 64-64 36.437333 0 64 19.626667 64 64v64h-128zM320 1024h384c70.4 0 128-57.6 128-128v-512H192v512c0 70.4 57.6 128 128 128z m323.754667-483.584c0-15.616 11.946667-28.416 26.368-28.416 14.506667 0 26.368 12.8 26.368 28.416v341.333333c0 15.701333-11.946667 28.501333-26.453334 28.501334-14.421333 0-26.282667-12.8-26.282666-28.501334v-341.333333z m-158.122667 0c0-15.616 11.946667-28.416 26.368-28.416 14.506667 0 26.368 12.8 26.368 28.416v341.333333c0 15.701333-11.946667 28.501333-26.368 28.501334-14.506667 0-26.368-12.8-26.368-28.501334v-341.333333z m-158.122667 0c0-15.616 11.946667-28.416 26.453334-28.416 14.421333 0 26.282667 12.8 26.282666 28.416v341.333333c0 15.701333-11.946667 28.501333-26.368 28.501334-14.506667 0-26.368-12.8-26.368-28.501334v-341.333333z" p-id="4832"></path></svg>