<svg t="1596683623659" viewBox="0 0 1024 1024" version="1.1" xmlns="http://www.w3.org/2000/svg" p-id="5836" width="200" height="200"><path d="M507.970065 333.543226l-18.068646 8.175484c-99.922581-87.073032-200.951742-125.819871-242.225548-87.320775-49.102452 45.78271 4.954839 183.560258 120.732903 307.712 115.778065 124.168258 249.426581 187.68929 298.545549 141.890065 37.921032-35.344516 14.319484-125.572129-51.695484-221.99329l7.927742-14.732387 74.652903-23.997936c77.741419 121.608258 105.637161 255.339355 36.071226 324.921807-92.45729 92.45729-341.454452 157.662968-519.068904-19.951484-177.614452-177.614452-122.021161-462.897548-29.563871-555.354839 74.438194-74.438194 211.356903-31.000774 334.98013 61.852903l-12.288 78.781936z" p-id="5837"></path><path d="M519.97729 508.663742c-17.292387 21.140645-46.955355 22.594065-66.295742 3.253677l-9.282064-9.282064c-19.323871-19.323871-17.804387-49.052903 3.253677-66.295742l97.792-80.004129c21.124129-17.275871 53.826065-15.706839 73.331613 3.79871l-22.577548-22.577549c19.356903 19.356903 21.008516 52.257032 3.765677 73.315097l-79.987613 97.792z" p-id="5838"></path><path d="M590.220387 318.216258c0 26.706581 20.711226 48.276645 46.228645 48.276645 25.6 0 46.278194-21.570065 46.278194-48.276645 0-26.590968-20.678194-48.392258-46.278194-48.392258-25.517419 0-46.228645 21.80129-46.228645 48.392258" p-id="5839"></path><path d="M590.220387 195.79871c43.338323 0 84.100129 17.771355 114.787097 49.96129 30.637419 32.107355 47.566452 75.032774 47.566451 120.633806h66.840775c0-132.541935-102.845935-240.359226-229.194323-240.359225v69.764129" p-id="5840"></path><path d="M590.220387 72.109419c154.557935 0 280.36129 132.013419 280.36129 294.234839h66.758194c0-200.670968-155.747097-364.048516-347.119484-364.048516v69.813677" p-id="5841"></path><path d="M198.193548 941.419355l412.903226 0 0 82.580645-412.903226 0 0-82.580645Z" p-id="5842"></path><path d="M330.322581 726.709677l82.580645 0 0 280.774194-82.580645 0 0-280.774194Z" p-id="5843"></path></svg>