<svg t="1596683444059" viewBox="0 0 1024 1024" version="1.1" xmlns="http://www.w3.org/2000/svg" p-id="5331" width="200" height="200"><path d="M890.59212876 847.83016396c12.82619477 12.83005715 12.82619477 33.62820625 0 46.45440101-12.84473419 12.83082962-33.64211082 12.83082962-46.46830559 0L774.42561341 824.60566711c-0.03167152-0.05021095-0.04943848-0.113554-0.10042191-0.16453743-25.56123733 21.10791206-58.32658767 33.78656387-94.07215118 33.78656387-81.65691375 0-147.83649445-66.19657517-147.83649445-147.83572196 0-81.65691375 66.17958068-147.83649445 147.83649445-147.83649444s147.83649445 66.17958068 147.83649444 147.83649443c0 22.5864315-5.20571708 43.90909194-14.27227021 63.0448723 2.44565964 1.40976907 4.99174118 2.61019707 7.07665444 4.69511031l69.69820977 69.69820977zM680.49946022 628.24221802c-45.35516738 0-82.13121414 36.79535866-82.13121414 82.168293 0 45.36675454 36.77604675 82.14511872 82.13121414 82.14511871 45.35439491 0 82.13121414-36.7775917 82.13121415-82.14511871 0-45.37293434-36.77681923-82.168293-82.13121415-82.168293z m98.31072807-98.53860855v16.42593383h-4.54911231c-5.69932938 9.77336883-16.18028641 16.42670632-28.30430032 16.42670632s-22.60419846-6.65256501-28.30352783-16.42670632h-4.54911232v-59.2666912c-59.82364655 26.00386619-155.19664764 42.84075737-262.82034874 42.84075737-107.62447358 0-202.9967022-16.83766365-262.82034873-42.84075737V611.83482361h-1.63687707c23.60378265 18.74413491 149.48727608 32.85186768 272.6709652 32.85186767 13.99417878 0 27.67859458-0.19620895 41.06637954-0.55695533v0.55695533c18.15087319 0 32.85186768 14.70176697 32.85186768 32.85264016s-14.70099449 32.85186768-32.85186768 32.85186768c-2.81104087 0-5.4714489-0.46116829-8.08087349-1.11777307-13.53764534 0.5940342-27.15485573 1.11777306-41.19847297 1.11777307-107.62447358 0-202.9967022-16.83689118-262.82034874-42.84075738v141.39867782H121.7589302v-591.34597778h1.28308297C135.98176194 162.49314499 277.38043977 119.04599381 450.28455925 119.04599381c172.90025711 0 314.29893494 43.44715118 327.24331856 98.55792045h1.28231048v312.09969521z m-65.70450782-303.88672829c-0.01776695-22.68762588-113.99817467-41.06560707-254.60738182-41.06560707s-254.6081543 18.37875367-254.6081543 41.06560707c0 22.68608093 113.99894714 41.06483459 254.6081543 41.0648346s254.58884239-18.37798118 254.60738182-41.0648346z m0 63.86678696c-59.92406845 26.00386619-155.17810822 42.9048729-262.82034875 42.90487289-107.64146805 0-202.89628029-16.90100669-262.82034874-42.90487289v141.46202087h-1.63687705c23.60378265 18.74413491 149.48727608 32.85264016 272.67096519 32.85264015 123.17828179 0 225.89289666-14.10850525 249.4966793-32.85264015h5.11070253V289.68366814zM458.49829864 841.8025322c13.99417878 0 27.67859458-0.19620895 41.06637955-0.5615902v0.5615902c18.15087319 0 32.85186768 14.70099449 32.85186768 32.85186768 0 18.15628052-14.70099449 32.85264016-32.85186768 32.85264014-2.77550698 0-5.43977737-0.44726372-8.01753044-1.1000061-13.56545449 0.57472229-27.19888687 1.1000061-41.26181603 1.1000061C277.38043977 907.5078125 135.98176194 864.06066132 123.04201317 808.94989204h62.78532028c23.60378265 18.74490738 149.48727608 32.85264016 272.6709652 32.85264016z m0 0" p-id="5332"></path></svg>