<svg t="1596681295605" viewBox="0 0 1092 1024" version="1.1" xmlns="http://www.w3.org/2000/svg" p-id="2906" width="200" height="200"><path d="M218.446928 479.657567a30.787364 30.787364 0 0 1 31.196951 0l202.746053 118.917045a31.811334 31.811334 0 0 1 15.632608 27.442396v237.69756c0 11.331934-6.00729 21.776428-15.632608 27.442395l-202.746053 118.780516a30.787364 30.787364 0 0 1-31.196951 0l-202.746053-118.780516A31.811334 31.811334 0 0 1 0.068267 863.714568V626.017008c0-11.331934 5.939026-21.844693 15.632608-27.442396l202.746053-118.917045z m624.280354 0a30.787364 30.787364 0 0 1 31.196952 0l202.746052 118.917045A31.811334 31.811334 0 0 1 1092.302894 626.017008v237.69756c0 11.331934-5.939026 21.776428-15.632608 27.442395l-202.746052 118.780516a30.787364 30.787364 0 0 1-31.196952 0l-202.746053-118.780516a31.811334 31.811334 0 0 1-15.632608-27.442395V626.017008c0-11.331934 6.00729-21.844693 15.632608-27.442396l202.746053-118.917045zM530.552972 4.262446a30.787364 30.787364 0 0 1 31.265217 0l202.746052 118.84878a31.811334 31.811334 0 0 1 15.564344 27.442395v237.697561c0 11.331934-5.939026 21.844693-15.564344 27.51066l-202.746052 118.780515a30.787364 30.787364 0 0 1-31.265217 0l-202.746052-118.780515a31.811334 31.811334 0 0 1-15.564344-27.51066V150.553621c0-11.331934 5.939026-21.776428 15.564344-27.442395l202.746052-118.780516z" p-id="2907"></path></svg>