<svg t="1596680687585" viewBox="0 0 1024 1024" version="1.1" xmlns="http://www.w3.org/2000/svg" p-id="1897" width="200" height="200"><path d="M169.658182 1024C114.222545 1024 69.818182 978.385455 69.818182 922.717091V101.282909C69.818182 45.614545 114.222545 0 169.658182 0h523.170909l240.034909 246.690909V930.909091a93.090909 93.090909 0 0 1-93.090909 93.090909H169.658182zM653.498182 93.090909H169.658182C166.167273 93.090909 162.909091 96.488727 162.909091 101.282909v821.434182c0 4.794182 3.304727 8.192 6.749091 8.192h670.114909V284.485818L653.544727 93.090909z" p-id="1898"></path><path d="M315.019636 439.016727h79.872L488.727273 579.770182l93.835636-140.753455h79.872l-134.609454 192.698182L671.371636 837.818182h-79.872L488.727273 683.659636 385.954909 837.818182H306.082909l142.429091-206.103273z" p-id="1899"></path><path d="M256 139.636364h372.363636a46.545455 46.545455 0 0 1 46.545455 46.545454v46.545455a46.545455 46.545455 0 0 1-46.545455 46.545454H256a46.545455 46.545455 0 0 1-46.545455-46.545454V186.181818a46.545455 46.545455 0 0 1 46.545455-46.545454z m0 93.090909h372.363636V186.181818H256v46.545455z"  p-id="1900"></path><path d="M395.636364 139.636364H349.090909v139.636363h46.545455zM535.272727 139.636364H488.727273v139.636363h46.545454zM233.332364 349.090909h418.909091a23.272727 23.272727 0 1 0 0-46.545454h-418.909091a23.272727 23.272727 0 0 0 0 46.545454z"  p-id="1901"></path></svg>