<svg t="1596683586194" viewBox="0 0 1275 1024" version="1.1" xmlns="http://www.w3.org/2000/svg" p-id="5711" width="200" height="200"><path d="M732.959853 757.392911l198.749851 58.180024-118.624731-244.330583 179.994449-230.80628-269.497271 67.493932-132.149034-228.605391-53.076514 285.222464-268.444672 95.78652 197.697253 89.279544-134.222336 94.702023-159.197642-70.747419s-87.397624-41.370335-87.397624-113.202251 89.470925-96.871016 89.470925-96.871016l265.318771-86.376921 44.400545-269.975726S506.77863-0.287072 577.557946-0.287072s99.901225 85.643292 135.976668 142.260365l73.522454 129.182619 263.596337-72.565545s216.420758-47.909208 87.397623 145.13109l-187.298849 229.33902 111.001362 226.436399s86.026055 184.332433-116.55143 159.676096l-191.445452-63.85768-20.796806-137.890484z m-213.581931-235.622718c-48.706632 9.058732-57.573982 27.941722-57.573982 62.900772v46.059185h115.211758v15.406224h-158.432115c-33.523687 0-62.836978 21.147673-71.991401 61.305924-10.557888 46.059186-11.004445 74.766434 0 122.867024 8.197514 35.756473 27.686546 61.305924 61.210234 61.305925h39.552209v-55.213608c0-39.934973 32.853851-75.117301 71.9914-75.117301h115.116068c32.024531 0 57.573982-27.718443 57.573982-61.433512v-115.307449c0-32.821954-26.314978-57.350703-57.573982-62.900772-38.595301-6.666461-80.507884-6.347492-115.116068 0.095691z m-7.208709 32.120222c11.865663 0 21.658024 10.398403 21.658025 23.061489s-9.696671 22.965799-21.658025 22.965799c-11.961354 0-21.658024-10.302713-21.658024-22.965799 0.095691-12.790674 9.696671-23.06149 21.658024-23.061489z m199.611069 92.086474v53.746349c0 41.625511-33.619378 76.712148-71.9914 76.712148h-115.116067c-31.482283 0-57.573982 28.292588-57.573982 61.433512v115.179861c0 32.821954 27.176195 52.055811 57.573982 61.433512 36.426309 11.195827 71.449152 13.237231 115.116067 0 28.994321-8.835453 57.542085-26.60205 57.542085-61.433512v-46.059186h-114.988479v-15.406223h172.658152c33.523687 0 45.931598-24.560646 57.573982-61.305924 12.057044-37.893568 11.546693-74.319877 0-122.867025-8.293205-34.959049-24.018398-61.305924-57.573982-61.305924h-43.220358v-0.095691z m-64.782691 291.569956c11.961354 0 21.658024 10.302713 21.658024 22.965799 0 12.790674-9.696671 23.06149-21.658024 23.061489-11.865663 0-21.658024-10.398403-21.658024-23.061489 0.095691-12.790674 9.824258-22.965799 21.658024-22.965799z" p-id="5712"></path></svg>