<svg t="1596681991414" viewBox="0 0 1024 1024" version="1.1" xmlns="http://www.w3.org/2000/svg" p-id="3031" width="200" height="200"><path d="M69.825849 142.258427v280.337079h280.337078V142.258427zM34.938208 72.483146h350.11236a34.88764 34.88764 0 0 1 34.88764 34.887641v350.112359a34.88764 34.88764 0 0 1-34.88764 34.887641H34.938208A34.88764 34.88764 0 0 1 0.050568 457.483146V107.370787a34.88764 34.88764 0 0 1 34.88764-34.887641z" p-id="3032"></path><path d="M69.825849 673.831461v280.337078h280.337078v-280.337078zM34.938208 604.05618h350.11236a34.88764 34.88764 0 0 1 34.88764 34.88764v350.11236a34.88764 34.88764 0 0 1-34.88764 34.88764H34.938208A34.88764 34.88764 0 0 1 0.050568 989.05618v-350.11236a34.88764 34.88764 0 0 1 34.88764-34.88764zM741.623602 84.337079L543.589894 282.370787 741.623602 480.460674l198.033707-198.089887z m24.662921-74.044944l247.191011 247.191011a34.88764 34.88764 0 0 1 0 49.325843l-247.191011 247.191011a34.88764 34.88764 0 0 1-49.325843 0l-247.191011-247.191011a34.88764 34.88764 0 0 1 0-49.325843l247.191011-247.191011a34.88764 34.88764 0 0 1 49.325843 0.05618z" p-id="3033"></path><path d="M602.578658 673.831461v280.337078h277.977528v-280.337078z m-34.887641-69.775281h347.808989a34.88764 34.88764 0 0 1 34.887641 34.88764v350.11236a34.88764 34.88764 0 0 1-34.887641 34.88764h-347.808989a34.88764 34.88764 0 0 1-34.88764-34.88764v-350.11236a34.88764 34.88764 0 0 1 34.88764-34.88764z" p-id="3034"></path></svg>