<svg t="1596682357562" viewBox="0 0 1048 1024" version="1.1" xmlns="http://www.w3.org/2000/svg" p-id="3812" width="200" height="200"><path d="M385.255781 707.991591c0.089699-10.76384-6.099509-20.720392-15.786965-25.474422-10.046251-5.471619-22.24527-5.471619-32.291521 0-9.687456 4.754029-15.786966 14.710582-15.786966 25.474422v65.928521C236.804485 713.46321 186.573231 615.960757 186.304135 512c3.229152-183.702873 154.461107-330.0911 338.074281-327.40014 11.212334 0.358795 21.796776-5.202523 27.716889-14.710582 5.830413-9.328662 5.830413-21.168886 0-30.497547-6.009811-9.41836-16.504555-14.979678-27.716889-14.441486-217.160477-3.139453-395.840224 169.978977-399.607568 387.139454 0.179397 112.930624 50.50035 219.941135 137.328661 292.148563H214.379818c-11.212334-0.269096-21.886475 5.202523-28.165382 14.531184-5.830413 8.880168-5.830413 20.361598 0 29.241766 6.368605 9.149264 16.953048 14.531184 28.165382 14.262089h138.584443c8.252278 0 16.14576-2.960056 22.514365-8.252278 3.767344-3.318851 6.548003-7.534688 8.072881-12.199019 0.717589-1.524877 1.255781-3.139453 1.704274-4.754029 1.255781-5.023125 1.166083-10.315347-0.269096-15.248774V707.991591h0.269096z m415.304836-475.672039h34.713384c16.325158 1.255781 30.676945-10.943238 31.932726-27.268396 1.255781-16.325158-10.943238-30.676945-27.268395-31.932726-1.524877-0.089699-3.049755-0.089699-4.574632 0H713.822004c-3.229152-0.538192-6.637701-0.538192-9.866853 0h-7.175894c-16.86335-0.358795-31.035739 12.647512-32.112123 29.421164v125.578136c0.089699 7.803784 3.408549 15.248774 9.328661 20.451296 12.82691 11.302032 32.112123 11.302032 44.939033 0 5.920112-5.202523 9.328662-12.647512 9.328662-20.451296v-77.320253c83.688858 60.815697 133.471619 157.779958 134.099509 261.202523-3.139453 183.523476-154.28171 329.911703-337.894884 327.40014-16.504555-1.524877-31.035739 10.584443-32.560617 27.088998-1.524877 16.504555 10.584443 31.035739 27.088998 32.560617 1.793973 0.179397 3.677645 0.179397 5.471619 0 217.160477 3.139453 395.840224-169.978977 399.607568-387.049755-0.538192-106.382621-45.297828-207.652418-123.515066-279.680448z" p-id="3813"></path></svg>