<svg t="1596681072794" viewBox="0 0 1365 1024" version="1.1" xmlns="http://www.w3.org/2000/svg" p-id="2280" width="200" height="200"><path d="M924.194133 539.562667v391.4752h158.446934V427.707733l-18.653867-18.6368-139.793067 130.491734z m-242.3296 149.128533v242.3296h158.446934V604.808533l-130.491734 111.854934-27.9552-27.972267z m-242.346666-83.882667v326.229334h158.446933V623.445333l-83.882667-74.564266-74.564266 55.927466zM206.506667 931.0208h158.446933V679.355733L206.506667 819.165867v111.854933z m0 0" p-id="2281"></path><path d="M886.920533 92.16l111.854934 121.173333-288.938667 251.665067-195.7376-167.765333L206.506667 558.199467v111.854933L514.082133 409.088 709.819733 576.853333l354.184534-307.575466 93.201066 102.519466V92.16H886.920533z m0 0" p-id="2282"></path></svg>