<svg t="1596682419643" viewBox="0 0 1024 1024" version="1.1" xmlns="http://www.w3.org/2000/svg" p-id="3941" width="200" height="200"><path d="M413.417097 116.730218c28.787999 0 46.060798 17.464719 51.818398 46.540598 0 23.254306-23.030399 46.508612-46.060798 46.508612s-46.060798-23.254306-46.060799-46.508612c-5.789586-23.254306 17.272799-46.540598 40.303199-46.540598z m570.834033 274.861417c22.230733 95.128343 22.230733 173.495674-5.533693 246.233352-22.230733 67.171998-49.995158 134.343995-138.886102 134.343995H750.940392v89.530677c0 50.378998-22.198746 111.953329-133.320422 145.539328-44.429478 11.163346-83.325264 16.761013-122.189063 16.761013-38.895785 0-77.791571-5.597666-122.221049-16.792999-83.325264-27.988332-133.320422-78.367331-133.320422-145.507342v-89.562664H189.894278c-77.759584 0-127.754742-50.347012-149.985475-139.909675-22.230733-89.530677-22.230733-151.105008 0-246.233351 16.665053-83.964997 77.759584-134.343995 166.650528-139.909675h61.094531v-89.562664c0-72.737677 22.230733-123.116676 138.886102-145.507342 88.890944-16.792999 161.084848-11.195333 238.876418 0 83.325264 11.195333 138.854115 72.769664 138.854115 145.539329v95.128343h61.094531c66.692198 0 116.687356 50.347012 138.886102 139.909675zM239.889436 637.824987c0-89.562664 77.759584-167.898008 172.216207-173.495674h222.179379c49.995158 0 88.890944-39.151679 88.890944-89.530677V156.52163c0-50.347012-44.461465-83.93301-88.890944-89.562664-72.193904-11.163346-144.419795-11.163346-222.179379 0-83.325264 11.195333-88.890944 39.215652-88.890943 89.562664v89.562664h205.546313c16.633066 0 27.764426 11.195333 27.764425 27.988332s-11.099373 27.956346-27.764425 27.956346h-316.667989c-33.298119 0-99.95833 16.792999-116.623383 95.16033-22.230733 89.562664-22.230733 139.909675 0 223.842685 16.633066 61.574331 44.429478 95.16033 94.424637 95.16033h49.995158v-78.36733z m688.832843-16.793c22.198746-61.542345 22.198746-128.714342 5.533693-218.245019-22.198746-83.964997-61.094531-95.16033-88.858957-95.16033h-61.094531v72.769664c0 78.367331-66.692198 145.539328-144.451782 145.539329h-227.745059c-61.094531 0-116.655369 55.944678-116.655369 117.487022v223.874672c0 50.378998 49.995158 78.367331 94.424637 89.562664 72.225891 22.390666 138.886102 22.390666 211.111993 0 61.094531-16.792999 94.424637-50.378998 94.424636-89.562664v-89.562663h-199.980633c-16.665053 0-27.796412-11.195333-27.796412-27.956346 0-16.792999 11.13136-27.988332 27.796412-27.988332h344.400428c44.461465 0 61.094531-22.390666 88.890944-100.757997z m-300.64267 286.664497c-23.254306 0-46.508612-23.286293-46.508611-46.540598 0-23.254306 23.254306-46.508612 46.508611-46.508612s46.540598 23.254306 46.540599 46.508612-23.286293 46.540598-46.540599 46.540598z" p-id="3942"></path></svg>