<svg t="1596683315595" viewBox="0 0 1024 1024" version="1.1" xmlns="http://www.w3.org/2000/svg" p-id="5081" width="200" height="200"><path d="M512.002 917.903c-223.891 0-405.98-182.116-405.98-405.929 0-223.89 182.113-406.004 405.98-406.004 223.867 0 405.98 182.164 405.98 406.004 0 223.816-182.116 405.93-405.98 405.93z m0-854.6c-247.39 0-448.698 201.255-448.698 448.722 0 247.416 201.255 448.671 448.698 448.671 247.443 0 448.698-201.255 448.698-448.67 0-247.417-201.31-448.723-448.698-448.723z m-86.476 569.823l207.67-207.695c10.079-10.079 10.079-26.551 0-36.631-10.078-10.08-26.548-10.08-36.627 0L388.9 596.495c-10.078 10.08-10.078 26.551 0 36.631 10.02 10.08 26.549 10.08 36.627 0z m68.532-35.94c3.629 5.068 4.262 10.425 4.262 13.42 0 3.57-0.864 10.482-6.68 16.3L382.794 735.764c-5.817 5.817-12.67 6.681-16.298 6.681-3.57 0-10.481-0.864-16.298-6.681l-61.91-61.917c-5.816-5.817-6.68-12.671-6.68-16.3 0-3.628 0.864-10.482 6.68-16.3L397.134 532.39c5.817-5.817 12.67-6.681 16.298-6.681 2.534 0 6.68 0.46 10.885 2.707l33.056-33.06c-27.067-22.349-67.495-20.85-92.835 4.434L255.692 608.648c-26.894 26.897-26.894 70.844 0 97.741l61.91 61.917c26.895 26.898 70.836 26.898 97.73 0L524.18 659.448c25.972-25.976 26.836-67.965 2.59-95.035l-32.71 32.773zM768.303 317.61l-61.909-61.916c-26.894-26.899-70.836-26.899-97.73 0L499.816 364.552c-25.282 25.285-26.779 65.718-4.434 92.846l33.057-33.06c-2.246-4.263-2.707-8.41-2.707-10.887 0-3.57 0.864-10.482 6.68-16.3L641.26 288.294c5.816-5.817 12.67-6.68 16.297-6.68 3.57 0 10.482 0.863 16.298 6.68l61.91 61.916c5.817 5.818 6.68 12.672 6.68 16.3 0 3.572-0.863 10.483-6.68 16.3L626.919 491.67c-5.816 5.816-12.67 6.68-16.298 6.68-2.994 0-8.35-0.633-13.418-4.262l-32.711 32.715c27.067 24.248 68.993 23.442 95.023-2.592l108.846-108.858c26.837-26.898 26.837-70.902-0.057-97.742z"  p-id="5082"></path></svg>