<svg t="1596683483588" viewBox="0 0 1993 1024" version="1.1" xmlns="http://www.w3.org/2000/svg" p-id="5456" width="200" height="200"><path d="M1722.30862 492.771356l119.556334 26.601285c-20.922358-47.623273-32.18058-85.78167-53.202568-117.464098s-17.335668-55.792956 7.27301-82.992022c29.889083-32.778362 56.589998-68.346371 84.586106-102.718817l-11.656742-16.239736c-36.464682 9.963028-73.726406 17.634559-109.593306 29.889084-41.246935 14.645651-68.944153 10.76007-87.475385-35.069858-11.856003-29.291302-35.069858-53.999611-68.744892-80.401635-7.372641 26.900175-21.121619 53.899981-20.922358 80.700526 0.597782 67.648959-34.272816 99.630278-95.246546 114.973341-29.889083 7.472271-57.984822 20.523837-103.416229 37.062463l119.556334 59.778167c-65.158202 53.70072-167.677758 39.852111-211.31582-23.413115-23.512746-34.272816-9.265616-70.637867 35.169488-86.578712 41.745087-14.844911 83.191282-34.073555 126.430823-39.852111 52.007005-7.372641 65.257832-37.959136 72.032691-81.696828s12.752676-88.471687 27.398327-129.519362c19.926056-55.294804 65.058572-59.778167 99.630278-12.354155a639.925277 639.925277 0 0 1 53.70072 90.464293c20.424207 40.649154 49.815139 48.918467 91.360965 35.468379a1084.276318 1084.276318 0 0 1 139.48239-36.464682 66.951547 66.951547 0 0 1 52.903677 15.442694c6.874489 7.07375 0 35.468379-9.165985 48.221054a1038.047869 1038.047869 0 0 1-87.674645 106.903289c-37.261724 39.25433-53.302199 77.412726-18.929753 127.726017a378.595057 378.595057 0 0 1 46.52734 93.851722c6.575598 19.926056 8.269313 51.708114-3.188169 65.556723s-42.442499 18.431601-63.863008 16.140105c-30.686126-3.188169-59.778167-16.937147-90.663553-24.90757-39.25433-10.162288-47.224752-36.165791-40.549524-79.106441zM427.115003 895.576571c-6.874489 45.232146-12.852306 84.685737-19.926056 128.423429h-83.789064c19.129013-118.360771 29.889083-234.430045 58.283713-346.115587 25.804242-101.722514 153.82915-164.091068 253.857949-136.09496 62.468184 17.534929 101.025102 61.970033 114.873711 123.840436 16.837517 75.12123-11.656743 138.685347-64.36116 190.891613-74.224557 72.929364-161.10216 83.490173-258.939093 39.055069z m242.300837-181.725627c-0.697412-54.896283-39.154699-92.656159-95.346177-93.253941-66.453396-0.797042-126.331193 55.992216-127.526756 120.851528-0.996303 52.007005 45.630667 97.737303 99.630278 97.737303 62.866706-0.498151 124.039696-63.165596 123.242655-125.833042zM0 825.835377l92.357268-51.608485c11.457482 14.44639 20.922358 28.095738 32.18058 39.852112 28.195369 29.889083 59.080755 26.202763 89.66725 3.487059s27.597587-49.815139 4.881884-76.516053c-25.0072-29.889083-50.412921-58.781864-75.818642-88.073166-71.136019-81.995719-66.353765-157.017319 14.1475-219.186612 70.737498-54.597392 166.581825-36.165791 224.068495 48.320685l-73.427515 54.796653c-35.069858-25.804242-69.741195-75.519751-108.995524-25.206461-32.678731 41.844717 19.926056 65.855614 42.741389 93.652462 11.756373 14.24713 23.612376 28.49426 36.464682 41.745086 60.97373 62.767075 69.143413 133.504573 22.715704 199.957969C253.359798 915.502627 145.759097 949.277291 79.704223 910.122592c-29.889083-17.335668-49.018097-51.110333-79.704223-84.287215zM1049.306091 813.680483c7.771162 85.98093-9.963028 106.305507-89.667251 108.397742-118.26114 2.988908-201.053902-108.696634-166.282934-224.367386a230.046313 230.046313 0 0 1 226.260362-161.500681c88.073166 3.48706 155.722125 67.748589 154.626192 155.821755a1106.792761 1106.792761 0 0 1-19.926056 192.485697c-9.963028 51.209963-51.010702 20.822728-84.984627 24.90757 7.970422-57.586301 22.516443-110.589609 19.926055-162.795875-1.793345-38.556918-15.641954-91.859117-42.94065-109.593306s-80.800156-7.372641-117.464098 5.878187c-46.128819 16.638256-59.778167 63.065966-56.291107 110.290718 4.981514 59.778167 61.671142 96.84063 120.154116 81.099046 19.029383-5.180774 37.261724-13.549718 56.589998-20.623467z" p-id="5457"></path><path d="M1591.195174 673.00253l160.703639 229.14964c-72.929364 25.10683-94.947655 17.93345-133.803464-39.852112-30.586495-45.730298-61.571512-91.161705-101.822144-150.64098-6.874489 52.704417-12.653045 89.66725-16.538626 127.028604-8.169683 79.704223-10.76007 81.796458-99.630279 66.453396 9.963028-81.497568 19.427904-163.592917 29.889084-245.588636 3.785951-29.889083 15.143802-58.781864 13.649348-87.575014-4.184472-75.719011 31.582798-120.751897 108.995524-148.150224-8.667834 65.855614-17.036778 129.519362-25.40572 192.386067l9.963027 5.280405 135.297918-142.969449c55.593695 102.718817-50.0144 130.814555-81.298307 194.478303zM1398.609846 549.959136c1.594084 39.852111 11.058961 81.796458-54.896283 81.298307-12.653045 0-33.675034 27.298696-37.062464 44.634365a1155.711228 1155.711228 0 0 0-20.723097 170.467406c-2.391127 59.778167-27.796848 78.90718-90.763184 60.575209 1.594084-18.730492 2.690018-39.852111 5.380035-60.375949 7.870792-60.475579 21.819031-120.751897 23.213855-181.227476 1.693715-81.796458 92.257638-148.349484 174.851138-115.371862z" p-id="5458"></path></svg>