<svg t="1596682905877" viewBox="0 0 1170 1024" version="1.1" xmlns="http://www.w3.org/2000/svg" p-id="4192" width="200" height="200"><path d="M953.927099 0.002194H216.356108A217.087535 217.087535 0 0 0 0 217.309157v566.6365a217.087535 217.087535 0 0 0 216.356108 217.23382h737.570991A217.087535 217.087535 0 0 0 1170.283207 783.872515V217.309157a217.014392 217.014392 0 0 0-63.122151-153.965384A214.820111 214.820111 0 0 0 953.927099 0.002194zM216.356108 85.432868h737.570991c45.49476 0 87.624955 23.990806 110.957476 63.195294l-425.471088 347.427826a86.015816 86.015816 0 0 1-109.128909 0l-425.471088-347.427826c23.990806-38.765631 66.047858-62.610152 111.542618-63.195294z m737.570991 830.535363H216.356108a130.120864 130.120864 0 0 1-129.46258-130.047721V249.272517L476.963549 566.858122c30.939362 25.087946 69.412423 38.765631 109.128909 38.98506a170.861348 170.861348 0 0 0 108.982624-38.98506l390.143164-317.658747v536.867421a132.973429 132.973429 0 0 1-131.291147 129.828293z" p-id="4193"></path></svg>