<svg t="1596680865578" viewBox="0 0 1024 1024" version="1.1" xmlns="http://www.w3.org/2000/svg" p-id="2029" width="200" height="200"><path d="M528.01173333 481.504l70.0512 70.34666667a138.95893333 138.95893333 0 0 1 33.86666667-31.04426667l-76.88213333-77.2064a138.70933333 138.70933333 0 0 1-27.03573334 37.90506667z m278.64746667-150.10666667l-75.36213333 169.39093334a137.03466667 137.03466667 0 0 1 43.4368 15.6512l72.6336-163.25546667a137.67573333 137.67573333 0 0 1-40.70826667-21.78666667z m-99.7248 397.86346667c50.85866667 0 92.08533333-41.30133333 92.08533333-92.24853333 0-50.9472-41.22666667-92.24746667-92.08533333-92.24746667s-92.08533333 41.30133333-92.08533333 92.24746667c-0.00213333 50.94613333 41.22666667 92.24853333 92.08533333 92.24853333z m0-138.37226667c25.42933333 0 46.04373333 20.65066667 46.04373333 46.1248 0 25.47413333-20.6144 46.12373333-46.04373333 46.12373334s-46.0416-20.6496-46.0416-46.12266667c0-25.47626667 20.61226667-46.12586667 46.0416-46.12586667z m184.17173333-276.74133333c50.85866667 0 92.0864-41.30133333 92.0864-92.24746667 0-50.94826667-41.2288-92.25066667-92.08533333-92.25066666s-92.0864 41.30133333-92.0864 92.25066666c0 50.9472 41.22773333 92.24746667 92.08533333 92.24746667z m0-138.37333333c25.42933333 0 46.04373333 20.65066667 46.04373334 46.12586666 0 25.472-20.6144 46.1216-46.04373334 46.1216-25.42826667 0-46.04373333-20.65066667-46.04373333-46.12266666 0.00106667-25.47306667 20.61546667-46.1248 46.04373333-46.1248zM314.208 457.75253333l-97.57653333 116.49173334a139.01866667 139.01866667 0 0 1 31.232 34.47146666L345.44 492.224a139.01866667 139.01866667 0 0 1-31.232-34.47146667zM223.48266667 683.136c0-50.94826667-41.22773333-92.24853333-92.0864-92.24853333-50.8576 0-92.08533333 41.30133333-92.08533334 92.24853333 0 50.9472 41.22773333 92.24853333 92.08533334 92.24853333 50.85866667 0 92.0864-41.30133333 92.0864-92.24853333z m-138.12906667 0c0-25.47413333 20.61333333-46.12266667 46.04266667-46.12266667s46.04266667 20.64853333 46.04266666 46.12266667c0 25.47306667-20.6144 46.1248-46.04266666 46.1248s-46.04266667-20.65173333-46.04266667-46.1248z m828.7744 115.30986667c0 25.47306667-20.61333333 46.1248-46.04373333 46.1248H223.48266667c-20.42666667 0-37.73546667-13.33013333-43.75893334-31.776-15.04213333 5.62986667-31.3248 8.71466667-48.3264 8.71466666 0 38.21013333 30.92266667 69.18293333 69.06453334 69.18293334h690.64533333c38.144 0 69.06346667-30.97386667 69.06346667-69.18506667V341.75573333a137.06453333 137.06453333 0 0 1-46.04266667 16.59093334v440.0992zM177.43893333 244.96c0-25.47413333 20.61333333-46.12266667 46.04373334-46.12266667h531.41546666a137.61493333 137.61493333 0 0 1 16.56213334-46.12266666H200.4608c-38.144 0-69.06453333 30.97386667-69.06453333 69.18613333v322.86506667c16.14613333 0 31.63946667 2.784 46.04266666 7.8848V244.96z m253.23733334 230.61866667c50.8576 0 92.08533333-41.29813333 92.08533333-92.24533334 0-50.94826667-41.22773333-92.25066667-92.08533333-92.25066666-50.85866667 0-92.0864 41.30133333-92.0864 92.25066666 0 50.9472 41.22773333 92.24533333 92.0864 92.24533334z m0-138.3712c25.4272 0 46.04266667 20.65066667 46.04266666 46.12586666 0 25.472-20.61546667 46.12053333-46.04266666 46.12053334-25.42933333 0-46.04373333-20.64853333-46.04373334-46.12053334 0.00106667-25.47413333 20.6144-46.12586667 46.04373334-46.12586666z" p-id="2030"></path></svg>