<svg t="1596680558422" viewBox="0 0 1024 1024" version="1.1" xmlns="http://www.w3.org/2000/svg" p-id="1768" data-spm-anchor-id="a313x.7781069.0.i1" width="200" height="200"><path d="M896 0a128 128 0 0 1 127.786667 120.490667L1024 128v768a128 128 0 0 1-120.490667 127.786667L896 1024H298.666667a128 128 0 0 1-127.786667-120.490667L170.666667 896v-128H85.333333a85.333333 85.333333 0 0 1-85.333333-85.333333V341.333333a85.333333 85.333333 0 0 1 85.333333-85.333333h85.333334V128A128 128 0 0 1 291.157333 0.213333L298.666667 0h597.333333z m0 85.333333H298.666667a42.666667 42.666667 0 0 0-42.368 37.674667L256 128v128h170.666667a85.333333 85.333333 0 0 1 85.333333 85.333333v341.333334a85.333333 85.333333 0 0 1-85.333333 85.333333H256v128a42.666667 42.666667 0 0 0 37.674667 42.368L298.666667 938.666667h597.333333a42.666667 42.666667 0 0 0 42.368-37.674667L938.666667 896V128a42.666667 42.666667 0 0 0-37.674667-42.368L896 85.333333z m-42.666667 554.666667a42.666667 42.666667 0 0 1 0 85.333333h-213.333333a42.666667 42.666667 0 0 1 0-85.333333h213.333333zM181.76 378.026667H125.013333l102.4 147.2L117.76 682.666667h56.746667L256 561.92 337.493333 682.666667h56.746667l-110.506667-157.44 103.253334-147.2H330.24L256 488.106667 181.76 378.026667zM853.333333 469.333333a42.666667 42.666667 0 0 1 0 85.333334h-213.333333a42.666667 42.666667 0 0 1 0-85.333334h213.333333z m0-170.666666a42.666667 42.666667 0 0 1 0 85.333333h-213.333333a42.666667 42.666667 0 0 1 0-85.333333h213.333333z" p-id="1769"></path></svg>