<svg t="1596683256697" viewBox="0 0 1024 1024" version="1.1" xmlns="http://www.w3.org/2000/svg" p-id="4956" width="200" height="200"><path d="M144 112h736c17.673 0 32 14.327 32 32v736c0 17.673-14.327 32-32 32H144c-17.673 0-32-14.327-32-32V144c0-17.673 14.327-32 32-32z m112 211.24v72.43a8.81 8.81 0 0 0 3.35 7L386.09 509 259.35 615.37a9.32 9.32 0 0 0-3.35 7v72.43a9.2 9.2 0 0 0 15.15 7L492.7 516.04a9.29 9.29 0 0 0 0-14.2l-221.55-185.6a9.2 9.2 0 0 0-15.15 7zM521.57 624a9.82 9.82 0 0 0-9.57 10v60a9.82 9.82 0 0 0 9.57 10h236.86a9.82 9.82 0 0 0 9.57-10v-60a9.82 9.82 0 0 0-9.57-10H521.57z" p-id="4957"></path></svg>