<svg t="1596681211467" viewBox="0 0 1024 1024" version="1.1" xmlns="http://www.w3.org/2000/svg" p-id="2656" width="200" height="200"><path d="M962 568.9v184.9c0 10.7-2.6 20.6-7.8 29.8-5.3 9.2-12.4 16.1-21.5 20.8L747.4 904c-6.9 4.2-14.8 6.2-23.6 6.2s-16.7-2-23.6-6.2l-185.3-99.6c-1.1-0.6-2-1.2-2.9-1.8-0.5 0.6-1.5 1.2-2.9 1.8L323.8 904c-6.9 4.2-14.8 6.2-23.6 6.2s-16.7-2-23.6-6.2L91.3 804.4c-9.1-4.7-16.3-11.7-21.5-20.8-5.3-9.2-7.8-19.2-7.8-29.8V568.9c0-11.2 2.9-21.6 8.9-31.1 6-9.4 13.7-16.6 23.3-21.4l179.5-82.7V256c0-11.2 2.9-21.6 8.9-31.1 6-9.4 13.7-16.6 23.3-21.4l185.3-85.3c6.3-2.9 13.3-4.5 20.7-4.5 7.5 0 14.3 1.5 20.7 4.5l185.3 85.3c9.6 4.7 17.5 11.8 23.3 21.4 6 9.4 8.9 19.9 8.9 31.1v177.8l179.6 82.6c9.9 4.7 17.8 11.8 23.6 21.4 5.8 9.4 8.7 19.9 8.7 31.1z m-661.8 68.5l167.1-76.9-167.1-76.9-167.1 76.8 167.1 77z m26.5 201.8l158.8-85.3V614.2l-158.8 72.9v152.1zM512 338.7l182.4-84-182.4-84-182.4 84c-0.1 0 182.4 84 182.4 84z m26.4 168.4l158.8-73.4V315.5l-158.8 72.9v118.7z m185.3 130.3l167.1-76.9-167.1-76.9-167.1 76.9 167.1 76.9z m26.5 201.8L909 753.8V614.2l-158.8 72.9v152.1z" p-id="2657"></path></svg>