<svg t="1596683038829" viewBox="0 0 1024 1024" version="1.1" xmlns="http://www.w3.org/2000/svg" p-id="4446" width="200" height="200"><path d="M512 1024a512 512 0 1 1 512-512 512.576 512.576 0 0 1-512 512z m32-958.368V128a32 32 0 0 1-64 0V65.632a445.536 445.536 0 0 0-260.928 108.192l27.552 27.552a32 32 0 1 1-45.248 45.248l-27.552-27.552A445.536 445.536 0 0 0 65.632 480H128a32 32 0 0 1 0 64H65.632a445.664 445.664 0 0 0 98.752 250.08 31.072 31.072 0 0 1 8.224-16.672l28.8-28.8a32 32 0 1 1 45.248 45.248l-28.8 28.8a31.392 31.392 0 0 1-19.424 8.736 446.688 446.688 0 0 0 627.744-0.544 30.976 30.976 0 0 1-16.736-8.224l-28.8-28.8a32 32 0 1 1 45.248-45.248l28.8 28.8a30.976 30.976 0 0 1 7.52 13.216A445.28 445.28 0 0 0 958.368 544H896a32 32 0 0 1 0-64h62.368A448 448 0 0 0 544 65.632z m56.608 434.88a23.136 23.136 0 0 1-2.464 1.888 96.896 96.896 0 1 1-45.088-44.8l158.368-190.048a32 32 0 0 1 49.184 40.992zM544 512h-64v64h64v-64z" p-id="4447"></path></svg>