<svg t="1596682304300" viewBox="0 0 1024 1024" version="1.1" xmlns="http://www.w3.org/2000/svg" p-id="3685" width="200" height="200"><path d="M410.5 452.2c191.9 0 346.3-64.9 346.3-144.3 0-14.4-4.3-27.4-14.4-40.4-4.3-5.8-8.7-10.1-13-15.9-2.9-2.9-5.8-5.8-8.7-7.2-2.9-2.9-7.2-5.8-11.5-8.7-2.9-1.4-5.8-4.3-8.7-5.8-5.8-4.3-13-7.2-18.8-11.5-13-7.2-28.9-13-44.7-20.2-15.9-5.8-33.2-11.5-51.9-15.9-11.5-2.9-24.5-5.8-37.5-8.7-31.7-5.8-66.4-10.1-102.4-11.5-11.5 1.4-23.1 1.4-34.6 1.4s-23.1 0-36.1 1.4c-36.1 1.4-70.7 5.8-102.4 11.5-13 2.9-26 4.3-37.5 7.2-17.3 4.3-34.6 8.7-50.5 14.4-15.9 5.8-28.9 11.5-41.8 17.3-4.3 2.9-10.1 5.8-14.4 8.7-14.4 8.7-26 17.3-36.1 27.4-7.2 7.2-13 14.4-17.3 21.6-7.2 11.5-10.1 23.1-10.1 34.6-0.2 79.6 154.2 144.6 346.1 144.6z" p-id="3686"></path><path d="M756.8 509.9v-92.3c-75 60.6-210.7 92.3-346.3 92.3-135.6 0-271.3-31.7-346.3-92.3v92.3c0 71.8 126.2 131.7 292.3 142.5V549.9c0-5.6 4.6-10.2 10.2-10.2h382.7c4.8-9.6 7.4-19.6 7.4-29.8z m-591.6 57.7c-15.9 0-28.9-13-28.9-28.9 0-15.9 13-28.9 28.9-28.9 15.9 0 28.9 13 28.9 28.9 0 15.9-13 28.9-28.9 28.9zM64.2 726.3h1.4c15.6 66.1 135.8 118.2 290.8 128.1V710.2c-116.7-7.3-227.2-38.1-292.3-90.7v106.8z m101-14.4c15.9 0 28.9 13 28.9 28.9 0 15.9-13 28.9-28.9 28.9-15.9 0-28.9-13-28.9-28.9 0.1-15.9 13-28.9 28.9-28.9z" p-id="3687"></path><path d="M462.1 793.5c0 6.5-0.8 11.8-2.5 15.8s-3.9 7.1-6.5 9.2c-2.7 2.4-5.4 4-8.3 4.9-2.9 0.8-5.4 1.3-7.6 1.3-3.9 0-7.6-0.9-11.1-2.7-3.5-1.8-6.6-4-9.2-6.7l-29 23.2c4.6 5.1 10.8 10.2 18.7 15.4 7.8 5.2 17.7 7.8 29.5 7.8 10.1 0 19-1.7 26.6-5.1 7.6-3.4 14.2-8 19.7-13.8 11.1-11.8 16.7-26.6 16.7-44.2V601.5h-37v192zM588.6 601.5h-54.7v258h51.4c22 0 38.8-5.7 50.5-17.2 11.7-11.5 17.6-29.3 17.6-53.4V668.2c0-21.3-5.5-37.7-16.5-49.3-11-11.6-27.1-17.4-48.3-17.4z m27.9 190.9c0 11.1-2.2 19.3-6.5 24.5-4.3 5.2-11.7 7.8-22.1 7.8h-17V636.3h17c10.9 0 18.4 2.8 22.5 8.3 4.1 5.6 6.2 13.4 6.2 23.6v124.2zM792.9 621.4c-5.3-6-12.1-10.9-20.5-14.5-8.3-3.6-18.4-5.4-30.3-5.4h-54v258h50.4c24.2 0 41.7-6 52.7-18.1 11-12.1 16.5-29.5 16.5-52.2v-14.5c0-13.8-2.1-24.6-6.2-32.6s-10.5-14-19.2-18.1c8.5-4.8 14.7-10.6 18.8-17.4 2.2-3.6 3.8-7.8 4.9-12.7 1.1-4.8 1.6-10.7 1.6-17.8v-9.4c0-8.5-1.1-16.6-3.4-24.5-2.2-7.8-6-14.7-11.3-20.8z m-20.6 175c-0.5 5.3-1.8 9.9-4 13.8-2.2 3.9-5.4 6.9-9.6 9.1-4.2 2.2-10.1 3.3-17.6 3.3h-15.9V740h16.3c6.8 0 12.2 0.8 16.3 2.4 4.1 1.6 7.4 4 9.8 7.4 2.2 3.4 3.6 7.5 4.3 12.3 0.7 4.8 1.1 10.5 1.1 17 0 6.2-0.3 12-0.7 17.3z m-5.7-98.4c-4.2 6.2-12.5 9.2-24.8 9.2h-16.7v-71h15.2c12.3 0 20.8 2.9 25.5 8.7 4.7 5.8 7.1 14.5 7.1 26.1 0.1 11.9-2 20.9-6.3 27zM959.9 675.4v-14.5c0-8.9-1.5-17.2-4.5-24.8-3-7.6-7.2-14.2-12.5-19.7-10.9-11.4-25-17-42.4-17-8.9 0-17.1 1.5-24.5 4.5-7.4 3-13.7 7.2-19 12.5-5.3 5.3-9.4 11.6-12.3 18.8-2.9 7.2-4.3 15.1-4.3 23.6v142c0 11.8 1.9 21.6 5.6 29.2 3.7 7.6 8.5 13.8 14.3 18.7 5.8 4.8 12.3 8.2 19.6 10.1s14.4 2.9 21.4 2.9c8.2 0 15.9-1.6 23-4.9 7.1-3.3 13.3-7.7 18.7-13.2 5.3-5.6 9.5-11.9 12.5-19s4.5-14.7 4.5-22.6v-15.9h-37v12.7c0 5.1-0.7 9.3-2.2 12.7-1.4 3.4-3.3 6-5.4 8-2.4 1.9-5 3.3-7.8 4.2-2.8 0.8-5.4 1.3-7.8 1.3-8.5 0-14.3-2.5-17.6-7.6-3.3-5.1-4.9-11.4-4.9-18.8V666.3c0-8.7 1.5-15.9 4.5-21.6 3-5.7 9.1-8.5 18.3-8.5 7 0 12.6 2.7 16.7 8s6.2 11.6 6.2 18.8v12.3h36.9z" p-id="3688"></path></svg>