<svg t="1596683403663" viewBox="0 0 1024 1024" version="1.1" xmlns="http://www.w3.org/2000/svg" p-id="5206" width="200" height="200"><path d="M958.897 4.905h18.393c0.578 0.372 1.115 0.973 1.739 1.084 12.571 2.246 23.224 8.03 30.01 18.895 3.827 6.128 5.72 13.463 8.485 20.254v10.346c-1.151 4.237-2.476 8.435-3.422 12.717-6.62 29.977-13.058 59.993-19.756 89.951-7.88 35.246-16.057 70.427-23.933 105.674-7.43 33.248-14.59 66.555-21.956 99.817-6.475 29.237-13.082 58.445-19.613 87.67-8.817 39.453-17.567 78.922-26.441 118.362-7.927 35.236-16.075 70.422-23.953 105.669-7.431 33.247-14.588 66.556-21.956 99.817-6.436 29.052-12.998 58.077-19.508 87.113-8.434 37.622-17.022 75.21-25.238 112.879-3.736 17.132-12.254 30.202-29.013 36.7-5.436 2.108-11.294 3.127-16.959 4.644h-8.047c-0.777-0.38-1.536-1.045-2.335-1.099-13.676-0.915-24.886-6.242-33.115-17.576-5.303-7.305-11.11-14.244-16.661-21.37a35353.189 35353.189 0 0 1-35.331-45.423c-10.847-13.971-21.657-27.971-32.503-41.942-11.762-15.152-23.546-30.288-35.324-45.427-9.708-12.478-19.404-24.966-29.135-37.426-11.699-14.979-23.456-29.913-35.141-44.903a13133.186 13133.186 0 0 1-33.898-43.693c-8.851-11.455-17.708-22.907-26.357-34.513-0.907-1.217-1.254-4.082-0.466-5.144 7.743-10.413 15.737-20.641 23.747-30.854 19.748-25.176 39.625-50.251 59.292-75.489 16.758-21.507 33.199-43.262 49.957-64.769 19.666-25.239 39.603-50.268 59.277-75.501 16.882-21.652 33.583-43.446 50.323-65.207 13.989-18.185 28.071-36.3 41.781-54.693 3.931-5.273 6.714-11.402 10.024-17.14l-1.114-1.061c-1.521 0.876-3.198 1.561-4.537 2.658-7.01 5.738-14.357 11.149-20.818 17.461-30.649 29.942-61.127 60.06-91.517 90.266-31.788 31.596-63.335 63.434-95.115 95.037-43.149 42.908-86.464 85.65-129.542 128.628-2.872 2.865-5.291 3.036-8.423 1.691-4.137-1.777-8.144-3.872-12.321-5.548-28.473-11.425-57.023-22.655-85.454-34.182-32.086-13.008-64.033-26.361-96.115-39.381-33.458-13.574-67.009-26.922-100.508-40.397-29.506-11.869-58.96-23.869-88.517-35.613-10.068-4-19.285-9.161-24.589-18.864-3.236-5.921-4.963-12.667-7.367-19.042v-18.393c1.544-4.89 2.867-9.863 4.674-14.654 4.383-11.622 12.143-21.585 23.03-26.33 32.917-14.349 66.495-27.18 99.833-40.562 45.838-18.4 91.713-36.705 137.529-55.156 38.711-15.589 77.347-31.362 116.041-46.991 29.318-11.841 58.678-23.576 88.012-35.377 37.324-15.016 74.621-30.098 111.964-45.069 45.846-18.379 91.763-36.584 137.583-55.027 38.887-15.652 77.604-31.724 116.535-47.267 39.169-15.635 78.507-30.849 117.769-46.25z" p-id="5207"></path></svg>