<svg t="1596681027212" viewBox="0 0 1024 1024" version="1.1" xmlns="http://www.w3.org/2000/svg" p-id="2154" width="200" height="200"><path d="M64 831.721L343.999 768V320L64 383.721zM680 383.721v448L959.999 768V320zM511.5 98C423.411 98 352 169.411 352 257.5c0 77.305 54.998 141.759 128 156.383V611h64V413.682c72.504-15.01 127-79.23 127-156.182C671 169.411 599.589 98 511.5 98zM474 261c-27.062 0-49-21.938-49-49s21.938-49 49-49 49 21.938 49 49-21.938 49-49 49z" p-id="2155"></path><path d="M576 523.12c32.409 14.993 53.831 40.912 53.831 70.381 0 46.392-53.082 84-118.562 84s-118.562-37.608-118.562-84c0-29.91 22.068-56.164 55.294-71.048v-67.94c-29.622-10.443-55.948-27.875-77-50.314V768L651 831.721V407.327c-20.773 21.179-46.365 37.612-74.999 47.531v68.262z" p-id="2156"></path></svg>