<svg t="1596682982432" viewBox="0 0 1024 1024" version="1.1" xmlns="http://www.w3.org/2000/svg" p-id="4317" width="200" height="200"><path d="M160 64l-96 0 0 896 896 0 0-96-800 0L160 64zM330.816 704c41.344 0 74.88-34.944 74.88-78.016 0-15.68-4.48-30.336-12.16-42.56l131.2-155.136c2.112 0.192 4.288 0.32 6.528 0.32s4.416-0.128 6.528-0.32l95.424 155.136c-7.616 12.224-12.096 26.88-12.096 42.56 0 43.072 33.472 78.016 74.816 78.016 41.344 0 74.88-34.944 74.88-78.016 0-16.32-4.8-31.424-12.992-43.968l122.432-202.304c1.6 0.128 3.264 0.192 4.928 0.192 41.344 0 74.88-34.88 74.88-78.016s-33.536-77.952-74.88-77.952c-41.344 0-74.816 34.88-74.816 78.016 0 16.32 4.8 31.424 12.992 43.904l-122.368 202.304c-1.664-0.128-3.328-0.192-4.992-0.192-2.176 0-4.352 0.128-6.528 0.32l-95.424-155.2c7.68-12.288 12.16-26.88 12.16-42.56 0-43.072-33.472-78.016-74.816-78.016s-74.88 34.88-74.88 78.016c0 15.68 4.48 30.336 12.16 42.56l-131.136 155.2c-2.176-0.192-4.352-0.32-6.592-0.32-41.344 0-74.816 34.944-74.816 77.952S289.472 704 330.816 704z" p-id="4318"></path></svg>