<?xml version="1.0" standalone="no"?><!DOCTYPE svg PUBLIC "-//W3C//DTD SVG 1.1//EN" "http://www.w3.org/Graphics/SVG/1.1/DTD/svg11.dtd"><svg t="1598252783779" viewBox="0 0 1024 1024" version="1.1" xmlns="http://www.w3.org/2000/svg" p-id="5602" xmlns:xlink="http://www.w3.org/1999/xlink" width="200" height="200"><defs><style type="text/css"></style></defs><path d="M 857.549 429.312 h -73.4464 v -170.445 C 784.102 116.096 667.878 0 524.851 0 c -143.053 0 -259.43 116.096 -259.43 258.867 v 170.47 H 192.077 A 64 64 0 0 0 128 493.261 V 960 A 64 64 0 0 0 192.077 1024 H 857.6 c 35.3792 0 64 -28.6208 64 -64 V 493.261 a 64 64 0 0 0 -64.0768 -63.9232 Z M 560.794 738.816 v 101.888 a 8.448 8.448 0 0 1 -8.3968 8.3968 h -55.04 a 8.4736 8.4736 0 0 1 -8.4736 -8.3968 v -101.888 c -25.856 -13.2352 -43.776 -39.68 -43.776 -70.7328 a 79.7184 79.7184 0 1 1 159.437 0 c 0.0512 31.0272 -17.8688 57.4976 -43.7504 70.7072 Z m 123.802 -309.504 H 365.056 v -166.221 c 0 -87.936 71.7568 -159.565 159.846 -159.565 s 159.718 71.6288 159.718 159.565 v 166.246 Z" p-id="5603"></path></svg>