<svg ref="paramButton" viewBox="0 0 1024 1024" version="1.1" xmlns="http://www.w3.org/2000/svg" p-id="1275"><path d="M192.402 273.2c-69.475 0-126 56.525-126 126s56.525 126 126 126 126-56.525 126-126-56.525-126-126-126zM192.402 448.4c-27.129 0-49.2-22.071-49.2-49.2s22.071-49.2 49.2-49.2 49.2 22.071 49.2 49.2-22.075 49.2-49.2 49.2z" p-id="1276"></path><path d="M192.402 242c23.861 0 43.2-19.339 43.2-43.2v-92.4c0-23.861-19.339-43.2-43.2-43.2s-43.2 19.339-43.2 43.2v92.4c0 23.861 19.339 43.2 43.2 43.2z" p-id="1277"></path><path d="M192.402 557.6c-23.861 0-43.2 19.339-43.2 43.2v319.2c0 23.861 19.339 43.2 43.2 43.2s43.2-19.339 43.2-43.2v-319.2c0-23.861-19.344-43.2-43.2-43.2z" p-id="1278"></path><path d="M516.224 389.216c-69.471 0-125.995 56.525-125.995 126s56.52 126 125.995 126c69.48 0 126-56.52 126-126s-56.52-126-126-126zM516.224 564.416c-27.125 0-49.195-22.071-49.195-49.2s22.071-49.2 49.195-49.2c27.134 0 49.2 22.071 49.2 49.2s-22.066 49.2-49.2 49.2z" p-id="1279"></path><path d="M516.229 356c23.856 0 43.2-19.339 43.2-43.2v-207.6c0-23.861-19.339-43.2-43.2-43.2-23.861 0-43.2 19.339-43.2 43.2v207.6c0 23.861 19.344 43.2 43.2 43.2z" p-id="1280"></path><path d="M516.229 676.4c-23.861 0-43.2 19.339-43.2 43.2v199.2c0 23.861 19.339 43.2 43.2 43.2 23.856 0 43.2-19.339 43.2-43.2v-199.2c0-23.861-19.339-43.2-43.2-43.2z" p-id="1281"></path><path d="M840.061 499.083c-69.48 0-126 56.52-126 126 0 69.475 56.52 125.995 126 125.995s126-56.52 126-125.995c0-69.48-56.525-126-126-126zM840.061 674.278c-27.129 0-49.2-22.071-49.2-49.195 0-27.129 22.071-49.2 49.2-49.2s49.2 22.071 49.2 49.2c0 27.125-22.071 49.195-49.2 49.195z" p-id="1282"></path><path d="M840.061 466.4c23.861 0 43.2-19.339 43.2-43.2v-318c0-23.861-19.339-43.2-43.2-43.2s-43.2 19.339-43.2 43.2v318c0 23.861 19.339 43.2 43.2 43.2z" p-id="1283"></path><path d="M840.061 786.8c-23.861 0-43.2 19.339-43.2 43.2v88.8c0 23.861 19.339 43.2 43.2 43.2s43.2-19.339 43.2-43.2v-88.8c0-23.861-19.344-43.2-43.2-43.2z" p-id="1284"></path></svg>