<svg width="200px" height="185.84px" viewBox="0 0 1102 1024" version="1.1" xmlns="http://www.w3.org/2000/svg"><path  d="M894.424615 970.121846l-305.624615-137.924923c-22.606769-10.24-32.531692-35.603692-20.952615-56.477538 5.513846-10.24 14.887385-17.801846 26.466461-21.425231a49.703385 49.703385 0 0 1 35.288616 2.048l250.486153 113.427692 107.52-682.929231-486.557538 538.466462v250.407385c0 23.394462-20.401231 42.220308-45.686154 42.220307-25.442462 0-45.843692-18.825846-45.843692-42.220307V711.601231c0-2.048 0-4.647385 0.551384-6.616616a40.566154 40.566154 0 0 1 10.476308-22.44923l458.436923-507.352616-735.389538 351.625846 173.292307 82.944c22.606769 11.264 31.980308 36.706462 20.401231 58.052923a43.559385 43.559385 0 0 1-25.442461 20.873847 46.788923 46.788923 0 0 1-34.185847-2.048L26.781538 566.035692a48.049231 48.049231 0 0 1-21.504-20.873846 40.644923 40.644923 0 0 1-3.308307-32.059077 43.874462 43.874462 0 0 1 22.055384-24.969846L1033.924923 4.726154a42.062769 42.062769 0 0 1 22.055385-4.568616c22.685538-0.472615 41.984 14.257231 45.843692 34.658462a36.627692 36.627692 0 0 1-1.102769 20.322462l-139.579077 882.451692c-2.756923 18.904615-19.298462 33.083077-39.148308 36.155077a47.419077 47.419077 0 0 1-27.569231-3.544616z" /></svg>