<svg t="1596698701936" viewBox="0 0 1024 1024" version="1.1" xmlns="http://www.w3.org/2000/svg" p-id="13425" width="200" height="200"><path d="M579.7 291.4c18.8 0 34.1-15.3 34.1-34.1v-34.1c0-18.8-15.4-34.1-34.1-34.1-18.8 0-34.1 15.3-34.1 34.1v34.1c0 18.7 15.4 34.1 34.1 34.1z" p-id="13426"></path><path d="M944.7 216.3L808.2 79.9c-6.8-6.8-15.3-10.2-23.9-10.2H170.4c-56.3 0-102.3 46-102.3 102.3v682.1c0 56.3 46 102.3 102.3 102.3H852.5c56.3 0 102.3-46 102.3-102.3V240.2c0.1-8.5-3.3-17-10.1-23.9zM358 137.9h307v182.5c0 11.9-10.2 22.2-22.2 22.2H380.2c-11.9 0-22.2-10.2-22.2-22.2V137.9z m358.1 750.3H306.9V652.9c0-20.5 17.1-37.5 37.5-37.5h334.2c20.5 0 37.5 17 37.5 37.5v235.3z m170.6-34.1c0 18.8-15.3 34.1-34.1 34.1h-66.5V652.9c0-58-47.7-105.7-105.7-105.7h-336c-58 0-105.7 47.7-105.7 105.7v235.3h-68.2c-18.8 0-34.1-15.3-34.1-34.1V172c0-18.8 15.3-34.1 34.1-34.1h119.4v182.5c0 49.5 40.9 90.4 90.4 90.4h262.6c49.5 0 90.4-40.9 90.4-90.4V137.9h37.5l116 116v600.2z" p-id="13427"></path></svg>