<svg t="1596698405159" viewBox="0 0 1024 1024" version="1.1" xmlns="http://www.w3.org/2000/svg" p-id="11468" width="200" height="200"><path d="M425.1 648.5c-11.6 0-21-9.5-21-21v-231c0-11.6 9.4-21 21-21 11.5 0 21 9.4 21 21v231c0 11.5-9.4 21-21 21zM593.1 648.5c-11.6 0-21-9.5-21-21v-231c0-11.6 9.4-21 21-21 11.5 0 21 9.4 21 21v231c0 11.5-9.4 21-21 21z" p-id="11469"></path><path d="M512 113c220 0 399 179 399 399S732 911 512 911 113 732 113 512s179-399 399-399m0-42C268.4 71 71 268.4 71 512s197.4 441 441 441 441-197.4 441-441S755.6 71 512 71z" p-id="11470"></path></svg>