<svg t="1560157194178" viewBox="0 0 1076 1024" version="1.1" xmlns="http://www.w3.org/2000/svg" p-id="6108" xmlns:xlink="http://www.w3.org/1999/xlink" width="14" height="14"><path d="M353.840537 64.013023v114.282007c-93.722967-1.500318-185.804962 51.104569-229.056306 134.77072-32.233387 60.926961-45.712803 130.738616-45.665918 199.284378h71.804264c0.234425-81.720426 18.707085-173.567996 84.861716-227.977953 33.475837-25.786709 76.492757-35.163695 118.056244-35.749756v109.874824a15748.974859 15748.974859 0 0 0 175.068314-147.218668c-58.371733-49.041633-116.743466-98.13015-175.068314-147.24211z m276.902373 18.308563c-33.077315-1.078353-51.807843 33.335182-46.884926 62.919571 0.164097 232.385136-0.328194 464.817157 0.234425 697.178851 2.203592 32.608466 36.499915 46.228537 64.935622 42.079221 58.840582-0.609504 117.798377 1.265893 176.521747-0.937699 31.834865-5.274554 40.649231-39.102028 37.414171-66.52971-0.164097-230.861376 0.328194-461.769637-0.234425-692.60757-2.203592-32.631909-36.499915-46.25198-64.935622-42.102664h-167.050992z m-515.734186 519.391211c-33.147643-1.008026-54.105205 33.241413-49.088518 63.529075 0.632947 60.036148-1.289335 120.21295 0.984583 180.131886 4.94636 29.936025 36.804667 42.946592 64.115137 39.125471h379.580361V601.73624H115.008724z" p-id="6109"> </path></svg>