<?xml version="1.0" standalone="no"?><!DOCTYPE svg PUBLIC "-//W3C//DTD SVG 1.1//EN" "http://www.w3.org/Graphics/SVG/1.1/DTD/svg11.dtd"><svg t="1598252804684" viewBox="0 0 1117 1024" version="1.1" xmlns="http://www.w3.org/2000/svg" p-id="5730" xmlns:xlink="http://www.w3.org/1999/xlink" width="218.1640625" height="200"><defs><style type="text/css"></style></defs><path d="M182.504727 903.586909A42.263273 42.263273 0 0 1 139.636364 861.509818V412.392727c0-23.365818 19.223273-42.216727 42.868363-42.216727h71.540364l515.723636 0.186182h71.68c23.738182 0 42.914909 18.850909 42.914909 42.216727v449.349818a42.589091 42.589091 0 0 1-43.054545 41.704728H182.458182z m286.533818-250.228364v81.82691c0 23.226182 19.223273 42.216727 42.868364 42.216727a42.589091 42.589091 0 0 0 43.054546-42.216727v-81.82691c25.460364-14.475636 42.914909-41.378909 42.914909-72.610909 0-46.545455-38.446545-84.247273-85.969455-84.247272-47.336727 0-85.783273 37.701818-85.783273 84.247272a82.850909 82.850909 0 0 0 42.914909 72.610909z" p-id="5731"></path><path d="M1074.269091 370.129455v-98.21091c-0.186182-139.636364-115.525818-252.741818-257.861818-252.741818C673.978182 19.223273 558.545455 132.328727 558.545455 272.104727v98.210909l515.723636-0.139636z m-429.614546-98.21091c0-93.230545 76.893091-168.587636 171.93891-168.587636 94.813091 0 171.706182 75.403636 171.706181 168.541091v98.257455H644.654545v-98.21091z" p-id="5732"></path></svg>