<?xml version="1.0" encoding="UTF-8"?>
<!--
 * Licensed to the Apache Software Foundation (ASF) under one or more
 * contributor license agreements.  See the NOTICE file distributed with
 * this work for additional information regarding copyright ownership.
 * The ASF licenses this file to You under the Apache License, Version 2.0
 * (the "License"); you may not use this file except in compliance with
 * the License.  You may obtain a copy of the License at
 *
 *     http://www.apache.org/licenses/LICENSE-2.0
 *
 * Unless required by applicable law or agreed to in writing, software
 * distributed under the License is distributed on an "AS IS" BASIS,
 * WITHOUT WARRANTIES OR CONDITIONS OF ANY KIND, either express or implied.
 * See the License for the specific language governing permissions and
 * limitations under the License.
-->

<svg width="11.4305556px" height="11.9583333px" viewBox="0 0 11.4305556 11.9583333" version="1.1"
    xmlns="http://www.w3.org/2000/svg" xmlns:xlink="http://www.w3.org/1999/xlink">
    <title>代码检索-常规</title>
    <g id="参数配置-0807" stroke="none" stroke-width="1" fill="none" fill-rule="evenodd">
        <g id="参数配置备份" transform="translate(-18.284722, -577.020833)">
            <g id="编组-6" transform="translate(0.000000, 54.000000)">
                <g id="01-导航/一级标题/默认备份-10" transform="translate(0.000000, 502.000000)">
                    <g id="代码检索-常规" transform="translate(17.000000, 20.000000)">
                        <rect id="矩形" x="0" y="0" width="14" height="14"></rect>
                        <g id="编组" transform="translate(1.722222, 1.458333)">
                            <path
                                d="M4.69444444,11.0833333 L0.527777778,11.0833333 C0.23629416,11.0833333 0,10.8470392 0,10.5555556 L0,0.527777778 C0,0.23629416 0.23629416,0 0.527777778,0 L10.0277778,0 C10.3192614,0 10.5555556,0.23629416 10.5555556,0.527777778 L10.5555556,4.95833333"
                                id="路径" stroke="#000000" stroke-width="0.875" stroke-linecap="round"></path>
                            <path
                                d="M6.068353,1.7563963 C6.18078929,1.78672366 6.27664739,1.86077061 6.33483359,1.96224301 C6.39301979,2.0637154 6.40876624,2.18429849 6.37860792,2.29745775 L5.47022366,5.71034091 C5.40751281,5.94598182 5.16688346,6.08583919 4.93276297,6.02272109 C4.69864247,5.95960298 4.5596875,5.71741095 4.62239835,5.48177005 L5.53078261,2.06866605 C5.56091429,1.95549959 5.63448347,1.85901897 5.73530114,1.8004549 C5.83611881,1.74189084 5.95592387,1.72604212 6.068353,1.7563963 Z"
                                id="路径" fill="#000000"></path>
                            <path
                                d="M3.69997143,2.46220545 C3.8712839,2.63468253 3.8712839,2.91426788 3.69997143,3.08674496 L2.76898727,4.0239959 L3.69997143,4.96080516 C3.81404908,5.07170041 3.85980015,5.23591966 3.81964017,5.39034505 C3.7794802,5.54477045 3.659659,5.66536978 3.50623,5.70579056 C3.352801,5.74621134 3.18964133,5.70016315 3.0794616,5.58534467 L1.83822252,4.33604482 C1.66691006,4.16356774 1.66691006,3.88398239 1.83822252,3.71150531 L3.0794616,2.46220545 C3.25082581,2.28978046 3.52860722,2.28978046 3.69997143,2.46220545 Z"
                                id="路径" fill="#000000"></path>
                            <path
                                d="M7.02895839,2.46220545 C7.2003226,2.28978046 7.478104,2.28978046 7.64946822,2.46220545 L8.89070729,3.71150531 C9.06201976,3.88398239 9.06201976,4.16356774 8.89070729,4.33604482 L7.64946822,5.58534467 C7.47727939,5.75272999 7.20357683,5.75033605 7.0343042,5.57996414 C6.86503157,5.40959222 6.86265308,5.1341122 7.02895839,4.96080516 L7.95994255,4.0239959 L7.02895839,3.08674496 C6.85764592,2.91426788 6.85764592,2.63468253 7.02895839,2.46220545 L7.02895839,2.46220545 Z"
                                id="路径" fill="#000000"></path>
                            <path
                                d="M7.10921815,7.35965994 C7.59906996,7.07684387 8.20259228,7.07684387 8.69244409,7.35965994 C8.93737,7.50106798 9.13527324,7.70243841 9.271945,7.93916086 C9.40861677,8.1758833 9.48405706,8.44795775 9.48405706,8.73077383 C9.48405706,9.0135899 9.40861677,9.28566435 9.271945,9.5223868 C9.13527324,9.75910924 8.93737,9.96047968 8.69244409,10.1018877 C8.20259228,10.3847038 7.59906996,10.3847038 7.10921815,10.1018877 C6.61936634,9.81907164 6.31760518,9.29640598 6.31760518,8.73077383 C6.31760518,8.16514168 6.61936634,7.64247602 7.10921815,7.35965994 Z"
                                id="多边形" stroke="#000000" stroke-width="0.875"
                                transform="translate(7.900831, 8.730774) rotate(-330.000000) translate(-7.900831, -8.730774) ">
                            </path>
                            <line x1="9.35916445" y1="9.89744049" x2="10.5258311" y2="11.0641072" id="路径-7"
                                stroke="#000000" stroke-width="0.875" stroke-linecap="round"></line>
                        </g>
                    </g>
                </g>
            </g>
        </g>
    </g>
</svg>