<?xml version="1.0" encoding="UTF-8"?>
<!--
 * Licensed to the Apache Software Foundation (ASF) under one or more
 * contributor license agreements.  See the NOTICE file distributed with
 * this work for additional information regarding copyright ownership.
 * The ASF licenses this file to You under the Apache License, Version 2.0
 * (the "License"); you may not use this file except in compliance with
 * the License.  You may obtain a copy of the License at
 *
 *     http://www.apache.org/licenses/LICENSE-2.0
 *
 * Unless required by applicable law or agreed to in writing, software
 * distributed under the License is distributed on an "AS IS" BASIS,
 * WITHOUT WARRANTIES OR CONDITIONS OF ANY KIND, either express or implied.
 * See the License for the specific language governing permissions and
 * limitations under the License.
-->

<svg width="11.6666667px" height="11.6666667px" viewBox="0 0 11.6666667 11.6666667" version="1.1"
    xmlns="http://www.w3.org/2000/svg" xmlns:xlink="http://www.w3.org/1999/xlink">
    <title>数据源管理-常规</title>
    <g id="参数配置-0807" stroke="none" stroke-width="1" fill="none" fill-rule="evenodd">
        <g id="参数配置备份" transform="translate(-18.166667, -415.166667)">
            <g id="编组-6" transform="translate(0.000000, 54.000000)">
                <g id="01-导航/一级标题/加icon-默认" transform="translate(0.000000, 340.000000)">
                    <g id="数据源管理-常规" transform="translate(17.000000, 20.000000)">
                        <rect id="矩形" x="0" y="0" width="14" height="14"></rect>
                        <g id="编组" transform="translate(1.166667, 1.166667)" fill="#040000" fill-rule="nonzero">
                            <path
                                d="M9.38311573,10.6512048 L2.28231256,10.6512048 C2.00367972,10.6512048 1.77458161,10.8790645 1.77458161,11.1589357 C1.77458161,11.4375686 2.00244135,11.6666667 2.28231256,11.6666667 L9.38311573,11.6666667 C9.66174858,11.6666667 9.89084669,11.4388069 9.89084669,11.1589357 C9.89084669,10.8803029 9.66174858,10.6512048 9.38311573,10.6512048 Z M10.1447122,0 L1.52071613,0 C0.68234087,0 0,0.68234087 0,1.52071613 L0,8.11502671 C0,8.95464034 0.68234087,9.63698121 1.5219545,9.63698121 L10.1447122,9.63698121 C10.9843258,9.63698121 11.6666667,8.95464034 11.6666667,8.11502671 L11.6666667,1.52071613 C11.6654283,0.68234087 10.9830874,0 10.1447122,0 Z M10.6512048,8.11502671 C10.6512048,8.39489792 10.423345,8.62275767 10.1434738,8.62275767 L1.52071613,8.62275767 C1.24084492,8.62275767 1.01298517,8.39489792 1.01298517,8.11502671 L1.01298517,1.52071613 C1.01298517,1.24084492 1.24084492,1.01298517 1.52071613,1.01298517 L10.1434738,1.01298517 C10.423345,1.01298517 10.6512048,1.24084492 10.6512048,1.52071613 L10.6512048,8.11502671 Z"
                                id="形状"></path>
                            <path
                                d="M3.04267063,3.29653611 C2.76403779,3.29653611 2.53493967,3.52439585 2.53493967,3.80426706 L2.53493967,6.84817606 C2.53493967,7.1268089 2.76279942,7.35590702 3.04267063,7.35590702 C3.32254184,7.35590702 3.55040159,7.12804727 3.55040159,6.84817606 L3.55040159,3.80426706 C3.55040159,3.52439585 3.32130347,3.29653611 3.04267063,3.29653611 Z M5.83271415,2.28231256 C5.55408131,2.28231256 5.32498319,2.51017231 5.32498319,2.79004352 L5.32498319,6.84817606 C5.32498319,7.1268089 5.55284294,7.35590702 5.83271415,7.35590702 C6.11134699,7.35590702 6.3404451,7.12804727 6.3404451,6.84817606 L6.3404451,2.78880515 C6.3404451,2.51017231 6.11134699,2.28231256 5.83271415,2.28231256 L5.83271415,2.28231256 Z M8.62275767,4.81849061 C8.34412483,4.81849061 8.11502671,5.04635035 8.11502671,5.32622156 L8.11502671,6.84817606 C8.11502671,7.1268089 8.34288646,7.35590702 8.62275767,7.35590702 C8.90139051,7.35590702 9.13048862,7.12804727 9.13048862,6.84817606 L9.13048862,5.32498319 C9.12925026,5.04635035 8.90139051,4.81849061 8.62275767,4.81849061 Z"
                                id="形状"></path>
                        </g>
                    </g>
                </g>
            </g>
        </g>
    </g>
</svg>