<?xml version="1.0" encoding="UTF-8"?>
<!--
 * Licensed to the Apache Software Foundation (ASF) under one or more
 * contributor license agreements.  See the NOTICE file distributed with
 * this work for additional information regarding copyright ownership.
 * The ASF licenses this file to You under the Apache License, Version 2.0
 * (the "License"); you may not use this file except in compliance with
 * the License.  You may obtain a copy of the License at
 *
 *     http://www.apache.org/licenses/LICENSE-2.0
 *
 * Unless required by applicable law or agreed to in writing, software
 * distributed under the License is distributed on an "AS IS" BASIS,
 * WITHOUT WARRANTIES OR CONDITIONS OF ANY KIND, either express or implied.
 * See the License for the specific language governing permissions and
 * limitations under the License.
-->

<svg width="11.6666667px" height="11.6666667px" viewBox="0 0 11.6666667 11.6666667" version="1.1"
    xmlns="http://www.w3.org/2000/svg" xmlns:xlink="http://www.w3.org/1999/xlink">
    <title>全局变量-常规</title>
    <g id="参数配置-0807" stroke="none" stroke-width="1" fill="none" fill-rule="evenodd">
        <g id="参数配置备份" transform="translate(-18.190290, -253.175544)">
            <g id="编组-6" transform="translate(0.000000, 54.000000)">
                <g id="01-导航/一级标题/默认" transform="translate(0.000000, 178.000000)">
                    <g id="全局变量-常规" transform="translate(17.000000, 20.000000)">
                        <rect id="矩形" x="0" y="0" width="14" height="14"></rect>
                        <g id="编组" transform="translate(1.190290, 1.175544)">
                            <path
                                d="M11.2291667,2.1875 L11.2291667,10.6682541 L0.994545583,11.2069184 L0.463991561,2.1875 L11.2291667,2.1875 Z"
                                id="矩形" stroke="#000000" stroke-width="0.875"></path>
                            <path
                                d="M10.7365735,0.456356055 L11.1212721,2.1875 L0.4375,2.1875 L0.4375,0.998412554 L10.7365735,0.456356055 Z"
                                id="矩形备份" stroke="#000000" stroke-width="0.875"></path>
                            <path
                                d="M4.06448005,4.64367965 L4.06448005,5.17423405 C3.67099421,5.19358903 3.39954256,5.33704366 3.2495298,5.60459791 C3.10963695,5.85962835 3.03939288,6.24217401 3.03939288,6.75223488 C3.03939288,7.29417456 3.1441637,7.67842801 3.35430061,7.90442597 C3.4340693,7.99380048 3.52752963,8.05983514 3.63408631,8.10309924 C3.74064299,8.14636333 3.88410757,8.17539581 4.06388476,8.19133521 L4.06388476,8.72701299 C3.73707126,8.70481168 3.48228769,8.65699347 3.29893876,8.58355836 C2.64590704,8.32511234 2.31909354,7.70233712 2.31909354,6.71409417 C2.31909354,5.95526476 2.52089641,5.39453936 2.92390687,5.03134869 C3.14059196,4.83381395 3.3971614,4.71426843 3.69361518,4.67271214 C3.78409907,4.65961905 3.90791912,4.64994156 4.06448005,4.64367965 L4.06448005,4.64367965 Z M5.38423513,6.67595346 L4.28949918,5.09795262 L5.159216,5.09795262 L5.81403358,6.14995318 L6.52421302,5.09795262 L7.38440521,5.09795262 L6.25454723,6.67595346 L7.38440521,8.28697163 L6.54921515,8.28697163 L5.81403358,7.19227624 L5.09432953,8.28697163 L4.24961484,8.28697163 L5.38423513,6.67595346 Z M7.57906462,4.64367965 C7.90885457,4.65961905 8.15054179,4.70117535 8.30412628,4.76777929 C8.64760787,4.91123391 8.90715375,5.16284876 9.0839545,5.52319311 C9.24051543,5.84198115 9.31909354,6.23875842 9.31909354,6.71352491 C9.31909354,7.48146254 9.12264826,8.0302334 8.72916242,8.35812967 C8.59224602,8.46970549 8.43568508,8.55395662 8.25888434,8.61145232 C8.08208359,8.66894802 7.85527859,8.70708873 7.57906462,8.72644372 L7.57906462,8.19076595 C7.75586537,8.17482655 7.89813938,8.1452248 8.00648192,8.10252997 C8.11482447,8.05926588 8.20888008,7.99323121 8.28924406,7.90385671 C8.49938098,7.67728949 8.60415179,7.2936053 8.60415179,6.75166562 C8.60415179,6.20346403 8.52497839,5.80725603 8.36663159,5.56361088 C8.2082848,5.31996573 7.94576247,5.19017345 7.57906462,5.17366478 L7.57906462,4.64367965 L7.57906462,4.64367965 Z"
                                id="形状备份" fill="#000000" fill-rule="nonzero"></path>
                        </g>
                    </g>
                </g>
            </g>
        </g>
    </g>
</svg>