<?xml version="1.0" encoding="UTF-8"?>
<!--
 * Licensed to the Apache Software Foundation (ASF) under one or more
 * contributor license agreements.  See the NOTICE file distributed with
 * this work for additional information regarding copyright ownership.
 * The ASF licenses this file to You under the Apache License, Version 2.0
 * (the "License"); you may not use this file except in compliance with
 * the License.  You may obtain a copy of the License at
 *
 *     http://www.apache.org/licenses/LICENSE-2.0
 *
 * Unless required by applicable law or agreed to in writing, software
 * distributed under the License is distributed on an "AS IS" BASIS,
 * WITHOUT WARRANTIES OR CONDITIONS OF ANY KIND, either express or implied.
 * See the License for the specific language governing permissions and
 * limitations under the License.
-->

<svg width="11.6666667px" height="12.25px" viewBox="0 0 11.6666667 12.25" version="1.1"
    xmlns="http://www.w3.org/2000/svg" xmlns:xlink="http://www.w3.org/1999/xlink">
    <title>任务概览-常规</title>
    <g id="参数配置-0807" stroke="none" stroke-width="1" fill="none" fill-rule="evenodd">
        <g id="编组-6备份" transform="translate(-18.172105, -36.899822)">
            <g id="01-导航/一级标题/选中" transform="translate(0.000000, 16.000000)">
                <g id="任务概览-常规" transform="translate(17.000000, 20.000000)">
                    <rect id="矩形" x="0" y="0" width="14" height="14"></rect>
                    <g id="编组" transform="translate(1.172105, 0.899822)" fill="#000000" fill-rule="nonzero">
                        <path
                            d="M9.99979167,0 L1.666875,0 C0.746290322,0 0,0.746290322 0,1.666875 L0,10.583125 C0,11.5037097 0.746290322,12.25 1.666875,12.25 L9.99979167,12.25 C10.9203763,12.25 11.6666667,11.5037097 11.6666667,10.583125 L11.6666667,1.666875 C11.6666667,0.746290322 10.9203763,0 9.99979167,0 Z M10.8340068,10.592039 C10.8341809,10.8111696 10.74643,11.0213589 10.5901257,11.1762026 C10.4338214,11.3310463 10.2218181,11.41781 10.0009207,11.4173426 L1.66880376,11.4173426 C1.44596102,11.4173426 1.23553762,11.3324054 1.07794356,11.1760722 C0.920349487,11.0197389 0.832661291,10.813099 0.832661291,10.592039 L0.832661291,1.74567559 C0.83349132,1.28810414 1.20754135,0.917547679 1.66880376,0.917342557 L10.0009207,0.917342557 C10.2221339,0.917565196 10.4341942,1.00496832 10.5904347,1.16031765 C10.7466751,1.31566698 10.8342925,1.52623224 10.8340068,1.74567559 L10.8340068,10.592039 Z"
                            id="形状"></path>
                        <path
                            d="M9.48114248,3.74932795 L6.14739248,3.74932795 C5.91745941,3.74932795 5.73106183,3.93572553 5.73106183,4.1656586 C5.73106183,4.39559167 5.91745941,4.58198925 6.14739248,4.58198925 L9.48114248,4.58198925 C9.71107555,4.58198925 9.89747313,4.39559167 9.89747313,4.1656586 C9.89747313,3.93572553 9.71107555,3.74932795 9.48114248,3.74932795 L9.48114248,3.74932795 Z M9.48114248,7.08467742 L6.14739248,7.08467742 C5.91745941,7.08467742 5.73106183,7.271075 5.73106183,7.50100807 C5.73106183,7.73094113 5.91745941,7.91733871 6.14739248,7.91733871 L9.48114248,7.91733871 C9.71107555,7.91733871 9.89747313,7.73094113 9.89747313,7.50100807 C9.89747313,7.271075 9.71107555,7.08467742 9.48114248,7.08467742 Z M3.6471035,6.04319221 C2.84158603,6.04319221 2.18877016,6.69619625 2.18877016,7.50152554 C2.18877016,8.30685482 2.8417742,8.95985887 3.6471035,8.95985887 C4.4524328,8.95985887 5.10543683,8.30685484 5.10543683,7.50152554 C5.10543683,6.69619623 4.45262097,6.04319221 3.6471035,6.04319221 Z M4.08963711,7.94424731 C3.87848357,8.15519802 3.54772558,8.18762803 3.29962065,8.02170649 C3.05151571,7.85578496 2.95515513,7.53771705 3.0694631,7.26200034 C3.18377107,6.98628364 3.47691556,6.82969864 3.7696396,6.8879966 C4.06236364,6.94629457 4.27315058,7.20324091 4.27310682,7.50171371 C4.27352444,7.66782534 4.20745789,7.8271982 4.08963711,7.94429436 L4.08963711,7.94424731 Z M4.60287634,3.04015458 L3.23034946,4.41263441 L2.69133065,3.87356856 C2.52874069,3.7109786 2.26513029,3.71097859 2.10254033,3.87356855 C1.93995037,4.03615851 1.93995036,4.29976891 2.10254032,4.46235887 L2.9359543,5.2958199 C3.01403184,5.37390007 3.11992929,5.41776527 3.23034946,5.41776527 C3.34076964,5.41776527 3.44666708,5.37390007 3.52474463,5.2958199 L5.19161962,3.62894489 C5.35232629,3.46604848 5.35144487,3.20398669 5.18964609,3.04217498 C5.02784731,2.88036328 4.7657856,2.87946093 4.60287634,3.04015458 L4.60287634,3.04015458 Z"
                            id="形状"></path>
                    </g>
                </g>
            </g>
        </g>
    </g>
</svg>