<?xml version="1.0" encoding="UTF-8"?>
<!--
 * Licensed to the Apache Software Foundation (ASF) under one or more
 * contributor license agreements.  See the NOTICE file distributed with
 * this work for additional information regarding copyright ownership.
 * The ASF licenses this file to You under the Apache License, Version 2.0
 * (the "License"); you may not use this file except in compliance with
 * the License.  You may obtain a copy of the License at
 *
 *     http://www.apache.org/licenses/LICENSE-2.0
 *
 * Unless required by applicable law or agreed to in writing, software
 * distributed under the License is distributed on an "AS IS" BASIS,
 * WITHOUT WARRANTIES OR CONDITIONS OF ANY KIND, either express or implied.
 * See the License for the specific language governing permissions and
 * limitations under the License.
-->

<svg width="11.6666667px" height="10.5px" viewBox="0 0 11.6666667 10.5" version="1.1" xmlns="http://www.w3.org/2000/svg"
    xmlns:xlink="http://www.w3.org/1999/xlink">
    <title>参数配置-常规</title>
    <g id="参数配置-0807" stroke="none" stroke-width="1" fill="none" fill-rule="evenodd">
        <g id="参数配置备份" transform="translate(-18.166667, -199.750000)">
            <g id="编组-6" transform="translate(0.000000, 54.000000)">
                <g id="01-导航/一级标题/默认备份-9" transform="translate(0.000000, 124.000000)">
                    <g id="参数配置-常规" transform="translate(17.000000, 20.000000)">
                        <rect id="矩形" x="0" y="0" width="14" height="14"></rect>
                        <g id="编组-2" transform="translate(1.166667, 1.750000)" fill="#000000" fill-rule="nonzero">
                            <g id="编组">
                                <path
                                    d="M0.408983617,2.08944467 L6.88319428,2.08944467 C7.06710058,2.82549752 7.74274151,3.3731391 8.54584901,3.3731391 C9.34895651,3.3731391 10.0245974,2.82549752 10.2085037,2.08944467 L11.2563198,2.08944467 C11.4822151,2.08944467 11.6653034,1.90909091 11.6653034,1.68656955 C11.6653034,1.46404819 11.4822151,1.28369443 11.2563198,1.28369443 L10.2085037,1.28369443 C10.0245974,0.547641582 9.34895651,0 8.54584901,0 C7.74274151,0 7.06710058,0.547641582 6.88319428,1.28369443 L0.408983617,1.28369443 C0.183088333,1.28369443 0,1.46404819 0,1.68656955 C0,1.90909091 0.183088333,2.08944467 0.408983617,2.08944467 Z M8.54571268,0.805750243 C9.0388106,0.805750243 9.4398872,1.20083645 9.4398872,1.68656955 C9.4398872,2.17230266 9.0388106,2.56738886 8.54571268,2.56738886 C8.05261477,2.56738886 7.65153817,2.17230266 7.65153817,1.68656955 C7.65153817,1.20083645 8.05261477,0.805750243 8.54571268,0.805750243 Z M0.408983617,5.65287512 L1.73218195,5.65287512 C1.91608825,6.38892797 2.59159285,6.93656955 3.39483668,6.93656955 C4.1980805,6.93656955 4.87358511,6.38892797 5.05749141,5.65287512 L11.257683,5.65287512 C11.4835783,5.65287512 11.6666667,5.47252136 11.6666667,5.25 C11.6666667,5.02747864 11.4835783,4.84712488 11.257683,4.84712488 L5.05749141,4.84712488 C4.87358511,4.11107203 4.1980805,3.56343045 3.39483668,3.56343045 C2.59159285,3.56343045 1.91608825,4.11107203 1.73218195,4.84712488 L0.408983617,4.84712488 C0.183088333,4.84712488 0,5.02747864 0,5.25 C0,5.47252136 0.183088333,5.65287512 0.408983617,5.65287512 Z M3.39483668,4.36918069 C3.88793459,4.36918069 4.28901119,4.7642669 4.28901119,5.25 C4.28901119,5.7357331 3.88793459,6.13081931 3.39483668,6.13081931 C2.90173876,6.13081931 2.50066216,5.7357331 2.50066216,5.25 C2.50066216,4.7642669 2.90173876,4.36918069 3.39483668,4.36918069 Z M11.2575467,8.41055533 L8.90520928,8.41055533 C8.72130298,7.67450248 8.04566205,7.1268609 7.24255455,7.1268609 C6.43944705,7.1268609 5.76380612,7.67450248 5.57989982,8.41055533 L0.408983617,8.41055533 C0.183088333,8.41055533 0,8.59090909 0,8.81343045 C0,9.03595181 0.183088333,9.21630557 0.408983617,9.21630557 L5.58003615,9.21630557 C5.76394245,9.95235842 6.43944705,10.5 7.24269088,10.5 C8.0459347,10.5 8.72143931,9.95235842 8.90534561,9.21630557 L11.257683,9.21630557 C11.4835783,9.21630557 11.6666667,9.03595181 11.6666667,8.81343045 C11.6666667,8.59090909 11.4835783,8.41055533 11.257683,8.41055533 L11.2575467,8.41055533 Z M7.24255455,9.69424976 C6.74945664,9.69424976 6.34838004,9.29916355 6.34838004,8.81343045 C6.34838004,8.32769734 6.74945664,7.93261114 7.24255455,7.93261114 C7.73565247,7.93261114 8.13672907,8.32769734 8.13672907,8.81343045 C8.13672907,9.29916355 7.73565247,9.69424976 7.24255455,9.69424976 Z"
                                    id="形状"></path>
                            </g>
                        </g>
                    </g>
                </g>
            </g>
        </g>
    </g>
</svg>