<?xml version="1.0" standalone="no"?><!DOCTYPE svg PUBLIC "-//W3C//DTD SVG 1.1//EN" "http://www.w3.org/Graphics/SVG/1.1/DTD/svg11.dtd"><svg t="1610340980134" class="icon" viewBox="0 0 1024 1024" version="1.1" xmlns="http://www.w3.org/2000/svg" p-id="5017" xmlns:xlink="http://www.w3.org/1999/xlink" width="200" height="200"><defs><style type="text/css"></style></defs><path d="M960 704h-63.616V536.576a32 32 0 0 0-32-32H544V416H704a32 32 0 0 0 32-32V96A32 32 0 0 0 704 64H320a32 32 0 0 0-32 32V384a32 32 0 0 0 32 32h160v88.64H161.984a32 32 0 0 0-32 31.936L129.792 704H64a32 32 0 0 0-32 32v192a32 32 0 0 0 32 32h192a32 32 0 0 0 32-32v-192A32 32 0 0 0 256 704h-62.208l0.128-135.424H480V704h-64a32 32 0 0 0-32 32v192a32 32 0 0 0 32 32h192a32 32 0 0 0 32-32v-192a32 32 0 0 0-32-32h-64V568.576h288.384V704H768a32 32 0 0 0-32 32v192a32 32 0 0 0 32 32h192a32 32 0 0 0 32-32v-192a32 32 0 0 0-32-32zM352 128h320v224h-320V128z m-128 768h-128v-128h128v128zM576 896H448v-128h128v128z m352 0h-128v-128h128v128z" p-id="5018"></path></svg>