<?xml version="1.0" standalone="no"?><!DOCTYPE svg PUBLIC "-//W3C//DTD SVG 1.1//EN" "http://www.w3.org/Graphics/SVG/1.1/DTD/svg11.dtd"><svg t="1610340972032" class="icon" viewBox="0 0 1024 1024" version="1.1" xmlns="http://www.w3.org/2000/svg" p-id="4728" xmlns:xlink="http://www.w3.org/1999/xlink" width="200" height="200"><defs><style type="text/css"></style></defs><path d="M640 12.8c18.56 0 29.888 11.328 29.888 29.888V140.8H768l9.728 0.384c60.608 4.608 105.472 52.608 105.472 114.816v98.112h98.112l5.952 0.448c14.976 2.176 23.936 12.992 23.936 29.44 0 18.56-11.328 29.888-29.888 29.888H883.2v153.6h98.112l5.952 0.384c14.976 2.176 23.936 12.992 23.936 29.44 0 18.56-11.328 29.888-29.888 29.888H883.2V768l-0.384 9.728c-4.608 60.608-52.608 105.472-114.816 105.472h-98.112v98.112l-0.448 5.952c-2.176 14.976-12.992 23.936-29.44 23.936-18.56 0-29.888-11.328-29.888-29.888V883.2H413.888v98.112l-0.448 5.952c-2.176 14.976-12.992 23.936-29.44 23.936-18.56 0-29.888-11.328-29.888-29.888V883.2H256l-9.728-0.384C185.664 878.208 140.8 830.208 140.8 768V627.2H42.688l-5.952-0.384C21.76 624.576 12.8 613.76 12.8 597.376c0-18.56 11.328-29.888 29.888-29.888H140.8v-153.6H42.688L36.736 413.44C21.76 411.264 12.8 400.448 12.8 384c0-18.56 11.328-29.888 29.888-29.888H140.8V256l0.384-9.728C145.792 185.664 193.792 140.8 256 140.8h98.112V42.688L354.56 36.736C356.736 21.76 367.552 12.8 384 12.8c18.56 0 29.888 11.328 29.888 29.888V140.8h196.224V42.688L610.56 36.736C612.736 21.76 623.552 12.8 640 12.8z m128 187.712H256l-7.36 0.448c-28.672 3.136-48.128 24.896-48.128 55.04v512l0.448 7.36c3.136 28.672 24.896 48.128 55.04 48.128h512l7.36-0.448c28.672-3.136 48.128-24.896 48.128-55.04V256l-0.448-7.36c-3.136-28.672-24.896-48.128-55.04-48.128z m-128 153.6l5.888 0.448c15.04 2.176 24 12.992 24 29.44v256l-0.448 5.888c-2.176 15.04-12.992 24-29.44 24H384l-5.888-0.448c-15.04-2.176-24-12.992-24-29.44V384l0.448-5.888c2.176-15.04 12.992-24 29.44-24h256z m-29.888 59.776H413.888v196.224h196.224V413.888z" p-id="4729"></path></svg>