<?xml version="1.0" standalone="no"?><!DOCTYPE svg PUBLIC "-//W3C//DTD SVG 1.1//EN" "http://www.w3.org/Graphics/SVG/1.1/DTD/svg11.dtd"><svg t="1610340976329" class="icon" viewBox="0 0 1024 1024" version="1.1" xmlns="http://www.w3.org/2000/svg" p-id="4871" xmlns:xlink="http://www.w3.org/1999/xlink" width="200" height="200"><defs><style type="text/css"></style></defs><path d="M879.296 144.768c-157.44-17.792-275.968-60.416-352.128-126.656L507.136 0.704l-21.632 15.424c-119.36 85.248-237.44 128.448-350.784 128.448h-33.728v471.424c0 144.512 127.424 275.584 389.568 400.768l13.824 6.528 14.016-6.016c259.328-111.36 390.784-246.4 390.784-401.28v-467.84l-29.888-3.392z m-37.44 471.232c0 122.88-113.024 235.008-336 333.312-224-109.184-337.472-221.312-337.472-333.312v-405.12c110.08-7.168 222.656-49.152 335.104-125.248 80.768 61.568 194.368 102.656 338.368 122.304v408.064z" p-id="4872"></path><path d="M344.96 469.376a33.664 33.664 0 0 0-50.56 44.608l128.192 145.024c13.248 14.976 31.744 22.72 50.432 22.72 20.224 0 39.424-9.088 52.288-24.768l207.936-255.36a33.664 33.664 0 0 0-52.224-42.56L472.96 614.4 344.96 469.376z" p-id="4873"></path></svg>