<?xml version="1.0" standalone="no"?><!DOCTYPE svg PUBLIC "-//W3C//DTD SVG 1.1//EN" "http://www.w3.org/Graphics/SVG/1.1/DTD/svg11.dtd"><svg t="1610340964335" class="icon" viewBox="0 0 1024 1024" version="1.1" xmlns="http://www.w3.org/2000/svg" p-id="4442" xmlns:xlink="http://www.w3.org/1999/xlink" width="200" height="200"><defs><style type="text/css"></style></defs><path d="M896 806.08a32 32 0 1 1 64 0v73.92a48 48 0 0 1-48 48H112a48 48 0 0 1-48-48V144a48 48 0 0 1 48-48h800a48 48 0 0 1 48 48v166.144H128V864h768v-57.92z m0-559.936V160H128v86.144h768z m-254.08 158.912a32 32 0 0 1 60.16 21.888l-128 352a32 32 0 0 1-60.16-21.888l128-352z m134.272 64.384a32 32 0 0 1 47.616-42.88l126.464 140.672a32 32 0 0 1 0 42.752l-126.464 140.672a32 32 0 1 1-47.616-42.752l107.2-119.296-107.2-119.168z m-337.92 0a32 32 0 1 0-47.616-42.88L264.192 567.296a32 32 0 0 0 0 42.752l126.464 140.672a32 32 0 1 0 47.616-42.752L331.072 588.544l107.2-119.168z" p-id="4443"></path></svg>