<?xml version="1.0" standalone="no"?><!DOCTYPE svg PUBLIC "-//W3C//DTD SVG 1.1//EN" "http://www.w3.org/Graphics/SVG/1.1/DTD/svg11.dtd"><svg t="1610340960745" class="icon" viewBox="0 0 1024 1024" version="1.1" xmlns="http://www.w3.org/2000/svg" p-id="4299" xmlns:xlink="http://www.w3.org/1999/xlink" width="200" height="200"><defs><style type="text/css"></style></defs><path d="M338.56 416a32 32 0 0 1 5.76 63.488l-5.76 0.512H128a32 32 0 0 0-31.488 26.24L96 512v320a32 32 0 0 0 26.24 31.488L128 864h576a32 32 0 0 0 31.488-26.24L736 832v-129.28a32 32 0 0 1 63.488-5.76l0.512 5.76V832a96 96 0 0 1-86.784 95.616L704 928H128a96 96 0 0 1-95.552-86.784L32 832V512a96 96 0 0 1 86.784-95.616L128 416h210.56zM320 544a128 128 0 1 1 5.76 256 128 128 0 0 1-5.76-256z m0 64a64 64 0 1 0-4.096 128A64 64 0 0 0 320 608z m287.552-325.504L608 288v320a32 32 0 0 1-63.488 5.76L544 608V365.184l-9.344 9.472a32 32 0 0 1-40.832 3.648l-4.48-3.648a32 32 0 0 1-3.648-40.832l3.648-4.48 64-64a32 32 0 0 1 54.208 17.152zM704 256a32 32 0 0 1 31.488 26.24l0.512 5.76v242.688l9.344-9.344a32 32 0 0 1 40.832-3.648l4.48 3.648a32 32 0 0 1 3.648 40.832l-3.648 4.48-64 64a32 32 0 0 1-54.208-17.152L672 608v-320A32 32 0 0 1 704 256z m192-128a96 96 0 0 1 95.552 86.72l0.448 9.28v320a32 32 0 0 1-63.488 5.76L928 544v-320a32 32 0 0 0-26.24-31.488L896 192H320a32 32 0 0 0-31.488 26.24L288 224v65.728a32 32 0 0 1-63.488 5.76l-0.512-5.76V224a96 96 0 0 1 86.784-95.552L320 128h576z" p-id="4300"></path></svg>