<?xml version="1.0" standalone="no"?><!DOCTYPE svg PUBLIC "-//W3C//DTD SVG 1.1//EN" "http://www.w3.org/Graphics/SVG/1.1/DTD/svg11.dtd"><svg t="1610340968064" class="icon" viewBox="0 0 1024 1024" version="1.1" xmlns="http://www.w3.org/2000/svg" p-id="4585" xmlns:xlink="http://www.w3.org/1999/xlink" width="200" height="200"><defs><style type="text/css"></style></defs><path d="M979.2 158.848a32 32 0 0 0-38.4-23.936l-166.848 38.656a32 32 0 0 0-15.808 53.376l36.416 37.696-194.56 173.568-101.056-95.68a32 32 0 0 0-45.12 1.152L237.056 570.944A64 64 0 1 0 288 633.6a62.784 62.784 0 0 0-3.392-19.712L478.08 410.944l99.2 93.952a32 32 0 0 0 43.264 0.64l218.432-194.816 41.536 42.944a32 32 0 0 0 53.888-13.888l44.416-165.44a31.872 31.872 0 0 0 0.32-15.488z m-51.2 291.584a32 32 0 0 0-32 32V736a32 32 0 0 1-32 32h-704a32 32 0 0 1-32-32v-576a32 32 0 0 1 32-32h530.624a32 32 0 1 0 0-64H160A96 96 0 0 0 64 160v576A96 96 0 0 0 160 832h704a96 96 0 0 0 96-96V482.432a32 32 0 0 0-32-32zM912 896H112a32 32 0 1 0 0 64h800a32 32 0 1 0 0-64z" p-id="4586"></path></svg>