<?xml version="1.0" standalone="no"?><!DOCTYPE svg PUBLIC "-//W3C//DTD SVG 1.1//EN" "http://www.w3.org/Graphics/SVG/1.1/DTD/svg11.dtd"><svg t="1610340891445" class="icon" viewBox="0 0 1024 1024" version="1.1" xmlns="http://www.w3.org/2000/svg" p-id="3441" xmlns:xlink="http://www.w3.org/1999/xlink" width="200" height="200"><defs><style type="text/css"></style></defs><path d="M591.1552 934.4a35.1744 35.1744 0 1 1 0 70.4H134.4a105.5744 105.5744 0 0 1-105.6256-105.6256V124.8256C28.8256 66.4576 76.1344 19.2512 134.4512 19.2512h598.4256c58.3168 0 105.5744 47.2576 105.5744 105.6256a35.1744 35.1744 0 1 1-70.4 0 35.1744 35.1744 0 0 0-35.2256-35.2256H134.4512a35.1744 35.1744 0 0 0-35.2256 35.2256v774.3488c0 19.456 15.7696 35.2256 35.2256 35.2256h456.7552z m247.2448-341.248v161.28c0 46.9504-70.4 46.9504-70.4 0v-161.28c0-46.9504 70.4-46.9504 70.4 0zM239.9744 300.8a35.1744 35.1744 0 1 1 0-70.4H486.4a35.1744 35.1744 0 1 1 0 70.4H239.9744z m0 176.0256a35.1744 35.1744 0 1 1 0-70.4512h140.8a35.1744 35.1744 0 1 1 0 70.4h-140.8z m386.56 491.2128a35.1744 35.1744 0 1 1-70.3488 0l0.6144-139.264c0-58.3168 47.2576-105.5744 105.6256-105.5744l140.4928 1.28a35.1744 35.1744 0 1 1 0 70.4l-140.544-1.28a35.1744 35.1744 0 0 0-35.1744 35.2256l-0.6144 139.264z m-1.6384 23.1936a35.2256 35.2256 0 0 1-48.7424-50.8416l198.4512-190.3104a35.2256 35.2256 0 1 1 48.6912 50.7904l-198.4 190.3616z m267.264-674.4576a34.56 34.56 0 0 0 3.6864-48.8448l-0.4608-0.5632a35.1744 35.1744 0 0 0-49.408-3.6864l-473.6 402.6368-16.7424 57.0368 64.1536-5.0176 472.3712-401.5616z m56.832-95.0272a104.9088 104.9088 0 0 1-10.3936 147.968L456.704 779.3152a35.2256 35.2256 0 0 1-20.0192 8.2944l-126.464 9.728a35.1744 35.1744 0 0 1-36.5056-44.9536l34.048-116.0192a35.1744 35.1744 0 0 1 10.9568-16.896l481.6384-409.4464a105.6256 105.6256 0 0 1 148.1728 11.1104l0.4096 0.512z" p-id="3442"></path></svg>