<?xml version="1.0" standalone="no"?><!DOCTYPE svg PUBLIC "-//W3C//DTD SVG 1.1//EN" "http://www.w3.org/Graphics/SVG/1.1/DTD/svg11.dtd"><svg t="1610340931118" class="icon" viewBox="0 0 1024 1024" version="1.1" xmlns="http://www.w3.org/2000/svg" p-id="3727" xmlns:xlink="http://www.w3.org/1999/xlink" width="200" height="200"><defs><style type="text/css"></style></defs><path d="M328.005818 512L409.6 620.823273a32.023273 32.023273 0 0 1-51.2 38.4l-96.023273-128a32.023273 32.023273 0 0 1 0-38.4L358.4 364.823273a32.023273 32.023273 0 1 1 51.2 38.353454L328.005818 512z m382.370909 108.823273a31.976727 31.976727 0 1 0 51.2 38.4l96.023273-128a32.023273 32.023273 0 0 0 0-38.4l-96.023273-128a32.023273 32.023273 0 0 0-51.2 38.353454L792.017455 512l-81.640728 108.823273z m-151.133091 26.112a31.976727 31.976727 0 0 1-62.464-13.870546l64-288.023272a32.023273 32.023273 0 0 1 62.464 13.91709l-64 287.976728z m315.298909 92.951272a32.023273 32.023273 0 0 1 41.984 48.314182l-220.439272 195.956364a31.976727 31.976727 0 0 1-20.945455 7.866182H195.025455c-54.877091 0-99.002182-45.381818-99.002182-100.957091V132.933818C96.023273 77.358545 140.101818 32.023273 195.025455 32.023273h633.94909c54.877091 0 99.002182 45.335273 99.002182 100.910545v134.981818a31.976727 31.976727 0 1 1-64 0v-134.981818c0-20.619636-15.872-36.910545-35.002182-36.910545H195.025455c-19.083636 0-35.002182 16.290909-35.002182 36.910545v758.132364c0 20.619636 15.872 36.957091 35.002182 36.957091h468.107636l211.456-188.136728z m53.434182 23.272728a31.976727 31.976727 0 1 1-64 0v-91.182546a31.976727 31.976727 0 1 1 64 0v91.229091z" p-id="3728"></path></svg>