<?xml version="1.0" encoding="UTF-8"?>
<svg width="147px" height="174px" viewBox="0 0 147 174" version="1.1" xmlns="http://www.w3.org/2000/svg" xmlns:xlink="http://www.w3.org/1999/xlink">
    <!-- Generator: Sketch 64 (93537) - https://sketch.com -->
    <title>编组 21</title>
    <desc>Created with Sketch.</desc>
    <defs>
        <linearGradient x1="0%" y1="50.0011013%" x2="100%" y2="50.0011013%" id="linearGradient-1">
            <stop stop-color="#FFFFFF" stop-opacity="0" offset="21%"></stop>
            <stop stop-color="#FFFFFF" stop-opacity="0.2" offset="100%"></stop>
        </linearGradient>
    </defs>
    <g id="工作空间首页" stroke="none" stroke-width="1" fill="none" fill-rule="evenodd">
        <g id="工作空间首页-应用开发" transform="translate(-479.000000, -513.000000)">
            <g id="编组-21" transform="translate(477.000000, 510.000000)">
                <rect id="矩形备份-3" x="0" y="0" width="150" height="180"></rect>
                <g id="Coding_SVG" transform="translate(2.000000, 3.000000)" fill-rule="nonzero">
                    <g id="编组-25" transform="translate(29.788079, 139.000000)">
                        <polygon id="路径备份" fill="#D6D8E5" opacity="0.4" points="8.01708176 34.0801041 6.52899368e-14 29.4935526 11.9955961 22.6287387 20.0089246 27.2115369"></polygon>
                        <polygon id="路径备份-2" fill="#D6D8E5" points="8.18222763 24.8356882 1.54261264 21.0035531 8.18222763 17.1714181 14.8180893 21.0035531"></polygon>
                        <polygon id="路径备份-3" fill="#B1B6C4" points="8.18222763 32.4999583 1.54261264 28.6678232 1.54261264 21.0035531 8.18222763 24.8356882"></polygon>
                        <polygon id="路径备份-4" fill="#C4C7D6" points="14.8218426 28.6678232 8.18222763 32.4999583 8.18222763 24.8356882 14.8218426 21.0035531"></polygon>
                        <g id="Men_5备份" transform="translate(1.876658, 0.000000)">
                            <path d="M15.2272007,26.273208 C15.8013427,26.4330865 16.4154493,26.3588538 16.9349592,26.0667757 C17.3478239,26.0667757 19.5847999,25.1246935 19.8888185,25.927903 C20.1553039,26.629773 19.1869485,27.2828499 18.6689909,27.4067093 C17.5429963,27.6807013 16.7022537,28.2436986 16.2481025,28.3412848 C15.8969016,28.4671958 15.5061364,28.4109706 15.2046808,28.1911522 C14.8818957,27.8533538 14.9119222,26.6748128 15.2272007,26.273208 Z" id="路径" fill="#38226D"></path>
                            <path d="M16.2481025,28.1273458 C16.7022537,28.0297596 17.539243,27.4667623 18.6689909,27.1927703 C19.1006222,27.0876774 19.847532,26.6147597 19.9225983,26.0480091 C20.0239378,26.6973326 19.1494153,27.2715899 18.6689909,27.3879427 C17.5429963,27.6619347 16.7022537,28.224932 16.2481025,28.3225182 C15.8969016,28.4484292 15.5061364,28.392204 15.2046808,28.1723856 C15.1331315,28.0966304 15.0826648,28.0034612 15.0583015,27.9021469 C15.3969336,28.1612322 15.8382097,28.2447545 16.2481025,28.1273458 L16.2481025,28.1273458 Z" id="路径" fill="#9C73FF"></path>
                            <path d="M11.1961399,24.107545 C11.770282,24.2674235 12.3843885,24.1931908 12.9038984,23.9011126 C13.3167631,23.9011126 15.5312192,22.9590305 15.8540044,23.76224 C16.1204898,24.46411 15.1521344,25.1171868 14.6379302,25.2410463 C13.5119355,25.5150383 12.6711929,26.0780356 12.2170417,26.1756218 C11.8658409,26.3015328 11.4750756,26.2453076 11.17362,26.0254892 C10.8508349,25.7064574 10.8846147,24.5279163 11.1961399,24.107545 Z" id="路径" fill="#38226D"></path>
                            <path d="M12.2170417,25.9804494 C12.6711929,25.8828632 13.5081822,25.3198659 14.6379302,25.0458739 C15.0695614,24.940781 15.8164712,24.4678633 15.8915375,23.9011126 C15.992877,24.5504362 15.1183545,25.1246935 14.6379302,25.2410463 C13.5119355,25.5150383 12.6711929,26.0780356 12.2170417,26.1756218 C11.8658409,26.3015328 11.4750756,26.2453076 11.17362,26.0254892 C11.1029124,25.9505881 11.0525244,25.8588561 11.0272407,25.7590038 C11.36701,26.0156793 11.807678,26.0976963 12.2170417,25.9804494 Z" id="路径" fill="#9C73FF"></path>
                            <path d="M4.91684321,21.3263383 C6.66213489,22.0770014 8.2948271,22.2121207 9.64977397,21.4914841 L11.0385007,20.6882746 C11.1210736,22.4823594 11.1998932,24.2051312 11.1998932,24.2051312 C11.1998932,24.2051312 12.2658348,25.012094 13.076551,24.2914575 C13.076551,24.2914575 13.2492035,21.7767361 13.4256093,19.2995479 L14.8818957,18.4588053 C14.8468044,18.5911505 14.8278997,18.7272643 14.8255959,18.8641633 C14.8255959,19.3333278 15.1633943,26.3257544 15.1633943,26.3257544 C15.1633943,26.3257544 16.2368425,26.963818 17.0663253,26.2469348 C17.0663253,26.2469348 17.6255693,18.1435268 17.753182,16.8636462 C17.895808,15.4073598 16.2818823,14.6904766 15.2572272,15.0620548 L13.695848,15.6438187 L13.7709143,14.743023 C13.9172936,13.2867366 12.2996147,12.5698534 11.2787129,12.9414316 C10.3478906,13.2829833 4.05733398,15.6400654 4.05733398,15.6400654 C4.09647385,16.245595 4.17041116,16.8483721 4.27877959,17.4454101 L1.79408477,17.2352244 C1.66271873,19.5585267 3.17530485,20.5606619 4.91684321,21.3263383 Z M9.25567585,17.2990308 L10.9183946,16.3419354 C10.8906841,16.4590631 10.8731038,16.5783582 10.8658482,16.6985003 L9.25567585,17.2990308 Z" id="形状" fill="#2E92F7"></path>
                            <path d="M0.450397851,10.1339517 C0.450397851,10.1339517 0.653076885,13.2229303 1.05843495,13.6695748 C1.46379302,14.1162193 2.83750646,14.4202379 2.83750646,14.4202379 L3.8921881,16.1392563 C3.8921881,16.1392563 2.92758603,10.6293893 2.71740037,10.5092832 C2.50721471,10.3891771 0.450397851,10.1339517 0.450397851,10.1339517 Z" id="路径" fill="#FFCEA9"></path>
                            <path d="M2.4809415,6.69966804 C1.95178399,6.45259173 1.3214536,6.63751008 1.00964185,7.13129931 C0.634310307,7.77311625 0.217692295,9.98381904 0.180159141,10.3591506 C0.497215477,10.7873575 1.01114865,11.0237951 1.54261264,10.9859543 L2.4809415,6.69966804 Z" id="_Контур_" fill="#EDEDED"></path>
                            <path d="M2.85251973,6.75596777 C3.38549052,6.78224098 3.78334195,6.91736033 3.85090163,6.75596777 C3.90812409,6.48097248 3.94823645,6.20269298 3.97100772,5.92273175 C3.91095468,5.7650925 3.85840826,5.59994662 3.85840826,5.59994662 C3.1865648,5.18708192 2.97637913,4.47395199 2.88629956,3.61819607 C2.73616695,2.17316963 3.51685656,0.912055649 4.95812968,0.761923032 C6.31682987,0.619297046 7.31521177,1.57263916 7.58545048,2.88254625 C7.72807647,3.5281165 8.01332844,4.75920396 7.62673695,5.8138856 C7.41279797,6.40690944 7.13505263,6.87982718 6.87607387,6.96990675 C6.60718474,6.96426768 6.33891748,6.94170315 6.07286436,6.90234707 L6.07286436,6.90234707 C6.07286436,6.90234707 6.00155137,7.30395182 5.95275827,7.55917727 C5.90396517,7.81440272 5.91897843,7.95327539 6.43318264,8.26855389 C6.94738686,8.58383239 5.65999967,9.23315595 4.81925701,9.16934959 C3.97851435,9.10554323 3.03267887,8.59884565 2.7737001,8.04335496 C2.46217492,7.43531786 2.48469481,6.72218793 2.85251973,6.75596777 Z" id="_Контур_2" fill="#FFCEA9"></path>
                            <g id="_Группа_" transform="translate(5.629973, 7.506631)">
                                <g id="_Группа_2">
                                    <g id="_Группа_3" transform="translate(0.000000, 4.879310)">
                                        <path d="M10.757002,3.80961516 L10.757002,3.80961516 C10.7563883,3.96454733 10.6734867,4.10748123 10.5393097,4.1849467 L6.46696248,6.53452216 C6.33246477,6.61307871 6.16607561,6.61307871 6.03157789,6.53452216 L0.326538442,3.23911121 C0.191216587,3.16279875 0.1078905,3.01913309 0.108838015,2.86377967 L0.108838015,2.83375315 L10.757002,3.80961516 Z" id="_Контур_3" fill="#E5E5E5"></path>
                                        <path d="M10.5393097,4.1849467 L6.46696248,6.53452216 C6.40138935,6.5743816 6.32600511,6.59517725 6.24927019,6.59458792 L6.24927019,3.80961516 L10.753249,3.80961516 C10.7534149,3.96377872 10.6720432,4.10653597 10.5393097,4.1849467 L10.5393097,4.1849467 Z" id="_Контур_4" fill="#E5E5E5"></path>
                                        <g id="_Группа_4" fill="#F4F4F4">
                                            <path d="M6.40315612,6.32058318 C6.30952681,6.37648842 6.19276688,6.37648842 6.09913757,6.32058318 L0.165145879,2.89755951 C0.0900795703,2.85251973 0.0900795703,2.78120673 0.165145879,2.73992026 L4.53400504,0.213938979 L10.757002,3.80961516 L6.40315612,6.32058318 Z" id="_Контур_5"></path>
                                        </g>
                                        <g id="_Группа_5" transform="translate(2.251989, 3.002652)">
                                            <polygon id="_Контур_6" fill="#BFBFBF" points="0.349058335 0.806962817 0.379084858 0.821976079 2.28201578 1.9216975 3.32543747 1.31741372 3.35546399 1.30240045 1.42250655 0.187665771"></polygon>
                                            <polygon id="_Контур_7" fill="#E5E5E5" points="0.379084858 0.821976079 2.28201578 1.9216975 3.32543747 1.31741372 1.42250655 0.22144561"></polygon>
                                        </g>
                                        <path d="M9.14307638,3.98602099 L9.41706841,4.14366023 C9.44396999,4.15834633 9.47649308,4.15834633 9.50339467,4.14366023 L9.76612675,3.99352762 C9.79239995,3.99352762 9.79615327,3.95599446 9.76612675,3.94473452 L9.49213472,3.78334195 C9.46479813,3.77047292 9.43314505,3.77047292 9.40580846,3.78334195 L9.14307638,3.93722788 C9.12430981,3.95224115 9.12055649,3.97476104 9.14307638,3.98602099 Z" id="路径" fill="#3A2C6D"></path>
                                        <path d="M8.75648489,3.75331543 L9.03047692,3.91095468 C9.0573785,3.92564078 9.08990159,3.92564078 9.11680318,3.91095468 L9.37953526,3.76082206 C9.40580846,3.76082206 9.40580846,3.72328891 9.37953526,3.71202896 L9.10554323,3.55438971 C9.07864165,3.53970361 9.04611856,3.53970361 9.01921697,3.55438971 L8.75648489,3.70452233 C8.73771832,3.72704222 8.733965,3.75331543 8.75648489,3.75331543 Z" id="路径" fill="#3A2C6D"></path>
                                        <path d="M8.36614009,3.53937645 L8.64013212,3.6970157 C8.66874988,3.7100234 8.70159392,3.7100234 8.73021169,3.6970157 L8.98919045,3.54688308 C9.01546366,3.54688308 9.01921697,3.50934993 8.98919045,3.49433666 L8.71519843,3.33669742 C8.68829684,3.32201132 8.65577375,3.32201132 8.62887217,3.33669742 L8.36614009,3.48683003 C8.34737351,3.50184329 8.3436202,3.52436319 8.36614009,3.53937645 Z" id="路径" fill="#3A2C6D"></path>
                                        <path d="M7.9795486,3.31417752 L8.25354063,3.47181677 C8.28087721,3.4846858 8.3125303,3.4846858 8.33986688,3.47181677 L8.60259896,3.32168415 C8.62887217,3.32168415 8.63262549,3.284151 8.60259896,3.26913774 L8.32860694,3.11149849 C8.29998917,3.09849079 8.26714513,3.09849079 8.23852737,3.11149849 L7.9795486,3.26163111 C7.96078202,3.27664437 7.95702871,3.29916426 7.9795486,3.31417752 Z" id="路径" fill="#3A2C6D"></path>
                                        <path d="M7.5892038,3.0889786 L7.86694914,3.24661785 C7.89385072,3.26130395 7.92637381,3.26130395 7.95327539,3.24661785 L8.21225416,3.09648523 C8.23852737,3.09648523 8.24228068,3.05895207 8.21225416,3.04769213 L7.93826213,2.88629956 C7.91092555,2.87343053 7.87927246,2.87343053 7.85193588,2.88629956 L7.5892038,3.0401855 C7.57043722,3.05519876 7.5666839,3.07771865 7.5892038,3.0889786 Z" id="路径" fill="#3A2C6D"></path>
                                        <path d="M7.20261231,2.86377967 L7.47660433,3.02517224 C7.50394092,3.03804127 7.535594,3.03804127 7.56293059,3.02517224 L7.82566267,2.8712863 C7.85193588,2.8712863 7.85568919,2.83375315 7.82566267,2.8224932 L7.55167064,2.66485395 C7.52344018,2.65016661 7.48982153,2.65016661 7.46159107,2.66485395 L7.20261231,2.81498657 C7.18384573,2.82999983 7.18009241,2.85251973 7.20261231,2.86377967 Z" id="路径" fill="#3A2C6D"></path>
                                        <path d="M6.81602082,2.6273208 L7.09001284,2.78496005 C7.11734943,2.79782908 7.14900251,2.79782908 7.1763391,2.78496005 L7.43907118,2.63482743 C7.46534439,2.63482743 7.46534439,2.59729428 7.43907118,2.58228101 L7.16507915,2.42464177 C7.13774257,2.41177273 7.10608948,2.41177273 7.0787529,2.42464177 L6.81602082,2.57477438 C6.79350093,2.60480091 6.79350093,2.6273208 6.81602082,2.6273208 Z" id="路径" fill="#3A2C6D"></path>
                                        <path d="M6.42567601,2.41713514 L6.69966804,2.57477438 C6.72656962,2.58946048 6.75909271,2.58946048 6.78599429,2.57477438 L7.04872637,2.42464177 C7.07499958,2.42464177 7.0787529,2.38710861 7.04872637,2.37584867 L6.77473435,2.2144561 C6.74739776,2.20158707 6.71574468,2.20158707 6.68840809,2.2144561 L6.42567601,2.36834204 C6.40690944,2.3833553 6.40315612,2.40587519 6.42567601,2.41713514 Z" id="路径" fill="#3A2C6D"></path>
                                        <path d="M6.03908452,2.19193621 L6.31307655,2.34957546 C6.33997813,2.36426156 6.37250122,2.36426156 6.39940281,2.34957546 L6.66213489,2.19944284 C6.68840809,2.19944284 6.68840809,2.16190969 6.66213489,2.15064974 L6.38063623,1.98925718 C6.35373465,1.97457108 6.32121156,1.97457108 6.29430997,1.98925718 L6.03157789,2.13938979 C6.00530469,2.15815637 6.00530469,2.18067626 6.03908452,2.19193621 Z" id="路径" fill="#3A2C6D"></path>
                                        <path d="M5.64873972,1.9704906 L5.92273175,2.12812985 C5.95134951,2.14113755 5.98419355,2.14113755 6.01281132,2.12812985 L6.27179008,1.97799723 C6.29806329,1.97799723 6.3018166,1.94046408 6.27179008,1.92545081 L6.00530469,1.76405825 C5.9784031,1.74937215 5.94588001,1.74937215 5.91897843,1.76405825 L5.65624635,1.91419087 C5.62997314,1.93295745 5.62997314,1.95547734 5.64873972,1.9704906 Z" id="路径" fill="#3A2C6D"></path>
                                        <path d="M5.2546416,1.74529167 L5.52863363,1.90293092 C5.55597021,1.91579995 5.5876233,1.91579995 5.61495988,1.90293092 L5.87769196,1.75279831 C5.90396517,1.75279831 5.90771848,1.71526515 5.87769196,1.70025189 L5.62997314,1.53885933 C5.60135538,1.52585162 5.56851134,1.52585162 5.53989357,1.53885933 L5.28091481,1.68899194 C5.2546416,1.70775852 5.2546416,1.73027841 5.2546416,1.74529167 Z" id="路径" fill="#3A2C6D"></path>
                                        <path d="M4.87931006,1.52009275 L5.1570554,1.677732 C5.18395698,1.6924181 5.21648007,1.6924181 5.24338165,1.677732 L5.50611373,1.52759938 C5.52863363,1.52759938 5.53238694,1.49006623 5.50611373,1.47880628 L5.23212171,1.31741372 C5.20478512,1.30454468 5.17313204,1.30454468 5.14579545,1.31741372 L4.88306337,1.47129965 C4.85303685,1.50132617 4.85303685,1.50132617 4.87931006,1.52009275 Z" id="路径" fill="#3A2C6D"></path>
                                        <path d="M4.50397851,1.29489382 L4.77797054,1.45628639 C4.80530713,1.46915542 4.83696021,1.46915542 4.8642968,1.45628639 L5.12702888,1.30240045 C5.15330208,1.30240045 5.1570554,1.2648673 5.12702888,1.25360735 L4.85303685,1.09596811 C4.82480639,1.08128076 4.79118774,1.08128076 4.76295728,1.09596811 L4.50397851,1.24610072 C4.46644536,1.26111398 4.46269204,1.28363388 4.50397851,1.29489382 Z" id="路径" fill="#3A2C6D"></path>
                                        <path d="M3.91095468,0.964602065 L4.37261247,1.23108746 C4.39994906,1.24395649 4.43160214,1.24395649 4.45893873,1.23108746 L4.72167081,1.08095484 C4.74794402,1.08095484 4.74794402,1.04342169 4.72167081,1.02840843 L4.26376633,0.750663086 C4.23642974,0.737794053 4.20477666,0.737794053 4.17744007,0.750663086 L3.91470799,0.904549018 C3.90398055,0.903878553 3.89371029,0.908982041 3.88776593,0.917937047 C3.88182157,0.926892053 3.88110619,0.938338099 3.88588927,0.94796357 C3.89067236,0.957589041 3.90022723,0.9639316 3.91095468,0.964602065 L3.91095468,0.964602065 Z" id="路径" fill="#3A2C6D"></path>
                                        <path d="M8.18973427,3.86966821 L8.46747961,4.02730745 C8.49438119,4.04199356 8.52690428,4.04199356 8.55380586,4.02730745 L8.81653794,3.87717484 C8.83905783,3.87717484 8.84281115,3.83964168 8.81653794,3.82838174 L8.54254592,3.67074249 C8.51564433,3.65605639 8.48312124,3.65605639 8.45621966,3.67074249 L8.19348758,3.82087511 C8.17096769,3.83588837 8.17096769,3.85840826 8.18973427,3.86966821 Z" id="路径" fill="#3A2C6D"></path>
                                        <path d="M7.80314278,3.64446928 L8.0771348,3.80586184 C8.10447139,3.81873088 8.13612447,3.81873088 8.16346106,3.80586184 L8.42619314,3.65197591 C8.45246635,3.65197591 8.45621966,3.61444276 8.42619314,3.60318281 L8.15220111,3.44554356 C8.12397065,3.43085622 8.090352,3.43085622 8.06212154,3.44554356 L7.80314278,3.59567618 C7.7843762,3.61068944 7.78062288,3.63320933 7.80314278,3.64446928 Z" id="路径" fill="#3A2C6D"></path>
                                        <path d="M7.41279797,3.42302367 L7.68679,3.58066292 C7.71540776,3.59367062 7.7482518,3.59367062 7.77686957,3.58066292 L8.03584833,3.4305303 C8.06212154,3.4305303 8.06587486,3.39299715 8.03584833,3.37798389 L7.76185631,3.22034464 C7.73451972,3.20747561 7.70286664,3.20747561 7.67553005,3.22034464 L7.41279797,3.37047725 C7.39403139,3.37798389 7.39027808,3.40801041 7.41279797,3.42302367 Z" id="路径" fill="#3A2C6D"></path>
                                        <path d="M7.02620648,3.19782475 L7.30019851,3.35546399 C7.32753509,3.36833303 7.35918818,3.36833303 7.38652476,3.35546399 L7.64925684,3.20533138 C7.67553005,3.20533138 7.67553005,3.16779822 7.64925684,3.15278496 L7.37526482,2.99514571 C7.34792823,2.98227668 7.31627515,2.98227668 7.28893856,2.99514571 L7.02620648,3.14527833 C7.00368659,3.16029159 7.00368659,3.18281148 7.02620648,3.19782475 Z" id="路径" fill="#3A2C6D"></path>
                                        <path d="M6.63961499,2.97262582 L6.91360702,3.13401838 C6.94094361,3.14688742 6.97259669,3.14688742 6.99993327,3.13401838 L7.26266535,2.98013245 C7.28893856,2.98013245 7.29269188,2.9425993 7.26266535,2.93133935 L6.98867333,2.7737001 C6.96044287,2.75901275 6.92682422,2.75901275 6.89859376,2.7737001 L6.63961499,2.92383272 C6.62084842,2.93884598 6.6170951,2.96136587 6.63961499,2.97262582 Z" id="路径" fill="#3A2C6D"></path>
                                        <path d="M6.24927019,2.75118021 L6.52326221,2.90881946 C6.55187998,2.92182716 6.58472402,2.92182716 6.61334179,2.90881946 L6.87232055,2.75868684 C6.89859376,2.75868684 6.90234707,2.72115369 6.87232055,2.70614042 L6.59832852,2.54850118 C6.57099194,2.53563214 6.53933885,2.53563214 6.51200227,2.54850118 L6.24927019,2.69863379 C6.23050361,2.71364705 6.2267503,2.73616695 6.24927019,2.75118021 Z" id="路径" fill="#3A2C6D"></path>
                                        <path d="M5.8626787,2.52598128 L6.13667073,2.68362053 C6.16400731,2.69648956 6.19566039,2.69648956 6.22299698,2.68362053 L6.48572906,2.53348791 C6.51200227,2.53348791 6.51200227,2.49595476 6.48572906,2.4809415 L6.21173703,2.32330225 C6.18440045,2.31043322 6.15274737,2.31043322 6.12541078,2.32330225 L5.8626787,2.47343487 C5.84015881,2.48844813 5.84015881,2.51096802 5.8626787,2.52598128 Z" id="路径" fill="#3A2C6D"></path>
                                        <path d="M5.47233389,2.30078236 L5.74632592,2.45842161 C5.7732275,2.47310771 5.80575059,2.47310771 5.83265218,2.45842161 L6.09538426,2.30828899 C6.12165746,2.30828899 6.12541078,2.27075583 6.09538426,2.25949589 L5.82139223,2.09810332 C5.79277446,2.08509562 5.75993043,2.08509562 5.73131266,2.09810332 L5.47233389,2.25198926 C5.45356732,2.25198926 5.449814,2.28952241 5.47233389,2.30078236 Z" id="路径" fill="#3A2C6D"></path>
                                        <path d="M5.08198909,2.07558343 L5.35973443,2.23322268 C5.38663602,2.24790878 5.4191591,2.24790878 5.44606069,2.23322268 L5.70879277,2.08309006 C5.73131266,2.08309006 5.73506597,2.04555691 5.70879277,2.03429696 L5.43480074,1.87665771 C5.40789916,1.86197161 5.37537607,1.86197161 5.34847449,1.87665771 L5.08574241,2.02679033 C5.06322251,2.04180359 5.06322251,2.06432349 5.08198909,2.07558343 Z" id="路径" fill="#3A2C6D"></path>
                                        <path d="M4.6953976,1.85038451 L4.96938963,2.01177707 C4.99672621,2.0246461 5.0283793,2.0246461 5.05571588,2.01177707 L5.31844796,1.85789114 C5.34472117,1.85789114 5.34847449,1.82035798 5.31844796,1.80909804 L5.04445594,1.65145879 C5.01622548,1.63677144 4.98260683,1.63677144 4.95437637,1.65145879 L4.6953976,1.80159141 C4.67663102,1.81660467 4.67287771,1.83912456 4.6953976,1.85038451 Z" id="路径" fill="#3A2C6D"></path>
                                        <path d="M4.3050528,1.6289389 L4.57904482,1.78657814 C4.60766259,1.79958585 4.64050663,1.79958585 4.66912439,1.78657814 L4.92810316,1.63644553 C4.95437637,1.63644553 4.95812968,1.59891237 4.92810316,1.58389911 L4.65411113,1.42625986 C4.62677455,1.41339083 4.59512146,1.41339083 4.56778488,1.42625986 L4.3050528,1.57639248 C4.28628622,1.59140574 4.2825329,1.61392563 4.3050528,1.6289389 Z" id="路径" fill="#3A2C6D"></path>
                                        <path d="M3.91846131,1.40373997 L4.19245333,1.56137922 C4.21978992,1.57424825 4.251443,1.57424825 4.27877959,1.56137922 L4.54151167,1.4112466 C4.56778488,1.4112466 4.56778488,1.37371345 4.54151167,1.35870019 L4.26751964,1.20106094 C4.24018306,1.1881919 4.20852997,1.1881919 4.18119339,1.20106094 L3.91846131,1.35119355 C3.89594141,1.36620682 3.89594141,1.38872671 3.91846131,1.40373997 Z" id="路径" fill="#3A2C6D"></path>
                                        <path d="M8.58007907,4.09486713 L9.04173687,4.36135253 C9.06907345,4.37422156 9.10072654,4.37422156 9.12806312,4.36135253 L9.3907952,4.21121991 C9.41706841,4.21121991 9.42082173,4.17368676 9.3907952,4.15867349 L8.9291374,3.8921881 C8.90051964,3.8791804 8.8676756,3.8791804 8.83905783,3.8921881 L8.58007907,4.04607403 C8.56131249,4.06108729 8.55755918,4.08360719 8.58007907,4.09486713 Z" id="路径" fill="#3A2C6D"></path>
                                        <path d="M3.88468147,0.975862011 L4.15867349,1.13350126 C4.18119339,1.13350126 4.18119339,1.1672811 4.15867349,1.18229436 L3.88092815,1.33993361 C3.85676829,1.35483655 3.82626839,1.35483655 3.80210853,1.33993361 L3.77958864,1.33993361 C3.75587607,1.32848507 3.7282349,1.32848507 3.70452233,1.33993361 L3.41176372,1.5088328 C3.38539224,1.52009882 3.35556227,1.52009882 3.32919079,1.5088328 L3.15653828,1.40749329 C3.13401838,1.40749329 3.13401838,1.37371345 3.15653828,1.35870019 L3.4305303,1.20106094 L3.48683003,1.17103441 L3.5281165,1.14476121 L3.56940297,1.12224131 L3.80210853,0.987121958 C3.82558119,0.968735701 3.85714293,0.964431827 3.88468147,0.975862011 L3.88468147,0.975862011 Z" id="路径" fill="#3A2C6D"></path>
                                        <path d="M7.6379969,4.85303685 L7.91198892,5.0106761 C7.93889051,5.0253622 7.9714136,5.0253622 7.99831518,5.0106761 L8.26104726,4.86054348 C8.28732047,4.86054348 8.28732047,4.82301033 8.26104726,4.81175038 L7.98705523,4.65411113 C7.96015365,4.63942503 7.92763056,4.63942503 7.90072898,4.65411113 L7.6379969,4.80424375 C7.61923032,4.81925701 7.615477,4.8417769 7.6379969,4.85303685 Z" id="路径" fill="#3A2C6D"></path>
                                        <path d="M7.25140541,4.63159124 L7.52539743,4.78923049 C7.55273402,4.80209952 7.5843871,4.80209952 7.61172369,4.78923049 L7.87445577,4.63909787 C7.90072898,4.63909787 7.90072898,4.60156472 7.87445577,4.58655145 L7.60046374,4.42891221 C7.57312716,4.41604317 7.54147407,4.41604317 7.51413749,4.42891221 L7.25140541,4.57904482 C7.22888552,4.59405808 7.22888552,4.61657798 7.25140541,4.63159124 Z" id="路径" fill="#3A2C6D"></path>
                                        <path d="M6.8610606,4.40639231 L7.13880595,4.56403156 C7.16570753,4.57871766 7.19823062,4.57871766 7.2251322,4.56403156 L7.48786428,4.41389894 C7.51038417,4.41389894 7.51413749,4.37636579 7.48786428,4.36510584 L7.21387225,4.2074666 C7.18697067,4.19278049 7.15444758,4.19278049 7.127546,4.2074666 L6.86481392,4.36135253 C6.84229403,4.37261247 6.84229403,4.39513237 6.8610606,4.40639231 Z" id="路径" fill="#3A2C6D"></path>
                                        <path d="M3.56564966,2.50346139 L3.83964168,2.66110064 C3.86787214,2.67578799 3.90149079,2.67578799 3.92972125,2.66110064 L4.18870002,2.51096802 C4.21497323,2.51096802 4.21872654,2.47343487 4.18870002,2.46217492 L3.91470799,2.30078236 C3.88737141,2.28791333 3.85571832,2.28791333 3.82838174,2.30078236 L3.56564966,2.45466829 C3.54688308,2.46968155 3.54312976,2.49220144 3.56564966,2.50346139 Z" id="路径" fill="#3A2C6D"></path>
                                        <path d="M3.17905817,2.28201578 L3.45305019,2.43965503 C3.48038678,2.45252406 3.51203986,2.45252406 3.53937645,2.43965503 L3.80210853,2.2857691 C3.82838174,2.2857691 3.83213505,2.25198926 3.80210853,2.236976 L3.5281165,2.07933675 C3.49988604,2.0646494 3.46626739,2.0646494 3.43803693,2.07933675 L3.17905817,2.22946936 C3.16029159,2.25198926 3.15653828,2.25198926 3.17905817,2.28201578 Z" id="路径" fill="#3A2C6D"></path>
                                        <path d="M2.79246668,2.05681685 L3.06645871,2.2144561 C3.09336029,2.2291422 3.12588338,2.2291422 3.15278496,2.2144561 L3.41551704,2.06432349 C3.44179025,2.06432349 3.44554356,2.02679033 3.41551704,2.01553039 L3.14152501,1.85413782 C3.11290725,1.84113012 3.08006321,1.84113012 3.05144544,1.85413782 L2.79246668,2.00802375 C2.7737001,2.02303702 2.76994679,2.04555691 2.79246668,2.05681685 Z" id="路径" fill="#3A2C6D"></path>
                                        <path d="M2.40587519,1.83161793 L2.67986722,1.99301049 C2.7072038,2.00587953 2.73885688,2.00587953 2.76619347,1.99301049 L3.02892555,1.83912456 C3.05519876,1.83912456 3.05519876,1.80159141 3.02892555,1.79033146 L2.75118021,1.63269221 C2.72427863,1.61800611 2.69175554,1.61800611 2.66485395,1.63269221 L2.40212187,1.78282483 C2.38710861,1.79783809 2.3833553,1.82035798 2.40587519,1.83161793 Z" id="路径" fill="#3A2C6D"></path>
                                        <path d="M6.38063623,4.12864697 L6.75596777,4.34633927 C6.78458554,4.35934697 6.81742958,4.35934697 6.84604734,4.34633927 L7.10502611,4.19620665 C7.13129931,4.19620665 7.13505263,4.15867349 7.10502611,4.14366023 L6.72969456,3.92972125 C6.70279298,3.91503515 6.67026989,3.91503515 6.64336831,3.92972125 L6.38063623,4.07985387 C6.35811634,4.09111382 6.35436302,4.12864697 6.38063623,4.12864697 Z" id="路径" fill="#3A2C6D"></path>
                                        <path d="M3.95224115,2.72866032 L4.32757269,2.9425993 C4.35447427,2.9572854 4.38699736,2.9572854 4.41389894,2.9425993 L4.67663102,2.79246668 C4.70290423,2.79246668 4.70665755,2.75493352 4.67663102,2.73992026 L4.30129948,2.52598128 C4.2739629,2.51311225 4.24230981,2.51311225 4.21497323,2.52598128 L3.95224115,2.6761139 C3.93347457,2.69112716 3.92972125,2.71364705 3.95224115,2.72866032 Z" id="路径" fill="#3A2C6D"></path>
                                        <path d="M4.44017215,3.00265234 L6.26428345,4.05733398 C6.29162004,4.07020301 6.32327312,4.07020301 6.35060971,4.05733398 L6.61334179,3.90720136 C6.63961499,3.90720136 6.63961499,3.86966821 6.61334179,3.85465495 L4.7929838,2.80372663 C4.76475334,2.78903928 4.73113469,2.78903928 4.70290423,2.80372663 L4.44392547,2.95385924 C4.42140557,2.97262582 4.41765226,3.00265234 4.44017215,3.00265234 Z" id="路径" fill="#3A2C6D"></path>
                                        <path d="M7.70930989,4.02730745 L7.98330192,4.1849467 C8.0102035,4.1996328 8.04272659,4.1996328 8.06962817,4.1849467 L8.33236025,4.03481409 C8.35863346,4.03481409 8.36238677,3.99728093 8.33236025,3.98226767 L8.05836823,3.82462842 C8.02975046,3.81162072 7.99690642,3.81162072 7.96828865,3.82462842 L7.70930989,3.97476104 C7.69054331,3.9897743 7.68679,4.01229419 7.70930989,4.02730745 Z" id="路径" fill="#3A2C6D"></path>
                                        <path d="M7.3227184,3.80210853 L7.59671043,3.95974778 C7.62361201,3.97443388 7.6561351,3.97443388 7.68303668,3.95974778 L7.94576876,3.80961516 C7.97204197,3.80961516 7.97204197,3.77208201 7.94576876,3.76082206 L7.67177674,3.60318281 C7.64487515,3.58849671 7.61235206,3.58849671 7.58545048,3.60318281 L7.3227184,3.75331543 C7.30395182,3.75331543 7.30019851,3.79084858 7.3227184,3.80210853 Z" id="路径" fill="#3A2C6D"></path>
                                        <path d="M6.9323736,3.58066292 L7.21011894,3.73830217 C7.23745552,3.7511712 7.26910861,3.7511712 7.29644519,3.73830217 L7.55917727,3.58816955 C7.58169717,3.58816955 7.58545048,3.5506364 7.55917727,3.53562313 L7.28518525,3.37798389 C7.25784866,3.36511485 7.22619558,3.36511485 7.19885899,3.37798389 L6.93612691,3.5281165 C6.91360702,3.54312976 6.91360702,3.56564966 6.9323736,3.58066292 Z" id="路径" fill="#3A2C6D"></path>
                                        <path d="M6.54578211,3.35546399 L6.81977413,3.51310324 C6.84667572,3.52778934 6.87919881,3.52778934 6.90610039,3.51310324 L7.16883247,3.36297062 C7.19510568,3.36297062 7.19885899,3.32543747 7.16883247,3.31042421 L6.89484044,3.15278496 C6.86750386,3.13991593 6.83585077,3.13991593 6.80851419,3.15278496 L6.54578211,3.30667089 C6.52701553,3.32168415 6.52326221,3.34420405 6.54578211,3.35546399 Z" id="路径" fill="#3A2C6D"></path>
                                        <path d="M6.15919062,3.13026507 L6.43318264,3.28790432 C6.46008423,3.30259042 6.49260732,3.30259042 6.5195089,3.28790432 L6.78224098,3.13401838 C6.80851419,3.13401838 6.8122675,3.09648523 6.78224098,3.08522528 L6.50824895,2.92758603 C6.48001849,2.91289869 6.44639984,2.91289869 6.41816938,2.92758603 L6.15919062,3.07771865 C6.14042404,3.09648523 6.13667073,3.11900512 6.15919062,3.13026507 Z" id="路径" fill="#3A2C6D"></path>
                                        <path d="M5.77259913,2.90881946 L6.04659116,3.06645871 C6.07392774,3.07932774 6.10558082,3.07932774 6.13291741,3.06645871 L6.39564949,2.91632609 C6.41816938,2.91632609 6.4219227,2.87879293 6.39564949,2.86377967 L6.12165746,2.70614042 C6.09432088,2.69327139 6.0626678,2.69327139 6.03533121,2.70614042 L5.77259913,2.85627304 C5.75007924,2.8712863 5.75007924,2.8938062 5.77259913,2.90881946 Z" id="路径" fill="#3A2C6D"></path>
                                        <path d="M5.38225432,2.68362053 L5.65624635,2.84125978 C5.68447681,2.85594713 5.71809546,2.85594713 5.74632592,2.84125978 L6.00530469,2.69112716 C6.03157789,2.69112716 6.03533121,2.65359401 6.00530469,2.64233406 L5.73131266,2.4809415 C5.70397607,2.46807247 5.67232299,2.46807247 5.6449864,2.4809415 L5.38225432,2.63482743 C5.36348775,2.64984069 5.35973443,2.67236059 5.38225432,2.68362053 Z" id="路径" fill="#3A2C6D"></path>
                                        <path d="M4.99566284,2.45842161 L5.2546416,2.6273208 C5.28197819,2.64018983 5.31363127,2.64018983 5.34096785,2.6273208 L5.60369993,2.47343487 C5.62997314,2.47343487 5.63372646,2.43590171 5.60369993,2.42464177 L5.32970791,2.26700252 C5.30147745,2.25231517 5.2678588,2.25231517 5.23962834,2.26700252 L4.98064957,2.41713514 C4.97689626,2.42464177 4.97314294,2.44716166 4.99566284,2.45842161 Z" id="路径" fill="#3A2C6D"></path>
                                        <path d="M4.60907135,2.25198926 L4.88306337,2.40962851 C4.91039996,2.42249754 4.94205304,2.42249754 4.96938963,2.40962851 L5.23212171,2.25949589 C5.25839492,2.25949589 5.25839492,2.22196273 5.23212171,2.20694947 L4.95812968,2.04931022 C4.9307931,2.03644119 4.89914001,2.03644119 4.87180343,2.04931022 L4.60907135,2.19944284 C4.58655145,2.19944284 4.58655145,2.22196273 4.60907135,2.25198926 Z" id="路径" fill="#3A2C6D"></path>
                                        <path d="M4.21872654,2.01177707 L4.49271857,2.16941632 C4.52094903,2.18410367 4.55456768,2.18410367 4.58279814,2.16941632 L4.8417769,2.0192837 C4.86805011,2.0192837 4.87180343,1.98175055 4.8417769,1.9704906 L4.56778488,1.80909804 C4.54044829,1.796229 4.50879521,1.796229 4.48145862,1.80909804 L4.21872654,1.96298397 C4.19995996,1.97799723 4.19620665,2.00051712 4.21872654,2.01177707 Z" id="路径" fill="#3A2C6D"></path>
                                        <path d="M3.83213505,1.78657814 L4.10612708,1.94797071 C4.13346366,1.96083974 4.16511675,1.96083974 4.19245333,1.94797071 L4.45518541,1.79408477 C4.48145862,1.79408477 4.48521194,1.75655162 4.45518541,1.74529167 L4.18119339,1.58765243 C4.15296293,1.57296508 4.11934428,1.57296508 4.09111382,1.58765243 L3.83213505,1.73778504 C3.81336848,1.75279831 3.80961516,1.7753182 3.83213505,1.78657814 Z" id="路径" fill="#3A2C6D"></path>
                                        <path d="M3.44554356,1.56513253 L3.71953559,1.72277178 C3.74687218,1.73564081 3.77852526,1.73564081 3.80586184,1.72277178 L4.06859392,1.57263916 C4.09486713,1.57263916 4.09486713,1.53510601 4.06859392,1.52009275 L3.7946019,1.3624535 C3.76726531,1.34958447 3.73561223,1.34958447 3.70827564,1.3624535 L3.44554356,1.51258612 C3.42302367,1.52759938 3.42302367,1.55011927 3.44554356,1.56513253 Z" id="路径" fill="#3A2C6D"></path>
                                        <path d="M8.09590138,4.25250638 L8.66640532,4.57904482 C8.69374191,4.59191386 8.72539499,4.59191386 8.75273158,4.57904482 L9.01171034,4.42891221 C9.03798355,4.42891221 9.04173687,4.39137905 9.01171034,4.37636579 L8.44495971,4.04982735 C8.41805813,4.03514125 8.38553504,4.03514125 8.35863346,4.04982735 L8.09590138,4.19995996 C8.0771348,4.21497323 8.07338149,4.23749312 8.09590138,4.25250638 Z" id="路径" fill="#3A2C6D"></path>
                                        <path d="M7.52539743,4.3538459 L7.79938946,4.51523846 C7.82672605,4.52810749 7.85837913,4.52810749 7.88571572,4.51523846 L8.1484478,4.36135253 C8.174721,4.36135253 8.17847432,4.32381937 8.1484478,4.31255943 L7.87445577,4.15492018 C7.84755419,4.14023408 7.8150311,4.14023408 7.78812951,4.15492018 L7.52539743,4.3050528 C7.50663086,4.32006606 7.50663086,4.34258595 7.52539743,4.3538459 Z" id="路径" fill="#3A2C6D"></path>
                                        <path d="M7.13129931,4.12864697 L7.40529134,4.28628622 C7.43262793,4.29915525 7.46428101,4.29915525 7.4916176,4.28628622 L7.75434968,4.1361536 C7.78062288,4.1361536 7.7843762,4.09862045 7.75434968,4.08360719 L7.47660433,3.92596794 C7.44926775,3.91309891 7.41761466,3.91309891 7.39027808,3.92596794 L7.13129931,4.07610056 C7.13129931,4.09486713 7.13129931,4.12864697 7.13129931,4.12864697 Z" id="路径" fill="#3A2C6D"></path>
                                        <path d="M6.75596777,3.90720136 L7.0299598,4.06484061 C7.05686138,4.07952671 7.08938447,4.07952671 7.11628605,4.06484061 L7.37901813,3.91470799 C7.40153803,3.91470799 7.40529134,3.87717484 7.37901813,3.86591489 L7.10502611,3.70452233 C7.07768952,3.6916533 7.04603644,3.6916533 7.01869985,3.70452233 L6.75596777,3.85840826 C6.72969456,3.87342152 6.72969456,3.89594141 6.75596777,3.90720136 Z" id="路径" fill="#3A2C6D"></path>
                                        <path d="M6.38063623,3.68200244 L6.65462825,3.843395 C6.68324602,3.8564027 6.71609006,3.8564027 6.74470783,3.843395 L7.00368659,3.68950907 C7.0299598,3.68950907 7.03371311,3.65197591 7.00368659,3.64071597 L6.72969456,3.48307672 C6.70279298,3.46839062 6.67026989,3.46839062 6.64336831,3.48307672 L6.38063623,3.63320933 C6.34310307,3.6482226 6.33934976,3.67074249 6.38063623,3.68200244 Z" id="路径" fill="#3A2C6D"></path>
                                        <path d="M5.97527816,3.46055683 L6.24927019,3.61819607 C6.27660677,3.63106511 6.30825986,3.63106511 6.33559644,3.61819607 L6.59832852,3.46806346 C6.62460173,3.46806346 6.62835505,3.4305303 6.59832852,3.41551704 L6.3243365,3.25787779 C6.29571873,3.24487009 6.26287469,3.24487009 6.23425693,3.25787779 L5.97527816,3.40801041 C5.95651159,3.42302367 5.95275827,3.44554356 5.97527816,3.46055683 Z" id="路径" fill="#3A2C6D"></path>
                                        <path d="M5.58868667,3.2353579 L5.8626787,3.39299715 C5.88958028,3.40768325 5.92210337,3.40768325 5.94900495,3.39299715 L6.21173703,3.24286453 C6.23801024,3.24286453 6.23801024,3.20533138 6.21173703,3.19407143 L5.93774501,3.03643218 C5.91084342,3.02174608 5.87832034,3.02174608 5.85141875,3.03643218 L5.58868667,3.1865648 C5.56616678,3.20157806 5.56616678,3.22409795 5.58868667,3.2353579 Z" id="路径" fill="#3A2C6D"></path>
                                        <path d="M5.19834187,3.00265234 L5.47233389,3.16029159 C5.50095166,3.17329929 5.5337957,3.17329929 5.56241347,3.16029159 L5.82139223,3.01015897 C5.84766544,3.01015897 5.85141875,2.97262582 5.82139223,2.95761256 L5.5474002,2.79997331 C5.52049862,2.78528721 5.48797553,2.78528721 5.46107395,2.79997331 L5.19834187,2.95010593 C5.17957529,2.97637913 5.17582198,3.00265234 5.19834187,3.00265234 Z" id="路径" fill="#3A2C6D"></path>
                                        <path d="M4.81175038,2.78871336 L5.08574241,2.94635261 C5.11264399,2.96103871 5.14516708,2.96103871 5.17206866,2.94635261 L5.43480074,2.79621999 C5.46107395,2.79621999 5.46482726,2.75868684 5.43480074,2.74367358 L5.16080871,2.58603433 C5.13219095,2.57302663 5.09934691,2.57302663 5.07072914,2.58603433 L4.81175038,2.73992026 C4.7929838,2.75118021 4.78923049,2.7737001 4.81175038,2.78871336 Z" id="路径" fill="#3A2C6D"></path>
                                        <path d="M4.42515889,2.56351444 L4.69915092,2.72115369 C4.72636175,2.7345733 4.75826634,2.7345733 4.78547717,2.72115369 L5.04820925,2.56726775 C5.07448246,2.56726775 5.07448246,2.5297346 5.04820925,2.51847465 L4.77046391,2.3608354 C4.74356233,2.3461493 4.71103924,2.3461493 4.68413765,2.3608354 L4.42140557,2.51096802 C4.40639231,2.5297346 4.402639,2.55225449 4.42515889,2.56351444 Z" id="路径" fill="#3A2C6D"></path>
                                        <path d="M4.0385674,2.34206883 L4.31255943,2.49970808 C4.33989601,2.51257711 4.3715491,2.51257711 4.39888568,2.49970808 L4.66161776,2.34957546 C4.68413765,2.34957546 4.68789097,2.3120423 4.66161776,2.29702904 L4.38762574,2.13938979 C4.36028915,2.12652076 4.32863607,2.12652076 4.30129948,2.13938979 L4.0385674,2.28952241 C4.01604751,2.30453567 4.01604751,2.32705557 4.0385674,2.34206883 Z" id="路径" fill="#3A2C6D"></path>
                                        <path d="M3.6482226,2.1168699 L3.92221462,2.27450915 C3.95044508,2.2891965 3.98406373,2.2891965 4.01229419,2.27450915 L4.27127296,2.12437653 C4.29754617,2.12437653 4.30129948,2.08684338 4.27127296,2.07558343 L3.99728093,1.91419087 C3.96994435,1.90132184 3.93829126,1.90132184 3.91095468,1.91419087 L3.6482226,2.0680768 C3.62945602,2.08309006 3.6257027,2.10560996 3.6482226,2.1168699 Z" id="路径" fill="#3A2C6D"></path>
                                        <path d="M2.78120673,1.61767895 L3.53186982,2.05306354 C3.5592064,2.06593257 3.59085949,2.06593257 3.61819607,2.05306354 L3.88092815,1.89917761 C3.90720136,1.89917761 3.91095468,1.86164445 3.88092815,1.85038451 L3.13026507,1.41499992 C3.10203461,1.40031257 3.06841596,1.40031257 3.0401855,1.41499992 L2.78120673,1.56513253 C2.76244016,1.5801458 2.75868684,1.60266569 2.78120673,1.61767895 Z" id="路径" fill="#3A2C6D"></path>
                                        <path d="M7.91198892,4.57904482 L8.28732047,4.79673712 C8.31465705,4.80960615 8.34631014,4.80960615 8.37364672,4.79673712 L8.6363788,4.64285119 C8.66265201,4.64285119 8.66640532,4.60531803 8.6363788,4.59405808 L8.26104726,4.37636579 C8.23371067,4.36349676 8.20205759,4.36349676 8.174721,4.37636579 L7.91198892,4.53025172 C7.8819624,4.54526498 7.8819624,4.56778488 7.91198892,4.57904482 Z" id="路径" fill="#3A2C6D"></path>
                                    </g>
                                    <g id="_Группа_6" transform="translate(4.503979, 0.000000)">
                                        <g id="_Группа_7">
                                            <g id="_Группа_8">
                                                <path d="M6.2530235,8.68892522 L6.2530235,8.68892522 L0.0300265234,5.09324904 L0.0300265234,0.213938979 L0.078819624,0.101339517 L0.127612725,0.078819624 L0.127612725,0.078819624 C0.260731478,0.000133454359 0.426125245,0.000133454359 0.559243999,0.078819624 L6.2530235,3.36297062 C6.38520256,3.44192597 6.46637752,3.58433819 6.46696248,3.73830217 L6.46696248,8.33236025 C6.42567601,8.55380586 6.38063623,8.61010559 6.2530235,8.68892522 Z" id="_Контур_8" fill="#E5E5E5"></path>
                                                <path d="M5.68251956,3.94473452 L0.0300265234,0.375331543 L0.0300265234,0.213938979 L0.078819624,0.101339517 L0.127612725,0.078819624 C0.260731478,0.000133454359 0.426125245,0.000133454359 0.559243999,0.078819624 L6.2530235,3.36297062 C6.32306746,3.40284506 6.37934884,3.46305305 6.41441607,3.53562313 L5.68251956,3.94473452 Z" id="_Контур_9" fill="#E5E5E5"></path>
                                                <path d="M0.17265251,0.0900795703 L6.14793067,3.53937645 C6.2118448,3.57713026 6.2516204,3.64531701 6.2530235,3.71953559 L6.2530235,8.68892522 L0.0299945679,5.09324904 L0.0299945679,0.17265251 C0.0291318425,0.138306574 0.0470799519,0.106218027 0.0768139108,0.08900363 C0.10654787,0.0717892328 0.143312514,0.0722019742 0.17265251,0.0900795703 Z" id="_Контур_10" fill="#DCEEFF"></path>
                                                <path d="M0.17265251,0.0900795703 L6.14793067,3.53937645 C6.2118448,3.57713026 6.2516204,3.64531701 6.2530235,3.71953559 L6.2530235,8.68892522 L0.0299945679,5.09324904 L0.0299945679,0.17265251 C0.0291318425,0.138306574 0.0470799519,0.106218027 0.0768139108,0.08900363 C0.10654787,0.0717892328 0.143312514,0.0722019742 0.17265251,0.0900795703 Z" id="_Контур_11" fill="#F4F4F4"></path>
                                                <polygon id="_Контур_12" fill="#DBDBDB" points="6.2530235 8.68892522 6.2530235 8.50876608 0.0300265234 4.91684321 0.0300265234 5.09324904"></polygon>
                                            </g>
                                            <polygon id="_Контур_13" fill="#1E3779" points="0.191419087 4.83427027 0.191419087 0.349058335 0.266485395 0.390344805 0.266485395 4.79673712"></polygon>
                                            <polygon id="_Контур_14" fill="#3A2C6D" points="0.266485395 0.390344805 0.266485395 4.79673712 6.05409779 8.1259279 6.05409779 3.73079554"></polygon>
                                            <polygon id="_Контур_15" fill="#031F60" points="0.191419087 4.83427027 6.05409779 8.21600747 6.05409779 8.1259279 0.266485395 4.79673712"></polygon>
                                        </g>
                                    </g>
                                </g>
                            </g>
                            <path d="M3.6257027,6.81977413 C3.47557009,7.19510568 3.85465495,7.6379969 4.85679016,7.94576876 C5.85892538,8.25354063 5.94900495,7.85568919 5.94900495,7.85568919 C6.61741207,8.15519304 7.26895761,8.49098959 7.90072898,8.86157773 C8.50125945,9.28194905 8.76774484,10.5017766 8.85031778,12.5585934 C8.94415067,14.9381954 8.9516573,18.4663119 8.87283767,19.0781023 C8.87283767,19.0781023 7.74684304,20.204097 6.30932324,20.0802375 C4.87180343,19.9563781 2.44340834,18.6877575 1.85789114,17.7043889 C1.85789114,15.6175455 2.1168699,15.2759938 1.77907151,14.0749329 C1.00588853,11.3237526 0.596777153,10.197758 0.975862011,8.36614009 C1.28363388,6.86481392 1.7265251,6.67339483 2.31579562,6.68840809 C2.75443281,6.70919642 3.19167269,6.7530457 3.6257027,6.81977413 L3.6257027,6.81977413 Z" id="_Контур_16" fill="#F4F4F4"></path>
                            <path d="M11.2186598,15.1146012 C10.0363655,15.4148665 9.75862011,14.6679567 9.60473418,14.052413 C9.22940264,12.5510868 9.02672361,11.2073999 8.74522495,10.3591506 C8.41493319,9.36076868 8.06962817,9.19937612 7.58169717,9.00420371 C7.01494654,8.77525147 6.52326221,9.25942916 6.71092799,10.5318031 C6.94499647,12.0094554 7.30795086,13.4637848 7.79563615,14.8781424 C7.96827032,15.5148533 8.30173321,16.0964746 8.76399153,16.5671343 C9.37578194,17.0625719 10.2953442,17.040052 11.6840709,16.694747 C12.498553,16.417374 13.289317,16.0747096 14.0486596,15.6700919 C14.3489249,15.5312192 14.5816304,15.4373864 15.1746543,15.1671476 C15.7621319,14.9104296 16.2776453,14.5134842 16.6759804,14.0111265 C16.9762457,13.5719886 17.0175322,13.3655562 16.9574791,13.2604634 C16.8974261,13.1553706 16.7397868,13.1628772 16.5821476,13.3467897 C16.3491846,13.6574357 16.0617777,13.9232235 15.7338983,14.1312326 C15.7338983,14.1312326 16.1092298,13.755901 16.3081555,13.4969223 C16.4904387,13.2681477 16.6407022,13.0156041 16.7548001,12.7462592 C16.8636462,12.4910337 16.6422006,12.1457287 16.4733014,12.3258879 C16.3044022,12.506047 16.2293359,12.7012194 15.921564,13.076551 C15.7608329,13.272124 15.576808,13.4473257 15.37358,13.5982618 C15.564036,13.3421093 15.7334864,13.0709887 15.8802776,12.7875457 C16.0119605,12.5600022 16.0757769,12.2995271 16.06419,12.0368826 C16.06419,11.9055165 15.8652643,11.7478773 15.6888585,11.9993494 C15.5060639,12.3577954 15.2790989,12.6919383 15.0132617,12.993978 C14.743023,13.2754767 14.5140708,13.4368692 14.5065641,13.3693096 C14.4990575,13.3017499 14.67171,13.136604 14.7655429,12.8138189 C14.8593758,12.4910337 14.7655429,12.1419754 14.5853838,12.1044423 C14.4052246,12.0669091 14.4390045,12.0744157 14.2963785,12.3821876 C14.0960221,12.6952093 13.9167179,13.0212169 13.7596544,13.3580496 C13.6670644,13.672388 13.4996377,13.9595892 13.2717234,14.195039 C12.9864714,14.4915509 12.3446544,14.8331026 11.2186598,15.1146012 Z" id="_Контур_17" fill="#FFCEA9"></path>
                            <path d="M7.13129931,8.80152468 C7.91949555,8.6851719 8.47873955,9.04173687 8.82779789,10.2352912 C9.17685622,11.4288455 9.41706841,12.4122141 9.41706841,12.4122141 C9.10551271,12.8634726 8.63257421,13.1778692 8.09590138,13.2904899 C7.15381921,13.5194422 6.8122675,13.0690443 6.8122675,13.0690443 C6.8122675,13.0690443 6.54953542,11.815437 6.38814286,10.9634344 C6.2267503,10.1114318 6.17045056,8.94415067 7.13129931,8.80152468 Z" id="_Контур_18" fill="#EDEDED"></path>
                            <path d="M7.53665738,2.67986722 C7.53665738,2.67986722 8.7827581,0.784442925 6.08037099,0.397851435 C4.13240029,0.120106094 2.87879293,1.36996013 2.73616695,2.72866032 C2.59729428,4.02730745 3.39675046,5.37474769 3.97100772,5.9114718 C4.53840779,6.055903 5.13927161,5.98363876 5.65624635,5.70879277 C5.68846088,5.35444645 5.70099119,4.99858574 5.69377951,4.64285119 C5.69377951,4.64285119 4.7441907,2.64608738 7.53665738,2.67986722 Z" id="路径" fill="#3A2C6D"></path>
                        </g>
                        <polygon id="路径备份-5" fill="#C4C7D6" points="14.8218426 26.6673061 14.8218426 20.9735266 10.2990975 23.6121074 12.0406359 27.2115369"></polygon>
                        <polygon id="路径备份-6" fill="#D6D8E5" points="11.8567234 21.3000651 13.5907552 20.2941765 14.8180893 21.0035531 13.0202512 22.0244549"></polygon>
                    </g>
                    <g id="monitor" transform="translate(34.782491, 0.000000)">
                        <path d="M46.5786445,140.749329 L25.214773,128.415934 C23.6721604,127.526398 23.8673328,125.972526 25.6464043,124.944117 L39.4886316,116.953309 L66.4336831,132.522061 L52.5952091,140.51287 C50.8123843,141.541278 48.1212571,141.650124 46.5786445,140.749329 Z" id="路径" fill="#D6D8E5" opacity="0.4"></path>
                        <path d="M48.1400237,139.84478 L26.772399,127.507632 C25.2335396,126.618096 25.428712,125.067977 27.2040302,124.039568 L41.0462575,116.04876 L67.991309,131.602499 L54.1490817,139.597061 C52.3700102,140.621716 49.678883,140.749329 48.1400237,139.84478 Z" id="路径" fill="#B1B4C4"></path>
                        <polygon id="路径" fill="#B1B4C4" points="67.991309 131.602499 67.991309 130.788029 66.7489616 131.504913"></polygon>
                        <polygon id="路径" fill="#B1B4C4" points="25.7327306 126.040085 25.7327306 125.210603 27.0126111 125.73982"></polygon>
                        <path d="M48.1400237,139.03031 L26.772399,126.693162 C25.2335396,125.803627 25.428712,124.249754 27.2040302,123.225099 L41.0462575,115.226784 L67.991309,130.784276 L54.1490817,138.775085 C52.3700102,139.807246 49.678883,139.916093 48.1400237,139.03031 Z" id="路径" fill="#D6D8E5"></path>
                        <polygon id="路径" fill="#9EA1AF" points="41.1213238 115.26807 37.7846264 104.203296 65.0224365 119.828348 67.991309 130.788029"></polygon>
                        <polygon id="路径" fill="#9EA1AF" points="67.2031127 131.242181 67.991309 130.788029 66.8090146 129.864714"></polygon>
                        <polygon id="路径" fill="#B1B4C4" points="40.2618146 115.684688 36.9251172 104.619914 64.1629273 120.244966 67.2031127 131.242181"></polygon>
                        <path d="M109.405391,149.888652 L3.97100772,89.017382 C2.49220144,88.1616261 1.29489382,85.8721037 1.29489382,83.9016131 L1.29489382,2.34582214 C1.29489382,0.375331543 2.49220144,-0.532970791 3.97100772,0.322785127 L109.405391,61.1790415 C110.884198,62.0310441 112.081505,64.3205665 112.081505,66.2948104 L112.081505,147.880628 C112.081505,149.836105 110.884198,150.744408 109.405391,149.888652 Z" id="路径" fill="#C4C7D6"></path>
                        <polygon id="路径" fill="#C4C7D6" points="109.945869 150.729394 111.116903 150.057551 110.610206 146.593241"></polygon>
                        <path d="M1.10347474,0.821976079 L2.25198926,0.161392563 L3.90344805,1.10347474 C3.90344805,1.10347474 2.14314311,1.36996013 2.10185664,1.35870019 C2.06057017,1.34744024 1.10347474,0.821976079 1.10347474,0.821976079 Z" id="路径" fill="#B1B4C4"></path>
                        <path d="M108.437036,150.447896 L3.00265234,89.576626 C1.52384606,88.7208701 0.322785127,86.4313477 0.322785127,84.4608571 L0.322785127,2.90506614 C0.322785127,0.930822226 1.52384606,0.026273208 3.00265234,0.87827581 L108.433283,61.7495454 C109.912089,62.6053013 111.113159,64.8948238 111.113159,66.8690677 L111.113159,148.421105 C111.116903,150.395349 109.915842,151.299898 108.437036,150.447896 Z" id="路径" fill="#E4E7F2"></path>
                        <path d="M108.253124,150.552988 L2.81873989,89.6817189 C1.33993361,88.8259629 0.142625986,86.5364405 0.142625986,84.5659499 L0.142625986,3.00265234 C0.142625986,1.03216174 1.33993361,0.123859409 2.81873989,0.979615327 L108.253124,61.8583916 C109.73193,62.7103942 110.929237,64.9999166 110.929237,66.9741605 L110.929237,148.529951 C110.929237,150.507949 109.73193,151.408744 108.253124,150.552988 Z" id="路径" fill="#201D38"></path>
                        <path d="M109.480458,145.594859 L1.47880628,83.2410296 L1.53510601,3.33669742 C1.53510601,2.51847465 2.10936327,2.18818289 2.81873989,2.58603433 L108.253124,63.4685639 C109.011049,63.9619542 109.487954,64.7874749 109.536757,65.6905266 L109.480458,145.594859 Z" id="路径" fill="url(#linearGradient-1)" opacity="0.3"></path>
                        <polygon id="路径" fill="#A298E2" points="67.0417202 53.3271056 59.8841477 49.1947053 59.8841477 46.6124243 67.0417202 50.7448246"></polygon>
                        <polygon id="路径" fill="#F4CE2C" points="83.5863346 62.8868 68.3816538 54.1002886 68.3816538 51.5180076 83.5863346 60.304519"></polygon>
                        <polygon id="路径" fill="#A298E2" points="67.0417202 61.5881529 59.8841477 57.4595059 59.8841477 54.8772249 67.0417202 59.0058719"></polygon>
                        <polygon id="路径" fill="#4D3BFF" points="73.4186031 65.3339617 68.3816538 62.3650892 68.3816538 59.7828081 73.4186031 62.7516807"></polygon>
                        <polygon id="路径" fill="#A298E2" points="67.0417202 65.7205532 59.8841477 61.5881529 59.8841477 59.0058719 67.0417202 63.1382721"></polygon>
                        <polygon id="路径" fill="#4D3BFF" points="68.3816538 66.4937361 68.3816538 63.9114551 76.8791599 68.8170384 76.8791599 71.3993194"></polygon>
                        <polygon id="路径" fill="#A298E2" points="67.0417202 69.8492001 59.8841477 65.7205532 59.8841477 63.1382721 67.0417202 67.2706724"></polygon>
                        <polygon id="路径" fill="#FF8657" points="90.7927002 83.5337882 68.3816538 70.6261364 68.3816538 68.0438554 90.7927002 80.9552605"></polygon>
                        <polygon id="路径" fill="#A298E2" points="67.0417202 57.4595059 59.8841477 53.3271056 59.8841477 50.7448246 67.0417202 54.8772249"></polygon>
                        <polygon id="路径" fill="#A298E2" points="96.298814 74.3681919 68.3816538 58.2326889 68.3816538 55.6504079 96.298814 71.7859109"></polygon>
                        <polygon id="路径" fill="#A298E2" points="67.0417202 73.9816004 59.8841477 69.8492001 59.8841477 67.2669191 67.0417202 71.3993194"></polygon>
                        <polygon id="路径" fill="#C33AFC" points="92.5304853 88.957329 68.3816538 74.7585367 68.3816538 72.1762557 92.5304853 86.375048"></polygon>
                        <polygon id="路径" fill="#A298E2" points="67.0417202 82.246401 59.8841477 78.1140007 59.8841477 75.5317197 67.0417202 79.66412"></polygon>
                        <polygon id="路径" fill="#A298E2" points="96.5577927 99.286453 68.3816538 83.019584 68.3816538 80.437303 96.5577927 96.704172"></polygon>
                        <polygon id="路径" fill="#A298E2" points="67.0417202 86.375048 59.8841477 82.246401 59.8841477 79.66412 67.0417202 83.7927669"></polygon>
                        <polygon id="路径" fill="#C33AFC" points="76.8791599 92.0575675 68.3816538 87.1482309 68.3816538 84.5697032 76.8791599 89.4752865"></polygon>
                        <polygon id="路径" fill="#A298E2" points="67.0417202 90.5074482 59.8841477 86.375048 59.8841477 83.7927669 67.0417202 87.9251672"></polygon>
                        <polygon id="路径" fill="#4D3BFF" points="85.744491 101.350777 68.3816538 91.2806312 68.3816538 88.6983502 85.744491 98.7684955"></polygon>
                        <polygon id="路径" fill="#A298E2" points="67.0417202 78.1140007 59.8841477 73.9816004 59.8841477 71.3993194 67.0417202 75.5317197"></polygon>
                        <polygon id="路径" fill="#4D3BFF" points="71.5119189 80.6962817 68.3816538 78.8871837 68.3816538 76.3049027 71.5119189 78.1140007"></polygon>
                        <polygon id="路径" fill="#A298E2" points="67.0417202 94.6398485 59.8841477 90.5074482 59.8841477 87.9251672 67.0417202 92.0575675"></polygon>
                        <polygon id="路径" fill="#C33AFC" points="79.5890537 101.868734 68.3816538 95.4130315 68.3816538 92.8307505 79.5890537 99.286453"></polygon>
                        <polygon id="路径" fill="#A298E2" points="67.0417202 102.900896 59.8841477 98.7684955 59.8841477 96.1862145 67.0417202 100.318615"></polygon>
                        <polygon id="路径" fill="#FF8657" points="84.7348491 112.997314 68.3816538 103.674079 68.3816538 101.091798 84.7348491 110.415033"></polygon>
                        <polygon id="路径" fill="#A298E2" points="67.0417202 107.033296 59.8841477 102.900896 59.8841477 100.318615 67.0417202 104.451015"></polygon>
                        <polygon id="路径" fill="#A298E2" points="70.4234574 109.09762 68.3816538 107.806479 68.3816538 105.224198 70.4234574 106.515339"></polygon>
                        <polygon id="路径" fill="#A298E2" points="67.0417202 111.161943 59.8841477 107.033296 59.8841477 104.451015 67.0417202 108.579662"></polygon>
                        <polygon id="路径" fill="#F4CE2C" points="77.7611891 117.3399 68.3816538 111.938879 68.3816538 109.356598 77.7611891 114.757619"></polygon>
                        <polygon id="路径" fill="#A298E2" points="67.0417202 98.7684955 59.8841477 94.6398485 59.8841477 92.0538142 67.0417202 96.1862145"></polygon>
                        <polygon id="路径" fill="#4D3BFF" points="81.4319315 107.033296 68.3816538 99.5416785 68.3816538 96.9631508 81.4319315 104.451015"></polygon>
                        <polygon id="路径" fill="#A298E2" points="20.7483277 27.5080488 13.5907552 23.3756485 13.5907552 20.7933675 20.7483277 24.9257678"></polygon>
                        <polygon id="路径" fill="#C33AFC" points="52.5013762 45.8392413 22.0882613 28.2812318 22.0882613 25.6989507 52.5013762 43.2569603"></polygon>
                        <polygon id="路径" fill="#A298E2" points="20.7483277 35.769096 13.5907552 31.6366957 13.5907552 29.0544147 20.7483277 33.186815"></polygon>
                        <polygon id="路径" fill="#F4CE2C" points="42.2135386 48.1625436 22.0882613 36.542279 22.0882613 33.959998 42.2135386 45.5802626"></polygon>
                        <polygon id="路径" fill="#A298E2" points="20.7483277 39.9014963 13.5907552 35.769096 13.5907552 33.186815 20.7483277 37.3192153"></polygon>
                        <polygon id="路径" fill="#FF8657" points="47.1341352 55.1324503 22.0882613 40.6746793 22.0882613 38.0923983 47.1341352 52.5501693"></polygon>
                        <polygon id="路径" fill="#A298E2" points="20.7483277 44.0301433 13.5907552 39.9014963 13.5907552 37.3192153 20.7483277 41.4478623"></polygon>
                        <polygon id="路径" fill="#A298E2" points="39.5299181 54.8772249 22.0882613 44.8070796 22.0882613 42.2247986 39.5299181 52.2949439"></polygon>
                        <polygon id="路径" fill="#A298E2" points="20.7483277 31.6366957 13.5907552 27.5042955 13.5907552 24.9257678 20.7483277 29.0544147"></polygon>
                        <polygon id="路径" fill="#4D3BFF" points="37.2929421 41.1926368 22.0882613 32.413632 22.0882613 29.831351 37.2929421 38.6103558"></polygon>
                        <polygon id="路径" fill="#A298E2" points="20.7483277 48.1625436 13.5907552 44.0301433 13.5907552 41.4478623 20.7483277 45.5802626"></polygon>
                        <polygon id="路径" fill="#C33AFC" points="31.032412 54.1002886 22.0882613 48.9357266 22.0882613 46.3534455 31.032412 51.5180076"></polygon>
                        <polygon id="路径" fill="#A298E2" points="20.7483277 56.4235908 13.5907552 52.2911906 13.5907552 49.7126629 20.7483277 53.8413098"></polygon>
                        <polygon id="路径" fill="#F4CE2C" points="50.2644002 73.4673962 22.0882613 57.2005271 22.0882613 54.6182461 50.2644002 70.8851152"></polygon>
                        <polygon id="路径" fill="#A298E2" points="20.7483277 60.5559911 13.5907552 56.4235908 13.5907552 53.8413098 20.7483277 57.9737101"></polygon>
                        <polygon id="路径" fill="#FF8657" points="30.5857674 66.2347574 22.0882613 61.3291741 22.0882613 58.7468931 30.5857674 63.6524764"></polygon>
                        <polygon id="路径" fill="#A298E2" points="20.7483277 64.6883914 13.5907552 60.5559911 13.5907552 57.9737101 20.7483277 62.1061104"></polygon>
                        <polygon id="路径" fill="#A298E2" points="47.1341352 79.9193454 22.0882613 65.4615744 22.0882613 62.8792934 47.1341352 77.3408177"></polygon>
                        <polygon id="路径" fill="#A298E2" points="20.7483277 52.2949439 13.5907552 48.1625436 13.5907552 45.5802626 20.7483277 49.7126629"></polygon>
                        <polygon id="路径" fill="#4D3BFF" points="45.7904482 66.7527149 22.0882613 53.0681268 22.0882613 50.4858458 45.7904482 64.1704339"></polygon>
                        <polygon id="路径" fill="#A298E2" points="20.7483277 68.8170384 13.5907552 64.6846381 13.5907552 62.1061104 20.7483277 66.2347574"></polygon>
                        <polygon id="路径" fill="#C33AFC" points="25.2185264 71.3993194 22.0882613 69.5939747 22.0882613 67.0116937 25.2185264 68.8170384"></polygon>
                        <polygon id="路径" fill="#A298E2" points="20.7483277 77.081839 13.5907552 72.9494387 13.5907552 70.3671577 20.7483277 74.4995579"></polygon>
                        <polygon id="路径" fill="#F4CE2C" points="27.9021469 81.2104859 22.0882613 77.8550219 22.0882613 75.2727409 27.9021469 78.6282049"></polygon>
                        <polygon id="路径" fill="#A298E2" points="20.7483277 81.2104859 13.5907552 77.081839 13.5907552 74.4995579 20.7483277 78.6282049"></polygon>
                        <polygon id="路径" fill="#FF8657" points="37.2929421 90.766427 22.0882613 81.9874222 22.0882613 79.4051412 37.2929421 88.184146"></polygon>
                        <polygon id="路径" fill="#A298E2" points="20.7483277 85.3428862 13.5907552 81.2104859 13.5907552 78.6282049 20.7483277 82.7606052"></polygon>
                        <polygon id="路径" fill="#A298E2" points="46.2370928 100.059636 22.0882613 86.1160692 22.0882613 83.5337882 46.2370928 97.477355"></polygon>
                        <polygon id="路径" fill="#A298E2" points="20.7483277 72.9494387 13.5907552 68.8170384 13.5907552 66.2347574 20.7483277 70.3671577"></polygon>
                        <polygon id="路径" fill="#4D3BFF" points="52.5013762 91.2806312 22.0882613 73.7226216 22.0882613 71.1403406 52.5013762 88.6983502"></polygon>
                    </g>
                    <ellipse id="椭圆形" fill="#D6D8E5" opacity="0.4" cx="111" cy="166.5" rx="13" ry="7.5"></ellipse>
                    <path d="M125,165.60924 L125,146 L99.0467932,146.639332 L99.1027333,164.723308 C98.6179188,166.900083 99.8486018,169.17428 102.804106,170.845678 C107.882227,173.716585 116.114751,173.719629 121.192872,170.845678 C123.744364,169.39348 125.012341,167.499838 125,165.60924 Z" id="路径" fill="#A6CE28"></path>
                    <ellipse id="椭圆形" fill="#BCD64D" cx="112" cy="145.5" rx="13" ry="7.5"></ellipse>
                    <path d="M123,145.501568 C123,146.734246 121.97885,148.029655 120.20511,149.061591 C118.268985,150.178215 115.623989,150.868263 112.838467,150.98118 C112.560539,150.98118 112.282612,151 112.001561,151 C108.910007,151 105.921505,150.291132 103.79489,149.061591 C102.02115,148.029655 101,146.734246 101,145.501568 C101,144.268891 102.02115,142.973482 103.79489,141.941545 C105.921505,140.708868 108.910007,140 111.998439,140 C112.279489,140 112.560539,140 112.838467,140.01882 C115.623989,140.131737 118.268985,140.821785 120.20511,141.941545 C121.97885,142.964072 123,144.246935 123,145.501568 Z" id="路径" fill="#28221C"></path>
                    <path d="M123,145.501574 C123,146.738484 121.995237,148.03834 120.249962,149.07382 C118.344907,150.194278 115.742357,150.886695 113.001536,151 C110.260716,150.886695 107.655093,150.194278 105.753111,149.07382 C104.004763,148.019456 103,146.729041 103,145.501574 C103,144.274106 104.00169,142.964807 105.746966,141.929328 C107.65202,140.805722 110.257643,140.113305 112.998464,140 C115.739284,140.113305 118.341834,140.805722 120.246889,141.929328 C121.995237,142.955365 123,144.242632 123,145.501574 Z" id="路径" fill="#FFFFFF" opacity="0.07"></path>
                    <path d="M122.859622,155.473307 L120.263149,154 L119,154.716589 L120.263149,155.433178 L120.263149,155.90326 L122.698804,157.279111 L122.625705,157.72053 C122.979504,158.007166 124.239729,160.300251 124.239729,160.300251 L124.327448,160.219993 L124.327448,166.161949 C124.327448,167.721247 123.394706,167.193837 122.997048,166.967395 L120.263149,165.419563 L119,166.133286 L120.263149,166.847008 L120.263149,167.317091 L122.997048,168.864923 C123.273271,169.027327 123.567591,169.158124 123.874234,169.254747 L123.710493,170 L125.125688,169.217485 L125.146155,169.217485 L125.166623,169.217485 L125.166623,169.217485 C125.751414,168.879255 126,168.056611 126,167.133644 L126,160.899319 C126.011646,158.265138 123.950257,156.198495 122.859622,155.473307 Z" id="路径" fill="#8DA01F"></path>
                    <path d="M121.859327,169.485521 L119,167.874 L119,165.886458 L121.859327,167.497979 C122.275229,167.730754 123.250765,168.282849 123.250765,166.656407 L123.250765,160.195402 C123.250765,158.667442 121.834862,157.611 121.593272,157.44388 L119,155.981574 L119,154 L121.715596,155.533929 C122.859327,156.288956 125,158.443619 125,161.186189 L125,167.653162 C125,169.398976 124.183486,170.792643 121.859327,169.485521 Z" id="路径" fill="#99B524"></path>
                    <g id="编组" transform="translate(0.398734, 88.912289)">
                        <ellipse id="椭圆形" fill="#D6D8E5" opacity="0.4" cx="13.1287316" cy="44.4692812" rx="10.8133017" ry="6.24551687"></ellipse>
                        <ellipse id="椭圆形" fill="#D6D8E5" cx="14.6713442" cy="43.31326" rx="10.8133017" ry="6.24551687"></ellipse>
                        <polygon id="路径" fill="#D6D8E5" points="0.194806584 21.9644019 3.97814854 43.7448913 25.4583727 43.7448913 29.1478818 22.1220411"></polygon>
                        <ellipse id="椭圆形" fill="#E4E6EF" cx="14.6713442" cy="21.6941632" rx="14.4915509" ry="8.36614009"></ellipse>
                        <path d="M14.6713442,28.2136721 C11.1207078,28.2136721 7.81028359,27.4329825 5.34810867,26.0104759 C3.23499208,24.7944017 2.02642451,23.2180092 2.02642451,21.6941632 C2.02642451,20.1703171 3.23499208,18.5939246 5.34810867,17.3778504 C7.80653027,15.9553439 11.1207078,15.1746543 14.6713442,15.1746543 C18.2219806,15.1746543 21.5361581,15.9553439 23.9945797,17.3778504 C26.1076963,18.5939246 27.3162639,20.1703171 27.3162639,21.6941632 C27.3162639,23.2180092 26.1264629,24.8131683 23.9945797,26.0104759 C21.5361581,27.4404891 18.2445005,28.2136721 14.6713442,28.2136721 Z" id="路径" fill="#28221C"></path>
                        <path d="M20.9056011,15.1033413 C21.3213376,9.39799076 19.047053,3.82613239 14.7576704,0.0412864697 L14.7576704,0.0412864697 L14.7576704,0.0412864697 L14.716384,-3.55271368e-14 L14.716384,0.078819624 C10.4229369,3.86422936 8.14690214,9.43975081 8.56469999,15.1483811 L0.273626208,14.3489249 C3.77171619,27.5268154 14.7576704,26.3933141 14.7576704,26.3933141 L14.7576704,26.3670409 C15.5871532,26.4308472 25.8337043,26.9600647 29.185415,14.3188984 L20.9056011,15.1033413 Z" id="路径" fill="#99B524"></path>
                        <path d="M14.7576704,26.3933141 C14.7576704,26.3933141 14.0070074,16.1317497 0.239846369,9.22189601 C0.228586423,9.22189601 -3.02178474,26.2694547 14.7576704,26.3933141 Z" id="路径" fill="#A6CE28"></path>
                        <path d="M14.6713442,26.3933141 C14.6713442,26.3933141 15.4220073,16.1317497 29.1891683,9.22189601 C29.1891683,9.22189601 32.4507994,26.2694547 14.6713442,26.3933141 Z" id="路径" fill="#A6CE28"></path>
                    </g>
                </g>
            </g>
        </g>
    </g>
</svg>