<?xml version="1.0" standalone="no"?><!DOCTYPE svg PUBLIC "-//W3C//DTD SVG 1.1//EN" "http://www.w3.org/Graphics/SVG/1.1/DTD/svg11.dtd"><svg t="1610340942906" class="icon" viewBox="0 0 1186 1024" version="1.1" xmlns="http://www.w3.org/2000/svg" p-id="3870" xmlns:xlink="http://www.w3.org/1999/xlink" width="231.640625" height="200"><defs><style type="text/css"></style></defs><path d="M874.549895 3.395368c57.936842 0 104.933053 46.942316 104.933052 104.933053v65.212632a35.031579 35.031579 0 1 1-69.955368 0V108.328421a35.031579 35.031579 0 0 0-35.031579-35.031579H104.986947a35.031579 35.031579 0 0 0-34.977684 35.031579v629.652211c0 19.294316 15.629474 34.977684 35.031579 34.977684h718.632421c32.444632 0 43.978105 18.485895 43.978105 36.217263s-14.120421 33.738105-43.978105 33.738105H524.719158v69.955369h244.843789a35.031579 35.031579 0 1 1 0 69.955368H209.866105a35.031579 35.031579 0 1 1 0-69.955368h244.897684V842.913684h-349.776842A104.933053 104.933053 0 0 1 0 737.980632V108.328421C0 50.337684 46.996211 3.395368 104.933053 3.395368zM277.665684 247.808a35.031579 35.031579 0 0 1 23.821474 55.727158L212.291368 422.534737l89.19579 118.945684a35.031579 35.031579 0 1 1-55.996632 41.930105L140.557474 443.553684a35.031579 35.031579 0 0 1 0-41.984l104.933052-139.910737a35.031579 35.031579 0 0 1 32.175158-13.743158z m308.924632 0a35.031579 35.031579 0 0 1 32.175158 13.743158l104.933052 139.910737a35.031579 35.031579 0 0 1 0 42.037894l-104.933052 139.856843a35.031579 35.031579 0 1 1-55.996632-41.930106l89.19579-118.945684-89.19579-118.945684a35.031579 35.031579 0 0 1 23.821474-55.727158z m-103.801263-33.792a35.031579 35.031579 0 0 1 26.677894 41.121684l-69.955368 314.853053a35.031579 35.031579 0 0 1-68.284632-15.198316l69.955369-314.799158a35.031579 35.031579 0 0 1 41.606737-25.977263z m478.531368 35.031579l-10.886737 10.832842c-59.823158 61.763368-91.351579 133.874526-94.154105 215.363368v1.778527l-6.736842-5.173895a103.046737 103.046737 0 0 1-22.743579-28.294737 25.438316 25.438316 0 0 0-47.265684 8.084211c-20.156632 115.173053-10.24 195.206737 34.007579 239.723789 72.380632 72.757895 209.111579 95.232 298.361263 31.474527 90.327579-64.565895 94.423579-188.954947 30.181052-261.766737-13.635368-15.521684-27.270737-27.540211-50.499368-45.594948l-16.168421-12.341894c-43.654737-33.199158-61.224421-51.038316-71.895579-77.824-7.976421-19.941053-7.868632-34.330947-1.293474-45.109895l1.239579-1.832421c16.599579-25.168842-16.707368-53.194105-38.642526-32.552421l-3.503158 3.233684z m-9.916632 89.950316l1.886316-2.856421 2.964211 7.976421c14.120421 35.462737 34.384842 57.559579 77.877895 91.459368l17.408 13.365895c26.516211 20.156632 39.882105 31.582316 52.439578 45.756631 45.379368 51.523368 42.469053 140.880842-21.665684 186.745264-67.368421 48.181895-176.774737 30.181053-232.663579-25.977264l-4.311579-4.688842c-19.024842-23.174737-27.540211-63.380211-24.144842-120.778105l1.077895-14.821053 7.383579 5.389474c13.797053 9.269895 29.318737 16.276211 46.457263 21.018948a25.438316 25.438316 0 0 0 32.067369-26.785685c-5.712842-65.751579 8.569263-124.065684 43.223578-175.804631z" p-id="3871"></path></svg>