<?xml version="1.0" encoding="UTF-8"?>
<svg width="150px" height="167px" viewBox="0 0 150 167" version="1.1" xmlns="http://www.w3.org/2000/svg" xmlns:xlink="http://www.w3.org/1999/xlink">
    <!-- Generator: Sketch 64 (93537) - https://sketch.com -->
    <title>编组 20</title>
    <desc>Created with Sketch.</desc>
    <defs>
        <linearGradient x1="49.6662415%" y1="0.289036938%" x2="49.6662415%" y2="100.976342%" id="linearGradient-1">
            <stop stop-color="#FFFFFF" offset="1%"></stop>
            <stop stop-color="#FFFFFF" stop-opacity="0" offset="88%"></stop>
        </linearGradient>
        <linearGradient x1="50.2704469%" y1="-0.473618859%" x2="50.2704469%" y2="99.8483034%" id="linearGradient-2">
            <stop stop-color="#FFFFFF" offset="1%"></stop>
            <stop stop-color="#FFFFFF" stop-opacity="0" offset="88%"></stop>
        </linearGradient>
    </defs>
    <g id="工作空间首页" stroke="none" stroke-width="1" fill="none" fill-rule="evenodd">
        <g id="工作空间首页-应用开发" transform="translate(-271.000000, -517.000000)">
            <g id="编组-20" transform="translate(271.000000, 510.000000)">
                <rect id="矩形备份" x="0" y="0" width="150" height="180"></rect>
                <g id="Creative_process_SVG" transform="translate(0.000000, 7.000000)" fill-rule="nonzero">
                    <ellipse id="椭圆形" fill="#D6D8E5" opacity="0.4" cx="136.426667" cy="73.3333333" rx="13.27" ry="7.66333333"></ellipse>
                    <g id="Girl_8" transform="translate(132.333333, 3.666667)">
                        <path d="M6.19,1 C6.70666667,0.166666667 10.6633333,-0.38 11.9633333,2.97 C12.4566667,4.24333333 12.3833333,7.49 12.7966667,9.53333333 C13.21,11.5766667 14.18,12.73 14.53,14.3866667 C14.88,16.0433333 14.31,18.8266667 10.3333333,19.3333333 C6.35666667,19.84 3.27333333,18.4233333 2.33333333,17.1533333 C1.39333333,15.8833333 1.37,13.1766667 2.35,11.7233333 C3.33,10.27 4.07333333,9.09 4.05,7.2 L6.19,1 Z" id="_Контур_" fill="#3A2C6D"></path>
                        <path d="M1.45,15.0366667 C1.45,15.0366667 0.513333333,21.65 2.28333333,26.37 C4.05333333,31.09 3.56666667,25.1566667 3.56666667,25.1566667 L3.14,23.7533333 C3.14,23.7533333 2.78333333,18.3333333 2.93,17 C3.07666667,15.6666667 3.04333333,14.5333333 3.14,14.4266667 C3.23666667,14.32 2.78666667,14.11 2.6,14.0933333 C2.41333333,14.0766667 1.45,15.0366667 1.45,15.0366667 Z" id="路径" fill="#FFCEA9"></path>
                        <path d="M8.80333333,0.43 C8.80333333,0.43 5.82333333,-0.426666667 4.01666667,1.18333333 C2.80179481,2.30149365 2.31081828,4.00320288 2.74333333,5.59666667 C2.98333333,6.53666667 3.46666667,7.82 4.21333333,7.89 C4.96,7.96 8.80333333,0.43 8.80333333,0.43 Z" id="_Контур_2" fill="#3A2C6D"></path>
                        <path d="M9.94,8.55333333 C9.94,8.55333333 9.74666667,11.8866667 9.80666667,12.1166667 C9.86666667,12.3466667 11.11,12.5966667 11.4566667,12.8866667 C11.8033333,13.1766667 9.65333333,16.5533333 8.55666667,17.0433333 C7.46,17.5333333 4.07,16.2666667 3.83666667,14.58 C3.61666667,13.0266667 4.80666667,11.82 5.26333333,11.4 C5.57453817,11.3688969 5.8876325,11.3610974 6.2,11.3766667 L6.3,9.76666667 C7.78333333,9.29333333 9.94,8.55333333 9.94,8.55333333 Z" id="_Контур_3" fill="#FFCEA9"></path>
                        <path d="M10.3966667,12.44 C11.33,12.5833333 12.3966667,13.0833333 12.54,13.5933333 C12.7133333,14.19 13.08,16.9966667 12.2733333,19.1333333 C11.4666667,21.27 10.9233333,22.63 10.4566667,23.55 C10.4566667,23.55 6.42333333,25.2833333 3.17,23.2633333 C3.17,23.2633333 2.94333333,20.9733333 2.93,19.7466667 C-0.07,17.1266667 2.49333333,13.8966667 5.04,11.3866667 C5.34497557,11.360042 5.6516911,11.360042 5.95666667,11.3866667 C5.95666667,11.3866667 3.68666667,14.0533333 5.26333333,15.5966667 C8.64333333,14.5633333 9.31333333,13.0466667 10.3966667,12.44 Z" id="_Контур_4" fill="#F4F4F4"></path>
                        <path d="M3.74,4.44 L3.74,4.44 C4.07333333,2.30666667 5.61333333,0.696666667 7.81333333,0.826666667 C8.93879555,0.889401597 9.99304797,1.39736067 10.7434764,2.23846589 C11.4939049,3.07957112 11.8788346,4.1846954 11.8133333,5.31 C11.7344907,6.62328273 11.0448147,7.82373855 9.95,8.55333333 C9.87439315,8.87600509 9.76257289,9.18910183 9.61666667,9.48666667 C8.83333333,10.3933333 6.76666667,10.97 6.08333333,10.9766667 C5.49333333,10.9766667 4.98333333,10.4333333 4.41666667,9.51666667 C3.26333333,7.61 3.55666667,5.49333333 3.74,4.44 Z" id="_Контур_5" fill="#FFCEA9"></path>
                        <path d="M8.49666667,0.863333333 C10.04,1.16666667 11.3066667,1.6 11.7266667,3.11666667 C12.0133333,4.16 12.3933333,6.14666667 12.03,6.98666667 L11.81,7.59 L9.94,8.55333333 C9.94,8.55333333 9.07,7.82666667 9.34,5.69666667 C9.32949677,5.408423 9.23825488,5.12892254 9.07666667,4.89 C8.96078935,4.68893163 8.87435352,4.4722808 8.82,4.24666667 C8.59812894,3.67189307 8.16538511,3.20338529 7.61,2.93666667 C6.21666667,2.15666667 4.18,2.83 3.89666667,3.11333333 C4.70406887,1.3689967 6.62404104,0.429879875 8.49666667,0.863333333 L8.49666667,0.863333333 Z" id="路径" fill="#3A2C6D"></path>
                        <path d="M12.6666667,27.95 C13,25.79 13.6666667,24.3866667 13.36,23.2 C12.6885266,20.7950962 11.8096759,18.4529815 10.7333333,16.2 C10.0666667,14.8666667 10.2566667,13.92 10.9633333,13.39 C11.76,12.7933333 12.52,13.0566667 13.2366667,14.5433333 C14.1366667,16.4166667 15.1533333,18.34 15.6466667,21.13 C15.89,22.4833333 16.0166667,23.7966667 15.58,26.5766667 C15.2733333,28.52 14.6566667,29.61 13.9133333,31.4333333 C13.71,31.93 12.3533333,29.7833333 12.6666667,27.95 Z" id="_Контур_6" fill="#FFCEA9"></path>
                        <path d="M11.3,68.26 C10.52,68.8966667 9.3,68.4566667 9.24666667,68.5166667 C8.45,69.3133333 7.26666667,70.0066667 6.38333333,70.7 C5.89666667,71.0833333 5.14,71.5966667 5.27666667,72.33 C5.52333333,73.6466667 7.63,73.2433333 8.42333333,72.84 C9.21666667,72.4366667 9.86666667,71.77 10.62,71.3033333 C11.1533333,70.97 11.6833333,70.7966667 11.7666667,70.12 C11.8166667,69.71 11.4366667,68.2466667 11.3,68.26 Z" id="路径" fill="#1965B1"></path>
                        <path d="M11.7566667,69.8466667 C11.6533333,70.5133333 11.1333333,70.6733333 10.6,71.0033333 C9.83666667,71.48 9.16333333,72.1633333 8.37,72.5666667 C7.63333333,72.9366667 5.80333333,73.3066667 5.28666667,72.3666667 C5.56666667,73.6366667 7.63666667,73.2366667 8.42333333,72.84 C9.21,72.4433333 9.86666667,71.77 10.62,71.3033333 C11.1533333,70.97 11.6833333,70.7966667 11.7666667,70.12 C11.772712,70.028787 11.769361,69.9371941 11.7566667,69.8466667 Z" id="路径" fill="#9C73FF"></path>
                        <path d="M5.82,67.1666667 C5.10666667,67.75 4.02666667,67.4233333 3.97333333,67.4766667 C3.24666667,68.2066667 2.16666667,68.8333333 1.36,69.4766667 C0.913333333,69.83 0.216666667,70.2966667 0.343333333,70.9733333 C0.57,72.1766667 2.49666667,71.8066667 3.22666667,71.4366667 C3.95666667,71.0666667 4.56,70.4566667 5.22666667,70.03 C5.71666667,69.7266667 6.2,69.5666667 6.27666667,68.9466667 C6.33333333,68.5633333 5.94666667,67.1533333 5.82,67.1666667 Z" id="路径" fill="#1965B1"></path>
                        <path d="M6.28,68.6866667 C6.18333333,69.28 5.70666667,69.4433333 5.22,69.7466667 C4.52,70.1833333 3.88666667,70.81 3.17666667,71.1766667 C2.51,71.51 0.843333333,71.8433333 0.353333333,70.9966667 C0.61,72.1566667 2.50666667,71.7933333 3.22666667,71.4266667 C3.94666667,71.06 4.56,70.4466667 5.22666667,70.02 C5.71666667,69.7166667 6.2,69.5566667 6.27666667,68.9366667 C6.28736316,68.853737 6.28848163,68.769852 6.28,68.6866667 L6.28,68.6866667 Z" id="路径" fill="#9C73FF"></path>
                        <path d="M1.61,30.8433333 C1.94333333,28.1533333 2.94333333,24.24 2.94333333,24.24 C3.88533615,24.6809147 4.90444716,24.9334277 5.94333333,24.9833333 C7.68,25.0733333 10.46,24.5433333 10.46,24.5433333 C10.9431958,25.3908462 11.4728936,26.2109875 12.0466667,27 C12.8233333,28.0766667 14.33,30.44 13.9666667,34.5633333 C13.7266667,37.26 12.2166667,48.7066667 12.2166667,48.7066667 C12.8050311,50.6397983 13.1181079,52.6461828 13.1466667,54.6666667 C13.13,56.3333333 12.6933333,59.16 12.2,61.7766667 L11.3,68.2733333 C11.3,68.2733333 10.1,69.14 9.24666667,68.53 L9.35333333,62.17 C9.25,60.6133333 9.09333333,58.3166667 8.99666667,56.8366667 C8.83333333,54.45 8.40666667,50.6566667 8.28333333,49.71 C8.16,48.7633333 7.85666667,47.11 7.71,45.2533333 C7.56333333,43.3966667 6.86666667,33.9766667 6.86666667,33.9766667 L6.77,35.7433333 C6.77,35.7433333 6.68,38.6066667 6.26666667,42.1433333 C5.85333333,45.68 5.71,47.2466667 5.71,47.2466667 C5.71,47.2466667 6.42666667,48.56 6.51666667,49.53 C6.59,50.2933333 7.46333333,56.3366667 6.94,59.41 L5.87,67.2266667 C5.32792526,67.5994669 4.6400395,67.6899455 4.02,67.47 L3.39,59.5933333 C2.96666667,56.5933333 2.05666667,50.24 1.93333333,49.4133333 C1.75333333,48.3266667 1.6,47.79 1.4,44.3733333 C1.2,40.9566667 1.26666667,33.5366667 1.61,30.8433333 Z" id="路径" fill="#FFCEA9"></path>
                        <path d="M10.4566667,23.55 L12.79,28.2166667 C12.79,28.2166667 16.3266667,33.3966667 12.6633333,46.7066667 L13.3333333,50.8033333 C13.3333333,50.8033333 6.39333333,55.2566667 1.75,50.8033333 C1.75,50.8033333 0.14,38.5033333 0.996666667,32.83 C1.47211012,29.5675198 2.19531222,26.3459832 3.16,23.1933333 C3.16,23.1933333 4.29666667,24.45 10.16,23.62" id="路径" fill="#2E92F7"></path>
                        <path d="M14.6166667,17.1533333 C14.6166667,17.1533333 13.0066667,18.7566667 11.0966667,18.5566667 L10.18,15.4366667 C10.18,15.4366667 9.58333333,13.8033333 10.9766667,13.1033333 C12.37,12.4033333 13.8166667,13.9566667 14.6166667,17.1533333 Z" id="路径" fill="#EDEDED"></path>
                        <path d="M5.04,11.3866667 C5.04,11.3866667 3.19666667,10.8266667 1.24,14.9066667 L1.97,15.35 C1.97,15.35 3.89666667,12.4366667 5.04,11.3866667 Z" id="路径" fill="#EDEDED"></path>
                    </g>
                    <ellipse id="椭圆形" fill="#D6D8E5" opacity="0.4" cx="13.27" cy="104.5" rx="13.27" ry="7.66333333"></ellipse>
                    <g id="Men_13" transform="translate(4.000000, 29.333333)">
                        <path d="M2.46333333,72.8133333 C3.41333333,73.5866667 4.81333333,72.88 4.88333333,72.95 C5.9992229,73.9852743 7.1697902,74.9600052 8.39,75.87 C8.98,76.3366667 9.90333333,76.9566667 9.72333333,77.8533333 C9.42333333,79.4533333 6.86333333,78.96 5.89666667,78.47 C4.93,77.98 4.14,77.17 3.23,76.6033333 C2.56333333,76.1966667 1.93333333,75.9866667 1.83333333,75.1633333 C1.78,74.6666667 2.29333333,72.7933333 2.46333333,72.8133333 Z" id="路径" fill="#1965B1"></path>
                        <path d="M1.85666667,74.83 C1.98,75.62 2.61333333,75.83 3.26333333,76.24 C4.19,76.8166667 5.01,77.65 5.97666667,78.14 C6.87,78.59 9.09666667,79.04 9.72333333,77.8966667 C9.39,79.44 6.86666667,78.9566667 5.91,78.47 C4.95333333,77.9833333 4.15333333,77.17 3.24333333,76.6033333 C2.57666667,76.1966667 1.94666667,75.9866667 1.84666667,75.1633333 C1.83760001,75.0521959 1.84095407,74.940394 1.85666667,74.83 Z" id="路径" fill="#9C73FF"></path>
                        <path d="M10.7066667,69.75 C11.6533333,70.5233333 13.3166667,69.6766667 13.3733333,69.75 C14.3627856,70.7502227 15.4077729,71.6939386 16.5033333,72.5766667 C17.0966667,73.0433333 18.02,73.6633333 17.8366667,74.56 C17.5366667,76.16 14.9766667,75.6666667 14.01,75.1766667 C13.0433333,74.6866667 12.2533333,73.8766667 11.3433333,73.31 C10.6766667,72.9033333 10.05,72.6933333 9.95,71.87 C9.91,71.3733333 10.5366667,69.73 10.7066667,69.75 Z" id="路径" fill="#1965B1"></path>
                        <path d="M10,71.6666667 C10.1266667,72.4566667 10.76,72.6666667 11.4066667,73.0766667 C12.3366667,73.6533333 13.1566667,74.4866667 14.12,74.9766667 C15.0133333,75.4266667 17.2433333,75.8766667 17.87,74.7333333 C17.5366667,76.2766667 15.01,75.7933333 14.0533333,75.3066667 C13.0966667,74.82 12.3,74.0066667 11.3866667,73.44 C10.7366667,73.0333333 10.0933333,72.8233333 9.99333333,72 C9.98287849,71.8889967 9.98511516,71.7771632 10,71.6666667 Z" id="路径" fill="#9C73FF"></path>
                        <path d="M2.40666667,37.7533333 C2.45333333,39.19 2.9,45.42 3.1,48.73 C3.3,52.04 3.34666667,56.0633333 3.34666667,56.0633333 C3.34666667,56.0633333 2.77666667,58.47 2.40666667,61.2966667 C2.03666667,64.1233333 2.40666667,73.0466667 2.40666667,73.0466667 C3.14806161,73.5222613 4.09860506,73.5222613 4.84,73.0466667 C4.84,73.0466667 6.36,65.9066667 7.06333333,62.69 C7.76666667,59.4733333 7.89,57.6166667 8.25666667,55.6233333 C8.69666667,53.21 9.65,41.9566667 9.65,41.9566667 L10.03,41.98 L11.03,54.69 C10.7174879,55.626381 10.5030055,56.5926688 10.39,57.5733333 C10.1133333,59.6433333 10.68,70.06 10.68,70.06 C11.5074251,70.5199442 12.5225398,70.4787735 13.31,69.9533333 C13.31,69.9533333 15.85,56.1566667 15.85,54.0566667 C15.85,52.67 15.6133333,34.36 15.6133333,34.36 L2.40666667,37.7533333 Z" id="_Контур_7" fill="#2E92F7"></path>
                        <path d="M5.85,10 C5.85,10 6.01333333,13.13 5.94333333,13.4066667 C5.87333333,13.6833333 4.50333333,14.6033333 4.10666667,14.9333333 C3.71,15.2633333 6.27333333,17.79 7.51666667,18.36 C8.76,18.93 12.7133333,17.4266667 12.7833333,15.4866667 C12.8533333,13.5466667 12.1166667,11.9166667 11.5,11.82 C10.8833333,11.7233333 5.85,10 5.85,10 Z" id="_Контур_8" fill="#FFCEA9"></path>
                        <path d="M14.4266667,15.8066667 C14.61,14.4266667 13.7,13.1133333 14.5833333,12.0133333 C17.6733333,15.0433333 17.28,23.0633333 17.9833333,28.1933333 C20.2766667,30.5933333 24.89,32.9566667 26.19,33.5266667 C26.4266667,33.6333333 26.63,33.7466667 26.5833333,34.0033333 C26.3966667,35.0033333 26.1066667,35.3833333 25.51,36.3366667 C22.4566667,35.02 20.2566667,34.2633333 16.4433333,30.64 C16.0815948,30.2494527 15.7579086,29.8253122 15.4766667,29.3733333 C14.3866667,26.1333333 14.1133333,18.19 14.4266667,15.8066667 Z" id="路径" fill="#FFCEA9"></path>
                        <path d="M5.5,13.9466667 C5.5,13.9466667 7.77333333,17.3333333 10.9433333,17.6666667 C11.9433333,16.6666667 12.0333333,13.1733333 10.65,12.0533333 C10.65,12.0533333 11.9233333,11.0266667 12.7933333,11.2266667 C13.7275933,11.7931099 14.4232616,12.6807684 14.75,13.7233333 C15.5565135,16.0528537 15.9348308,18.5090925 15.8666667,20.9733333 C15.8133333,24.3066667 15.8666667,34.4466667 15.8666667,34.4466667 C15.8666667,34.4466667 15.4233333,36.5933333 12.5566667,38.19 C9.69,39.7866667 7.55666667,39.9433333 5.61333333,39.49 C4.00666667,39.1166667 2.68,38.55 2.13,37.3866667 C2.27333333,35.0533333 3.31333333,28.98 2.92333333,26.0533333 C2.53333333,23.1266667 1.92333333,20.9366667 1.75666667,18.57 C1.59,16.2033333 2.07,16.2366667 3.25666667,15.4066667 C3.96881338,14.8673285 4.71848995,14.379426 5.5,13.9466667 Z" id="_Контур_9" fill="#F4F4F4"></path>
                        <path d="M12.9366667,5.33333333 L12.9366667,5.33333333 C12.5633333,2.90333333 10.8133333,1.06 8.30666667,1.2 C5.64028044,1.34867184 3.5989681,3.63022635 3.74666667,6.29666667 C3.82973692,7.79220635 4.60808171,9.16263593 5.85,10 C5.93773033,10.3685484 6.06863508,10.7254597 6.24,11.0633333 C7.12333333,12.1 9.80666667,12.73 10.5733333,12.63 C11.5733333,12.49 12.1,12.0766667 12.5733333,10.9966667 C13.4033333,9.08 13.1433333,6.53 12.9366667,5.33333333 Z" id="_Контур_10" fill="#FFCEA9"></path>
                        <path d="M5.85,10 L5.85,10 L6.08,7.88 C6.08,7.88 4.33333333,3.38666667 8.44333333,4.25 C11.1433333,4.81666667 11.8233333,5.06333333 12.6466667,3.25 C13.47,1.43666667 10.5666667,-0.193333333 7.12333333,0.25 C4.66439201,0.509218069 2.81334661,2.60793856 2.86333333,5.08 C2.95333333,6.42333333 3.31,9.12333333 5.85,10 Z" id="路径" fill="#3A2C6D"></path>
                        <path d="M1.05666667,17.1566667 C2.24333333,16.8233333 1.34,17.1 2.24333333,16.8233333 C5.33333333,19.8566667 4.95,25.05 5.65,30.1833333 C7.35666667,33.0033333 13.69,36.8266667 13.69,36.8266667 C13.77,37.3733333 13.5766667,37.5333333 12.8933333,38.6366667 C9.84333333,37.32 7.28666667,36.1833333 3.47333333,32.5633333 C3.32333333,32.42 3.10333333,32.3833333 3.04,32.1866667 C1.95,28.91 0.74,19.5433333 1.05666667,17.1566667 Z" id="路径" fill="#FFCEA9"></path>
                        <polygon id="路径" fill="#F4F4F4" points="29.2366667 23.48 24.6333333 39.22 14.5333333 43.2566667 18.2166667 27.9233333"></polygon>
                        <path d="M12.0966667,36.9333333 C12.2466667,36.3966667 12.6366667,36.53 13.0733333,36.6633333 C13.546894,36.8550963 14.0670934,36.9003815 14.5666667,36.7933333 C14.9833333,36.6633333 15.2833333,36.3066667 15.6366667,36.07 C15.8387274,35.94967 16.0682454,35.8831098 16.3033333,35.8766667 C16.2833333,36.0133333 16.0733333,36.8133333 16.0733333,36.8133333 C16.0733333,36.8133333 18.2866667,36.8366667 18.5133333,36.79 C18.6669924,36.7691273 18.8175563,36.8454158 18.8916044,36.9816643 C18.9656525,37.1179128 18.9477658,37.2857505 18.8466667,37.4033333 L18.9966667,37.38 C19.45,37.28 19.6433333,37.9733333 19.1866667,38.0766667 C19.0666667,38.1033333 18.9433333,38.1166667 18.8166667,38.1333333 C19.1133333,38.2466667 19.1866667,38.7366667 18.8166667,38.8 L18.7033333,38.82 C18.6512823,38.8397529 18.5954998,38.8477218 18.54,38.8433333 L18.47,38.8433333 C18.4912312,38.9502383 18.4675384,39.0611693 18.4044862,39.150073 C18.341434,39.2389766 18.2445782,39.298019 18.1366667,39.3133333 C17.0566667,39.4566667 15.47,39.8866667 14.49,38.9966667 C13.8118259,38.9297516 13.1494778,38.7506472 12.53,38.4666667 C11.9333333,38.1833333 11.9166667,37.5766667 12.0966667,36.9333333 Z" id="路径" fill="#FFCEA9"></path>
                        <path d="M23.1466667,35.6466667 L23.2966667,35.6466667 C23.1742315,35.5507454 23.1240927,35.388967 23.1708228,35.2406175 C23.2175529,35.092268 23.35136,34.9884326 23.5066667,34.98 C23.74,34.98 26.0166667,34.5033333 26.0166667,34.5033333 L26.29,33.5666667 C26.29,33.5133333 26.6866667,33.7533333 26.7,33.7633333 C27.0904617,34.0190219 27.3432086,34.4386309 27.3866667,34.9033333 C27.4089712,35.554591 27.1687709,36.1875186 26.72,36.66 C26.3108201,37.0729955 25.7578501,37.3118594 25.1766667,37.3266667 C24.9,37.3433333 24.6333333,37.3566667 24.3966667,37.3766667 C24.290884,37.3766667 24.1894819,37.3344216 24.1149959,37.2593097 C24.0405099,37.1841977 23.9991111,37.0824456 24,36.9766667 L23.93,36.9766667 C23.8762885,36.9893007 23.8203782,36.9893007 23.7666667,36.9766667 L23.65,36.9766667 C23.2633333,36.9766667 23.2333333,36.4966667 23.4966667,36.31 C23.3733333,36.31 23.2466667,36.3333333 23.1233333,36.3333333 C22.64,36.3633333 22.6666667,35.6433333 23.1466667,35.6466667 Z" id="路径" fill="#FFCEA9"></path>
                        <path d="M15.7166667,17.86 C15.7166667,17.86 16.8833333,17.8 17.3666667,17.12 C17.2766667,15.9566667 15.7866667,11.54 12.7933333,11.21 C13.6092952,11.7815486 14.2563743,12.5621885 14.6666667,13.47 C15.21,14.8 15.7166667,17.86 15.7166667,17.86 Z" id="路径" fill="#EDEDED"></path>
                        <path d="M0.516666667,23.6966667 C0.516666667,23.6966667 3.49666667,24.7233333 5.59666667,22.9966667 C5.82666667,22.6 4.38,17.53 4.38,17.53 C4.38,17.53 3.13,14.9366667 1.17333333,15.9666667 C-0.783333333,16.9966667 0.516666667,23.6966667 0.516666667,23.6966667 Z" id="路径" fill="#EDEDED"></path>
                    </g>
                    <ellipse id="椭圆形" fill="#D6D8E5" opacity="0.4" cx="34.9" cy="133.743333" rx="1.72" ry="1"></ellipse>
                    <ellipse id="椭圆形" fill="#D6D8E5" opacity="0.4" cx="67.1133333" cy="152.113333" rx="1.72" ry="1"></ellipse>
                    <ellipse id="椭圆形" fill="#D6D8E5" opacity="0.4" cx="122.95" cy="118.06" rx="1.72" ry="1"></ellipse>
                    <path d="M33.78,100.103333 L33.78,133.543333 C33.7955476,133.753682 33.9228162,133.939494 34.1133333,134.03 C34.6442779,134.300153 35.2723888,134.300153 35.8033333,134.03 C35.9933846,133.938949 36.120443,133.753444 36.1366667,133.543333 L36.1366667,133.543333 L36.1366667,100.103333 L33.78,100.103333 Z" id="路径" fill="#C1C4D3"></path>
                    <path d="M66.07,113.116667 L66.07,151.926667 C66.0815282,152.130854 66.1957093,152.315301 66.3733333,152.416667 C66.8297232,152.68667 67.3969435,152.68667 67.8533333,152.416667 C68.0318016,152.315661 68.1471638,152.131333 68.16,151.926667 L68.16,151.926667 L68.16,113.116667 L66.07,113.116667 Z" id="路径" fill="#C1C4D3"></path>
                    <path d="M121.903333,86.16 L121.903333,117.806667 C121.915449,118.010708 122.031167,118.194347 122.21,118.293333 C122.665161,118.563463 123.231506,118.563463 123.686667,118.293333 C123.8655,118.194347 123.981218,118.010708 123.993333,117.806667 L123.993333,117.806667 L123.993333,86.16 L121.903333,86.16 Z" id="路径" fill="#C1C4D3"></path>
                    <polygon id="路径" fill="#62C8E8" points="67.1133333 123.076667 31.6933333 102.626667 31.6933333 100.236667 67.1133333 120.69"></polygon>
                    <polygon id="路径" fill="#6CD4FF" points="126.833333 86.28 67.1066667 120.763333 31.6833333 100.313333 91.41 65.83"></polygon>
                    <polygon id="路径" fill="#5CBFD6" points="126.84 88.5933333 67.1133333 123.076667 67.1133333 120.69 126.84 86.2066667"></polygon>
                    <polygon id="路径" fill="#F4F4F4" points="109.793333 79.4 100.27 87.3766667 91.57 83.9133333 101.093333 75.9366667"></polygon>
                    <polygon id="路径" fill="#F4F4F4" points="107.583333 79.77 95.72 86.62 88.25 82.3066667 100.113333 75.4566667"></polygon>
                    <polygon id="路径" fill="#D6D8E5" points="96.5133333 84.77 95.7866667 85.19 90.86 82.3466667 91.5866667 81.9266667"></polygon>
                    <polygon id="路径" fill="#D6D8E5" points="98.1466667 83.8266667 97.42 84.2466667 92.4966667 81.4033333 93.2233333 80.9833333"></polygon>
                    <polygon id="路径" fill="#D6D8E5" points="99.72 82.92 98.9933333 83.3366667 94.07 80.4966667 94.7966667 80.0766667"></polygon>
                    <polygon id="路径" fill="#D6D8E5" points="103.413333 80.7866667 102.686667 81.2066667 99.82 79.5533333 100.546667 79.1333333"></polygon>
                    <polygon id="路径" fill="#D6D8E5" points="104.986667 79.88 104.26 80.2966667 101.393333 78.6433333 102.12 78.2233333"></polygon>
                    <path d="M97.0633333,86.1 C97.26,86.0166667 107.583333,79.7666667 107.583333,79.7666667 L96.8,86 L97.0633333,86.1 Z" id="路径" fill="#D6D6D6"></path>
                    <ellipse id="椭圆形" fill="#000000" opacity="0.2" cx="98.75" cy="94.2566667" rx="2.58666667" ry="1.49333333"></ellipse>
                    <path d="M101.59,94.0433333 L101.59,90.06 L96.4266667,90.19 L96.4266667,93.8566667 C96.33,94.2966667 96.5733333,94.76 97.1633333,95.1 C98.3151773,95.6865761 99.6781561,95.6865761 100.83,95.1 C101.256407,94.9119062 101.547327,94.5074256 101.59,94.0433333 Z" id="路径" fill="#A6CE28"></path>
                    <ellipse id="椭圆形" fill="#BCD64D" cx="99.0033333" cy="90.06" rx="2.58666667" ry="1.49333333"></ellipse>
                    <path d="M101.18,90.06 C101.18,90.3033333 100.98,90.56 100.626667,90.76 C100.177819,90.9996302 99.6787081,91.129833 99.17,91.14 L99,91.14 C98.4351467,91.1518591 97.8765475,91.0199517 97.3766667,90.7566667 C97.0266667,90.5566667 96.8233333,90.3 96.8233333,90.0566667 C96.8233333,89.8133333 97.0266667,89.56 97.3766667,89.3566667 C97.8765475,89.0933816 98.4351467,88.9614742 99,88.9733333 L99.1666667,88.9733333 C99.6753747,88.9835004 100.174485,89.1137031 100.623333,89.3533333 C100.98,89.5633333 101.18,89.8166667 101.18,90.06 Z" id="路径" fill="#28221C"></path>
                    <path d="M101.18,90.06 C101.18,90.3033333 100.98,90.56 100.626667,90.76 C99.7198697,91.264412 98.616797,91.264412 97.71,90.76 C97.36,90.56 97.1566667,90.3033333 97.1566667,90.06 C97.1566667,89.8166667 97.36,89.5633333 97.71,89.36 C98.616797,88.855588 99.7198697,88.855588 100.626667,89.36 C100.98,89.5633333 101.18,89.8166667 101.18,90.06 Z" id="路径" fill="#FFFFFF" opacity="0.07"></path>
                    <path d="M101.213333,91.9033333 L100.663333,91.5866667 L100.396667,91.7433333 L100.663333,91.8966667 L100.663333,91.9966667 L101.176667,92.2933333 L101.176667,92.39 C101.300214,92.5666611 101.411583,92.7515335 101.51,92.9433333 L101.53,92.9266667 L101.53,94.21 C101.53,94.5433333 101.333333,94.4333333 101.246667,94.3833333 L100.67,94.05 L100.403333,94.2066667 L100.67,94.36 L100.67,94.46 L101.246667,94.7933333 C101.306548,94.8283962 101.370312,94.8563625 101.436667,94.8766667 L101.4,95.04 L101.7,94.87 L101.7,94.87 C101.82948,94.7599216 101.894668,94.5919369 101.873333,94.4233333 L101.873333,93.09 C101.847517,92.6139988 101.604107,92.1763523 101.213333,91.9033333 L101.213333,91.9033333 Z" id="路径" fill="#8DA01F"></path>
                    <path d="M100.973333,94.95 L100.396667,94.6166667 L100.396667,94.2066667 L100.973333,94.54 C101.056667,94.5866667 101.256667,94.7 101.256667,94.3633333 L101.256667,93.03 C101.236758,92.8004888 101.114261,92.5922449 100.923333,92.4633333 L100.4,92.16 L100.4,91.75 L100.95,92.0666667 C101.338876,92.3347245 101.584311,92.7654637 101.616667,93.2366667 L101.616667,94.57 C101.61,94.93 101.443333,95.22 100.973333,94.95 Z" id="路径" fill="#99B524"></path>
                    <ellipse id="椭圆形" fill="#000000" opacity="0.2" cx="47.72" cy="99.63" rx="2.58666667" ry="1.49333333"></ellipse>
                    <path d="M50.56,99.4166667 L50.56,95.4333333 L45.3966667,95.5633333 L45.3966667,99.23 C45.3,99.6733333 45.5466667,100.136667 46.1333333,100.473333 C47.2851773,101.059909 48.6481561,101.059909 49.8,100.473333 C50.2268738,100.285815 50.5180211,99.881018 50.56,99.4166667 L50.56,99.4166667 Z" id="路径" fill="#F7B03E"></path>
                    <ellipse id="椭圆形" fill="#FCC068" cx="47.9733333" cy="95.4333333" rx="2.58666667" ry="1.49333333"></ellipse>
                    <path d="M50.15,95.4333333 C50.15,95.6766667 49.9466667,95.93 49.5966667,96.1333333 C49.1470946,96.371107 48.6484329,96.5011927 48.14,96.5133333 L47.9733333,96.5133333 C47.4084801,96.5251925 46.8498808,96.393285 46.35,96.13 C45.9966667,95.9266667 45.7966667,95.6733333 45.7966667,95.43 C45.7966667,95.1866667 45.9966667,94.93 46.35,94.7266667 C46.8501868,94.4645378 47.4087695,94.3337813 47.9733333,94.3466667 L48.14,94.3466667 C48.6483851,94.3561807 49.1473943,94.4852151 49.5966667,94.7233333 C49.9466667,94.9333333 50.15,95.19 50.15,95.4333333 Z" id="路径" fill="#28221C"></path>
                    <path d="M50.15,95.4333333 C50.15,95.6766667 49.9466667,95.93 49.5966667,96.1333333 C48.6898697,96.6377453 47.586797,96.6377453 46.68,96.1333333 C46.3466667,95.93 46.1266667,95.6766667 46.1266667,95.4333333 C46.1266667,95.19 46.33,94.9333333 46.68,94.73 C47.586797,94.225588 48.6898697,94.225588 49.5966667,94.73 C49.9466667,94.9333333 50.15,95.19 50.15,95.4333333 Z" id="路径" fill="#FFFFFF" opacity="0.07"></path>
                    <path d="M50.18,97.2766667 L49.6333333,96.96 L49.3633333,97.1133333 L49.6333333,97.27 L49.6333333,97.37 L50.1466667,97.6666667 L50.13,97.7633333 C50.2544987,97.9393745 50.365909,98.1243157 50.4633333,98.3166667 L50.48,98.3 L50.48,99.5833333 C50.48,99.9166667 50.2833333,99.8066667 50.2,99.7566667 L49.6233333,99.4233333 L49.3533333,99.5766667 L49.6233333,99.7333333 L49.6233333,99.8333333 L50.2,100.166667 C50.2587596,100.201629 50.3214076,100.229597 50.3866667,100.25 L50.3533333,100.413333 L50.6533333,100.243333 L50.6533333,100.243333 C50.7856432,100.133662 50.8523586,99.9637265 50.83,99.7933333 L50.83,98.46 C50.8055267,97.9869573 50.5660964,97.5510713 50.18,97.2766667 Z" id="路径" fill="#C9883A"></path>
                    <path d="M49.9433333,100.333333 L49.3633333,100 L49.3633333,99.5866667 L49.9433333,99.92 C50.0266667,99.97 50.2233333,100.083333 50.2233333,99.7466667 L50.2233333,98.4133333 C50.2007623,98.1837821 50.0789953,97.9755604 49.89,97.8433333 L49.3633333,97.5433333 L49.3633333,97.13 L49.9133333,97.4633333 C50.3025799,97.7310504 50.5481266,98.1619849 50.58,98.6333333 L50.58,99.9666667 C50.58,100.303333 50.4133333,100.593333 49.9433333,100.333333 Z" id="路径" fill="#E09C3B"></path>
                    <g id="_Группа_" transform="translate(59.000000, 79.333333)">
                        <g id="_Группа_2">
                            <path d="M21.74,10.43 L14.0733333,6 C13.9375758,5.92 13.7690909,5.92 13.6333333,6 L0.173333333,13.7733333 L8.05666667,18.3333333 L21.74,10.43 Z" id="_Контур_11" fill="#000000" opacity="0.2"></path>
                            <path d="M22.1033333,9.56 L14.4366667,5.13 C14.3009091,5.05 14.1324242,5.05 13.9966667,5.13 L0.536666667,12.9033333 L8.43,17.46 L22.1033333,9.56 Z" id="_Контур_12" fill="#F4F4F4"></path>
                            <path d="M8.06666667,15.83 L7.48,16.1633333 C7.43333333,16.1933333 7.44,16.24 7.48,16.2733333 L8.04,16.6066667 C8.09867786,16.6363677 8.1679888,16.6363677 8.22666667,16.6066667 L8.81,16.2733333 C8.85666667,16.2466667 8.85333333,16.2 8.81,16.1666667 L8.25333333,15.8333333 C8.19480559,15.8040966 8.12620093,15.8028715 8.06666667,15.83 Z" id="路径" fill="#2B303F"></path>
                            <path d="M8.89333333,15.3533333 L8.31,15.6866667 C8.26,15.7133333 8.26666667,15.7633333 8.31,15.7933333 L8.86666667,16.1266667 C8.9256988,16.1548443 8.9943012,16.1548443 9.05333333,16.1266667 L9.63666667,15.7933333 C9.68666667,15.7666667 9.68,15.7166667 9.63666667,15.6866667 L9.08,15.3533333 C9.02174186,15.3219229 8.95159147,15.3219229 8.89333333,15.3533333 L8.89333333,15.3533333 Z" id="路径" fill="#2B303F"></path>
                            <path d="M9.73,14.87 L9.14666667,15.2033333 C9.1,15.23 9.10333333,15.28 9.14666667,15.31 L9.70333333,15.6433333 C9.76236547,15.6715109 9.83096787,15.6715109 9.89,15.6433333 L10.4766667,15.31 C10.5233333,15.2833333 10.5166667,15.2333333 10.4766667,15.2033333 L9.91666667,14.87 C9.85840853,14.8385895 9.78825814,14.8385895 9.73,14.87 L9.73,14.87 Z" id="路径" fill="#2B303F"></path>
                            <path d="M10.55,14.3966667 L9.96333333,14.73 C9.91666667,14.7566667 9.92333333,14.8066667 9.96333333,14.8366667 L10.5233333,15.17 C10.5815915,15.2014105 10.6517419,15.2014105 10.71,15.17 L11.2933333,14.8366667 C11.3433333,14.81 11.3366667,14.76 11.2933333,14.73 L10.7366667,14.3966667 C10.6776345,14.3684891 10.6090321,14.3684891 10.55,14.3966667 Z" id="路径" fill="#2B303F"></path>
                            <path d="M11.3766667,13.9166667 L10.7933333,14.25 C10.7466667,14.2766667 10.75,14.3233333 10.7933333,14.3566667 L11.35,14.69 C11.4090321,14.7181776 11.4776345,14.7181776 11.5366667,14.69 L12.1233333,14.3566667 C12.17,14.3266667 12.1633333,14.28 12.1233333,14.2466667 L11.5633333,13.9133333 C11.5041263,13.8846748 11.4348128,13.8859125 11.3766667,13.9166667 L11.3766667,13.9166667 Z" id="路径" fill="#2B303F"></path>
                            <path d="M12.2066667,13.44 L11.62,13.7733333 C11.5733333,13.8033333 11.58,13.85 11.62,13.8833333 L12.18,14.2166667 C12.2382581,14.2480771 12.3084085,14.2480771 12.3666667,14.2166667 L12.95,13.8833333 C12.9966667,13.8566667 12.9933333,13.8066667 12.95,13.7766667 L12.3933333,13.4433333 C12.3348056,13.4140966 12.2662009,13.4128715 12.2066667,13.44 L12.2066667,13.44 Z" id="路径" fill="#2B303F"></path>
                            <path d="M13.0333333,12.9633333 L12.45,13.2966667 C12.4,13.3233333 12.4066667,13.3733333 12.45,13.4033333 L13.0066667,13.7366667 C13.0656988,13.7648443 13.1343012,13.7648443 13.1933333,13.7366667 L13.7766667,13.4033333 C13.8266667,13.3766667 13.82,13.3266667 13.7766667,13.2966667 L13.22,12.9633333 C13.1617419,12.9319229 13.0915915,12.9319229 13.0333333,12.9633333 Z" id="路径" fill="#2B303F"></path>
                            <path d="M13.86,12.4833333 L13.2766667,12.8166667 C13.23,12.8466667 13.2333333,12.8933333 13.2766667,12.9266667 L13.8333333,13.26 C13.8920112,13.289701 13.9613221,13.289701 14.02,13.26 L14.6066667,12.9266667 C14.6533333,12.9 14.6466667,12.8533333 14.6066667,12.82 L14.0466667,12.4866667 C13.9881389,12.45743 13.9195343,12.4562049 13.86,12.4833333 Z" id="路径" fill="#2B303F"></path>
                            <path d="M14.69,12 L14.1033333,12.3333333 C14.0566667,12.36 14.0633333,12.41 14.1033333,12.44 L14.6633333,12.7733333 C14.7220112,12.8030344 14.7913221,12.8030344 14.85,12.7733333 L15.4333333,12.44 C15.4833333,12.4133333 15.4766667,12.3633333 15.4333333,12.3333333 L14.8766667,12 C14.8184085,11.9685895 14.7482581,11.9685895 14.69,12 L14.69,12 Z" id="路径" fill="#2B303F"></path>
                            <path d="M15.5166667,11.5266667 L14.9333333,11.86 C14.8866667,11.8866667 14.89,11.9333333 14.9333333,11.9666667 L15.49,12.3 C15.5490321,12.3281776 15.6176345,12.3281776 15.6766667,12.3 L16.2633333,11.9666667 C16.31,11.9366667 16.3033333,11.89 16.2633333,11.8566667 L15.7033333,11.5233333 C15.6441263,11.4946748 15.5748128,11.4959125 15.5166667,11.5266667 L15.5166667,11.5266667 Z" id="路径" fill="#2B303F"></path>
                            <path d="M16.3333333,11.05 L15.7466667,11.3833333 C15.7,11.41 15.7066667,11.46 15.7466667,11.49 L16.3066667,11.8233333 C16.3649248,11.8547438 16.4350752,11.8547438 16.4933333,11.8233333 L17.0766667,11.49 C17.1233333,11.4633333 17.12,11.4133333 17.0766667,11.3833333 L16.52,11.05 C16.4609679,11.0218224 16.3923655,11.0218224 16.3333333,11.05 Z" id="路径" fill="#2B303F"></path>
                            <path d="M17.1733333,10.57 L16.59,10.9033333 C16.54,10.93 16.5466667,10.9766667 16.59,11.01 L17.1466667,11.3433333 C17.2056988,11.3715109 17.2743012,11.3715109 17.3333333,11.3433333 L17.9166667,11.01 C17.9666667,10.98 17.96,10.9333333 17.9166667,10.9 L17.36,10.5666667 C17.3007929,10.5380081 17.2314795,10.5392459 17.1733333,10.57 Z" id="路径" fill="#2B303F"></path>
                            <path d="M18,10.0933333 L17.4166667,10.4266667 C17.37,10.4566667 17.3733333,10.5033333 17.4166667,10.5366667 L17.9733333,10.87 C18.0320112,10.899701 18.1013221,10.899701 18.16,10.87 L18.7466667,10.5366667 C18.7933333,10.51 18.7866667,10.4633333 18.7466667,10.43 L18.1866667,10.0966667 C18.1281389,10.06743 18.0595343,10.0662049 18,10.0933333 Z" id="路径" fill="#2B303F"></path>
                            <path d="M19.23,9.38666667 L18.23,9.95333333 C18.1833333,9.98 18.19,10.03 18.23,10.06 L18.79,10.3933333 C18.8490321,10.4215109 18.9176345,10.4215109 18.9766667,10.3933333 L19.9766667,9.82666667 C20.0233333,9.8 20.0166667,9.75 19.9766667,9.72 L19.4166667,9.38666667 C19.3587334,9.35399452 19.2879333,9.35399452 19.23,9.38666667 Z" id="路径" fill="#2B303F"></path>
                            <path d="M8.49,14.6666667 L7.90666667,15 C7.86,15.0266667 7.86333333,15.0733333 7.90666667,15.1066667 L8.46333333,15.44 C8.52236547,15.4681776 8.59096787,15.4681776 8.65,15.44 L9.23666667,15.1066667 C9.28333333,15.0766667 9.27666667,15.03 9.23666667,14.9966667 L8.66666667,14.6666667 C8.61074523,14.6402281 8.54592144,14.6402281 8.49,14.6666667 Z" id="路径" fill="#2B303F"></path>
                            <path d="M9.33333333,14.18 L8.75,14.5133333 C8.7,14.54 8.70666667,14.59 8.75,14.62 L9.30666667,14.9533333 C9.3656988,14.9815109 9.4343012,14.9815109 9.49333333,14.9533333 L10.08,14.62 C10.1266667,14.5933333 10.12,14.5433333 10.08,14.5133333 L9.52,14.18 C9.46174186,14.1485895 9.39159147,14.1485895 9.33333333,14.18 Z" id="路径" fill="#2B303F"></path>
                            <path d="M10.15,13.7 L9.56666667,14.0333333 C9.51666667,14.0633333 9.52333333,14.11 9.56666667,14.1433333 L10.1233333,14.4766667 C10.1820112,14.5063677 10.2513221,14.5063677 10.31,14.4766667 L10.8933333,14.1433333 C10.9433333,14.1166667 10.9366667,14.0666667 10.8933333,14.0366667 L10.3366667,13.7033333 C10.2781389,13.6740966 10.2095343,13.6728715 10.15,13.7 L10.15,13.7 Z" id="路径" fill="#2B303F"></path>
                            <path d="M10.98,13.22 L10.3933333,13.5533333 C10.3466667,13.58 10.3533333,13.6266667 10.3933333,13.66 L10.9533333,13.9933333 C11.0123655,14.0215109 11.0809679,14.0215109 11.14,13.9933333 L11.7233333,13.66 C11.77,13.63 11.7666667,13.5833333 11.7233333,13.55 L11.1666667,13.2166667 C11.1074596,13.1880081 11.0381461,13.1892459 10.98,13.22 L10.98,13.22 Z" id="路径" fill="#2B303F"></path>
                            <path d="M11.8033333,12.7466667 L11.2166667,13.08 C11.17,13.1066667 11.1766667,13.1566667 11.2166667,13.1866667 L11.7766667,13.52 C11.8349248,13.5514105 11.9050752,13.5514105 11.9633333,13.52 L12.5466667,13.1866667 C12.5933333,13.16 12.59,13.11 12.5466667,13.08 L11.99,12.7466667 C11.9309679,12.7184891 11.8623655,12.7184891 11.8033333,12.7466667 L11.8033333,12.7466667 Z" id="路径" fill="#2B303F"></path>
                            <path d="M12.6333333,12.2666667 L12.0466667,12.6 C12,12.63 12.0066667,12.6766667 12.0466667,12.71 L12.6066667,13.0433333 C12.6641793,13.0729919 12.7324874,13.0729919 12.79,13.0433333 L13.3766667,12.71 C13.4233333,12.6833333 13.4166667,12.6366667 13.3766667,12.6033333 L12.8166667,12.27 C12.759294,12.2408585 12.6917274,12.23963 12.6333333,12.2666667 L12.6333333,12.2666667 Z" id="路径" fill="#2B303F"></path>
                            <path d="M13.46,11.7866667 L12.8766667,12.12 C12.83,12.1466667 12.8333333,12.1933333 12.8766667,12.2266667 L13.4333333,12.56 C13.4923655,12.5881776 13.5609679,12.5881776 13.62,12.56 L14.2066667,12.2266667 C14.2533333,12.1966667 14.2466667,12.15 14.2066667,12.1166667 L13.6466667,11.7833333 C13.5874596,11.7546748 13.5181461,11.7559125 13.46,11.7866667 Z" id="路径" fill="#2B303F"></path>
                            <path d="M14.29,11.31 L13.7066667,11.6433333 C13.6566667,11.67 13.6633333,11.72 13.7066667,11.75 L14.2633333,12.0833333 C14.3215915,12.1147438 14.3917419,12.1147438 14.45,12.0833333 L15.0333333,11.75 C15.0833333,11.7233333 15.0766667,11.6733333 15.0333333,11.6433333 L14.4766667,11.31 C14.4176345,11.2818224 14.3490321,11.2818224 14.29,11.31 Z" id="路径" fill="#2B303F"></path>
                            <path d="M15.12,10.83 L14.5366667,11.1633333 C14.4866667,11.1933333 14.4933333,11.24 14.5366667,11.2733333 L15.0933333,11.6066667 C15.1520112,11.6363677 15.2213221,11.6363677 15.28,11.6066667 L15.8633333,11.2733333 C15.9133333,11.2466667 15.9066667,11.2 15.8633333,11.1666667 L15.3066667,10.8333333 C15.2481389,10.8040966 15.1795343,10.8028715 15.12,10.83 L15.12,10.83 Z" id="路径" fill="#2B303F"></path>
                            <path d="M15.95,10.35 L15.3633333,10.6833333 C15.3166667,10.71 15.3233333,10.7566667 15.3633333,10.79 L15.9233333,11.1233333 C15.9823655,11.1515109 16.0509679,11.1515109 16.11,11.1233333 L16.6933333,10.79 C16.74,10.76 16.7366667,10.7133333 16.6933333,10.68 L16.1366667,10.3466667 C16.0774596,10.3180081 16.0081461,10.3192459 15.95,10.35 L15.95,10.35 Z" id="路径" fill="#2B303F"></path>
                            <path d="M16.78,9.87333333 L16.1933333,10.2066667 C16.1466667,10.2333333 16.1533333,10.2833333 16.1933333,10.3133333 L16.7533333,10.6466667 C16.8115915,10.6780771 16.8817419,10.6780771 16.94,10.6466667 L17.5233333,10.3133333 C17.57,10.2866667 17.5666667,10.2366667 17.5233333,10.2066667 L16.9666667,9.87333333 C16.9076345,9.84515572 16.8390321,9.84515572 16.78,9.87333333 Z" id="路径" fill="#2B303F"></path>
                            <path d="M17.61,9.39333333 L17.0233333,9.72666667 C16.9766667,9.75666667 16.9833333,9.80333333 17.0233333,9.83666667 L17.58,10.17 C17.6386779,10.199701 17.7079888,10.199701 17.7666667,10.17 L18.3533333,9.83666667 C18.4,9.81 18.3933333,9.76333333 18.3533333,9.73 L17.7933333,9.39666667 C17.7359606,9.3675252 17.6683941,9.36629671 17.61,9.39333333 L17.61,9.39333333 Z" id="路径" fill="#2B303F"></path>
                            <path d="M7.66666667,15.1366667 L6.66666667,15.7033333 C6.62,15.7333333 6.62666667,15.78 6.66666667,15.8133333 L7.22666667,16.1466667 C7.28534453,16.1763677 7.35465547,16.1763677 7.41333333,16.1466667 L8.39666667,15.5766667 C8.44333333,15.55 8.43666667,15.5 8.39666667,15.47 L7.83666667,15.1366667 C7.7825331,15.1127049 7.72080024,15.1127049 7.66666667,15.1366667 Z" id="路径" fill="#2B303F"></path>
                            <path d="M19.19,9.35333333 L18.6033333,9.68666667 C18.5486713,9.71350111 18.484662,9.71350111 18.43,9.68666667 L17.84,9.35333333 C17.7933333,9.32666667 17.7933333,9.28333333 17.84,9.25333333 L17.8866667,9.22666667 C17.93,9.20333333 17.93,9.16 17.8866667,9.13333333 L17.2633333,8.77666667 C17.2133333,8.74666667 17.2133333,8.70333333 17.2633333,8.67333333 L17.6366667,8.46 C17.6913287,8.43316556 17.755338,8.43316556 17.81,8.46 L18.3933333,8.79333333 L18.5133333,8.86333333 L18.6,8.91333333 L18.69,8.96333333 L19.19,9.25333333 C19.2366667,9.28333333 19.2366667,9.33333333 19.19,9.35333333 Z" id="路径" fill="#2B303F"></path>
                            <path d="M4.86,13.9733333 L4.27333333,14.3066667 C4.22666667,14.3333333 4.23333333,14.38 4.27333333,14.4133333 L4.83333333,14.7466667 C4.89121793,14.7747506 4.95878207,14.7747506 5.01666667,14.7466667 L5.60333333,14.4133333 C5.65,14.3833333 5.64333333,14.3366667 5.60333333,14.3033333 L5.04333333,13.97 C4.9852827,13.9413816 4.91697194,13.9426236 4.86,13.9733333 Z" id="路径" fill="#2B303F"></path>
                            <path d="M5.68333333,13.4966667 L5.1,13.83 C5.05333333,13.8566667 5.05666667,13.9033333 5.1,13.9366667 L5.65666667,14.27 C5.7156988,14.2981776 5.7843012,14.2981776 5.84333333,14.27 L6.43,13.9366667 C6.47666667,13.9066667 6.47,13.86 6.43,13.8266667 L5.87,13.4933333 C5.81079293,13.4646748 5.74147946,13.4659125 5.68333333,13.4966667 L5.68333333,13.4966667 Z" id="路径" fill="#2B303F"></path>
                            <path d="M6.51,13.02 L5.92666667,13.3533333 C5.87666667,13.38 5.88333333,13.4266667 5.92666667,13.46 L6.48333333,13.7933333 C6.54236547,13.8215109 6.61096787,13.8215109 6.67,13.7933333 L7.25333333,13.46 C7.30333333,13.43 7.29666667,13.3833333 7.25333333,13.35 L6.69666667,13.0166667 C6.6374596,12.9880081 6.56814613,12.9892459 6.51,13.02 L6.51,13.02 Z" id="路径" fill="#2B303F"></path>
                            <path d="M13.54,8.96333333 L12.9566667,9.29666667 C12.91,9.32333333 12.9133333,9.37333333 12.9566667,9.40333333 L13.5133333,9.73666667 C13.5723655,9.76484428 13.6409679,9.76484428 13.7,9.73666667 L14.2866667,9.40333333 C14.3333333,9.37666667 14.3266667,9.32666667 14.2866667,9.29666667 L13.7266667,8.96333333 C13.6684085,8.93192288 13.5982581,8.93192288 13.54,8.96333333 Z" id="路径" fill="#2B303F"></path>
                            <path d="M14.3666667,8.48666667 L13.7833333,8.82 C13.7333333,8.84666667 13.74,8.89666667 13.7833333,8.92666667 L14.34,9.26 C14.3990321,9.28817761 14.4676345,9.28817761 14.5266667,9.26 L15.11,8.92666667 C15.16,8.9 15.1533333,8.85 15.11,8.82 L14.5533333,8.48666667 C14.4950752,8.45525622 14.4249248,8.45525622 14.3666667,8.48666667 Z" id="路径" fill="#2B303F"></path>
                            <path d="M15.1933333,8 L14.6066667,8.33333333 C14.56,8.36 14.5666667,8.41 14.6066667,8.44 L15.1666667,8.77333333 C15.2256988,8.80151094 15.2943012,8.80151094 15.3533333,8.77333333 L15.9366667,8.44 C15.9833333,8.41333333 15.98,8.36333333 15.9366667,8.33333333 L15.38,8 C15.3217419,7.96858955 15.2515915,7.96858955 15.1933333,8 Z" id="路径" fill="#2B303F"></path>
                            <path d="M16.0166667,7.53333333 L15.4333333,7.86666667 C15.3866667,7.89333333 15.39,7.94333333 15.4333333,7.97333333 L15.99,8.30666667 C16.0490321,8.33484428 16.1176345,8.33484428 16.1766667,8.30666667 L16.7633333,7.97333333 C16.81,7.94666667 16.8033333,7.89666667 16.7633333,7.86666667 L16.2033333,7.53333333 C16.1450752,7.50192288 16.0749248,7.50192288 16.0166667,7.53333333 L16.0166667,7.53333333 Z" id="路径" fill="#2B303F"></path>
                            <path d="M7.55,12.4233333 L6.75,12.8833333 C6.70333333,12.91 6.71,12.9566667 6.75,12.99 L7.31,13.3233333 C7.36903213,13.3515109 7.43763453,13.3515109 7.49666667,13.3233333 L8.29333333,12.8633333 C8.34,12.8366667 8.33333333,12.7866667 8.29333333,12.7566667 L7.73333333,12.4233333 C7.67626432,12.3918998 7.60706901,12.3918998 7.55,12.4233333 Z" id="路径" fill="#2B303F"></path>
                            <path d="M12.7166667,9.44 L11.9166667,9.9 C11.87,9.92666667 11.8766667,9.97333333 11.9166667,10.0066667 L12.4766667,10.34 C12.5356988,10.3681776 12.6043012,10.3681776 12.6633333,10.34 L13.46,9.88 C13.5066667,9.85333333 13.5033333,9.80333333 13.46,9.77333333 L12.9033333,9.44 C12.8450752,9.40858955 12.7749248,9.40858955 12.7166667,9.44 L12.7166667,9.44 Z" id="路径" fill="#2B303F"></path>
                            <path d="M11.6666667,10.0366667 L7.78,12.2833333 C7.73,12.31 7.73666667,12.36 7.78,12.39 L8.33666667,12.7233333 C8.3956988,12.7515109 8.4643012,12.7515109 8.52333333,12.7233333 L12.4133333,10.48 C12.46,10.45 12.4533333,10.4033333 12.3966667,10.37 L11.84,10.0366667 C11.7850138,10.0112666 11.7216529,10.0112666 11.6666667,10.0366667 L11.6666667,10.0366667 Z" id="路径" fill="#2B303F"></path>
                            <path d="M7.91333333,14.0633333 L7.33,14.3966667 C7.28,14.4233333 7.28666667,14.47 7.33,14.5033333 L7.88666667,14.8366667 C7.94534453,14.8663677 8.01465547,14.8663677 8.07333333,14.8366667 L8.66,14.5033333 C8.70666667,14.4766667 8.7,14.43 8.66,14.3966667 L8.1,14.0633333 C8.04132214,14.0336323 7.9720112,14.0336323 7.91333333,14.0633333 Z" id="路径" fill="#2B303F"></path>
                            <path d="M8.74,13.5866667 L8.15666667,13.92 C8.11,13.95 8.11333333,13.9966667 8.15666667,14.03 L8.71333333,14.3633333 C8.7720112,14.3930344 8.84132214,14.3930344 8.9,14.3633333 L9.48666667,14.03 C9.53333333,14.0033333 9.52666667,13.9566667 9.48666667,13.9233333 L8.92666667,13.59 C8.86813892,13.5607633 8.79953427,13.5595382 8.74,13.5866667 L8.74,13.5866667 Z" id="路径" fill="#2B303F"></path>
                            <path d="M9.56666667,13.11 L8.98333333,13.4433333 C8.93666667,13.47 8.94,13.52 8.98333333,13.55 L9.54,13.8833333 C9.59825814,13.9147438 9.66840853,13.9147438 9.72666667,13.8833333 L10.3133333,13.55 C10.36,13.5233333 10.3533333,13.4733333 10.3133333,13.4433333 L9.75333333,13.11 C9.69465547,13.080299 9.62534453,13.080299 9.56666667,13.11 L9.56666667,13.11 Z" id="路径" fill="#2B303F"></path>
                            <path d="M10.3966667,12.6333333 L9.81,12.9666667 C9.76333333,12.9933333 9.77,13.0433333 9.81,13.0733333 L10.37,13.4066667 C10.4278846,13.4347506 10.4954487,13.4347506 10.5533333,13.4066667 L11.14,13.0733333 C11.1866667,13.0433333 11.18,12.9966667 11.14,12.9633333 L10.58,12.63 C10.5223609,12.5995981 10.4531625,12.6008562 10.3966667,12.6333333 Z" id="路径" fill="#2B303F"></path>
                            <path d="M11.2233333,12.1533333 L10.6366667,12.4866667 C10.59,12.5133333 10.5966667,12.56 10.6366667,12.5933333 L11.1966667,12.9266667 C11.2553445,12.9563677 11.3246555,12.9563677 11.3833333,12.9266667 L11.9666667,12.5933333 C12.0133333,12.5666667 12.01,12.52 11.9666667,12.4866667 L11.41,12.1533333 C11.3513221,12.1236323 11.2820112,12.1236323 11.2233333,12.1533333 L11.2233333,12.1533333 Z" id="路径" fill="#2B303F"></path>
                            <path d="M12.05,11.6666667 L11.4633333,12 C11.4166667,12.03 11.4233333,12.0766667 11.4633333,12.11 L12.0233333,12.4433333 C12.0820112,12.4730344 12.1513221,12.4730344 12.21,12.4433333 L12.7933333,12.11 C12.84,12.0833333 12.8366667,12.0366667 12.7933333,12.0033333 L12.2366667,11.67 C12.1781389,11.6407633 12.1095343,11.6395382 12.05,11.6666667 Z" id="路径" fill="#2B303F"></path>
                            <path d="M12.8766667,11.2 L12.29,11.5333333 C12.2433333,11.56 12.25,11.61 12.29,11.64 L12.85,11.9733333 C12.9082581,12.0047438 12.9784085,12.0047438 13.0366667,11.9733333 L13.62,11.64 C13.67,11.6133333 13.6633333,11.5633333 13.62,11.5333333 L13.0633333,11.2 C13.0046555,11.170299 12.9353445,11.170299 12.8766667,11.2 L12.8766667,11.2 Z" id="路径" fill="#2B303F"></path>
                            <path d="M13.7033333,10.72 L13.12,11.0533333 C13.07,11.08 13.0766667,11.1266667 13.12,11.16 L13.6766667,11.4933333 C13.7356988,11.5215109 13.8043012,11.5215109 13.8633333,11.4933333 L14.4466667,11.16 C14.4966667,11.13 14.49,11.0833333 14.4466667,11.05 L13.89,10.7166667 C13.8307929,10.6880081 13.7614795,10.6892459 13.7033333,10.72 Z" id="路径" fill="#2B303F"></path>
                            <path d="M14.53,10.2433333 L13.9466667,10.5766667 C13.8966667,10.6033333 13.9033333,10.65 13.9466667,10.6833333 L14.5033333,11.0166667 C14.5620112,11.0463677 14.6313221,11.0463677 14.69,11.0166667 L15.2733333,10.6833333 C15.3233333,10.6566667 15.3166667,10.61 15.2733333,10.5766667 L14.7166667,10.2433333 C14.6579888,10.2136323 14.5886779,10.2136323 14.53,10.2433333 Z" id="路径" fill="#2B303F"></path>
                            <path d="M15.3566667,9.76666667 L14.7733333,10.1 C14.7266667,10.13 14.73,10.1766667 14.7733333,10.21 L15.33,10.5433333 C15.3886779,10.5730344 15.4579888,10.5730344 15.5166667,10.5433333 L16.1033333,10.21 C16.15,10.1833333 16.1433333,10.1366667 16.1033333,10.1033333 L15.5433333,9.77 C15.4848056,9.74076329 15.4162009,9.7395382 15.3566667,9.76666667 Z" id="路径" fill="#2B303F"></path>
                            <path d="M16.1833333,9.29 L15.6,9.62333333 C15.5533333,9.65 15.5566667,9.7 15.6,9.73 L16.1566667,10.0633333 C16.2153445,10.0930344 16.2846555,10.0930344 16.3433333,10.0633333 L16.93,9.73 C16.9766667,9.70333333 16.97,9.65333333 16.93,9.62333333 L16.37,9.29 C16.3117419,9.25858955 16.2415915,9.25858955 16.1833333,9.29 L16.1833333,9.29 Z" id="路径" fill="#2B303F"></path>
                            <path d="M17,8.81 L16.4133333,9.14333333 C16.3666667,9.17 16.3733333,9.21666667 16.4133333,9.25 L16.9733333,9.58333333 C17.0312179,9.61141722 17.0987821,9.61141722 17.1566667,9.58333333 L17.7433333,9.25 C17.79,9.22 17.7833333,9.17333333 17.7433333,9.14 L17.1833333,8.80666667 C17.1252827,8.77804824 17.0569719,8.77929026 17,8.81 Z" id="路径" fill="#2B303F"></path>
                            <path d="M7.08666667,14.5433333 L5.87666667,15.24 C5.83,15.2666667 5.83666667,15.3166667 5.87666667,15.3466667 L6.43666667,15.68 C6.49417929,15.7096586 6.56248738,15.7096586 6.62,15.68 L7.83,14.9833333 C7.88,14.9533333 7.87333333,14.9066667 7.83,14.8766667 L7.27333333,14.5433333 C7.21507519,14.5119229 7.14492481,14.5119229 7.08666667,14.5433333 Z" id="路径" fill="#2B303F"></path>
                            <path d="M6.7,13.8366667 L6.11666667,14.17 C6.06666667,14.1966667 6.07333333,14.2433333 6.11666667,14.2766667 L6.67333333,14.61 C6.73236547,14.6381776 6.80096787,14.6381776 6.86,14.61 L7.44666667,14.2766667 C7.49333333,14.2466667 7.48666667,14.2 7.44666667,14.1666667 L6.88666667,13.8333333 C6.8274596,13.8046748 6.75814613,13.8059125 6.7,13.8366667 L6.7,13.8366667 Z" id="路径" fill="#2B303F"></path>
                            <path d="M7.52666667,13.36 L6.94333333,13.6933333 C6.89666667,13.7233333 6.9,13.77 6.94333333,13.8033333 L7.5,14.1366667 C7.55867786,14.1663677 7.6279888,14.1663677 7.68666667,14.1366667 L8.27333333,13.8033333 C8.32,13.7766667 8.31333333,13.73 8.27333333,13.6966667 L7.71333333,13.3633333 C7.65480559,13.3340966 7.58620093,13.3328715 7.52666667,13.36 Z" id="路径" fill="#2B303F"></path>
                            <path d="M8.35333333,12.8833333 L7.77,13.2166667 C7.72333333,13.2433333 7.72666667,13.2933333 7.77,13.3233333 L8.32666667,13.6566667 C8.38492481,13.6880771 8.45507519,13.6880771 8.51333333,13.6566667 L9.1,13.3233333 C9.14666667,13.2966667 9.14,13.2466667 9.1,13.2166667 L8.54,12.8833333 C8.48096787,12.8551557 8.41236547,12.8551557 8.35333333,12.8833333 L8.35333333,12.8833333 Z" id="路径" fill="#2B303F"></path>
                            <path d="M9.18333333,12.4066667 L8.59666667,12.74 C8.55,12.7666667 8.55666667,12.8166667 8.59666667,12.8466667 L9.15666667,13.18 C9.21455126,13.2080839 9.28211541,13.2080839 9.34,13.18 L9.92666667,12.8466667 C9.97333333,12.82 9.96666667,12.77 9.92666667,12.74 L9.36666667,12.4066667 C9.30959766,12.3752331 9.24040234,12.3752331 9.18333333,12.4066667 Z" id="路径" fill="#2B303F"></path>
                            <path d="M10,11.9266667 L9.41333333,12.26 C9.36666667,12.2866667 9.37333333,12.3333333 9.41333333,12.3666667 L9.97333333,12.7 C10.0312179,12.7280839 10.0987821,12.7280839 10.1566667,12.7 L10.7433333,12.3666667 C10.79,12.3366667 10.7833333,12.29 10.7433333,12.2566667 L10.1833333,11.9233333 C10.1252827,11.8947149 10.0569719,11.8959569 10,11.9266667 Z" id="路径" fill="#2B303F"></path>
                            <path d="M10.8366667,11.45 L10.25,11.7833333 C10.2033333,11.81 10.21,11.8566667 10.25,11.89 L10.81,12.2233333 C10.8686779,12.2530344 10.9379888,12.2530344 10.9966667,12.2233333 L11.58,11.89 C11.6266667,11.8633333 11.6233333,11.8166667 11.58,11.7833333 L11.0233333,11.45 C10.9646555,11.420299 10.8953445,11.420299 10.8366667,11.45 L10.8366667,11.45 Z" id="路径" fill="#2B303F"></path>
                            <path d="M11.6666667,10.9733333 L11.08,11.3066667 C11.0333333,11.3366667 11.04,11.3833333 11.08,11.4166667 L11.64,11.75 C11.6986779,11.779701 11.7679888,11.779701 11.8266667,11.75 L12.41,11.4166667 C12.4566667,11.39 12.4533333,11.3433333 12.41,11.31 L11.8533333,10.9766667 C11.7948056,10.94743 11.7262009,10.9462049 11.6666667,10.9733333 Z" id="路径" fill="#2B303F"></path>
                            <path d="M12.49,10.4966667 L11.9033333,10.83 C11.8566667,10.8566667 11.8633333,10.9066667 11.9033333,10.9366667 L12.4633333,11.27 C12.5215915,11.3014105 12.5917419,11.3014105 12.65,11.27 L13.2333333,10.9366667 C13.28,10.91 13.2766667,10.86 13.2333333,10.83 L12.6766667,10.4966667 C12.6179888,10.4669656 12.5486779,10.4669656 12.49,10.4966667 Z" id="路径" fill="#2B303F"></path>
                            <path d="M13.3333333,10.02 L12.7466667,10.3533333 C12.7,10.38 12.7066667,10.43 12.7466667,10.46 L13.3066667,10.7933333 C13.3656988,10.8215109 13.4343012,10.8215109 13.4933333,10.7933333 L14.0766667,10.46 C14.1266667,10.4333333 14.12,10.3833333 14.0766667,10.3533333 L13.52,10.02 C13.4617419,9.98858955 13.3915915,9.98858955 13.3333333,10.02 Z" id="路径" fill="#2B303F"></path>
                            <path d="M14.1433333,9.54 L13.56,9.87333333 C13.51,9.9 13.5166667,9.94666667 13.56,9.98 L14.1166667,10.3133333 C14.1756988,10.3415109 14.2443012,10.3415109 14.3033333,10.3133333 L14.8866667,9.98 C14.9366667,9.95 14.93,9.90333333 14.8866667,9.87 L14.33,9.53666667 C14.2707929,9.50800812 14.2014795,9.50924586 14.1433333,9.54 Z" id="路径" fill="#2B303F"></path>
                            <path d="M14.97,9.06333333 L14.3866667,9.39666667 C14.3366667,9.42666667 14.3433333,9.47333333 14.3866667,9.50666667 L14.9433333,9.84 C15.0020112,9.86970104 15.0713221,9.86970104 15.13,9.84 L15.7133333,9.50666667 C15.7633333,9.48 15.7566667,9.43333333 15.7133333,9.4 L15.1566667,9.06666667 C15.0981389,9.03742995 15.0295343,9.03620487 14.97,9.06333333 Z" id="路径" fill="#2B303F"></path>
                            <path d="M16.82,8 L15.2133333,8.92666667 C15.1633333,8.95333333 15.17,9.00333333 15.2133333,9.03333333 L15.77,9.36666667 C15.8282581,9.39807712 15.8984085,9.39807712 15.9566667,9.36666667 L17.5666667,8.44 C17.6133333,8.41333333 17.6066667,8.36333333 17.5666667,8.33333333 L17,8 C16.9435208,7.97093115 16.8764792,7.97093115 16.82,8 L16.82,8 Z" id="路径" fill="#2B303F"></path>
                            <path d="M5.87333333,14.3333333 L5.07666667,14.7933333 C5.03,14.82 5.03333333,14.8666667 5.07666667,14.9 L5.63333333,15.2333333 C5.69236547,15.2615109 5.76096787,15.2615109 5.82,15.2333333 L6.62,14.7733333 C6.66666667,14.7466667 6.66,14.6966667 6.60333333,14.6666667 L6.04666667,14.3333333 C5.99200465,14.3064989 5.92799535,14.3064989 5.87333333,14.3333333 L5.87333333,14.3333333 Z" id="路径" fill="#2B303F"></path>
                            <path d="M20.06,9.86333333 L8.31333333,16.6466667 C8.26666667,16.6733333 8.27333333,16.72 8.31333333,16.7533333 L8.59333333,16.9133333 C8.6520112,16.9430344 8.72132214,16.9430344 8.78,16.9133333 L20.5233333,10.13 C20.5733333,10.1033333 20.5666667,10.0566667 20.5233333,10.0233333 L20.2466667,9.86333333 C20.1879888,9.8336323 20.1186779,9.8336323 20.06,9.86333333 Z" id="路径" fill="#2B303F"></path>
                            <polygon id="_Контур_13" fill="#BFBFBF" points="6.31666667 10.1666667 6.39333333 10.21 8.42333333 11.3833333 12.03 9.3 12.1066667 9.25666667 10 8.04333333"></polygon>
                            <polygon id="_Контур_14" fill="#E5E5E5" points="6.39333333 10.21 8.42333333 11.3833333 12.03 9.3 10 8.13"></polygon>
                            <path d="M0.53,12.9033333 L0.53,13.0833333 C0.530306566,13.347403 0.671308704,13.5912986 0.9,13.7233333 L8.05333333,17.8533333 C8.16549513,17.9191778 8.29327329,17.9537124 8.42333333,17.9533364 C8.55328761,17.9529161 8.68086178,17.9184366 8.79333333,17.8533333 L21.7333333,10.38 C21.9625291,10.2484707 22.1037165,10.0042546 22.1033341,9.74 L22.1033341,9.56 L8.43666667,17.46 L0.53,12.9033333 Z" id="_Контур_15" fill="#E5E5E5"></path>
                            <path d="M8.63,17.57 C8.87825489,17.6658873 9.15662596,17.6438138 9.38666667,17.51 L22.2733333,10.07 C22.4995934,9.93907539 22.6559344,9.71433521 22.7,9.45666667 L24.11,1.04666667 C24.1131937,0.998942259 24.1131937,0.951057741 24.11,0.903333333 C24.1105729,0.669723849 24.0182344,0.44547318 23.8533333,0.28 L10.47,8 C10.3050648,8.09885156 10.190845,8.26410571 10.1566667,8.45333333 L8.63,17.57 Z" id="_Контур_16" fill="#F4F4F4"></path>
                            <path d="M8.42333333,17.46 L8.51,17.51 C8.54861174,17.5326638 8.58870195,17.5527089 8.63,17.57 L10.1566667,8.46333333 C10.190845,8.27410571 10.3050648,8.10885156 10.47,8.01 L23.8633333,0.28 C23.8092228,0.227168015 23.74876,0.181261087 23.6833333,0.143333333 L10.2633333,7.89 C10.0983981,7.98885156 9.98417835,8.15410571 9.95,8.34333333 L8.42333333,17.46 Z" id="_Контур_17" fill="#E5E5E5"></path>
                        </g>
                    </g>
                    <ellipse id="椭圆形" fill="#D6D8E5" opacity="0.4" cx="134.823333" cy="159.003333" rx="13.27" ry="7.66333333"></ellipse>
                    <g id="Men_1" transform="translate(112.000000, 82.000000)">
                        <path d="M33.58,18.7633333 C33.73,20.0966667 35.31,25.7933333 34.97,27.7466667 C34.63,29.7 29.24,32.9733333 29.24,32.9733333 L28.4933333,29.64 L31.4933333,26.7133333 L30.6666667,21.1566667 L33.58,18.7633333 Z" id="_Контур_18" fill="#FFCEA9"></path>
                        <path d="M29.41,13.14 C30.4950768,12.6355668 31.7859351,13.0256929 32.41,14.0466667 C33.2033333,15.36 34.0266667,19.8666667 34.1033333,20.6366667 C34.1033333,20.6366667 32.99,22.1733333 31.32,21.9166667 L29.41,13.14 Z" id="_Контур_19" fill="#EDEDED"></path>
                        <path d="M23.25,76.7733333 C22.0764179,77.0987538 20.8217464,76.9465635 19.76,76.35 C18.92,76.3766667 14.3566667,74.4233333 13.7366667,76.0633333 C13.1933333,77.5 15.17,78.83 16.2266667,79.0866667 C18.53,79.6433333 20.2266667,80.7933333 21.16,80.9866667 C21.85,81.1333333 22.7433333,81.23 23.2933333,80.6866667 C23.9533333,80.0366667 23.8966667,77.63 23.25,76.7733333 Z" id="路径" fill="#38226D"></path>
                        <path d="M21.16,80.59 C20.2366667,80.3966667 18.53,79.2566667 16.2266667,78.6866667 C15.34,78.4733333 13.8166667,77.5033333 13.6633333,76.3533333 C13.4566667,77.6866667 15.24,78.85 16.2266667,79.09 C18.53,79.6466667 20.2266667,80.7966667 21.16,80.99 C21.85,81.1366667 22.7433333,81.2333333 23.2933333,80.69 C23.4350842,80.5322118 23.538844,80.3440758 23.5966667,80.14 C22.9012058,80.6666578 21.9976956,80.8335167 21.16,80.59 Z" id="路径" fill="#9C73FF"></path>
                        <path d="M30.6666667,73.45 C29.4933816,73.7745919 28.2394424,73.6236881 27.1766667,73.03 C26.3366667,73.0533333 21.7733333,71.1 21.1533333,72.74 C20.61,74.1766667 22.5866667,75.5066667 23.6433333,75.7633333 C25.9466667,76.32 27.6433333,77.47 28.5766667,77.6666667 C29.27,77.81 30.16,77.9066667 30.71,77.3633333 C31.3533333,76.7133333 31.2966667,74.3066667 30.6666667,73.45 Z" id="路径" fill="#38226D"></path>
                        <path d="M28.56,77.2666667 C27.6366667,77.0733333 25.93,75.9333333 23.6266667,75.3633333 C22.74,75.15 21.2166667,74.1833333 21.0633333,73.03 C20.8566667,74.3633333 22.64,75.5233333 23.6266667,75.7633333 C25.93,76.32 27.6266667,77.47 28.56,77.6666667 C29.2533333,77.81 30.1433333,77.9066667 30.6933333,77.3633333 C30.8350842,77.2055452 30.938844,77.0174092 30.9966667,76.8133333 C30.3017773,77.3411408 29.398217,77.5092451 28.56,77.2666667 L28.56,77.2666667 Z" id="路径" fill="#9C73FF"></path>
                        <path d="M30.74,61.0533333 C30.5449216,59.3575726 30.1922868,57.6836732 29.6866667,56.0533333 C29.6866667,56.0533333 30.0033333,51.74 30.16,47.65 C30.34,43.01 31.9466667,38.9266667 30.6766667,35.2233333 L16.36,38.4066667 C16.36,38.4066667 17.2266667,56.9066667 17.42,59.1466667 C17.5250464,60.8872026 17.7387966,62.6194697 18.06,64.3333333 C18.7266667,67.9233333 19.7766667,76.4666667 19.7766667,76.4666667 C21.29,77.3466667 23.2766667,76.86 23.2766667,76.86 C23.2766667,76.86 23.17,66.0566667 23.07,63.47 C22.9533333,60.31 22.8566667,60.55 22.8566667,60.55 L23.3333333,52.69 L23.6433333,48.7766667 C23.6433333,48.7766667 24.04,51.65 24.31,54.2166667 C24.5333333,56.4533333 25.0733333,58.4766667 25.6766667,62.6433333 C26.2,66.2566667 27.05,73.5166667 27.05,73.5166667 C28.5633333,74.4 30.62,73.6666667 30.62,73.6666667 C30.62,73.6666667 31.15,64.1866667 30.74,61.0533333 Z" id="_Контур_20" fill="#2E92F7"></path>
                        <path d="M28.6666667,13.2166667 C27.5766667,13.27 26.7666667,13.55 26.63,13.2166667 C26.5120416,12.6545125 26.4285527,12.0856742 26.38,11.5133333 C26.5066667,11.1966667 26.6133333,10.8466667 26.6133333,10.8466667 C27.9833333,10.0033333 28.4166667,8.51333333 28.5966667,6.8 C28.9033333,3.85333333 27.31,1.27666667 24.3666667,0.966666667 C21.5966667,0.68 19.56,2.63333333 19.0166667,5.3 C18.7233333,6.63333333 18.14,9.11333333 18.93,11.3 C19.37,12.5133333 19.93,13.4766667 20.5033333,13.6633333 C21.0524233,13.6492548 21.6001259,13.6013864 22.1433333,13.52 L22.1433333,13.52 C22.1433333,13.52 22.29,14.34 22.3933333,14.8533333 C22.4966667,15.3666667 22.4533333,15.6566667 21.41,16.3 C20.3666667,16.9433333 22.99,18.27 24.7066667,18.1366667 C26.4233333,18.0033333 28.3333333,17 28.86,15.8766667 C29.45,14.64 29.4,13.18 28.6666667,13.2166667 Z" id="_Контур_21" fill="#FFCEA9"></path>
                        <path d="M27.0733333,13.38 C27.3733333,14.13 26.6066667,15.0466667 24.56,15.6966667 C22.5133333,16.3466667 22.3266667,15.5133333 22.3266667,15.5133333 C22.3266667,15.5133333 19.3266667,16.88 18.3466667,17.5633333 C17.12,18.4233333 16.5733333,20.8966667 16.4066667,25.1066667 C16.2166667,29.9633333 16.2,37.1666667 16.36,38.41 C16.36,38.41 18.6566667,40.7 21.5966667,40.46 C24.5366667,40.22 29.4833333,37.6166667 30.6833333,35.6066667 C30.65,31.35 30.15,30.6566667 30.84,28.2033333 C32.42,22.5866667 33.25,20.2866667 32.4833333,16.5533333 C31.85,13.4766667 30.9633333,13.0966667 29.75,13.1266667 C28.8539033,13.1633891 27.9604081,13.247954 27.0733333,13.38 L27.0733333,13.38 Z" id="_Контур_22" fill="#F4F4F4"></path>
                        <path d="M11.7866667,29.12 C14.2,29.73 14.7666667,28.2066667 15.0833333,26.95 C15.85,23.9 16.2633333,21.1466667 16.8366667,19.4133333 C17.5033333,17.3733333 18.2166667,17.05 19.2066667,16.65 C20.3733333,16.1833333 21.3733333,17.1666667 20.9866667,19.7666667 C20.5266667,22.84 19.9266667,24.9966667 18.7766667,28.6333333 C18.4766667,29.5833333 17.8033333,31.27 16.7966667,32.0866667 C15.55,33.0866667 13.6766667,33.05 10.84,32.3433333 C9.63,32.0433333 8.30333333,31.32 6.01666667,30.2533333 C5.40333333,29.9666667 4.92333333,29.7766667 3.74666667,29.2266667 C2.57,28.6766667 1.34,27.76 0.723333333,26.8666667 C0.106666667,25.9733333 0.0233333333,25.5333333 0.15,25.3466667 C0.306666667,25.09 0.586666667,25.1466667 0.916666667,25.5233333 C1.39250691,26.1605176 1.9811242,26.7050734 2.65333333,27.13 C2.65333333,27.13 1.89,26.3433333 1.47666667,25.8333333 C1.10700769,25.3785 0.799840273,24.8762701 0.563333333,24.34 C0.346666667,23.82 0.796666667,23.1133333 1.13666667,23.4833333 C1.47666667,23.8533333 1.64333333,24.2333333 2.26666667,24.98 C2.59398563,25.3797738 2.96899482,25.7379915 3.38333333,26.0466667 C2.99634607,25.519304 2.65192626,24.9619904 2.35333333,24.38 C2.0864388,23.9277239 1.95565644,23.4080666 1.97666667,22.8833333 C1.99333333,22.61 2.38,22.2866667 2.74,22.8033333 C3.07333333,23.2666667 3.28,23.9933333 4.03666667,24.7833333 C4.58666667,25.3533333 5.05666667,25.6833333 5.07,25.5233333 C5.08333333,25.3633333 4.73666667,25.0533333 4.54,24.3866667 C4.34333333,23.72 4.54,23.0166667 4.91,22.94 C5.28,22.8633333 5.20666667,22.8833333 5.5,23.5066667 C5.79333333,24.13 6.25,24.59 6.59666667,25.5066667 C6.78571663,26.1486436 7.12904121,26.7345842 7.59666667,27.2133333 C8.18333333,27.8466667 9.49333333,28.5433333 11.7866667,29.12 Z" id="_Контур_23" fill="#FFCEA9"></path>
                        <path d="M20.1,16.2333333 C18.49,15.9966667 17.3533333,16.72 16.64,19.1633333 C15.9266667,21.6066667 15.4333333,23.6066667 15.4333333,23.6066667 C16.069738,24.5267431 17.0350023,25.1674686 18.13,25.3966667 C20.0566667,25.8633333 20.75,24.9433333 20.75,24.9433333 C20.75,24.9433333 21.2866667,22.3866667 21.62,20.6466667 C21.9533333,18.9066667 22.0933333,16.5266667 20.1,16.2333333 Z" id="_Контур_24" fill="#EDEDED"></path>
                        <path d="M19.0933333,4.93 C19.0933333,4.93 16.5466667,1.06333333 22.0633333,0.263333333 C26.04,-0.303333333 28.5966667,2.26333333 28.89,5.02333333 C29.1733333,7.67333333 27.54,10.4233333 26.3633333,11.5166667 C25.79,11.72 24.55,11.85 22.9266667,11.1 C22.8606823,10.3786612 22.8350868,9.65419693 22.85,8.93 C22.85,8.93 24.79,4.86 19.0933333,4.93 Z" id="路径" fill="#1965B1"></path>
                    </g>
                    <circle id="椭圆形" fill="#1965B1" cx="79.6133333" cy="67.6433333" r="5.86"></circle>
                    <path d="M79.6133333,70.4166667 C77.39,70.4166667 75.2366667,69.91 73.7066667,69.0233333 C72.43,68.2866667 71.7066667,67.3566667 71.7066667,66.4766667 C71.7066667,65.5966667 72.44,64.6666667 73.7066667,63.93 C75.2366667,63.0433333 77.3733333,62.5366667 79.6133333,62.5366667 C81.8533333,62.5366667 83.9866667,63.0466667 85.52,63.93 C86.7966667,64.6666667 87.52,65.5966667 87.52,66.4766667 C87.52,67.3566667 86.79,68.2866667 85.52,69.0233333 C84,69.91 81.8333333,70.4166667 79.6133333,70.4166667 Z" id="路径" fill="#B7C0EE"></path>
                    <path d="M79.6133333,69.4066667 C77.39,69.4066667 75.2366667,68.9 73.7066667,68.0166667 C72.43,67.28 71.7066667,66.35 71.7066667,65.47 C71.7066667,64.59 72.44,63.66 73.7066667,62.92 C75.2366667,62.0366667 77.3733333,61.53 79.6133333,61.53 C81.8533333,61.53 83.9866667,62.0366667 85.52,62.92 C86.7966667,63.66 87.52,64.5866667 87.52,65.47 C87.52,66.3533333 86.79,67.28 85.52,68.0166667 C84,68.9 81.8333333,69.4066667 79.6133333,69.4066667 Z" id="路径" fill="#1965B1"></path>
                    <path d="M79.6133333,68.4966667 C76.7333333,68.4966667 73.9466667,67.83 71.9466667,66.6933333 C70.28,65.7366667 69.3433333,64.5333333 69.3433333,63.39 C69.3433333,62.2466667 70.29,61.0566667 71.9466667,60.09 C73.93,58.9433333 76.72,58.2866667 79.6133333,58.2866667 C82.5066667,58.2866667 85.28,58.9533333 87.28,60.09 C88.9466667,61.0433333 89.8866667,62.2466667 89.8866667,63.39 C89.8866667,64.5333333 88.9366667,65.7233333 87.28,66.6933333 C85.2833333,67.84 82.4933333,68.4966667 79.6133333,68.4966667 Z" id="路径" fill="#B7C0EE"></path>
                    <path d="M79.6133333,67.19 C76.7333333,67.19 73.9466667,66.5233333 71.9466667,65.3866667 C70.28,64.4333333 69.3433333,63.2266667 69.3433333,62.0866667 C69.3433333,60.9466667 70.29,59.7533333 71.9466667,58.7833333 C73.93,57.6366667 76.72,56.98 79.6133333,56.98 C82.5066667,56.98 85.28,57.6466667 87.28,58.7833333 C88.9466667,59.74 89.8866667,60.9433333 89.8866667,62.0866667 C89.8866667,63.23 88.9366667,64.42 87.28,65.3866667 C85.2833333,66.5333333 82.4933333,67.19 79.6133333,67.19 Z" id="路径" fill="#1965B1"></path>
                    <path d="M79.6133333,65.9733333 C76.1,65.9733333 72.7,65.1733333 70.28,63.7766667 C68.2633333,62.61 67.1066667,61.1433333 67.1066667,59.75 C67.1066667,58.3566667 68.2633333,56.89 70.28,55.7266667 C72.7,54.33 76.1,53.5266667 79.6133333,53.5266667 C83.1266667,53.5266667 86.5233333,54.33 88.9466667,55.7266667 C90.9633333,56.89 92.12,58.3566667 92.12,59.75 C92.12,61.1433333 90.9633333,62.61 88.9466667,63.7766667 C86.5266667,65.1733333 83.1233333,65.9733333 79.6133333,65.9733333 Z" id="路径" fill="#B7C0EE"></path>
                    <path d="M79.6133333,64.38 C76.1,64.38 72.7,63.58 70.28,62.1833333 C68.2633333,61.02 67.1066667,59.55 67.1066667,58.1566667 C67.1066667,56.7633333 68.2633333,55.2966667 70.28,54.1333333 C72.7,52.7366667 76.1,51.9366667 79.6133333,51.9366667 C83.1266667,51.9366667 86.5233333,52.7366667 88.9466667,54.1333333 C90.9633333,55.2966667 92.12,56.7666667 92.12,58.16 C92.12,59.5533333 90.9633333,61.02 88.9466667,62.1833333 C86.5266667,63.58 83.1233333,64.38 79.6133333,64.38 Z" id="路径" fill="#1965B1"></path>
                    <path d="M79.6133333,62.7366667 C75.58,62.7366667 71.6766667,61.82 68.8966667,60.2133333 C66.58,58.88 65.2533333,57.1933333 65.2533333,55.5933333 C65.2533333,53.9933333 66.5866667,52.31 68.8966667,50.97 C71.6733333,49.3666667 75.58,48.45 79.61,48.45 C83.64,48.45 87.55,49.3666667 90.3266667,50.9733333 C92.6433333,52.3066667 93.97,53.9933333 93.97,55.5933333 C93.97,57.1933333 92.6366667,58.8766667 90.3266667,60.2133333 C87.55,61.82 83.6433333,62.7366667 79.6133333,62.7366667 Z" id="路径" fill="#B7C0EE"></path>
                    <path d="M79.6133333,60.91 C75.58,60.91 71.6766667,59.99 68.8966667,58.3866667 C66.58,57.0533333 65.2533333,55.3666667 65.2533333,53.7666667 C65.2533333,52.1666667 66.5866667,50.48 68.8966667,49.1433333 C71.6733333,47.54 75.58,46.62 79.61,46.62 C83.64,46.62 87.55,47.54 90.3266667,49.1433333 C92.6433333,50.4766667 93.97,52.1666667 93.97,53.7666667 C93.97,55.3666667 92.6366667,57.05 90.3266667,58.3866667 C87.55,60 83.6433333,60.91 79.6133333,60.91 Z" id="路径" fill="#1965B1"></path>
                    <ellipse id="椭圆形" fill="#FFDF57" cx="79.6133333" cy="50.2266667" rx="16.1466667" ry="9.32333333"></ellipse>
                    <rect id="矩形" fill="#D8AA44" x="74.0633333" y="27.2533333" width="1.43" height="22.23"></rect>
                    <rect id="矩形" fill="#D8AA44" x="83.8533333" y="27.2533333" width="1.43" height="22.23"></rect>
                    <polygon id="路径" fill="#D8AA44" points="79.5733333 28.7 77.4766667 26.78 74.9033333 28.5033333 74.0633333 27.2566667 77.6166667 24.9233333 79.6533333 26.7866667 82.0933333 24.8933333 85.2833333 27.2566667 84.2866667 28.4 82.09 26.75"></polygon>
                    <path d="M95.7366667,50.7133333 C95.7633333,48.62 96.1233333,42.44 101.04,33.9233333 C106.856667,23.8466667 100.793333,0 79.57,0 C58.3466667,0 52.2833333,23.8466667 58.1,33.9233333 C62.35,41.2866667 63.2766667,47.82 63.47,50.8066667" id="路径" fill="#FFDF57" opacity="0.69"></path>
                    <g id="Glasses" transform="translate(62.000000, 106.666667)">
                        <path d="M6.37666667,4.71333333 L5.45,3.84666667 C5.33241625,3.67623461 5.19097341,3.52356615 5.03,3.39333333 C4.95972442,3.33440887 4.88506417,3.28092093 4.80666667,3.23333333 L3.60666667,2.43333333 L2.29666667,1.85333333 C2.21643904,1.81623661 2.13407063,1.7839571 2.05,1.75666667 C1.85706518,1.69241108 1.65639117,1.65429423 1.45333333,1.64333333 L0.206666667,1.23666667 C0.136666667,1.23666667 0.176666667,1.36333333 0.206666667,1.41666667 L0.326666667,1.46666667 C0.476666667,1.52333333 0.35,1.50333333 0.506666667,1.61333333 L1.22333333,1.79666667 C1.67981437,1.77943631 2.13146419,1.89524396 2.52333333,2.13 L3.47333333,2.60666667 L4.38666667,3.15666667 C4.78799941,3.37735751 5.10808359,3.7208055 5.3,4.13666667 L5.78333333,4.52666667 C5.93333333,4.66666667 5.84666667,4.60666667 6.07,4.64 L6.19333333,4.74666667 C6.28333333,4.77 6.41666667,4.77333333 6.37666667,4.71333333 Z" id="路径" fill="#000000" opacity="0.2"></path>
                        <path d="M3.77,2.88 C3.84416193,2.76586564 3.9433345,2.67011281 4.06,2.6 C4.22959243,2.49586984 4.42864434,2.45020499 4.62666667,2.47 C4.86040332,2.49395723 5.08703095,2.5642118 5.29333333,2.67666667 L5.31666667,2.67666667 L5.65,2.85666667 C5.73666667,2.90333333 5.81666667,2.95666667 5.89666667,3.01 L6.05,3.12333333 C6.28,3.30666667 6.21333333,3.66666667 6.01,3.95333333 C5.89730496,4.113475 5.76766639,4.26099477 5.62333333,4.39333333 C5.36530174,4.61722567 5.01082881,4.69390244 4.68333333,4.59666667 C4.53385729,4.54967784 4.38973261,4.48711209 4.25333333,4.41 C4.12716636,4.33630072 4.00780689,4.25152202 3.89666667,4.15666667 C3.61664546,3.89507125 3.52889471,3.48689731 3.67666667,3.13333333 C3.69841365,3.04572791 3.72971224,2.96077461 3.77,2.88 L3.77,2.88 Z M1.02,1.21333333 C1.2,0.936666667 1.50666667,0.726666667 1.76666667,0.813333333 L1.93333333,0.876666667 C2.01768526,0.909625567 2.10004682,0.947467367 2.18,0.99 L2.48333333,1.14666667 L2.50333333,1.14666667 C2.69390401,1.24718348 2.85916827,1.38965267 2.98666667,1.56333333 C3.09221337,1.70588926 3.13659853,1.88462949 3.11,2.06 C3.0901605,2.18885799 3.03988124,2.31112802 2.96333333,2.41666667 C2.90099685,2.49193591 2.83057376,2.56012335 2.75333333,2.62 C2.46911032,2.89699992 2.0592205,3.00232765 1.67666667,2.89666667 C1.54255095,2.85412145 1.41301932,2.79828885 1.29,2.73 C1.17091186,2.65660089 1.05927156,2.57175426 0.956666667,2.47666667 C0.738450899,2.27333734 0.668193063,1.95651427 0.78,1.68 C0.842424881,1.51706801 0.922928133,1.36165201 1.02,1.21666667 L1.02,1.21333333 Z" id="形状" fill="#000000" opacity="0.1"></path>
                        <path d="M0.666666667,1.62 L1.38,1.55333333 C1.8316976,1.50858526 2.28650455,1.59908256 2.68666667,1.81333333 L6.62333333,3.79 L6.85333333,3.45666667 L2.44666667,1.51333333 C2.18178894,1.38943268 1.89538316,1.31811425 1.60333333,1.30333333 L0.203333333,1.22333333 C0.171911803,1.21774074 0.140312282,1.23219891 0.124001131,1.2596313 C0.107689981,1.28706369 0.110079444,1.32173153 0.13,1.34666667 L0.166666667,1.39666667 C0.283913319,1.55204612 0.472704075,1.63637265 0.666666667,1.62 Z" id="路径" fill="#2B303F"></path>
                        <path d="M5.76,4.47333333 L5.46333333,3.80666667 C5.27189311,3.39072131 4.95322489,3.04637287 4.55333333,2.82333333 L0.956666667,0.67 L1.16,0.36 L4.96333333,2.89 C5.2161094,3.05024226 5.43381785,3.26001342 5.60333333,3.50666667 L6.42,4.7 C6.46,4.76 6.4,4.83666667 6.32,4.82333333 L6.25,4.82333333 C6.03764303,4.79792504 5.8529074,4.66597102 5.76,4.47333333 L5.76,4.47333333 Z" id="路径" fill="#2B303F"></path>
                        <path d="M4.69333333,2.33333333 C4.9268532,2.35616813 5.15348514,2.42529087 5.36,2.53666667 L5.38,2.53666667 L5.71333333,2.71333333 C5.8,2.76333333 5.88,2.81333333 5.96,2.86666667 C6.04,2.92 6.06333333,2.94333333 6.11333333,2.98333333 C6.34,3.16333333 6.27333333,3.52666667 6.07333333,3.81 C5.96149289,3.97181049 5.83054763,4.11954361 5.68333333,4.25 C5.42846467,4.47741993 5.0735695,4.5557242 4.74666667,4.45666667 C4.59764044,4.40709192 4.45366041,4.34347283 4.31666667,4.26666667 C4.18902689,4.19527298 4.06944833,4.11033867 3.96,4.01333333 C3.67876249,3.75382912 3.59073281,3.34569151 3.74,2.99333333 C3.76483872,2.90001362 3.80182139,2.81035868 3.85,2.72666667 C3.92511628,2.61332292 4.02409116,2.51776097 4.14,2.44666667 C4.30741936,2.35026664 4.50149596,2.31051601 4.69333333,2.33333333 L4.69333333,2.33333333 Z" id="路径" fill="url(#linearGradient-1)" opacity="0.3"></path>
                        <path d="M1.05333333,0.29 L0.88,0.563333333 C0.849906153,0.596400253 0.849906153,0.64693308 0.88,0.68 C0.941140177,0.734673724 0.957588019,0.823766198 0.92,0.896666667 L0.633333333,1.49666667 C0.46120099,1.84583181 0.539941385,2.26668564 0.826666667,2.53 L0.826666667,2.53 C1.06905067,2.74603625 1.35574843,2.90645047 1.66666667,3 L1.66666667,3 C2.13855169,3.14415413 2.6514681,3.01592503 3,2.66666667 L3.26666667,2.39666667 C3.32559527,2.3392594 3.36121286,2.26208795 3.36666667,2.18 C3.37722501,2.10614516 3.42246341,2.04179214 3.48838302,2.00685475 C3.55430263,1.97191735 3.63295446,1.97060855 3.7,2.00333333 L3.76666667,2.03666667 L3.83333333,2.07666667 C3.88846484,2.11649234 3.91910654,2.18197618 3.91435736,2.24982168 C3.90960817,2.31766718 3.87014226,2.37824349 3.81,2.41 C3.73513633,2.44974563 3.67540636,2.51298913 3.64,2.59 L3.49,2.92333333 C3.29579042,3.35875163 3.41106913,3.87004661 3.77333333,4.18 L3.77333333,4.18 C4.02798873,4.40450586 4.32652318,4.57363755 4.65,4.67666667 L4.65,4.67666667 C5.07286149,4.81301209 5.53646227,4.69808042 5.84666667,4.38 L6.34666667,3.85333333 C6.41465416,3.78529523 6.51432864,3.75973767 6.60666667,3.78666667 C6.65609592,3.80363524 6.71085351,3.78760863 6.74333333,3.74666667 L6.94666667,3.46666667 C6.99034926,3.41461737 6.99034926,3.33871596 6.94666667,3.28666667 C6.62843889,2.97028507 6.26156493,2.70694609 5.86,2.50666667 L5.52666667,2.32666667 C5.28009724,2.19242512 5.00928606,2.10857564 4.73,2.08 L4.48333333,2.05333333 C4.42827143,2.05593142 4.37439571,2.03677561 4.33333333,2 C4.30890642,1.96553761 4.27699874,1.93704861 4.24,1.91666667 L3.96666667,1.77 L3.69333333,1.62 C3.6539671,1.59999417 3.61078107,1.58862942 3.56666667,1.58666667 C3.50245246,1.58489698 3.44245434,1.55428569 3.40333333,1.50333333 L3.27,1.32333333 C3.11599334,1.11715468 2.91633346,0.94944039 2.68666667,0.833333333 L2.38333333,0.673333333 C2.02468598,0.460675813 1.63239429,0.310748244 1.22333333,0.23 C1.15990547,0.216640213 1.09432365,0.239786735 1.05333333,0.29 L1.05333333,0.29 Z M3.83666667,2.74666667 C3.91178295,2.63332292 4.01075782,2.53776097 4.12666667,2.46666667 C4.29627789,2.36276125 4.49562362,2.31820162 4.69333333,2.34 C4.9268532,2.36283479 5.15348514,2.43195754 5.36,2.54333333 L5.38,2.54333333 L5.71333333,2.72 C5.8,2.77 5.88,2.82 5.96,2.87333333 C6.04,2.92666667 6.06333333,2.95 6.11333333,2.99 C6.34,3.17 6.27333333,3.53333333 6.07333333,3.81666667 C5.96149289,3.97847715 5.83054763,4.12621028 5.68333333,4.25666667 C5.42846467,4.4840866 5.0735695,4.56239087 4.74666667,4.46333333 C4.59764044,4.41375859 4.45366041,4.3501395 4.31666667,4.27333333 C4.18902689,4.20193964 4.06944833,4.11700534 3.96,4.02 C3.67876249,3.76049578 3.59073281,3.35235817 3.74,3 C3.76168387,2.91190229 3.79415121,2.82681548 3.83666667,2.74666667 L3.83666667,2.74666667 Z M1.08333333,1.08 C1.26666667,0.806666667 1.57,0.596666667 1.83333333,0.683333333 C1.88991319,0.70036481 1.9455473,0.72039309 2,0.743333333 C2.08333333,0.776666667 2.16666667,0.816666667 2.24666667,0.856666667 L2.55,1.01666667 L2.57,1.01666667 C2.75919132,1.11919439 2.92404921,1.26131326 3.05333333,1.43333333 C3.15858479,1.57724786 3.20180345,1.75732563 3.17333333,1.93333333 C3.15426387,2.06138548 3.10388534,2.18275193 3.02666667,2.28666667 C2.96524848,2.36376443 2.89473719,2.43315649 2.81666667,2.49333333 C2.53210048,2.76972204 2.12255982,2.87496004 1.74,2.77 C1.60654691,2.72710925 1.47804377,2.6701209 1.35666667,2.6 C1.23662029,2.52929796 1.12482028,2.44544795 1.02333333,2.35 C0.805403861,2.14511059 0.735289437,1.82761131 0.846666667,1.55 C0.909557915,1.38683539 0.98885345,1.23047799 1.08333333,1.08333333 L1.08333333,1.08 Z" id="形状" fill="#2B303F"></path>
                        <path d="M2.79,2.54666667 C2.50647286,2.82490224 2.09587321,2.93041236 1.71333333,2.82333333 C1.58155846,2.78448125 1.45420111,2.73197427 1.33333333,2.66666667 C1.21257397,2.59703977 1.10065444,2.51310013 1,2.41666667 C0.781784232,2.21333734 0.711526397,1.89651427 0.823333333,1.62 C0.888955297,1.45138109 0.97278499,1.29042808 1.07333333,1.14 L1.07333333,1.14 C0.981165608,1.28038241 0.904071913,1.4301006 0.843333333,1.58666667 C0.731956104,1.86427798 0.802070528,2.18177725 1.02,2.38666667 C1.12148694,2.48211461 1.23328696,2.56596463 1.35333333,2.63666667 C1.47471044,2.70678757 1.60321358,2.76377592 1.73666667,2.80666667 C2.11922649,2.91162671 2.52876715,2.80638871 2.81333333,2.53 C2.89057376,2.47012335 2.96099685,2.40193591 3.02333333,2.32666667 L3,2.33333333 C2.93917883,2.41293099 2.86863004,2.48459961 2.79,2.54666667 L2.79,2.54666667 Z" id="路径" fill="#1F232D"></path>
                        <path d="M5.64,4.31333333 C5.3844839,4.53958692 5.0296614,4.61661245 4.70333333,4.51666667 C4.55385729,4.46967784 4.40973261,4.40711209 4.27333333,4.33 C4.14716636,4.25630072 4.02780689,4.17152202 3.91666667,4.07666667 C3.63664546,3.81507125 3.54889471,3.40689731 3.69666667,3.05333333 C3.72302001,2.96159478 3.75993373,2.87322556 3.80666667,2.79 L3.83333333,2.75333333 C3.78763308,2.83548265 3.75182791,2.92275776 3.72666667,3.01333333 C3.57739948,3.36569151 3.66542916,3.77382912 3.94666667,4.03333333 C4.05611499,4.13033867 4.17569356,4.21527298 4.30333333,4.28666667 C4.44032707,4.36347283 4.58430711,4.42709192 4.73333333,4.47666667 C5.06023617,4.5757242 5.41513134,4.49741993 5.67,4.27 C5.80535481,4.14910476 5.92718013,4.01386749 6.03333333,3.86666667 L6.03333333,3.86666667 C5.92086099,4.03098657 5.78877553,4.18098192 5.64,4.31333333 L5.64,4.31333333 Z" id="路径" fill="#1F232D"></path>
                        <path d="M3.05333333,1.44666667 C2.92404921,1.2746466 2.75919132,1.13252772 2.57,1.03 L2.55,1.03 L2.24666667,0.87 C2.16666667,0.83 2.08333333,0.79 2,0.756666667 C1.9455473,0.733726424 1.88991319,0.713698144 1.83333333,0.696666667 C1.57,0.61 1.26666667,0.82 1.08333333,1.09333333 C0.98342381,1.24413887 0.899630771,1.4050215 0.833333333,1.57333333 C0.721956104,1.85094464 0.792070528,2.16844392 1.01,2.37333333 C1.11148694,2.46878128 1.22328696,2.55263129 1.34333333,2.62333333 C1.46471044,2.69345424 1.59321358,2.75044259 1.72666667,2.79333333 C2.10922649,2.89829338 2.51876715,2.79305537 2.80333333,2.51666667 C2.88140386,2.45648982 2.95191514,2.38709777 3.01333333,2.31 C3.090552,2.20608526 3.14093053,2.08471881 3.16,1.95666667 C3.19509906,1.77923568 3.15659927,1.59515857 3.05333333,1.44666667 Z" id="路径" fill="url(#linearGradient-2)" opacity="0.3"></path>
                    </g>
                </g>
            </g>
        </g>
    </g>
</svg>