<?xml version="1.0" standalone="no"?><!DOCTYPE svg PUBLIC "-//W3C//DTD SVG 1.1//EN" "http://www.w3.org/Graphics/SVG/1.1/DTD/svg11.dtd"><svg t="1610340697088" class="icon" viewBox="0 0 1024 1024" version="1.1" xmlns="http://www.w3.org/2000/svg" p-id="6503" xmlns:xlink="http://www.w3.org/1999/xlink" width="200" height="200"><defs><style type="text/css"></style></defs><path d="M941.428364 865.466182a447.767273 447.767273 0 0 0-397.405091-320V352.023273h128c17.687273 0 31.976727-14.336 31.976727-32.023273v-128a31.976727 31.976727 0 0 0-32.023273-32.023273H352.069818a31.976727 31.976727 0 0 0-32.023273 32.023273v128c0 17.687273 14.336 32.023273 32.023273 32.023273h128v193.442909a447.860364 447.860364 0 0 0-397.498182 320 64 64 0 1 0 77.498182 62.510545c0-16.477091-6.423273-31.325091-16.663273-42.682182a384 384 0 0 1 336.616728-275.781818v263.400728a63.767273 63.767273 0 0 0-31.976728 55.109818 64 64 0 1 0 128 0 63.767273 63.767273 0 0 0-32.023272-55.109818v-263.447273a383.953455 383.953455 0 0 1 336.616727 275.921454c-10.658909 11.636364-16.570182 26.810182-16.616727 42.635637a64 64 0 1 0 77.451636-62.557091zM288.023273 479.976727h77.451636a31.976727 31.976727 0 1 0 0-63.953454H287.976727A31.976727 31.976727 0 0 1 256 384v-256c0-17.687273 14.336-32.023273 32.023273-32.023273h448c17.687273 0 31.976727 14.336 31.976727 32.023273v256c0 17.687273-14.336 32.023273-32.023273 32.023273h-90.577454a31.976727 31.976727 0 1 0 0 63.953454h90.624c53.015273 0 95.976727-42.961455 95.976727-95.976727v-256c0-53.061818-42.961455-96.023273-96.023273-96.023273H288.023273c-53.061818 0-96.023273 43.008-96.023273 96.023273v256c0 53.061818 42.961455 96.023273 96.023273 96.023273z" p-id="6504"></path></svg>