<?xml version="1.0" encoding="UTF-8"?>
<svg width="150px" height="164px" viewBox="0 0 150 164" version="1.1" xmlns="http://www.w3.org/2000/svg" xmlns:xlink="http://www.w3.org/1999/xlink">
    <!-- Generator: Sketch 64 (93537) - https://sketch.com -->
    <title>编组 24</title>
    <desc>Created with Sketch.</desc>
    <g id="工作空间首页" stroke="none" stroke-width="1" fill="none" fill-rule="evenodd">
        <g id="工作空间首页-应用开发" transform="translate(-888.000000, -518.000000)">
            <g id="编组-24" transform="translate(888.000000, 510.000000)">
                <rect id="矩形备份-7" x="0" y="0" width="150" height="180"></rect>
                <g id="Web_design_SVG" transform="translate(0.000000, 8.000000)" fill-rule="nonzero">
                    <g id="monitor" transform="translate(67.794760, 22.925764)">
                        <path d="M33.9039301,103.378821 L18.2423581,94.3231441 C17.1124454,93.6681223 17.2598253,92.5316594 18.569869,91.7783843 L28.7227074,85.919214 L48.4716157,97.3395197 L38.3187773,103.19869 C37.0087336,103.94869 35.0436681,104.030568 33.9039301,103.378821 Z" id="路径" fill="#D6D8E5" opacity="0.4"></path>
                        <path d="M35.3187773,102.550218 L19.650655,93.5076419 C18.5240175,92.8526201 18.6681223,91.7161572 19.9781659,90.9628821 L30.1310044,85.1037118 L49.8864629,96.510917 L39.7336245,102.370087 C38.4203057,103.120087 36.44869,103.201965 35.3187773,102.550218 Z" id="路径" fill="#B1B4C4"></path>
                        <polygon id="路径" fill="#B1B4C4" points="49.8733624 96.510917 49.8733624 95.9115721 48.959607 96.4388646"></polygon>
                        <polygon id="路径" fill="#B1B4C4" points="18.8941048 92.430131 18.8941048 91.8209607 19.830786 92.2106987"></polygon>
                        <path d="M35.3187773,101.954148 L19.650655,92.9082969 C18.5240175,92.2532751 18.6681223,91.1200873 19.9781659,90.3668122 L30.1310044,84.4978166 L49.8864629,95.9017467 L39.7336245,101.760917 C38.4203057,102.510917 36.44869,102.605895 35.3187773,101.954148 Z" id="路径" fill="#D6D8E5"></path>
                        <polygon id="路径" fill="#9EA1AF" points="30.1735808 84.5338428 27.7270742 76.4246725 47.6954148 87.8777293 49.8733624 95.9115721"></polygon>
                        <polygon id="路径" fill="#9EA1AF" points="49.2936681 96.2456332 49.8733624 95.9181223 49.0120087 95.2303493"></polygon>
                        <polygon id="路径" fill="#B1B4C4" points="29.5414847 84.8384279 27.0982533 76.7292576 47.0665939 88.1823144 49.2936681 96.2456332"></polygon>
                        <path d="M80.2401747,109.915939 L2.94759825,65.2893013 C1.86353712,64.6637555 0.982532751,62.9967249 0.982532751,61.5360262 L0.982532751,1.74563319 C0.982532751,0.301310044 1.86026201,-0.363537118 2.94759825,0.262008734 L80.2401747,44.8886463 C81.3242358,45.5141921 82.2052402,47.1812227 82.2052402,48.6386463 L82.2052402,108.432314 C82.2052402,109.876638 81.3176856,110.541485 80.2401747,109.915939 Z" id="路径" fill="#B1B4C4"></path>
                        <polygon id="路径" fill="#B1B4C4" points="80.6299127 110.531659 81.4879913 110.037118 81.1179039 107.498908"></polygon>
                        <path d="M0.835152838,0.63209607 L1.680131,0.144104803 L2.8919214,0.835152838 C2.8919214,0.835152838 1.60152838,1.03165939 1.58187773,1.02510917 C1.56222707,1.01855895 0.835152838,0.63209607 0.835152838,0.63209607 Z" id="路径" fill="#B1B4C4"></path>
                        <path d="M79.5262009,110.325328 L2.23362445,65.69869 C1.14956332,65.0731441 0.268558952,63.4061135 0.268558952,61.9454148 L0.268558952,2.15502183 C0.268558952,0.71069869 1.14956332,0.0458515284 2.23362445,0.67139738 L79.5262009,45.2980349 C80.610262,45.9235808 81.4912664,47.5906114 81.4912664,49.0480349 L81.4912664,108.841703 C81.4879913,110.286026 80.610262,110.950873 79.5262009,110.325328 Z" id="路径" fill="#E4E7F2"></path>
                        <path d="M79.3886463,110.400655 L2.09606987,65.7740175 C1.01200873,65.1484716 0.131004367,63.481441 0.131004367,62.0240175 L0.131004367,2.23362445 C0.131004367,0.78930131 1.00873362,0.124454148 2.09606987,0.75 L79.3886463,45.3766376 C80.4727074,46.0021834 81.3537118,47.669214 81.3537118,49.1266376 L81.3537118,108.917031 C81.3537118,110.371179 80.4727074,111.026201 79.3886463,110.400655 Z" id="路径" fill="#D6D8E5"></path>
                        <path d="M80.2893013,106.768559 L1.11026201,61.0545852 L1.15283843,2.47270742 C1.15283843,1.87336245 1.57532751,1.63100437 2.09279476,1.9290393 L79.3853712,46.5556769 C79.9427022,46.9196465 80.2921315,47.5284083 80.3253275,48.1932314 L80.2893013,106.768559 Z" id="路径" fill="#FFFFFF"></path>
                        <path d="M75.3864629,55.8406114 L5.20087336,15.3209607 C4.70790198,14.9674274 4.41148372,14.4013171 4.40174672,13.7947598 L4.40174672,8.72816594 C4.40174672,8.1419214 4.75873362,7.87008734 5.20087336,8.12554585 L75.3864629,48.6451965 C75.8803528,48.9994127 76.1768845,49.566955 76.1855895,50.1746725 L76.1855895,55.2379913 C76.1855895,55.8275109 75.8286026,56.0960699 75.3864629,55.8406114 Z" id="路径" fill="#E9EAF2"></path>
                        <path d="M71.7248908,69.4028384 L55.2281659,59.878821 C54.7351946,59.5252877 54.4387763,58.9591774 54.4290393,58.3526201 L54.4290393,47.7052402 C54.4290393,47.1157205 54.7860262,46.8471616 55.2281659,47.1026201 L71.7248908,56.6266376 C72.2186751,56.9794637 72.5153247,57.5460159 72.5240175,58.1528384 L72.5240175,68.8002183 C72.510917,69.3864629 72.1539301,69.6582969 71.7248908,69.4028384 Z" id="路径" fill="#E9EAF2"></path>
                        <path d="M49.981441,72.8613537 L8.59716157,48.9530568 C8.34965397,48.7771803 8.20115303,48.4935678 8.19759825,48.1899563 L8.19759825,46.3591703 C8.19759825,46.0644105 8.37445415,45.9268559 8.59716157,46.0545852 L49.981441,69.9628821 C50.2277247,70.1398243 50.3758765,70.42277 50.3810044,70.7259825 L50.3810044,72.5600437 C50.3810044,72.8515284 50.2008734,72.989083 49.981441,72.8613537 Z" id="路径" fill="#E9EAF2"></path>
                        <path d="M45.9072052,74.8460699 L8.7150655,53.3842795 C8.46918372,53.2069886 8.32114554,52.92426 8.31550218,52.621179 L8.31550218,51.7074236 C8.31550218,51.4126638 8.49563319,51.2783843 8.7150655,51.4061135 L45.9072052,72.8777293 C46.1534889,73.0546714 46.3016407,73.3376171 46.3067686,73.6408297 L46.3067686,74.55131 C46.3067686,74.8362445 46.1266376,74.9737991 45.9072052,74.8460699 Z" id="路径" fill="#E9EAF2"></path>
                        <path d="M45.9072052,78.3045852 L8.7150655,56.8329694 C8.46878187,56.6560272 8.32063007,56.3730816 8.31550218,56.069869 L8.31550218,55.1561135 C8.31550218,54.8646288 8.49563319,54.7270742 8.7150655,54.8548035 L45.9072052,76.3264192 C46.1534889,76.5033614 46.3016407,76.7863071 46.3067686,77.0895197 L46.3067686,78.0032751 C46.3067686,78.2980349 46.1266376,78.4323144 45.9072052,78.3045852 Z" id="路径" fill="#E9EAF2"></path>
                        <path d="M36.3995633,76.2740175 L8.7150655,60.2914847 C8.46878187,60.1145425 8.32063007,59.8315969 8.31550218,59.5283843 L8.31550218,58.6244541 C8.31550218,58.3296943 8.49563319,58.1954148 8.7150655,58.319869 L36.3995633,74.3024017 C36.6439892,74.4824193 36.7914797,74.7653109 36.7991266,75.0687773 L36.7991266,75.9825328 C36.7991266,76.2674672 36.6189956,76.4017467 36.3995633,76.2740175 Z" id="路径" fill="#E9EAF2"></path>
                        <path d="M72.1113537,73.830786 L54.8155022,63.8449782 C54.5679946,63.6691017 54.4194936,63.3854892 54.4159389,63.0818777 L54.4159389,62.1681223 C54.4159389,61.8733624 54.5927948,61.739083 54.8155022,61.8668122 L72.1113537,71.8526201 C72.3576373,72.0295623 72.5057891,72.3125079 72.510917,72.6157205 L72.510917,73.529476 C72.510917,73.8242358 72.330786,73.9585153 72.1113537,73.830786 Z" id="路径" fill="#E9EAF2"></path>
                        <path d="M72.1113537,77.2925764 L54.8155022,67.3034934 C54.5679946,67.1276169 54.4194936,66.8440045 54.4159389,66.540393 L54.4159389,65.6299127 C54.4159389,65.3351528 54.5927948,65.1975983 54.8155022,65.3253275 L72.1113537,75.3275109 C72.3584502,75.503746 72.5068334,75.7871335 72.510917,76.0906114 L72.510917,77.0010917 C72.510917,77.2925764 72.330786,77.4170306 72.1113537,77.2925764 Z" id="路径" fill="#E9EAF2"></path>
                        <path d="M67.5818777,78.1342795 L54.808952,70.7620087 C54.5614444,70.5861322 54.4129434,70.3025198 54.4093886,69.9989083 L54.4093886,69.1048035 C54.4093886,68.8100437 54.5862445,68.6757642 54.808952,68.8034934 L67.5818777,76.1724891 C67.8285663,76.3490794 67.976833,76.6322446 67.981441,76.9355895 L67.981441,77.849345 C67.981441,78.1277293 67.7947598,78.2751092 67.5818777,78.1342795 Z" id="路径" fill="#E9EAF2"></path>
                        <path d="M71.7248908,96.0622271 L55.2281659,86.5382096 C54.7351946,86.1846763 54.4387763,85.618566 54.4290393,85.0120087 L54.4290393,74.3646288 C54.4290393,73.7783843 54.7860262,73.5065502 55.2281659,73.7620087 L71.7248908,83.2860262 C72.2165979,83.6450875 72.5083732,84.2164808 72.510917,84.8253275 L72.510917,95.4727074 C72.510917,96.0458515 72.1539301,96.3176856 71.7248908,96.0622271 Z" id="路径" fill="#E9EAF2"></path>
                        <path d="M72.1113537,100.490175 L54.8155022,90.5043668 C54.5679946,90.3284903 54.4194936,90.0448778 54.4159389,89.7412664 L54.4159389,88.830786 C54.4159389,88.5360262 54.5927948,88.3984716 54.8155022,88.5262009 L72.1113537,98.5120087 C72.3557796,98.6920263 72.5032701,98.9749179 72.510917,99.2783843 L72.510917,100.188865 C72.510917,100.483624 72.330786,100.617904 72.1113537,100.490175 Z" id="路径" fill="#E9EAF2"></path>
                        <ellipse id="椭圆形" fill="#DADCE5" transform="translate(7.618235, 13.095679) rotate(-30.000000) translate(-7.618235, -13.095679) " cx="7.61823454" cy="13.0956792" rx="1.25436681" ry="2.17467249"></ellipse>
                        <path d="M44.1091703,34.830786 L38.0371179,31.3264192 C37.9137199,31.2374307 37.8396447,31.0953521 37.8373362,30.9432314 L37.8373362,30.1310044 C37.8373362,29.9836245 37.9257642,29.9148472 38.0371179,29.9803493 L44.1091703,33.4847162 C44.2332926,33.5715863 44.3077262,33.7131321 44.308952,33.8646288 L44.308952,34.6703057 C44.308952,34.8275109 44.2139738,34.8962882 44.1091703,34.830786 Z" id="路径" fill="#DADCE5"></path>
                        <path d="M53.9344978,40.5065502 L47.8624454,37.0087336 C47.7395596,36.9207801 47.6654829,36.779913 47.6626638,36.628821 L47.6626638,35.8231441 C47.6626638,35.6757642 47.7543668,35.6069869 47.8624454,35.6724891 L53.9344978,39.1768559 C54.0578958,39.2658444 54.131971,39.407923 54.1342795,39.5600437 L54.1342795,40.3657205 C54.1342795,40.5 54.0393013,40.5687773 53.9344978,40.5065502 Z" id="路径" fill="#DADCE5"></path>
                        <path d="M63.6026201,46.0873362 L57.5305677,42.5764192 C57.4064454,42.4895491 57.3320118,42.3480033 57.330786,42.1965066 L57.330786,41.3908297 C57.330786,41.2434498 57.419214,41.1779476 57.5305677,41.2401747 L63.6026201,44.7445415 C63.7260181,44.83353 63.8000933,44.9756086 63.8024017,45.1277293 L63.8024017,45.9334061 C63.8024017,46.0840611 63.7139738,46.1495633 63.6026201,46.0873362 Z" id="路径" fill="#DADCE5"></path>
                        <path d="M73.4279476,51.7467249 L67.3591703,48.2423581 C67.2357723,48.1533696 67.1616971,48.011291 67.1593886,47.8591703 L67.1593886,47.0534934 C67.1593886,46.9061135 67.2478166,46.8406114 67.3591703,46.9028384 L73.4279476,50.4366812 C73.5520699,50.5235514 73.6265034,50.6650972 73.6277293,50.8165939 L73.6277293,51.6222707 C73.6277293,51.7467249 73.5393013,51.8253275 73.4279476,51.7467249 Z" id="路径" fill="#DADCE5"></path>
                        <polygon id="路径" fill="#DADCE5" points="60.0262009 57.9399563 58.8668122 54.9563319 56.760917 57.9563319 59.0731441 59.2925764 60.9759825 60.389738 65.2172489 62.8395197 62.1451965 54.9235808"></polygon>
                        <ellipse id="椭圆形" fill="#DADCE5" transform="translate(69.113614, 58.402434) rotate(-29.886527) translate(-69.113614, -58.402434) " cx="69.1136135" cy="58.4024345" rx="1.13380416" ry="1.96197416"></ellipse>
                        <polygon id="路径" fill="#DADCE5" points="60.1441048 84.9923581 58.9879913 82.0087336 56.878821 85.0087336 59.1943231 86.3449782 61.0971616 87.4421397 65.3384279 89.8919214 62.2663755 81.9759825"></polygon>
                        <ellipse id="椭圆形" fill="#DADCE5" transform="translate(68.692935, 85.135730) rotate(-30.000000) translate(-68.692935, -85.135730) " cx="68.6929345" cy="85.1357297" rx="1.12991266" ry="1.95524017"></ellipse>
                    </g>
                    <polygon id="路径" fill="#232733" points="88.9781659 67.2478166 87.4454148 73.3853712 87.4454148 68.1320961"></polygon>
                    <polygon id="路径" fill="#232733" points="71.1255459 56.8427948 69.5927948 62.9836245 69.5927948 57.7303493"></polygon>
                    <path d="M96.3340611,94.9224891 L59.8427948,73.8537118 C59.4009677,73.5366012 59.1359858,73.0285166 59.128821,72.4847162 L59.128821,53.8165939 C59.128821,53.2893013 59.4563319,53.0469432 59.8427948,53.2762009 L96.3340611,74.3449782 C96.7770229,74.6599935 97.0433993,75.1672033 97.05131,75.7106987 L97.05131,94.3951965 C97.05131,94.9093886 96.7303493,95.1517467 96.3340611,94.9224891 Z" id="路径" fill="#E9EAF2"></path>
                    <polygon id="路径" fill="#2E92F7" points="69.9989083 73.0349345 68.0207424 67.9355895 64.4181223 73.0611354 68.3744541 75.3471616 71.6233624 77.2237991 78.8777293 81.4126638 73.6244541 67.8766376"></polygon>
                    <ellipse id="椭圆形" fill="#2E92F7" transform="translate(88.705671, 75.637417) rotate(-30.000000) translate(-88.705671, -75.637417) " cx="88.7056705" cy="75.637417" rx="1.9290393" ry="3.34388646"></ellipse>
                    <polygon id="路径" fill="#353C4C" points="86.7740175 65.9737991 86.7707424 58.9716157 84.7860262 57.481441 84.7860262 65.9737991 82.5786026 67.2478166 85.7783843 69.0949782 88.9781659 67.2478166"></polygon>
                    <polygon id="路径" fill="#232733" points="85.7783843 69.0949782 87.4454148 73.3853712 87.4454148 68.430131 87.4454148 68.1320961"></polygon>
                    <polygon id="路径" fill="#2B303F" points="82.5786026 67.2478166 83.9967249 71.3679039 87.4454148 73.3853712 85.7783843 69.0949782"></polygon>
                    <polygon id="路径" fill="#353C4C" points="68.9181223 55.5720524 68.9181223 47.0764192 66.9334061 47.0764192 66.9334061 55.5687773 64.7259825 56.8427948 67.9257642 58.6932314 71.1255459 56.8427948"></polygon>
                    <polygon id="路径" fill="#232733" points="67.9257642 58.6932314 69.5927948 62.9836245 69.5927948 58.0283843 69.5927948 57.7303493"></polygon>
                    <polygon id="路径" fill="#2B303F" points="64.7259825 56.8427948 66.1441048 60.9628821 69.5927948 62.9836245 67.9257642 58.6932314"></polygon>
                    <polygon id="路径" fill="#D6D8E5" opacity="0.4" points="47.0862445 95.220524 27.3176856 83.7510917 3.49781659 97.5032751 24.808952 109.863537 48.6320961 96.1113537 48.6320961 94.3296943"></polygon>
                    <polygon id="路径" fill="#B1B4C4" points="49.5949782 93.6746725 27.3176856 80.8133188 5.04039301 93.6746725 3.49781659 92.7838428 3.49781659 94.5655022 27.3176856 108.320961 51.1375546 94.5655022 51.1375546 92.7838428"></polygon>
                    <polygon id="路径" fill="#E7E9F2" points="27.3176856 106.536026 3.49781659 92.7838428 27.3176856 79.0316594 51.1375546 92.7838428"></polygon>
                    <polygon id="路径" fill="#B1B4C4" points="27.2423581 87.691048 28.7980349 86.7936681 28.7980349 20.371179 27.2423581 21.268559"></polygon>
                    <polygon id="路径" fill="#B1B4C4" points="27.3668122 48.3700873 38.2434498 65.5840611 39.7991266 64.94869 28.7980349 47.5644105"></polygon>
                    <polygon id="路径" fill="#D6D8E5" points="27.30131 51.4323144 38.1844978 68.731441 38.1844978 65.4956332 27.30131 48.2587336"></polygon>
                    <polygon id="路径" fill="#D6D8E5" points="25.7456332 86.7936681 27.30131 87.691048 27.30131 21.268559 25.7456332 20.371179"></polygon>
                    <polygon id="路径" fill="#D6D8E5" points="38.1844978 93.9759825 39.7401747 94.8733624 39.7401747 28.4508734 38.1844978 27.5534934"></polygon>
                    <polygon id="路径" fill="#B1B4C4" points="39.6812227 94.8733624 41.2368996 93.9759825 41.2368996 27.5534934 39.6812227 28.4508734"></polygon>
                    <polygon id="路径" fill="#D6D8E5" points="27.30131 82.9028384 38.1844978 69.871179 38.1844978 66.7467249 27.30131 79.7980349"></polygon>
                    <polygon id="路径" fill="#B1B4C4" points="27.30131 82.9028384 28.7980349 82.0840611 38.1844978 70.768559 38.1844978 69.628821"></polygon>
                    <polygon id="路径" fill="#D6D8E5" points="27.30131 48.3700873 38.1844978 35.3384279 38.1844978 32.2139738 27.30131 45.2652838"></polygon>
                    <polygon id="路径" fill="#B1B4C4" points="27.30131 48.3700873 28.7980349 47.5480349 38.1844978 36.2358079 38.1844978 35.0960699"></polygon>
                    <polygon id="路径" fill="#B1B4C4" points="14.8951965 94.8635371 16.4508734 93.9661572 16.4508734 27.5436681 14.8951965 28.441048"></polygon>
                    <polygon id="路径" fill="#B1B4C4" points="15.0196507 55.5425764 25.8962882 72.7532751 27.4519651 72.121179 16.4508734 54.7368996"></polygon>
                    <polygon id="路径" fill="#D6D8E5" points="14.9541485 58.6048035 25.8373362 75.900655 25.8373362 72.6681223 14.9541485 55.4279476"></polygon>
                    <polygon id="路径" fill="#D6D8E5" points="13.4017467 93.9661572 14.9541485 94.8635371 14.9541485 28.441048 13.4017467 27.5436681"></polygon>
                    <polygon id="路径" fill="#D6D8E5" points="25.8373362 101.145197 27.3930131 102.042576 27.3930131 35.6233624 25.8373362 34.7227074"></polygon>
                    <polygon id="路径" fill="#B1B4C4" points="27.3340611 102.042576 28.889738 101.145197 28.889738 34.7227074 27.3340611 35.6233624"></polygon>
                    <polygon id="路径" fill="#D6D8E5" points="14.9541485 90.0753275 25.8373362 77.0436681 25.8373362 73.9159389 14.9541485 86.970524"></polygon>
                    <polygon id="路径" fill="#B1B4C4" points="14.9541485 90.0753275 16.4508734 89.2532751 25.8373362 77.941048 25.8373362 76.7980349"></polygon>
                    <polygon id="路径" fill="#D6D8E5" points="14.9541485 55.5425764 25.8373362 42.510917 25.8373362 39.3831878 14.9541485 52.4344978"></polygon>
                    <polygon id="路径" fill="#B1B4C4" points="14.9541485 55.5425764 16.4508734 54.720524 25.8373362 43.4050218 25.8373362 42.2652838"></polygon>
                    <polygon id="路径" fill="#F7DC6B" points="27.3930131 38.9868996 11.3351528 29.7150655 27.3930131 20.4465066 43.4508734 29.7150655"></polygon>
                    <polygon id="路径" fill="#353C4C" points="26.1975983 12.4159389 7.15938865 23.4072052 1.70960699 20.2598253 20.7478166 9.26855895"></polygon>
                    <polygon id="路径" fill="#2B303F" points="1.70960699 24.6681223 1.70960699 20.2598253 7.15938865 23.4072052 7.15938865 27.8155022"></polygon>
                    <polyline id="路径" fill="#232733" points="7.15938865 27.8155022 26.1975983 16.8242358 26.1975983 12.4159389 7.15938865 23.4072052 7.15938865 27.3864629"></polyline>
                    <polygon id="路径" fill="#353C4C" points="26.1975983 7.47052402 7.15938865 18.4617904 1.70960699 15.3144105 20.7478166 4.3231441"></polygon>
                    <polygon id="路径" fill="#2B303F" points="1.70960699 19.7259825 1.70960699 15.3144105 7.15938865 18.4617904 7.15938865 22.8733624"></polygon>
                    <polyline id="路径" fill="#232733" points="7.15938865 22.8733624 26.1975983 11.8820961 26.1975983 7.47052402 7.15938865 18.4617904 7.15938865 22.4443231"></polyline>
                    <polygon id="路径" fill="#D6D8E5" points="11.8067686 21.1408297 0 14.3679039 0 11.8984716 11.8067686 18.628821"></polygon>
                    <polygon id="路径" fill="#E7E9F2" points="28.889738 28.4344978 0 11.8984716 2.13864629 10.6637555 31.0283843 27.1997817"></polygon>
                    <polygon id="路径" fill="#D6D8E5" points="24.7958515 17.2368996 9.9628821 8.65611354 9.9628821 6.18340611 24.7958515 14.1320961"></polygon>
                    <polygon id="路径" fill="#E7E9F2" points="36.0458515 20.9901747 9.9628821 6.18668122 12.1015284 4.95196507 38.1844978 19.7554585"></polygon>
                    <polygon id="路径" fill="#D6D8E5" points="17.8657205 10.7423581 17.8657205 13.2117904 18.8810044 20.3220524 20.3875546 21.2587336"></polygon>
                    <polygon id="路径" fill="#E7E9F2" points="22.3296943 22.3133188 20.3777293 12.1932314 17.8657205 10.7423581 19.3886463 20.7150655"></polygon>
                    <polygon id="路径" fill="#B1B4C4" points="17.8657205 13.2117904 10.0742358 15.2652838 6.0720524 12.9530568 17.5251092 10.5393013 17.8657205 10.7423581"></polygon>
                    <polygon id="路径" fill="#E7E9F2" points="17.8657205 10.7423581 7.01528384 13.5 4.68340611 12.1539301 15.6189956 9.36026201"></polygon>
                    <polygon id="路径" fill="#E7E9F2" points="27.3930131 18.5436681 11.3351528 9.27183406 27.3930131 0 43.4508734 9.27183406"></polygon>
                    <polygon id="路径" fill="#D6D8E5" points="11.3351528 37.9028384 11.3351528 9.27183406 27.3930131 18.5436681 27.3930131 47.1746725"></polygon>
                    <polygon id="路径" fill="#B1B4C4" points="43.4508734 9.27183406 43.4508734 37.9028384 27.3930131 47.1746725 27.3930131 18.540393"></polygon>
                    <polygon id="路径" fill="#2E92F7" points="27.3930131 28.5163755 18.1735808 23.1943231 15.209607 13.7620087 27.3930131 20.7969432"></polygon>
                    <polygon id="路径" fill="#2E92F7" points="43.4508734 11.5251092 43.4508734 19.2445415 27.3930131 28.5196507 27.3930131 20.8002183"></polygon>
                    <polygon id="路径" fill="#D6D8E5" points="98.9967249 71.8133188 29.5152838 31.6965066 29.5152838 29.2270742 98.9967249 69.3438865"></polygon>
                    <polygon id="路径" fill="#E7E9F2" points="98.9967249 69.3438865 29.5152838 29.2303493 31.6539301 27.9956332 101.135371 68.1091703"></polygon>
                    <polygon id="路径" fill="#D6D8E5" points="108.959607 66.1015284 39.4781659 25.9847162 39.4781659 23.5152838 108.959607 63.6320961"></polygon>
                    <polygon id="路径" fill="#E7E9F2" points="108.959607 63.6320961 39.4781659 23.5152838 41.6168122 22.2805677 111.098253 62.3973799"></polygon>
                    <polygon id="路径" fill="#B1B4C4" points="111.098253 64.8733624 98.9967249 71.8133188 98.9967249 69.3406114 111.098253 62.4039301"></polygon>
                    <polygon id="路径" fill="#E7E9F2" points="111.098253 62.4039301 99.0032751 69.3438865 97.1921397 68.2991266 109.287118 61.3591703"></polygon>
                    <polygon id="路径" fill="#B1B4C4" points="100.251092 61.0676856 92.4563319 63.121179 88.4541485 60.808952 99.9072052 58.3951965 100.251092 58.5982533"></polygon>
                    <polygon id="路径" fill="#E7E9F2" points="100.251092 58.5982533 89.400655 61.3558952 87.0687773 60.0065502 98.0010917 57.2161572"></polygon>
                    <polygon id="路径" fill="#D6D8E5" points="82.6670306 48.4585153 82.6670306 50.9279476 83.6823144 58.0382096 85.1888646 58.9716157"></polygon>
                    <polygon id="路径" fill="#E7E9F2" points="87.1310044 60.029476 85.1790393 49.9093886 82.6670306 48.4585153 84.1932314 58.4312227"></polygon>
                    <polygon id="路径" fill="#B1B4C4" points="82.6670306 50.9279476 74.8755459 52.981441 70.8733624 50.669214 82.3264192 48.2554585 82.6670306 48.4585153"></polygon>
                    <polygon id="路径" fill="#E7E9F2" points="82.6670306 48.4585153 71.819869 51.2161572 69.4879913 49.8700873 80.4203057 47.0764192"></polygon>
                    <polygon id="路径" fill="#D6D8E5" points="65.0240175 38.2631004 65.0240175 40.7325328 66.0360262 47.8427948 67.5458515 48.779476"></polygon>
                    <polygon id="路径" fill="#E7E9F2" points="69.4879913 49.8340611 67.5360262 39.7139738 65.0240175 38.2631004 66.5469432 48.2358079"></polygon>
                    <polygon id="路径" fill="#B1B4C4" points="65.0240175 40.7325328 57.2325328 42.7860262 53.2303493 40.4737991 64.6834061 38.0600437 65.0240175 38.2631004"></polygon>
                    <polygon id="路径" fill="#E7E9F2" points="65.0240175 38.2631004 54.1735808 41.0207424 51.8417031 39.6746725 62.7772926 36.8810044"></polygon>
                    <polygon id="路径" fill="#D6D8E5" points="47.3810044 28.0742358 47.3810044 30.5436681 48.3930131 37.6539301 49.9028384 38.5873362"></polygon>
                    <polygon id="路径" fill="#E7E9F2" points="51.8417031 39.6451965 49.8930131 29.5251092 47.3810044 28.0742358 48.9039301 38.0469432"></polygon>
                    <polygon id="路径" fill="#B1B4C4" points="47.3810044 30.5436681 39.5895197 32.5971616 35.5873362 30.2849345 47.040393 27.871179 47.3810044 28.0742358"></polygon>
                    <polygon id="路径" fill="#E7E9F2" points="47.3810044 28.0742358 36.5305677 30.8318777 34.19869 29.4858079 45.1310044 26.6921397"></polygon>
                    <polygon id="路径" fill="#D6D8E5" opacity="0.4" points="30.8417031 163.755459 21.7303493 158.541485 35.3679039 150.7369 44.4792576 155.947598"></polygon>
                    <polygon id="路径" fill="#D6D8E5" points="31.0316594 153.245633 23.4858079 148.886463 31.0316594 144.530568 38.5775109 148.889738"></polygon>
                    <polygon id="路径" fill="#B1B6C4" points="31.0316594 161.960699 23.4858079 157.601528 23.4858079 148.886463 31.0316594 153.245633"></polygon>
                    <polygon id="路径" fill="#C4C7D6" points="38.5775109 157.601528 31.0316594 161.960699 31.0316594 153.245633 38.5775109 148.886463"></polygon>
                    <g id="Men_5" transform="translate(23.908297, 125.109170)">
                        <path d="M17.2663755,29.7510917 C17.9194803,29.9322251 18.617733,29.8474457 19.2085153,29.5152838 C19.6768559,29.5152838 22.2183406,28.441048 22.5655022,29.3548035 C22.8668122,30.1572052 21.7663755,30.8973799 21.1768559,31.0382096 C19.8930131,31.3657205 18.9432314,31.9912664 18.4290393,32.099345 C18.0458515,32.1812227 17.5480349,32.2336245 17.2401747,31.9323144 C16.8733624,31.5687773 16.9061135,30.2292576 17.2663755,29.7510917 Z" id="路径" fill="#1867B7"></path>
                        <path d="M18.4290393,31.8766376 C18.9432314,31.768559 19.8930131,31.1299127 21.1768559,30.8187773 C21.6713974,30.6975983 22.5196507,30.1637555 22.6048035,29.5087336 C22.7194323,30.2456332 21.7270742,30.900655 21.1768559,31.0316594 C19.8930131,31.3591703 18.9432314,31.9847162 18.4290393,32.0927948 C18.0458515,32.1746725 17.5480349,32.2270742 17.2401747,31.9257642 C17.1625067,31.8366961 17.1054713,31.7315719 17.0731441,31.6179039 C17.4587201,31.9138094 17.961594,32.0097684 18.4290393,31.8766376 L18.4290393,31.8766376 Z" id="路径" fill="#9C73FF"></path>
                        <path d="M12.6812227,27.3111354 C13.3353954,27.4924481 14.0347274,27.4076806 14.6266376,27.0753275 C15.0949782,27.0753275 17.6364629,26.0010917 17.9803493,26.9148472 C18.2849345,27.7172489 17.1844978,28.4574236 16.5949782,28.5982533 C15.3111354,28.9093886 14.3613537,29.55131 13.8438865,29.6593886 C13.4606987,29.7412664 12.9628821,29.7936681 12.6582969,29.4923581 C12.2914847,29.128821 12.3209607,27.7893013 12.6812227,27.3111354 Z" id="路径" fill="#1867B7"></path>
                        <path d="M13.8438865,29.4366812 C14.3613537,29.3286026 15.3111354,28.6899563 16.5949782,28.378821 C17.0862445,28.2576419 17.9377729,27.7237991 18.0229258,27.0687773 C18.1375546,27.8056769 17.1419214,28.4606987 16.5949782,28.5917031 C15.3111354,28.9028384 14.3613537,29.5447598 13.8438865,29.6528384 C13.4606987,29.7347162 12.9628821,29.7871179 12.6582969,29.4858079 C12.5784224,29.3977833 12.5201176,29.2923861 12.4879913,29.1779476 C12.8737858,29.4733654 13.3764176,29.5692783 13.8438865,29.4366812 L13.8438865,29.4366812 Z" id="路径" fill="#9C73FF"></path>
                        <path d="M5.54475983,24.1473799 C7.50982533,25.018559 9.39628821,25.1561135 10.9257642,24.3340611 L12.5043668,23.4235808 C12.599345,25.4606987 12.6877729,27.419214 12.6877729,27.419214 C12.6877729,27.419214 13.8995633,28.3362445 14.8427948,27.5174672 C14.8427948,27.5174672 15.0393013,24.6582969 15.239083,21.8449782 L16.8962882,20.8886463 C16.8564553,21.0383681 16.8344686,21.1922754 16.830786,21.3471616 C16.830786,21.8842795 17.2139738,29.8296943 17.2139738,29.8296943 C17.2139738,29.8296943 18.4355895,30.5567686 19.378821,29.7379913 C19.378821,29.7379913 20.0141921,20.5283843 20.1582969,19.0578603 C20.3220524,17.4039301 18.4847162,16.5884279 17.3253275,17.0141921 C17.0534934,17.1091703 16.3886463,17.3580786 15.5469432,17.669214 C15.5829694,17.2074236 15.6124454,16.8504367 15.6320961,16.6473799 C15.7991266,14.9901747 13.9617904,14.1746725 12.7991266,14.6004367 C11.7379913,14.9868996 4.58515284,17.6855895 4.58515284,17.6855895 C4.62972779,18.3721907 4.71392919,19.0556436 4.83733624,19.7325328 L2.01419214,19.4967249 C1.84388646,22.139738 3.56659389,23.2762009 5.54475983,24.1473799 Z M10.4803493,31.4716157 L19.4803493,18.4716157 C19.3213806,20.058526 19.2221603,21.6792206 19.1839889,23.3124566 L10.4803493,31.4716157 Z" id="形状" fill="#2E92F7"></path>
                        <path d="M0.465065502,11.4203057 C0.465065502,11.4203057 0.697598253,14.9344978 1.15938865,15.4421397 C1.62117904,15.9497817 3.180131,16.2936681 3.180131,16.2936681 L4.37882096,18.2587336 C4.37882096,18.2587336 3.27510917,11.9868996 3.04585153,11.8362445 C2.81659389,11.6855895 0.465065502,11.4203057 0.465065502,11.4203057 Z" id="路径" fill="#FFCEA9"></path>
                        <path d="M2.77401747,7.53275109 C2.16999611,7.25171431 1.45124585,7.4687487 1.10371179,8.0371179 C0.661572052,8.77074236 0.203056769,11.279476 0.160480349,11.7085153 C0.160480349,11.7085153 0.779475983,12.5665939 1.70960699,12.4224891 L2.77401747,7.53275109 Z" id="_Контур_" fill="#EDEDED"></path>
                        <path d="M3.19650655,7.56222707 C3.80567686,7.59170306 4.25764192,7.7489083 4.33296943,7.56222707 C4.3981041,7.24982949 4.44404166,6.9337354 4.47052402,6.61572052 C4.40174672,6.43886463 4.33951965,6.2489083 4.33951965,6.2489083 C3.57969432,5.78056769 3.33733624,4.93886463 3.23580786,3.99563319 C3.06550218,2.3580786 3.95305677,0.917030568 5.59388646,0.746724891 C7.13646288,0.586244541 8.26965066,1.67030568 8.57423581,3.15720524 C8.73471616,3.8941048 9.06222707,5.28275109 8.62336245,6.49126638 C8.37772926,7.16593886 8.06004367,7.70305677 7.74563319,7.80131004 C7.43967926,7.79240728 7.13454044,7.76506509 6.83187773,7.71943231 L6.83187773,7.71943231 C6.83187773,7.71943231 6.75,8.17467249 6.69432314,8.46615721 C6.63864629,8.75764192 6.66157205,8.91484716 7.24126638,9.27183406 C7.8209607,9.62882096 6.36026201,10.3689956 5.40720524,10.2969432 C4.45414847,10.2248908 3.37663755,9.6419214 3.07860262,9.02947598 C2.7510917,8.35480349 2.78056769,7.53275109 3.19650655,7.56222707 Z" id="_Контур_2" fill="#FFCEA9"></path>
                        <g id="_Группа_" transform="translate(6.222707, 8.187773)">
                            <g id="_Группа_2">
                                <g id="_Группа_3" transform="translate(0.000000, 5.895197)">
                                    <path d="M12.3602751,4.22816594 L12.3602751,4.22816594 C12.3615513,4.40495978 12.2677436,4.56881067 12.1146288,4.65720524 L7.48689956,7.32969432 C7.3338879,7.41803565 7.14536975,7.41803565 6.99235808,7.32969432 L0.501091703,3.58296943 C0.348995844,3.49515689 0.255458414,3.33283035 0.255458414,3.15720524 L0.255458414,3.11790393 L12.3602751,4.22816594 Z" id="_Контур_3" fill="#E5E5E5"></path>
                                    <path d="M12.1179039,4.65720524 L7.49017467,7.32969432 C7.41456201,7.37340963 7.32860255,7.39603054 7.24126638,7.39521876 L7.24126638,4.22816594 L12.3635502,4.22816594 C12.3648264,4.40495978 12.2710187,4.56881067 12.1179039,4.65720524 Z" id="_Контур_4" fill="#E5E5E5"></path>
                                    <g id="_Группа_4" fill="#F4F4F4">
                                        <path d="M7.41157205,7.08733624 C7.30415989,7.14935069 7.17182264,7.14935069 7.06441048,7.08733624 L0.327510917,3.19323144 C0.239082969,3.1441048 0.239082969,3.06222707 0.327510917,3.01310044 L5.29257642,0.144104803 L12.3668122,4.22816594 L7.41157205,7.08733624 Z" id="_Контур_5"></path>
                                    </g>
                                    <g id="_Группа_5" transform="translate(2.947598, 3.275109)">
                                        <polygon id="_Контур_6" fill="#BFBFBF" points="0.144104803 0.953056769 0.176855895 0.972707424 2.33842795 2.22052402 3.52401747 1.5360262 3.56004367 1.51637555 1.36244541 0.248908297"></polygon>
                                        <polygon id="_Контур_7" fill="#E5E5E5" points="0.176855895 0.972707424 2.33842795 2.22052402 3.52401747 1.5360262 1.36244541 0.288209607"></polygon>
                                    </g>
                                    <path d="M10.5262009,4.43122271 L10.8537118,4.61135371 C10.8848027,4.62610141 10.9208742,4.62610141 10.9519651,4.61135371 L11.25,4.43777293 C11.279476,4.42139738 11.2827511,4.39519651 11.25,4.38209607 L10.9224891,4.20196507 C10.8917669,4.18566196 10.854958,4.18566196 10.8242358,4.20196507 L10.5262009,4.37227074 C10.5065502,4.3919214 10.5032751,4.41484716 10.5262009,4.43122271 Z" id="路径" fill="#3A2C6D"></path>
                                    <path d="M10.0873362,4.17576419 L10.4148472,4.3558952 C10.4455694,4.37219831 10.4823782,4.37219831 10.5131004,4.3558952 L10.8111354,4.18231441 C10.8406114,4.16593886 10.8438865,4.13973799 10.8111354,4.12663755 L10.4836245,3.94650655 C10.4529022,3.93020344 10.4160934,3.93020344 10.3853712,3.94650655 L10.0873362,4.12008734 C10.0644105,4.13646288 10.0611354,4.16266376 10.0873362,4.17576419 Z" id="路径" fill="#3A2C6D"></path>
                                    <path d="M9.64519651,3.930131 L9.97270742,4.11026201 C10.0034296,4.12656512 10.0402385,4.12656512 10.0709607,4.11026201 L10.3689956,3.93995633 C10.3984716,3.92030568 10.4017467,3.89737991 10.3689956,3.88100437 L10.0578603,3.70087336 C10.0267694,3.68612566 9.99069787,3.68612566 9.95960699,3.70087336 L9.66157205,3.87445415 C9.62227074,3.88100437 9.61899563,3.90720524 9.64519651,3.930131 Z" id="路径" fill="#3A2C6D"></path>
                                    <path d="M9.20305677,3.66812227 L9.53056769,3.84825328 C9.5628719,3.86268515 9.59979185,3.86268515 9.63209607,3.84825328 L9.930131,3.6779476 C9.95960699,3.6779476 9.9628821,3.63537118 9.930131,3.61899563 L9.60262009,3.43886463 C9.57074622,3.4225387 9.53296557,3.4225387 9.5010917,3.43886463 L9.20305677,3.60917031 C9.17030568,3.62554585 9.17030568,3.65174672 9.20305677,3.66812227 Z" id="路径" fill="#3A2C6D"></path>
                                    <path d="M8.76091703,3.41266376 L9.08842795,3.59279476 C9.11915017,3.60909787 9.15595901,3.60909787 9.18668122,3.59279476 L9.48471616,3.42248908 C9.51419214,3.40611354 9.51746725,3.37991266 9.48471616,3.36681223 L9.15720524,3.18668122 C9.12533137,3.17035529 9.08755072,3.17035529 9.05567686,3.18668122 L8.76091703,3.3569869 C8.74126638,3.37008734 8.73799127,3.39628821 8.76091703,3.41266376 Z" id="路径" fill="#3A2C6D"></path>
                                    <path d="M8.3220524,3.15720524 L8.64956332,3.33733624 C8.6806542,3.35208394 8.71672571,3.35208394 8.74781659,3.33733624 L9.04585153,3.16375546 C9.07532751,3.16375546 9.07860262,3.12117904 9.04585153,3.1080786 L8.71834061,2.9279476 C8.68761839,2.91164449 8.65080955,2.91164449 8.62008734,2.9279476 L8.3220524,3.09825328 C8.29912664,3.11790393 8.29585153,3.14082969 8.3220524,3.15720524 Z" id="路径" fill="#3A2C6D"></path>
                                    <path d="M7.87991266,2.90174672 L8.20742358,3.08187773 C8.2381458,3.09818084 8.27495464,3.09818084 8.30567686,3.08187773 L8.60371179,2.90829694 C8.63318777,2.8919214 8.63646288,2.86572052 8.60371179,2.85262009 L8.29257642,2.67248908 C8.2618542,2.65618597 8.22504536,2.65618597 8.19432314,2.67248908 L7.89628821,2.84606987 C7.86026201,2.86244541 7.86026201,2.88864629 7.87991266,2.90174672 Z" id="路径" fill="#3A2C6D"></path>
                                    <path d="M7.43777293,2.64628821 L7.76528384,2.82641921 C7.79715771,2.84274515 7.83493836,2.84274515 7.86681223,2.82641921 L8.16484716,2.65611354 C8.19432314,2.63646288 8.19432314,2.61353712 8.16484716,2.59716157 L7.83733624,2.41703057 C7.80512484,2.40216976 7.76801926,2.40216976 7.73580786,2.41703057 L7.43777293,2.59061135 C7.41484716,2.62008734 7.41157205,2.62008734 7.43777293,2.64628821 Z" id="路径" fill="#3A2C6D"></path>
                                    <path d="M6.99563319,2.3941048 L7.3231441,2.57423581 C7.35433505,2.58853216 7.39020643,2.58853216 7.42139738,2.57423581 L7.71943231,2.40393013 C7.7489083,2.38755459 7.75218341,2.36135371 7.71943231,2.34497817 L7.3919214,2.16484716 C7.36004753,2.14852123 7.32226688,2.14852123 7.29039301,2.16484716 L6.99563319,2.33515284 C6.97598253,2.35152838 6.97270742,2.37772926 6.99563319,2.3941048 Z" id="路径" fill="#3A2C6D"></path>
                                    <path d="M6.55021834,2.13864629 L6.87772926,2.31877729 C6.90845148,2.3350804 6.94526032,2.3350804 6.97598253,2.31877729 L7.27401747,2.14847162 C7.30349345,2.13209607 7.30676856,2.1058952 7.27401747,2.09279476 L6.94650655,1.91266376 C6.91578433,1.89636065 6.87897549,1.89636065 6.84825328,1.91266376 L6.55021834,2.08296943 C6.55021834,2.09606987 6.53056769,2.12227074 6.55021834,2.13864629 Z" id="路径" fill="#3A2C6D"></path>
                                    <path d="M6.11462882,1.88318777 L6.44213974,2.06331878 C6.47323062,2.07806648 6.50930213,2.07806648 6.54039301,2.06331878 L6.83842795,1.88973799 C6.86790393,1.87336245 6.87117904,1.84716157 6.83842795,1.83406114 L6.52729258,1.65393013 C6.49657036,1.63762702 6.45976152,1.63762702 6.4290393,1.65393013 L6.13100437,1.82423581 C6.09170306,1.84388646 6.08842795,1.86681223 6.11462882,1.88318777 Z" id="路径" fill="#3A2C6D"></path>
                                    <path d="M5.67248908,1.63755459 L6,1.81768559 C6.03187387,1.83401152 6.06965452,1.83401152 6.10152838,1.81768559 L6.39956332,1.6441048 C6.4290393,1.62772926 6.4290393,1.60152838 6.39956332,1.58842795 L6.0720524,1.40829694 C6.04017853,1.39197101 6.00239788,1.39197101 5.97052402,1.40829694 L5.67248908,1.58187773 C5.64956332,1.58842795 5.64628821,1.61462882 5.67248908,1.63755459 Z" id="路径" fill="#3A2C6D"></path>
                                    <path d="M5.24017467,1.37227074 L5.56768559,1.55240175 C5.59840781,1.56870486 5.63521665,1.56870486 5.66593886,1.55240175 L5.9639738,1.38209607 C5.99344978,1.36244541 5.99672489,1.33951965 5.9639738,1.3231441 L5.63646288,1.1430131 C5.60425148,1.12815229 5.5671459,1.12815229 5.5349345,1.1430131 L5.24017467,1.31659389 C5.21069869,1.33296943 5.20742358,1.35917031 5.24017467,1.37227074 Z" id="路径" fill="#3A2C6D"></path>
                                    <path d="M4.58515284,0.982532751 L5.10917031,1.2871179 C5.14026119,1.3018656 5.1763327,1.3018656 5.20742358,1.2871179 L5.50545852,1.11681223 C5.5349345,1.10043668 5.53820961,1.07423581 5.50545852,1.05786026 L4.98144105,0.756550218 C4.95071883,0.740247109 4.91390999,0.740247109 4.88318777,0.756550218 L4.58515284,0.930131004 C4.55567686,0.956331878 4.55240175,0.982532751 4.58515284,0.982532751 Z" id="路径" fill="#3A2C6D"></path>
                                    <path d="M9.44541485,4.30021834 L9.77292576,4.48034934 C9.80401665,4.49509705 9.84008816,4.49509705 9.87117904,4.48034934 L10.169214,4.30676856 C10.19869,4.29039301 10.2019651,4.26419214 10.169214,4.2510917 L9.84170306,4.0709607 C9.81098084,4.05465759 9.774172,4.05465759 9.74344978,4.0709607 L9.44541485,4.24126638 C9.42248908,4.25764192 9.41921397,4.28384279 9.44541485,4.30021834 Z" id="路径" fill="#3A2C6D"></path>
                                    <path d="M9.00327511,4.04475983 L9.33078603,4.22489083 C9.36299743,4.23975164 9.40010301,4.23975164 9.43231441,4.22489083 L9.72707424,4.05131004 C9.75655022,4.0349345 9.75982533,4.00873362 9.72707424,3.99563319 L9.39956332,3.81550218 C9.3688411,3.79919907 9.33203226,3.79919907 9.30131004,3.81550218 L9.00327511,3.98908297 C8.98034934,4.00545852 8.97707424,4.03165939 9.00327511,4.04475983 Z" id="路径" fill="#3A2C6D"></path>
                                    <path d="M8.56113537,3.78930131 L8.88864629,3.96943231 C8.92052016,3.98575825 8.95830081,3.98575825 8.99017467,3.96943231 L9.2849345,3.79585153 C9.31441048,3.77947598 9.31768559,3.75327511 9.2849345,3.74017467 L8.95742358,3.56004367 C8.92670136,3.54374056 8.88989252,3.54374056 8.85917031,3.56004367 L8.56113537,3.73362445 C8.53820961,3.75 8.5349345,3.77620087 8.56113537,3.78930131 Z" id="路径" fill="#3A2C6D"></path>
                                    <path d="M8.11899563,3.53384279 L8.430131,3.7139738 C8.46200487,3.73029973 8.49978552,3.73029973 8.53165939,3.7139738 L8.82641921,3.54039301 C8.8558952,3.52401747 8.85917031,3.49781659 8.82641921,3.48471616 L8.4989083,3.30458515 C8.46818608,3.28828204 8.43137724,3.28828204 8.40065502,3.30458515 L8.10262009,3.47816594 C8.09606987,3.49454148 8.09279476,3.52074236 8.11899563,3.53384279 Z" id="路径" fill="#3A2C6D"></path>
                                    <path d="M7.680131,3.27510917 L8.00764192,3.45524017 C8.03985332,3.47010098 8.0769589,3.47010098 8.10917031,3.45524017 L8.40393013,3.28165939 C8.43340611,3.28165939 8.43668122,3.23908297 8.40393013,3.22598253 L8.07641921,3.04585153 C8.045697,3.02954842 8.00888816,3.02954842 7.97816594,3.04585153 L7.680131,3.21615721 C7.65720524,3.24235808 7.65393013,3.27510917 7.680131,3.27510917 Z" id="路径" fill="#3A2C6D"></path>
                                    <path d="M7.23799127,3.02620087 L7.56550218,3.20633188 C7.59771358,3.22119269 7.63481917,3.22119269 7.66703057,3.20633188 L7.96179039,3.03275109 C7.99126638,3.01637555 7.99454148,2.99017467 7.96179039,2.97707424 L7.63427948,2.79694323 C7.60355726,2.78064012 7.56674842,2.78064012 7.5360262,2.79694323 L7.23799127,2.96724891 C7.20524017,2.98689956 7.20524017,3.00982533 7.23799127,3.02620087 Z" id="路径" fill="#3A2C6D"></path>
                                    <path d="M6.79585153,2.77074236 L7.12336245,2.95087336 C7.15557385,2.96573417 7.19267943,2.96573417 7.22489083,2.95087336 L7.51965066,2.77729258 C7.54912664,2.76091703 7.55240175,2.73471616 7.51965066,2.72161572 L7.19213974,2.54148472 C7.16141752,2.52518161 7.12460868,2.52518161 7.09388646,2.54148472 L6.79585153,2.71179039 C6.77292576,2.73144105 6.76965066,2.75436681 6.79585153,2.77074236 Z" id="路径" fill="#3A2C6D"></path>
                                    <path d="M6.35371179,2.51528384 L6.66484716,2.69541485 C6.69705856,2.71027566 6.73416414,2.71027566 6.76637555,2.69541485 L7.06441048,2.52183406 C7.09061135,2.50545852 7.09388646,2.47925764 7.06441048,2.46615721 L6.73689956,2.2860262 C6.70617735,2.26972309 6.66936851,2.26972309 6.63864629,2.2860262 L6.34061135,2.45960699 C6.33078603,2.47598253 6.32751092,2.50218341 6.35371179,2.51528384 Z" id="路径" fill="#3A2C6D"></path>
                                    <path d="M5.91157205,2.25982533 L6.23908297,2.43995633 C6.27095684,2.45628226 6.30873749,2.45628226 6.34061135,2.43995633 L6.63864629,2.26637555 C6.66484716,2.25 6.66812227,2.22379913 6.63864629,2.21069869 L6.32751092,2.03056769 C6.29563705,2.01424175 6.2578564,2.01424175 6.22598253,2.03056769 L5.9279476,2.20414847 C5.89519651,2.22052402 5.89519651,2.24672489 5.91157205,2.25982533 Z" id="路径" fill="#3A2C6D"></path>
                                    <path d="M5.46943231,2.00436681 L5.79694323,2.18449782 C5.8288171,2.20082375 5.86659775,2.20082375 5.89847162,2.18449782 L6.19650655,2.01091703 C6.22598253,1.99454148 6.22598253,1.96834061 6.19650655,1.95524017 L5.86899563,1.77510917 C5.83678423,1.76024836 5.79967865,1.76024836 5.76746725,1.77510917 L5.46943231,1.94868996 C5.44650655,1.9650655 5.44323144,1.99126638 5.46943231,2.00436681 Z" id="路径" fill="#3A2C6D"></path>
                                    <path d="M5.02729258,1.7489083 L5.35480349,1.9290393 C5.38667736,1.94536523 5.42445801,1.94536523 5.45633188,1.9290393 L5.75436681,1.75873362 C5.78384279,1.73908297 5.78384279,1.7128821 5.75436681,1.69978166 L5.4268559,1.51965066 C5.39464449,1.50478985 5.35753891,1.50478985 5.32532751,1.51965066 L5.02729258,1.69323144 C5.00436681,1.70960699 5.0010917,1.73580786 5.02729258,1.7489083 Z" id="路径" fill="#3A2C6D"></path>
                                    <path d="M4.58515284,1.49344978 L4.91266376,1.67358079 C4.94453762,1.68990672 4.98231827,1.68990672 5.01419214,1.67358079 L5.31222707,1.50327511 C5.34170306,1.48362445 5.34497817,1.46069869 5.31222707,1.44432314 L4.98471616,1.26419214 C4.95250476,1.24933133 4.91539917,1.24933133 4.88318777,1.26419214 L4.58515284,1.43777293 C4.56222707,1.45414847 4.55895197,1.48034934 4.58515284,1.49344978 Z" id="路径" fill="#3A2C6D"></path>
                                    <path d="M9.88755459,4.55567686 L10.4115721,4.8569869 C10.4422943,4.87329001 10.4791031,4.87329001 10.5098253,4.8569869 L10.8078603,4.68668122 C10.8373362,4.66703057 10.8406114,4.6441048 10.8078603,4.62772926 L10.2838428,4.32641921 C10.2531206,4.31011611 10.2163117,4.31011611 10.1855895,4.32641921 L9.88755459,4.49672489 C9.86462882,4.51637555 9.86135371,4.53930131 9.88755459,4.55567686 Z" id="路径" fill="#3A2C6D"></path>
                                    <path d="M4.54912664,1.00873362 L4.87663755,1.18886463 C4.8911079,1.18886463 4.90283843,1.20059516 4.90283843,1.2150655 C4.90283843,1.22953584 4.8911079,1.24126638 4.87663755,1.24126638 L4.54912664,1.42467249 C4.51997771,1.43784338 4.48657251,1.43784338 4.45742358,1.42467249 L4.43122271,1.40829694 C4.40431295,1.39535813 4.37297963,1.39535813 4.34606987,1.40829694 L4.01855895,1.60152838 C3.98941002,1.61469927 3.95600483,1.61469927 3.9268559,1.60152838 L3.72707424,1.48689956 C3.70087336,1.47052402 3.70087336,1.44759825 3.72707424,1.43449782 L4.05458515,1.25436681 L4.12008734,1.21834061 L4.16593886,1.18886463 L4.21179039,1.16266376 L4.48034934,1.00873362 C4.50240693,0.999810894 4.52706906,0.999810894 4.54912664,1.00873362 Z" id="路径" fill="#3A2C6D"></path>
                                    <path d="M8.81659389,5.41703057 L9.1441048,5.59716157 C9.17482702,5.61346468 9.21163586,5.61346468 9.24235808,5.59716157 L9.54039301,5.4268559 C9.569869,5.40720524 9.5731441,5.38427948 9.54039301,5.36790393 L9.22925764,5.18777293 C9.19816676,5.17302523 9.16209525,5.17302523 9.13100437,5.18777293 L8.83296943,5.36135371 C8.79366812,5.37772926 8.79039301,5.40393013 8.81659389,5.41703057 Z" id="路径" fill="#3A2C6D"></path>
                                    <path d="M8.37445415,5.16484716 L8.70196507,5.34497817 C8.73383893,5.3613041 8.77161958,5.3613041 8.80349345,5.34497817 L9.09825328,5.17467249 C9.12772926,5.17467249 9.13100437,5.13209607 9.09825328,5.11572052 L8.77074236,4.93886463 C8.74002014,4.92256152 8.7032113,4.92256152 8.67248908,4.93886463 L8.37445415,5.10917031 C8.35152838,5.12227074 8.34825328,5.14847162 8.37445415,5.16484716 Z" id="路径" fill="#3A2C6D"></path>
                                    <path d="M7.93558952,4.91266376 L8.26310044,5.09279476 C8.29382265,5.10909787 8.33063149,5.10909787 8.36135371,5.09279476 L8.65938865,4.91921397 C8.68886463,4.90283843 8.69213974,4.87663755 8.65938865,4.86353712 L8.33187773,4.68340611 C8.30115551,4.667103 8.26434667,4.667103 8.23362445,4.68340611 L7.93558952,4.8569869 C7.91266376,4.87008734 7.90938865,4.91266376 7.93558952,4.91266376 Z" id="路径" fill="#3A2C6D"></path>
                                    <path d="M4.18558952,2.74454148 L4.51310044,2.92467249 C4.54382265,2.9409756 4.58063149,2.9409756 4.61135371,2.92467249 L4.90938865,2.75436681 C4.93886463,2.75436681 4.94213974,2.71179039 4.90938865,2.69541485 L4.58187773,2.51528384 C4.55000386,2.49895791 4.51222321,2.49895791 4.48034934,2.51528384 L4.18558952,2.68558952 C4.16593886,2.70524017 4.16266376,2.73144105 4.18558952,2.74454148 Z" id="路径" fill="#3A2C6D"></path>
                                    <path d="M3.74672489,2.49235808 L4.07423581,2.67248908 C4.10644721,2.68734989 4.14355279,2.68734989 4.17576419,2.67248908 L4.47052402,2.4989083 C4.5,2.48253275 4.50327511,2.45633188 4.47052402,2.44323144 L4.1430131,2.26310044 C4.11229088,2.24679733 4.07548204,2.24679733 4.04475983,2.26310044 L3.74672489,2.43340611 C3.72379913,2.45305677 3.72052402,2.47598253 3.74672489,2.49235808 Z" id="路径" fill="#3A2C6D"></path>
                                    <path d="M3.30786026,2.23689956 L3.63537118,2.41703057 C3.6660934,2.43333368 3.70290224,2.43333368 3.73362445,2.41703057 L4.03165939,2.24672489 C4.06113537,2.22707424 4.06441048,2.20414847 4.03165939,2.18777293 L3.70414847,2.00764192 C3.67305759,1.99289422 3.63698608,1.99289422 3.6058952,2.00764192 L3.30786026,2.18122271 C3.27510917,2.19759825 3.27510917,2.22379913 3.30786026,2.23689956 Z" id="路径" fill="#3A2C6D"></path>
                                    <path d="M2.86572052,1.98471616 L3.19323144,2.16484716 C3.22395366,2.18115027 3.2607625,2.18115027 3.29148472,2.16484716 L3.58951965,1.99454148 C3.61899563,1.97816594 3.62227074,1.95196507 3.58951965,1.93558952 L3.26200873,1.75873362 C3.23013487,1.74240769 3.19235422,1.74240769 3.16048035,1.75873362 L2.86572052,1.9290393 C2.84606987,1.94213974 2.84279476,1.9650655 2.86572052,1.98471616 Z" id="路径" fill="#3A2C6D"></path>
                                    <path d="M7.38209607,4.58515284 L7.80786026,4.82751092 C7.83858248,4.84381403 7.87539132,4.84381403 7.90611354,4.82751092 L8.20414847,4.65720524 C8.23362445,4.64082969 8.23689956,4.61462882 8.20414847,4.59825328 L7.77838428,4.35262009 C7.74766206,4.33631698 7.71085322,4.33631698 7.680131,4.35262009 L7.38209607,4.52292576 C7.35917031,4.54912664 7.3558952,4.58515284 7.38209607,4.58515284 Z" id="路径" fill="#3A2C6D"></path>
                                    <path d="M4.62772926,3 L5.05349345,3.24563319 C5.08458433,3.26038089 5.12065584,3.26038089 5.15174672,3.24563319 L5.44978166,3.0720524 C5.47925764,3.05567686 5.48253275,3.02947598 5.44978166,3.01637555 L5.02401747,2.77074236 C4.99329525,2.75443925 4.95648641,2.75443925 4.92576419,2.77074236 L4.62772926,2.94432314 C4.60480349,2.94759825 4.60152838,2.98689956 4.62772926,3 Z" id="路径" fill="#3A2C6D"></path>
                                    <path d="M5.18122271,3.3209607 L7.25436681,4.51637555 C7.28545769,4.53112325 7.3215292,4.53112325 7.35262009,4.51637555 L7.65065502,4.34279476 C7.680131,4.32641921 7.68340611,4.30021834 7.65065502,4.2871179 L5.57751092,3.08842795 C5.5467887,3.07212484 5.50997986,3.07212484 5.47925764,3.08842795 L5.18122271,3.25873362 C5.15829694,3.27510917 5.15502183,3.30458515 5.18122271,3.3209607 Z" id="路径" fill="#3A2C6D"></path>
                                    <path d="M8.89847162,4.47707424 L9.22598253,4.65720524 C9.25670475,4.67350835 9.29351359,4.67350835 9.32423581,4.65720524 L9.62227074,4.48362445 C9.65174672,4.46724891 9.65502183,4.44104803 9.62227074,4.4279476 L9.31113537,4.24781659 C9.28004449,4.23306889 9.24397298,4.23306889 9.2128821,4.24781659 L8.91484716,4.42139738 C8.87554585,4.43777293 8.87227074,4.4639738 8.89847162,4.47707424 Z" id="路径" fill="#3A2C6D"></path>
                                    <path d="M8.45633188,4.22161572 L8.78384279,4.40174672 C8.81571666,4.41807266 8.85349731,4.41807266 8.88537118,4.40174672 L9.180131,4.23144105 C9.20960699,4.2150655 9.2128821,4.18886463 9.180131,4.17248908 L8.85262009,3.99235808 C8.82189787,3.97605497 8.78508903,3.97605497 8.75436681,3.99235808 L8.45633188,4.16266376 C8.43340611,4.18231441 8.430131,4.20851528 8.45633188,4.22161572 Z" id="路径" fill="#3A2C6D"></path>
                                    <path d="M8.01746725,3.96943231 L8.34497817,4.14956332 C8.37570038,4.16586643 8.41250922,4.16586643 8.44323144,4.14956332 L8.74126638,3.97925764 C8.77074236,3.9628821 8.77401747,3.93668122 8.74126638,3.92358079 L8.41375546,3.74344978 C8.38303324,3.72714667 8.3462244,3.72714667 8.31550218,3.74344978 L8.01746725,3.91375546 C7.99454148,3.930131 7.99126638,3.95305677 8.01746725,3.96943231 Z" id="路径" fill="#3A2C6D"></path>
                                    <path d="M7.57532751,3.7139738 L7.90283843,3.8941048 C7.93356065,3.91040791 7.97036949,3.91040791 8.0010917,3.8941048 L8.29912664,3.72052402 C8.32860262,3.70414847 8.33187773,3.6779476 8.29912664,3.66484716 L7.97161572,3.48471616 C7.9408935,3.46841305 7.90408466,3.46841305 7.87336245,3.48471616 L7.57532751,3.65829694 C7.55240175,3.67467249 7.54912664,3.70087336 7.57532751,3.7139738 Z" id="路径" fill="#3A2C6D"></path>
                                    <path d="M7.13318777,3.45851528 L7.46069869,3.63864629 C7.49142091,3.6549494 7.52822975,3.6549494 7.55895197,3.63864629 L7.8569869,3.46834061 C7.88646288,3.44868996 7.88973799,3.42576419 7.8569869,3.40938865 L7.52947598,3.22925764 C7.49726458,3.21439683 7.460159,3.21439683 7.4279476,3.22925764 L7.12991266,3.40283843 C7.11353712,3.41921397 7.11026201,3.44541485 7.13318777,3.45851528 Z" id="路径" fill="#3A2C6D"></path>
                                    <path d="M6.69432314,3.20633188 L7.02183406,3.38646288 C7.05255628,3.40276599 7.08936512,3.40276599 7.12008734,3.38646288 L7.41812227,3.21615721 C7.44759825,3.19978166 7.45087336,3.17358079 7.41812227,3.15720524 L7.09061135,2.97707424 C7.05952047,2.96232654 7.02344896,2.96232654 6.99235808,2.97707424 L6.69432314,3.14737991 C6.67139738,3.16375546 6.66812227,3.18995633 6.69432314,3.20633188 Z" id="路径" fill="#3A2C6D"></path>
                                    <path d="M6.25218341,2.94759825 L6.57969432,3.12772926 C6.61190572,3.14259007 6.64901131,3.14259007 6.68122271,3.12772926 L6.97598253,2.95414847 C7.00545852,2.95414847 7.00873362,2.91157205 6.97598253,2.89847162 L6.64847162,2.71834061 C6.6177494,2.7020375 6.58094056,2.7020375 6.55021834,2.71834061 L6.25218341,2.88864629 C6.22270742,2.91157205 6.22270742,2.94759825 6.25218341,2.94759825 Z" id="路径" fill="#3A2C6D"></path>
                                    <path d="M5.81331878,2.69541485 L6.14082969,2.87554585 C6.17155191,2.89184896 6.20836075,2.89184896 6.23908297,2.87554585 L6.5371179,2.70196507 C6.56659389,2.68558952 6.569869,2.65938865 6.5371179,2.64628821 L6.20960699,2.46615721 C6.1785161,2.4514095 6.14244459,2.4514095 6.11135371,2.46615721 L5.81331878,2.63973799 C5.79039301,2.65611354 5.7871179,2.68231441 5.81331878,2.69541485 Z" id="路径" fill="#3A2C6D"></path>
                                    <path d="M5.37117904,2.43995633 L5.68231441,2.62008734 C5.71303663,2.63639045 5.74984547,2.63639045 5.78056769,2.62008734 L6.07860262,2.44978166 C6.1080786,2.43340611 6.11135371,2.40720524 6.07860262,2.39082969 L5.7510917,2.21069869 C5.72036949,2.19439558 5.68356065,2.19439558 5.65283843,2.21069869 L5.35480349,2.38100437 C5.34825328,2.40065502 5.34497817,2.4268559 5.37117904,2.43995633 Z" id="路径" fill="#3A2C6D"></path>
                                    <path d="M4.9290393,2.18777293 L5.25655022,2.36790393 C5.28842409,2.38422986 5.32620474,2.38422986 5.3580786,2.36790393 L5.65611354,2.19759825 C5.68558952,2.18122271 5.68886463,2.15502183 5.65611354,2.1419214 L5.34497817,1.96179039 C5.3131043,1.94546446 5.27532365,1.94546446 5.24344978,1.96179039 L4.94541485,2.13209607 C4.91266376,2.14519651 4.91266376,2.17139738 4.9290393,2.18777293 Z" id="路径" fill="#3A2C6D"></path>
                                    <path d="M4.49017467,1.93231441 L4.81768559,2.11244541 C4.84840781,2.12874852 4.88521665,2.12874852 4.91593886,2.11244541 L5.2139738,1.93886463 C5.24344978,1.92248908 5.24672489,1.89628821 5.2139738,1.88318777 L4.88646288,1.70305677 C4.85574066,1.68675366 4.81893182,1.68675366 4.78820961,1.70305677 L4.49017467,1.87663755 C4.46724891,1.8930131 4.4639738,1.91921397 4.49017467,1.93231441 Z" id="路径" fill="#3A2C6D"></path>
                                    <path d="M4.04803493,1.6768559 L4.37554585,1.8569869 C4.40741972,1.87331283 4.44520037,1.87331283 4.47707424,1.8569869 L4.77183406,1.68668122 C4.80131004,1.66703057 4.80458515,1.6441048 4.77183406,1.62772926 L4.44432314,1.44759825 C4.41323226,1.43285055 4.37716075,1.43285055 4.34606987,1.44759825 L4.04803493,1.62117904 C4.02510917,1.63755459 4.02183406,1.66375546 4.04803493,1.6768559 Z" id="路径" fill="#3A2C6D"></path>
                                    <path d="M9.33733624,4.73253275 L9.99235808,5.1058952 C10.023449,5.1206429 10.0595205,5.1206429 10.0906114,5.1058952 L10.3886463,4.93558952 C10.4181223,4.91921397 10.4213974,4.8930131 10.3886463,4.87663755 L9.73362445,4.50655022 C9.70175059,4.49022429 9.66396994,4.49022429 9.63209607,4.50655022 L9.33733624,4.6768559 C9.31768559,4.69323144 9.31441048,4.71615721 9.33733624,4.73253275 Z" id="路径" fill="#3A2C6D"></path>
                                    <path d="M8.68886463,4.85043668 L9.01637555,5.03056769 C9.04709776,5.04687079 9.0839066,5.04687079 9.11462882,5.03056769 L9.41266376,4.8569869 C9.44213974,4.84061135 9.44541485,4.81441048 9.41266376,4.80131004 L9.10152838,4.62117904 C9.0704375,4.60643134 9.03436599,4.60643134 9.00327511,4.62117904 L8.70524017,4.79475983 C8.66593886,4.81113537 8.66266376,4.83733624 8.68886463,4.85043668 Z" id="路径" fill="#3A2C6D"></path>
                                    <path d="M8.24672489,4.58515284 L8.57423581,4.76528384 C8.60495803,4.78158695 8.64176687,4.78158695 8.67248908,4.76528384 L8.97052402,4.59497817 C9,4.57860262 9.00327511,4.55240175 8.97052402,4.5360262 L8.6430131,4.3558952 C8.61113923,4.33956926 8.57335858,4.33956926 8.54148472,4.3558952 L8.24672489,4.52620087 C8.22707424,4.55567686 8.22379913,4.58515284 8.24672489,4.58515284 Z" id="路径" fill="#3A2C6D"></path>
                                    <path d="M7.80786026,4.34279476 L8.13537118,4.52292576 C8.1660934,4.53922887 8.20290224,4.53922887 8.23362445,4.52292576 L8.53165939,4.35262009 C8.56113537,4.35262009 8.56441048,4.31004367 8.53165939,4.29694323 L8.20414847,4.11681223 C8.17342625,4.10050912 8.13661741,4.10050912 8.1058952,4.11681223 L7.80786026,4.2871179 C7.7849345,4.30021834 7.78165939,4.32641921 7.80786026,4.34279476 Z" id="路径" fill="#3A2C6D"></path>
                                    <path d="M7.36572052,4.08733624 L7.69323144,4.26746725 C7.72510531,4.28379318 7.76288596,4.28379318 7.79475983,4.26746725 L8.09279476,4.09388646 C8.11899563,4.07751092 8.12227074,4.05131004 8.09279476,4.03820961 L7.76528384,3.8580786 C7.73340998,3.84175267 7.69562933,3.84175267 7.66375546,3.8580786 L7.36572052,4.03165939 C7.34279476,4.04803493 7.33951965,4.07423581 7.36572052,4.08733624 Z" id="路径" fill="#3A2C6D"></path>
                                    <path d="M6.9268559,3.83187773 L7.23799127,4.01200873 C7.26871348,4.02831184 7.30552232,4.02831184 7.33624454,4.01200873 L7.63427948,3.84170306 C7.66375546,3.8220524 7.66703057,3.79912664 7.63427948,3.78275109 L7.30676856,3.60262009 C7.27567768,3.58787239 7.23960617,3.58787239 7.20851528,3.60262009 L6.91048035,3.77620087 C6.90393013,3.79257642 6.90065502,3.81877729 6.9268559,3.83187773 Z" id="路径" fill="#3A2C6D"></path>
                                    <path d="M6.48471616,3.57969432 L6.81222707,3.75982533 C6.84410094,3.77615126 6.88188159,3.77615126 6.91375546,3.75982533 L7.20851528,3.58951965 C7.23799127,3.5731441 7.24126638,3.54694323 7.20851528,3.53056769 L6.88100437,3.35043668 C6.84981342,3.33614033 6.81394204,3.33614033 6.78275109,3.35043668 L6.48471616,3.52074236 C6.46179039,3.5371179 6.45851528,3.56331878 6.48471616,3.57969432 Z" id="路径" fill="#3A2C6D"></path>
                                    <path d="M6.04257642,3.32423581 L6.37008734,3.50436681 C6.40117822,3.51911451 6.43724973,3.51911451 6.46834061,3.50436681 L6.76637555,3.33078603 C6.79585153,3.31441048 6.79912664,3.28820961 6.76637555,3.27510917 L6.43886463,3.09497817 C6.40699076,3.07865223 6.36921011,3.07865223 6.33733624,3.09497817 L6.04257642,3.26528384 C6.02292576,3.27510917 6.01965066,3.30786026 6.04257642,3.32423581 Z" id="路径" fill="#3A2C6D"></path>
                                    <path d="M5.60371179,3.06877729 L5.93122271,3.2489083 C5.96194493,3.26521141 5.99875376,3.26521141 6.02947598,3.2489083 L6.32751092,3.07860262 C6.3569869,3.05895197 6.36026201,3.0360262 6.32751092,3.01965066 L6,2.83951965 C5.96890912,2.82477195 5.93283761,2.82477195 5.90174672,2.83951965 L5.60371179,3.01310044 C5.56768559,3.02947598 5.56768559,3.05567686 5.60371179,3.06877729 Z" id="路径" fill="#3A2C6D"></path>
                                    <path d="M5.16157205,2.81659389 L5.47270742,2.99672489 C5.50501164,3.01115677 5.54193159,3.01115677 5.57423581,2.99672489 L5.87227074,2.82641921 C5.90174672,2.81004367 5.90502183,2.78384279 5.87227074,2.76746725 L5.54475983,2.58733624 C5.51288596,2.57101031 5.47510531,2.57101031 5.44323144,2.58733624 L5.14519651,2.75764192 C5.1419214,2.77401747 5.13864629,2.80021834 5.16157205,2.81659389 Z" id="路径" fill="#3A2C6D"></path>
                                    <path d="M4.72270742,2.56113537 L5.05021834,2.74126638 C5.08130922,2.75601408 5.11738073,2.75601408 5.14847162,2.74126638 L5.44650655,2.56768559 C5.47598253,2.55131004 5.47925764,2.52510917 5.44650655,2.51200873 L5.13537118,2.33187773 C5.10464896,2.31557462 5.06784012,2.31557462 5.0371179,2.33187773 L4.73908297,2.50218341 C4.69978166,2.52183406 4.69650655,2.54475983 4.72270742,2.56113537 Z" id="路径" fill="#3A2C6D"></path>
                                    <path d="M4.28056769,2.29257642 L4.6080786,2.47270742 C4.63995247,2.48903336 4.67773312,2.48903336 4.70960699,2.47270742 L5.00436681,2.29912664 C5.03384279,2.28275109 5.0371179,2.25655022 5.00436681,2.24344978 L4.6768559,2.06331878 C4.64576501,2.04857108 4.6096935,2.04857108 4.57860262,2.06331878 L4.28056769,2.23689956 C4.25764192,2.26637555 4.25764192,2.29257642 4.28056769,2.29257642 Z" id="路径" fill="#3A2C6D"></path>
                                    <path d="M3.29475983,1.73580786 L4.15283843,2.23034934 C4.18356065,2.24665245 4.22036949,2.24665245 4.2510917,2.23034934 L4.54912664,2.06004367 C4.57860262,2.06004367 4.58187773,2.01746725 4.54912664,2.0010917 L3.69104803,1.50655022 C3.65995715,1.49180252 3.62388564,1.49180252 3.59279476,1.50655022 L3.29475983,1.680131 C3.27510917,1.69650655 3.27510917,1.72270742 3.29475983,1.73580786 Z" id="路径" fill="#3A2C6D"></path>
                                    <path d="M9.13100437,5.1058952 L9.55349345,5.35152838 C9.58570485,5.36638919 9.62281043,5.36638919 9.65502183,5.35152838 L9.94978166,5.1779476 C9.97925764,5.16157205 9.98253275,5.13537118 9.94978166,5.12227074 L9.52401747,4.87663755 C9.49329525,4.86033445 9.45648641,4.86033445 9.42576419,4.87663755 L9.12772926,5.04694323 C9.1080786,5.06659389 9.10480349,5.08951965 9.13100437,5.1058952 Z" id="路径" fill="#3A2C6D"></path>
                                </g>
                                <g id="_Группа_6" transform="translate(5.240175, 0.000000)">
                                    <g id="_Группа_7">
                                        <g id="_Группа_8">
                                            <path d="M7.12008734,10.1233624 L7.12008734,10.1233624 L0.0458515284,6.03930131 L0.0458515284,0.471615721 L0.101528384,0.347161572 L0.160480349,0.31768559 L0.160480349,0.31768559 C0.311989155,0.232491553 0.49696281,0.232491553 0.648471616,0.31768559 L7.12008734,4.05786026 C7.27216304,4.14408943 7.36602285,4.3055283 7.36572125,4.48034934 L7.36572125,9.69759825 C7.319869,9.97270742 7.27074236,10.0382096 7.12008734,10.1233624 Z" id="_Контур_8" fill="#E5E5E5"></path>
                                            <path d="M6.47161572,4.73253275 L0.0458515284,0.655021834 L0.0458515284,0.468340611 L0.101528384,0.343886463 L0.160480349,0.31441048 C0.311989155,0.229216444 0.49696281,0.229216444 0.648471616,0.31441048 L7.12008734,4.05458515 C7.1992722,4.09865339 7.26408401,4.16460225 7.30676856,4.24454148 L6.47161572,4.73253275 Z" id="_Контур_9" fill="#E5E5E5"></path>
                                            <path d="M0.209606987,0.350436681 L7.00218341,4.28056769 C7.07528168,4.32198339 7.12035478,4.3996093 7.12008852,4.48362445 L7.12008852,10.1299127 L0.0458256572,6.04585153 L0.0458256572,0.445414847 C0.0449917776,0.406044025 0.0656142723,0.36932167 0.0996793807,0.349563907 C0.133744489,0.329806144 0.175859888,0.330140521 0.209606987,0.350436681 L0.209606987,0.350436681 Z" id="_Контур_10" fill="#DCEEFF"></path>
                                            <path d="M0.209606987,0.350436681 L7.00218341,4.28056769 C7.07528168,4.32198339 7.12035478,4.3996093 7.12008852,4.48362445 L7.12008852,10.1299127 L0.0458256572,6.04585153 L0.0458256572,0.445414847 C0.0449917776,0.406044025 0.0656142723,0.36932167 0.0996793807,0.349563907 C0.133744489,0.329806144 0.175859888,0.330140521 0.209606987,0.350436681 L0.209606987,0.350436681 Z" id="_Контур_11" fill="#F4F4F4"></path>
                                            <polygon id="_Контур_12" fill="#DBDBDB" points="7.12008734 10.1233624 7.12008734 9.92358079 0.0458515284 5.83624454 0.0458515284 6.03930131"></polygon>
                                        </g>
                                        <polygon id="_Контур_13" fill="#1E3779" points="0.229257642 5.74454148 0.229257642 0.641921397 0.31768559 0.691048035 0.31768559 5.69868996"></polygon>
                                        <polygon id="_Контур_14" fill="#3A2C6D" points="0.31768559 0.691048035 0.31768559 5.69868996 6.8941048 9.48799127 6.8941048 4.49017467"></polygon>
                                        <polygon id="_Контур_15" fill="#031F60" points="0.229257642 5.74454148 6.8941048 9.58951965 6.8941048 9.48799127 0.31768559 5.69868996"></polygon>
                                    </g>
                                </g>
                            </g>
                        </g>
                        <path d="M4.07423581,7.65393013 C3.90720524,8.0731441 4.33624454,8.58406114 5.47598253,8.94432314 C6.61572052,9.30458515 6.72052402,8.84279476 6.72052402,8.84279476 C7.47994977,9.18175696 8.22015134,9.56224462 8.93777293,9.98253275 C9.62227074,10.4639738 9.92030568,11.8460699 10.0152838,14.1844978 C10.1233624,16.889738 10.1331878,20.9050218 10.0414847,21.5960699 C10.0414847,21.5960699 8.76419214,22.8733624 7.12663755,22.739083 C5.48908297,22.6048035 2.73471616,21.1539301 2.06659389,20.0371179 C2.06659389,17.6626638 2.36135371,17.2762009 1.97816594,15.9104803 C1.09716157,12.7827511 0.635371179,11.5021834 1.06113537,9.42248908 C1.41484716,7.70960699 1.90938865,7.49672489 2.58406114,7.51310044 C3.08295066,7.53330773 3.58039326,7.58031878 4.07423581,7.65393013 L4.07423581,7.65393013 Z" id="_Контур_16" fill="#F4F4F4"></path>
                        <path d="M12.7106987,17.0862445 C11.3646288,17.4137555 11.0502183,16.5786026 10.8733624,15.8744541 C10.4475983,14.1779476 10.2183406,12.6419214 9.89082969,11.6790393 C9.51419214,10.5425764 9.12117904,10.3689956 8.58078603,10.139738 C7.92576419,9.88100437 7.37227074,10.4279476 7.59825328,11.8755459 C7.86240451,13.5549033 8.27448862,15.2076236 8.82969432,16.8144105 C8.99672489,17.3449782 9.37336245,18.2849345 9.93340611,18.7368996 C10.6277293,19.2969432 11.669214,19.2740175 13.2510917,18.8810044 C13.9061135,18.7139738 14.6626638,18.3111354 15.9366812,17.7150655 C16.2641921,17.5578603 16.5458515,17.4497817 17.2008734,17.1451965 C17.8613606,16.852329 18.4403532,16.402626 18.8875546,15.8351528 C19.231441,15.3373362 19.2772926,15.1048035 19.2150655,14.9901747 C19.1528384,14.8755459 18.9727074,14.878821 18.7893013,15.0884279 C18.5200469,15.4447925 18.1868727,15.747981 17.8067686,15.9825328 C17.8067686,15.9825328 18.2325328,15.5469432 18.4617904,15.2620087 C18.6696364,15.0102204 18.8405664,14.7301159 18.9694323,14.430131 C19.0938865,14.1386463 18.8417031,13.7456332 18.6419214,13.9519651 C18.4421397,14.1582969 18.360262,14.371179 18.0131004,14.7871179 C17.8310307,15.0097274 17.6220058,15.2088512 17.3908297,15.3799127 C17.6065612,15.088073 17.798239,14.7791978 17.9639738,14.4563319 C18.1136954,14.2055059 18.1865715,13.9162785 18.1735808,13.6244541 C18.1735808,13.470524 17.9508734,13.2969432 17.7478166,13.5786026 C17.5534352,13.9744476 17.311472,14.3450913 17.0272926,14.6823144 C16.7194323,15.0098253 16.4606987,15.1834061 16.4508734,15.0949782 C16.441048,15.0065502 16.6375546,14.8329694 16.7456332,14.4628821 C16.8537118,14.0927948 16.7456332,13.6965066 16.5425764,13.6539301 C16.3395197,13.6113537 16.3755459,13.6244541 16.2150655,13.981441 C15.9882582,14.3379924 15.7847757,14.7088556 15.6058952,15.0917031 C15.5011543,15.4484998 15.3111959,15.7744639 15.0524017,16.0414847 C14.7183406,16.3755459 13.9879913,16.7652838 12.7106987,17.0862445 Z" id="_Контур_17" fill="#FFCEA9"></path>
                        <path d="M8.07969432,9.90720524 C8.97707424,9.77620087 9.60917031,10.1790393 10.0054585,11.5447598 C10.4017467,12.9104803 10.680131,14.0207424 10.680131,14.0207424 C10.3214793,14.5267375 9.78425543,14.8778642 9.1768559,15.0032751 C8.10262009,15.2620087 7.71615721,14.7510917 7.71615721,14.7510917 C7.71615721,14.7510917 7.41812227,13.3231441 7.23471616,12.3537118 C7.05131004,11.3842795 6.96943231,10.0709607 8.07969432,9.90720524 Z" id="_Контур_18" fill="#EDEDED"></path>
                        <path d="M8.51528384,2.94759825 C8.51528384,2.94759825 9.93340611,0.792576419 6.87772926,0.35371179 C4.66048035,0.0262008734 3.23908297,1.46069869 3.0720524,3.00327511 C2.91484716,4.48034934 3.82532751,6.01310044 4.48034934,6.62227074 C5.12584432,6.78327167 5.80804683,6.70047444 6.39628821,6.38973799 C6.43302319,5.98800983 6.44723757,5.58454003 6.43886463,5.18122271 C6.43886463,5.18122271 5.34825328,2.90829694 8.51528384,2.94759825 Z" id="路径" fill="#3A2C6D"></path>
                    </g>
                    <polygon id="路径" fill="#C4C7D6" points="38.5775109 155.325328 38.5775109 148.853712 33.4388646 151.853712 35.4170306 155.947598"></polygon>
                    <polygon id="路径" fill="#D6D8E5" points="35.2106987 149.227074 37.1823144 148.080786 38.5775109 148.889738 36.5338428 150.049127"></polygon>
                    <path d="M10.3984716,113.197598 L1.63755459,108.058952 C0.655021834,107.475983 0.766375546,106.457424 1.91593886,105.786026 L6.37008734,103.165939 C7.51965066,102.510917 9.25545852,102.422489 10.2510917,103.005459 L19.0251092,108.144105 C20.0076419,108.723799 19.8930131,109.742358 18.7467249,110.417031 L14.2925764,113.037118 C13.1299127,113.708515 11.3908297,113.780568 10.3984716,113.197598 Z" id="路径" fill="#D6D8E5" opacity="0.4"></path>
                    <path d="M21.2882096,108.131004 L21.2882096,95.7085153 L2.54803493,93.569869 L2.54803493,106.070961 L2.54803493,106.070961 C2.55534918,106.507286 2.80908659,106.901848 3.20305677,107.08952 L11.9868996,112.228166 C12.9694323,112.811135 14.7216157,112.739083 15.8679039,112.06441 L20.3220524,109.444323 C20.9770742,109.06441 21.3045852,108.576419 21.2718341,108.134279 L21.2882096,108.131004 Z" id="路径" fill="#D6D8E5"></path>
                    <path d="M21.268559,97.0644105 L21.268559,95.7085153 L19.8275109,95.7085153 L11.8296943,91.018559 C10.8471616,90.4355895 9.09497817,90.510917 7.94868996,91.1823144 L3.49454148,93.8024017 C3.41414864,93.8480255 3.3365041,93.8983304 3.26200873,93.9530568 L2.54803493,93.569869 C2.54803493,93.569869 2.54803493,95.0010917 2.54803493,95.0502183 L2.54803493,95.0502183 C2.55809161,95.4848918 2.81117341,95.8771686 3.20305677,96.0655022 L11.9868996,101.200873 C12.9694323,101.783843 14.7216157,101.708515 15.8679039,101.037118 L20.3220524,98.4170306 C20.9770742,98.0272926 21.3045852,97.5229258 21.268559,97.05131 L21.268559,97.0644105 Z" id="路径" fill="#EDF0F9"></path>
                    <path d="M11.9868996,99.7270742 L3.21615721,94.5884279 C2.23362445,94.0054585 2.34497817,92.9868996 3.49454148,92.3155022 L7.94868996,89.6954148 C9.09497817,89.040393 10.8340611,88.94869 11.8296943,89.5316594 L20.6037118,94.6703057 C21.5862445,95.2532751 21.4716157,96.2718341 20.3220524,96.9432314 L15.8679039,99.5633188 C14.7379913,100.234716 12.9825328,100.310044 11.9868996,99.7270742 Z" id="路径" fill="#E2E5F2"></path>
                    <path d="M10.0120087,92.7117904 L10.0120087,92.2172489 L9.7139738,92.2172489 L9.61899563,92.1582969 C9.02433811,91.8506298 8.31736494,91.8506298 7.72270742,92.1582969 C7.66670307,92.1900476 7.61403599,92.2273534 7.56550218,92.2696507 L7.33296943,92.2172489 L7.33296943,92.7117904 C7.34890939,92.9555307 7.49914565,93.1701539 7.72270742,93.268559 C8.3181546,93.5729641 9.02354846,93.5729641 9.61899563,93.268559 C9.84009017,93.1665457 9.98992399,92.9542811 10.0120087,92.7117904 L10.0120087,92.7117904 Z" id="路径" fill="#1867B7"></path>
                    <ellipse id="椭圆形" fill="#2E92F7" cx="8.67248908" cy="92.2172489" rx="1.33951965" ry="1"></ellipse>
                    <path d="M13.2478166,94.5753275 L13.2478166,94.080786 L12.9497817,94.080786 L12.8580786,94.0218341 C12.2634211,93.714167 11.5564479,93.714167 10.9617904,94.0218341 C10.9042625,94.052771 10.8504256,94.0901272 10.80131,94.1331878 L10.5687773,94.080786 L10.5687773,94.5753275 C10.590862,94.8178183 10.7406959,95.0300828 10.9617904,95.1320961 C11.5572376,95.4365012 12.2626314,95.4365012 12.8580786,95.1320961 C13.0816404,95.033691 13.2318766,94.8190678 13.2478166,94.5753275 L13.2478166,94.5753275 Z" id="路径" fill="#1867B7"></path>
                    <ellipse id="椭圆形" fill="#2E92F7" cx="11.9082969" cy="94.080786" rx="1.33951965" ry="1"></ellipse>
                    <path d="M16.4901747,96.5665939 L16.4901747,96.0720524 L16.1888646,96.0720524 L16.0971616,96.0131004 C15.5025041,95.7054333 14.7955309,95.7054333 14.2008734,96.0131004 C14.1440602,96.0451897 14.0903378,96.0824664 14.040393,96.1244541 L13.8078603,96.0720524 L13.8078603,96.5665939 C13.8286139,96.8095726 13.9788733,97.0224401 14.2008734,97.1233624 C14.7955309,97.4310295 15.5025041,97.4310295 16.0971616,97.1233624 C16.3191616,97.0224401 16.4694211,96.8095726 16.4901747,96.5665939 L16.4901747,96.5665939 Z" id="路径" fill="#1867B7"></path>
                    <ellipse id="椭圆形" fill="#2E92F7" cx="15.1473799" cy="96.0720524" rx="1.33951965" ry="1"></ellipse>
                </g>
            </g>
        </g>
    </g>
</svg>