<?xml version="1.0" standalone="no"?><!DOCTYPE svg PUBLIC "-//W3C//DTD SVG 1.1//EN" "http://www.w3.org/Graphics/SVG/1.1/DTD/svg11.dtd"><svg t="1610340947283" class="icon" viewBox="0 0 1024 1024" version="1.1" xmlns="http://www.w3.org/2000/svg" p-id="4015" xmlns:xlink="http://www.w3.org/1999/xlink" width="200" height="200"><defs><style type="text/css"></style></defs><path d="M847.238095 722.310095A134.095238 134.095238 0 0 0 715.971048 828.952381L382.537143 828.952381c-8.777143-5.851429-14.09219-45.689905-17.212953-73.094095h96.74362a83.382857 83.382857 0 0 0 66.706285 33.54819 83.821714 83.821714 0 1 0-82.163809-100.595809H356.303238c-12.190476-66.121143-40.17981-134.095238-128-134.095238h-152.137143a33.499429 33.499429 0 1 0 0 67.047619h152.185905c33.840762 0 49.39581 20.72381 59.392 67.047619H76.214857a33.499429 33.499429 0 1 0 0 67.047619h221.622857c7.021714 62.902857 16.286476 140.190476 86.113524 140.190476h333.336381c0.828952 0 1.511619-0.390095 2.340571-0.487619a133.705143 133.705143 0 0 0 127.609905 94.98819 134.095238 134.095238 0 1 0 0-268.190476z m0 201.094095a67.047619 67.047619 0 1 1 0-134.095238 67.047619 67.047619 0 0 1 0 134.095238zM76.166095 487.619048h402.822095c1.462857 0 2.633143-0.633905 3.998477-0.828953a133.802667 133.802667 0 0 0 263.704381-32.670476 133.802667 133.802667 0 1 0-263.704381-32.719238c-1.365333-0.195048-2.584381-0.828952-3.998477-0.828952h-402.773333a33.499429 33.499429 0 1 0 0 67.047619z m536.380953-100.59581a67.047619 67.047619 0 1 1 0 134.144 67.047619 67.047619 0 0 1 0-134.095238z m-536.380953-27.452952h152.185905c113.371429 0 127.414857-94.549333 135.753143-151.015619 7.021714-47.689143 11.312762-56.173714 19.846095-56.173715h312.807619a83.382857 83.382857 0 0 0 66.657524 33.548191 83.821714 83.821714 0 1 0-82.115048-100.59581H383.951238c-69.38819 0-79.481905 68.266667-86.162286 113.371429C287.939048 265.411048 278.869333 292.571429 228.352 292.571429h-152.137143a33.499429 33.499429 0 1 0 0 67.047619z" p-id="4016"></path></svg>