<?xml version="1.0" encoding="UTF-8"?>
<svg width="150px" height="180px" viewBox="0 0 150 180" version="1.1" xmlns="http://www.w3.org/2000/svg" xmlns:xlink="http://www.w3.org/1999/xlink">
    <!-- Generator: Sketch 64 (93537) - https://sketch.com -->
    <title>编组 22</title>
    <desc>Created with Sketch.</desc>
    <g id="工作空间首页" stroke="none" stroke-width="1" fill="none" fill-rule="evenodd">
        <g id="工作空间首页-应用开发" transform="translate(-683.000000, -510.000000)">
            <g id="编组-22" transform="translate(683.000000, 510.000000)">
                <rect id="矩形备份-3" x="0" y="0" width="150" height="180"></rect>
                <g id="编组-18">
                    <g id="编组-26">
                        <g id="monitor" transform="translate(44.701987, 0.000000)" fill-rule="nonzero">
                            <path d="M43.7647938,129.886704 L24.100437,118.51549 C22.684917,117.6999 22.8613669,116.268696 24.4925478,115.323708 L37.2283067,107.96771 L62.025394,122.283675 L49.285714,129.639674 C47.6584541,130.600345 45.1803138,130.702294 43.7647938,129.886704 Z" id="路径" fill="#D6D8E5" opacity="0.4"></path>
                            <path d="M45.5371347,128.843689 L25.876699,117.492081 C24.4572579,116.67257 24.6376288,115.245286 26.2688098,114.300299 L39.0084898,106.944301 L63.805577,121.260266 L51.0698181,128.612344 C49.4347161,129.561252 46.9565758,129.663201 45.5371347,128.843689 Z" id="路径" fill="#B1B4C4"></path>
                            <polygon id="路径" fill="#B1B4C4" points="63.8094981 121.260266 63.8094981 120.511334 62.6645346 121.170081"></polygon>
                            <polygon id="路径" fill="#B1B4C4" points="24.9199486 116.139299 24.9199486 115.378604 26.096281 115.864821"></polygon>
                            <path d="M45.5371347,128.094757 L25.876699,116.74315 C24.4572579,115.923638 24.6376288,114.492434 26.2688098,113.547447 L39.0084898,106.195369 L63.805577,120.511334 L51.065897,127.863412 C49.4347161,128.808399 46.9565758,128.914269 45.5371347,128.094757 Z" id="路径" fill="#D6D8E5"></path>
                            <polygon id="路径" fill="#9EA1AF" points="39.0790697 106.226738 36.0088421 96.0475414 61.0764858 110.422323 63.8094981 120.511334"></polygon>
                            <polygon id="路径" fill="#9EA1AF" points="63.080172 120.930893 63.8094981 120.511334 62.7272723 119.648691"></polygon>
                            <polygon id="路径" fill="#B1B4C4" points="38.2870059 106.611006 35.2206994 96.4278888 60.2883431 110.806592 63.080172 120.930893"></polygon>
                            <path d="M101.918747,138.089662 L4.89092876,82.0687912 C3.53030427,81.2845696 2.42847291,79.1750135 2.42847291,77.3634616 L2.42847291,2.30561153 C2.42847291,0.490138505 3.53030427,-0.345057507 4.89092876,0.443085208 L101.918747,56.4639557 C103.283293,57.2481773 104.385124,59.3577335 104.385124,61.1692854 L104.385124,136.227135 C104.385124,138.042608 103.283293,138.873883 101.918747,138.089662 Z" id="路径" fill="#B1B4C4"></path>
                            <polygon id="路径" fill="#B1B4C4" points="102.420649 138.86212 103.495033 138.242585 103.032342 135.054724"></polygon>
                            <path d="M2.25202305,0.905775957 L3.31072222,0.294083103 L4.83211214,1.17633241 C4.83211214,1.17633241 3.21269452,1.42336222 3.17348344,1.41552 C3.13427236,1.40767779 2.25202305,0.905775957 2.25202305,0.905775957 Z" id="路径" fill="#B1B4C4"></path>
                            <path d="M101.032577,138.603327 L4.00083723,82.5824564 C2.64021274,81.7982348 1.53838139,79.6886786 1.53838139,77.8771267 L1.53838139,2.81927668 C1.53838139,1.00380366 2.64021274,0.168607646 4.00083723,0.956750361 L101.032577,56.9776209 C102.393201,57.7618425 103.495033,59.8713986 103.495033,61.6829505 L103.495033,136.740801 C103.495033,138.556274 102.393201,139.387548 101.032577,138.603327 Z" id="路径" fill="#E4E7F2"></path>
                            <path d="M103.326425,61.7809782 L103.326425,136.84667 C103.326425,138.666065 102.220672,139.501261 100.860048,138.709197 L3.82830848,82.6804841 C2.46768399,81.8962625 1.36585263,79.7867063 1.36585263,77.9751544 L1.36585263,2.91730438 C1.36585263,1.10183136 2.46768399,0.270556455 3.82830848,1.05477806 L100.860048,57.0756486 C102.220672,57.8598702 103.326425,59.9694263 103.326425,61.7809782 Z" id="路径" fill="#D6D8E5"></path>
                            <path d="M101.977564,134.137185 L2.59708056,76.7517687 L2.65197607,3.2192297 C2.65197607,2.46245585 3.17740455,2.16053053 3.82830848,2.5369569 L100.860048,58.5539063 C101.555296,59.0103352 101.992015,59.7702252 102.03638,60.6007247 L101.977564,134.137185 Z" id="路径" fill="#2A2741"></path>
                            <g id="编组-23" opacity="0.260649182" transform="translate(0.704492, 10.191391)">
                                <path d="M95.1326162,60.0199699 L7.02923967,9.15143532 C6.40868936,8.71012973 6.03581175,7.99933178 6.02543602,7.2379346 L6.02543602,0.877897365 C6.02543602,0.140729054 6.47244233,-0.200407345 7.02923967,0.121123514 L95.1326162,50.9778948 C95.7513454,51.4225609 96.1235265,52.1334848 96.1364198,52.8953166 L96.1364198,59.2553538 C96.1364198,59.9964432 95.6854924,60.3415007 95.1326162,60.0199699 Z" id="路径" fill="#E9EAF2"></path>
                                <ellipse id="椭圆形" fill="#DADCE5" transform="translate(10.062493, 6.363298) rotate(-30.000000) translate(-10.062493, -6.363298) " cx="10.0624927" cy="6.36329811" rx="1.57628543" ry="2.72909119"></ellipse>
                                <path d="M55.8666403,33.6465972 L48.2479274,29.2431929 C48.09217,29.1334089 47.9987719,28.9553686 47.9969764,28.7648177 L47.9969764,27.757093 C47.9969764,27.5688798 48.1067675,27.4865365 48.2479274,27.5649587 L55.8666403,31.968363 C56.0223976,32.078147 56.1157957,32.2561873 56.1175912,32.4467382 L56.1175912,33.4544629 C56.1175912,33.638755 56.0078002,33.7250194 55.8666403,33.6465972 Z" id="路径" fill="#DADCE5"></path>
                                <path d="M68.2024462,40.7830139 L60.5837332,36.3835306 C60.4284726,36.2733117 60.3352179,36.0955449 60.3327823,35.9051555 L60.3327823,34.8935096 C60.3327823,34.7092175 60.4425734,34.6229531 60.5837332,34.7052964 L68.2024462,39.1047796 C68.3582035,39.2145636 68.4516016,39.3926039 68.4533971,39.5831548 L68.4533971,40.5948007 C68.4533971,40.7830139 68.3357638,40.8457516 68.2024462,40.7830139 Z" id="路径" fill="#DADCE5"></path>
                                <path d="M80.3382755,47.7743495 L72.7156415,43.3748663 C72.5616872,43.2617485 72.468974,43.0835653 72.4646906,42.89257 L72.4646906,41.8848452 C72.4646906,41.7005531 72.5784027,41.6142888 72.7156415,41.6927109 L80.3382755,46.0961152 C80.4940328,46.2058993 80.587431,46.3839395 80.5892264,46.5744904 L80.5892264,47.5822152 C80.5892264,47.7704284 80.4911987,47.8410083 80.3382755,47.7743495 Z" id="路径" fill="#DADCE5"></path>
                                <path d="M92.6740814,54.8990028 L85.0514474,50.4995196 C84.8976343,50.3880417 84.8047906,50.2110584 84.8004965,50.0211444 L84.8004965,49.0173407 C84.8004965,48.8330487 84.9142086,48.7467843 85.0514474,48.8291275 L92.6740814,53.2286108 C92.8288525,53.3392568 92.9219671,53.5167565 92.9250323,53.7069859 L92.9250323,54.7186318 C92.9250323,54.8990028 92.8113202,54.9774249 92.6740814,54.8990028 Z" id="路径" fill="#DADCE5"></path>
                                <path d="M88.4628114,75.8102719 L67.7515187,63.8508924 C67.1448368,63.4086684 66.7805294,62.7076307 66.7673206,61.9569973 L66.7673206,48.5703344 C66.7673206,47.8331661 67.2143269,47.4959508 67.7672032,47.8135606 L88.4784958,59.769019 C89.0972251,60.2136851 89.4694061,60.924609 89.4822995,61.6864408 L89.4822995,75.049577 C89.466615,75.7906664 89.0156876,76.1278817 88.4628114,75.8102719 Z" id="路径" fill="#E9EAF2"></path>
                                <path d="M61.1836628,80.1509385 L9.23290239,50.1544621 C8.92384434,49.9327486 8.73775292,49.5780118 8.73100056,49.1977117 L8.73100056,46.8960213 C8.73100056,46.5274371 8.95842483,46.3588295 9.23290239,46.5039105 L61.1836628,76.4964659 C61.4936927,76.7173327 61.6800613,77.0725977 61.6855646,77.4532162 L61.6855646,79.7549066 C61.6698802,80.1391752 61.4620614,80.3077829 61.1836628,80.1509385 Z" id="路径" fill="#E9EAF2"></path>
                                <path d="M56.0705379,82.6408421 L9.3858256,55.6832244 C9.07579564,55.4623576 8.88942711,55.1070925 8.88392378,54.726474 L8.88392378,53.5815105 C8.88392378,53.2129263 9.10742693,53.0403976 9.3858256,53.1893997 L56.0705379,80.1430963 C56.3791152,80.3652276 56.5650704,80.7197047 56.5724397,81.0998467 L56.5724397,82.2448102 C56.5724397,82.6290788 56.3450155,82.8016076 56.0705379,82.6408421 Z" id="路径" fill="#E9EAF2"></path>
                                <path d="M56.0705379,86.9815087 L9.3858256,60.0317332 C9.07566945,59.8092013 8.88944249,59.4527512 8.88392378,59.0710617 L8.88392378,57.9260982 C8.88392378,57.557514 9.10742693,57.3889064 9.3858256,57.5339874 L56.0705379,84.4837629 C56.3792499,84.7075456 56.5650695,85.063216 56.5724397,85.4444344 L56.5724397,86.5893979 C56.5724397,86.9736665 56.3450155,87.1422742 56.0705379,86.9815087 Z" id="路径" fill="#E9EAF2"></path>
                                <path d="M44.134685,84.4367096 L9.3858256,64.3723998 C9.07579564,64.151533 8.88942711,63.796268 8.88392378,63.4156494 L8.88392378,62.2706859 C8.88392378,61.9021017 9.10742693,61.729573 9.3858256,61.8785751 L44.134685,81.9546482 C44.4472078,82.1733306 44.6342977,82.5299707 44.6365869,82.9113986 L44.6365869,84.0563622 C44.6365869,84.4249463 44.4170048,84.593554 44.134685,84.4367096 Z" id="路径" fill="#E9EAF2"></path>
                                <path d="M88.9647132,81.366482 L67.253538,68.8189363 C66.943508,68.5980695 66.7571395,68.2428045 66.7516362,67.862186 L66.7516362,66.7172224 C66.7516362,66.3486383 66.9751393,66.1761095 67.253538,66.3251116 L88.9647132,78.8726573 C89.2753577,79.0947649 89.4617236,79.4514808 89.466615,79.8333288 L89.466615,80.9782923 C89.466615,81.3586398 89.2431119,81.5272475 88.9647132,81.366482 Z" id="路径" fill="#E9EAF2"></path>
                                <path d="M88.9647132,85.7110697 L67.253538,73.163524 C66.9428935,72.9414164 66.7565277,72.5847006 66.7516362,72.2028526 L66.7516362,71.057889 C66.7516362,70.6893049 66.9751393,70.5206972 67.253538,70.6657782 L88.9647132,83.2133239 C89.2747432,83.4341908 89.4611117,83.7894558 89.466615,84.1700743 L89.466615,85.3150378 C89.466615,85.6993064 89.2431119,85.8757563 88.9647132,85.7110697 Z" id="路径" fill="#E9EAF2"></path>
                                <path d="M83.2791066,86.7697689 L67.253538,77.5159539 C66.943508,77.2950871 66.7571395,76.9398221 66.7516362,76.5592036 L66.7516362,75.41424 C66.7516362,75.0456559 66.9751393,74.8731271 67.253538,75.0221292 L83.2791066,84.3073131 C83.5897511,84.5294207 83.7761169,84.8861365 83.7810084,85.2679845 L83.7810084,86.409027 C83.7810084,86.7619267 83.5575052,86.9305343 83.2791066,86.7697689 Z" id="路径" fill="#E9EAF2"></path>
                                <path d="M88.4628114,109.276929 L67.7515187,97.3175495 C67.1393608,96.8712048 66.7743888,96.1616179 66.7673206,95.4040488 L66.7673206,82.0369915 C66.7673206,81.2998232 67.2143269,80.9586868 67.7672032,81.2802177 L88.4784958,93.2356761 C89.0972251,93.6803422 89.4694061,94.3912661 89.4822995,95.1530979 L89.4822995,108.516234 C89.466615,109.257324 89.0156876,109.594539 88.4628114,109.276929 Z" id="路径" fill="#E9EAF2"></path>
                                <path d="M88.9647132,114.833139 L67.253538,102.285593 C66.943508,102.064727 66.7571395,101.709462 66.7516362,101.328843 L66.7516362,100.18388 C66.7516362,99.8152954 66.9751393,99.6427666 67.253538,99.7917687 L88.9647132,112.339314 C89.2753577,112.561422 89.4617236,112.918138 89.466615,113.299986 L89.466615,114.444949 C89.466615,114.825297 89.2431119,114.993905 88.9647132,114.833139 Z" id="路径" fill="#E9EAF2"></path>
                                <polygon id="路径" fill="#DADCE5" points="73.7939462 61.4198055 72.3392151 57.6751473 69.6924672 61.439411 72.5980083 63.1176452 74.9859631 64.4978753 80.3108278 67.572024 76.4563786 57.6320151"></polygon>
                                <ellipse id="椭圆形" fill="#DADCE5" transform="translate(84.523638, 61.595374) rotate(-30.000000) translate(-84.523638, -61.595374) " cx="84.523638" cy="61.5953744" rx="1.41552" ry="2.45461363"></ellipse>
                                <polygon id="路径" fill="#DADCE5" points="73.9429483 95.3805222 72.4921383 91.635864 69.8453904 95.4001277 72.7509315 97.0783619 75.1388863 98.4546709 80.463751 101.52882 76.6053807 91.5927318"></polygon>
                                <ellipse id="椭圆形" fill="#DADCE5" transform="translate(85.313848, 96.005115) rotate(-29.886527) translate(-85.313848, -96.005115) " cx="85.3138479" cy="96.0051155" rx="1.42039515" ry="2.46306749"></ellipse>
                                <path d="M60.5837332,70.4305117 L10.2523905,41.5162611 C9.69576514,41.1197672 9.36093769,40.4821392 9.35053563,39.7988157 L9.35053563,16.3466686 C9.35053563,15.6879224 9.74264644,15.382076 10.2523905,15.6683169 L60.5837332,44.5825675 C61.1379019,44.9807484 61.4709259,45.6177112 61.481667,46.3000129 L61.481667,69.75216 C61.481667,70.4148273 61.0777929,70.7206737 60.5837332,70.4305117 Z" id="路径" fill="#E9EAF2"></path>
                                <polygon id="路径" fill="#DADCE5" points="24.2350617 40.9006471 21.7490792 34.4974777 17.2241206 40.9359371 22.1921645 43.802267 26.2740379 46.158853 35.3788508 51.4170589 28.7835471 34.4229766"></polygon>
                                <ellipse id="椭圆形" fill="#DADCE5" transform="translate(51.825833, 47.864356) rotate(-30.000000) translate(-51.825833, -47.864356) " cx="51.8258325" cy="47.8643561" rx="2.42324477" ry="4.1955856"></ellipse>
                                <path d="M12.0600213,32.9407978 L12.0600213,68.0739258 C12.0600213,69.3835759 11.2757997,69.9874265 10.2798382,69.4188658 L0.661360222,63.8783402 L0.661360222,24.0006715 L10.2798382,29.5490393 C11.2601152,30.1176 12.0600213,31.642911 12.0600213,32.9407978 Z" id="路径" fill="#000000" opacity="0.05"></path>
                            </g>
                        </g>
                        <g id="编组-6" transform="translate(90.000000, 84.000000)">
                            <polygon id="矩形" fill="#F5F7FC" fill-rule="nonzero" points="1.3079815e-14 0 28.9150017 16.7200033 29 39 2.57571742e-14 23.3343773"></polygon>
                            <polygon id="矩形" fill="#FFFFFF" fill-rule="nonzero" points="1 4 26 17.6307572 26 33 1 19.9009719"></polygon>
                            <line x1="4.68181818" y1="11.6666667" x2="18.3181818" y2="18.3333333" id="直线-3" stroke="#3F3D56" stroke-linecap="round" stroke-linejoin="round"></line>
                            <line x1="4" y1="14" x2="26" y2="25" id="直线-3备份" stroke="#3F3D56" stroke-linecap="round" stroke-linejoin="round"></line>
                            <line x1="4" y1="19" x2="26" y2="30" id="直线-3备份-2" stroke="#2E92F7" stroke-linecap="round" stroke-linejoin="round"></line>
                            <circle id="椭圆形" fill="#3F3D56" fill-rule="nonzero" cx="13.5" cy="11.5" r="1.5"></circle>
                            <path d="M0,0 L1.97396822,0 C2.15270073,-1.36510026e-15 2.32816686,0.0479030316 2.48210495,0.138723581 L29.3539231,15.9925858 C29.6565075,16.1711048 29.8432179,16.495314 29.8457602,16.8466257 L30,38.1602845 L30,38.1602845 L28.7034152,39 L28.5450774,16.7740482 L0,0 Z" id="路径-4" fill="#D6D8E5"></path>
                        </g>
                        <g id="编组-6备份-2" transform="translate(78.000000, 35.000000)">
                            <polygon id="矩形" fill="#F5F7FC" fill-rule="nonzero" points="0.736115279 0.669202438 25.8355927 15.138908 25.9093749 34.4203032 0.736115279 20.8630722"></polygon>
                            <polygon id="矩形" fill="#FFFFFF" fill-rule="nonzero" points="2.18422056 4.40610009 23.6498364 16.3439952 23.6498364 29.8044659 2.18422056 18.3322622"></polygon>
                            <path d="M12.1359711,19.5640087 L12.1072413,19.2319528 C12.0212937,18.5424653 12.2792982,17.7890339 12.9960041,17.0229859 C13.6410939,16.3461135 13.999446,15.8481759 13.999446,15.2735307 C13.999446,14.622325 13.540738,14.1881874 12.6376453,14.1754268 C12.1211434,14.1735558 11.6162085,14.3116118 11.189822,14.5712812 L10.8457848,13.7668029 C11.3188993,13.4602682 12.1359627,13.2559592 12.8956483,13.2559592 C14.5441833,13.2559592 15.2895439,14.1626588 15.2895439,15.1330158 C15.2895439,16.0014351 14.7448066,16.6271211 14.0567439,17.3548888 C13.4260606,18.0188551 13.1967058,18.5807397 13.2396788,19.2319454 L13.2540037,19.5640087 L12.1359711,19.5640087 Z M11.8205886,21.3517382 C11.8049948,21.1411187 11.8891021,20.9343031 12.0525122,20.7814496 C12.2159222,20.6285961 12.4437084,20.543667 12.6806267,20.5472599 C13.1823893,20.5472599 13.5264215,20.8791703 13.5264215,21.3517382 C13.5393272,21.630649 13.3796439,21.893437 13.1104365,22.0363172 C12.8412291,22.1791974 12.5057811,22.1791974 12.2365737,22.0363172 C11.9673663,21.893437 11.8076829,21.630649 11.8205886,21.3517382 L11.8205886,21.3517382 Z" id="形状" fill="#D0CDE1" fill-rule="nonzero"></path>
                            <path d="M0.736115279,0.669202438 L2.43310222,0.669202438 C2.61223394,0.669202438 2.78807712,0.71731957 2.94225186,0.808524422 L26.3460979,14.6534926 C26.6467968,14.8313765 26.8328564,15.1532972 26.8368819,15.5026484 L27.0464962,33.6936027 L27.0464962,33.6936027 L25.9093749,34.4203032 L25.6932771,15.3672485 L0.736115279,0.669202438 Z" id="路径-4" fill="#D6D8E5"></path>
                        </g>
                        <g id="编组-6备份" transform="translate(34.000000, 28.000000)">
                            <polygon id="矩形" fill="#F5F7FC" fill-rule="nonzero" points="1.39818712e-14 0 30.9091398 18.0061574 31 42 2.7533531e-14 25.1293294"></polygon>
                            <polygon id="矩形" fill="#FFFFFF" fill-rule="nonzero" points="1 4 28 18.5708095 28 35 1 20.9975906"></polygon>
                            <rect id="矩形" fill="#2E92F7" fill-rule="nonzero" x="5" y="16" width="10" height="10"></rect>
                            <path d="M9,19 L9,30 L20,30 L20,19 L9,19 Z M19.5228716,29.5228595 L9.47712602,29.5228595 L9.47712602,19.4771405 L19.5228716,19.4771405 L19.5228716,29.5228595 Z" id="形状" fill="#3F3D56" fill-rule="nonzero"></path>
                            <circle id="椭圆形" fill="#3F3D56" fill-rule="nonzero" cx="14.5" cy="12.5" r="1.5"></circle>
                            <path d="M0,0 L2.12083612,0 C2.30141827,-6.99306218e-16 2.47863048,0.0488990013 2.63365923,0.141505704 L31.3448538,17.2921894 C31.6447683,17.4713439 31.829447,17.7940245 31.8320039,18.1433646 L32,41.0956911 L32,41.0956911 L30.6169762,42 L30.444862,18.1124124 L0,0 Z" id="路径-4" fill="#D6D8E5"></path>
                        </g>
                        <g id="编组" transform="translate(0.000000, 60.596026)" fill-rule="nonzero">
                            <ellipse id="椭圆形" fill="#D6D8E5" opacity="0.4" cx="11.3829645" cy="45.9637613" rx="10.9271523" ry="6.45695364"></ellipse>
                            <ellipse id="椭圆形" fill="#D6D8E5" cx="15.3564744" cy="44.9703838" rx="10.9271523" ry="6.45695364"></ellipse>
                            <polygon id="路径" fill="#D6D8E5" points="0.455812184 24.6061454 4.09038388 46.46045 24.7259532 46.46045 28.2703817 24.7643189"></polygon>
                            <ellipse id="椭圆形" fill="#E4E6EF" cx="14.363097" cy="22.1227017" rx="13.9072848" ry="8.44370861"></ellipse>
                            <path d="M14.363097,28.5796553 C10.7369301,28.5796553 7.35608522,27.8064565 4.84153397,26.397599 C2.68346635,25.1931931 1.44918967,23.6319263 1.44918967,22.1227017 C1.44918967,20.613477 2.68346635,19.0522102 4.84153397,17.8478043 C7.35225207,16.4389468 10.7369301,15.665748 14.363097,15.665748 C17.9892639,15.665748 21.3739418,16.4389468 23.8846599,17.8478043 C26.0427276,19.0522102 27.2770042,20.613477 27.2770042,22.1227017 C27.2770042,23.6319263 26.0618933,25.2117797 23.8846599,26.397599 C21.3739418,27.8138911 18.0122628,28.5796553 14.363097,28.5796553 Z" id="路径" fill="#28221C"></path>
                            <path d="M20.3047916,16.0990885 C20.7047507,10.3066047 18.5167765,4.64965168 14.3901785,0.807002769 L14.3901785,0.807002769 L14.3901785,0.807002769 L14.3504589,0.765085764 L14.3504589,0.845109138 C10.2199507,4.68833047 8.03029271,10.3490025 8.43223489,16.1448162 L0.455812184,15.3331505 C3.82114761,28.7122966 14.3901785,27.5614843 14.3901785,27.5614843 L14.3901785,27.5348098 C15.1881819,27.5995906 25.0458704,28.1368904 28.2703817,15.3026654 L20.3047916,16.0990885 Z" id="路径" fill="#259CA5"></path>
                            <path d="M14.363097,26.5929003 C14.363097,26.5929003 13.6556896,16.5010536 0.681837813,9.70548311 C0.671226702,9.70548311 -2.39184734,26.4710895 14.363097,26.5929003 Z" id="路径" fill="#2AB7CA"></path>
                            <path d="M14.363097,26.5929003 C14.363097,26.5929003 15.0707371,16.5010536 28.048857,9.70548311 C28.048857,9.70548311 31.1235533,26.4710895 14.363097,26.5929003 Z" id="路径" fill="#2AB7CA"></path>
                        </g>
                    </g>
                    <g id="编组-27" transform="translate(46.000000, 132.000000)" fill-rule="nonzero">
                        <path d="M15.7114225,46.8367347 L2.04611642,38.9571429 C0.497136832,38.0602041 0.689993975,36.5081633 2.4808103,35.4673469 L9.417545,31.4602041 C11.2053001,30.4285714 13.9022389,30.3061224 15.4604021,31.2244898 L29.1257083,39.1163265 C30.6746879,40.0102041 30.4818307,41.5653061 28.6910144,42.6030612 L21.7542797,46.6102041 C19.9665246,47.6265306 17.2695858,47.755102 15.7114225,46.8367347 Z" id="路径" fill="#D6D8E5" opacity="0.4"></path>
                        <path d="M36.2491776,37.0010204 L36.2491776,17.9265306 L7.06958581,14.6418367 L7.06958581,33.8357143 L7.06958581,33.8357143 C7.05121847,34.4234694 7.37570826,34.9836735 8.11040214,35.4 L21.7757083,43.2918367 C23.3246879,44.1857143 26.0308103,44.072449 27.8185654,43.0408163 L34.7553001,39.0336735 C35.762443,38.4520408 36.2644838,37.7020408 36.2338715,37.0010204 L36.2491776,37.0010204 Z" id="路径" fill="#D6D8E5"></path>
                        <path d="M36.2308103,20.0081633 L36.2308103,17.9265306 L33.9869328,17.9265306 L21.5246879,10.7295918 C19.9757083,9.83265306 17.2695858,9.94591837 15.4818307,10.977551 L8.54509602,15 C8.42172406,15.0701296 8.30216759,15.1467684 8.18693275,15.2295918 L7.06958581,14.6571429 C7.06958581,14.6571429 7.06958581,16.8581633 7.06958581,16.9316327 L7.06958581,16.9316327 C7.05121847,17.5132653 7.37570826,18.0734694 8.11040214,18.4897959 L21.7757083,26.3785714 C23.3246879,27.272449 26.0308103,27.1591837 27.8185654,26.127551 L34.7553001,22.1234694 C35.7930552,21.5112245 36.2859123,20.7459184 36.2277491,20.0234694 L36.2308103,20.0081633 Z" id="路径" fill="#EDF0F9"></path>
                        <path d="M21.7757083,24.094898 L8.11040214,16.2061224 C6.56142255,15.3122449 6.75427969,13.7571429 8.54509602,12.7163265 L15.4818307,8.7122449 C17.2695858,7.67755102 19.9757083,7.56734694 21.5246879,8.46122449 L35.189994,16.35 C36.7389736,17.2438776 36.5461164,18.7989796 34.7553001,19.8397959 L27.8185654,23.8438776 C26.0308103,24.8785714 23.3246879,24.9887755 21.7757083,24.094898 Z" id="路径" fill="#E2E5F2"></path>
                        <g id="_Группа_" transform="translate(12.000000, 6.000000)">
                            <g id="_Группа_2">
                                <g id="_Группа_3" transform="translate(0.000000, 4.879310)">
                                    <path d="M10.757002,3.80961516 L10.757002,3.80961516 C10.7563883,3.96454733 10.6734867,4.10748123 10.5393097,4.1849467 L6.46696248,6.53452216 C6.33246477,6.61307871 6.16607561,6.61307871 6.03157789,6.53452216 L0.326538442,3.23911121 C0.191216587,3.16279875 0.1078905,3.01913309 0.108838015,2.86377967 L0.108838015,2.83375315 L10.757002,3.80961516 Z" id="_Контур_3" fill="#E5E5E5"></path>
                                    <path d="M10.5393097,4.1849467 L6.46696248,6.53452216 C6.40138935,6.5743816 6.32600511,6.59517725 6.24927019,6.59458792 L6.24927019,3.80961516 L10.753249,3.80961516 C10.7534149,3.96377872 10.6720432,4.10653597 10.5393097,4.1849467 L10.5393097,4.1849467 Z" id="_Контур_4" fill="#E5E5E5"></path>
                                    <g id="_Группа_4" fill="#F4F4F4">
                                        <path d="M6.40315612,6.32058318 C6.30952681,6.37648842 6.19276688,6.37648842 6.09913757,6.32058318 L0.165145879,2.89755951 C0.0900795703,2.85251973 0.0900795703,2.78120673 0.165145879,2.73992026 L4.53400504,0.213938979 L10.757002,3.80961516 L6.40315612,6.32058318 Z" id="_Контур_5"></path>
                                    </g>
                                    <g id="_Группа_5" transform="translate(2.251989, 3.002652)">
                                        <polygon id="_Контур_6" fill="#BFBFBF" points="0.349058335 0.806962817 0.379084858 0.821976079 2.28201578 1.9216975 3.32543747 1.31741372 3.35546399 1.30240045 1.42250655 0.187665771"></polygon>
                                        <polygon id="_Контур_7" fill="#E5E5E5" points="0.379084858 0.821976079 2.28201578 1.9216975 3.32543747 1.31741372 1.42250655 0.22144561"></polygon>
                                    </g>
                                    <path d="M9.14307638,3.98602099 L9.41706841,4.14366023 C9.44396999,4.15834633 9.47649308,4.15834633 9.50339467,4.14366023 L9.76612675,3.99352762 C9.79239995,3.99352762 9.79615327,3.95599446 9.76612675,3.94473452 L9.49213472,3.78334195 C9.46479813,3.77047292 9.43314505,3.77047292 9.40580846,3.78334195 L9.14307638,3.93722788 C9.12430981,3.95224115 9.12055649,3.97476104 9.14307638,3.98602099 Z" id="路径" fill="#3A2C6D"></path>
                                    <path d="M8.75648489,3.75331543 L9.03047692,3.91095468 C9.0573785,3.92564078 9.08990159,3.92564078 9.11680318,3.91095468 L9.37953526,3.76082206 C9.40580846,3.76082206 9.40580846,3.72328891 9.37953526,3.71202896 L9.10554323,3.55438971 C9.07864165,3.53970361 9.04611856,3.53970361 9.01921697,3.55438971 L8.75648489,3.70452233 C8.73771832,3.72704222 8.733965,3.75331543 8.75648489,3.75331543 Z" id="路径" fill="#3A2C6D"></path>
                                    <path d="M8.36614009,3.53937645 L8.64013212,3.6970157 C8.66874988,3.7100234 8.70159392,3.7100234 8.73021169,3.6970157 L8.98919045,3.54688308 C9.01546366,3.54688308 9.01921697,3.50934993 8.98919045,3.49433666 L8.71519843,3.33669742 C8.68829684,3.32201132 8.65577375,3.32201132 8.62887217,3.33669742 L8.36614009,3.48683003 C8.34737351,3.50184329 8.3436202,3.52436319 8.36614009,3.53937645 Z" id="路径" fill="#3A2C6D"></path>
                                    <path d="M7.9795486,3.31417752 L8.25354063,3.47181677 C8.28087721,3.4846858 8.3125303,3.4846858 8.33986688,3.47181677 L8.60259896,3.32168415 C8.62887217,3.32168415 8.63262549,3.284151 8.60259896,3.26913774 L8.32860694,3.11149849 C8.29998917,3.09849079 8.26714513,3.09849079 8.23852737,3.11149849 L7.9795486,3.26163111 C7.96078202,3.27664437 7.95702871,3.29916426 7.9795486,3.31417752 Z" id="路径" fill="#3A2C6D"></path>
                                    <path d="M7.5892038,3.0889786 L7.86694914,3.24661785 C7.89385072,3.26130395 7.92637381,3.26130395 7.95327539,3.24661785 L8.21225416,3.09648523 C8.23852737,3.09648523 8.24228068,3.05895207 8.21225416,3.04769213 L7.93826213,2.88629956 C7.91092555,2.87343053 7.87927246,2.87343053 7.85193588,2.88629956 L7.5892038,3.0401855 C7.57043722,3.05519876 7.5666839,3.07771865 7.5892038,3.0889786 Z" id="路径" fill="#3A2C6D"></path>
                                    <path d="M7.20261231,2.86377967 L7.47660433,3.02517224 C7.50394092,3.03804127 7.535594,3.03804127 7.56293059,3.02517224 L7.82566267,2.8712863 C7.85193588,2.8712863 7.85568919,2.83375315 7.82566267,2.8224932 L7.55167064,2.66485395 C7.52344018,2.65016661 7.48982153,2.65016661 7.46159107,2.66485395 L7.20261231,2.81498657 C7.18384573,2.82999983 7.18009241,2.85251973 7.20261231,2.86377967 Z" id="路径" fill="#3A2C6D"></path>
                                    <path d="M6.81602082,2.6273208 L7.09001284,2.78496005 C7.11734943,2.79782908 7.14900251,2.79782908 7.1763391,2.78496005 L7.43907118,2.63482743 C7.46534439,2.63482743 7.46534439,2.59729428 7.43907118,2.58228101 L7.16507915,2.42464177 C7.13774257,2.41177273 7.10608948,2.41177273 7.0787529,2.42464177 L6.81602082,2.57477438 C6.79350093,2.60480091 6.79350093,2.6273208 6.81602082,2.6273208 Z" id="路径" fill="#3A2C6D"></path>
                                    <path d="M6.42567601,2.41713514 L6.69966804,2.57477438 C6.72656962,2.58946048 6.75909271,2.58946048 6.78599429,2.57477438 L7.04872637,2.42464177 C7.07499958,2.42464177 7.0787529,2.38710861 7.04872637,2.37584867 L6.77473435,2.2144561 C6.74739776,2.20158707 6.71574468,2.20158707 6.68840809,2.2144561 L6.42567601,2.36834204 C6.40690944,2.3833553 6.40315612,2.40587519 6.42567601,2.41713514 Z" id="路径" fill="#3A2C6D"></path>
                                    <path d="M6.03908452,2.19193621 L6.31307655,2.34957546 C6.33997813,2.36426156 6.37250122,2.36426156 6.39940281,2.34957546 L6.66213489,2.19944284 C6.68840809,2.19944284 6.68840809,2.16190969 6.66213489,2.15064974 L6.38063623,1.98925718 C6.35373465,1.97457108 6.32121156,1.97457108 6.29430997,1.98925718 L6.03157789,2.13938979 C6.00530469,2.15815637 6.00530469,2.18067626 6.03908452,2.19193621 Z" id="路径" fill="#3A2C6D"></path>
                                    <path d="M5.64873972,1.9704906 L5.92273175,2.12812985 C5.95134951,2.14113755 5.98419355,2.14113755 6.01281132,2.12812985 L6.27179008,1.97799723 C6.29806329,1.97799723 6.3018166,1.94046408 6.27179008,1.92545081 L6.00530469,1.76405825 C5.9784031,1.74937215 5.94588001,1.74937215 5.91897843,1.76405825 L5.65624635,1.91419087 C5.62997314,1.93295745 5.62997314,1.95547734 5.64873972,1.9704906 Z" id="路径" fill="#3A2C6D"></path>
                                    <path d="M5.2546416,1.74529167 L5.52863363,1.90293092 C5.55597021,1.91579995 5.5876233,1.91579995 5.61495988,1.90293092 L5.87769196,1.75279831 C5.90396517,1.75279831 5.90771848,1.71526515 5.87769196,1.70025189 L5.62997314,1.53885933 C5.60135538,1.52585162 5.56851134,1.52585162 5.53989357,1.53885933 L5.28091481,1.68899194 C5.2546416,1.70775852 5.2546416,1.73027841 5.2546416,1.74529167 Z" id="路径" fill="#3A2C6D"></path>
                                    <path d="M4.87931006,1.52009275 L5.1570554,1.677732 C5.18395698,1.6924181 5.21648007,1.6924181 5.24338165,1.677732 L5.50611373,1.52759938 C5.52863363,1.52759938 5.53238694,1.49006623 5.50611373,1.47880628 L5.23212171,1.31741372 C5.20478512,1.30454468 5.17313204,1.30454468 5.14579545,1.31741372 L4.88306337,1.47129965 C4.85303685,1.50132617 4.85303685,1.50132617 4.87931006,1.52009275 Z" id="路径" fill="#3A2C6D"></path>
                                    <path d="M4.50397851,1.29489382 L4.77797054,1.45628639 C4.80530713,1.46915542 4.83696021,1.46915542 4.8642968,1.45628639 L5.12702888,1.30240045 C5.15330208,1.30240045 5.1570554,1.2648673 5.12702888,1.25360735 L4.85303685,1.09596811 C4.82480639,1.08128076 4.79118774,1.08128076 4.76295728,1.09596811 L4.50397851,1.24610072 C4.46644536,1.26111398 4.46269204,1.28363388 4.50397851,1.29489382 Z" id="路径" fill="#3A2C6D"></path>
                                    <path d="M3.91095468,0.964602065 L4.37261247,1.23108746 C4.39994906,1.24395649 4.43160214,1.24395649 4.45893873,1.23108746 L4.72167081,1.08095484 C4.74794402,1.08095484 4.74794402,1.04342169 4.72167081,1.02840843 L4.26376633,0.750663086 C4.23642974,0.737794053 4.20477666,0.737794053 4.17744007,0.750663086 L3.91470799,0.904549018 C3.90398055,0.903878553 3.89371029,0.908982041 3.88776593,0.917937047 C3.88182157,0.926892053 3.88110619,0.938338099 3.88588927,0.94796357 C3.89067236,0.957589041 3.90022723,0.9639316 3.91095468,0.964602065 L3.91095468,0.964602065 Z" id="路径" fill="#3A2C6D"></path>
                                    <path d="M8.18973427,3.86966821 L8.46747961,4.02730745 C8.49438119,4.04199356 8.52690428,4.04199356 8.55380586,4.02730745 L8.81653794,3.87717484 C8.83905783,3.87717484 8.84281115,3.83964168 8.81653794,3.82838174 L8.54254592,3.67074249 C8.51564433,3.65605639 8.48312124,3.65605639 8.45621966,3.67074249 L8.19348758,3.82087511 C8.17096769,3.83588837 8.17096769,3.85840826 8.18973427,3.86966821 Z" id="路径" fill="#3A2C6D"></path>
                                    <path d="M7.80314278,3.64446928 L8.0771348,3.80586184 C8.10447139,3.81873088 8.13612447,3.81873088 8.16346106,3.80586184 L8.42619314,3.65197591 C8.45246635,3.65197591 8.45621966,3.61444276 8.42619314,3.60318281 L8.15220111,3.44554356 C8.12397065,3.43085622 8.090352,3.43085622 8.06212154,3.44554356 L7.80314278,3.59567618 C7.7843762,3.61068944 7.78062288,3.63320933 7.80314278,3.64446928 Z" id="路径" fill="#3A2C6D"></path>
                                    <path d="M7.41279797,3.42302367 L7.68679,3.58066292 C7.71540776,3.59367062 7.7482518,3.59367062 7.77686957,3.58066292 L8.03584833,3.4305303 C8.06212154,3.4305303 8.06587486,3.39299715 8.03584833,3.37798389 L7.76185631,3.22034464 C7.73451972,3.20747561 7.70286664,3.20747561 7.67553005,3.22034464 L7.41279797,3.37047725 C7.39403139,3.37798389 7.39027808,3.40801041 7.41279797,3.42302367 Z" id="路径" fill="#3A2C6D"></path>
                                    <path d="M7.02620648,3.19782475 L7.30019851,3.35546399 C7.32753509,3.36833303 7.35918818,3.36833303 7.38652476,3.35546399 L7.64925684,3.20533138 C7.67553005,3.20533138 7.67553005,3.16779822 7.64925684,3.15278496 L7.37526482,2.99514571 C7.34792823,2.98227668 7.31627515,2.98227668 7.28893856,2.99514571 L7.02620648,3.14527833 C7.00368659,3.16029159 7.00368659,3.18281148 7.02620648,3.19782475 Z" id="路径" fill="#3A2C6D"></path>
                                    <path d="M6.63961499,2.97262582 L6.91360702,3.13401838 C6.94094361,3.14688742 6.97259669,3.14688742 6.99993327,3.13401838 L7.26266535,2.98013245 C7.28893856,2.98013245 7.29269188,2.9425993 7.26266535,2.93133935 L6.98867333,2.7737001 C6.96044287,2.75901275 6.92682422,2.75901275 6.89859376,2.7737001 L6.63961499,2.92383272 C6.62084842,2.93884598 6.6170951,2.96136587 6.63961499,2.97262582 Z" id="路径" fill="#3A2C6D"></path>
                                    <path d="M6.24927019,2.75118021 L6.52326221,2.90881946 C6.55187998,2.92182716 6.58472402,2.92182716 6.61334179,2.90881946 L6.87232055,2.75868684 C6.89859376,2.75868684 6.90234707,2.72115369 6.87232055,2.70614042 L6.59832852,2.54850118 C6.57099194,2.53563214 6.53933885,2.53563214 6.51200227,2.54850118 L6.24927019,2.69863379 C6.23050361,2.71364705 6.2267503,2.73616695 6.24927019,2.75118021 Z" id="路径" fill="#3A2C6D"></path>
                                    <path d="M5.8626787,2.52598128 L6.13667073,2.68362053 C6.16400731,2.69648956 6.19566039,2.69648956 6.22299698,2.68362053 L6.48572906,2.53348791 C6.51200227,2.53348791 6.51200227,2.49595476 6.48572906,2.4809415 L6.21173703,2.32330225 C6.18440045,2.31043322 6.15274737,2.31043322 6.12541078,2.32330225 L5.8626787,2.47343487 C5.84015881,2.48844813 5.84015881,2.51096802 5.8626787,2.52598128 Z" id="路径" fill="#3A2C6D"></path>
                                    <path d="M5.47233389,2.30078236 L5.74632592,2.45842161 C5.7732275,2.47310771 5.80575059,2.47310771 5.83265218,2.45842161 L6.09538426,2.30828899 C6.12165746,2.30828899 6.12541078,2.27075583 6.09538426,2.25949589 L5.82139223,2.09810332 C5.79277446,2.08509562 5.75993043,2.08509562 5.73131266,2.09810332 L5.47233389,2.25198926 C5.45356732,2.25198926 5.449814,2.28952241 5.47233389,2.30078236 Z" id="路径" fill="#3A2C6D"></path>
                                    <path d="M5.08198909,2.07558343 L5.35973443,2.23322268 C5.38663602,2.24790878 5.4191591,2.24790878 5.44606069,2.23322268 L5.70879277,2.08309006 C5.73131266,2.08309006 5.73506597,2.04555691 5.70879277,2.03429696 L5.43480074,1.87665771 C5.40789916,1.86197161 5.37537607,1.86197161 5.34847449,1.87665771 L5.08574241,2.02679033 C5.06322251,2.04180359 5.06322251,2.06432349 5.08198909,2.07558343 Z" id="路径" fill="#3A2C6D"></path>
                                    <path d="M4.6953976,1.85038451 L4.96938963,2.01177707 C4.99672621,2.0246461 5.0283793,2.0246461 5.05571588,2.01177707 L5.31844796,1.85789114 C5.34472117,1.85789114 5.34847449,1.82035798 5.31844796,1.80909804 L5.04445594,1.65145879 C5.01622548,1.63677144 4.98260683,1.63677144 4.95437637,1.65145879 L4.6953976,1.80159141 C4.67663102,1.81660467 4.67287771,1.83912456 4.6953976,1.85038451 Z" id="路径" fill="#3A2C6D"></path>
                                    <path d="M4.3050528,1.6289389 L4.57904482,1.78657814 C4.60766259,1.79958585 4.64050663,1.79958585 4.66912439,1.78657814 L4.92810316,1.63644553 C4.95437637,1.63644553 4.95812968,1.59891237 4.92810316,1.58389911 L4.65411113,1.42625986 C4.62677455,1.41339083 4.59512146,1.41339083 4.56778488,1.42625986 L4.3050528,1.57639248 C4.28628622,1.59140574 4.2825329,1.61392563 4.3050528,1.6289389 Z" id="路径" fill="#3A2C6D"></path>
                                    <path d="M3.91846131,1.40373997 L4.19245333,1.56137922 C4.21978992,1.57424825 4.251443,1.57424825 4.27877959,1.56137922 L4.54151167,1.4112466 C4.56778488,1.4112466 4.56778488,1.37371345 4.54151167,1.35870019 L4.26751964,1.20106094 C4.24018306,1.1881919 4.20852997,1.1881919 4.18119339,1.20106094 L3.91846131,1.35119355 C3.89594141,1.36620682 3.89594141,1.38872671 3.91846131,1.40373997 Z" id="路径" fill="#3A2C6D"></path>
                                    <path d="M8.58007907,4.09486713 L9.04173687,4.36135253 C9.06907345,4.37422156 9.10072654,4.37422156 9.12806312,4.36135253 L9.3907952,4.21121991 C9.41706841,4.21121991 9.42082173,4.17368676 9.3907952,4.15867349 L8.9291374,3.8921881 C8.90051964,3.8791804 8.8676756,3.8791804 8.83905783,3.8921881 L8.58007907,4.04607403 C8.56131249,4.06108729 8.55755918,4.08360719 8.58007907,4.09486713 Z" id="路径" fill="#3A2C6D"></path>
                                    <path d="M3.88468147,0.975862011 L4.15867349,1.13350126 C4.18119339,1.13350126 4.18119339,1.1672811 4.15867349,1.18229436 L3.88092815,1.33993361 C3.85676829,1.35483655 3.82626839,1.35483655 3.80210853,1.33993361 L3.77958864,1.33993361 C3.75587607,1.32848507 3.7282349,1.32848507 3.70452233,1.33993361 L3.41176372,1.5088328 C3.38539224,1.52009882 3.35556227,1.52009882 3.32919079,1.5088328 L3.15653828,1.40749329 C3.13401838,1.40749329 3.13401838,1.37371345 3.15653828,1.35870019 L3.4305303,1.20106094 L3.48683003,1.17103441 L3.5281165,1.14476121 L3.56940297,1.12224131 L3.80210853,0.987121958 C3.82558119,0.968735701 3.85714293,0.964431827 3.88468147,0.975862011 L3.88468147,0.975862011 Z" id="路径" fill="#3A2C6D"></path>
                                    <path d="M7.6379969,4.85303685 L7.91198892,5.0106761 C7.93889051,5.0253622 7.9714136,5.0253622 7.99831518,5.0106761 L8.26104726,4.86054348 C8.28732047,4.86054348 8.28732047,4.82301033 8.26104726,4.81175038 L7.98705523,4.65411113 C7.96015365,4.63942503 7.92763056,4.63942503 7.90072898,4.65411113 L7.6379969,4.80424375 C7.61923032,4.81925701 7.615477,4.8417769 7.6379969,4.85303685 Z" id="路径" fill="#3A2C6D"></path>
                                    <path d="M7.25140541,4.63159124 L7.52539743,4.78923049 C7.55273402,4.80209952 7.5843871,4.80209952 7.61172369,4.78923049 L7.87445577,4.63909787 C7.90072898,4.63909787 7.90072898,4.60156472 7.87445577,4.58655145 L7.60046374,4.42891221 C7.57312716,4.41604317 7.54147407,4.41604317 7.51413749,4.42891221 L7.25140541,4.57904482 C7.22888552,4.59405808 7.22888552,4.61657798 7.25140541,4.63159124 Z" id="路径" fill="#3A2C6D"></path>
                                    <path d="M6.8610606,4.40639231 L7.13880595,4.56403156 C7.16570753,4.57871766 7.19823062,4.57871766 7.2251322,4.56403156 L7.48786428,4.41389894 C7.51038417,4.41389894 7.51413749,4.37636579 7.48786428,4.36510584 L7.21387225,4.2074666 C7.18697067,4.19278049 7.15444758,4.19278049 7.127546,4.2074666 L6.86481392,4.36135253 C6.84229403,4.37261247 6.84229403,4.39513237 6.8610606,4.40639231 Z" id="路径" fill="#3A2C6D"></path>
                                    <path d="M3.56564966,2.50346139 L3.83964168,2.66110064 C3.86787214,2.67578799 3.90149079,2.67578799 3.92972125,2.66110064 L4.18870002,2.51096802 C4.21497323,2.51096802 4.21872654,2.47343487 4.18870002,2.46217492 L3.91470799,2.30078236 C3.88737141,2.28791333 3.85571832,2.28791333 3.82838174,2.30078236 L3.56564966,2.45466829 C3.54688308,2.46968155 3.54312976,2.49220144 3.56564966,2.50346139 Z" id="路径" fill="#3A2C6D"></path>
                                    <path d="M3.17905817,2.28201578 L3.45305019,2.43965503 C3.48038678,2.45252406 3.51203986,2.45252406 3.53937645,2.43965503 L3.80210853,2.2857691 C3.82838174,2.2857691 3.83213505,2.25198926 3.80210853,2.236976 L3.5281165,2.07933675 C3.49988604,2.0646494 3.46626739,2.0646494 3.43803693,2.07933675 L3.17905817,2.22946936 C3.16029159,2.25198926 3.15653828,2.25198926 3.17905817,2.28201578 Z" id="路径" fill="#3A2C6D"></path>
                                    <path d="M2.79246668,2.05681685 L3.06645871,2.2144561 C3.09336029,2.2291422 3.12588338,2.2291422 3.15278496,2.2144561 L3.41551704,2.06432349 C3.44179025,2.06432349 3.44554356,2.02679033 3.41551704,2.01553039 L3.14152501,1.85413782 C3.11290725,1.84113012 3.08006321,1.84113012 3.05144544,1.85413782 L2.79246668,2.00802375 C2.7737001,2.02303702 2.76994679,2.04555691 2.79246668,2.05681685 Z" id="路径" fill="#3A2C6D"></path>
                                    <path d="M2.40587519,1.83161793 L2.67986722,1.99301049 C2.7072038,2.00587953 2.73885688,2.00587953 2.76619347,1.99301049 L3.02892555,1.83912456 C3.05519876,1.83912456 3.05519876,1.80159141 3.02892555,1.79033146 L2.75118021,1.63269221 C2.72427863,1.61800611 2.69175554,1.61800611 2.66485395,1.63269221 L2.40212187,1.78282483 C2.38710861,1.79783809 2.3833553,1.82035798 2.40587519,1.83161793 Z" id="路径" fill="#3A2C6D"></path>
                                    <path d="M6.38063623,4.12864697 L6.75596777,4.34633927 C6.78458554,4.35934697 6.81742958,4.35934697 6.84604734,4.34633927 L7.10502611,4.19620665 C7.13129931,4.19620665 7.13505263,4.15867349 7.10502611,4.14366023 L6.72969456,3.92972125 C6.70279298,3.91503515 6.67026989,3.91503515 6.64336831,3.92972125 L6.38063623,4.07985387 C6.35811634,4.09111382 6.35436302,4.12864697 6.38063623,4.12864697 Z" id="路径" fill="#3A2C6D"></path>
                                    <path d="M3.95224115,2.72866032 L4.32757269,2.9425993 C4.35447427,2.9572854 4.38699736,2.9572854 4.41389894,2.9425993 L4.67663102,2.79246668 C4.70290423,2.79246668 4.70665755,2.75493352 4.67663102,2.73992026 L4.30129948,2.52598128 C4.2739629,2.51311225 4.24230981,2.51311225 4.21497323,2.52598128 L3.95224115,2.6761139 C3.93347457,2.69112716 3.92972125,2.71364705 3.95224115,2.72866032 Z" id="路径" fill="#3A2C6D"></path>
                                    <path d="M4.44017215,3.00265234 L6.26428345,4.05733398 C6.29162004,4.07020301 6.32327312,4.07020301 6.35060971,4.05733398 L6.61334179,3.90720136 C6.63961499,3.90720136 6.63961499,3.86966821 6.61334179,3.85465495 L4.7929838,2.80372663 C4.76475334,2.78903928 4.73113469,2.78903928 4.70290423,2.80372663 L4.44392547,2.95385924 C4.42140557,2.97262582 4.41765226,3.00265234 4.44017215,3.00265234 Z" id="路径" fill="#3A2C6D"></path>
                                    <path d="M7.70930989,4.02730745 L7.98330192,4.1849467 C8.0102035,4.1996328 8.04272659,4.1996328 8.06962817,4.1849467 L8.33236025,4.03481409 C8.35863346,4.03481409 8.36238677,3.99728093 8.33236025,3.98226767 L8.05836823,3.82462842 C8.02975046,3.81162072 7.99690642,3.81162072 7.96828865,3.82462842 L7.70930989,3.97476104 C7.69054331,3.9897743 7.68679,4.01229419 7.70930989,4.02730745 Z" id="路径" fill="#3A2C6D"></path>
                                    <path d="M7.3227184,3.80210853 L7.59671043,3.95974778 C7.62361201,3.97443388 7.6561351,3.97443388 7.68303668,3.95974778 L7.94576876,3.80961516 C7.97204197,3.80961516 7.97204197,3.77208201 7.94576876,3.76082206 L7.67177674,3.60318281 C7.64487515,3.58849671 7.61235206,3.58849671 7.58545048,3.60318281 L7.3227184,3.75331543 C7.30395182,3.75331543 7.30019851,3.79084858 7.3227184,3.80210853 Z" id="路径" fill="#3A2C6D"></path>
                                    <path d="M6.9323736,3.58066292 L7.21011894,3.73830217 C7.23745552,3.7511712 7.26910861,3.7511712 7.29644519,3.73830217 L7.55917727,3.58816955 C7.58169717,3.58816955 7.58545048,3.5506364 7.55917727,3.53562313 L7.28518525,3.37798389 C7.25784866,3.36511485 7.22619558,3.36511485 7.19885899,3.37798389 L6.93612691,3.5281165 C6.91360702,3.54312976 6.91360702,3.56564966 6.9323736,3.58066292 Z" id="路径" fill="#3A2C6D"></path>
                                    <path d="M6.54578211,3.35546399 L6.81977413,3.51310324 C6.84667572,3.52778934 6.87919881,3.52778934 6.90610039,3.51310324 L7.16883247,3.36297062 C7.19510568,3.36297062 7.19885899,3.32543747 7.16883247,3.31042421 L6.89484044,3.15278496 C6.86750386,3.13991593 6.83585077,3.13991593 6.80851419,3.15278496 L6.54578211,3.30667089 C6.52701553,3.32168415 6.52326221,3.34420405 6.54578211,3.35546399 Z" id="路径" fill="#3A2C6D"></path>
                                    <path d="M6.15919062,3.13026507 L6.43318264,3.28790432 C6.46008423,3.30259042 6.49260732,3.30259042 6.5195089,3.28790432 L6.78224098,3.13401838 C6.80851419,3.13401838 6.8122675,3.09648523 6.78224098,3.08522528 L6.50824895,2.92758603 C6.48001849,2.91289869 6.44639984,2.91289869 6.41816938,2.92758603 L6.15919062,3.07771865 C6.14042404,3.09648523 6.13667073,3.11900512 6.15919062,3.13026507 Z" id="路径" fill="#3A2C6D"></path>
                                    <path d="M5.77259913,2.90881946 L6.04659116,3.06645871 C6.07392774,3.07932774 6.10558082,3.07932774 6.13291741,3.06645871 L6.39564949,2.91632609 C6.41816938,2.91632609 6.4219227,2.87879293 6.39564949,2.86377967 L6.12165746,2.70614042 C6.09432088,2.69327139 6.0626678,2.69327139 6.03533121,2.70614042 L5.77259913,2.85627304 C5.75007924,2.8712863 5.75007924,2.8938062 5.77259913,2.90881946 Z" id="路径" fill="#3A2C6D"></path>
                                    <path d="M5.38225432,2.68362053 L5.65624635,2.84125978 C5.68447681,2.85594713 5.71809546,2.85594713 5.74632592,2.84125978 L6.00530469,2.69112716 C6.03157789,2.69112716 6.03533121,2.65359401 6.00530469,2.64233406 L5.73131266,2.4809415 C5.70397607,2.46807247 5.67232299,2.46807247 5.6449864,2.4809415 L5.38225432,2.63482743 C5.36348775,2.64984069 5.35973443,2.67236059 5.38225432,2.68362053 Z" id="路径" fill="#3A2C6D"></path>
                                    <path d="M4.99566284,2.45842161 L5.2546416,2.6273208 C5.28197819,2.64018983 5.31363127,2.64018983 5.34096785,2.6273208 L5.60369993,2.47343487 C5.62997314,2.47343487 5.63372646,2.43590171 5.60369993,2.42464177 L5.32970791,2.26700252 C5.30147745,2.25231517 5.2678588,2.25231517 5.23962834,2.26700252 L4.98064957,2.41713514 C4.97689626,2.42464177 4.97314294,2.44716166 4.99566284,2.45842161 Z" id="路径" fill="#3A2C6D"></path>
                                    <path d="M4.60907135,2.25198926 L4.88306337,2.40962851 C4.91039996,2.42249754 4.94205304,2.42249754 4.96938963,2.40962851 L5.23212171,2.25949589 C5.25839492,2.25949589 5.25839492,2.22196273 5.23212171,2.20694947 L4.95812968,2.04931022 C4.9307931,2.03644119 4.89914001,2.03644119 4.87180343,2.04931022 L4.60907135,2.19944284 C4.58655145,2.19944284 4.58655145,2.22196273 4.60907135,2.25198926 Z" id="路径" fill="#3A2C6D"></path>
                                    <path d="M4.21872654,2.01177707 L4.49271857,2.16941632 C4.52094903,2.18410367 4.55456768,2.18410367 4.58279814,2.16941632 L4.8417769,2.0192837 C4.86805011,2.0192837 4.87180343,1.98175055 4.8417769,1.9704906 L4.56778488,1.80909804 C4.54044829,1.796229 4.50879521,1.796229 4.48145862,1.80909804 L4.21872654,1.96298397 C4.19995996,1.97799723 4.19620665,2.00051712 4.21872654,2.01177707 Z" id="路径" fill="#3A2C6D"></path>
                                    <path d="M3.83213505,1.78657814 L4.10612708,1.94797071 C4.13346366,1.96083974 4.16511675,1.96083974 4.19245333,1.94797071 L4.45518541,1.79408477 C4.48145862,1.79408477 4.48521194,1.75655162 4.45518541,1.74529167 L4.18119339,1.58765243 C4.15296293,1.57296508 4.11934428,1.57296508 4.09111382,1.58765243 L3.83213505,1.73778504 C3.81336848,1.75279831 3.80961516,1.7753182 3.83213505,1.78657814 Z" id="路径" fill="#3A2C6D"></path>
                                    <path d="M3.44554356,1.56513253 L3.71953559,1.72277178 C3.74687218,1.73564081 3.77852526,1.73564081 3.80586184,1.72277178 L4.06859392,1.57263916 C4.09486713,1.57263916 4.09486713,1.53510601 4.06859392,1.52009275 L3.7946019,1.3624535 C3.76726531,1.34958447 3.73561223,1.34958447 3.70827564,1.3624535 L3.44554356,1.51258612 C3.42302367,1.52759938 3.42302367,1.55011927 3.44554356,1.56513253 Z" id="路径" fill="#3A2C6D"></path>
                                    <path d="M8.09590138,4.25250638 L8.66640532,4.57904482 C8.69374191,4.59191386 8.72539499,4.59191386 8.75273158,4.57904482 L9.01171034,4.42891221 C9.03798355,4.42891221 9.04173687,4.39137905 9.01171034,4.37636579 L8.44495971,4.04982735 C8.41805813,4.03514125 8.38553504,4.03514125 8.35863346,4.04982735 L8.09590138,4.19995996 C8.0771348,4.21497323 8.07338149,4.23749312 8.09590138,4.25250638 Z" id="路径" fill="#3A2C6D"></path>
                                    <path d="M7.52539743,4.3538459 L7.79938946,4.51523846 C7.82672605,4.52810749 7.85837913,4.52810749 7.88571572,4.51523846 L8.1484478,4.36135253 C8.174721,4.36135253 8.17847432,4.32381937 8.1484478,4.31255943 L7.87445577,4.15492018 C7.84755419,4.14023408 7.8150311,4.14023408 7.78812951,4.15492018 L7.52539743,4.3050528 C7.50663086,4.32006606 7.50663086,4.34258595 7.52539743,4.3538459 Z" id="路径" fill="#3A2C6D"></path>
                                    <path d="M7.13129931,4.12864697 L7.40529134,4.28628622 C7.43262793,4.29915525 7.46428101,4.29915525 7.4916176,4.28628622 L7.75434968,4.1361536 C7.78062288,4.1361536 7.7843762,4.09862045 7.75434968,4.08360719 L7.47660433,3.92596794 C7.44926775,3.91309891 7.41761466,3.91309891 7.39027808,3.92596794 L7.13129931,4.07610056 C7.13129931,4.09486713 7.13129931,4.12864697 7.13129931,4.12864697 Z" id="路径" fill="#3A2C6D"></path>
                                    <path d="M6.75596777,3.90720136 L7.0299598,4.06484061 C7.05686138,4.07952671 7.08938447,4.07952671 7.11628605,4.06484061 L7.37901813,3.91470799 C7.40153803,3.91470799 7.40529134,3.87717484 7.37901813,3.86591489 L7.10502611,3.70452233 C7.07768952,3.6916533 7.04603644,3.6916533 7.01869985,3.70452233 L6.75596777,3.85840826 C6.72969456,3.87342152 6.72969456,3.89594141 6.75596777,3.90720136 Z" id="路径" fill="#3A2C6D"></path>
                                    <path d="M6.38063623,3.68200244 L6.65462825,3.843395 C6.68324602,3.8564027 6.71609006,3.8564027 6.74470783,3.843395 L7.00368659,3.68950907 C7.0299598,3.68950907 7.03371311,3.65197591 7.00368659,3.64071597 L6.72969456,3.48307672 C6.70279298,3.46839062 6.67026989,3.46839062 6.64336831,3.48307672 L6.38063623,3.63320933 C6.34310307,3.6482226 6.33934976,3.67074249 6.38063623,3.68200244 Z" id="路径" fill="#3A2C6D"></path>
                                    <path d="M5.97527816,3.46055683 L6.24927019,3.61819607 C6.27660677,3.63106511 6.30825986,3.63106511 6.33559644,3.61819607 L6.59832852,3.46806346 C6.62460173,3.46806346 6.62835505,3.4305303 6.59832852,3.41551704 L6.3243365,3.25787779 C6.29571873,3.24487009 6.26287469,3.24487009 6.23425693,3.25787779 L5.97527816,3.40801041 C5.95651159,3.42302367 5.95275827,3.44554356 5.97527816,3.46055683 Z" id="路径" fill="#3A2C6D"></path>
                                    <path d="M5.58868667,3.2353579 L5.8626787,3.39299715 C5.88958028,3.40768325 5.92210337,3.40768325 5.94900495,3.39299715 L6.21173703,3.24286453 C6.23801024,3.24286453 6.23801024,3.20533138 6.21173703,3.19407143 L5.93774501,3.03643218 C5.91084342,3.02174608 5.87832034,3.02174608 5.85141875,3.03643218 L5.58868667,3.1865648 C5.56616678,3.20157806 5.56616678,3.22409795 5.58868667,3.2353579 Z" id="路径" fill="#3A2C6D"></path>
                                    <path d="M5.19834187,3.00265234 L5.47233389,3.16029159 C5.50095166,3.17329929 5.5337957,3.17329929 5.56241347,3.16029159 L5.82139223,3.01015897 C5.84766544,3.01015897 5.85141875,2.97262582 5.82139223,2.95761256 L5.5474002,2.79997331 C5.52049862,2.78528721 5.48797553,2.78528721 5.46107395,2.79997331 L5.19834187,2.95010593 C5.17957529,2.97637913 5.17582198,3.00265234 5.19834187,3.00265234 Z" id="路径" fill="#3A2C6D"></path>
                                    <path d="M4.81175038,2.78871336 L5.08574241,2.94635261 C5.11264399,2.96103871 5.14516708,2.96103871 5.17206866,2.94635261 L5.43480074,2.79621999 C5.46107395,2.79621999 5.46482726,2.75868684 5.43480074,2.74367358 L5.16080871,2.58603433 C5.13219095,2.57302663 5.09934691,2.57302663 5.07072914,2.58603433 L4.81175038,2.73992026 C4.7929838,2.75118021 4.78923049,2.7737001 4.81175038,2.78871336 Z" id="路径" fill="#3A2C6D"></path>
                                    <path d="M4.42515889,2.56351444 L4.69915092,2.72115369 C4.72636175,2.7345733 4.75826634,2.7345733 4.78547717,2.72115369 L5.04820925,2.56726775 C5.07448246,2.56726775 5.07448246,2.5297346 5.04820925,2.51847465 L4.77046391,2.3608354 C4.74356233,2.3461493 4.71103924,2.3461493 4.68413765,2.3608354 L4.42140557,2.51096802 C4.40639231,2.5297346 4.402639,2.55225449 4.42515889,2.56351444 Z" id="路径" fill="#3A2C6D"></path>
                                    <path d="M4.0385674,2.34206883 L4.31255943,2.49970808 C4.33989601,2.51257711 4.3715491,2.51257711 4.39888568,2.49970808 L4.66161776,2.34957546 C4.68413765,2.34957546 4.68789097,2.3120423 4.66161776,2.29702904 L4.38762574,2.13938979 C4.36028915,2.12652076 4.32863607,2.12652076 4.30129948,2.13938979 L4.0385674,2.28952241 C4.01604751,2.30453567 4.01604751,2.32705557 4.0385674,2.34206883 Z" id="路径" fill="#3A2C6D"></path>
                                    <path d="M3.6482226,2.1168699 L3.92221462,2.27450915 C3.95044508,2.2891965 3.98406373,2.2891965 4.01229419,2.27450915 L4.27127296,2.12437653 C4.29754617,2.12437653 4.30129948,2.08684338 4.27127296,2.07558343 L3.99728093,1.91419087 C3.96994435,1.90132184 3.93829126,1.90132184 3.91095468,1.91419087 L3.6482226,2.0680768 C3.62945602,2.08309006 3.6257027,2.10560996 3.6482226,2.1168699 Z" id="路径" fill="#3A2C6D"></path>
                                    <path d="M2.78120673,1.61767895 L3.53186982,2.05306354 C3.5592064,2.06593257 3.59085949,2.06593257 3.61819607,2.05306354 L3.88092815,1.89917761 C3.90720136,1.89917761 3.91095468,1.86164445 3.88092815,1.85038451 L3.13026507,1.41499992 C3.10203461,1.40031257 3.06841596,1.40031257 3.0401855,1.41499992 L2.78120673,1.56513253 C2.76244016,1.5801458 2.75868684,1.60266569 2.78120673,1.61767895 Z" id="路径" fill="#3A2C6D"></path>
                                    <path d="M7.91198892,4.57904482 L8.28732047,4.79673712 C8.31465705,4.80960615 8.34631014,4.80960615 8.37364672,4.79673712 L8.6363788,4.64285119 C8.66265201,4.64285119 8.66640532,4.60531803 8.6363788,4.59405808 L8.26104726,4.37636579 C8.23371067,4.36349676 8.20205759,4.36349676 8.174721,4.37636579 L7.91198892,4.53025172 C7.8819624,4.54526498 7.8819624,4.56778488 7.91198892,4.57904482 Z" id="路径" fill="#3A2C6D"></path>
                                </g>
                                <g id="_Группа_6" transform="translate(4.503979, 0.000000)">
                                    <g id="_Группа_7">
                                        <g id="_Группа_8">
                                            <path d="M6.2530235,8.68892522 L6.2530235,8.68892522 L0.0300265234,5.09324904 L0.0300265234,0.213938979 L0.078819624,0.101339517 L0.127612725,0.078819624 L0.127612725,0.078819624 C0.260731478,0.000133454359 0.426125245,0.000133454359 0.559243999,0.078819624 L6.2530235,3.36297062 C6.38520256,3.44192597 6.46637752,3.58433819 6.46696248,3.73830217 L6.46696248,8.33236025 C6.42567601,8.55380586 6.38063623,8.61010559 6.2530235,8.68892522 Z" id="_Контур_8" fill="#E5E5E5"></path>
                                            <path d="M5.68251956,3.94473452 L0.0300265234,0.375331543 L0.0300265234,0.213938979 L0.078819624,0.101339517 L0.127612725,0.078819624 C0.260731478,0.000133454359 0.426125245,0.000133454359 0.559243999,0.078819624 L6.2530235,3.36297062 C6.32306746,3.40284506 6.37934884,3.46305305 6.41441607,3.53562313 L5.68251956,3.94473452 Z" id="_Контур_9" fill="#E5E5E5"></path>
                                            <path d="M0.17265251,0.0900795703 L6.14793067,3.53937645 C6.2118448,3.57713026 6.2516204,3.64531701 6.2530235,3.71953559 L6.2530235,8.68892522 L0.0299945679,5.09324904 L0.0299945679,0.17265251 C0.0291318425,0.138306574 0.0470799519,0.106218027 0.0768139108,0.08900363 C0.10654787,0.0717892328 0.143312514,0.0722019742 0.17265251,0.0900795703 Z" id="_Контур_10" fill="#DCEEFF"></path>
                                            <path d="M0.17265251,0.0900795703 L6.14793067,3.53937645 C6.2118448,3.57713026 6.2516204,3.64531701 6.2530235,3.71953559 L6.2530235,8.68892522 L0.0299945679,5.09324904 L0.0299945679,0.17265251 C0.0291318425,0.138306574 0.0470799519,0.106218027 0.0768139108,0.08900363 C0.10654787,0.0717892328 0.143312514,0.0722019742 0.17265251,0.0900795703 Z" id="_Контур_11" fill="#F4F4F4"></path>
                                            <polygon id="_Контур_12" fill="#DBDBDB" points="6.2530235 8.68892522 6.2530235 8.50876608 0.0300265234 4.91684321 0.0300265234 5.09324904"></polygon>
                                        </g>
                                        <polygon id="_Контур_13" fill="#1E3779" points="0.191419087 4.83427027 0.191419087 0.349058335 0.266485395 0.390344805 0.266485395 4.79673712"></polygon>
                                        <polygon id="_Контур_14" fill="#3A2C6D" points="0.266485395 0.390344805 0.266485395 4.79673712 6.05409779 8.1259279 6.05409779 3.73079554"></polygon>
                                        <polygon id="_Контур_15" fill="#031F60" points="0.191419087 4.83427027 6.05409779 8.21600747 6.05409779 8.1259279 0.266485395 4.79673712"></polygon>
                                    </g>
                                </g>
                            </g>
                        </g>
                        <g id="Men_2" transform="translate(0.000000, -0.000000)">
                            <path d="M1.01020408,10.2581633 C0.92755102,10.9714286 0.0918367347,14.0510204 0.257142857,15.1071429 C0.42244898,16.1632653 3.34897959,17.9265306 3.34897959,17.9265306 L3.75306122,16.1204082 L2.14285714,14.5408163 L2.57755102,11.55 L1.01020408,10.2581633 Z" id="_Контур_" fill="#FFCEA9"></path>
                            <path d="M3.26020408,7.2244898 C2.67514204,6.95175922 1.97856356,7.1611278 1.64081633,7.71122449 C1.2122449,8.42142857 0.768367347,10.8520408 0.72244898,11.2683673 C0.72244898,11.2683673 1.33469388,12.0979592 2.2255102,11.9602041 L3.26020408,7.2244898 Z" id="_Контур_2" fill="#EDEDED"></path>
                            <path d="M6.58163265,41.5591837 C7.21493885,41.7334667 7.89142579,41.6509683 8.46428571,41.3295918 C8.91734694,41.344898 11.3816327,40.2887755 11.7153061,41.1734694 C12.0214286,41.9510204 10.9408163,42.6673469 10.3714286,42.805102 C9.12857143,43.1112245 8.21020408,43.7234694 7.70816327,43.8336735 C7.3377551,43.9102041 6.85408163,43.9622449 6.56020408,43.6683673 C6.20204082,43.3193878 6.23265306,42.0214286 6.58163265,41.5591837 Z" id="路径" fill="#38226D"></path>
                            <path d="M7.70816327,43.6163265 C8.21020408,43.5122449 9.12857143,42.8908163 10.3714286,42.5908163 C10.8489796,42.4744898 11.672449,41.9540816 11.755102,41.3295918 C11.8653061,42.0428571 10.9040816,42.6765306 10.3714286,42.805102 C9.12857143,43.1112245 8.21020408,43.7234694 7.70816327,43.8336735 C7.3377551,43.9102041 6.85408163,43.9622449 6.56020408,43.6683673 C6.47970214,43.582234 6.42276765,43.4767997 6.39489796,43.3622449 C6.7673373,43.6509663 7.25491138,43.7452988 7.70816327,43.6163265 Z" id="路径" fill="#9C73FF"></path>
                            <path d="M2.58979592,39.7653061 C3.22270315,39.9405165 3.89916956,39.8591206 4.47244898,39.5387755 C4.9255102,39.5387755 7.38673469,38.4979592 7.72346939,39.3826531 C8.02959184,40.1571429 6.94897959,40.8734694 6.37959184,41.0142857 C5.13673469,41.3204082 4.21530612,41.9326531 3.71632653,42.0397959 C3.34285714,42.1163265 2.8622449,42.1683673 2.56530612,41.877551 C2.21020408,41.5255102 2.24081633,40.227551 2.58979592,39.7653061 Z" id="路径" fill="#38226D"></path>
                            <path d="M3.71632653,41.8255102 C4.21530612,41.7183673 5.13673469,41.1 6.37959184,40.7969388 C6.85714286,40.6836735 7.68061224,40.1602041 7.76326531,39.5387755 C7.87346939,40.2520408 6.9122449,40.8826531 6.37959184,41.0142857 C5.13673469,41.3204082 4.21530612,41.9326531 3.71632653,42.0397959 C3.34285714,42.1163265 2.8622449,42.1683673 2.56530612,41.877551 C2.48769166,41.7898356 2.43207658,41.6849015 2.40306122,41.5714286 C2.77652921,41.8578711 3.26297025,41.9519844 3.71632653,41.8255102 L3.71632653,41.8255102 Z" id="路径" fill="#9C73FF"></path>
                            <path d="M2.54081633,33.0765306 C2.64688082,32.16215 2.8364477,31.2594018 3.10714286,30.3795918 C3.10714286,30.3795918 2.93877551,28.0530612 2.85306122,25.8459184 C2.75816327,23.3418367 1.88877551,21.1377551 2.5744898,19.1418367 L10.2979592,20.8591837 C10.2979592,20.8591837 9.83265306,30.8418367 9.72857143,32.0479592 C9.67252685,32.9890138 9.55698988,33.925579 9.38265306,34.8520408 C9.03061224,36.7897959 8.46428571,41.4 8.46428571,41.4 C7.65,41.8744898 6.5755102,41.6112245 6.5755102,41.6112245 C6.5755102,41.6112245 6.63673469,35.794898 6.68877551,34.3867347 C6.75306122,32.6816327 6.80510204,32.8102041 6.80510204,32.8102041 L6.54795918,28.5642857 L6.38265306,26.4520408 C6.38265306,26.4520408 6.16836735,28.0010204 6.02755102,29.3877551 C5.90816327,30.5938776 5.61734694,31.6867347 5.28979592,33.9336735 C5.00816327,35.8836735 4.54897959,39.8020408 4.54897959,39.8020408 C3.73163265,40.2765306 2.62346939,39.8816327 2.62346939,39.8816327 C2.62346939,39.8816327 2.32040816,34.7663265 2.54081633,33.0765306 Z" id="_Контур_3" fill="#E26161"></path>
                            <path d="M3.67346939,7.26428571 C4.26428571,7.29489796 4.70204082,7.44489796 4.7755102,7.26428571 C4.83683146,6.96091817 4.88078054,6.65429669 4.90714286,6.34591837 C4.83979592,6.1744898 4.78163265,5.99081633 4.78163265,5.99081633 C4.04387755,5.5377551 3.81122449,4.73877551 3.71326531,3.80816327 C3.54795918,2.21938776 4.40510204,0.829591837 5.99387755,0.664285714 C7.4877551,0.508163265 8.58979592,1.55816327 8.88061224,3 C9.03979592,3.71020408 9.35510204,5.05714286 8.92959184,6.22653061 C8.69081633,6.88163265 8.38469388,7.40204082 8.07857143,7.50306122 C7.78239652,7.4934305 7.48701556,7.46685643 7.19387755,7.42346939 L7.19387755,7.42346939 C7.19387755,7.42346939 7.11428571,7.86428571 7.05918367,8.14591837 C7.00408163,8.42755102 7.0255102,8.58061224 7.58877551,8.92653061 C8.15204082,9.27244898 6.73469388,9.99795918 5.81632653,9.92755102 C4.89795918,9.85714286 3.85102041,9.3 3.56326531,8.70306122 C3.23571429,8.03265306 3.26326531,7.24591837 3.67346939,7.26428571 Z" id="_Контур_4" fill="#FFCEA9"></path>
                            <path d="M4.51836735,7.34693878 C4.35612245,7.75408163 4.76938776,8.26530612 5.8744898,8.59591837 C6.97959184,8.92653061 7.08061224,8.49795918 7.08061224,8.49795918 C7.81470267,8.82658628 8.53007831,9.19551572 9.22346939,9.60306122 C9.8877551,10.0683673 10.1816327,11.4091837 10.2704082,13.6744898 C10.3744898,16.294898 10.3836735,20.1826531 10.294898,20.8530612 C10.294898,20.8530612 9.07040816,22.077551 7.46938776,21.9581633 C5.86836735,21.8387755 3.21734694,20.427551 2.57142857,19.3408163 C2.58979592,17.0418367 2.85918367,16.6683673 2.48571429,15.3459184 C1.63469388,12.3153061 1.1877551,11.0602041 1.60102041,9.06122449 C1.94081633,7.39897959 2.41836735,7.19387755 3.07653061,7.20918367 C3.55930682,7.22860544 4.04064754,7.2745934 4.51836735,7.34693878 L4.51836735,7.34693878 Z" id="_Контур_5" fill="#F4F4F4"></path>
                            <path d="M12.7683673,15.8479592 C11.4642857,16.1755102 11.1612245,15.355102 10.9897959,14.6755102 C10.5734694,13.0285714 10.3530612,11.5438776 10.0438776,10.6102041 C9.67959184,9.50816327 9.29693878,9.33367347 8.76428571,9.11938776 C8.15204082,8.86530612 7.59489796,9.39795918 7.80306122,10.8 C8.05993489,12.4268233 8.45943419,14.0278936 8.99693878,15.5846939 C9.15918367,16.0959184 9.52040816,17.005102 10.0653061,17.4459184 C10.7357143,17.9877551 11.7489796,17.9663265 13.2795918,17.5867347 C13.9316327,17.4214286 14.6479592,17.0326531 15.8816327,16.4571429 C16.2122449,16.3040816 16.4693878,16.2 17.1061224,15.9030612 C17.7454884,15.6176088 18.305559,15.1804805 18.7377551,14.6295918 C19.0714286,14.1459184 19.1142857,13.9193878 19.0438776,13.8091837 C18.9734694,13.6989796 18.8081633,13.7020408 18.6306122,13.9071429 C18.372934,14.2498357 18.0556205,14.5432989 17.6938776,14.7734694 C17.6938776,14.7734694 18.1040816,14.3479592 18.327551,14.072449 C18.5272052,13.8274031 18.6929783,13.5566061 18.8204082,13.2673469 C18.9367347,12.9857143 18.694898,12.6030612 18.5142857,12.805102 C18.3336735,13.0071429 18.2418367,13.2091837 17.9020408,13.6132653 C17.7218618,13.8290403 17.516293,14.022275 17.2897959,14.1887755 C17.4988109,13.906597 17.6841361,13.6076193 17.8438776,13.294898 C17.9880364,13.0506316 18.0592108,12.7701834 18.0489796,12.4867347 C18.0489796,12.3397959 17.8316327,12.1653061 17.6357143,12.4438776 C17.4465882,12.8266105 17.2122634,13.1852918 16.9377551,13.5122449 C16.6316327,13.8183673 16.3867347,13.9959184 16.3806122,13.9102041 C16.3744898,13.8244898 16.5581633,13.6561224 16.6653061,13.2979592 C16.772449,12.9397959 16.6653061,12.5571429 16.4663265,12.5173469 C16.2673469,12.477551 16.3071429,12.4867347 16.1602041,12.8234694 C15.9408879,13.1688651 15.743558,13.5277397 15.5693878,13.8979592 C15.4669658,14.2425776 15.2832373,14.5575408 15.0336735,14.8163265 C14.7122449,15.1591837 14.005102,15.5357143 12.7683673,15.8479592 Z" id="_Контур_6" fill="#FFCEA9"></path>
                            <path d="M8.28061224,8.89285714 C9.15,8.76428571 9.76530612,9.15612245 10.1479592,10.472449 C10.5306122,11.7887755 10.8,12.8571429 10.8,12.8571429 C10.4566018,13.353428 9.93634808,13.6995337 9.34591837,13.8244898 C8.30510204,14.0785714 7.93163265,13.5795918 7.93163265,13.5795918 C7.93163265,13.5795918 7.64387755,12.2020408 7.46326531,11.2622449 C7.28265306,10.322449 7.20612245,9.05204082 8.28061224,8.89285714 Z" id="_Контур_7" fill="#EDEDED"></path>
                            <path d="M8.8255102,2.79489796 C8.8255102,2.79489796 10.1969388,0.707142857 7.22142857,0.281632653 C5.07857143,-0.0244897959 3.69795918,1.35306122 3.54795918,2.85 C3.39489796,4.27959184 4.27653061,5.76428571 4.91020408,6.35204082 C5.53483508,6.51099147 6.19629129,6.4313111 6.76530612,6.12857143 C6.80175794,5.73990376 6.81606677,5.34947693 6.80816327,4.95918367 C6.80816327,4.95918367 5.75204082,2.75510204 8.8255102,2.79489796 Z" id="路径" fill="#3A2C6D"></path>
                        </g>
                    </g>
                    <g id="Men_13" transform="translate(20.000000, 117.000000)" fill-rule="nonzero">
                        <path d="M1.32026589,42.0000777 C1.80026151,42.3783634 2.50762347,42.0326886 2.54299157,42.06693 C3.10680431,42.5733473 3.69824343,43.0501491 4.31476486,43.4952844 C4.6128674,43.7235602 5.07938946,44.026841 4.98844292,44.4654567 C4.83686536,45.2481166 3.54340348,45.0067965 3.05498689,44.7671069 C2.5665703,44.5274173 2.16741605,44.1311956 1.70763077,43.8540036 C1.37079174,43.6550775 1.05247886,43.5523534 1.00195301,43.1496096 C0.975005884,42.9066589 1.23437194,41.9902945 1.32026589,42.0000777 Z" id="路径" fill="#1965B1"></path>
                        <path d="M1.00759577,43 C1.07018855,43.3839648 1.39161092,43.4860314 1.72149178,43.6853043 C2.19178346,43.9655824 2.60794085,44.3706086 3.0985329,44.608764 C3.55190762,44.8274782 4.68196102,45.0461923 5,44.4904964 C4.83083033,45.2406049 3.55021592,45.0056897 3.06469897,44.7691544 C2.57918201,44.5326191 2.1731748,44.1373135 1.7113416,43.8618957 C1.37300226,43.664243 1.05327158,43.5621764 1.00252068,43.1620105 C0.99791927,43.1079942 0.999621483,43.053655 1.00759577,43 Z" id="路径" fill="#9C73FF"></path>
                        <path d="M6.38345914,40.0023157 C6.86204693,40.3950479 7.70294591,39.9650738 7.73159377,40.0023157 C8.23181186,40.5102722 8.76010569,40.9895322 9.31396679,41.4378198 C9.61392674,41.6748134 10.0807184,41.9896763 9.9880341,42.4450426 C9.83636896,43.2575921 8.54215971,43.007056 8.05346091,42.7582128 C7.56476211,42.5093695 7.16537722,42.0980163 6.70532628,41.8102383 C6.36829262,41.6037153 6.05148099,41.4970682 6.00092594,41.0789438 C5.98070392,40.8267149 6.29751556,39.9921588 6.38345914,40.0023157 Z" id="路径" fill="#1965B1"></path>
                        <path d="M6.0066618,41 C6.07093408,41.3839648 6.39229548,41.4860314 6.72042238,41.6853043 C7.19231622,41.9655824 7.60839466,42.3706086 8.09720226,42.608764 C8.55049096,42.8274782 9.68202135,43.0461923 10,42.4904964 C9.83086242,43.2406049 8.54879959,43.0056897 8.06337474,42.7691544 C7.57794989,42.5326191 7.17371108,42.1373135 6.71027412,41.8618957 C6.38045585,41.664243 6.05402032,41.5621764 6.00327905,41.1620105 C5.99797413,41.1080594 5.99910904,41.0537048 6.0066618,41 Z" id="路径" fill="#9C73FF"></path>
                        <path d="M1.09667674,21.9120621 C1.12411203,22.7215894 1.38670695,26.2320452 1.50428676,28.0971509 C1.62186658,29.9622567 1.64930187,32.2293087 1.64930187,32.2293087 C1.64930187,32.2293087 1.3141994,33.5854077 1.09667674,35.1781667 C0.879154079,36.7709257 1.09667674,41.7990104 1.09667674,41.7990104 C1.53254214,42.0669965 2.09136576,42.0669965 2.52723116,41.7990104 C2.52723116,41.7990104 3.42083776,37.7757913 3.83432677,35.9632767 C4.24781579,34.150762 4.32032334,33.1045748 4.53588634,31.9813792 C4.79456193,30.6215237 5.35502572,24.2805398 5.35502572,24.2805398 L5.57842737,24.2936875 L6.16632645,31.4554682 C5.98260086,31.9830965 5.85650687,32.5275765 5.79007104,33.0801575 C5.62741896,34.246553 5.96056177,40.1160952 5.96056177,40.1160952 C6.44700422,40.3752627 7.04378922,40.352064 7.50673634,40.0559911 C7.50673634,40.0559911 9,32.2818998 9,31.0986001 C9,30.3172466 8.86086389,20 8.86086389,20 L1.09667674,21.9120621 Z" id="_Контур_7" fill="#2E92F7"></path>
                        <path d="M3.02297508,6 C3.02297508,6 3.11660203,7.84504714 3.07647619,8.00813437 C3.03635036,8.1712216 2.25103047,8.71353578 2.02365074,8.90806151 C1.79627101,9.10258725 3.26564084,10.5919863 3.97835208,10.9279853 C4.69106333,11.2639843 6.95721757,10.3778115 6.99734341,9.23423598 C7.03746924,8.09066044 6.61519261,7.1298212 6.26170312,7.07283891 C5.90821363,7.01585662 3.02297508,6 3.02297508,6 Z" id="_Контур_8" fill="#FFCEA9"></path>
                        <path d="M8.13315947,9.18336303 C8.23666031,8.389064 7.72291981,7.63313691 8.22160564,7 C9.96606513,8.74400439 9.74400879,13.360148 10.1410756,16.3128683 C11.4357769,17.6942579 14.0402343,19.054543 14.7741493,19.382623 C14.9077594,19.4440181 15.0225513,19.5092504 14.9962056,19.6569823 C14.8908229,20.2325613 14.7271034,20.4512813 14.3902553,21 C12.6664959,20.2421543 11.4244859,19.8066329 9.27166863,17.7211183 C9.06744917,17.4963275 8.88471212,17.2522011 8.72593697,16.9920515 C8.11057747,15.1271756 7.95626714,10.5551597 8.13315947,9.18336303 Z" id="路径" fill="#FFCEA9"></path>
                        <path d="M3.13452926,8.54097229 C3.13452926,8.54097229 4.41981493,10.4415785 6.21205345,10.628646 C6.77742838,10.0674434 6.82831212,8.10697559 6.04621014,7.47842866 C6.04621014,7.47842866 6.76612088,6.90226063 7.25799706,7.01450116 C7.78620425,7.33239056 8.17951766,7.83054685 8.36424734,8.41563704 C8.82022987,9.72296998 9.03412095,11.1014176 8.99558267,12.484356 C8.96542935,14.3550315 8.99558267,20.045626 8.99558267,20.045626 C8.99558267,20.045626 8.74493312,21.250341 7.12419166,22.1463945 C5.50345021,23.042448 4.29731703,23.1303698 3.19860508,22.8759579 C2.29023603,22.6664423 1.54017196,22.3484275 1.22921575,21.6955618 C1.31025283,20.386089 1.89824275,16.9777184 1.67774653,15.3352654 C1.45725031,13.6928124 1.1123716,12.4637786 1.01814245,11.1355991 C0.923913293,9.80741954 1.19529326,9.82612629 1.86620484,9.36032812 C2.26883473,9.05765011 2.69268307,8.78383798 3.13452926,8.54097229 Z" id="_Контур_9" fill="#F4F4F4"></path>
                        <path d="M6.88939176,2.53197255 L6.88939176,2.53197255 C6.69092849,1.04610463 5.76063193,-0.0810352356 4.42809285,0.0045703237 C3.01064716,0.0954784397 1.92548953,1.49057665 2.00400579,3.12102033 C2.04816578,4.03549541 2.46193234,4.87346963 3.12213367,5.38549119 C3.16877094,5.61084686 3.23835965,5.82908677 3.3294569,6.0356858 C3.79903517,6.66957458 5.2254899,7.0547996 5.6330484,6.99365277 C6.16464644,6.90804721 6.4446214,6.65530699 6.69624447,5.99492125 C7.13747084,4.82294038 6.99925536,3.26369626 6.88939176,2.53197255 Z" id="_Контур_10" fill="#FFCEA9"></path>
                        <path d="M2.80607039,6 L2.80607039,6 L2.9451079,4.70515827 C2.9451079,4.70515827 1.88922879,1.96074528 4.37376877,2.48804718 C6.00594831,2.83415268 6.41701575,2.98481036 6.91472976,1.87727278 C7.41244377,0.769735194 5.657347,-0.225827083 3.57581432,0.0449495691 C2.08935738,0.203273331 0.970380183,1.48511809 1.0005977,2.99498994 C1.05500369,3.81546355 1.27061259,5.46455444 2.80607039,6 Z" id="路径" fill="#3A2C6D"></path>
                        <path d="M1.02825783,10.1833741 C1.68224665,10 1.18440685,10.1522005 1.68224665,10 C3.38518945,11.6687042 3.17392902,14.5256724 3.55970894,17.3496333 C4.50027713,18.900978 7.9906669,21.0042787 7.9906669,21.0042787 C8.03475603,21.3050122 7.92820729,21.3930318 7.55161261,22 C5.87071437,21.2756724 4.46169914,20.6503667 2.36011709,18.6589242 C2.27744996,18.5800733 2.15620484,18.5599022 2.12130094,18.4517115 C1.52058649,16.6491443 0.853738343,11.4963325 1.02825783,10.1833741 Z" id="路径" fill="#FFCEA9"></path>
                        <polygon id="路径" fill="#F4F4F4" points="16 14 13.4953525 22.7547615 8 25 10.0040807 16.471431"></polygon>
                        <path d="M7.05386347,20.5763164 C7.13438633,20.2836131 7.34374579,20.3563344 7.5781568,20.4290557 C7.83237321,20.5336451 8.11162622,20.5583441 8.37980668,20.499959 C8.60348131,20.4290557 8.76452704,20.2345262 8.95420313,20.1054459 C9.06267321,20.0398168 9.18588284,20.0035142 9.31208253,20 C9.30134615,20.0745393 9.18861414,20.5108672 9.18861414,20.5108672 C9.18861414,20.5108672 10.3767738,20.5235934 10.4984528,20.4981409 C10.5809399,20.4867568 10.6617655,20.5283653 10.7015159,20.6026765 C10.7412663,20.6769878 10.7316644,20.7685281 10.6773925,20.832659 L10.7579153,20.8199327 C11.0012733,20.7653918 11.1050584,21.1435425 10.859911,21.1999016 C10.7954927,21.2144458 10.729285,21.2217179 10.6612879,21.2308081 C10.8205442,21.2926212 10.859911,21.559872 10.6612879,21.5944146 L10.6004484,21.6053228 C10.5725064,21.6160963 10.5425613,21.6204426 10.5127679,21.6180491 L10.4751906,21.6180491 C10.4865879,21.6763561 10.4738692,21.736859 10.4400216,21.7853479 C10.4061739,21.8338368 10.3541799,21.8660391 10.2962509,21.8743917 C9.71648627,21.9525671 8.86473327,22.1870933 8.33865054,21.7016786 C7.97459375,21.6651824 7.6190326,21.5674971 7.28648508,21.4126114 C6.96618301,21.2580786 6.95723603,20.9271967 7.05386347,20.5763164 Z" id="路径" fill="#FFCEA9"></path>
                        <path d="M13.2425959,20.0937007 L13.3401128,20.0937007 C13.2605161,20.0434502 13.2279203,19.9586989 13.2583001,19.8809827 C13.2886799,19.8032665 13.3756696,19.74887 13.4766364,19.7444524 C13.6283294,19.7444524 15.108419,19.4947399 15.108419,19.4947399 L15.2861164,19.0040461 C15.2861164,18.9761062 15.5439944,19.1018356 15.5526626,19.1070743 C15.8065066,19.2410225 15.9708206,19.4608441 15.9990732,19.7042889 C16.0135737,20.0454648 15.8574165,20.3770381 15.5656649,20.6245581 C15.2996519,20.8409151 14.9401591,20.9660493 14.5623244,20.9738064 C14.38246,20.9825376 14.2090966,20.9895226 14.0552366,21 C13.986466,21 13.9205432,20.977869 13.8721189,20.9385199 C13.8236946,20.8991708 13.7967807,20.8458657 13.7973586,20.790451 L13.7518508,20.790451 C13.7169322,20.7970697 13.6805842,20.7970697 13.6456657,20.790451 L13.5698192,20.790451 C13.3184424,20.790451 13.298939,20.5389923 13.4701353,20.4412027 C13.3899548,20.4412027 13.3076072,20.4534264 13.2274266,20.4534264 C12.9132055,20.4691426 12.9305419,20.0919545 13.2425959,20.0937007 Z" id="路径" fill="#FFCEA9"></path>
                        <path d="M8.91763848,10 C8.91763848,10 9.68294461,9.96390977 10,9.55488722 C9.9409621,8.85513784 8.96355685,6.19849624 7,6 C7.53525193,6.34378863 7.95972073,6.81334648 8.22886297,7.3593985 C8.58527697,8.1593985 8.91763848,10 8.91763848,10 Z" id="路径" fill="#EDEDED"></path>
                        <path d="M0.229692254,13.8169466 C0.229692254,13.8169466 1.84690474,14.4373048 2.98655112,13.3939751 C3.11136954,13.1542913 2.32627981,10.0907693 2.32627981,10.0907693 C2.32627981,10.0907693 1.64791886,8.52376066 0.586057869,9.14613298 C-0.475803125,9.7685053 0.229692254,13.8169466 0.229692254,13.8169466 Z" id="路径" fill="#EDEDED"></path>
                    </g>
                    <g id="Men_1" transform="translate(100.000000, 132.000000)" fill-rule="nonzero">
                        <path d="M19.118517,11 C19.2104785,11.7506451 20.1791398,14.9577762 19.9706937,16.0574713 C19.7622476,17.1571663 16.457764,19 16.457764,19 L16,17.1233873 L17.8392302,15.4757213 L17.3324201,12.3474079 L19.118517,11 Z" id="_Контур_18" fill="#FFCEA9"></path>
                        <path d="M16,7.12168481 C16.693586,6.84222742 17.5187085,7.05835834 17.9176136,7.62398066 C18.4247159,8.35157098 18.9509943,10.8482768 19,11.274859 C19,11.274859 18.2883523,12.1261766 17.2208807,11.9839825 L16,7.12168481 Z" id="_Контур_19" fill="#EDEDED"></path>
                        <path d="M12.6961688,42.7198541 C12.0002625,42.8912988 11.2562719,42.8111188 10.6266814,42.496825 C10.1285813,42.5108741 7.42263257,41.4817789 7.05498723,42.3457974 C6.73280342,43.1026916 7.90491999,43.8033895 8.53149833,43.9386119 C9.89732051,44.2318864 10.9034037,44.837753 11.4568483,44.9396088 C11.866002,45.0168788 12.3957275,45.0678067 12.7218645,44.7815567 C13.1132289,44.4391103 13.0796269,43.1711808 12.6961688,42.7198541 Z" id="路径" fill="#38226D"></path>
                        <path d="M11.5306302,45.6750598 C10.9738375,45.5529878 9.9446756,44.8331842 8.55570905,44.4732824 C8.02102728,44.3385823 7.10241987,43.7261177 7.00995611,43 C6.88533103,43.8418756 7.96072482,44.5764121 8.55570905,44.7279497 C9.9446756,45.0794328 10.9678073,45.8055505 11.5306302,45.9276225 C11.9467171,46.0202288 12.485419,46.0812648 12.8170826,45.7382005 C12.9025618,45.638572 12.9651315,45.5197816 13,45.3909268 C12.58062,45.7234621 12.0357812,45.8288179 11.5306302,45.6750598 Z" id="路径" fill="#9C73FF"></path>
                        <path d="M17.7032039,41.7197373 C17.0066143,41.8907285 16.2621397,41.8112341 15.6311605,41.4984861 C15.1324452,41.5107779 12.4231545,40.4817846 12.0550551,41.3457175 C11.7324734,42.1025368 12.9060376,42.8031653 13.5333898,42.9383744 C14.9008988,43.2316199 15.9082246,43.8374265 16.4623527,43.9410282 C16.8739907,44.0165346 17.4023915,44.0674574 17.7289312,43.7812358 C18.1108838,43.4388233 18.0772403,42.1710193 17.7032039,41.7197373 Z" id="路径" fill="#38226D"></path>
                        <path d="M15.5306302,43.6765713 C14.9738375,43.5544304 13.9446756,42.83422 12.555709,42.4741148 C12.0210273,42.3393386 11.1024199,41.7286339 11.0099561,41 C10.885331,41.8423513 11.9607248,42.575197 12.555709,42.7268202 C13.9446756,43.0785019 14.9678073,43.8050299 15.5306302,43.9292767 C15.9487272,44.0198295 16.485419,44.0808999 16.8170826,43.7376418 C16.9025618,43.637957 16.9651315,43.5190995 17,43.3901719 C16.5809646,43.7236214 16.0360956,43.8298235 15.5306302,43.6765713 L15.5306302,43.6765713 Z" id="路径" fill="#9C73FF"></path>
                        <path d="M16.7722655,34.2225821 C16.6668274,33.2888579 16.4762313,32.3671711 16.202948,31.4694691 C16.202948,31.4694691 16.3741036,29.0944502 16.4587806,26.8424037 C16.556069,24.2875148 17.4244584,22.0391391 16.7380344,20 L9,21.7528153 C9,21.7528153 9.46842583,31.9393337 9.57292083,33.1727283 C9.62969752,34.1311068 9.74522764,35.0849322 9.91883529,36.0286243 C10.2791628,38.0053595 10.8466788,42.709512 10.8466788,42.709512 C11.6646223,43.1940599 12.7383985,42.9260902 12.7383985,42.9260902 C12.7383985,42.9260902 12.6807461,36.9775306 12.6266969,35.5532534 C12.5636396,33.813286 12.5113921,33.9454354 12.5113921,33.9454354 L12.7690263,29.6175417 L12.9365786,27.4627718 C12.9365786,27.4627718 13.1509735,29.0448941 13.2969062,30.4581589 C13.4176159,31.6897181 13.7094813,32.8038112 14.0355777,35.0980721 C14.3184348,37.0876551 14.7778525,41.0851753 14.7778525,41.0851753 C15.595796,41.5715586 16.7074066,41.1677687 16.7074066,41.1677687 C16.7074066,41.1677687 16.993867,35.9478663 16.7722655,34.2225821 Z" id="_Контур_20" fill="#2E92F7"></path>
                        <path d="M15.6661333,7.13531213 C15.0566788,7.16630677 14.6037815,7.32902864 14.5273667,7.13531213 C14.4614124,6.80861653 14.414731,6.47803643 14.3875836,6.14542081 C14.4584071,5.96139013 14.5180479,5.7579878 14.5180479,5.7579878 C15.2840594,5.26788505 15.5263501,4.40197228 15.626994,3.40626946 C15.7984613,1.69381557 14.9075768,0.19638701 13.2618635,0.0162306621 C11.7130665,-0.15036553 10.5743,0.984813175 10.2705047,2.5345452 C10.1064925,3.30941121 9.78033188,4.75066199 10.2220465,6.02144224 C10.4680648,6.72657031 10.781179,7.28641101 11.1017483,7.39489225 C11.4087624,7.38671049 11.7150007,7.35889184 12.0187256,7.31159415 L12.0187256,7.31159415 C12.0187256,7.31159415 12.1007317,7.78813675 12.1585087,8.08646016 C12.2162858,8.38478358 12.1920567,8.55331693 11.6086951,8.92718978 C11.0253336,9.30106263 12.4921245,10.0720543 13.4519686,9.99456771 C14.4118127,9.91708111 15.4797558,9.33399444 15.7742322,8.68116983 C16.1041204,7.9624816 16.0761637,7.11400332 15.6661333,7.13531213 Z" id="_Контур_21" fill="#FFCEA9"></path>
                        <path d="M14.8954314,8.1397762 C15.0588556,8.55107301 14.641216,9.05376911 13.5262999,9.41022635 C12.4113839,9.76668358 12.3096977,9.30968713 12.3096977,9.30968713 C12.3096977,9.30968713 10.675456,10.0591613 10.1416036,10.4338984 C9.47338034,10.9055187 9.17558517,12.2618842 9.08479396,14.5706303 C8.98129198,17.2340057 8.97221286,21.184283 9.05937242,21.8661217 C9.05937242,21.8661217 10.3104753,23.121948 11.9120322,22.990333 C13.5135892,22.858718 16.2082723,21.4310611 16.861969,20.3287856 C16.8438108,17.9944478 16.5714371,17.6142267 16.9473127,16.2688291 C17.8080134,13.188673 18.2601536,11.9273628 17.8425141,9.8800187 C17.4975075,8.19278779 17.0144982,7.98439741 16.3535382,8.00084928 C15.865392,8.0209877 15.3786629,8.06736275 14.8954314,8.1397762 L14.8954314,8.1397762 Z" id="_Контур_22" fill="#F4F4F4"></path>
                        <path d="M6.68741721,15.9387376 C8.06832151,16.2751422 8.39256699,15.4350497 8.573763,14.7420192 C9.01244806,13.0599958 9.24895653,11.541579 9.57701667,10.5856749 C9.95848194,9.4606494 10.3666498,9.28233653 10.9331257,9.06174329 C11.6006899,8.80438451 12.1728879,9.34667623 11.951638,10.7805323 C11.688427,12.4754237 11.3451082,13.6647889 10.6870806,15.6703491 C10.5154212,16.1942581 10.1301413,17.1244262 9.55412875,17.5748041 C8.84078869,18.1262872 7.76887127,18.1060661 6.14573652,17.7163514 C5.45337705,17.5509065 4.69426116,17.1520004 3.38583527,16.5637517 C3.03488721,16.4056599 2.76023222,16.3008781 2.08694601,15.9975624 C1.4136598,15.6942467 0.709856367,15.1887205 0.357000988,14.6960623 C0.00414560973,14.2034041 -0.0435375496,13.9607515 0.0289408526,13.857808 C0.118585192,13.7162607 0.278800607,13.7475114 0.467625918,13.9552367 C0.73990071,14.306633 1.0767063,14.6069463 1.46134296,14.8412862 C1.46134296,14.8412862 1.02456522,14.4074528 0.788056748,14.1261964 C0.576538652,13.8753635 0.4007781,13.5983922 0.265449323,13.3026483 C0.141473108,13.0158771 0.398962169,12.6261624 0.593509458,12.8302111 C0.788056748,13.0342599 0.883423067,13.2438235 1.2400931,13.6555975 C1.42738433,13.876066 1.6419638,14.073617 1.87904743,14.2438462 C1.65761413,13.9530146 1.46053783,13.6456655 1.28968358,13.3247077 C1.13696709,13.075285 1.0621337,12.7887028 1.0741557,12.4993213 C1.08369234,12.3485826 1.30494219,12.1702697 1.51093344,12.4552026 C1.70166608,12.7107231 1.81992032,13.1114675 2.2528834,13.5471392 C2.56759225,13.8614845 2.83652527,14.043474 2.84415458,13.9552367 C2.85178388,13.8669994 2.65342194,13.6960396 2.54088968,13.3283842 C2.42835743,12.9607288 2.54088968,12.5728524 2.75260291,12.530572 C2.96431614,12.4882916 2.92235496,12.4993213 3.09019968,12.8430791 C3.2580444,13.1868369 3.51934811,13.4405191 3.71771005,13.9460453 C3.82588405,14.3000847 4.02233366,14.6232211 4.28990797,14.8872431 C4.62559741,15.2365157 5.37517667,15.6207156 6.68741721,15.9387376 Z" id="_Контур_23" fill="#FFCEA9"></path>
                        <path d="M10.9240616,9.02271959 C9.91526033,8.89599495 9.20304248,9.28330828 8.75607878,10.5916063 C8.30911508,11.8999043 8,12.9708167 8,12.9708167 C8.3987614,13.4634773 9.00358117,13.8065578 9.68968987,13.9292833 C10.8969096,14.1791629 11.3313416,13.6865432 11.3313416,13.6865432 C11.3313416,13.6865432 11.6676087,12.3175601 11.8764702,11.3858663 C12.0853317,10.4541725 12.1730536,9.17978674 10.9240616,9.02271959 Z" id="_Контур_24" fill="#EDEDED"></path>
                        <path d="M10.338062,2.47822048 C10.338062,2.47822048 8.87108612,0.459099487 12.0488939,0.0413503159 C14.3396037,-0.254555347 15.81234,1.08572324 15.9813111,2.52695788 C16.1445218,3.91075201 15.2036602,5.34676479 14.5258559,5.91768866 C14.1955943,6.02386657 13.4813076,6.09175081 12.5462064,5.70011096 C12.508197,5.32343761 12.493453,4.94513217 12.5020436,4.56696634 C12.5020436,4.56696634 13.6195566,2.44166743 10.338062,2.47822048 Z" id="路径" fill="#1965B1"></path>
                    </g>
                </g>
            </g>
        </g>
    </g>
</svg>