<?xml version="1.0" standalone="no"?><!DOCTYPE svg PUBLIC "-//W3C//DTD SVG 1.1//EN" "http://www.w3.org/Graphics/SVG/1.1/DTD/svg11.dtd"><svg t="1610341148959" class="icon" viewBox="0 0 1024 1024" version="1.1" xmlns="http://www.w3.org/2000/svg" p-id="10899" xmlns:xlink="http://www.w3.org/1999/xlink" width="200" height="200"><defs><style type="text/css"></style></defs><path d="M512 64a448 448 0 1 0 0 896A448 448 0 0 0 512 64z m-32 232c0-4.416 3.584-8 8-8h48c4.416 0 8 3.584 8 8v272A8 8 0 0 1 536 576h-48a8 8 0 0 1-8-8v-272zM512 736A48 48 0 1 1 512 640a48 48 0 0 1 0 96z" p-id="10900"></path></svg>