<?xml version="1.0" standalone="no"?><!DOCTYPE svg PUBLIC "-//W3C//DTD SVG 1.1//EN" "http://www.w3.org/Graphics/SVG/1.1/DTD/svg11.dtd"><svg t="1610341121316" class="icon" viewBox="0 0 1024 1024" version="1.1" xmlns="http://www.w3.org/2000/svg" p-id="9894" xmlns:xlink="http://www.w3.org/1999/xlink" width="200" height="200"><defs><style type="text/css"></style></defs><path d="M480 96a32 32 0 0 1 64 0v192a32 32 0 0 1-64 0v-192z m250.624 60.608a32 32 0 0 1 51.776 37.632l-112.832 155.392a32 32 0 0 1-51.84-37.632l112.896-155.392z m167.104 196.416a32 32 0 1 1 19.84 60.864l-182.656 59.328a32 32 0 0 1-19.776-60.864l182.656-59.328z m19.84 257.088a32 32 0 1 1-19.84 60.864l-182.592-59.328a32 32 0 0 1 19.776-60.864l182.592 59.328z m-135.168 219.648a32 32 0 1 1-51.776 37.632l-112.896-155.328a32 32 0 1 1 51.84-37.632l112.832 155.328zM544 928a32 32 0 1 1-64 0v-192a32 32 0 1 1 64 0v192z m-250.624-60.608a32 32 0 0 1-51.776-37.696l112.832-155.328a32 32 0 1 1 51.84 37.632l-112.896 155.392z m-167.104-196.416a32 32 0 1 1-19.84-60.864l182.656-59.328a32 32 0 0 1 19.776 60.864l-182.592 59.328z m-19.84-257.088a32 32 0 0 1 19.84-60.864l182.592 59.328a32 32 0 1 1-19.776 60.864l-182.656-59.328z m135.168-219.648a32 32 0 1 1 51.776-37.632l112.896 155.328a32 32 0 1 1-51.84 37.632L241.6 194.24z" p-id="9895"></path></svg>