<?xml version="1.0" standalone="no"?><!DOCTYPE svg PUBLIC "-//W3C//DTD SVG 1.1//EN" "http://www.w3.org/Graphics/SVG/1.1/DTD/svg11.dtd"><svg t="1610341124535" class="icon" viewBox="0 0 1024 1024" version="1.1" xmlns="http://www.w3.org/2000/svg" p-id="10039" xmlns:xlink="http://www.w3.org/1999/xlink" width="200" height="200"><defs><style type="text/css"></style></defs><path d="M512 64a448 448 0 1 0 0 896A448 448 0 0 0 512 64z m165.376 618.24l-65.92-0.32L512 563.392l-99.328 118.4-66.048 0.32a7.936 7.936 0 0 1-8-8c0-1.92 0.64-3.712 1.92-5.184L470.528 513.92 340.48 359.04a8 8 0 0 1 6.08-13.184l66.112 0.256L512 464.576l99.328-118.4 65.92-0.256c4.48 0 8.064 3.456 8.064 8a8.32 8.32 0 0 1-1.92 5.12l-129.92 154.944 130.048 155.008a8 8 0 0 1-6.08 13.184z" p-id="10040"></path></svg>