<?xml version="1.0" encoding="UTF-8"?>
<svg width="31px" height="33px" viewBox="0 0 31 33" version="1.1" xmlns="http://www.w3.org/2000/svg" xmlns:xlink="http://www.w3.org/1999/xlink">
    <!-- Generator: Sketch 64 (93537) - https://sketch.com -->
    <title>connector</title>
    <desc>Created with Sketch.</desc>
    <defs>
        <path d="M1.447,0.273 L6.006,2.753 C5.685,3.058 5.508,3.463 5.507,3.852 C5.506,4.304 5.722,4.667 6.048,4.845 L1.489,2.364 C1.164,2.187 0.947,1.823 0.947996558,1.372" id="path-1"></path>
        <path d="M1.447,0.273 L6.006,2.753 C5.685,3.058 5.508,3.463 5.507,3.852 C5.506,4.304 5.722,4.667 6.048,4.845 L1.489,2.364 C1.164,2.187 0.947,1.823 0.947996558,1.372" id="path-3"></path>
        <path d="M1.447,0.273 L6.006,2.753 C5.685,3.058 5.508,3.463 5.507,3.852 C5.506,4.304 5.722,4.667 6.048,4.845 L1.489,2.364 C1.164,2.187 0.947,1.823 0.947996558,1.372" id="path-5"></path>
        <path d="M1.447,0.273 L6.006,2.753 C5.685,3.058 5.508,3.463 5.507,3.852 C5.506,4.304 5.722,4.667 6.048,4.845 L1.489,2.364 C1.164,2.187 0.947,1.823 0.947996558,1.372" id="path-7"></path>
        <path d="M1.447,0.273 L6.006,2.753 C5.685,3.058 5.508,3.463 5.507,3.852 C5.506,4.304 5.722,4.667 6.048,4.845 L1.489,2.364 C1.164,2.187 0.947,1.823 0.947996558,1.372" id="path-9"></path>
        <path d="M0.962,0.656 L5.52,3.137 C6.208,3.783 6.582,4.716 6.58000798,5.77 C6.578,6.816 6.2,7.864 5.51,8.695 L0.951,6.216 C1.641,5.384 2.02,4.337 2.022,3.291" id="path-11"></path>
        <path d="M0.962,0.656 L5.52,3.137 C6.208,3.783 6.582,4.716 6.58000798,5.77 C6.578,6.816 6.2,7.864 5.51,8.695 L0.951,6.216 C1.641,5.384 2.02,4.337 2.022,3.291" id="path-13"></path>
        <path d="M0.962,0.656 L5.52,3.137 C6.208,3.783 6.582,4.716 6.58000798,5.77 C6.578,6.816 6.2,7.864 5.51,8.695 L0.951,6.216 C1.641,5.384 2.02,4.337 2.022,3.291" id="path-15"></path>
        <path d="M0.962,0.656 L5.52,3.137 C6.208,3.783 6.582,4.716 6.58000798,5.77 C6.578,6.816 6.2,7.864 5.51,8.695 L0.951,6.216 C1.641,5.384 2.02,4.337 2.022,3.291" id="path-17"></path>
        <path d="M0.23,0.106 L4.789,2.586 C5.013,2.708 5.223,2.859 5.416,3.038 L0.858,0.559" id="path-19"></path>
        <path d="M1.047,0.594 L5.606,3.074 C6.277,3.705 6.58,4.683 6.466,5.822 C6.359,6.884 5.893,7.978 5.195,8.828 L0.636,6.348 C1.334,5.498 1.801,4.403 1.906,3.343" id="path-21"></path>
        <path d="M1.047,0.594 L5.606,3.074 C6.277,3.705 6.58,4.683 6.466,5.822 C6.359,6.884 5.893,7.978 5.195,8.828 L0.636,6.348 C1.334,5.498 1.801,4.403 1.906,3.343" id="path-23"></path>
        <path d="M1.047,0.594 L5.606,3.074 C6.277,3.705 6.58,4.683 6.466,5.822 C6.359,6.884 5.893,7.978 5.195,8.828 L0.636,6.348 C1.334,5.498 1.801,4.403 1.906,3.343" id="path-25"></path>
        <path d="M1.047,0.594 L5.606,3.074 C6.277,3.705 6.58,4.683 6.466,5.822 C6.359,6.884 5.893,7.978 5.195,8.828 L0.636,6.348 C1.334,5.498 1.801,4.403 1.906,3.343" id="path-27"></path>
        <path d="M0.551,0.18 L5.11,2.659 C5.262,2.776 5.382,2.872 5.502,2.976 L0.943,0.496" id="path-29"></path>
        <path d="M0.675,1.074 L5.233,3.554 C5.059,3.459 4.865,3.427 4.666,3.455 L0.108,0.975" id="path-31"></path>
        <path d="M0.675,1.074 L5.233,3.554 C5.059,3.459 4.865,3.427 4.666,3.455 L0.108,0.975" id="path-33"></path>
        <path d="M0.675,1.074 L5.233,3.554 C5.059,3.459 4.865,3.427 4.666,3.455 L0.108,0.975" id="path-35"></path>
        <path d="M0.569,0.778 L5.127,3.259 C5.177,3.317 5.227,3.359 5.287,3.392 L0.728,0.912" id="path-37"></path>
        <path d="M1.108,0.975 L5.666,3.455 C5.073,3.538 4.6,4.123 4.599,4.755 C4.598,5.022 4.686,5.27 4.846,5.454 C4.907,5.526 4.98,5.591 5.064,5.637 L0.505,3.157 C0.421,3.111 0.348,3.047 0.287,2.975 C0.128,2.79 0.04,2.543 0.04,2.274" id="path-39"></path>
        <path d="M1.108,0.975 L5.666,3.455 C5.073,3.538 4.6,4.123 4.599,4.755 C4.598,5.022 4.686,5.27 4.846,5.454 C4.907,5.526 4.98,5.591 5.064,5.637 L0.505,3.157 C0.421,3.111 0.348,3.047 0.287,2.975 C0.128,2.79 0.04,2.543 0.04,2.274" id="path-41"></path>
        <path d="M1.108,0.975 L5.666,3.455 C5.073,3.538 4.6,4.123 4.599,4.755 C4.598,5.022 4.686,5.27 4.846,5.454 C4.907,5.526 4.98,5.591 5.064,5.637 L0.505,3.157 C0.421,3.111 0.348,3.047 0.287,2.975 C0.128,2.79 0.04,2.543 0.04,2.274" id="path-43"></path>
        <path d="M1.108,0.975 L5.666,3.455 C5.073,3.538 4.6,4.123 4.599,4.755 C4.598,5.022 4.686,5.27 4.846,5.454 C4.907,5.526 4.98,5.591 5.064,5.637 L0.505,3.157 C0.421,3.111 0.348,3.047 0.287,2.975 C0.128,2.79 0.04,2.543 0.04,2.274" id="path-45"></path>
        <path d="M1.108,0.975 L5.666,3.455 C5.073,3.538 4.6,4.123 4.599,4.755 C4.598,5.022 4.686,5.27 4.846,5.454 C4.907,5.526 4.98,5.591 5.064,5.637 L0.505,3.157 C0.421,3.111 0.348,3.047 0.287,2.975 C0.128,2.79 0.04,2.543 0.04,2.274" id="path-47"></path>
        <path d="M1.108,0.975 L5.666,3.455 C5.073,3.538 4.6,4.123 4.599,4.755 C4.598,5.022 4.686,5.27 4.846,5.454 C4.907,5.526 4.98,5.591 5.064,5.637 L0.505,3.157 C0.421,3.111 0.348,3.047 0.287,2.975 C0.128,2.79 0.04,2.543 0.04,2.274" id="path-49"></path>
        <path d="M1.108,0.975 L5.666,3.455 C5.073,3.538 4.6,4.123 4.599,4.755 C4.598,5.022 4.686,5.27 4.846,5.454 C4.907,5.526 4.98,5.591 5.064,5.637 L0.505,3.157 C0.421,3.111 0.348,3.047 0.287,2.975 C0.128,2.79 0.04,2.543 0.04,2.274" id="path-51"></path>
        <path d="M1.108,0.975 L5.666,3.455 C5.073,3.538 4.6,4.123 4.599,4.755 C4.598,5.022 4.686,5.27 4.846,5.454 C4.907,5.526 4.98,5.591 5.064,5.637 L0.505,3.157 C0.421,3.111 0.348,3.047 0.287,2.975 C0.128,2.79 0.04,2.543 0.04,2.274" id="path-53"></path>
        <path d="M3.548,0.691 L8.107,3.171 C7.118,2.633 5.985,2.454 4.851,2.613 L0.292,0.134" id="path-55"></path>
        <path d="M3.548,0.691 L8.107,3.171 C7.118,2.633 5.985,2.454 4.851,2.613 L0.292,0.134" id="path-57"></path>
        <path d="M3.548,0.691 L8.107,3.171 C7.118,2.633 5.985,2.454 4.851,2.613 L0.292,0.134" id="path-59"></path>
        <path d="M0.233,0.497 L4.791,2.978 C4.904,3.082 5.015,3.17 5.127,3.259 L0.569,0.778" id="path-61"></path>
        <path d="M4.937,0.277 L9.496,2.757 C8.785,3.626 7.853,4.142 6.922,4.272 C6.248,4.367 5.574,4.261 4.985,3.939 L0.426,1.46 C1.015,1.78 1.689,1.888 2.363,1.793" id="path-63"></path>
        <path d="M4.937,0.277 L9.496,2.757 C8.785,3.626 7.853,4.142 6.922,4.272 C6.248,4.367 5.574,4.261 4.985,3.939 L0.426,1.46 C1.015,1.78 1.689,1.888 2.363,1.793" id="path-65"></path>
        <path d="M4.937,0.277 L9.496,2.757 C8.785,3.626 7.853,4.142 6.922,4.272 C6.248,4.367 5.574,4.261 4.985,3.939 L0.426,1.46 C1.015,1.78 1.689,1.888 2.363,1.793" id="path-67"></path>
        <path d="M4.937,0.277 L9.496,2.757 C8.785,3.626 7.853,4.142 6.922,4.272 C6.248,4.367 5.574,4.261 4.985,3.939 L0.426,1.46 C1.015,1.78 1.689,1.888 2.363,1.793" id="path-69"></path>
        <path d="M4.937,0.277 L9.496,2.757 C8.785,3.626 7.853,4.142 6.922,4.272 C6.248,4.367 5.574,4.261 4.985,3.939 L0.426,1.46 C1.015,1.78 1.689,1.888 2.363,1.793" id="path-71"></path>
        <path d="M4.937,0.277 L9.496,2.757 C8.785,3.626 7.853,4.142 6.922,4.272 C6.248,4.367 5.574,4.261 4.985,3.939 L0.426,1.46 C1.015,1.78 1.689,1.888 2.363,1.793" id="path-73"></path>
        <path d="M4.937,0.277 L9.496,2.757 C8.785,3.626 7.853,4.142 6.922,4.272 C6.248,4.367 5.574,4.261 4.985,3.939 L0.426,1.46 C1.015,1.78 1.689,1.888 2.363,1.793" id="path-75"></path>
        <path d="M0.052,0.12 L4.611,2.601 C4.933,2.902 5.283,3.153 5.653,3.354 L1.094,0.874" id="path-77"></path>
        <path d="M5.292,0.134 L9.851,2.613 C8.292,2.832 6.731,3.691 5.539,5.138 L0.98,2.658" id="path-79"></path>
        <path d="M5.292,0.134 L9.851,2.613 C8.292,2.832 6.731,3.691 5.539,5.138 L0.98,2.658" id="path-81"></path>
        <path d="M5.292,0.134 L9.851,2.613 C8.292,2.832 6.731,3.691 5.539,5.138 L0.98,2.658" id="path-83"></path>
        <path d="M5.292,0.134 L9.851,2.613 C8.292,2.832 6.731,3.691 5.539,5.138 L0.98,2.658" id="path-85"></path>
        <path d="M5.292,0.134 L9.851,2.613 C8.292,2.832 6.731,3.691 5.539,5.138 L0.98,2.658" id="path-87"></path>
        <path d="M2.281,0.596 L6.84,3.076 C4.44,5.998 4.377,9.706 6.688,11.888 L2.129,9.408" id="path-89"></path>
        <path d="M2.281,0.596 L6.84,3.076 C4.44,5.998 4.377,9.706 6.688,11.888 L2.129,9.408" id="path-91"></path>
        <path d="M2.281,0.596 L6.84,3.076 C4.44,5.998 4.377,9.706 6.688,11.888 L2.129,9.408" id="path-93"></path>
        <path d="M2.281,0.596 L6.84,3.076 C4.44,5.998 4.377,9.706 6.688,11.888 L2.129,9.408" id="path-95"></path>
        <path d="M2.137,0.219 L6.696,2.699 C6.513,2.6 6.296,2.558 6.063,2.591 C5.831,2.623 5.598,2.725 5.382,2.92 L0.823,0.439 C1.04,0.245 1.272,0.144 1.504,0.11" id="path-97"></path>
        <path d="M2.137,0.219 L6.696,2.699 C6.513,2.6 6.296,2.558 6.063,2.591 C5.831,2.623 5.598,2.725 5.382,2.92 L0.823,0.439 C1.04,0.245 1.272,0.144 1.504,0.11" id="path-99"></path>
        <path d="M2.137,0.219 L6.696,2.699 C6.513,2.6 6.296,2.558 6.063,2.591 C5.831,2.623 5.598,2.725 5.382,2.92 L0.823,0.439 C1.04,0.245 1.272,0.144 1.504,0.11" id="path-101"></path>
        <path d="M2.137,0.219 L6.696,2.699 C6.513,2.6 6.296,2.558 6.063,2.591 C5.831,2.623 5.598,2.725 5.382,2.92 L0.823,0.439 C1.04,0.245 1.272,0.144 1.504,0.11" id="path-103"></path>
        <path d="M2.137,0.219 L6.696,2.699 C6.513,2.6 6.296,2.558 6.063,2.591 C5.831,2.623 5.598,2.725 5.382,2.92 L0.823,0.439 C1.04,0.245 1.272,0.144 1.504,0.11" id="path-105"></path>
        <path d="M0.823,0.439 L5.382,2.92 C5.293,2.992 5.221,3.08 5.157,3.176 L0.598,0.696" id="path-107"></path>
        <path d="M0.823,0.439 L5.382,2.92 C5.293,2.992 5.221,3.08 5.157,3.176 L0.598,0.696" id="path-109"></path>
        <path d="M0.823,0.439 L5.382,2.92 C5.293,2.992 5.221,3.08 5.157,3.176 L0.598,0.696" id="path-111"></path>
        <path d="M0.823,0.439 L5.382,2.92 C5.293,2.992 5.221,3.08 5.157,3.176 L0.598,0.696" id="path-113"></path>
        <path d="M1.958,0.729 L6.516,3.209 C5.377,4.597 4.741,6.337 4.738,8.101 C4.734,9.864 5.364,11.418 6.508,12.494 L1.948,10.014 C0.805,8.938 0.176,7.385 0.178989318,5.621" id="path-115"></path>
        <path d="M1.958,0.729 L6.516,3.209 C5.377,4.597 4.741,6.337 4.738,8.101 C4.734,9.864 5.364,11.418 6.508,12.494 L1.948,10.014 C0.805,8.938 0.176,7.385 0.178989318,5.621" id="path-117"></path>
        <path d="M1.958,0.729 L6.516,3.209 C5.377,4.597 4.741,6.337 4.738,8.101 C4.734,9.864 5.364,11.418 6.508,12.494 L1.948,10.014 C0.805,8.938 0.176,7.385 0.178989318,5.621" id="path-119"></path>
        <path d="M1.958,0.729 L6.516,3.209 C5.377,4.597 4.741,6.337 4.738,8.101 C4.734,9.864 5.364,11.418 6.508,12.494 L1.948,10.014 C0.805,8.938 0.176,7.385 0.178989318,5.621" id="path-121"></path>
    </defs>
    <g id="工作空间项目-开发中心-具体工作流" stroke="none" stroke-width="1" fill="none" fill-rule="evenodd">
        <g id="侧边栏icon" transform="translate(-33.000000, -791.000000)">
            <g id="connector" transform="translate(31.000000, 789.000000)">
                <g id="编组-29备份-16">
                    <g id="编组-30">
                        <rect id="矩形备份-17" x="0" y="0" width="36" height="36"></rect>
                    </g>
                </g>
                <g id="编组" transform="translate(2.000000, 2.000000)">
                    <polygon id="Fill-59" fill="#68D8D5" points="25.0056 14.7529 20.4466 12.2739 22.9516 9.2159 27.5096 11.6949"></polygon>
                    <g transform="translate(19.000000, 12.000000)">
                        <g>
                            <mask id="mask-2" fill="white">
                                <use xlink:href="#path-1"></use>
                            </mask>
                            <g id="Clip-62"></g>
                            <path d="M6.0476,4.8447 L1.4886,2.3647 C1.1636,2.1877 0.9476,1.8237 0.948596542,1.3717 C0.948596542,1.2117 0.9786,1.0477 1.0366,0.8907 L5.5956,3.3697 C5.5376,3.5287 5.5076,3.6917 5.5066,3.8517 C5.5056,4.3037 5.7226,4.6667 6.0476,4.8447" id="Fill-61" fill="#83DFDC" mask="url(#mask-2)"></path>
                        </g>
                        <g>
                            <mask id="mask-4" fill="white">
                                <use xlink:href="#path-3"></use>
                            </mask>
                            <g id="Clip-64"></g>
                            <path d="M5.5954,3.3701 L1.0364,0.8911 C1.0614,0.8221 1.0924,0.7551 1.1274,0.6891 L5.6864,3.1701 C5.6504,3.2351 5.6204,3.3031 5.5954,3.3701" id="Fill-63" fill="#7EDEDB" mask="url(#mask-4)"></path>
                        </g>
                        <g>
                            <mask id="mask-6" fill="white">
                                <use xlink:href="#path-5"></use>
                            </mask>
                            <g id="Clip-66"></g>
                            <path d="M5.6862,3.1699 L1.1272,0.6899 C1.1572,0.6339 1.1912,0.5789 1.2282,0.5259 L5.7872,3.0069 C5.7492,3.0599 5.7162,3.1139 5.6862,3.1699" id="Fill-65" fill="#7ADCD9" mask="url(#mask-6)"></path>
                        </g>
                        <g>
                            <mask id="mask-8" fill="white">
                                <use xlink:href="#path-7"></use>
                            </mask>
                            <g id="Clip-68"></g>
                            <path d="M5.7868,3.0068 L1.2278,0.5268 C1.2638,0.4768 1.3018,0.4278 1.3428,0.3808 L5.9018,2.8608 C5.8608,2.9068 5.8218,2.9558 5.7868,3.0068" id="Fill-67" fill="#75DBD8" mask="url(#mask-8)"></path>
                        </g>
                        <g>
                            <mask id="mask-10" fill="white">
                                <use xlink:href="#path-9"></use>
                            </mask>
                            <g id="Clip-70"></g>
                            <path d="M5.9016,2.8603 L1.3426,0.3813 C1.3756,0.3433 1.4106,0.3073 1.4466,0.2733 L6.0056,2.7533 C5.9686,2.7883 5.9346,2.8233 5.9016,2.8603" id="Fill-69" fill="#70DAD7" mask="url(#mask-10)"></path>
                        </g>
                    </g>
                    <g transform="translate(22.000000, 3.000000)">
                        <g>
                            <mask id="mask-12" fill="white">
                                <use xlink:href="#path-11"></use>
                            </mask>
                            <g id="Clip-72"></g>
                            <path d="M5.51,8.6953 L0.951,6.2163 C1.032,6.1193 1.108,6.0183 1.18,5.9163 L5.739,8.3963 C5.667,8.4993 5.591,8.5983 5.51,8.6953" id="Fill-71" fill="#75DBD8" mask="url(#mask-12)"></path>
                        </g>
                        <g>
                            <mask id="mask-14" fill="white">
                                <use xlink:href="#path-13"></use>
                            </mask>
                            <g id="Clip-74"></g>
                            <path d="M5.7385,8.3965 L1.1795,5.9165 C1.2865,5.7645 1.3835,5.6075 1.4695,5.4465 L6.0285,7.9255 C5.9415,8.0875 5.8445,8.2445 5.7385,8.3965" id="Fill-73" fill="#7ADCD9" mask="url(#mask-14)"></path>
                        </g>
                        <g>
                            <mask id="mask-16" fill="white">
                                <use xlink:href="#path-15"></use>
                            </mask>
                            <g id="Clip-76"></g>
                            <path d="M6.0285,7.9258 L1.4695,5.4468 C1.5745,5.2518 1.6645,5.0508 1.7405,4.8448 L6.2995,7.3248 C6.2235,7.5298 6.1325,7.7318 6.0285,7.9258" id="Fill-75" fill="#7EDEDB" mask="url(#mask-16)"></path>
                        </g>
                        <g>
                            <mask id="mask-18" fill="white">
                                <use xlink:href="#path-17"></use>
                            </mask>
                            <g id="Clip-78"></g>
                            <path d="M6.299,7.3252 L1.74,4.8452 C1.924,4.3452 2.021,3.8172 2.022,3.2912 C2.024,2.2362 1.649,1.3032 0.962,0.6562 L5.52,3.1372 C6.208,3.7832 6.582,4.7162 6.58000798,5.7702 C6.579,6.2982 6.483,6.8252 6.299,7.3252" id="Fill-77" fill="#83DFDC" mask="url(#mask-18)"></path>
                        </g>
                    </g>
                    <polygon id="Fill-79" fill="#88E0DE" points="27.5202 6.1367 22.9612 3.6567 22.8572 3.5587 27.4162 6.0377"></polygon>
                    <g transform="translate(22.000000, 3.000000)">
                        <mask id="mask-20" fill="white">
                            <use xlink:href="#path-19"></use>
                        </mask>
                        <g id="Clip-82"></g>
                        <path d="M5.4162,3.0381 L0.8572,0.5591 C0.6652,0.3801 0.4542,0.2281 0.2302,0.1061 L4.7892,2.5861 C5.0132,2.7081 5.2232,2.8591 5.4162,3.0381" id="Fill-81" fill="#83DFDC" mask="url(#mask-20)"></path>
                    </g>
                    <polygon id="Fill-83" fill="#68D8D5" points="13.4958 28.7568 8.9368 26.2778 14.6358 19.3478 19.1948 21.8278"></polygon>
                    <g transform="translate(14.000000, 13.000000)">
                        <g>
                            <mask id="mask-22" fill="white">
                                <use xlink:href="#path-21"></use>
                            </mask>
                            <g id="Clip-86"></g>
                            <path d="M5.1945,8.8281 L0.6355,6.3481 C0.7255,6.2391 0.8105,6.1261 0.8925,6.0101 L5.4505,8.4901 C5.3695,8.6061 5.2835,8.7191 5.1945,8.8281" id="Fill-85" fill="#75DBD8" mask="url(#mask-22)"></path>
                        </g>
                        <g>
                            <mask id="mask-24" fill="white">
                                <use xlink:href="#path-23"></use>
                            </mask>
                            <g id="Clip-88"></g>
                            <path d="M5.4509,8.4902 L0.8919,6.0102 C1.0239,5.8222 1.1449,5.6252 1.2549,5.4222 L5.8139,7.9012 C5.7039,8.1042 5.5829,8.3022 5.4509,8.4902" id="Fill-87" fill="#7ADCD9" mask="url(#mask-24)"></path>
                        </g>
                        <g>
                            <mask id="mask-26" fill="white">
                                <use xlink:href="#path-25"></use>
                            </mask>
                            <g id="Clip-90"></g>
                            <path d="M5.8137,7.9013 L1.2547,5.4223 C1.3877,5.1743 1.5027,4.9193 1.5987,4.6583 L6.1567,7.1373 C6.0617,7.3993 5.9457,7.6553 5.8137,7.9013" id="Fill-89" fill="#7EDEDB" mask="url(#mask-26)"></path>
                        </g>
                        <g>
                            <mask id="mask-28" fill="white">
                                <use xlink:href="#path-27"></use>
                            </mask>
                            <g id="Clip-92"></g>
                            <path d="M6.157,7.1377 L1.598,4.6587 C1.757,4.2277 1.863,3.7827 1.907,3.3427 C2.021,2.2027 1.719,1.2257 1.047,0.5937 L5.606,3.0747 C6.277,3.7047 6.58,4.6827 6.466,5.8227 C6.422,6.2617 6.316,6.7067 6.157,7.1377" id="Fill-91" fill="#83DFDC" mask="url(#mask-28)"></path>
                        </g>
                    </g>
                    <polygon id="Fill-93" fill="#88E0DE" points="19.6057 16.0742 15.0467 13.5942 14.9427 13.4962 19.5017 15.9752"></polygon>
                    <g transform="translate(14.000000, 13.000000)">
                        <mask id="mask-30" fill="white">
                            <use xlink:href="#path-29"></use>
                        </mask>
                        <g id="Clip-96"></g>
                        <path d="M5.5017,2.9756 L0.9427,0.4966 C0.8227,0.3916 0.7027,0.2966 0.5507,0.1796 L5.1097,2.6596 C5.2617,2.7766 5.3817,2.8716 5.5017,2.9756" id="Fill-95" fill="#83DFDC" mask="url(#mask-30)"></path>
                    </g>
                    <polygon id="Fill-97" fill="#88E0DE" points="15.4153 21.4775 10.8563 18.9975 10.8163 18.9515 15.3753 21.4305"></polygon>
                    <g transform="translate(15.000000, 10.000000)">
                        <g>
                            <mask id="mask-32" fill="white">
                                <use xlink:href="#path-31"></use>
                            </mask>
                            <g id="Clip-100"></g>
                            <path d="M4.6662,3.455 L0.1072,0.975 C0.2322,0.957 0.3542,0.964 0.4722,0.994 L5.0302,3.474 C4.9132,3.443 4.7912,3.437 4.6662,3.455" id="Fill-99" fill="#62D6D3" mask="url(#mask-32)"></path>
                        </g>
                        <g>
                            <mask id="mask-34" fill="white">
                                <use xlink:href="#path-33"></use>
                            </mask>
                            <g id="Clip-102"></g>
                            <path d="M5.0305,3.4736 L0.4715,0.9946 C0.5305,1.0086 0.5865,1.0306 0.6415,1.0566 L5.1995,3.5366 C5.1455,3.5096 5.0885,3.4896 5.0305,3.4736" id="Fill-101" fill="#67D7D4" mask="url(#mask-34)"></path>
                        </g>
                        <g>
                            <mask id="mask-36" fill="white">
                                <use xlink:href="#path-35"></use>
                            </mask>
                            <g id="Clip-104"></g>
                            <path d="M5.1999,3.5371 L0.6409,1.0571 C0.6519,1.0621 0.6629,1.0681 0.6749,1.0741 L5.2329,3.5541 C5.2219,3.5481 5.2109,3.5421 5.1999,3.5371" id="Fill-103" fill="#6BD9D5" mask="url(#mask-36)"></path>
                        </g>
                    </g>
                    <g transform="translate(10.000000, 18.000000)">
                        <mask id="mask-38" fill="white">
                            <use xlink:href="#path-37"></use>
                        </mask>
                        <g id="Clip-106"></g>
                        <path d="M5.2868,3.3916 L0.7278,0.9126 C0.6678,0.8786 0.6188,0.8366 0.5688,0.7786 L5.1268,3.2586 C5.1768,3.3176 5.2268,3.3596 5.2868,3.3916" id="Fill-105" fill="#83DFDC" mask="url(#mask-38)"></path>
                    </g>
                    <g transform="translate(14.000000, 10.000000)">
                        <g>
                            <mask id="mask-40" fill="white">
                                <use xlink:href="#path-39"></use>
                            </mask>
                            <g id="Clip-108"></g>
                            <path d="M5.0642,5.6367 L0.5052,3.1577 C0.4212,3.1117 0.3482,3.0467 0.2872,2.9747 C0.1272,2.7897 0.0402,2.5427 0.0402,2.2747 C0.0412,2.1177 0.0692,1.9647 0.1232,1.8217 L4.6812,4.3017 C4.6282,4.4457 4.5992,4.5987 4.5992,4.7547 C4.5982,5.0227 4.6862,5.2697 4.8462,5.4537 C4.9072,5.5267 4.9802,5.5907 5.0642,5.6367" id="Fill-107" fill="#83DFDC" mask="url(#mask-40)"></path>
                        </g>
                        <g>
                            <mask id="mask-42" fill="white">
                                <use xlink:href="#path-41"></use>
                            </mask>
                            <g id="Clip-110"></g>
                            <path d="M4.6814,4.3017 L0.1224,1.8217 C0.1454,1.7597 0.1724,1.6997 0.2034,1.6427 L4.7624,4.1217 C4.7314,4.1797 4.7034,4.2397 4.6814,4.3017" id="Fill-109" fill="#7EDEDB" mask="url(#mask-42)"></path>
                        </g>
                        <g>
                            <mask id="mask-44" fill="white">
                                <use xlink:href="#path-43"></use>
                            </mask>
                            <g id="Clip-112"></g>
                            <path d="M4.7619,4.122 L0.2029,1.643 C0.2299,1.594 0.2589,1.546 0.2899,1.501 L4.8489,3.981 C4.8169,4.026 4.7879,4.073 4.7619,4.122" id="Fill-111" fill="#7ADCD9" mask="url(#mask-44)"></path>
                        </g>
                        <g>
                            <mask id="mask-46" fill="white">
                                <use xlink:href="#path-45"></use>
                            </mask>
                            <g id="Clip-114"></g>
                            <path d="M4.8488,3.9814 L0.2898,1.5014 C0.3198,1.4594 0.3518,1.4184 0.3858,1.3794 L4.9448,3.8594 C4.9108,3.8984 4.8788,3.9384 4.8488,3.9814" id="Fill-113" fill="#75DBD8" mask="url(#mask-46)"></path>
                        </g>
                        <g>
                            <mask id="mask-48" fill="white">
                                <use xlink:href="#path-47"></use>
                            </mask>
                            <g id="Clip-116"></g>
                            <path d="M4.9445,3.8593 L0.3855,1.3803 C0.4205,1.3403 0.4565,1.3043 0.4945,1.2693 L5.0525,3.7503 C5.0145,3.7843 4.9785,3.8203 4.9445,3.8593" id="Fill-115" fill="#70DAD7" mask="url(#mask-48)"></path>
                        </g>
                        <g>
                            <mask id="mask-50" fill="white">
                                <use xlink:href="#path-49"></use>
                            </mask>
                            <g id="Clip-118"></g>
                            <path d="M5.0529,3.75 L0.4939,1.27 C0.5349,1.233 0.5779,1.199 0.6229,1.168 L5.1819,3.648 C5.1369,3.679 5.0939,3.713 5.0529,3.75" id="Fill-117" fill="#6BD9D5" mask="url(#mask-50)"></path>
                        </g>
                        <g>
                            <mask id="mask-52" fill="white">
                                <use xlink:href="#path-51"></use>
                            </mask>
                            <g id="Clip-120"></g>
                            <path d="M5.1819,3.6484 L0.6229,1.1684 C0.6779,1.1294 0.7359,1.0964 0.7959,1.0684 L5.3539,3.5484 C5.2939,3.5774 5.2369,3.6104 5.1819,3.6484" id="Fill-119" fill="#67D7D4" mask="url(#mask-52)"></path>
                        </g>
                        <g>
                            <mask id="mask-54" fill="white">
                                <use xlink:href="#path-53"></use>
                            </mask>
                            <g id="Clip-122"></g>
                            <path d="M5.3542,3.5488 L0.7952,1.0688 C0.8942,1.0228 0.9992,0.9898 1.1072,0.9748 L5.6662,3.4548 C5.5582,3.4698 5.4532,3.5018 5.3542,3.5488" id="Fill-121" fill="#62D6D3" mask="url(#mask-54)"></path>
                        </g>
                    </g>
                    <g transform="translate(20.000000, 0.000000)">
                        <g>
                            <mask id="mask-56" fill="white">
                                <use xlink:href="#path-55"></use>
                            </mask>
                            <g id="Clip-124"></g>
                            <path d="M4.8508,2.6133 L0.2918,0.1343 C1.0128,0.0323 1.7318,0.0673 2.4138,0.2443 L6.9728,2.7243 C6.2898,2.5473 5.5708,2.5113 4.8508,2.6133" id="Fill-123" fill="#62D6D3" mask="url(#mask-56)"></path>
                        </g>
                        <g>
                            <mask id="mask-58" fill="white">
                                <use xlink:href="#path-57"></use>
                            </mask>
                            <g id="Clip-126"></g>
                            <path d="M6.9729,2.7246 L2.4139,0.2446 C2.7419,0.3286 3.0609,0.4466 3.3669,0.5976 L7.9259,3.0776 C7.6189,2.9266 7.3009,2.8086 6.9729,2.7246" id="Fill-125" fill="#67D7D4" mask="url(#mask-58)"></path>
                        </g>
                        <g>
                            <mask id="mask-60" fill="white">
                                <use xlink:href="#path-59"></use>
                            </mask>
                            <g id="Clip-128"></g>
                            <path d="M7.926,3.0771 L3.367,0.5981 C3.428,0.6271 3.488,0.6581 3.548,0.6911 L8.107,3.1711 C8.047,3.1391 7.987,3.1071 7.926,3.0771" id="Fill-127" fill="#6BD9D5" mask="url(#mask-60)"></path>
                        </g>
                    </g>
                    <g transform="translate(10.000000, 18.000000)">
                        <mask id="mask-62" fill="white">
                            <use xlink:href="#path-61"></use>
                        </mask>
                        <g id="Clip-130"></g>
                        <path d="M5.1272,3.2588 L0.5682,0.7788 C0.4572,0.6908 0.3452,0.6028 0.2322,0.4968 L4.7912,2.9778 C4.9032,3.0818 5.0152,3.1698 5.1272,3.2588" id="Fill-129" fill="#83DFDC" mask="url(#mask-62)"></path>
                    </g>
                    <polygon id="Fill-131" fill="#88E0DE" points="14.7912 20.9775 10.2322 18.4975 10.1282 18.4085 14.6872 20.8875"></polygon>
                    <g transform="translate(4.000000, 26.000000)">
                        <g>
                            <mask id="mask-64" fill="white">
                                <use xlink:href="#path-63"></use>
                            </mask>
                            <g id="Clip-134"></g>
                            <path d="M4.9851,3.9394 L0.4261,1.4604 C0.4621,1.4794 0.4981,1.4984 0.5341,1.5154 L5.0931,3.9964 C5.0571,3.9774 5.0211,3.9594 4.9851,3.9394" id="Fill-133" fill="#6BD9D5" mask="url(#mask-64)"></path>
                        </g>
                        <g>
                            <mask id="mask-66" fill="white">
                                <use xlink:href="#path-65"></use>
                            </mask>
                            <g id="Clip-136"></g>
                            <path d="M5.093,3.9961 L0.534,1.5161 C0.717,1.6051 0.907,1.6761 1.103,1.7261 L5.661,4.2061 C5.466,4.1561 5.276,4.0861 5.093,3.9961" id="Fill-135" fill="#67D7D4" mask="url(#mask-66)"></path>
                        </g>
                        <g>
                            <mask id="mask-68" fill="white">
                                <use xlink:href="#path-67"></use>
                            </mask>
                            <g id="Clip-138"></g>
                            <path d="M5.6613,4.206 L1.1023,1.727 C1.5083,1.832 1.9353,1.852 2.3633,1.793 C2.7233,1.742 3.0823,1.634 3.4303,1.471 L7.9883,3.95 C7.6413,4.114 7.2823,4.222 6.9223,4.272 C6.4943,4.333 6.0673,4.311 5.6613,4.206" id="Fill-137" fill="#62D6D3" mask="url(#mask-68)"></path>
                        </g>
                        <g>
                            <mask id="mask-70" fill="white">
                                <use xlink:href="#path-69"></use>
                            </mask>
                            <g id="Clip-140"></g>
                            <path d="M7.9885,3.9502 L3.4295,1.4712 C3.6305,1.3762 3.8255,1.2632 4.0145,1.1332 L8.5735,3.6122 C8.3845,3.7432 8.1885,3.8562 7.9885,3.9502" id="Fill-139" fill="#67D7D4" mask="url(#mask-70)"></path>
                        </g>
                        <g>
                            <mask id="mask-72" fill="white">
                                <use xlink:href="#path-71"></use>
                            </mask>
                            <g id="Clip-142"></g>
                            <path d="M8.5735,3.6123 L4.0145,1.1333 C4.1645,1.0293 4.3105,0.9143 4.4505,0.7883 L9.0095,3.2673 C8.8695,3.3933 8.7235,3.5083 8.5735,3.6123" id="Fill-141" fill="#6BD9D5" mask="url(#mask-72)"></path>
                        </g>
                        <g>
                            <mask id="mask-74" fill="white">
                                <use xlink:href="#path-73"></use>
                            </mask>
                            <g id="Clip-144"></g>
                            <path d="M9.0095,3.2675 L4.4505,0.7885 C4.5785,0.6725 4.7015,0.5485 4.8205,0.4145 L9.3785,2.8945 C9.2605,3.0285 9.1375,3.1525 9.0095,3.2675" id="Fill-143" fill="#70DAD7" mask="url(#mask-74)"></path>
                        </g>
                        <g>
                            <mask id="mask-76" fill="white">
                                <use xlink:href="#path-75"></use>
                            </mask>
                            <g id="Clip-146"></g>
                            <path d="M9.3786,2.8945 L4.8196,0.4155 C4.8596,0.3705 4.8986,0.3245 4.9376,0.2775 L9.4956,2.7565 C9.4576,2.8035 9.4186,2.8495 9.3786,2.8945" id="Fill-145" fill="#75DBD8" mask="url(#mask-76)"></path>
                        </g>
                    </g>
                    <g transform="translate(2.000000, 29.000000)">
                        <mask id="mask-78" fill="white">
                            <use xlink:href="#path-77"></use>
                        </mask>
                        <g id="Clip-148"></g>
                        <path d="M5.6526,3.3545 L1.0936,0.8745 C0.7246,0.6725 0.3746,0.4215 0.0526,0.1205 L4.6106,2.6005 C4.9336,2.9025 5.2826,3.1535 5.6526,3.3545" id="Fill-147" fill="#83DFDC" mask="url(#mask-78)"></path>
                    </g>
                    <polygon id="Fill-149" fill="#88E0DE" points="6.6111 31.6006 2.0521 29.1206 1.9481 29.0136 6.5071 31.4946"></polygon>
                    <g transform="translate(15.000000, 0.000000)">
                        <g>
                            <mask id="mask-80" fill="white">
                                <use xlink:href="#path-79"></use>
                            </mask>
                            <g id="Clip-152"></g>
                            <path d="M5.5388,5.1377 L0.9798,2.6587 C1.0388,2.5877 1.0968,2.5187 1.1568,2.4507 L5.7158,4.9307 C5.6558,4.9987 5.5968,5.0677 5.5388,5.1377" id="Fill-151" fill="#75DBD8" mask="url(#mask-80)"></path>
                        </g>
                        <g>
                            <mask id="mask-82" fill="white">
                                <use xlink:href="#path-81"></use>
                            </mask>
                            <g id="Clip-154"></g>
                            <path d="M5.7155,4.9306 L1.1565,2.4516 C1.3545,2.2276 1.5615,2.0186 1.7765,1.8256 L6.3345,4.3046 C6.1205,4.4976 5.9135,4.7066 5.7155,4.9306" id="Fill-153" fill="#70DAD7" mask="url(#mask-82)"></path>
                        </g>
                        <g>
                            <mask id="mask-84" fill="white">
                                <use xlink:href="#path-83"></use>
                            </mask>
                            <g id="Clip-156"></g>
                            <path d="M6.3347,4.3047 L1.7757,1.8257 C2.0117,1.6137 2.2567,1.4187 2.5097,1.2447 L7.0677,3.7247 C6.8157,3.8997 6.5707,4.0927 6.3347,4.3047" id="Fill-155" fill="#6BD9D5" mask="url(#mask-84)"></path>
                        </g>
                        <g>
                            <mask id="mask-86" fill="white">
                                <use xlink:href="#path-85"></use>
                            </mask>
                            <g id="Clip-158"></g>
                            <path d="M7.0681,3.7246 L2.5091,1.2456 C2.8281,1.0246 3.1571,0.8346 3.4941,0.6766 L8.0521,3.1566 C7.7161,3.3146 7.3861,3.5046 7.0681,3.7246" id="Fill-157" fill="#67D7D4" mask="url(#mask-86)"></path>
                        </g>
                        <g>
                            <mask id="mask-88" fill="white">
                                <use xlink:href="#path-87"></use>
                            </mask>
                            <g id="Clip-160"></g>
                            <path d="M8.0525,3.1562 L3.4935,0.6772 C4.0795,0.4002 4.6855,0.2182 5.2925,0.1342 L9.8505,2.6132 C9.2445,2.6982 8.6375,2.8812 8.0525,3.1562" id="Fill-159" fill="#62D6D3" mask="url(#mask-88)"></path>
                        </g>
                    </g>
                    <polygon id="Fill-161" fill="#68D8D5" points="14.8401 12.0761 10.2811 9.5961 15.9801 2.6581 20.5391 5.1381"></polygon>
                    <path d="M24.8508,2.6133 C26.4098,2.3943 27.9668,2.8143 29.1498,3.9273 L29.2538,4.0253 C30.3968,5.1003 31.0268,6.6633 31.0238107,8.4263 C31.0198,10.1823 30.3848,11.9233 29.2448,13.3183 L26.5798,16.3463 C26.4998,16.4623 26.4118,16.5603 26.3158,16.6433 C26.0908,16.8223 25.8828,16.9203 25.6658,16.9513 C25.0258,17.0413 24.5058,16.5513 24.5068,15.8513 C24.5078,15.4633 24.6848,15.0573 25.0058,14.7533 L27.5098,11.6953 C28.1998,10.8643 28.5788,9.8163 28.5798,8.7703 C28.5818,7.7163 28.2078,6.7833 27.5198,6.1363 L27.4158,6.0383 C26.7288,5.4003 25.8158,5.1143 24.8468,5.2503 C23.8698,5.3873 22.9558,5.9303 22.2738,6.7613 L16.5668,13.7003 C15.8518,14.5793 15.3858,15.5693 15.2478,16.5053 C15.1018,17.5533 15.3808,18.4483 16.0528,19.0803 L16.1558,19.1773 L16.3088,19.3113 C16.4838,19.4603 16.6758,19.6233 16.7798,19.8773 C16.8508,20.0133 16.8828,20.1643 16.8828,20.3293 C16.8818,20.9173 16.4328,21.4553 15.8878,21.5323 C15.7268,21.5543 15.5588,21.5353 15.4148,21.4773 L15.3748,21.4303 C15.2708,21.3933 15.1988,21.3433 15.1268,21.2593 C15.0158,21.1703 14.9038,21.0823 14.7908,20.9773 L14.6878,20.8873 C12.3768,18.7063 12.4398,14.9983 14.8398,12.0763 L20.5388,5.1373 C21.7308,3.6913 23.2918,2.8323 24.8508,2.6133" id="Fill-163" fill="#2FC9C5"></path>
                    <g transform="translate(8.000000, 9.000000)">
                        <g>
                            <mask id="mask-90" fill="white">
                                <use xlink:href="#path-89"></use>
                            </mask>
                            <g id="Clip-166"></g>
                            <path d="M6.6877,11.8877 L2.1287,9.4087 C0.4277,7.8017 0.0137,5.3687 0.8707,3.0317 L5.4287,5.5107 C4.5717,7.8487 4.9867,10.2827 6.6877,11.8877" id="Fill-165" fill="#83DFDC" mask="url(#mask-90)"></path>
                        </g>
                        <g>
                            <mask id="mask-92" fill="white">
                                <use xlink:href="#path-91"></use>
                            </mask>
                            <g id="Clip-168"></g>
                            <path d="M5.4289,5.5107 L0.8699,3.0317 C0.9969,2.6867 1.1509,2.3437 1.3319,2.0067 L5.8899,4.4867 C5.7089,4.8237 5.5549,5.1657 5.4289,5.5107" id="Fill-167" fill="#7EDEDB" mask="url(#mask-92)"></path>
                        </g>
                        <g>
                            <mask id="mask-94" fill="white">
                                <use xlink:href="#path-93"></use>
                            </mask>
                            <g id="Clip-170"></g>
                            <path d="M5.8904,4.4863 L1.3314,2.0073 C1.4884,1.7153 1.6654,1.4273 1.8634,1.1453 L6.4224,3.6263 C6.2244,3.9073 6.0474,4.1953 5.8904,4.4863" id="Fill-169" fill="#7ADCD9" mask="url(#mask-94)"></path>
                        </g>
                        <g>
                            <mask id="mask-96" fill="white">
                                <use xlink:href="#path-95"></use>
                            </mask>
                            <g id="Clip-172"></g>
                            <path d="M6.4221,3.6259 L1.8631,1.1459 C1.9941,0.9599 2.1331,0.7759 2.2811,0.5959 L6.8401,3.0759 C6.6921,3.2569 6.5521,3.4389 6.4221,3.6259" id="Fill-171" fill="#75DBD8" mask="url(#mask-96)"></path>
                        </g>
                    </g>
                    <g transform="translate(4.000000, 16.000000)">
                        <g>
                            <mask id="mask-98" fill="white">
                                <use xlink:href="#path-97"></use>
                            </mask>
                            <g id="Clip-174"></g>
                            <path d="M5.3816,2.9199 L0.8226,0.4399 C0.8716,0.3969 0.9216,0.3569 0.9706,0.3219 L5.5296,2.8029 C5.4796,2.8369 5.4306,2.8759 5.3816,2.9199" id="Fill-173" fill="#6BD9D5" mask="url(#mask-98)"></path>
                        </g>
                        <g>
                            <mask id="mask-100" fill="white">
                                <use xlink:href="#path-99"></use>
                            </mask>
                            <g id="Clip-176"></g>
                            <path d="M5.5295,2.8027 L0.9705,0.3227 C1.0325,0.2807 1.0945,0.2437 1.1575,0.2147 L5.7165,2.6947 C5.6535,2.7237 5.5915,2.7597 5.5295,2.8027" id="Fill-175" fill="#67D7D4" mask="url(#mask-100)"></path>
                        </g>
                        <g>
                            <mask id="mask-102" fill="white">
                                <use xlink:href="#path-101"></use>
                            </mask>
                            <g id="Clip-178"></g>
                            <path d="M5.7165,2.6943 L1.1575,0.2153 C1.2715,0.1603 1.3875,0.1273 1.5045,0.1103 C1.6485,0.0903 1.7865,0.0983 1.9145,0.1313 L6.4725,2.6113 C6.3455,2.5783 6.2075,2.5703 6.0625,2.5903 C5.9465,2.6063 5.8305,2.6403 5.7165,2.6943" id="Fill-177" fill="#62D6D3" mask="url(#mask-102)"></path>
                        </g>
                        <g>
                            <mask id="mask-104" fill="white">
                                <use xlink:href="#path-103"></use>
                            </mask>
                            <g id="Clip-180"></g>
                            <path d="M6.4729,2.6113 L1.9139,0.1323 C1.9799,0.1483 2.0419,0.1723 2.1009,0.2003 L6.6599,2.6803 C6.6009,2.6513 6.5379,2.6283 6.4729,2.6113" id="Fill-179" fill="#67D7D4" mask="url(#mask-104)"></path>
                        </g>
                        <g>
                            <mask id="mask-106" fill="white">
                                <use xlink:href="#path-105"></use>
                            </mask>
                            <g id="Clip-182"></g>
                            <path d="M6.6599,2.6806 L2.1009,0.2006 C2.1139,0.2056 2.1249,0.2126 2.1369,0.2186 L6.6959,2.6996 C6.6839,2.6926 6.6719,2.6866 6.6599,2.6806" id="Fill-181" fill="#6BD9D5" mask="url(#mask-106)"></path>
                        </g>
                    </g>
                    <g transform="translate(4.000000, 16.000000)">
                        <g>
                            <mask id="mask-108" fill="white">
                                <use xlink:href="#path-107"></use>
                            </mask>
                            <g id="Clip-184"></g>
                            <path d="M5.157,3.1758 L0.598,0.6968 C0.605,0.6868 0.611,0.6778 0.617,0.6678 L5.176,3.1478 C5.17,3.1568 5.163,3.1658 5.157,3.1758" id="Fill-183" fill="#7ADCD9" mask="url(#mask-108)"></path>
                        </g>
                        <g>
                            <mask id="mask-110" fill="white">
                                <use xlink:href="#path-109"></use>
                            </mask>
                            <g id="Clip-186"></g>
                            <path d="M5.176,3.1474 L0.617,0.6684 C0.647,0.6264 0.677,0.5864 0.711,0.5484 L5.269,3.0294 C5.236,3.0664 5.205,3.1064 5.176,3.1474" id="Fill-185" fill="#75DBD8" mask="url(#mask-110)"></path>
                        </g>
                        <g>
                            <mask id="mask-112" fill="white">
                                <use xlink:href="#path-111"></use>
                            </mask>
                            <g id="Clip-188"></g>
                            <path d="M5.2693,3.0293 L0.7103,0.5493 C0.7363,0.5193 0.7643,0.4913 0.7933,0.4653 L5.3523,2.9453 C5.3223,2.9713 5.2953,3.0003 5.2693,3.0293" id="Fill-187" fill="#70DAD7" mask="url(#mask-112)"></path>
                        </g>
                        <g>
                            <mask id="mask-114" fill="white">
                                <use xlink:href="#path-113"></use>
                            </mask>
                            <g id="Clip-190"></g>
                            <path d="M5.3518,2.9453 L0.7928,0.4653 C0.8028,0.4573 0.8128,0.4483 0.8228,0.4393 L5.3818,2.9203 C5.3718,2.9273 5.3618,2.9363 5.3518,2.9453" id="Fill-189" fill="#6BD9D5" mask="url(#mask-114)"></path>
                        </g>
                    </g>
                    <polygon id="Fill-191" fill="#67D7D4" points="6.5163 22.209 1.9573 19.73 4.5983 16.696 9.1573 19.176"></polygon>
                    <g transform="translate(0.000000, 19.000000)">
                        <g>
                            <mask id="mask-116" fill="white">
                                <use xlink:href="#path-115"></use>
                            </mask>
                            <g id="Clip-194"></g>
                            <path d="M6.5075,12.4941 L1.9485,10.0141 C0.8055,8.9381 0.1755,7.3851 0.178489335,5.6211 C0.1805,4.7311 0.3435,3.8471 0.6505,3.0121 L5.2095,5.4911 C4.9025,6.3271 4.7395,7.2111 4.7375,8.1001 C4.7345,9.8641 5.3635,11.4181 6.5075,12.4941" id="Fill-193" fill="#83DFDC" mask="url(#mask-116)"></path>
                        </g>
                        <g>
                            <mask id="mask-118" fill="white">
                                <use xlink:href="#path-117"></use>
                            </mask>
                            <g id="Clip-196"></g>
                            <path d="M5.2092,5.4912 L0.6502,3.0122 C0.7772,2.6652 0.9302,2.3272 1.1052,2.0012 L5.6642,4.4802 C5.4882,4.8072 5.3362,5.1452 5.2092,5.4912" id="Fill-195" fill="#7EDEDB" mask="url(#mask-118)"></path>
                        </g>
                        <g>
                            <mask id="mask-120" fill="white">
                                <use xlink:href="#path-119"></use>
                            </mask>
                            <g id="Clip-198"></g>
                            <path d="M5.6643,4.4804 L1.1053,2.0014 C1.2523,1.7274 1.4153,1.4624 1.5953,1.2074 L6.1533,3.6864 C5.9743,3.9424 5.8113,4.2084 5.6643,4.4804" id="Fill-197" fill="#7ADCD9" mask="url(#mask-120)"></path>
                        </g>
                        <g>
                            <mask id="mask-122" fill="white">
                                <use xlink:href="#path-121"></use>
                            </mask>
                            <g id="Clip-200"></g>
                            <path d="M6.1535,3.6865 L1.5945,1.2075 C1.7095,1.0435 1.8305,0.8845 1.9575,0.7295 L6.5165,3.2085 C6.3895,3.3645 6.2685,3.5235 6.1535,3.6865" id="Fill-199" fill="#75DBD8" mask="url(#mask-122)"></path>
                        </g>
                    </g>
                    <path d="M19.6662,13.455 C19.9382,13.417 20.2032,13.492 20.4182,13.686 C20.6592,13.851 20.8582,14.014 21.0422,14.186 L21.1462,14.284 C23.4572,16.457 23.3612,20.481 20.9212,23.443 L15.2222,30.39 C14.0342,31.836 12.4752,32.695 10.9162,32.914 C9.3572,33.133 7.7982,32.713 6.6112,31.601 L6.5072,31.494 C5.3642,30.418 4.7342,28.864 4.73718933,27.101 C4.7412,25.337 5.3762,23.597 6.5162,22.209 L9.1572,19.176 C9.2212,19.08 9.2932,18.992 9.3812,18.92 C9.5982,18.725 9.8312,18.623 10.0622,18.591 C10.7112,18.499 11.2392,18.987 11.2382,19.687 C11.2372,20.076 11.0762,20.462 10.7712,20.764 L8.2512,23.832 C7.5612,24.664 7.1832,25.703 7.1812,26.758 C7.1792,27.804 7.5532,28.736 8.2412,29.383 L8.3532,29.479 C9.0602,30.149 9.9912,30.403 10.9222,30.272 C11.8532,30.142 12.7852,29.626 13.4962,28.757 L19.1942,21.828 C19.8932,20.977 20.3592,19.884 20.4652,18.822 C20.5802,17.683 20.2772,16.705 19.6052,16.074 L19.5012,15.976 C19.3812,15.872 19.2622,15.776 19.1092,15.659 C19.0052,15.613 18.9172,15.539 18.8462,15.454 C18.6862,15.269 18.5982,15.022 18.5992,14.755 C18.6002,14.123 19.0732,13.538 19.6662,13.455" id="Fill-201" fill="#2FC9C5"></path>
                </g>
            </g>
        </g>
    </g>
</svg>