<?xml version="1.0" encoding="UTF-8"?>
<svg width="31px" height="34px" viewBox="0 0 31 34" version="1.1" xmlns="http://www.w3.org/2000/svg" xmlns:xlink="http://www.w3.org/1999/xlink">
    <!-- Generator: Sketch 64 (93537) - https://sketch.com -->
    <title>dashboard</title>
    <desc>Created with Sketch.</desc>
    <defs>
        <path d="M0.283,0.699 L4.842,3.178 C4.841,3.325 4.729,3.461 4.593,3.481 L0.034,1.001" id="path-1"></path>
        <path d="M0.283,0.699 L4.842,3.178 C4.841,3.325 4.729,3.461 4.593,3.481 L0.034,1.001" id="path-3"></path>
        <path d="M0.283,0.699 L4.842,3.178 C4.841,3.325 4.729,3.461 4.593,3.481 L0.034,1.001" id="path-5"></path>
        <path d="M0.283,0.699 L4.842,3.178 C4.841,3.325 4.729,3.461 4.593,3.481 L0.034,1.001" id="path-7"></path>
        <path d="M0.283,0.699 L4.842,3.178 C4.841,3.325 4.729,3.461 4.593,3.481 L0.034,1.001" id="path-9"></path>
        <path d="M0.283,0.699 L4.842,3.178 C4.841,3.325 4.729,3.461 4.593,3.481 L0.034,1.001" id="path-11"></path>
        <path d="M0.283,0.699 L4.842,3.178 C4.841,3.325 4.729,3.461 4.593,3.481 L0.034,1.001" id="path-13"></path>
        <path d="M0.283,0.699 L4.842,3.178 C4.841,3.325 4.729,3.461 4.593,3.481 L0.034,1.001" id="path-15"></path>
        <path d="M0.297,0.831 L4.856,3.312 C4.856,3.357 4.88,3.392 4.918,3.413 L0.36,0.933" id="path-17"></path>
        <path d="M0.752,0.92 L5.31,3.401 C5.275,3.381 5.227,3.372 5.175,3.38 L0.616,0.9" id="path-19"></path>
        <path d="M0.752,0.92 L5.31,3.401 C5.275,3.381 5.227,3.372 5.175,3.38 L0.616,0.9" id="path-21"></path>
        <path d="M0.752,0.92 L5.31,3.401 C5.275,3.381 5.227,3.372 5.175,3.38 L0.616,0.9" id="path-23"></path>
        <path d="M0.594,0.519 L5.153,2.999 C5.078,2.959 4.991,2.942 4.897,2.955 L0.338,0.475" id="path-25"></path>
        <path d="M0.594,0.519 L5.153,2.999 C5.078,2.959 4.991,2.942 4.897,2.955 L0.338,0.475" id="path-27"></path>
        <path d="M0.594,0.519 L5.153,2.999 C5.078,2.959 4.991,2.942 4.897,2.955 L0.338,0.475" id="path-29"></path>
        <path d="M0.206,0.513 L4.764,2.993 C4.834,3.031 4.881,3.109 4.881,3.204 L0.322,0.723" id="path-31"></path>
        <path d="M0.509,0.197 L5.068,2.676 C4.964,2.691 4.876,2.772 4.875,2.85 L0.317,0.371" id="path-33"></path>
        <path d="M0.509,0.197 L5.068,2.676 C4.964,2.691 4.876,2.772 4.875,2.85 L0.317,0.371" id="path-35"></path>
        <path d="M0.509,0.197 L5.068,2.676 C4.964,2.691 4.876,2.772 4.875,2.85 L0.317,0.371" id="path-37"></path>
        <path d="M0.509,0.197 L5.068,2.676 C4.964,2.691 4.876,2.772 4.875,2.85 L0.317,0.371" id="path-39"></path>
        <path d="M0.509,0.197 L5.068,2.676 C4.964,2.691 4.876,2.772 4.875,2.85 L0.317,0.371" id="path-41"></path>
        <path d="M0.509,0.197 L5.068,2.676 C4.964,2.691 4.876,2.772 4.875,2.85 L0.317,0.371" id="path-43"></path>
        <path d="M0.509,0.197 L5.068,2.676 C4.964,2.691 4.876,2.772 4.875,2.85 L0.317,0.371" id="path-45"></path>
        <path d="M0.509,0.197 L5.068,2.676 C4.964,2.691 4.876,2.772 4.875,2.85 L0.317,0.371" id="path-47"></path>
        <path d="M0.065,0.673 L4.624,3.153 C4.624,3.215 4.655,3.263 4.702,3.289 L0.144,0.809" id="path-49"></path>
        <path d="M0.509,0.104 L5.067,2.584 C5.035,2.567 4.997,2.56 4.955,2.566 L0.397,0.086" id="path-51"></path>
        <path d="M0.509,0.104 L5.067,2.584 C5.035,2.567 4.997,2.56 4.955,2.566 L0.397,0.086" id="path-53"></path>
        <path d="M0.509,0.104 L5.067,2.584 C5.035,2.567 4.997,2.56 4.955,2.566 L0.397,0.086 C0.438,0.081 0.477,0.087 0.509,0.104 Z" id="path-55"></path>
        <path d="M0.833,0.505 L5.392,2.986 C5.391,3.07 5.429,3.133 5.485,3.164 L0.926,0.684" id="path-57"></path>
        <path d="M0.461,0.71 C0.499,0.731 0.545,0.74 0.593,0.733 L5.152,3.213 C5.103,3.22 5.058,3.211 5.019,3.19" id="path-59"></path>
        <path d="M0.461,0.71 C0.499,0.731 0.545,0.74 0.593,0.733 L5.152,3.213 C5.103,3.22 5.058,3.211 5.019,3.19" id="path-61"></path>
        <path d="M0.461,0.71 C0.499,0.731 0.545,0.74 0.593,0.733 L5.152,3.213 C5.103,3.22 5.058,3.211 5.019,3.19" id="path-63"></path>
        <path d="M0.282,0.383 L4.841,2.863 C4.737,2.877 4.649,2.968 4.648,3.081 L0.09,0.6" id="path-65"></path>
        <path d="M0.282,0.383 L4.841,2.863 C4.737,2.877 4.649,2.968 4.648,3.081 L0.09,0.6" id="path-67"></path>
        <path d="M0.282,0.383 L4.841,2.863 C4.737,2.877 4.649,2.968 4.648,3.081 L0.09,0.6" id="path-69"></path>
        <path d="M0.282,0.383 L4.841,2.863 C4.737,2.877 4.649,2.968 4.648,3.081 L0.09,0.6" id="path-71"></path>
        <path d="M0.282,0.383 L4.841,2.863 C4.737,2.877 4.649,2.968 4.648,3.081 L0.09,0.6" id="path-73"></path>
        <path d="M0.282,0.383 L4.841,2.863 C4.737,2.877 4.649,2.968 4.648,3.081 L0.09,0.6" id="path-75"></path>
        <path d="M0.282,0.383 L4.841,2.863 C4.737,2.877 4.649,2.968 4.648,3.081 L0.09,0.6" id="path-77"></path>
        <path d="M0.282,0.383 L4.841,2.863 C4.737,2.877 4.649,2.968 4.648,3.081 L0.09,0.6" id="path-79"></path>
        <path d="M0.849,0.297 L5.408,2.777 C5.408,2.962 5.495,3.114 5.629,3.187 L1.071,0.706" id="path-81"></path>
        <path d="M0.17,0.273 C0.205,0.268 0.239,0.274 0.268,0.289 L4.826,2.77 C4.798,2.754 4.764,2.747 4.728,2.752" id="path-83"></path>
        <path d="M0.17,0.273 C0.205,0.268 0.239,0.274 0.268,0.289 L4.826,2.77 C4.798,2.754 4.764,2.747 4.728,2.752" id="path-85"></path>
        <path d="M0.17,0.273 C0.205,0.268 0.239,0.274 0.268,0.289 L4.826,2.77 C4.798,2.754 4.764,2.747 4.728,2.752 L0.17,0.273 Z" id="path-87"></path>
        <path d="M1.063,0.569 L5.621,3.048 C5.51,3.065 5.421,3.172 5.421,3.302 L0.862,0.822" id="path-89"></path>
        <path d="M1.063,0.569 L5.621,3.048 C5.51,3.065 5.421,3.172 5.421,3.302 L0.862,0.822" id="path-91"></path>
        <path d="M1.063,0.569 L5.621,3.048 C5.51,3.065 5.421,3.172 5.421,3.302 L0.862,0.822" id="path-93"></path>
        <path d="M1.063,0.569 L5.621,3.048 C5.51,3.065 5.421,3.172 5.421,3.302 L0.862,0.822" id="path-95"></path>
        <path d="M1.063,0.569 L5.621,3.048 C5.51,3.065 5.421,3.172 5.421,3.302 L0.862,0.822" id="path-97"></path>
        <path d="M1.063,0.569 L5.621,3.048 C5.51,3.065 5.421,3.172 5.421,3.302 L0.862,0.822" id="path-99"></path>
        <path d="M1.063,0.569 L5.621,3.048 C5.51,3.065 5.421,3.172 5.421,3.302 L0.862,0.822" id="path-101"></path>
        <path d="M1.063,0.569 L5.621,3.048 C5.51,3.065 5.421,3.172 5.421,3.302 L0.862,0.822" id="path-103"></path>
        <path d="M1.371,0.843 L5.929,3.324 C5.665,3.361 5.456,3.623 5.456,3.909 L0.897,1.429" id="path-105"></path>
        <path d="M1.371,0.843 L5.929,3.324 C5.665,3.361 5.456,3.623 5.456,3.909 L0.897,1.429" id="path-107"></path>
        <path d="M1.371,0.843 L5.929,3.324 C5.665,3.361 5.456,3.623 5.456,3.909 L0.897,1.429" id="path-109"></path>
        <path d="M1.371,0.843 L5.929,3.324 C5.665,3.361 5.456,3.623 5.456,3.909 L0.897,1.429" id="path-111"></path>
        <path d="M1.371,0.843 L5.929,3.324 C5.665,3.361 5.456,3.623 5.456,3.909 L0.897,1.429" id="path-113"></path>
        <path d="M1.371,0.843 L5.929,3.324 C5.665,3.361 5.456,3.623 5.456,3.909 L0.897,1.429" id="path-115"></path>
        <path d="M1.371,0.843 L5.929,3.324 C5.665,3.361 5.456,3.623 5.456,3.909 L0.897,1.429" id="path-117"></path>
        <path d="M1.371,0.843 L5.929,3.324 C5.665,3.361 5.456,3.623 5.456,3.909 L0.897,1.429" id="path-119"></path>
    </defs>
    <g id="工作空间项目-开发中心-具体工作流" stroke="none" stroke-width="1" fill="none" fill-rule="evenodd">
        <g id="侧边栏icon" transform="translate(-110.000000, -425.000000)">
            <g id="dashboard" transform="translate(107.000000, 424.000000)">
                <g id="编组-30">
                    <rect id="矩形备份-17" x="0" y="0" width="36" height="36"></rect>
                </g>
                <g id="编组" transform="translate(3.000000, 1.000000)">
                    <g transform="translate(23.000000, 24.000000)">
                        <g>
                            <mask id="mask-2" fill="white">
                                <use xlink:href="#path-1"></use>
                            </mask>
                            <g id="Clip-68"></g>
                            <path d="M4.5931,3.4809 L0.0341,1.0019 C0.0591,0.9979 0.0831,0.9899 0.1061,0.9789 L4.6641,3.4599 C4.6421,3.4699 4.6181,3.4769 4.5931,3.4809" id="Fill-67" fill="#9AC2F0" mask="url(#mask-2)"></path>
                        </g>
                        <g>
                            <mask id="mask-4" fill="white">
                                <use xlink:href="#path-3"></use>
                            </mask>
                            <g id="Clip-70"></g>
                            <path d="M4.6644,3.4594 L0.1054,0.9794 C0.1204,0.9734 0.1334,0.9654 0.1464,0.9564 L4.7054,3.4364 C4.6924,3.4444 4.6784,3.4524 4.6644,3.4594" id="Fill-69" fill="#9DC4F0" mask="url(#mask-4)"></path>
                        </g>
                        <g>
                            <mask id="mask-6" fill="white">
                                <use xlink:href="#path-5"></use>
                            </mask>
                            <g id="Clip-72"></g>
                            <path d="M4.7049,3.436 L0.1459,0.957 C0.1569,0.949 0.1669,0.941 0.1769,0.932 L4.7349,3.413 C4.7259,3.42 4.7159,3.429 4.7049,3.436" id="Fill-71" fill="#A0C6F1" mask="url(#mask-6)"></path>
                        </g>
                        <g>
                            <mask id="mask-8" fill="white">
                                <use xlink:href="#path-7"></use>
                            </mask>
                            <g id="Clip-74"></g>
                            <path d="M4.7352,3.4125 L0.1762,0.9325 C0.1852,0.9245 0.1942,0.9155 0.2022,0.9065 L4.7602,3.3865 C4.7532,3.3945 4.7442,3.4035 4.7352,3.4125" id="Fill-73" fill="#A3C8F1" mask="url(#mask-8)"></path>
                        </g>
                        <g>
                            <mask id="mask-10" fill="white">
                                <use xlink:href="#path-9"></use>
                            </mask>
                            <g id="Clip-76"></g>
                            <path d="M4.7605,3.3862 L0.2015,0.9072 C0.2105,0.8972 0.2175,0.8882 0.2245,0.8772 L4.7835,3.3582 C4.7765,3.3672 4.7685,3.3772 4.7605,3.3862" id="Fill-75" fill="#A6CAF2" mask="url(#mask-10)"></path>
                        </g>
                        <g>
                            <mask id="mask-12" fill="white">
                                <use xlink:href="#path-11"></use>
                            </mask>
                            <g id="Clip-78"></g>
                            <path d="M4.7835,3.3578 L0.2245,0.8778 C0.2325,0.8668 0.2395,0.8558 0.2445,0.8438 L4.8035,3.3248 C4.7975,3.3368 4.7905,3.3468 4.7835,3.3578" id="Fill-77" fill="#A9CBF2" mask="url(#mask-12)"></path>
                        </g>
                        <g>
                            <mask id="mask-14" fill="white">
                                <use xlink:href="#path-13"></use>
                            </mask>
                            <g id="Clip-80"></g>
                            <path d="M4.8035,3.3246 L0.2445,0.8446 C0.2525,0.8316 0.2585,0.8166 0.2635,0.8026 L4.8225,3.2826 C4.8175,3.2976 4.8105,3.3106 4.8035,3.3246" id="Fill-79" fill="#ACCDF3" mask="url(#mask-14)"></path>
                        </g>
                        <g>
                            <mask id="mask-16" fill="white">
                                <use xlink:href="#path-15"></use>
                            </mask>
                            <g id="Clip-82"></g>
                            <path d="M4.8226,3.2827 L0.2636,0.8027 C0.2766,0.7697 0.2826,0.7337 0.2826,0.6987 L4.8416,3.1787 C4.8416,3.2147 4.8346,3.2497 4.8226,3.2827" id="Fill-81" fill="#AFCFF3" mask="url(#mask-16)"></path>
                        </g>
                    </g>
                    <polygon id="Fill-83" fill="#93BEEF" points="8.1517 30.2133 3.5927 27.7333 23.0347 25.0013 27.5927 27.4813"></polygon>
                    <g transform="translate(18.000000, 22.000000)">
                        <mask id="mask-18" fill="white">
                            <use xlink:href="#path-17"></use>
                        </mask>
                        <g id="Clip-86"></g>
                        <path d="M4.9183,3.4125 L0.3593,0.9335 C0.3213,0.9115 0.2973,0.8775 0.2973,0.8315 L4.8563,3.3115 C4.8563,3.3565 4.8803,3.3915 4.9183,3.4125" id="Fill-85" fill="#AFCFF3" mask="url(#mask-18)"></path>
                    </g>
                    <polygon id="Fill-87" fill="#B1D0F3" points="27.8416 27.1782 23.2826 24.6992 23.3216 3.7232 27.8806 6.2032"></polygon>
                    <g transform="translate(20.000000, 11.000000)">
                        <g>
                            <mask id="mask-20" fill="white">
                                <use xlink:href="#path-19"></use>
                            </mask>
                            <g id="Clip-90"></g>
                            <path d="M5.1746,3.3803 L0.6156,0.9003 C0.6506,0.8953 0.6826,0.8973 0.7106,0.9043 L5.2686,3.3843 C5.2406,3.3773 5.2086,3.3753 5.1746,3.3803" id="Fill-89" fill="#9AC2F0" mask="url(#mask-20)"></path>
                        </g>
                        <g>
                            <mask id="mask-22" fill="white">
                                <use xlink:href="#path-21"></use>
                            </mask>
                            <g id="Clip-92"></g>
                            <path d="M5.2688,3.3842 L0.7098,0.9052 C0.7228,0.9072 0.7348,0.9122 0.7458,0.9172 L5.3038,3.3972 C5.2928,3.3922 5.2818,3.3882 5.2688,3.3842" id="Fill-91" fill="#9DC4F0" mask="url(#mask-22)"></path>
                        </g>
                        <g>
                            <mask id="mask-24" fill="white">
                                <use xlink:href="#path-23"></use>
                            </mask>
                            <g id="Clip-94"></g>
                            <path d="M5.304,3.3969 L0.745,0.9179 C0.747,0.9179 0.749,0.9189 0.752,0.9199 L5.31,3.4009 C5.308,3.3999 5.306,3.3979 5.304,3.3969" id="Fill-93" fill="#A0C6F1" mask="url(#mask-24)"></path>
                        </g>
                    </g>
                    <g transform="translate(25.000000, 0.000000)">
                        <g>
                            <mask id="mask-26" fill="white">
                                <use xlink:href="#path-25"></use>
                            </mask>
                            <g id="Clip-96"></g>
                            <path d="M4.8968,2.9545 L0.3378,0.4755 C0.3958,0.4675 0.4518,0.4705 0.5028,0.4835 L5.0618,2.9635 C5.0098,2.9505 4.9548,2.9465 4.8968,2.9545" id="Fill-95" fill="#9AC2F0" mask="url(#mask-26)"></path>
                        </g>
                        <g>
                            <mask id="mask-28" fill="white">
                                <use xlink:href="#path-27"></use>
                            </mask>
                            <g id="Clip-98"></g>
                            <path d="M5.0618,2.9633 L0.5028,0.4843 C0.5298,0.4903 0.5548,0.4993 0.5788,0.5123 L5.1378,2.9913 C5.1138,2.9803 5.0878,2.9703 5.0618,2.9633" id="Fill-97" fill="#9DC4F0" mask="url(#mask-28)"></path>
                        </g>
                        <g>
                            <mask id="mask-30" fill="white">
                                <use xlink:href="#path-29"></use>
                            </mask>
                            <g id="Clip-100"></g>
                            <path d="M5.138,2.9916 L0.579,0.5126 C0.584,0.5136 0.589,0.5166 0.594,0.5186 L5.153,2.9996 C5.148,2.9966 5.143,2.9936 5.138,2.9916" id="Fill-99" fill="#A0C6F1" mask="url(#mask-30)"></path>
                        </g>
                    </g>
                    <polygon id="Fill-101" fill="#93BEEF" points="23.0682 14.6762 18.5092 12.1972 20.6162 11.9002 25.1742 14.3802"></polygon>
                    <g transform="translate(23.000000, 3.000000)">
                        <mask id="mask-32" fill="white">
                            <use xlink:href="#path-31"></use>
                        </mask>
                        <g id="Clip-104"></g>
                        <path d="M4.8807,3.2036 L0.3217,0.7236 C0.3217,0.6286 0.2757,0.5516 0.2057,0.5136 L4.7647,2.9926 C4.8347,3.0306 4.8807,3.1086 4.8807,3.2036" id="Fill-103" fill="#AFCFF3" mask="url(#mask-32)"></path>
                    </g>
                    <polygon id="Fill-105" fill="#B1D0F3" points="22.8562 25.312 18.2972 22.832 18.3162 12.371 22.8752 14.85"></polygon>
                    <g transform="translate(18.000000, 12.000000)">
                        <g>
                            <mask id="mask-34" fill="white">
                                <use xlink:href="#path-33"></use>
                            </mask>
                            <g id="Clip-108"></g>
                            <path d="M4.8753,2.85 L0.3163,0.371 C0.3163,0.357 0.3193,0.343 0.3243,0.33 L4.8833,2.81 C4.8783,2.824 4.8753,2.836 4.8753,2.85" id="Fill-107" fill="#AFCFF3" mask="url(#mask-34)"></path>
                        </g>
                        <g>
                            <mask id="mask-36" fill="white">
                                <use xlink:href="#path-35"></use>
                            </mask>
                            <g id="Clip-110"></g>
                            <path d="M4.8831,2.81 L0.3241,0.331 C0.3261,0.324 0.3291,0.318 0.3331,0.311 L4.8911,2.79 C4.8881,2.797 4.8851,2.803 4.8831,2.81" id="Fill-109" fill="#ACCDF3" mask="url(#mask-36)"></path>
                        </g>
                        <g>
                            <mask id="mask-38" fill="white">
                                <use xlink:href="#path-37"></use>
                            </mask>
                            <g id="Clip-112"></g>
                            <path d="M4.8914,2.7905 L0.3324,0.3115 C0.3364,0.3055 0.3394,0.2995 0.3434,0.2935 L4.9024,2.7735 C4.8984,2.7795 4.8944,2.7845 4.8914,2.7905" id="Fill-111" fill="#A9CBF2" mask="url(#mask-38)"></path>
                        </g>
                        <g>
                            <mask id="mask-40" fill="white">
                                <use xlink:href="#path-39"></use>
                            </mask>
                            <g id="Clip-114"></g>
                            <path d="M4.9021,2.7739 L0.3431,0.2939 C0.3481,0.2879 0.3521,0.2819 0.3571,0.2769 L4.9161,2.7559 C4.9111,2.7619 4.9061,2.7679 4.9021,2.7739" id="Fill-113" fill="#A6CAF2" mask="url(#mask-40)"></path>
                        </g>
                        <g>
                            <mask id="mask-42" fill="white">
                                <use xlink:href="#path-41"></use>
                            </mask>
                            <g id="Clip-116"></g>
                            <path d="M4.9158,2.7563 L0.3568,0.2773 C0.3628,0.2703 0.3688,0.2643 0.3748,0.2583 L4.9338,2.7383 C4.9268,2.7443 4.9208,2.7503 4.9158,2.7563" id="Fill-115" fill="#A3C8F1" mask="url(#mask-42)"></path>
                        </g>
                        <g>
                            <mask id="mask-44" fill="white">
                                <use xlink:href="#path-43"></use>
                            </mask>
                            <g id="Clip-118"></g>
                            <path d="M4.9334,2.7387 L0.3744,0.2587 C0.3824,0.2517 0.3914,0.2457 0.3994,0.2397 L4.9574,2.7187 C4.9494,2.7247 4.9414,2.7317 4.9334,2.7387" id="Fill-117" fill="#A0C6F1" mask="url(#mask-44)"></path>
                        </g>
                        <g>
                            <mask id="mask-46" fill="white">
                                <use xlink:href="#path-45"></use>
                            </mask>
                            <g id="Clip-120"></g>
                            <path d="M4.9578,2.7192 L0.3988,0.2402 C0.4108,0.2322 0.4228,0.2242 0.4368,0.2182 L4.9948,2.6982 C4.9818,2.7042 4.9698,2.7112 4.9578,2.7192" id="Fill-119" fill="#9DC4F0" mask="url(#mask-46)"></path>
                        </g>
                        <g>
                            <mask id="mask-48" fill="white">
                                <use xlink:href="#path-47"></use>
                            </mask>
                            <g id="Clip-122"></g>
                            <path d="M4.9949,2.6977 L0.4359,0.2187 C0.4589,0.2077 0.4839,0.1997 0.5089,0.1967 L5.0679,2.6767 C5.0419,2.6797 5.0169,2.6877 4.9949,2.6977" id="Fill-121" fill="#9AC2F0" mask="url(#mask-48)"></path>
                        </g>
                    </g>
                    <path d="M25.1746,14.3803 C25.2866,14.3643 25.3746,14.4213 25.3746,14.4983 L25.3556,24.9603 C25.3556,25.0473 25.2666,25.1193 25.1546,25.1353 L23.0486,25.4323 C22.9436,25.4453 22.8556,25.3983 22.8565916,25.3123 L22.8756,14.8503 C22.8756,14.7723 22.9636,14.6913 23.0686,14.6763 L25.1746,14.3803 Z" id="Fill-123" fill="#79AFEB"></path>
                    <g transform="translate(12.000000, 23.000000)">
                        <mask id="mask-50" fill="white">
                            <use xlink:href="#path-49"></use>
                        </mask>
                        <g id="Clip-126"></g>
                        <path d="M4.7024,3.2885 L0.1434,0.8095 C0.0964,0.7835 0.0654,0.7345 0.0654,0.6735 L4.6234,3.1525 C4.6234,3.2155 4.6554,3.2635 4.7024,3.2885" id="Fill-125" fill="#AFCFF3" mask="url(#mask-50)"></path>
                    </g>
                    <g transform="translate(14.000000, 10.000000)">
                        <g>
                            <mask id="mask-52" fill="white">
                                <use xlink:href="#path-51"></use>
                            </mask>
                            <g id="Clip-128"></g>
                            <path d="M4.9554,2.5659 L0.3964,0.0869 C0.4234,0.0829 0.4484,0.0839 0.4714,0.0889 L5.0304,2.5699 C5.0074,2.5639 4.9814,2.5619 4.9554,2.5659" id="Fill-127" fill="#9AC2F0" mask="url(#mask-52)"></path>
                        </g>
                        <g>
                            <mask id="mask-54" fill="white">
                                <use xlink:href="#path-53"></use>
                            </mask>
                            <g id="Clip-130"></g>
                            <path d="M5.0301,2.5698 L0.4711,0.0898 C0.4821,0.0918 0.4931,0.0958 0.5031,0.1008 L5.0611,2.5818 C5.0511,2.5768 5.0411,2.5728 5.0301,2.5698" id="Fill-129" fill="#9DC4F0" mask="url(#mask-54)"></path>
                        </g>
                        <g>
                            <mask id="mask-56" fill="white">
                                <use xlink:href="#path-55"></use>
                            </mask>
                            <g id="Clip-132"></g>
                            <polygon id="Fill-131" fill="#A0C6F1" mask="url(#mask-56)" points="5.0613 2.5815 0.5023 0.1015 0.5083 0.1035 5.0673 2.5845"></polygon>
                        </g>
                    </g>
                    <g transform="translate(5.000000, 24.000000)">
                        <mask id="mask-58" fill="white">
                            <use xlink:href="#path-57"></use>
                        </mask>
                        <g id="Clip-134"></g>
                        <path d="M5.4847,3.1645 L0.9257,0.6845 C0.8697,0.6535 0.8327,0.5895 0.83368022,0.5055 L5.3917,2.9855 C5.3917,3.0695 5.4287,3.1335 5.4847,3.1645" id="Fill-133" fill="#AFCFF3" mask="url(#mask-58)"></path>
                    </g>
                    <g transform="translate(3.000000, 27.000000)">
                        <g>
                            <mask id="mask-60" fill="white">
                                <use xlink:href="#path-59"></use>
                            </mask>
                            <g id="Clip-136"></g>
                            <path d="M5.0193,3.1899 L0.4603,0.7109 C0.4633,0.7109 0.4663,0.7129 0.4683,0.7139 L5.0273,3.1939 C5.0243,3.1929 5.0223,3.1919 5.0193,3.1899" id="Fill-135" fill="#A0C6F1" mask="url(#mask-60)"></path>
                        </g>
                        <g>
                            <mask id="mask-62" fill="white">
                                <use xlink:href="#path-61"></use>
                            </mask>
                            <g id="Clip-138"></g>
                            <path d="M5.0271,3.1938 L0.4681,0.7148 C0.4811,0.7198 0.4941,0.7248 0.5081,0.7288 L5.0671,3.2088 C5.0531,3.2058 5.0401,3.2008 5.0271,3.1938" id="Fill-137" fill="#9DC4F0" mask="url(#mask-62)"></path>
                        </g>
                        <g>
                            <mask id="mask-64" fill="white">
                                <use xlink:href="#path-63"></use>
                            </mask>
                            <g id="Clip-140"></g>
                            <path d="M5.0667,3.2084 L0.5077,0.7294 C0.5347,0.7354 0.5637,0.7374 0.5927,0.7324 L5.1517,3.2134 C5.1217,3.2174 5.0927,3.2154 5.0667,3.2084" id="Fill-139" fill="#9AC2F0" mask="url(#mask-64)"></path>
                        </g>
                    </g>
                    <polygon id="Fill-141" fill="#93BEEF" points="16.8406 12.8627 12.2816 10.3837 14.3966 10.0867 18.9556 12.5657"></polygon>
                    <polygon id="Fill-143" fill="#B1D0F3" points="16.6238 26.1528 12.0648 23.6738 12.0898 10.5998 16.6478 13.0808"></polygon>
                    <path d="M18.9554,12.5659 C19.0594,12.5509 19.1474,12.6169 19.1474,12.7289 L19.1234,25.8009 C19.1224,25.9059 19.0344,25.9959 18.9304,26.0099 L16.8154,26.3069 C16.7114,26.3219 16.6234,26.2559 16.6234,26.1529 L16.6484,13.0809 C16.6484,12.9679 16.7364,12.8779 16.8404,12.8629 L18.9554,12.5659 Z" id="Fill-145" fill="#79AFEB"></path>
                    <g transform="translate(12.000000, 10.000000)">
                        <g>
                            <mask id="mask-66" fill="white">
                                <use xlink:href="#path-65"></use>
                            </mask>
                            <g id="Clip-148"></g>
                            <path d="M4.6482,3.0805 L0.0892,0.6005 C0.0892,0.5745 0.0942,0.5505 0.1022,0.5275 L4.6612,3.0075 C4.6532,3.0305 4.6482,3.0555 4.6482,3.0805" id="Fill-147" fill="#AFCFF3" mask="url(#mask-66)"></path>
                        </g>
                        <g>
                            <mask id="mask-68" fill="white">
                                <use xlink:href="#path-67"></use>
                            </mask>
                            <g id="Clip-150"></g>
                            <path d="M4.6609,3.0073 L0.1019,0.5283 C0.1059,0.5183 0.1099,0.5093 0.1149,0.5003 L4.6739,2.9803 C4.6689,2.9883 4.6649,2.9983 4.6609,3.0073" id="Fill-149" fill="#ACCDF3" mask="url(#mask-68)"></path>
                        </g>
                        <g>
                            <mask id="mask-70" fill="white">
                                <use xlink:href="#path-69"></use>
                            </mask>
                            <g id="Clip-152"></g>
                            <path d="M4.6736,2.9799 L0.1146,0.5009 C0.1196,0.4929 0.1236,0.4849 0.1286,0.4779 L4.6876,2.9579 C4.6826,2.9639 4.6776,2.9719 4.6736,2.9799" id="Fill-151" fill="#A9CBF2" mask="url(#mask-70)"></path>
                        </g>
                        <g>
                            <mask id="mask-72" fill="white">
                                <use xlink:href="#path-71"></use>
                            </mask>
                            <g id="Clip-154"></g>
                            <path d="M4.6873,2.9575 L0.1283,0.4785 C0.1333,0.4715 0.1393,0.4645 0.1443,0.4575 L4.7033,2.9375 C4.6973,2.9435 4.6923,2.9505 4.6873,2.9575" id="Fill-153" fill="#A6CAF2" mask="url(#mask-72)"></path>
                        </g>
                        <g>
                            <mask id="mask-74" fill="white">
                                <use xlink:href="#path-73"></use>
                            </mask>
                            <g id="Clip-156"></g>
                            <path d="M4.7029,2.9379 L0.1439,0.4579 C0.1499,0.4519 0.1569,0.4449 0.1629,0.4389 L4.7219,2.9189 C4.7149,2.9249 4.7089,2.9309 4.7029,2.9379" id="Fill-155" fill="#A3C8F1" mask="url(#mask-74)"></path>
                        </g>
                        <g>
                            <mask id="mask-76" fill="white">
                                <use xlink:href="#path-75"></use>
                            </mask>
                            <g id="Clip-158"></g>
                            <path d="M4.7215,2.9194 L0.1625,0.4394 C0.1705,0.4334 0.1785,0.4264 0.1855,0.4214 L4.7445,2.9004 C4.7365,2.9064 4.7285,2.9124 4.7215,2.9194" id="Fill-157" fill="#A0C6F1" mask="url(#mask-76)"></path>
                        </g>
                        <g>
                            <mask id="mask-78" fill="white">
                                <use xlink:href="#path-77"></use>
                            </mask>
                            <g id="Clip-160"></g>
                            <path d="M4.7444,2.9008 L0.1854,0.4218 C0.1964,0.4138 0.2074,0.4078 0.2184,0.4018 L4.7774,2.8818 C4.7654,2.8868 4.7554,2.8938 4.7444,2.9008" id="Fill-159" fill="#9DC4F0" mask="url(#mask-78)"></path>
                        </g>
                        <g>
                            <mask id="mask-80" fill="white">
                                <use xlink:href="#path-79"></use>
                            </mask>
                            <g id="Clip-162"></g>
                            <path d="M4.7776,2.8823 L0.2186,0.4023 C0.2386,0.3933 0.2596,0.3863 0.2816,0.3833 L4.8406,2.8623 C4.8186,2.8653 4.7976,2.8723 4.7776,2.8823" id="Fill-161" fill="#9AC2F0" mask="url(#mask-80)"></path>
                        </g>
                    </g>
                    <g transform="translate(0.000000, 30.000000)">
                        <mask id="mask-82" fill="white">
                            <use xlink:href="#path-81"></use>
                        </mask>
                        <g id="Clip-164"></g>
                        <path d="M5.6292,3.187 L1.0702,0.707 C0.9372,0.634 0.8492,0.483 0.8492,0.297 L5.4082,2.777 C5.4072,2.962 5.4952,3.114 5.6292,3.187" id="Fill-163" fill="#AFCFF3" mask="url(#mask-82)"></path>
                    </g>
                    <g transform="translate(8.000000, 8.000000)">
                        <g>
                            <mask id="mask-84" fill="white">
                                <use xlink:href="#path-83"></use>
                            </mask>
                            <g id="Clip-166"></g>
                            <path d="M4.7283,2.7524 L0.1693,0.2734 C0.1913,0.2704 0.2123,0.2714 0.2323,0.2754 L4.7913,2.7564 C4.7713,2.7504 4.7503,2.7494 4.7283,2.7524" id="Fill-165" fill="#9AC2F0" mask="url(#mask-84)"></path>
                        </g>
                        <g>
                            <mask id="mask-86" fill="white">
                                <use xlink:href="#path-85"></use>
                            </mask>
                            <g id="Clip-168"></g>
                            <path d="M4.7913,2.7563 L0.2323,0.2763 C0.2433,0.2783 0.2523,0.2823 0.2623,0.2863 L4.8203,2.7673 C4.8113,2.7623 4.8013,2.7583 4.7913,2.7563" id="Fill-167" fill="#9DC4F0" mask="url(#mask-86)"></path>
                        </g>
                        <g>
                            <mask id="mask-88" fill="white">
                                <use xlink:href="#path-87"></use>
                            </mask>
                            <g id="Clip-170"></g>
                            <polygon id="Fill-169" fill="#A0C6F1" mask="url(#mask-88)" points="4.8206 2.767 0.2616 0.287 0.2676 0.289 4.8266 2.77"></polygon>
                        </g>
                    </g>
                    <polygon id="Fill-171" fill="#93BEEF" points="10.6214 11.0483 6.0624 8.5693 8.1694 8.2733 12.7284 10.7523"></polygon>
                    <polygon id="Fill-173" fill="#B1D0F3" points="10.3919 26.9858 5.8329 24.5058 5.8619 8.8218 10.4209 11.3018"></polygon>
                    <path d="M12.7283,10.7524 C12.8323,10.7374 12.9203,10.8204 12.9203,10.9504 L12.8913,26.6344 C12.8913,26.7644 12.8023,26.8714 12.6983,26.8864 L10.5913,27.1824 C10.4793,27.1974 10.3913,27.1154 10.3922916,26.9854 L10.4203,11.3024 C10.4213,11.1724 10.5093,11.0644 10.6213,11.0484 L12.7283,10.7524 Z" id="Fill-175" fill="#79AFEB"></path>
                    <g transform="translate(5.000000, 8.000000)">
                        <g>
                            <mask id="mask-90" fill="white">
                                <use xlink:href="#path-89"></use>
                            </mask>
                            <g id="Clip-178"></g>
                            <path d="M5.4207,3.3022 L0.8617,0.8222 C0.8617,0.7882 0.8687,0.7562 0.8787,0.7272 L5.4377,3.2062 C5.4267,3.2362 5.4207,3.2682 5.4207,3.3022" id="Fill-177" fill="#AFCFF3" mask="url(#mask-90)"></path>
                        </g>
                        <g>
                            <mask id="mask-92" fill="white">
                                <use xlink:href="#path-91"></use>
                            </mask>
                            <g id="Clip-180"></g>
                            <path d="M5.4378,3.2065 L0.8788,0.7275 C0.8838,0.7155 0.8888,0.7035 0.8948,0.6915 L5.4538,3.1725 C5.4478,3.1835 5.4418,3.1945 5.4378,3.2065" id="Fill-179" fill="#ACCDF3" mask="url(#mask-92)"></path>
                        </g>
                        <g>
                            <mask id="mask-94" fill="white">
                                <use xlink:href="#path-93"></use>
                            </mask>
                            <g id="Clip-182"></g>
                            <path d="M5.4534,3.1723 L0.8944,0.6923 C0.8994,0.6833 0.9054,0.6743 0.9114,0.6653 L5.4694,3.1463 C5.4634,3.1533 5.4584,3.1623 5.4534,3.1723" id="Fill-181" fill="#A9CBF2" mask="url(#mask-94)"></path>
                        </g>
                        <g>
                            <mask id="mask-96" fill="white">
                                <use xlink:href="#path-95"></use>
                            </mask>
                            <g id="Clip-184"></g>
                            <path d="M5.4695,3.1459 L0.9105,0.6659 C0.9165,0.6579 0.9225,0.6509 0.9285,0.6439 L5.4875,3.1239 C5.4805,3.1299 5.4745,3.1379 5.4695,3.1459" id="Fill-183" fill="#A6CAF2" mask="url(#mask-96)"></path>
                        </g>
                        <g>
                            <mask id="mask-98" fill="white">
                                <use xlink:href="#path-97"></use>
                            </mask>
                            <g id="Clip-186"></g>
                            <path d="M5.4871,3.1235 L0.9281,0.6445 C0.9351,0.6365 0.9411,0.6305 0.9481,0.6235 L5.5071,3.1035 C5.5001,3.1095 5.4931,3.1165 5.4871,3.1235" id="Fill-185" fill="#A3C8F1" mask="url(#mask-98)"></path>
                        </g>
                        <g>
                            <mask id="mask-100" fill="white">
                                <use xlink:href="#path-99"></use>
                            </mask>
                            <g id="Clip-188"></g>
                            <path d="M5.5066,3.1039 L0.9476,0.6239 C0.9556,0.6169 0.9636,0.6109 0.9716,0.6049 L5.5296,3.0849 C5.5226,3.0899 5.5146,3.0969 5.5066,3.1039" id="Fill-187" fill="#A0C6F1" mask="url(#mask-100)"></path>
                        </g>
                        <g>
                            <mask id="mask-102" fill="white">
                                <use xlink:href="#path-101"></use>
                            </mask>
                            <g id="Clip-190"></g>
                            <path d="M5.5301,3.0854 L0.9711,0.6054 C0.9821,0.5984 0.9921,0.5924 1.0041,0.5864 L5.5621,3.0664 C5.5511,3.0714 5.5401,3.0774 5.5301,3.0854" id="Fill-189" fill="#9DC4F0" mask="url(#mask-102)"></path>
                        </g>
                        <g>
                            <mask id="mask-104" fill="white">
                                <use xlink:href="#path-103"></use>
                            </mask>
                            <g id="Clip-192"></g>
                            <path d="M5.5623,3.0668 L1.0033,0.5868 C1.0223,0.5778 1.0423,0.5718 1.0623,0.5688 L5.6213,3.0478 C5.6013,3.0508 5.5813,3.0578 5.5623,3.0668" id="Fill-191" fill="#9AC2F0" mask="url(#mask-104)"></path>
                        </g>
                    </g>
                    <polygon id="Fill-193" fill="#93BEEF" points="5.9295 6.3237 1.3705 3.8437 25.3385 0.4747 29.8965 2.9547"></polygon>
                    <polygon id="Fill-195" fill="#B1D0F3" points="5.408 32.7768 0.849 30.2978 0.897 4.4288 5.456 6.9088"></polygon>
                    <g transform="translate(0.000000, 3.000000)">
                        <g>
                            <mask id="mask-106" fill="white">
                                <use xlink:href="#path-105"></use>
                            </mask>
                            <g id="Clip-198"></g>
                            <path d="M5.4559,3.9086 L0.8969,1.4296 C0.8979,1.3566 0.9109,1.2866 0.9349,1.2206 L5.4939,3.6996 C5.4699,3.7656 5.4559,3.8366 5.4559,3.9086" id="Fill-197" fill="#AFCFF3" mask="url(#mask-106)"></path>
                        </g>
                        <g>
                            <mask id="mask-108" fill="white">
                                <use xlink:href="#path-107"></use>
                            </mask>
                            <g id="Clip-200"></g>
                            <path d="M5.4939,3.6996 L0.9349,1.2206 C0.9459,1.1916 0.9579,1.1656 0.9719,1.1386 L5.5299,3.6186 C5.5159,3.6446 5.5039,3.6726 5.4939,3.6996" id="Fill-199" fill="#ACCDF3" mask="url(#mask-108)"></path>
                        </g>
                        <g>
                            <mask id="mask-110" fill="white">
                                <use xlink:href="#path-109"></use>
                            </mask>
                            <g id="Clip-202"></g>
                            <path d="M5.5301,3.6186 L0.9711,1.1396 C0.9831,1.1166 0.9961,1.0966 1.0101,1.0756 L5.5701,3.5556 C5.5551,3.5756 5.5421,3.5976 5.5301,3.6186" id="Fill-201" fill="#A9CBF2" mask="url(#mask-110)"></path>
                        </g>
                        <g>
                            <mask id="mask-112" fill="white">
                                <use xlink:href="#path-111"></use>
                            </mask>
                            <g id="Clip-204"></g>
                            <path d="M5.5696,3.5551 L1.0106,1.0761 C1.0236,1.0571 1.0386,1.0381 1.0536,1.0221 L5.6116,3.5011 C5.5966,3.5191 5.5826,3.5361 5.5696,3.5551" id="Fill-203" fill="#A6CAF2" mask="url(#mask-112)"></path>
                        </g>
                        <g>
                            <mask id="mask-114" fill="white">
                                <use xlink:href="#path-113"></use>
                            </mask>
                            <g id="Clip-206"></g>
                            <path d="M5.6121,3.5014 L1.0531,1.0224 C1.0691,1.0044 1.0841,0.9884 1.1011,0.9734 L5.6601,3.4524 C5.6431,3.4684 5.6271,3.4844 5.6121,3.5014" id="Fill-205" fill="#A3C8F1" mask="url(#mask-114)"></path>
                        </g>
                        <g>
                            <mask id="mask-116" fill="white">
                                <use xlink:href="#path-115"></use>
                            </mask>
                            <g id="Clip-208"></g>
                            <path d="M5.66,3.4526 L1.101,0.9736 C1.119,0.9566 1.138,0.9416 1.158,0.9286 L5.717,3.4086 C5.697,3.4226 5.678,3.4366 5.66,3.4526" id="Fill-207" fill="#A0C6F1" mask="url(#mask-116)"></path>
                        </g>
                        <g>
                            <mask id="mask-118" fill="white">
                                <use xlink:href="#path-117"></use>
                            </mask>
                            <g id="Clip-210"></g>
                            <path d="M5.7166,3.4086 L1.1576,0.9286 C1.1816,0.9116 1.2076,0.8966 1.2336,0.8856 L5.7926,3.3646 C5.7656,3.3776 5.7406,3.3916 5.7166,3.4086" id="Fill-209" fill="#9DC4F0" mask="url(#mask-118)"></path>
                        </g>
                        <g>
                            <mask id="mask-120" fill="white">
                                <use xlink:href="#path-119"></use>
                            </mask>
                            <g id="Clip-212"></g>
                            <path d="M5.7923,3.3647 L1.2333,0.8857 C1.2763,0.8647 1.3233,0.8497 1.3713,0.8437 L5.9293,3.3237 C5.8813,3.3307 5.8353,3.3437 5.7923,3.3647" id="Fill-211" fill="#9AC2F0" mask="url(#mask-120)"></path>
                        </g>
                    </g>
                    <path d="M27.8416,27.1782 L27.8806,6.2032 C27.8806,6.0562 27.7686,5.9502 27.6336,5.9702 L8.1916,8.7022 C8.0556,8.7212 7.9426,8.8592 7.9426,9.0052 L7.9036,29.9802 C7.9036,30.1272 8.0156,30.2322 8.1516,30.2132 L27.5926,27.4812 C27.7296,27.4612 27.8416,27.3242 27.8416,27.1782 L27.8416,27.1782 Z M29.8966,2.9542 C30.1606,2.9172 30.3766,3.1202 30.3766,3.4062 L30.3286,29.2752 C30.3276,29.5602 30.1116,29.8242 29.8466,29.8612 L5.8796,33.2292 C5.6146,33.2662 5.4076,33.0622 5.4076,32.7772 L5.4556,6.9082 C5.4566,6.6232 5.6656,6.3612 5.9296,6.3242 L29.8966,2.9542 Z" id="Fill-213" fill="#79AFEB"></path>
                </g>
            </g>
        </g>
    </g>
</svg>