<?xml version="1.0" encoding="UTF-8"?>
<svg width="30px" height="33px" viewBox="0 0 30 33" version="1.1" xmlns="http://www.w3.org/2000/svg" xmlns:xlink="http://www.w3.org/1999/xlink">
    <!-- Generator: Sketch 64 (93537) - https://sketch.com -->
    <title>datachecker</title>
    <desc>Created with Sketch.</desc>
    <defs>
        <path d="M24.444,0.264 L24.444,3.737 C24.444,6.76 18.972,9.206 12.222,9.206 C5.472,9.206 0,6.76 0,3.737 L0,0.264 C0,3.287 5.472,5.733 12.222,5.733" id="path-1"></path>
        <path d="M24.444,0.264 L24.444,3.737 C24.444,6.76 18.972,9.206 12.222,9.206 C5.472,9.206 0,6.76 0,3.737 L0,0.264 C0,3.287 5.472,5.733 12.222,5.733" id="path-3"></path>
        <path d="M24.444,0.264 L24.444,3.737 C24.444,6.76 18.972,9.206 12.222,9.206 C5.472,9.206 0,6.76 0,3.737 L0,0.264 C0,3.287 5.472,5.733 12.222,5.733" id="path-5"></path>
        <path d="M24.444,0.264 L24.444,3.737 C24.444,6.76 18.972,9.206 12.222,9.206 C5.472,9.206 0,6.76 0,3.737 L0,0.264 C0,3.287 5.472,5.733 12.222,5.733" id="path-7"></path>
        <path d="M24.444,0.595 L24.444,4.068 C24.444,7.091 18.972,9.537 12.222,9.537 C5.472,9.537 0,7.091 0,4.068 L0,0.595 C0,3.618 5.472,6.064 12.222,6.064" id="path-9"></path>
        <path d="M24.444,0.595 L24.444,4.068 C24.444,7.091 18.972,9.537 12.222,9.537 C5.472,9.537 0,7.091 0,4.068 L0,0.595 C0,3.618 5.472,6.064 12.222,6.064" id="path-11"></path>
        <path d="M24.444,0.595 L24.444,4.068 C24.444,7.091 18.972,9.537 12.222,9.537 C5.472,9.537 0,7.091 0,4.068 L0,0.595 C0,3.618 5.472,6.064 12.222,6.064" id="path-13"></path>
        <path d="M24.444,0.595 L24.444,4.068 C24.444,7.091 18.972,9.537 12.222,9.537 C5.472,9.537 0,7.091 0,4.068 L0,0.595 C0,3.618 5.472,6.064 12.222,6.064" id="path-15"></path>
        <polygon id="path-17" points="0.0001 0.458 24.4441 0.458 24.4441 11.4038 0.0001 11.4038"></polygon>
        <path d="M24.444,0.927 L24.444,4.399 C24.444,7.422 18.972,9.877 12.222,9.877 C5.472,9.877 0,7.422 0,4.399 L0,0.927 C0,3.949 5.472,6.404 12.222,6.404" id="path-19"></path>
        <path d="M24.444,0.927 L24.444,4.399 C24.444,7.422 18.972,9.877 12.222,9.877 C5.472,9.877 0,7.422 0,4.399 L0,0.927 C0,3.949 5.472,6.404 12.222,6.404" id="path-21"></path>
        <path d="M24.444,0.927 L24.444,4.399 C24.444,7.422 18.972,9.877 12.222,9.877 C5.472,9.877 0,7.422 0,4.399 L0,0.927 C0,3.949 5.472,6.404 12.222,6.404" id="path-23"></path>
        <path d="M24.444,0.927 L24.444,4.399 C24.444,7.422 18.972,9.877 12.222,9.877 C5.472,9.877 0,7.422 0,4.399 L0,0.927 C0,3.949 5.472,6.404 12.222,6.404" id="path-25"></path>
        <polygon id="path-27" points="0.2182 0.3338 16.885 0.3338 16.885 16.9998 0.2182 16.9998"></polygon>
        <path d="M0.989,0.743 C1.597,1.972 2.867,2.745 4.255,2.745 C4.498,2.745 4.745,2.721 4.993,2.672 L5.422,3.54 C5.174,3.589 4.927,3.614 4.684,3.614 C3.296,3.614 2.027,2.84 1.419,1.611" id="path-29"></path>
        <path d="M0.989,0.743 C1.597,1.972 2.867,2.745 4.255,2.745 C4.498,2.745 4.745,2.721 4.993,2.672 L5.422,3.54 C5.174,3.589 4.927,3.614 4.684,3.614 C3.296,3.614 2.027,2.84 1.419,1.611" id="path-31"></path>
        <path d="M0.989,0.743 C1.597,1.972 2.867,2.745 4.255,2.745 C4.498,2.745 4.745,2.721 4.993,2.672 L5.422,3.54 C5.174,3.589 4.927,3.614 4.684,3.614 C3.296,3.614 2.027,2.84 1.419,1.611" id="path-33"></path>
        <path d="M0.989,0.743 C1.597,1.972 2.867,2.745 4.255,2.745 C4.498,2.745 4.745,2.721 4.993,2.672 L5.422,3.54 C5.174,3.589 4.927,3.614 4.684,3.614 C3.296,3.614 2.027,2.84 1.419,1.611" id="path-35"></path>
        <path d="M0.989,0.743 C1.597,1.972 2.867,2.745 4.255,2.745 C4.498,2.745 4.745,2.721 4.993,2.672 L5.422,3.54 C5.174,3.589 4.927,3.614 4.684,3.614 C3.296,3.614 2.027,2.84 1.419,1.611" id="path-37"></path>
        <path d="M0.989,0.743 C1.597,1.972 2.867,2.745 4.255,2.745 C4.498,2.745 4.745,2.721 4.993,2.672 L5.422,3.54 C5.174,3.589 4.927,3.614 4.684,3.614 C3.296,3.614 2.027,2.84 1.419,1.611" id="path-39"></path>
        <path d="M0.989,0.743 C1.597,1.972 2.867,2.745 4.255,2.745 C4.498,2.745 4.745,2.721 4.993,2.672 L5.422,3.54 C5.174,3.589 4.927,3.614 4.684,3.614 C3.296,3.614 2.027,2.84 1.419,1.611" id="path-41"></path>
        <path d="M3.648,0.441 L4.077,1.309 C4.27,1.7 4.393,2.13 4.433,2.587 C4.592,4.466 3.293,6.168 1.422,6.54 L0.993,5.672 C2.863,5.3 4.163,3.598 4.004,1.719" id="path-43"></path>
        <path d="M3.648,0.441 L4.077,1.309 C4.27,1.7 4.393,2.13 4.433,2.587 C4.592,4.466 3.293,6.168 1.422,6.54 L0.993,5.672 C2.863,5.3 4.163,3.598 4.004,1.719" id="path-45"></path>
        <path d="M3.648,0.441 L4.077,1.309 C4.27,1.7 4.393,2.13 4.433,2.587 C4.592,4.466 3.293,6.168 1.422,6.54 L0.993,5.672 C2.863,5.3 4.163,3.598 4.004,1.719" id="path-47"></path>
        <path d="M3.648,0.441 L4.077,1.309 C4.27,1.7 4.393,2.13 4.433,2.587 C4.592,4.466 3.293,6.168 1.422,6.54 L0.993,5.672 C2.863,5.3 4.163,3.598 4.004,1.719" id="path-49"></path>
        <path d="M3.648,0.441 L4.077,1.309 C4.27,1.7 4.393,2.13 4.433,2.587 C4.592,4.466 3.293,6.168 1.422,6.54 L0.993,5.672 C2.863,5.3 4.163,3.598 4.004,1.719" id="path-51"></path>
    </defs>
    <g id="工作空间项目-开发中心-具体工作流" stroke="none" stroke-width="1" fill="none" fill-rule="evenodd">
        <g id="侧边栏icon" transform="translate(-34.000000, -669.000000)">
            <g id="datachecker" transform="translate(31.000000, 667.000000)">
                <g id="编组-30">
                    <rect id="矩形备份-17" x="0" y="0" width="36" height="36"></rect>
                </g>
                <g id="编组-47" transform="translate(3.000000, 1.000000)">
                    <g id="编组">
                        <g transform="translate(0.000000, 13.542000)">
                            <path d="M12.2221,0.7957 C18.9721,0.7957 24.4441,3.2417 24.4441,6.2647 C24.4441,9.2867 18.9721,11.7337 12.2221,11.7337 C5.4721,11.7337 0.0001,9.2867 0.0001,6.2647 C0.0001,3.2417 5.4721,0.7957 12.2221,0.7957" id="Fill-1" fill="#1DE5E0"></path>
                            <g transform="translate(0.000000, 6.000000)">
                                <g>
                                    <mask id="mask-2" fill="white">
                                        <use xlink:href="#path-1"></use>
                                    </mask>
                                    <g id="Clip-4"></g>
                                    <path d="M24.4442,0.2644 L24.4442,3.7374 C24.4442,3.9204 24.4232,4.1024 24.3842,4.2814 L24.3842,0.8074 C24.4232,0.6284 24.4442,0.4484 24.4442,0.2644" id="Fill-3" fill="#6DEEEB" mask="url(#mask-2)"></path>
                                </g>
                                <g>
                                    <mask id="mask-4" fill="white">
                                        <use xlink:href="#path-3"></use>
                                    </mask>
                                    <g id="Clip-6"></g>
                                    <path d="M24.3847,0.8074 L24.3847,4.2814 C24.3407,4.4804 24.2727,4.6754 24.1827,4.8684 L24.1827,1.3954 C24.2727,1.2034 24.3407,1.0064 24.3847,0.8074" id="Fill-5" fill="#72EFEB" mask="url(#mask-4)"></path>
                                </g>
                                <g>
                                    <mask id="mask-6" fill="white">
                                        <use xlink:href="#path-5"></use>
                                    </mask>
                                    <g id="Clip-8"></g>
                                    <path d="M24.1825,1.3953 L24.1825,4.8683 C24.0685,5.1113 23.9185,5.3483 23.7345,5.5793 L23.7345,2.1063 C23.9185,1.8753 24.0685,1.6383 24.1825,1.3953" id="Fill-7" fill="#77EFEC" mask="url(#mask-6)"></path>
                                </g>
                                <g>
                                    <mask id="mask-8" fill="white">
                                        <use xlink:href="#path-7"></use>
                                    </mask>
                                    <g id="Clip-10"></g>
                                    <path d="M23.7343,2.1062 L23.7343,5.5792 C22.0453,7.6942 17.5283,9.2062 12.2223,9.2062 C5.4723,9.2062 0.0003,6.7592 0.0003,3.7372 L0.0003,0.2642 C0.0003,3.2872 5.4723,5.7332 12.2223,5.7332 C17.5283,5.7332 22.0453,4.2212 23.7343,2.1062" id="Fill-9" fill="#7CF0ED" mask="url(#mask-8)"></path>
                                </g>
                            </g>
                        </g>
                        <g transform="translate(0.000000, 7.542000)">
                            <path d="M12.2221,0.1267 C18.9721,0.1267 24.4441,2.5727 24.4441,5.5957 C24.4441,8.6177 18.9721,11.0647 12.2221,11.0647 C5.4721,11.0647 0.0001,8.6177 0.0001,5.5957 C0.0001,2.5727 5.4721,0.1267 12.2221,0.1267" id="Fill-11" fill="#1DE5E0"></path>
                            <g transform="translate(0.000000, 5.000000)">
                                <g>
                                    <mask id="mask-10" fill="white">
                                        <use xlink:href="#path-9"></use>
                                    </mask>
                                    <g id="Clip-14"></g>
                                    <path d="M24.4442,0.5955 L24.4442,4.0685 C24.4442,4.2515 24.4232,4.4335 24.3842,4.6125 L24.3842,1.1385 C24.4232,0.9595 24.4442,0.7795 24.4442,0.5955" id="Fill-13" fill="#6DEEEB" mask="url(#mask-10)"></path>
                                </g>
                                <g>
                                    <mask id="mask-12" fill="white">
                                        <use xlink:href="#path-11"></use>
                                    </mask>
                                    <g id="Clip-16"></g>
                                    <path d="M24.3847,1.1385 L24.3847,4.6125 C24.3407,4.8115 24.2727,5.0065 24.1827,5.1995 L24.1827,1.7265 C24.2727,1.5345 24.3407,1.3375 24.3847,1.1385" id="Fill-15" fill="#72EFEB" mask="url(#mask-12)"></path>
                                </g>
                                <g>
                                    <mask id="mask-14" fill="white">
                                        <use xlink:href="#path-13"></use>
                                    </mask>
                                    <g id="Clip-18"></g>
                                    <path d="M24.1825,1.7263 L24.1825,5.1993 C24.0685,5.4423 23.9185,5.6793 23.7345,5.9103 L23.7345,2.4373 C23.9185,2.2063 24.0685,1.9693 24.1825,1.7263" id="Fill-17" fill="#77EFEC" mask="url(#mask-14)"></path>
                                </g>
                                <g>
                                    <mask id="mask-16" fill="white">
                                        <use xlink:href="#path-15"></use>
                                    </mask>
                                    <g id="Clip-20"></g>
                                    <path d="M23.7343,2.4373 L23.7343,5.9103 C22.0463,8.0253 17.5283,9.5373 12.2223,9.5373 C5.4723,9.5373 0.0003,7.0903 0.0003,4.0683 L0.0003,0.5953 C0.0003,3.6183 5.4723,6.0643 12.2223,6.0643 C17.5283,6.0643 22.0463,4.5523 23.7343,2.4373" id="Fill-19" fill="#7CF0ED" mask="url(#mask-16)"></path>
                                </g>
                            </g>
                        </g>
                        <g transform="translate(0.000000, 0.542000)">
                            <g>
                                <mask id="mask-18" fill="white">
                                    <use xlink:href="#path-17"></use>
                                </mask>
                                <g id="Clip-22"></g>
                                <path d="M12.2221,0.4578 C18.9721,0.4578 24.4441,2.9038 24.4441,5.9268 C24.4441,8.9488 18.9721,11.4038 12.2221,11.4038 C5.4721,11.4038 0.0001,8.9488 0.0001,5.9268 C0.0001,2.9038 5.4721,0.4578 12.2221,0.4578" id="Fill-21" fill="#1DE5E0" mask="url(#mask-18)"></path>
                            </g>
                            <g transform="translate(0.000000, 5.000000)">
                                <g>
                                    <mask id="mask-20" fill="white">
                                        <use xlink:href="#path-19"></use>
                                    </mask>
                                    <g id="Clip-24"></g>
                                    <path d="M24.4442,0.9265 L24.4442,4.3995 C24.4442,4.5825 24.4232,4.7645 24.3842,4.9435 L24.3842,1.4705 C24.4232,1.2915 24.4442,1.1105 24.4442,0.9265" id="Fill-23" fill="#6DEEEB" mask="url(#mask-20)"></path>
                                </g>
                                <g>
                                    <mask id="mask-22" fill="white">
                                        <use xlink:href="#path-21"></use>
                                    </mask>
                                    <g id="Clip-26"></g>
                                    <path d="M24.3847,1.4705 L24.3847,4.9435 C24.3407,5.1425 24.2727,5.3385 24.1827,5.5325 L24.1827,2.0585 C24.2727,1.8665 24.3407,1.6695 24.3847,1.4705" id="Fill-25" fill="#72EFEB" mask="url(#mask-22)"></path>
                                </g>
                                <g>
                                    <mask id="mask-24" fill="white">
                                        <use xlink:href="#path-23"></use>
                                    </mask>
                                    <g id="Clip-28"></g>
                                    <path d="M24.1825,2.0584 L24.1825,5.5324 C24.0675,5.7754 23.9175,6.0134 23.7325,6.2444 L23.7325,2.7714 C23.9175,2.5394 24.0675,2.3024 24.1825,2.0584" id="Fill-27" fill="#77EFEC" mask="url(#mask-24)"></path>
                                </g>
                                <g>
                                    <mask id="mask-26" fill="white">
                                        <use xlink:href="#path-25"></use>
                                    </mask>
                                    <g id="Clip-30"></g>
                                    <path d="M23.7328,2.7713 L23.7328,6.2443 C22.0428,8.3603 17.5268,9.8763 12.2218,9.8763 C5.4718,9.8763 -0.0002,7.4213 -0.0002,4.3993 L-0.0002,0.9263 C-0.0002,3.9493 5.4718,6.4043 12.2218,6.4043 C17.5268,6.4043 22.0428,4.8873 23.7328,2.7713" id="Fill-29" fill="#7CF0ED" mask="url(#mask-26)"></path>
                                </g>
                            </g>
                        </g>
                        <g transform="translate(12.000000, 14.542000)">
                            <mask id="mask-28" fill="white">
                                <use xlink:href="#path-27"></use>
                            </mask>
                            <g id="Clip-32"></g>
                            <path d="M0.2182,8.6668 C0.2182,4.0638 3.9492,0.3338 8.5512,0.3338 C13.1542,0.3338 16.8852,4.0638 16.8852,8.6668 C16.8852,13.2698 13.1542,16.9998 8.5512,16.9998 C3.9492,16.9998 0.2182,13.2698 0.2182,8.6668" id="Fill-31" fill="#F8F9FC" mask="url(#mask-28)"></path>
                        </g>
                    </g>
                    <g id="编组-46" transform="translate(14.000000, 17.000000)">
                        <path d="M6.5,1.77635684e-15 C10.0898509,1.77635684e-15 13,2.91014913 13,6.5 C13,6.75863777 12.9848941,7.01374738 12.9555165,7.26449467 C12.5926152,4.29762928 10.0646276,2 7,2 C3.6862915,2 1,4.6862915 1,8 C1,9.08663818 1.28886469,10.1058084 1.79399319,10.9849098 C0.682825796,9.81831059 0,8.23889655 0,6.5 C0,2.91014913 2.91014913,1.77635684e-15 6.5,1.77635684e-15 Z" id="路径" fill="#7CF0ED"></path>
                        <g id="编组" transform="translate(14.000000, 13.148600)">
                            <path d="M1.4948,1.3959 L1.0658,0.5279 C1.1088,0.5729 1.1468,0.6219 1.1808,0.6719 L1.6098,1.5409 C1.5768,1.4899 1.5378,1.4409 1.4948,1.3959" id="Fill-1" fill="#59ECE8"></path>
                            <path d="M1.6095,1.5404 L1.1805,0.6724 C1.2005,0.7024 1.2185,0.7344 1.2345,0.7674 L1.6635,1.6354 C1.6475,1.6024 1.6295,1.5704 1.6095,1.5404" id="Fill-2" fill="#5EECE9"></path>
                        </g>
                        <polygon id="Fill-3" fill="#55EBE7" points="11.8483 10.8834 11.4193 10.0154 15.0653 13.6764 15.4943 14.5444"></polygon>
                        <polygon id="Fill-5" fill="#51EBE7" points="11.7682 10.8394 11.3392 9.9714 11.4192 10.0154 11.8482 10.8834"></polygon>
                        <g id="编组" transform="translate(2.000000, 7.148600)">
                            <g>
                                <mask id="mask-30" fill="white">
                                    <use xlink:href="#path-29"></use>
                                </mask>
                                <g id="Clip-8"></g>
                                <path d="M1.4186,1.6107 L0.9896,0.7427 C1.0506,0.8657 1.1186,0.9847 1.1916,1.0977 L1.6216,1.9657 C1.5466,1.8527 1.4796,1.7337 1.4186,1.6107" id="Fill-7" fill="#5EECE9" mask="url(#mask-30)"></path>
                            </g>
                            <g>
                                <mask id="mask-32" fill="white">
                                    <use xlink:href="#path-31"></use>
                                </mask>
                                <g id="Clip-10"></g>
                                <path d="M1.6212,1.9662 L1.1922,1.0982 C1.3332,1.3162 1.4962,1.5162 1.6782,1.6952 L2.1072,2.5642 C1.9252,2.3842 1.7622,2.1842 1.6212,1.9662" id="Fill-9" fill="#59ECE8" mask="url(#mask-32)"></path>
                            </g>
                            <g>
                                <mask id="mask-34" fill="white">
                                    <use xlink:href="#path-33"></use>
                                </mask>
                                <g id="Clip-12"></g>
                                <path d="M2.1076,2.5639 L1.6786,1.6959 C2.0196,2.0319 2.4246,2.2969 2.8706,2.4769 L3.2996,3.3449 C2.8546,3.1659 2.4486,2.9009 2.1076,2.5639" id="Fill-11" fill="#54EBE7" mask="url(#mask-34)"></path>
                            </g>
                            <g>
                                <mask id="mask-36" fill="white">
                                    <use xlink:href="#path-35"></use>
                                </mask>
                                <g id="Clip-14"></g>
                                <path d="M3.3,3.3451 L2.871,2.4771 C3.11,2.5741 3.362,2.6461 3.62,2.6911 L4.049,3.5591 C3.79,3.5141 3.539,3.4421 3.3,3.3451" id="Fill-13" fill="#59ECE8" mask="url(#mask-36)"></path>
                            </g>
                            <g>
                                <mask id="mask-38" fill="white">
                                    <use xlink:href="#path-37"></use>
                                </mask>
                                <g id="Clip-16"></g>
                                <path d="M4.049,3.559 L3.62,2.691 C3.796,2.721 3.976,2.739 4.158,2.744 L4.587,3.612 C4.405,3.607 4.225,3.589 4.049,3.559" id="Fill-15" fill="#5EECE9" mask="url(#mask-38)"></path>
                            </g>
                            <g>
                                <mask id="mask-40" fill="white">
                                    <use xlink:href="#path-39"></use>
                                </mask>
                                <g id="Clip-18"></g>
                                <path d="M4.5871,3.6117 L4.1581,2.7437 C4.1901,2.7447 4.2221,2.7447 4.2541,2.7447 C4.3791,2.7447 4.5051,2.7387 4.6321,2.7257 L5.0611,3.5937 C4.9341,3.6067 4.8081,3.6137 4.6841,3.6137 C4.6511,3.6137 4.6191,3.6127 4.5871,3.6117" id="Fill-17" fill="#63EDE9" mask="url(#mask-40)"></path>
                            </g>
                            <g>
                                <mask id="mask-42" fill="white">
                                    <use xlink:href="#path-41"></use>
                                </mask>
                                <g id="Clip-20"></g>
                                <path d="M5.0612,3.5941 L4.6322,2.7261 C4.7512,2.7141 4.8722,2.6961 4.9932,2.6721 L5.4222,3.5401 C5.3012,3.5641 5.1812,3.5821 5.0612,3.5941" id="Fill-19" fill="#68EEEA" mask="url(#mask-42)"></path>
                            </g>
                        </g>
                        <g id="编组" transform="translate(6.000000, 4.148600)">
                            <g>
                                <mask id="mask-44" fill="white">
                                    <use xlink:href="#path-43"></use>
                                </mask>
                                <g id="Clip-22"></g>
                                <path d="M1.422,6.5404 L0.993,5.6724 C1.022,5.6664 1.051,5.6604 1.08,5.6534 L1.509,6.5214 C1.48,6.5284 1.451,6.5344 1.422,6.5404" id="Fill-21" fill="#68EEEA" mask="url(#mask-44)"></path>
                            </g>
                            <g>
                                <mask id="mask-46" fill="white">
                                    <use xlink:href="#path-45"></use>
                                </mask>
                                <g id="Clip-24"></g>
                                <path d="M1.5089,6.5219 L1.0799,5.6539 C1.2299,5.6209 1.3769,5.5789 1.5189,5.5279 L1.9479,6.3959 C1.8059,6.4469 1.6589,6.4889 1.5089,6.5219" id="Fill-23" fill="#6DEEEB" mask="url(#mask-46)"></path>
                            </g>
                            <g>
                                <mask id="mask-48" fill="white">
                                    <use xlink:href="#path-47"></use>
                                </mask>
                                <g id="Clip-26"></g>
                                <path d="M1.9479,6.3959 L1.5189,5.5279 C1.6739,5.4729 1.8239,5.4089 1.9689,5.3349 L2.3979,6.2039 C2.2539,6.2769 2.1029,6.3409 1.9479,6.3959" id="Fill-25" fill="#72EFEB" mask="url(#mask-48)"></path>
                            </g>
                            <g>
                                <mask id="mask-50" fill="white">
                                    <use xlink:href="#path-49"></use>
                                </mask>
                                <g id="Clip-28"></g>
                                <path d="M2.3976,6.2035 L1.9686,5.3355 C2.1446,5.2465 2.3106,5.1445 2.4676,5.0315 L2.8976,5.8995 C2.7396,6.0135 2.5726,6.1145 2.3976,6.2035" id="Fill-27" fill="#77EFEC" mask="url(#mask-50)"></path>
                            </g>
                            <g>
                                <mask id="mask-52" fill="white">
                                    <use xlink:href="#path-51"></use>
                                </mask>
                                <g id="Clip-30"></g>
                                <path d="M2.8971,5.8998 L2.4681,5.0318 C3.5001,4.2878 4.1161,3.0468 4.0031,1.7188 C3.9641,1.2618 3.8401,0.8318 3.6471,0.4408 L4.0771,1.3088 C4.2701,1.6998 4.3931,2.1298 4.4331,2.5868 C4.5451,3.9158 3.9291,5.1558 2.8971,5.8998" id="Fill-29" fill="#7CF0ED" mask="url(#mask-52)"></path>
                            </g>
                        </g>
                        <path d="M12.0919,3.6929 L11.6629,2.8249 C11.7909,3.0219 11.9079,3.2269 12.0129,3.4399 L12.4419,4.3079 C12.3369,4.0949 12.2199,3.8899 12.0919,3.6929" id="Fill-51" fill="#5EECE9"></path>
                        <polygon id="Clip-54" points="0.429257222 0.869 15.7606743 0.869 15.7606743 16.1486 0.429257222 16.1486"></polygon>
                        <path d="M7.422,10.689 C9.293,10.317 10.592,8.615 10.433,6.736 C10.273,4.875 8.708,3.448 6.807,3.439 C6.314,3.439 5.819,3.536 5.359,3.731 C3.591,4.458 2.655,6.381 3.193,8.18 C3.651,9.742 5.089,10.762 6.684,10.762 C6.927,10.762 7.174,10.738 7.422,10.689 L7.422,10.689 Z M15.495,14.544 C15.759,14.819 15.834,15.218 15.685,15.573 C15.527,15.918 15.183,16.149 14.797,16.149 C14.547,16.149 14.306,16.051 14.13,15.874 L10.483,12.213 L10.439,12.133 C9.369,12.914 8.071,13.375 6.654,13.375 C3.167,13.375 0.377,10.574 0.43,7.117 C0.483,3.669 3.359,0.869 6.847,0.869 C10.343,0.869 13.125,3.669 13.071,7.117 C13.05,8.517 12.564,9.802 11.768,10.839 L11.848,10.883 L15.495,14.544 Z" id="Fill-53" fill="#2AE6E1"></path>
                    </g>
                </g>
            </g>
        </g>
    </g>
</svg>