<?xml version="1.0" encoding="UTF-8"?>
<svg width="27px" height="36px" viewBox="0 0 27 36" version="1.1" xmlns="http://www.w3.org/2000/svg" xmlns:xlink="http://www.w3.org/1999/xlink">
    <!-- Generator: Sketch 64 (93537) - https://sketch.com -->
    <title>eventsender</title>
    <desc>Created with Sketch.</desc>
    <defs>
        <path d="M1.449,1.063 L6.008,3.544 C5.657,3.353 5.241,3.272 4.795,3.335 L0.236,0.855" id="path-1"></path>
        <path d="M1.449,1.063 L6.008,3.544 C5.657,3.353 5.241,3.272 4.795,3.335 L0.236,0.855" id="path-3"></path>
        <path d="M1.449,1.063 L6.008,3.544 C5.657,3.353 5.241,3.272 4.795,3.335 L0.236,0.855" id="path-5"></path>
        <path d="M-7.09496238e-06,0.057 L4.558,2.536 C4.557,3.41 4.977,4.117 5.613,4.463 L1.054,1.983" id="path-7"></path>
        <polygon id="path-9" points="0 0.8661 4.6064 0.8661 4.6064 20.5361 0 20.5361"></polygon>
        <path d="M2.311,0.093 L6.87,2.573 C5.613,2.75 4.609,3.997 4.607,5.346 L0.048,2.866" id="path-11"></path>
        <path d="M2.311,0.093 L6.87,2.573 C5.613,2.75 4.609,3.997 4.607,5.346 L0.048,2.866" id="path-13"></path>
        <path d="M2.311,0.093 L6.87,2.573 C5.613,2.75 4.609,3.997 4.607,5.346 L0.048,2.866" id="path-15"></path>
        <path d="M2.311,0.093 L6.87,2.573 C5.613,2.75 4.609,3.997 4.607,5.346 L0.048,2.866" id="path-17"></path>
        <path d="M2.311,0.093 L6.87,2.573 C5.613,2.75 4.609,3.997 4.607,5.346 L0.048,2.866" id="path-19"></path>
        <path d="M2.311,0.093 L6.87,2.573 C5.613,2.75 4.609,3.997 4.607,5.346 L0.048,2.866" id="path-21"></path>
        <path d="M2.311,0.093 L6.87,2.573 C5.613,2.75 4.609,3.997 4.607,5.346 L0.048,2.866" id="path-23"></path>
        <path d="M2.311,0.093 L6.87,2.573 C5.613,2.75 4.609,3.997 4.607,5.346 L0.048,2.866" id="path-25"></path>
        <path d="M1.005,0.617 L1.864,2.354 C1.941,2.511 1.971,2.687 1.944,2.864 L1.086,1.128" id="path-27"></path>
        <path d="M1.005,0.617 L1.864,2.354 C1.941,2.511 1.971,2.687 1.944,2.864 L1.086,1.128" id="path-29"></path>
        <path d="M1.005,0.617 L1.864,2.354 C1.941,2.511 1.971,2.687 1.944,2.864 L1.086,1.128" id="path-31"></path>
        <path d="M0.783,0.718 C0.894,0.942 1.09,1.106 1.308,1.158 L2.166,2.894 C1.949,2.843 1.752,2.679 1.641,2.455" id="path-33"></path>
        <path d="M1.58,0.656 L2.438,2.393 C2.531,2.58 2.551,2.786 2.5,2.992 C2.4,3.393 2.024,3.667 1.616,3.667 C1.555,3.667 1.493,3.661 1.432,3.648 L0.574,1.912 C0.635,1.925 0.697,1.931 0.758,1.931 C1.165,1.931 1.542,1.657 1.641,1.256" id="path-35"></path>
        <path d="M1.58,0.656 L2.438,2.393 C2.531,2.58 2.551,2.786 2.5,2.992 C2.4,3.393 2.024,3.667 1.616,3.667 C1.555,3.667 1.493,3.661 1.432,3.648 L0.574,1.912 C0.635,1.925 0.697,1.931 0.758,1.931 C1.165,1.931 1.542,1.657 1.641,1.256" id="path-37"></path>
        <path d="M1.58,0.656 L2.438,2.393 C2.531,2.58 2.551,2.786 2.5,2.992 C2.4,3.393 2.024,3.667 1.616,3.667 C1.555,3.667 1.493,3.661 1.432,3.648 L0.574,1.912 C0.635,1.925 0.697,1.931 0.758,1.931 C1.165,1.931 1.542,1.657 1.641,1.256" id="path-39"></path>
        <path d="M1.58,0.656 L2.438,2.393 C2.531,2.58 2.551,2.786 2.5,2.992 C2.4,3.393 2.024,3.667 1.616,3.667 C1.555,3.667 1.493,3.661 1.432,3.648 L0.574,1.912 C0.635,1.925 0.697,1.931 0.758,1.931 C1.165,1.931 1.542,1.657 1.641,1.256" id="path-41"></path>
        <path d="M1.58,0.656 L2.438,2.393 C2.531,2.58 2.551,2.786 2.5,2.992 C2.4,3.393 2.024,3.667 1.616,3.667 C1.555,3.667 1.493,3.661 1.432,3.648 L0.574,1.912 C0.635,1.925 0.697,1.931 0.758,1.931 C1.165,1.931 1.542,1.657 1.641,1.256" id="path-43"></path>
        <path d="M1.58,0.656 L2.438,2.393 C2.531,2.58 2.551,2.786 2.5,2.992 C2.4,3.393 2.024,3.667 1.616,3.667 C1.555,3.667 1.493,3.661 1.432,3.648 L0.574,1.912 C0.635,1.925 0.697,1.931 0.758,1.931 C1.165,1.931 1.542,1.657 1.641,1.256" id="path-45"></path>
        <path d="M1.58,0.656 L2.438,2.393 C2.531,2.58 2.551,2.786 2.5,2.992 C2.4,3.393 2.024,3.667 1.616,3.667 C1.555,3.667 1.493,3.661 1.432,3.648 L0.574,1.912 C0.635,1.925 0.697,1.931 0.758,1.931 C1.165,1.931 1.542,1.657 1.641,1.256" id="path-47"></path>
        <path d="M0.482,0.677 L1.34,2.413 C1.444,2.705 1.367,3.033 1.157,3.264 L0.299,1.527" id="path-49"></path>
        <path d="M0.482,0.677 L1.34,2.413 C1.444,2.705 1.367,3.033 1.157,3.264 L0.299,1.527" id="path-51"></path>
        <path d="M0.482,0.677 L1.34,2.413 C1.444,2.705 1.367,3.033 1.157,3.264 L0.299,1.527" id="path-53"></path>
        <path d="M0.482,0.677 L1.34,2.413 C1.444,2.705 1.367,3.033 1.157,3.264 L0.299,1.527" id="path-55"></path>
        <path d="M0.482,0.677 L1.34,2.413 C1.444,2.705 1.367,3.033 1.157,3.264 L0.299,1.527" id="path-57"></path>
        <path d="M0.482,0.677 L1.34,2.413 C1.444,2.705 1.367,3.033 1.157,3.264 L0.299,1.527" id="path-59"></path>
        <path d="M0.429,0.015 L1.287,1.751 C1.312,1.801 1.332,1.853 1.346,1.908 C1.422,2.219 1.327,2.537 1.109,2.759 L0.251,1.022 C0.469,0.801 0.564,0.482 0.488,0.172" id="path-61"></path>
        <path d="M0.429,0.015 L1.287,1.751 C1.312,1.801 1.332,1.853 1.346,1.908 C1.422,2.219 1.327,2.537 1.109,2.759 L0.251,1.022 C0.469,0.801 0.564,0.482 0.488,0.172" id="path-63"></path>
        <path d="M0.429,0.015 L1.287,1.751 C1.312,1.801 1.332,1.853 1.346,1.908 C1.422,2.219 1.327,2.537 1.109,2.759 L0.251,1.022 C0.469,0.801 0.564,0.482 0.488,0.172" id="path-65"></path>
        <path d="M0.429,0.015 L1.287,1.751 C1.312,1.801 1.332,1.853 1.346,1.908 C1.422,2.219 1.327,2.537 1.109,2.759 L0.251,1.022 C0.469,0.801 0.564,0.482 0.488,0.172" id="path-67"></path>
        <path d="M0.429,0.015 L1.287,1.751 C1.312,1.801 1.332,1.853 1.346,1.908 C1.422,2.219 1.327,2.537 1.109,2.759 L0.251,1.022 C0.469,0.801 0.564,0.482 0.488,0.172" id="path-69"></path>
        <path d="M0.429,0.015 L1.287,1.751 C1.312,1.801 1.332,1.853 1.346,1.908 C1.422,2.219 1.327,2.537 1.109,2.759 L0.251,1.022 C0.469,0.801 0.564,0.482 0.488,0.172" id="path-71"></path>
        <path d="M0.827,0.783 C0.917,0.966 1.075,1.112 1.278,1.192 L2.137,2.929 C1.933,2.85 1.776,2.702 1.686,2.52" id="path-73"></path>
        <path d="M1.241,0.007 L2.098,1.743 C1.926,1.911 1.7,2 1.467,2 C1.35,2 1.243,1.974 1.137,1.929 L0.278,0.192 C0.385,0.237 0.492,0.264 0.609,0.264" id="path-75"></path>
        <path d="M1.509,0.976 L2.367,2.712 C2.328,2.96 2.19,3.173 1.982,3.314 C1.837,3.411 1.661,3.461 1.487,3.461 C1.42,3.461 1.353,3.453 1.289,3.438 L0.431,1.702 C0.495,1.717 0.561,1.724 0.628,1.724 C0.803,1.724 0.979,1.674 1.123,1.578" id="path-77"></path>
        <path d="M1.509,0.976 L2.367,2.712 C2.328,2.96 2.19,3.173 1.982,3.314 C1.837,3.411 1.661,3.461 1.487,3.461 C1.42,3.461 1.353,3.453 1.289,3.438 L0.431,1.702 C0.495,1.717 0.561,1.724 0.628,1.724 C0.803,1.724 0.979,1.674 1.123,1.578" id="path-79"></path>
        <path d="M1.509,0.976 L2.367,2.712 C2.328,2.96 2.19,3.173 1.982,3.314 C1.837,3.411 1.661,3.461 1.487,3.461 C1.42,3.461 1.353,3.453 1.289,3.438 L0.431,1.702 C0.495,1.717 0.561,1.724 0.628,1.724 C0.803,1.724 0.979,1.674 1.123,1.578" id="path-81"></path>
        <path d="M1.509,0.976 L2.367,2.712 C2.328,2.96 2.19,3.173 1.982,3.314 C1.837,3.411 1.661,3.461 1.487,3.461 C1.42,3.461 1.353,3.453 1.289,3.438 L0.431,1.702 C0.495,1.717 0.561,1.724 0.628,1.724 C0.803,1.724 0.979,1.674 1.123,1.578" id="path-83"></path>
        <path d="M1.509,0.976 L2.367,2.712 C2.328,2.96 2.19,3.173 1.982,3.314 C1.837,3.411 1.661,3.461 1.487,3.461 C1.42,3.461 1.353,3.453 1.289,3.438 L0.431,1.702 C0.495,1.717 0.561,1.724 0.628,1.724 C0.803,1.724 0.979,1.674 1.123,1.578" id="path-85"></path>
    </defs>
    <g id="工作空间项目-开发中心-具体工作流" stroke="none" stroke-width="1" fill="none" fill-rule="evenodd">
        <g id="侧边栏icon" transform="translate(-183.000000, -667.000000)">
            <g id="eventsender" transform="translate(178.000000, 666.000000)">
                <g id="编组-30" transform="translate(0.000000, 1.000000)">
                    <rect id="矩形备份-17" x="0" y="0" width="36" height="36"></rect>
                </g>
                <g id="编组-49" transform="translate(5.000000, 0.000000)">
                    <g id="编组">
                        <g transform="translate(0.000000, 0.431800)">
                            <polygon id="Fill-1" fill="#7EF0ED" points="22.7586 24.9784 18.1996 22.4984 18.2246 8.9944 22.7836 11.4734"></polygon>
                            <g transform="translate(18.000000, 2.000000)">
                                <g>
                                    <mask id="mask-2" fill="white">
                                        <use xlink:href="#path-1"></use>
                                    </mask>
                                    <g id="Clip-4"></g>
                                    <path d="M4.7952,3.3349 L0.2362,0.8559 C0.5122,0.8159 0.7752,0.8319 1.0202,0.8959 L5.5782,3.3749 C5.3342,3.3129 5.0702,3.2959 4.7952,3.3349" id="Fill-3" fill="#59ECE8" mask="url(#mask-2)"></path>
                                </g>
                                <g>
                                    <mask id="mask-4" fill="white">
                                        <use xlink:href="#path-3"></use>
                                    </mask>
                                    <g id="Clip-6"></g>
                                    <path d="M5.5784,3.3749 L1.0194,0.8959 C1.1454,0.9279 1.2654,0.9719 1.3794,1.0279 L5.9384,3.5079 C5.8244,3.4519 5.7034,3.4069 5.5784,3.3749" id="Fill-5" fill="#5EECE9" mask="url(#mask-4)"></path>
                                </g>
                                <g>
                                    <mask id="mask-6" fill="white">
                                        <use xlink:href="#path-5"></use>
                                    </mask>
                                    <g id="Clip-8"></g>
                                    <path d="M5.9383,3.5077 L1.3793,1.0287 C1.4023,1.0387 1.4263,1.0517 1.4493,1.0637 L6.0073,3.5437 C5.9843,3.5307 5.9613,3.5197 5.9383,3.5077" id="Fill-7" fill="#63EDE9" mask="url(#mask-6)"></path>
                                </g>
                            </g>
                            <polygon id="Fill-9" fill="#4DEBE6" points="21.6575 5.495 17.0985 3.015 18.2365 2.855 22.7955 5.335"></polygon>
                            <polygon id="Fill-11" fill="#4DEBE6" points="14.8123 17.5029 10.2533 15.0239 15.9403 14.2249 20.4993 16.7039"></polygon>
                            <polygon id="Fill-13" fill="#4DEBE6" points="6.8338 27.2167 2.2748 24.7367 18.1998 22.4977 22.7588 24.9787"></polygon>
                            <polygon id="Fill-15" fill="#7EF0ED" points="14.8006 23.6425 10.2416 21.1625 10.2536 15.0235 14.8126 17.5025"></polygon>
                            <polygon id="Fill-17" fill="#23E6E0" points="20.4993 16.704 20.4883 22.843 14.8003 23.642 14.8123 17.503"></polygon>
                            <polygon id="Fill-19" fill="#7EF0ED" points="19.3826 5.8144 14.8236 3.3354 14.8286 0.8874 19.3866 3.3684"></polygon>
                            <polygon id="Fill-21" fill="#4DEBE6" points="19.387 3.3681 14.828 0.8881 17.103 0.5681 21.662 3.0481"></polygon>
                            <g transform="translate(0.000000, 25.000000)">
                                <mask id="mask-8" fill="white">
                                    <use xlink:href="#path-7"></use>
                                </mask>
                                <g id="Clip-24"></g>
                                <path d="M5.6126,4.4628 L1.0536,1.9838 C0.4186,1.6378 -0.0014,0.9308 -0.000401781818,0.0568 L4.5586,2.5358 C4.5566,3.4098 4.9776,4.1168 5.6126,4.4628" id="Fill-23" fill="#7CF0ED" mask="url(#mask-8)"></path>
                            </g>
                            <polygon id="Fill-25" fill="#4DEBE6" points="10.2825 7.0937 5.7235 4.6137 14.8235 3.3347 19.3825 5.8147"></polygon>
                            <polygon id="Fill-27" fill="#4DEBE6" points="6.8699 7.5732 2.3109 5.0932 3.4489 4.9332 8.0079 7.4132"></polygon>
                            <polygon id="Fill-29" fill="#4DEBE6" points="8.0125 4.9667 3.4535 2.4867 5.7285 2.1667 10.2875 4.6467"></polygon>
                            <polygon id="Fill-31" fill="#7EF0ED" points="8.0076 7.413 3.4486 4.934 3.4536 2.486 8.0126 4.967"></polygon>
                            <g transform="translate(0.000000, 7.000000)">
                                <mask id="mask-10" fill="white">
                                    <use xlink:href="#path-9"></use>
                                </mask>
                                <g id="Clip-34"></g>
                                <polygon id="Fill-33" fill="#7EF0ED" mask="url(#mask-10)" points="4.5584 20.5361 -0.0006 18.0571 0.0484 0.8661 4.6064 3.3461"></polygon>
                            </g>
                            <path d="M22.7586,24.9784 L22.7836,11.4734 L6.8586,13.7114 L6.8336,27.2164 L22.7586,24.9784 L22.7586,24.9784 Z M22.7956,5.3344 C24.0526,5.1584 25.0686,6.1224 25.0656066,7.4704 L25.0336,24.6584 C25.0306,26.0154 24.0116,27.2564 22.7546,27.4334 L6.8286,29.6714 C5.5716,29.8484 4.5556,28.8934 4.55859337,27.5364 L4.6066,10.3454 C4.6096,8.9974 5.6126,7.7494 6.8696,7.5734 L8.0076,7.4134 L8.0126,4.9664 L10.2876,4.6464 L10.2826,7.0934 L19.3826,5.8144 L19.3866,3.3684 L21.6616,3.0474 L21.6576,5.4954 L22.7956,5.3344 Z" id="Fill-35" fill="#23E6E0"></path>
                            <g transform="translate(0.000000, 5.000000)">
                                <g>
                                    <mask id="mask-12" fill="white">
                                        <use xlink:href="#path-11"></use>
                                    </mask>
                                    <g id="Clip-38"></g>
                                    <path d="M4.6068,5.3456 L0.0478,2.8666 C0.0488,2.5306 0.1118,2.1996 0.2248,1.8916 L4.7838,4.3706 C4.6698,4.6796 4.6068,5.0096 4.6068,5.3456" id="Fill-37" fill="#7CF0ED" mask="url(#mask-12)"></path>
                                </g>
                                <g>
                                    <mask id="mask-14" fill="white">
                                        <use xlink:href="#path-13"></use>
                                    </mask>
                                    <g id="Clip-40"></g>
                                    <path d="M4.7835,4.371 L0.2245,1.892 C0.2735,1.759 0.3315,1.631 0.3975,1.508 L4.9555,3.988 C4.8895,4.111 4.8325,4.239 4.7835,4.371" id="Fill-39" fill="#77EFEC" mask="url(#mask-14)"></path>
                                </g>
                                <g>
                                    <mask id="mask-16" fill="white">
                                        <use xlink:href="#path-15"></use>
                                    </mask>
                                    <g id="Clip-42"></g>
                                    <path d="M4.9559,3.9882 L0.3969,1.5082 C0.4539,1.4042 0.5159,1.3032 0.5829,1.2072 L5.1419,3.6862 C5.0739,3.7832 5.0119,3.8842 4.9559,3.9882" id="Fill-41" fill="#72EFEB" mask="url(#mask-16)"></path>
                                </g>
                                <g>
                                    <mask id="mask-18" fill="white">
                                        <use xlink:href="#path-17"></use>
                                    </mask>
                                    <g id="Clip-44"></g>
                                    <path d="M5.1414,3.6864 L0.5824,1.2074 C0.6464,1.1174 0.7144,1.0304 0.7864,0.9484 L5.3454,3.4284 C5.2724,3.5104 5.2044,3.5964 5.1414,3.6864" id="Fill-43" fill="#6DEEEB" mask="url(#mask-18)"></path>
                                </g>
                                <g>
                                    <mask id="mask-20" fill="white">
                                        <use xlink:href="#path-19"></use>
                                    </mask>
                                    <g id="Clip-46"></g>
                                    <path d="M5.345,3.4286 L0.786,0.9486 C0.859,0.8656 0.936,0.7886 1.016,0.7156 L5.575,3.1966 C5.494,3.2686 5.418,3.3466 5.345,3.4286" id="Fill-45" fill="#68EEEA" mask="url(#mask-20)"></path>
                                </g>
                                <g>
                                    <mask id="mask-22" fill="white">
                                        <use xlink:href="#path-21"></use>
                                    </mask>
                                    <g id="Clip-48"></g>
                                    <path d="M5.5755,3.1962 L1.0165,0.7162 C1.1025,0.6382 1.1935,0.5662 1.2885,0.5012 L5.8475,2.9802 C5.7525,3.0472 5.6615,3.1182 5.5755,3.1962" id="Fill-47" fill="#63EDE9" mask="url(#mask-22)"></path>
                                </g>
                                <g>
                                    <mask id="mask-24" fill="white">
                                        <use xlink:href="#path-23"></use>
                                    </mask>
                                    <g id="Clip-50"></g>
                                    <path d="M5.8475,2.9804 L1.2885,0.5014 C1.4045,0.4204 1.5265,0.3504 1.6535,0.2914 L6.2115,2.7704 C6.0855,2.8304 5.9635,2.9004 5.8475,2.9804" id="Fill-49" fill="#5EECE9" mask="url(#mask-24)"></path>
                                </g>
                                <g>
                                    <mask id="mask-26" fill="white">
                                        <use xlink:href="#path-25"></use>
                                    </mask>
                                    <g id="Clip-52"></g>
                                    <path d="M6.2117,2.7704 L1.6527,0.2914 C1.8607,0.1934 2.0817,0.1244 2.3117,0.0924 L6.8697,2.5734 C6.6407,2.6054 6.4197,2.6724 6.2117,2.7704" id="Fill-51" fill="#59ECE8" mask="url(#mask-26)"></path>
                                </g>
                            </g>
                        </g>
                        <polygon id="Fill-53" fill="#F8F9FC" points="25.8812 16.9405 4.8812 29.9405 7.8812 33.9405 25.8812 21.9405"></polygon>
                        <g transform="translate(11.000000, 20.431800)">
                            <g transform="translate(14.000000, 0.000000)">
                                <g>
                                    <mask id="mask-28" fill="white">
                                        <use xlink:href="#path-27"></use>
                                    </mask>
                                    <g id="Clip-55"></g>
                                    <path d="M1.0052,0.6171 L1.8632,2.3541 C1.9042,2.4351 1.9312,2.5231 1.9442,2.6131 L1.0872,0.8771 C1.0732,0.7871 1.0462,0.6991 1.0052,0.6171" id="Fill-54" fill="#5EECE9" mask="url(#mask-28)"></path>
                                </g>
                                <g>
                                    <mask id="mask-30" fill="white">
                                        <use xlink:href="#path-29"></use>
                                    </mask>
                                    <g id="Clip-57"></g>
                                    <path d="M1.0867,0.8769 L1.9447,2.6129 C1.9557,2.6849 1.9567,2.7569 1.9487,2.8289 L1.0907,1.0929 C1.0987,1.0209 1.0967,0.9479 1.0867,0.8769" id="Fill-56" fill="#63EDE9" mask="url(#mask-30)"></path>
                                </g>
                                <g>
                                    <mask id="mask-32" fill="white">
                                        <use xlink:href="#path-31"></use>
                                    </mask>
                                    <g id="Clip-59"></g>
                                    <path d="M1.0906,1.0927 L1.9486,2.8287 C1.9476,2.8407 1.9456,2.8527 1.9446,2.8637 L1.0866,1.1277 L1.0906,1.0927" id="Fill-58" fill="#68EEEA" mask="url(#mask-32)"></path>
                                </g>
                            </g>
                            <g transform="translate(0.000000, 8.000000)">
                                <mask id="mask-34" fill="white">
                                    <use xlink:href="#path-33"></use>
                                </mask>
                                <g id="Clip-61"></g>
                                <path d="M1.3079,1.1581 L2.1659,2.8941 C1.9489,2.8431 1.7519,2.6791 1.6409,2.4551 L0.7829,0.7181 C0.8939,0.9421 1.0899,1.1061 1.3079,1.1581" id="Fill-60" fill="#7CF0ED" mask="url(#mask-34)"></path>
                            </g>
                            <polygon id="Fill-62" fill="#7EF0ED" points="13.054 2.6796 13.912 4.4156 4.567 9.8306 3.709 8.0946"></polygon>
                            <polygon id="Fill-64" fill="#81F1EE" points="3.5735 9.912 4.4315 11.648 2.1665 10.894 1.3075 9.158"></polygon>
                            <path d="M10.4368,6.5654 L11.2948,8.3014 C11.3128,8.3374 11.3278,8.3754 11.3398,8.4134 L10.4818,6.6764 C10.4698,6.6384 10.4548,6.6014 10.4368,6.5654" id="Fill-66" fill="#5EECE9"></path>
                            <g transform="translate(3.000000, 8.000000)">
                                <g>
                                    <mask id="mask-36" fill="white">
                                        <use xlink:href="#path-35"></use>
                                    </mask>
                                    <g id="Clip-68"></g>
                                    <path d="M1.5799,0.6562 L2.4379,2.3922 C2.4789,2.4742 2.5059,2.5602 2.5179,2.6482 L1.6599,0.9122 C1.6469,0.8242 1.6209,0.7382 1.5799,0.6562" id="Fill-67" fill="#5EECE9" mask="url(#mask-36)"></path>
                                </g>
                                <g>
                                    <mask id="mask-38" fill="white">
                                        <use xlink:href="#path-37"></use>
                                    </mask>
                                    <g id="Clip-70"></g>
                                    <path d="M1.66,0.912 L2.518,2.648 C2.529,2.721 2.53,2.794 2.522,2.868 L1.664,1.132 C1.672,1.058 1.671,0.984 1.66,0.912" id="Fill-69" fill="#63EDE9" mask="url(#mask-38)"></path>
                                </g>
                                <g>
                                    <mask id="mask-40" fill="white">
                                        <use xlink:href="#path-39"></use>
                                    </mask>
                                    <g id="Clip-72"></g>
                                    <path d="M1.6639,1.1318 L2.5219,2.8678 C2.5179,2.9088 2.5099,2.9508 2.4999,2.9918 C2.4969,3.0038 2.4939,3.0168 2.4899,3.0278 L1.6319,1.2918 C1.6359,1.2798 1.6389,1.2678 1.6419,1.2558 C1.6519,1.2148 1.6599,1.1728 1.6639,1.1318" id="Fill-71" fill="#68EEEA" mask="url(#mask-40)"></path>
                                </g>
                                <g>
                                    <mask id="mask-42" fill="white">
                                        <use xlink:href="#path-41"></use>
                                    </mask>
                                    <g id="Clip-74"></g>
                                    <path d="M1.6317,1.2919 L2.4897,3.0279 C2.4767,3.0719 2.4607,3.1149 2.4407,3.1559 L1.5827,1.4189 C1.6027,1.3789 1.6187,1.3359 1.6317,1.2919" id="Fill-73" fill="#6DEEEB" mask="url(#mask-42)"></path>
                                </g>
                                <g>
                                    <mask id="mask-44" fill="white">
                                        <use xlink:href="#path-43"></use>
                                    </mask>
                                    <g id="Clip-76"></g>
                                    <path d="M1.5828,1.4189 L2.4408,3.1559 C2.4208,3.1979 2.3968,3.2379 2.3708,3.2759 L1.5118,1.5399 C1.5388,1.5019 1.5618,1.4619 1.5828,1.4189" id="Fill-75" fill="#72EFEB" mask="url(#mask-44)"></path>
                                </g>
                                <g>
                                    <mask id="mask-46" fill="white">
                                        <use xlink:href="#path-45"></use>
                                    </mask>
                                    <g id="Clip-78"></g>
                                    <path d="M1.512,1.54 L2.37,3.276 C2.339,3.322 2.303,3.364 2.263,3.402 L1.405,1.666 C1.444,1.628 1.48,1.586 1.512,1.54" id="Fill-77" fill="#77EFEC" mask="url(#mask-46)"></path>
                                </g>
                                <g>
                                    <mask id="mask-48" fill="white">
                                        <use xlink:href="#path-47"></use>
                                    </mask>
                                    <g id="Clip-80"></g>
                                    <path d="M1.4051,1.6659 L2.2631,3.4019 C2.0941,3.5679 1.8611,3.6669 1.6151,3.6669 C1.5551,3.6669 1.4931,3.6609 1.4321,3.6479 L0.5731,1.9119 C0.6351,1.9249 0.6971,1.9309 0.7581,1.9309 C1.0021,1.9309 1.2361,1.8319 1.4051,1.6659" id="Fill-79" fill="#7CF0ED" mask="url(#mask-48)"></path>
                                </g>
                            </g>
                            <g transform="translate(10.000000, 6.000000)">
                                <g>
                                    <mask id="mask-50" fill="white">
                                        <use xlink:href="#path-49"></use>
                                    </mask>
                                    <g id="Clip-82"></g>
                                    <path d="M0.4822,0.6767 L1.3402,2.4127 C1.3572,2.4617 1.3702,2.5117 1.3772,2.5617 L0.5192,0.8247 C0.5112,0.7757 0.4992,0.7257 0.4822,0.6767" id="Fill-81" fill="#5EECE9" mask="url(#mask-50)"></path>
                                </g>
                                <g>
                                    <mask id="mask-52" fill="white">
                                        <use xlink:href="#path-51"></use>
                                    </mask>
                                    <g id="Clip-84"></g>
                                    <path d="M0.5189,0.8251 L1.3769,2.5611 C1.3879,2.6311 1.3889,2.7021 1.3809,2.7711 L0.5229,1.0351 C0.5299,0.9661 0.5289,0.8941 0.5189,0.8251" id="Fill-83" fill="#63EDE9" mask="url(#mask-52)"></path>
                                </g>
                                <g>
                                    <mask id="mask-54" fill="white">
                                        <use xlink:href="#path-53"></use>
                                    </mask>
                                    <g id="Clip-86"></g>
                                    <path d="M0.5228,1.0351 L1.3808,2.7711 C1.3758,2.8211 1.3648,2.8721 1.3508,2.9201 L0.4928,1.1831 C0.5068,1.1351 0.5168,1.0851 0.5228,1.0351" id="Fill-85" fill="#68EEEA" mask="url(#mask-54)"></path>
                                </g>
                                <g>
                                    <mask id="mask-56" fill="white">
                                        <use xlink:href="#path-55"></use>
                                    </mask>
                                    <g id="Clip-88"></g>
                                    <path d="M0.4925,1.1835 L1.3505,2.9195 C1.3375,2.9645 1.3205,3.0085 1.3005,3.0505 L0.4425,1.3145 C0.4625,1.2725 0.4795,1.2285 0.4925,1.1835" id="Fill-87" fill="#6DEEEB" mask="url(#mask-56)"></path>
                                </g>
                                <g>
                                    <mask id="mask-58" fill="white">
                                        <use xlink:href="#path-57"></use>
                                    </mask>
                                    <g id="Clip-90"></g>
                                    <path d="M0.4422,1.3144 L1.3002,3.0504 C1.2802,3.0934 1.2552,3.1354 1.2282,3.1744 L0.3702,1.4384 C0.3972,1.3994 0.4212,1.3574 0.4422,1.3144" id="Fill-89" fill="#72EFEB" mask="url(#mask-58)"></path>
                                </g>
                                <g>
                                    <mask id="mask-60" fill="white">
                                        <use xlink:href="#path-59"></use>
                                    </mask>
                                    <g id="Clip-92"></g>
                                    <path d="M0.3699,1.4384 L1.2279,3.1744 C1.2059,3.2064 1.1829,3.2354 1.1569,3.2634 L0.2989,1.5274 C0.3249,1.4994 0.3479,1.4694 0.3699,1.4384" id="Fill-91" fill="#77EFEC" mask="url(#mask-60)"></path>
                                </g>
                            </g>
                            <polygon id="Fill-93" fill="#7AF0ED" points="10.2986 7.5273 11.1566 9.2633 9.3496 10.7443 8.4916 9.0073"></polygon>
                            <polygon id="Fill-95" fill="#62EDE9" points="7.5438 10.5849 8.4018 12.3219 8.3878 13.2709 7.5298 11.5329"></polygon>
                            <polygon id="Fill-97" fill="#81F1EE" points="12.431 11.7021 13.289 13.4381 8.402 12.3221 7.544 10.5851"></polygon>
                            <g transform="translate(8.000000, 12.000000)">
                                <g>
                                    <mask id="mask-62" fill="white">
                                        <use xlink:href="#path-61"></use>
                                    </mask>
                                    <g id="Clip-100"></g>
                                    <path d="M0.429,0.0146 L1.287,1.7506 C1.312,1.8006 1.332,1.8536 1.346,1.9086 C1.353,1.9356 1.358,1.9636 1.363,1.9916 L0.504,0.2546 C0.5,0.2276 0.494,0.1996 0.488,0.1716 C0.474,0.1176 0.454,0.0646 0.429,0.0146" id="Fill-99" fill="#5EECE9" mask="url(#mask-62)"></path>
                                </g>
                                <g>
                                    <mask id="mask-64" fill="white">
                                        <use xlink:href="#path-63"></use>
                                    </mask>
                                    <g id="Clip-102"></g>
                                    <path d="M0.5042,0.2548 L1.3622,1.9908 C1.3742,2.0678 1.3752,2.1448 1.3672,2.2198 L0.5082,0.4838 C0.5172,0.4078 0.5152,0.3318 0.5042,0.2548" id="Fill-101" fill="#63EDE9" mask="url(#mask-64)"></path>
                                </g>
                                <g>
                                    <mask id="mask-66" fill="white">
                                        <use xlink:href="#path-65"></use>
                                    </mask>
                                    <g id="Clip-104"></g>
                                    <path d="M0.5086,0.4833 L1.3666,2.2193 C1.3616,2.2733 1.3506,2.3253 1.3356,2.3773 L0.4766,0.6393 C0.4916,0.5883 0.5026,0.5363 0.5086,0.4833" id="Fill-103" fill="#68EEEA" mask="url(#mask-66)"></path>
                                </g>
                                <g>
                                    <mask id="mask-68" fill="white">
                                        <use xlink:href="#path-67"></use>
                                    </mask>
                                    <g id="Clip-106"></g>
                                    <path d="M0.4769,0.6396 L1.3349,2.3766 C1.3219,2.4226 1.3039,2.4686 1.2829,2.5116 L0.4249,0.7756 C0.4459,0.7316 0.4629,0.6866 0.4769,0.6396" id="Fill-105" fill="#6DEEEB" mask="url(#mask-68)"></path>
                                </g>
                                <g>
                                    <mask id="mask-70" fill="white">
                                        <use xlink:href="#path-69"></use>
                                    </mask>
                                    <g id="Clip-108"></g>
                                    <path d="M0.4246,0.7753 L1.2826,2.5113 C1.2616,2.5563 1.2366,2.5993 1.2086,2.6393 L0.3496,0.9033 C0.3786,0.8623 0.4036,0.8203 0.4246,0.7753" id="Fill-107" fill="#72EFEB" mask="url(#mask-70)"></path>
                                </g>
                                <g>
                                    <mask id="mask-72" fill="white">
                                        <use xlink:href="#path-71"></use>
                                    </mask>
                                    <g id="Clip-110"></g>
                                    <path d="M0.3499,0.9032 L1.2079,2.6392 C1.1789,2.6812 1.1459,2.7212 1.1089,2.7582 L0.2509,1.0222 C0.2879,0.9852 0.3209,0.9452 0.3499,0.9032" id="Fill-109" fill="#77EFEC" mask="url(#mask-72)"></path>
                                </g>
                            </g>
                            <g transform="translate(5.000000, 13.000000)">
                                <mask id="mask-74" fill="white">
                                    <use xlink:href="#path-73"></use>
                                </mask>
                                <g id="Clip-112"></g>
                                <path d="M1.2781,1.1923 L2.1361,2.9283 C1.9331,2.8493 1.7761,2.7023 1.6861,2.5203 L0.8271,0.7833 C0.9171,0.9653 1.0741,1.1123 1.2781,1.1923" id="Fill-111" fill="#7CF0ED" mask="url(#mask-74)"></path>
                            </g>
                            <polygon id="Fill-113" fill="#78EFEC" points="8.2508 13.0224 9.1088 14.7584 8.0988 15.7434 7.2408 14.0064"></polygon>
                            <polygon id="Fill-115" fill="#64EDEA" points="15.0862 1.1279 15.9442 2.8639 14.3672 12.7119 13.5092 10.9759"></polygon>
                            <g transform="translate(6.000000, 14.000000)">
                                <mask id="mask-76" fill="white">
                                    <use xlink:href="#path-75"></use>
                                </mask>
                                <g id="Clip-118"></g>
                                <path d="M1.2405,0.0068 L2.0985,1.7428 C1.9255,1.9108 1.6995,1.9998 1.4675,1.9998 C1.3505,1.9998 1.2435,1.9738 1.1365,1.9288 L0.2785,0.1928 C0.3855,0.2368 0.4915,0.2638 0.6085,0.2638 C0.8425,0.2638 1.0675,0.1748 1.2405,0.0068" id="Fill-117" fill="#7CF0ED" mask="url(#mask-76)"></path>
                            </g>
                            <path d="M14.2264,0.1386 C14.3954,0.1386 14.5664,0.1856 14.7134,0.2776 C14.9884,0.4726 15.1364,0.7996 15.0864,1.1276 L13.5094,10.9756 C13.4694,11.2236 13.3314,11.4366 13.1234,11.5776 C12.9794,11.6736 12.8024,11.7236 12.6284,11.7236 C12.5614,11.7236 12.4954,11.7166 12.4314,11.7016 L7.5434,10.5846 L7.5294,11.5336 C7.5584,11.5316 7.5874,11.5306 7.6174,11.5306 C7.7044,11.5306 7.7914,11.5396 7.8784,11.5606 C8.1734,11.6396 8.4124,11.8786 8.4884,12.1716 C8.5634,12.4826 8.4694,12.8006 8.2504,13.0226 L7.2404,14.0066 C7.0674,14.1746 6.8424,14.2636 6.6084,14.2636 C6.4924,14.2636 6.3854,14.2376 6.2784,14.1926 C5.9394,14.0596 5.7294,13.7406 5.7434,13.3856 L5.8044,9.4516 C5.8074,9.2386 5.8824,9.0346 6.0284,8.8746 L9.0534,6.3226 C9.1714,6.1856 9.4084,6.0836 9.6564,6.0836 C9.7124,6.0836 9.7704,6.0886 9.8274,6.1006 C10.1314,6.1616 10.3884,6.3836 10.4824,6.6766 C10.5854,6.9686 10.5084,7.2966 10.2984,7.5276 L8.4914,9.0076 L11.9134,9.7876 L13.0544,2.6796 L3.7084,8.0946 L4.0744,8.2276 C4.2264,8.2536 4.4214,8.3966 4.5444,8.5906 C4.6664,8.7946 4.6994,9.0256 4.6414,9.2556 C4.5414,9.6576 4.1654,9.9306 3.7574,9.9306 C3.6964,9.9306 3.6354,9.9246 3.5734,9.9116 L1.3084,9.1586 C1.0134,9.0866 0.7574,8.8126 0.7004,8.4576 C0.6514,8.1036 0.8274,7.7576 1.1354,7.5726 L13.7724,0.2596 C13.9114,0.1786 14.0684,0.1386 14.2264,0.1386" id="Fill-119" fill="#23E6E0"></path>
                            <g transform="translate(12.000000, 10.000000)">
                                <g>
                                    <mask id="mask-78" fill="white">
                                        <use xlink:href="#path-77"></use>
                                    </mask>
                                    <g id="Clip-122"></g>
                                    <path d="M1.5091,0.9755 L2.3671,2.7115 C2.3611,2.7505 2.3521,2.7885 2.3421,2.8265 L1.4831,1.0895 C1.4941,1.0525 1.5031,1.0145 1.5091,0.9755" id="Fill-121" fill="#68EEEA" mask="url(#mask-78)"></path>
                                </g>
                                <g>
                                    <mask id="mask-80" fill="white">
                                        <use xlink:href="#path-79"></use>
                                    </mask>
                                    <g id="Clip-124"></g>
                                    <path d="M1.4832,1.0898 L2.3412,2.8258 C2.3282,2.8718 2.3112,2.9158 2.2912,2.9578 L1.4322,1.2218 C1.4532,1.1798 1.4692,1.1358 1.4832,1.0898" id="Fill-123" fill="#6DEEEB" mask="url(#mask-80)"></path>
                                </g>
                                <g>
                                    <mask id="mask-82" fill="white">
                                        <use xlink:href="#path-81"></use>
                                    </mask>
                                    <g id="Clip-126"></g>
                                    <path d="M1.4324,1.2216 L2.2904,2.9576 C2.2694,3.0006 2.2454,3.0426 2.2184,3.0816 L1.3604,1.3446 C1.3874,1.3056 1.4114,1.2646 1.4324,1.2216" id="Fill-125" fill="#72EFEB" mask="url(#mask-82)"></path>
                                </g>
                                <g>
                                    <mask id="mask-84" fill="white">
                                        <use xlink:href="#path-83"></use>
                                    </mask>
                                    <g id="Clip-128"></g>
                                    <path d="M1.3602,1.3447 L2.2182,3.0817 C2.1872,3.1267 2.1512,3.1697 2.1102,3.2087 L1.2522,1.4727 C1.2922,1.4337 1.3282,1.3907 1.3602,1.3447" id="Fill-127" fill="#77EFEC" mask="url(#mask-84)"></path>
                                </g>
                                <g>
                                    <mask id="mask-86" fill="white">
                                        <use xlink:href="#path-85"></use>
                                    </mask>
                                    <g id="Clip-130"></g>
                                    <path d="M1.2518,1.4726 L2.1098,3.2086 C2.0708,3.2476 2.0278,3.2836 1.9818,3.3146 C1.8368,3.4106 1.6608,3.4606 1.4868,3.4606 C1.4198,3.4606 1.3538,3.4526 1.2898,3.4386 L0.4308,1.7016 C0.4958,1.7166 0.5618,1.7236 0.6278,1.7236 C0.8028,1.7236 0.9798,1.6736 1.1238,1.5776 C1.1698,1.5466 1.2128,1.5116 1.2518,1.4726" id="Fill-129" fill="#7CF0ED" mask="url(#mask-86)"></path>
                                </g>
                            </g>
                        </g>
                    </g>
                </g>
            </g>
        </g>
    </g>
</svg>