<?xml version="1.0" encoding="UTF-8"?>
<svg width="31px" height="33px" viewBox="0 0 31 33" version="1.1" xmlns="http://www.w3.org/2000/svg" xmlns:xlink="http://www.w3.org/1999/xlink">
    <!-- Generator: Sketch 64 (93537) - https://sketch.com -->
    <title>eventchecker</title>
    <desc>Created with Sketch.</desc>
    <defs>
        <path d="M1.346,0.82 L5.904,3.299 C5.553,3.108 5.137,3.028 4.691,3.09 L0.132,0.611" id="path-1"></path>
        <path d="M1.346,0.82 L5.904,3.299 C5.553,3.108 5.137,3.028 4.691,3.09 L0.132,0.611" id="path-3"></path>
        <path d="M1.346,0.82 L5.904,3.299 C5.553,3.108 5.137,3.028 4.691,3.09 L0.132,0.611" id="path-5"></path>
        <path d="M-7.0782554e-06,0.685 L4.559,3.165 C4.557,4.034 4.978,4.74 5.612,5.084 L1.054,2.605" id="path-7"></path>
        <polygon id="path-9" points="0 0.5895 4.6067 0.5895 4.6067 20.1645 0 20.1645"></polygon>
        <path d="M2.303,0.835 L6.862,3.315 C5.612,3.491 4.609,4.721 4.607,6.07 L0.048,3.589" id="path-11"></path>
        <path d="M2.303,0.835 L6.862,3.315 C5.612,3.491 4.609,4.721 4.607,6.07 L0.048,3.589" id="path-13"></path>
        <path d="M2.303,0.835 L6.862,3.315 C5.612,3.491 4.609,4.721 4.607,6.07 L0.048,3.589" id="path-15"></path>
        <path d="M2.303,0.835 L6.862,3.315 C5.612,3.491 4.609,4.721 4.607,6.07 L0.048,3.589" id="path-17"></path>
        <path d="M2.303,0.835 L6.862,3.315 C5.612,3.491 4.609,4.721 4.607,6.07 L0.048,3.589" id="path-19"></path>
        <path d="M2.303,0.835 L6.862,3.315 C5.612,3.491 4.609,4.721 4.607,6.07 L0.048,3.589" id="path-21"></path>
        <path d="M2.303,0.835 L6.862,3.315 C5.612,3.491 4.609,4.721 4.607,6.07 L0.048,3.589" id="path-23"></path>
        <path d="M2.303,0.835 L6.862,3.315 C5.612,3.491 4.609,4.721 4.607,6.07 L0.048,3.589" id="path-25"></path>
        <polygon id="path-27" points="0.0426 0.4244 16.618 0.4244 16.618 17 0.0426 17"></polygon>
        <path d="M0.989,0.743 C1.597,1.972 2.867,2.745 4.255,2.745 C4.498,2.745 4.745,2.721 4.993,2.672 L5.422,3.54 C5.174,3.589 4.927,3.614 4.684,3.614 C3.296,3.614 2.027,2.84 1.419,1.611" id="path-29"></path>
        <path d="M0.989,0.743 C1.597,1.972 2.867,2.745 4.255,2.745 C4.498,2.745 4.745,2.721 4.993,2.672 L5.422,3.54 C5.174,3.589 4.927,3.614 4.684,3.614 C3.296,3.614 2.027,2.84 1.419,1.611" id="path-31"></path>
        <path d="M0.989,0.743 C1.597,1.972 2.867,2.745 4.255,2.745 C4.498,2.745 4.745,2.721 4.993,2.672 L5.422,3.54 C5.174,3.589 4.927,3.614 4.684,3.614 C3.296,3.614 2.027,2.84 1.419,1.611" id="path-33"></path>
        <path d="M0.989,0.743 C1.597,1.972 2.867,2.745 4.255,2.745 C4.498,2.745 4.745,2.721 4.993,2.672 L5.422,3.54 C5.174,3.589 4.927,3.614 4.684,3.614 C3.296,3.614 2.027,2.84 1.419,1.611" id="path-35"></path>
        <path d="M0.989,0.743 C1.597,1.972 2.867,2.745 4.255,2.745 C4.498,2.745 4.745,2.721 4.993,2.672 L5.422,3.54 C5.174,3.589 4.927,3.614 4.684,3.614 C3.296,3.614 2.027,2.84 1.419,1.611" id="path-37"></path>
        <path d="M0.989,0.743 C1.597,1.972 2.867,2.745 4.255,2.745 C4.498,2.745 4.745,2.721 4.993,2.672 L5.422,3.54 C5.174,3.589 4.927,3.614 4.684,3.614 C3.296,3.614 2.027,2.84 1.419,1.611" id="path-39"></path>
        <path d="M0.989,0.743 C1.597,1.972 2.867,2.745 4.255,2.745 C4.498,2.745 4.745,2.721 4.993,2.672 L5.422,3.54 C5.174,3.589 4.927,3.614 4.684,3.614 C3.296,3.614 2.027,2.84 1.419,1.611" id="path-41"></path>
        <path d="M3.648,0.441 L4.077,1.309 C4.27,1.7 4.393,2.13 4.433,2.587 C4.592,4.466 3.293,6.168 1.422,6.54 L0.993,5.672 C2.863,5.3 4.163,3.598 4.004,1.719" id="path-43"></path>
        <path d="M3.648,0.441 L4.077,1.309 C4.27,1.7 4.393,2.13 4.433,2.587 C4.592,4.466 3.293,6.168 1.422,6.54 L0.993,5.672 C2.863,5.3 4.163,3.598 4.004,1.719" id="path-45"></path>
        <path d="M3.648,0.441 L4.077,1.309 C4.27,1.7 4.393,2.13 4.433,2.587 C4.592,4.466 3.293,6.168 1.422,6.54 L0.993,5.672 C2.863,5.3 4.163,3.598 4.004,1.719" id="path-47"></path>
        <path d="M3.648,0.441 L4.077,1.309 C4.27,1.7 4.393,2.13 4.433,2.587 C4.592,4.466 3.293,6.168 1.422,6.54 L0.993,5.672 C2.863,5.3 4.163,3.598 4.004,1.719" id="path-49"></path>
        <path d="M3.648,0.441 L4.077,1.309 C4.27,1.7 4.393,2.13 4.433,2.587 C4.592,4.466 3.293,6.168 1.422,6.54 L0.993,5.672 C2.863,5.3 4.163,3.598 4.004,1.719" id="path-51"></path>
    </defs>
    <g id="工作空间项目-开发中心-具体工作流" stroke="none" stroke-width="1" fill="none" fill-rule="evenodd">
        <g id="侧边栏icon" transform="translate(-110.000000, -669.000000)">
            <g id="eventchecker" transform="translate(107.000000, 667.000000)">
                <g id="编组-30">
                    <rect id="矩形备份-17" x="0" y="0" width="36" height="36"></rect>
                </g>
                <g id="编组-48" transform="translate(3.000000, 1.000000)">
                    <g id="编组">
                        <g transform="translate(0.000000, 0.668700)">
                            <polygon id="Fill-1" fill="#7EF0ED" points="22.6539 24.6216 18.0949 22.1426 18.1199 8.7146 22.6789 11.1946"></polygon>
                            <g transform="translate(18.000000, 2.000000)">
                                <g>
                                    <mask id="mask-2" fill="white">
                                        <use xlink:href="#path-1"></use>
                                    </mask>
                                    <g id="Clip-4"></g>
                                    <path d="M4.6905,3.0903 L0.1315,0.6113 C0.4075,0.5713 0.6725,0.5883 0.9175,0.6513 L5.4755,3.1303 C5.2315,3.0683 4.9665,3.0523 4.6905,3.0903" id="Fill-3" fill="#59ECE8" mask="url(#mask-2)"></path>
                                </g>
                                <g>
                                    <mask id="mask-4" fill="white">
                                        <use xlink:href="#path-3"></use>
                                    </mask>
                                    <g id="Clip-6"></g>
                                    <path d="M5.4757,3.1304 L0.9167,0.6514 C1.0427,0.6834 1.1627,0.7284 1.2767,0.7834 L5.8347,3.2634 C5.7217,3.2074 5.6007,3.1624 5.4757,3.1304" id="Fill-5" fill="#5EECE9" mask="url(#mask-4)"></path>
                                </g>
                                <g>
                                    <mask id="mask-6" fill="white">
                                        <use xlink:href="#path-5"></use>
                                    </mask>
                                    <g id="Clip-8"></g>
                                    <path d="M5.8351,3.2632 L1.2761,0.7842 C1.3001,0.7952 1.3231,0.8072 1.3461,0.8202 L5.9041,3.2992 C5.8811,3.2862 5.8581,3.2752 5.8351,3.2632" id="Fill-7" fill="#63EDE9" mask="url(#mask-6)"></path>
                                </g>
                            </g>
                            <polygon id="Fill-9" fill="#4DEBE6" points="21.5611 5.2495 17.0021 2.7695 18.1321 2.6105 22.6901 5.0905"></polygon>
                            <polygon id="Fill-11" fill="#4DEBE6" points="14.756 17.1919 10.197 14.7129 15.853 13.9179 20.411 16.3969"></polygon>
                            <polygon id="Fill-13" fill="#4DEBE6" points="6.8253 26.8462 2.2663 24.3672 18.0953 22.1422 22.6543 24.6212"></polygon>
                            <polygon id="Fill-15" fill="#7EF0ED" points="14.7442 23.2954 10.1852 20.8164 10.1972 14.7124 14.7562 17.1914"></polygon>
                            <g transform="translate(0.000000, 24.000000)">
                                <mask id="mask-8" fill="white">
                                    <use xlink:href="#path-7"></use>
                                </mask>
                                <g id="Clip-18"></g>
                                <path d="M5.6124,5.0845 L1.0534,2.6055 C0.4194,2.2605 -0.0016,1.5545 0.000392905024,0.6855 L4.5584,3.1645 C4.5574,4.0335 4.9784,4.7395 5.6124,5.0845" id="Fill-17" fill="#7CF0ED" mask="url(#mask-8)"></path>
                            </g>
                            <polygon id="Fill-19" fill="#4DEBE6" points="10.2501 6.8393 5.6911 4.3593 14.7431 3.0873 19.3021 5.5673"></polygon>
                            <path d="M22.6539,24.6216 L22.6789,11.1946 L6.8499,13.4196 L6.8249,26.8466 L22.6539,24.6216 L22.6539,24.6216 Z M22.6909,5.0906 C23.9399,4.9146 24.9549,5.8616 24.952903,7.2106 L24.9209,24.3036 C24.9189,25.6516 23.8989,26.8926 22.6499,27.0686 L6.8209,29.2936 C5.5709,29.4696 4.5559,28.5136 4.55889337,27.1646 L4.6069,10.0696 C4.6089,8.7216 5.6119,7.4906 6.8619,7.3146 L7.9909,7.1566 L7.9959,4.7186 L10.2549,4.4006 L10.2499,6.8396 L19.3019,5.5666 L19.3069,3.1286 L21.5659,2.8106 L21.5609,5.2496 L22.6909,5.0906 Z" id="Fill-21" fill="#23E6E0"></path>
                            <polygon id="Fill-23" fill="#23E6E0" points="20.4112 16.397 20.3992 22.501 14.7442 23.295 14.7562 17.192"></polygon>
                            <polygon id="Fill-25" fill="#7EF0ED" points="19.3019 5.5669 14.7429 3.0879 14.7479 0.6489 19.3069 3.1289"></polygon>
                            <polygon id="Fill-27" fill="#4DEBE6" points="19.3067 3.1284 14.7477 0.6494 17.0067 0.3314 21.5657 2.8114"></polygon>
                            <polygon id="Fill-29" fill="#4DEBE6" points="6.8619 7.3149 2.3029 4.8359 3.4329 4.6759 7.9909 7.1569"></polygon>
                            <polygon id="Fill-31" fill="#4DEBE6" points="7.9957 4.7182 3.4367 2.2392 5.6957 1.9212 10.2547 4.4012"></polygon>
                            <polygon id="Fill-33" fill="#7EF0ED" points="7.9913 7.1567 3.4323 4.6767 3.4373 2.2387 7.9953 4.7187"></polygon>
                            <g transform="translate(0.000000, 7.000000)">
                                <mask id="mask-10" fill="white">
                                    <use xlink:href="#path-9"></use>
                                </mask>
                                <g id="Clip-36"></g>
                                <polygon id="Fill-35" fill="#7EF0ED" mask="url(#mask-10)" points="4.5587 20.1645 -0.0003 17.6855 0.0477 0.5895 4.6067 3.0695"></polygon>
                            </g>
                            <g transform="translate(0.000000, 4.000000)">
                                <g>
                                    <mask id="mask-12" fill="white">
                                        <use xlink:href="#path-11"></use>
                                    </mask>
                                    <g id="Clip-38"></g>
                                    <path d="M4.6066,6.0698 L0.0476,3.5898 C0.0486,3.2558 0.1106,2.9268 0.2236,2.6218 L4.7816,5.1008 C4.6696,5.4078 4.6066,5.7348 4.6066,6.0698" id="Fill-37" fill="#7CF0ED" mask="url(#mask-12)"></path>
                                </g>
                                <g>
                                    <mask id="mask-14" fill="white">
                                        <use xlink:href="#path-13"></use>
                                    </mask>
                                    <g id="Clip-40"></g>
                                    <path d="M4.7818,5.1011 L0.2228,2.6221 C0.2708,2.4911 0.3278,2.3641 0.3938,2.2431 L4.9518,4.7221 C4.8868,4.8441 4.8298,4.9701 4.7818,5.1011" id="Fill-39" fill="#77EFEC" mask="url(#mask-14)"></path>
                                </g>
                                <g>
                                    <mask id="mask-16" fill="white">
                                        <use xlink:href="#path-15"></use>
                                    </mask>
                                    <g id="Clip-42"></g>
                                    <path d="M4.9523,4.7222 L0.3933,2.2432 C0.4493,2.1392 0.5103,2.0402 0.5773,1.9452 L5.1363,4.4252 C5.0693,4.5202 5.0083,4.6192 4.9523,4.7222" id="Fill-41" fill="#72EFEB" mask="url(#mask-16)"></path>
                                </g>
                                <g>
                                    <mask id="mask-18" fill="white">
                                        <use xlink:href="#path-17"></use>
                                    </mask>
                                    <g id="Clip-44"></g>
                                    <path d="M5.1358,4.4253 L0.5768,1.9453 C0.6398,1.8563 0.7068,1.7703 0.7788,1.6893 L5.3378,4.1683 C5.2658,4.2503 5.1978,4.3353 5.1358,4.4253" id="Fill-43" fill="#6DEEEB" mask="url(#mask-18)"></path>
                                </g>
                                <g>
                                    <mask id="mask-20" fill="white">
                                        <use xlink:href="#path-19"></use>
                                    </mask>
                                    <g id="Clip-46"></g>
                                    <path d="M5.3375,4.1684 L0.7785,1.6894 C0.8505,1.6074 0.9275,1.5304 1.0075,1.4584 L5.5665,3.9384 C5.4855,4.0104 5.4095,4.0874 5.3375,4.1684" id="Fill-45" fill="#68EEEA" mask="url(#mask-20)"></path>
                                </g>
                                <g>
                                    <mask id="mask-22" fill="white">
                                        <use xlink:href="#path-21"></use>
                                    </mask>
                                    <g id="Clip-48"></g>
                                    <path d="M5.566,3.938 L1.007,1.459 C1.093,1.38 1.184,1.309 1.278,1.244 L5.837,3.724 C5.742,3.789 5.652,3.861 5.566,3.938" id="Fill-47" fill="#63EDE9" mask="url(#mask-22)"></path>
                                </g>
                                <g>
                                    <mask id="mask-24" fill="white">
                                        <use xlink:href="#path-23"></use>
                                    </mask>
                                    <g id="Clip-50"></g>
                                    <path d="M5.837,3.7241 L1.278,1.2441 C1.394,1.1631 1.516,1.0931 1.643,1.0341 L6.201,3.5131 C6.075,3.5731 5.953,3.6441 5.837,3.7241" id="Fill-49" fill="#5EECE9" mask="url(#mask-24)"></path>
                                </g>
                                <g>
                                    <mask id="mask-26" fill="white">
                                        <use xlink:href="#path-25"></use>
                                    </mask>
                                    <g id="Clip-52"></g>
                                    <path d="M6.2013,3.5132 L1.6423,1.0342 C1.8513,0.9362 2.0733,0.8672 2.3033,0.8352 L6.8623,3.3152 C6.6313,3.3472 6.4093,3.4152 6.2013,3.5132" id="Fill-51" fill="#59ECE8" mask="url(#mask-26)"></path>
                                </g>
                            </g>
                        </g>
                        <g transform="translate(13.000000, 14.668700)">
                            <mask id="mask-28" fill="white">
                                <use xlink:href="#path-27"></use>
                            </mask>
                            <g id="Clip-54"></g>
                            <path d="M0.0426,8.7124 C0.0426,4.1354 3.7526,0.4244 8.3306,0.4244 C12.9076,0.4244 16.6186,4.1354 16.6186,8.7124 C16.6186,13.2894 12.9076,17.0004 8.3306,17.0004 C3.7526,17.0004 0.0426,13.2894 0.0426,8.7124" id="Fill-53" fill="#F8F9FC" mask="url(#mask-28)"></path>
                        </g>
                    </g>
                    <g id="编组-46备份" transform="translate(15.000000, 17.000000)">
                        <path d="M6.5,1.77635684e-15 C10.0898509,1.77635684e-15 13,2.91014913 13,6.5 C13,6.75863777 12.9848941,7.01374738 12.9555165,7.26449467 C12.5926152,4.29762928 10.0646276,2 7,2 C3.6862915,2 1,4.6862915 1,8 C1,9.08663818 1.28886469,10.1058084 1.79399319,10.9849098 C0.682825796,9.81831059 0,8.23889655 0,6.5 C0,2.91014913 2.91014913,1.77635684e-15 6.5,1.77635684e-15 Z" id="路径" fill="#7CF0ED"></path>
                        <g id="编组" transform="translate(14.000000, 13.148600)">
                            <path d="M1.4948,1.3959 L1.0658,0.5279 C1.1088,0.5729 1.1468,0.6219 1.1808,0.6719 L1.6098,1.5409 C1.5768,1.4899 1.5378,1.4409 1.4948,1.3959" id="Fill-1" fill="#59ECE8"></path>
                            <path d="M1.6095,1.5404 L1.1805,0.6724 C1.2005,0.7024 1.2185,0.7344 1.2345,0.7674 L1.6635,1.6354 C1.6475,1.6024 1.6295,1.5704 1.6095,1.5404" id="Fill-2" fill="#5EECE9"></path>
                        </g>
                        <polygon id="Fill-3" fill="#55EBE7" points="11.8483 10.8834 11.4193 10.0154 15.0653 13.6764 15.4943 14.5444"></polygon>
                        <polygon id="Fill-5" fill="#51EBE7" points="11.7682 10.8394 11.3392 9.9714 11.4192 10.0154 11.8482 10.8834"></polygon>
                        <g id="编组" transform="translate(2.000000, 7.148600)">
                            <g>
                                <mask id="mask-30" fill="white">
                                    <use xlink:href="#path-29"></use>
                                </mask>
                                <g id="Clip-8"></g>
                                <path d="M1.4186,1.6107 L0.9896,0.7427 C1.0506,0.8657 1.1186,0.9847 1.1916,1.0977 L1.6216,1.9657 C1.5466,1.8527 1.4796,1.7337 1.4186,1.6107" id="Fill-7" fill="#5EECE9" mask="url(#mask-30)"></path>
                            </g>
                            <g>
                                <mask id="mask-32" fill="white">
                                    <use xlink:href="#path-31"></use>
                                </mask>
                                <g id="Clip-10"></g>
                                <path d="M1.6212,1.9662 L1.1922,1.0982 C1.3332,1.3162 1.4962,1.5162 1.6782,1.6952 L2.1072,2.5642 C1.9252,2.3842 1.7622,2.1842 1.6212,1.9662" id="Fill-9" fill="#59ECE8" mask="url(#mask-32)"></path>
                            </g>
                            <g>
                                <mask id="mask-34" fill="white">
                                    <use xlink:href="#path-33"></use>
                                </mask>
                                <g id="Clip-12"></g>
                                <path d="M2.1076,2.5639 L1.6786,1.6959 C2.0196,2.0319 2.4246,2.2969 2.8706,2.4769 L3.2996,3.3449 C2.8546,3.1659 2.4486,2.9009 2.1076,2.5639" id="Fill-11" fill="#54EBE7" mask="url(#mask-34)"></path>
                            </g>
                            <g>
                                <mask id="mask-36" fill="white">
                                    <use xlink:href="#path-35"></use>
                                </mask>
                                <g id="Clip-14"></g>
                                <path d="M3.3,3.3451 L2.871,2.4771 C3.11,2.5741 3.362,2.6461 3.62,2.6911 L4.049,3.5591 C3.79,3.5141 3.539,3.4421 3.3,3.3451" id="Fill-13" fill="#59ECE8" mask="url(#mask-36)"></path>
                            </g>
                            <g>
                                <mask id="mask-38" fill="white">
                                    <use xlink:href="#path-37"></use>
                                </mask>
                                <g id="Clip-16"></g>
                                <path d="M4.049,3.559 L3.62,2.691 C3.796,2.721 3.976,2.739 4.158,2.744 L4.587,3.612 C4.405,3.607 4.225,3.589 4.049,3.559" id="Fill-15" fill="#5EECE9" mask="url(#mask-38)"></path>
                            </g>
                            <g>
                                <mask id="mask-40" fill="white">
                                    <use xlink:href="#path-39"></use>
                                </mask>
                                <g id="Clip-18"></g>
                                <path d="M4.5871,3.6117 L4.1581,2.7437 C4.1901,2.7447 4.2221,2.7447 4.2541,2.7447 C4.3791,2.7447 4.5051,2.7387 4.6321,2.7257 L5.0611,3.5937 C4.9341,3.6067 4.8081,3.6137 4.6841,3.6137 C4.6511,3.6137 4.6191,3.6127 4.5871,3.6117" id="Fill-17" fill="#63EDE9" mask="url(#mask-40)"></path>
                            </g>
                            <g>
                                <mask id="mask-42" fill="white">
                                    <use xlink:href="#path-41"></use>
                                </mask>
                                <g id="Clip-20"></g>
                                <path d="M5.0612,3.5941 L4.6322,2.7261 C4.7512,2.7141 4.8722,2.6961 4.9932,2.6721 L5.4222,3.5401 C5.3012,3.5641 5.1812,3.5821 5.0612,3.5941" id="Fill-19" fill="#68EEEA" mask="url(#mask-42)"></path>
                            </g>
                        </g>
                        <g id="编组" transform="translate(6.000000, 4.148600)">
                            <g>
                                <mask id="mask-44" fill="white">
                                    <use xlink:href="#path-43"></use>
                                </mask>
                                <g id="Clip-22"></g>
                                <path d="M1.422,6.5404 L0.993,5.6724 C1.022,5.6664 1.051,5.6604 1.08,5.6534 L1.509,6.5214 C1.48,6.5284 1.451,6.5344 1.422,6.5404" id="Fill-21" fill="#68EEEA" mask="url(#mask-44)"></path>
                            </g>
                            <g>
                                <mask id="mask-46" fill="white">
                                    <use xlink:href="#path-45"></use>
                                </mask>
                                <g id="Clip-24"></g>
                                <path d="M1.5089,6.5219 L1.0799,5.6539 C1.2299,5.6209 1.3769,5.5789 1.5189,5.5279 L1.9479,6.3959 C1.8059,6.4469 1.6589,6.4889 1.5089,6.5219" id="Fill-23" fill="#6DEEEB" mask="url(#mask-46)"></path>
                            </g>
                            <g>
                                <mask id="mask-48" fill="white">
                                    <use xlink:href="#path-47"></use>
                                </mask>
                                <g id="Clip-26"></g>
                                <path d="M1.9479,6.3959 L1.5189,5.5279 C1.6739,5.4729 1.8239,5.4089 1.9689,5.3349 L2.3979,6.2039 C2.2539,6.2769 2.1029,6.3409 1.9479,6.3959" id="Fill-25" fill="#72EFEB" mask="url(#mask-48)"></path>
                            </g>
                            <g>
                                <mask id="mask-50" fill="white">
                                    <use xlink:href="#path-49"></use>
                                </mask>
                                <g id="Clip-28"></g>
                                <path d="M2.3976,6.2035 L1.9686,5.3355 C2.1446,5.2465 2.3106,5.1445 2.4676,5.0315 L2.8976,5.8995 C2.7396,6.0135 2.5726,6.1145 2.3976,6.2035" id="Fill-27" fill="#77EFEC" mask="url(#mask-50)"></path>
                            </g>
                            <g>
                                <mask id="mask-52" fill="white">
                                    <use xlink:href="#path-51"></use>
                                </mask>
                                <g id="Clip-30"></g>
                                <path d="M2.8971,5.8998 L2.4681,5.0318 C3.5001,4.2878 4.1161,3.0468 4.0031,1.7188 C3.9641,1.2618 3.8401,0.8318 3.6471,0.4408 L4.0771,1.3088 C4.2701,1.6998 4.3931,2.1298 4.4331,2.5868 C4.5451,3.9158 3.9291,5.1558 2.8971,5.8998" id="Fill-29" fill="#7CF0ED" mask="url(#mask-52)"></path>
                            </g>
                        </g>
                        <path d="M12.0919,3.6929 L11.6629,2.8249 C11.7909,3.0219 11.9079,3.2269 12.0129,3.4399 L12.4419,4.3079 C12.3369,4.0949 12.2199,3.8899 12.0919,3.6929" id="Fill-51" fill="#5EECE9"></path>
                        <polygon id="Clip-54" points="0.429257222 0.869 15.7606743 0.869 15.7606743 16.1486 0.429257222 16.1486"></polygon>
                        <path d="M7.422,10.689 C9.293,10.317 10.592,8.615 10.433,6.736 C10.273,4.875 8.708,3.448 6.807,3.439 C6.314,3.439 5.819,3.536 5.359,3.731 C3.591,4.458 2.655,6.381 3.193,8.18 C3.651,9.742 5.089,10.762 6.684,10.762 C6.927,10.762 7.174,10.738 7.422,10.689 L7.422,10.689 Z M15.495,14.544 C15.759,14.819 15.834,15.218 15.685,15.573 C15.527,15.918 15.183,16.149 14.797,16.149 C14.547,16.149 14.306,16.051 14.13,15.874 L10.483,12.213 L10.439,12.133 C9.369,12.914 8.071,13.375 6.654,13.375 C3.167,13.375 0.377,10.574 0.43,7.117 C0.483,3.669 3.359,0.869 6.847,0.869 C10.343,0.869 13.125,3.669 13.071,7.117 C13.05,8.517 12.564,9.802 11.768,10.839 L11.848,10.883 L15.495,14.544 Z" id="Fill-53" fill="#2AE6E1"></path>
                    </g>
                </g>
            </g>
        </g>
    </g>
</svg>