<?xml version="1.0" encoding="UTF-8"?>
<svg width="32px" height="28px" viewBox="0 0 32 28" version="1.1" xmlns="http://www.w3.org/2000/svg" xmlns:xlink="http://www.w3.org/1999/xlink">
    <!-- Generator: Sketch 64 (93537) - https://sketch.com -->
    <title>exchangis</title>
    <desc>Created with Sketch.</desc>
    <defs>
        <path d="M0.548,0.875 L5.107,3.355 C5.106,3.582 5.215,3.752 5.368,3.836 L0.81,1.355" id="path-1"></path>
        <path d="M1.434,0.592 L5.99,3.071 L5.91865625,3.03965625 C5.844125,3.013875 5.7665,3.0075 5.69,3.018 C5.398,3.059 5.127,3.346 5.126,3.703 L0.568,1.224 C0.568,0.866 0.839,0.579 1.131,0.538" id="path-3"></path>
        <path d="M1.434,0.592 L5.99,3.071 L5.91865625,3.03965625 C5.844125,3.013875 5.7665,3.0075 5.69,3.018 C5.398,3.059 5.127,3.346 5.126,3.703 L0.568,1.224 C0.568,0.866 0.839,0.579 1.131,0.538" id="path-5"></path>
        <path d="M1.434,0.592 L5.99,3.071 L5.91865625,3.03965625 C5.844125,3.013875 5.7665,3.0075 5.69,3.018 C5.398,3.059 5.127,3.346 5.126,3.703 L0.568,1.224 C0.568,0.866 0.839,0.579 1.131,0.538" id="path-7"></path>
        <path d="M1.434,0.592 L5.99,3.071 L5.91865625,3.03965625 C5.844125,3.013875 5.7665,3.0075 5.69,3.018 C5.398,3.059 5.127,3.346 5.126,3.703 L0.568,1.224 C0.568,0.866 0.839,0.579 1.131,0.538" id="path-9"></path>
        <path d="M1.434,0.592 L5.99,3.071 L5.91865625,3.03965625 C5.844125,3.013875 5.7665,3.0075 5.69,3.018 C5.398,3.059 5.127,3.346 5.126,3.703 L0.568,1.224 C0.568,0.866 0.839,0.579 1.131,0.538" id="path-11"></path>
        <path d="M1.434,0.592 L5.99,3.071 L5.91865625,3.03965625 C5.844125,3.013875 5.7665,3.0075 5.69,3.018 C5.398,3.059 5.127,3.346 5.126,3.703 L0.568,1.224 C0.568,0.866 0.839,0.579 1.131,0.538" id="path-13"></path>
        <path d="M1.434,0.592 L5.99,3.071 L5.91865625,3.03965625 C5.844125,3.013875 5.7665,3.0075 5.69,3.018 C5.398,3.059 5.127,3.346 5.126,3.703 L0.568,1.224 C0.568,0.866 0.839,0.579 1.131,0.538" id="path-15"></path>
        <path d="M1.434,0.592 L5.99,3.071 L5.91865625,3.03965625 C5.844125,3.013875 5.7665,3.0075 5.69,3.018 C5.398,3.059 5.127,3.346 5.126,3.703 L0.568,1.224 C0.568,0.866 0.839,0.579 1.131,0.538" id="path-17"></path>
        <path d="M1.434,0.592 L5.99,3.071 L5.91865625,3.03965625 C5.844125,3.013875 5.7665,3.0075 5.69,3.018 C5.398,3.059 5.127,3.346 5.126,3.703 L0.568,1.224 C0.568,0.866 0.839,0.579 1.131,0.538" id="path-19"></path>
        <path d="M1.434,0.592 L5.99,3.071 L5.91865625,3.03965625 C5.844125,3.013875 5.7665,3.0075 5.69,3.018 C5.398,3.059 5.127,3.346 5.126,3.703 L0.568,1.224 C0.568,0.866 0.839,0.579 1.131,0.538" id="path-21"></path>
        <path d="M0.572,0.858 C1.053,1.12 1.624,1.23 2.235,1.145 L6.793,3.624 C6.182,3.71 5.612,3.6 5.131,3.338" id="path-23"></path>
        <path d="M0.572,0.858 C1.053,1.12 1.624,1.23 2.235,1.145 L6.793,3.624 C6.182,3.71 5.612,3.6 5.131,3.338" id="path-25"></path>
        <path d="M0.572,0.858 C1.053,1.12 1.624,1.23 2.235,1.145 L6.793,3.624 C6.182,3.71 5.612,3.6 5.131,3.338" id="path-27"></path>
        <path d="M1.482,0.733 L6.041,3.213 C5.647,3.865 5.414,4.623 5.412,5.41 C5.41,6.719 6.039,7.777 6.989,8.294 L2.431,5.814 C1.48,5.297 0.851,4.239 0.853989315,2.931" id="path-29"></path>
        <path d="M1.482,0.733 L6.041,3.213 C5.647,3.865 5.414,4.623 5.412,5.41 C5.41,6.719 6.039,7.777 6.989,8.294 L2.431,5.814 C1.48,5.297 0.851,4.239 0.853989315,2.931" id="path-31"></path>
        <path d="M1.482,0.733 L6.041,3.213 C5.647,3.865 5.414,4.623 5.412,5.41 C5.41,6.719 6.039,7.777 6.989,8.294 L2.431,5.814 C1.48,5.297 0.851,4.239 0.853989315,2.931" id="path-33"></path>
        <path d="M0.092,0.352 L4.651,2.831 C5.113,3.083 5.494,3.475 5.749,3.965 L1.19,1.485" id="path-35"></path>
        <path d="M2.238,0.395 L6.797,2.875 C6.272,2.59 5.649,2.469 4.98,2.562 L0.421,0.083" id="path-37"></path>
        <path d="M2.238,0.395 L6.797,2.875 C6.272,2.59 5.649,2.469 4.98,2.562 L0.421,0.083" id="path-39"></path>
        <path d="M2.238,0.395 L6.797,2.875 C6.272,2.59 5.649,2.469 4.98,2.562 L0.421,0.083" id="path-41"></path>
        <path d="M0.867,0.86 L5.425,3.34 C5.336,3.291 5.23,3.271 5.122,3.287 C5.011,3.303 4.898,3.353 4.795,3.446 L0.236,0.967 C0.34,0.874 0.453,0.822 0.563,0.807" id="path-43"></path>
        <path d="M0.867,0.86 L5.425,3.34 C5.336,3.291 5.23,3.271 5.122,3.287 C5.011,3.303 4.898,3.353 4.795,3.446 L0.236,0.967 C0.34,0.874 0.453,0.822 0.563,0.807" id="path-45"></path>
        <path d="M0.867,0.86 L5.425,3.34 C5.336,3.291 5.23,3.271 5.122,3.287 C5.011,3.303 4.898,3.353 4.795,3.446 L0.236,0.967 C0.34,0.874 0.453,0.822 0.563,0.807" id="path-47"></path>
        <path d="M0.867,0.86 L5.425,3.34 C5.336,3.291 5.23,3.271 5.122,3.287 C5.011,3.303 4.898,3.353 4.795,3.446 L0.236,0.967 C0.34,0.874 0.453,0.822 0.563,0.807" id="path-49"></path>
        <path d="M0.867,0.86 L5.425,3.34 C5.336,3.291 5.23,3.271 5.122,3.287 C5.011,3.303 4.898,3.353 4.795,3.446 L0.236,0.967 C0.34,0.874 0.453,0.822 0.563,0.807" id="path-51"></path>
        <path d="M0.241,0.274 L4.8,2.754 C4.479,3.041 4.478,3.542 4.798,3.739 L0.239,1.26" id="path-53"></path>
        <path d="M0.241,0.274 L4.8,2.754 C4.479,3.041 4.478,3.542 4.798,3.739 L0.239,1.26" id="path-55"></path>
        <path d="M0.241,0.274 L4.8,2.754 C4.479,3.041 4.478,3.542 4.798,3.739 L0.239,1.26" id="path-57"></path>
        <path d="M0.241,0.274 L4.8,2.754 C4.479,3.041 4.478,3.542 4.798,3.739 L0.239,1.26" id="path-59"></path>
        <path d="M0.241,0.274 L4.8,2.754 C4.479,3.041 4.478,3.542 4.798,3.739 L0.239,1.26" id="path-61"></path>
        <path d="M0.241,0.274 L4.8,2.754 C4.479,3.041 4.478,3.542 4.798,3.739 L0.239,1.26" id="path-63"></path>
    </defs>
    <g id="工作空间项目-开发中心-具体工作流" stroke="none" stroke-width="1" fill="none" fill-rule="evenodd">
        <g id="侧边栏icon" transform="translate(-109.000000, -309.000000)">
            <g id="exchangis" transform="translate(107.000000, 304.000000)">
                <g id="编组-30">
                    <rect id="矩形备份-17" x="0" y="0" width="36" height="36"></rect>
                </g>
                <g id="编组" transform="translate(2.000000, 4.000000)">
                    <g transform="translate(3.000000, 13.306500)">
                        <g transform="translate(15.000000, 11.000000)">
                            <mask id="mask-2" fill="white">
                                <use xlink:href="#path-1"></use>
                            </mask>
                            <g id="Clip-2"></g>
                            <path d="M5.3683,3.8359 L0.8093,1.3559 C0.6563,1.2719 0.5473,1.1029 0.5473,0.8749 L5.1063,3.3559 C5.1063,3.5819 5.2143,3.7519 5.3683,3.8359" id="Fill-1" fill="#AEBFFF" mask="url(#mask-2)"></path>
                        </g>
                        <polygon id="Fill-3" fill="#AFC0FF" points="20.1066 14.3554 15.5476 11.8754 15.5536 8.5384 20.1126 11.0174"></polygon>
                        <polygon id="Fill-5" fill="#AFC0FF" points="20.1198 7.0322 15.5608 4.5532 15.5678 1.2232 20.1258 3.7032"></polygon>
                        <g transform="translate(15.000000, 0.000000)">
                            <g>
                                <mask id="mask-4" fill="white">
                                    <use xlink:href="#path-3"></use>
                                </mask>
                                <g id="Clip-8"></g>
                                <path d="M5.1262,3.7031 L0.5672,1.2241 C0.5672,1.1391 0.5832,1.0571 0.6102,0.9821 L5.1692,3.4631 C5.1422,3.5371 5.1262,3.6181 5.1262,3.7031" id="Fill-7" fill="#AEBFFF" mask="url(#mask-4)"></path>
                            </g>
                            <g>
                                <mask id="mask-6" fill="white">
                                    <use xlink:href="#path-5"></use>
                                </mask>
                                <g id="Clip-10"></g>
                                <path d="M5.1691,3.4629 L0.6101,0.9829 C0.6221,0.9509 0.6361,0.9199 0.6521,0.8909 L5.2111,3.3699 C5.1951,3.3999 5.1811,3.4309 5.1691,3.4629" id="Fill-9" fill="#ABBCFF" mask="url(#mask-6)"></path>
                            </g>
                            <g>
                                <mask id="mask-8" fill="white">
                                    <use xlink:href="#path-7"></use>
                                </mask>
                                <g id="Clip-12"></g>
                                <path d="M5.2106,3.3701 L0.6516,0.8911 C0.6656,0.8651 0.6806,0.8411 0.6966,0.8171 L5.2556,3.2981 C5.2396,3.3211 5.2246,3.3451 5.2106,3.3701" id="Fill-11" fill="#A8BAFF" mask="url(#mask-8)"></path>
                            </g>
                            <g>
                                <mask id="mask-10" fill="white">
                                    <use xlink:href="#path-9"></use>
                                </mask>
                                <g id="Clip-14"></g>
                                <path d="M5.2556,3.2978 L0.6966,0.8178 C0.7126,0.7958 0.7296,0.7748 0.7466,0.7538 L5.3056,3.2348 C5.2876,3.2538 5.2716,3.2758 5.2556,3.2978" id="Fill-13" fill="#A5B7FF" mask="url(#mask-10)"></path>
                            </g>
                            <g>
                                <mask id="mask-12" fill="white">
                                    <use xlink:href="#path-11"></use>
                                </mask>
                                <g id="Clip-16"></g>
                                <path d="M5.3054,3.2343 L0.7464,0.7543 C0.7644,0.7333 0.7844,0.7143 0.8044,0.6963 L5.3634,3.1763 C5.3434,3.1943 5.3234,3.2133 5.3054,3.2343" id="Fill-15" fill="#A1B5FF" mask="url(#mask-12)"></path>
                            </g>
                            <g>
                                <mask id="mask-14" fill="white">
                                    <use xlink:href="#path-13"></use>
                                </mask>
                                <g id="Clip-18"></g>
                                <path d="M5.363,3.1767 L0.804,0.6967 C0.826,0.6767 0.849,0.6577 0.873,0.6417 L5.432,3.1207 C5.408,3.1377 5.385,3.1557 5.363,3.1767" id="Fill-17" fill="#9EB2FF" mask="url(#mask-14)"></path>
                            </g>
                            <g>
                                <mask id="mask-16" fill="white">
                                    <use xlink:href="#path-15"></use>
                                </mask>
                                <g id="Clip-20"></g>
                                <path d="M5.4323,3.1211 L0.8733,0.6421 C0.9033,0.6211 0.9343,0.6031 0.9663,0.5881 L5.5253,3.0671 C5.4933,3.0831 5.4623,3.1001 5.4323,3.1211" id="Fill-19" fill="#9BB0FF" mask="url(#mask-16)"></path>
                            </g>
                            <g>
                                <mask id="mask-18" fill="white">
                                    <use xlink:href="#path-17"></use>
                                </mask>
                                <g id="Clip-22"></g>
                                <path d="M5.5251,3.0674 L0.9661,0.5884 C1.0191,0.5634 1.0751,0.5464 1.1311,0.5384 C1.1951,0.5294 1.2601,0.5324 1.3241,0.5484 L5.8821,3.0284 C5.8191,3.0114 5.7541,3.0084 5.6901,3.0174 C5.6331,3.0264 5.5781,3.0434 5.5251,3.0674" id="Fill-21" fill="#98ADFF" mask="url(#mask-18)"></path>
                            </g>
                            <g>
                                <mask id="mask-20" fill="white">
                                    <use xlink:href="#path-19"></use>
                                </mask>
                                <g id="Clip-24"></g>
                                <path d="M5.8825,3.0283 L1.3235,0.5493 C1.3545,0.5563 1.3855,0.5673 1.4155,0.5833 L5.9745,3.0623 C5.9445,3.0483 5.9135,3.0363 5.8825,3.0283" id="Fill-23" fill="#9BB0FF" mask="url(#mask-20)"></path>
                            </g>
                            <g>
                                <mask id="mask-22" fill="white">
                                    <use xlink:href="#path-21"></use>
                                </mask>
                                <g id="Clip-26"></g>
                                <path d="M5.9743,3.0625 L1.4153,0.5835 C1.4213,0.5855 1.4283,0.5885 1.4333,0.5915 L5.9923,3.0725 C5.9863,3.0685 5.9803,3.0655 5.9743,3.0625" id="Fill-25" fill="#9EB2FF" mask="url(#mask-22)"></path>
                            </g>
                        </g>
                        <polygon id="Fill-27" fill="#91A7FF" points="8.7932 8.624 4.2342 6.145 15.5612 4.553 20.1202 7.032"></polygon>
                        <g transform="translate(2.000000, 5.000000)">
                            <g>
                                <mask id="mask-24" fill="white">
                                    <use xlink:href="#path-23"></use>
                                </mask>
                                <g id="Clip-30"></g>
                                <path d="M5.131,3.3379 L0.572,0.8589 C0.603,0.8749 0.634,0.8919 0.666,0.9069 L5.225,3.3869 C5.193,3.3709 5.162,3.3559 5.131,3.3379" id="Fill-29" fill="#9EB2FF" mask="url(#mask-24)"></path>
                            </g>
                            <g>
                                <mask id="mask-26" fill="white">
                                    <use xlink:href="#path-25"></use>
                                </mask>
                                <g id="Clip-32"></g>
                                <path d="M5.2248,3.3867 L0.6658,0.9077 C0.8218,0.9837 0.9858,1.0437 1.1568,1.0887 L5.7148,3.5687 C5.5438,3.5247 5.3798,3.4627 5.2248,3.3867" id="Fill-31" fill="#9BB0FF" mask="url(#mask-26)"></path>
                            </g>
                            <g>
                                <mask id="mask-28" fill="white">
                                    <use xlink:href="#path-27"></use>
                                </mask>
                                <g id="Clip-34"></g>
                                <path d="M5.715,3.5683 L1.156,1.0893 C1.492,1.1753 1.856,1.1973 2.235,1.1443 L6.793,3.6243 C6.414,3.6773 6.051,3.6553 5.715,3.5683" id="Fill-33" fill="#98ADFF" mask="url(#mask-28)"></path>
                            </g>
                        </g>
                        <g transform="translate(0.000000, 4.000000)">
                            <g>
                                <mask id="mask-30" fill="white">
                                    <use xlink:href="#path-29"></use>
                                </mask>
                                <g id="Clip-36"></g>
                                <path d="M6.9894,8.2939 L2.4304,5.8149 C1.4804,5.2969 0.8514,4.2389 0.853395244,2.9309 C0.8544,2.4359 0.9474,1.9519 1.1144,1.4989 L5.6724,3.9799 C5.5064,4.4329 5.4134,4.9159 5.4124,5.4099 C5.4094,6.7189 6.0384,7.7769 6.9894,8.2939" id="Fill-35" fill="#AEBFFF" mask="url(#mask-30)"></path>
                            </g>
                            <g>
                                <mask id="mask-32" fill="white">
                                    <use xlink:href="#path-31"></use>
                                </mask>
                                <g id="Clip-38"></g>
                                <path d="M5.6725,3.9795 L1.1135,1.4995 C1.1865,1.3025 1.2725,1.1115 1.3715,0.9265 L5.9295,3.4075 C5.8315,3.5905 5.7445,3.7825 5.6725,3.9795" id="Fill-37" fill="#ABBCFF" mask="url(#mask-32)"></path>
                            </g>
                            <g>
                                <mask id="mask-34" fill="white">
                                    <use xlink:href="#path-33"></use>
                                </mask>
                                <g id="Clip-40"></g>
                                <path d="M5.9299,3.4072 L1.3709,0.9272 C1.4069,0.8612 1.4439,0.7972 1.4819,0.7332 L6.0409,3.2132 C6.0029,3.2762 5.9659,3.3422 5.9299,3.4072" id="Fill-39" fill="#A8BAFF" mask="url(#mask-34)"></path>
                            </g>
                        </g>
                        <path d="M27.9992,7.4287 C28.3112,7.6267 28.3112,8.1367 27.9972,8.4227 L20.9952,14.7317 C20.8932,14.8237 20.7812,14.8737 20.6722,14.8887 C20.3782,14.9307 20.1052,14.7147 20.1062,14.3557 L20.1122,11.0177 L8.8102,12.6067 C6.9272,12.8707 5.4082,11.4427 5.41219212,9.4097 C5.4142,8.6227 5.6472,7.8657 6.0412,7.2127 C6.5602,8.2117 7.6002,8.7917 8.7932,8.6237 L20.1202,7.0327 L20.1262,3.7027 C20.1262,3.3457 20.3972,3.0587 20.6892,3.0177 C20.8002,3.0027 20.9132,3.0227 21.0162,3.0857 L27.9992,7.4287 Z" id="Fill-41" fill="#7793FF"></path>
                    </g>
                    <g transform="translate(0.000000, 0.306500)">
                        <g transform="translate(21.000000, 7.000000)">
                            <mask id="mask-36" fill="white">
                                <use xlink:href="#path-35"></use>
                            </mask>
                            <g id="Clip-44"></g>
                            <path d="M5.7487,3.9648 L1.1897,1.4858 C0.9357,0.9938 0.5547,0.6028 0.0927,0.3518 L4.6507,2.8308 C5.1137,3.0828 5.4937,3.4748 5.7487,3.9648" id="Fill-43" fill="#AEBFFF" mask="url(#mask-36)"></path>
                        </g>
                        <g transform="translate(19.000000, 3.000000)">
                            <g>
                                <mask id="mask-38" fill="white">
                                    <use xlink:href="#path-37"></use>
                                </mask>
                                <g id="Clip-46"></g>
                                <path d="M4.9797,2.5625 L0.4207,0.0835 C0.8347,0.0255 1.2297,0.0485 1.5967,0.1435 L6.1547,2.6235 C5.7887,2.5285 5.3937,2.5045 4.9797,2.5625" id="Fill-45" fill="#98ADFF" mask="url(#mask-38)"></path>
                            </g>
                            <g>
                                <mask id="mask-40" fill="white">
                                    <use xlink:href="#path-39"></use>
                                </mask>
                                <g id="Clip-48"></g>
                                <path d="M6.155,2.623 L1.596,0.144 C1.784,0.191 1.964,0.258 2.134,0.342 L6.693,2.821 C6.522,2.738 6.342,2.671 6.155,2.623" id="Fill-47" fill="#9BB0FF" mask="url(#mask-40)"></path>
                            </g>
                            <g>
                                <mask id="mask-42" fill="white">
                                    <use xlink:href="#path-41"></use>
                                </mask>
                                <g id="Clip-50"></g>
                                <path d="M6.6926,2.8213 L2.1336,0.3423 C2.1696,0.3593 2.2036,0.3773 2.2376,0.3953 L6.7966,2.8753 C6.7626,2.8563 6.7276,2.8393 6.6926,2.8213" id="Fill-49" fill="#9EB2FF" mask="url(#mask-42)"></path>
                            </g>
                        </g>
                        <path d="M11.798,15.0976 L7.239,12.6186 L7.215,12.6036 L11.773,15.0826 C11.781,15.0886 11.79,15.0926 11.798,15.0976" id="Fill-51" fill="#AEBFFF"></path>
                        <polygon id="Fill-52" fill="#91A7FF" points="12.6769 7.1513 8.1179 4.6723 19.4209 3.0833 23.9799 5.5623"></polygon>
                        <g transform="translate(7.000000, 0.000000)">
                            <g>
                                <mask id="mask-44" fill="white">
                                    <use xlink:href="#path-43"></use>
                                </mask>
                                <g id="Clip-55"></g>
                                <path d="M4.7951,3.4463 L0.2361,0.9673 C0.2601,0.9453 0.2841,0.9263 0.3081,0.9093 L4.8671,3.3893 C4.8421,3.4063 4.8181,3.4253 4.7951,3.4463" id="Fill-54" fill="#9EB2FF" mask="url(#mask-44)"></path>
                            </g>
                            <g>
                                <mask id="mask-46" fill="white">
                                    <use xlink:href="#path-45"></use>
                                </mask>
                                <g id="Clip-57"></g>
                                <path d="M4.8669,3.3896 L0.3079,0.9096 C0.3389,0.8886 0.3689,0.8706 0.4009,0.8566 L4.9589,3.3356 C4.9279,3.3506 4.8969,3.3686 4.8669,3.3896" id="Fill-56" fill="#9BB0FF" mask="url(#mask-46)"></path>
                            </g>
                            <g>
                                <mask id="mask-48" fill="white">
                                    <use xlink:href="#path-47"></use>
                                </mask>
                                <g id="Clip-59"></g>
                                <path d="M4.9592,3.3359 L0.4002,0.8569 C0.4542,0.8309 0.5092,0.8149 0.5632,0.8069 C0.6302,0.7979 0.6962,0.8019 0.7582,0.8169 L5.3172,3.2969 C5.2552,3.2809 5.1892,3.2769 5.1222,3.2869 C5.0672,3.2939 5.0132,3.3109 4.9592,3.3359" id="Fill-58" fill="#98ADFF" mask="url(#mask-48)"></path>
                            </g>
                            <g>
                                <mask id="mask-50" fill="white">
                                    <use xlink:href="#path-49"></use>
                                </mask>
                                <g id="Clip-61"></g>
                                <path d="M5.3171,3.2968 L0.7581,0.8178 C0.7901,0.8248 0.8201,0.8368 0.8501,0.8508 L5.4081,3.3308 C5.3791,3.3168 5.3491,3.3058 5.3171,3.2968" id="Fill-60" fill="#9BB0FF" mask="url(#mask-50)"></path>
                            </g>
                            <g>
                                <mask id="mask-52" fill="white">
                                    <use xlink:href="#path-51"></use>
                                </mask>
                                <g id="Clip-63"></g>
                                <path d="M5.4084,3.331 L0.8494,0.851 C0.8554,0.853 0.8614,0.856 0.8664,0.86 L5.4254,3.34 C5.4194,3.337 5.4134,3.334 5.4084,3.331" id="Fill-62" fill="#9EB2FF" mask="url(#mask-52)"></path>
                            </g>
                        </g>
                        <polygon id="Fill-64" fill="#B1C1FF" points="11.7731 15.083 7.2141 12.604 0.2391 8.26 4.7981 10.739"></polygon>
                        <polygon id="Fill-66" fill="#98ADFF" points="4.8 9.7539 0.241 7.2749 7.236 0.9669 11.795 3.4459"></polygon>
                        <path d="M12.0998,15.1513 C11.9898,15.1673 11.8758,15.1473 11.7728,15.0833 L4.7978,10.7393 C4.4778,10.5423 4.4788,10.0413 4.7998,9.7543 L11.7948,3.4463 C11.8978,3.3533 12.0118,3.3023 12.1218,3.2873 C12.4138,3.2463 12.6838,3.4563 12.6828,3.8143 L12.6768,7.1513 L23.9798,5.5623 C25.8628,5.2973 27.3808,6.7353 27.3768079,8.7583 C27.3758,9.5463 27.1418,10.3133 26.7488,10.9643 C26.2298,9.9653 25.1898,9.3783 23.9958,9.5453 L12.6698,11.1373 L12.6628,14.4653 C12.6628,14.8243 12.3918,15.1103 12.0998,15.1513" id="Fill-68" fill="#7793FF"></path>
                        <g transform="translate(0.000000, 7.000000)">
                            <g>
                                <mask id="mask-54" fill="white">
                                    <use xlink:href="#path-53"></use>
                                </mask>
                                <g id="Clip-71"></g>
                                <path d="M4.798,3.7392 L0.239,1.2602 C0.012,1.1202 -0.053,0.8272 0.043,0.5662 L4.601,3.0462 C4.506,3.3062 4.571,3.5992 4.798,3.7392" id="Fill-70" fill="#AEBFFF" mask="url(#mask-54)"></path>
                            </g>
                            <g>
                                <mask id="mask-56" fill="white">
                                    <use xlink:href="#path-55"></use>
                                </mask>
                                <g id="Clip-73"></g>
                                <path d="M4.6013,3.0459 L0.0423,0.5669 C0.0543,0.5339 0.0683,0.5029 0.0843,0.4729 L4.6433,2.9529 C4.6263,2.9839 4.6133,3.0149 4.6013,3.0459" id="Fill-72" fill="#ABBCFF" mask="url(#mask-56)"></path>
                            </g>
                            <g>
                                <mask id="mask-58" fill="white">
                                    <use xlink:href="#path-57"></use>
                                </mask>
                                <g id="Clip-75"></g>
                                <path d="M4.6428,2.9531 L0.0838,0.4731 C0.0978,0.4481 0.1128,0.4241 0.1298,0.4001 L4.6878,2.8801 C4.6718,2.9031 4.6568,2.9281 4.6428,2.9531" id="Fill-74" fill="#A8BAFF" mask="url(#mask-58)"></path>
                            </g>
                            <g>
                                <mask id="mask-60" fill="white">
                                    <use xlink:href="#path-59"></use>
                                </mask>
                                <g id="Clip-77"></g>
                                <path d="M4.6882,2.8799 L0.1292,0.4009 C0.1452,0.3779 0.1622,0.3569 0.1802,0.3359 L4.7382,2.8159 C4.7202,2.8359 4.7032,2.8579 4.6882,2.8799" id="Fill-76" fill="#A5B7FF" mask="url(#mask-60)"></path>
                            </g>
                            <g>
                                <mask id="mask-62" fill="white">
                                    <use xlink:href="#path-61"></use>
                                </mask>
                                <g id="Clip-79"></g>
                                <path d="M4.7385,2.8154 L0.1795,0.3364 C0.1985,0.3144 0.2185,0.2944 0.2395,0.2754 L4.7985,2.7544 C4.7775,2.7744 4.7575,2.7944 4.7385,2.8154" id="Fill-78" fill="#A1B5FF" mask="url(#mask-62)"></path>
                            </g>
                            <g>
                                <mask id="mask-64" fill="white">
                                    <use xlink:href="#path-63"></use>
                                </mask>
                                <g id="Clip-81"></g>
                                <path d="M4.798,2.7549 L0.239,0.2759 C0.24,0.2759 0.241,0.2749 0.241,0.2749 L4.8,2.7539 C4.799,2.7539 4.799,2.7549 4.798,2.7549" id="Fill-80" fill="#9EB2FF" mask="url(#mask-64)"></path>
                            </g>
                        </g>
                    </g>
                </g>
            </g>
        </g>
    </g>
</svg>