<?xml version="1.0" encoding="UTF-8"?>
<svg width="33px" height="27px" viewBox="0 0 33 27" version="1.1" xmlns="http://www.w3.org/2000/svg" xmlns:xlink="http://www.w3.org/1999/xlink">
    <!-- Generator: Sketch 64 (93537) - https://sketch.com -->
    <title>mlss</title>
    <desc>Created with Sketch.</desc>
    <defs>
        <path d="M2.214,0.988 L6.773,3.468 C6.318,3.22 5.778,3.116 5.2,3.197 L0.641,0.717" id="path-1"></path>
        <path d="M2.214,0.988 L6.773,3.468 C6.318,3.22 5.778,3.116 5.2,3.197 L0.641,0.717" id="path-3"></path>
        <path d="M2.214,0.988 L6.773,3.468 C6.318,3.22 5.778,3.116 5.2,3.197 L0.641,0.717" id="path-5"></path>
        <path d="M1.641,0.717 L6.2,3.197 C5.975,3.228 5.759,3.285 5.551,3.375 L0.992,0.895" id="path-7"></path>
        <path d="M0.987,0.906 L5.545,3.385 C5.352,3.835 5.247,4.317 5.246,4.792 C5.244,5.923 5.791,6.841 6.615,7.29 L2.056,4.809 C1.232,4.361 0.685,3.444 0.686994534,2.313" id="path-9"></path>
        <path d="M0.987,0.906 L5.545,3.385 C5.352,3.835 5.247,4.317 5.246,4.792 C5.244,5.923 5.791,6.841 6.615,7.29 L2.056,4.809 C1.232,4.361 0.685,3.444 0.686994534,2.313" id="path-11"></path>
        <path d="M0.341,0.522 C0.659,0.695 1.036,0.768 1.438,0.711 L5.997,3.191 C5.594,3.248 5.218,3.174 4.9,3.001" id="path-13"></path>
        <path d="M0.341,0.522 C0.659,0.695 1.036,0.768 1.438,0.711 L5.997,3.191 C5.594,3.248 5.218,3.174 4.9,3.001" id="path-15"></path>
        <path d="M0.341,0.522 C0.659,0.695 1.036,0.768 1.438,0.711 L5.997,3.191 C5.594,3.248 5.218,3.174 4.9,3.001" id="path-17"></path>
        <path d="M1.543,0.457 L6.101,2.936 C6.678,3.25 7.061,3.893 7.0590078,4.68 C7.057,5.908 6.134,7.031 4.997,7.191 L0.438,4.711 C1.575,4.551 2.498,3.427 2.501,2.2" id="path-19"></path>
        <path d="M1.543,0.457 L6.101,2.936 C6.678,3.25 7.061,3.893 7.0590078,4.68 C7.057,5.908 6.134,7.031 4.997,7.191 L0.438,4.711 C1.575,4.551 2.498,3.427 2.501,2.2" id="path-21"></path>
        <path d="M1.543,0.457 L6.101,2.936 C6.678,3.25 7.061,3.893 7.0590078,4.68 C7.057,5.908 6.134,7.031 4.997,7.191 L0.438,4.711 C1.575,4.551 2.498,3.427 2.501,2.2" id="path-23"></path>
        <path d="M1.543,0.457 L6.101,2.936 C6.678,3.25 7.061,3.893 7.0590078,4.68 C7.057,5.908 6.134,7.031 4.997,7.191 L0.438,4.711 C1.575,4.551 2.498,3.427 2.501,2.2" id="path-25"></path>
        <path d="M1.543,0.457 L6.101,2.936 C6.678,3.25 7.061,3.893 7.0590078,4.68 C7.057,5.908 6.134,7.031 4.997,7.191 L0.438,4.711 C1.575,4.551 2.498,3.427 2.501,2.2" id="path-27"></path>
        <path d="M1.543,0.457 L6.101,2.936 C6.678,3.25 7.061,3.893 7.0590078,4.68 C7.057,5.908 6.134,7.031 4.997,7.191 L0.438,4.711 C1.575,4.551 2.498,3.427 2.501,2.2" id="path-29"></path>
        <path d="M1.543,0.457 L6.101,2.936 C6.678,3.25 7.061,3.893 7.0590078,4.68 C7.057,5.908 6.134,7.031 4.997,7.191 L0.438,4.711 C1.575,4.551 2.498,3.427 2.501,2.2" id="path-31"></path>
        <path d="M1.543,0.457 L6.101,2.936 C6.678,3.25 7.061,3.893 7.0590078,4.68 C7.057,5.908 6.134,7.031 4.997,7.191 L0.438,4.711 C1.575,4.551 2.498,3.427 2.501,2.2" id="path-33"></path>
        <path d="M3.316,0.492 L7.875,2.971 C7.594,2.942 7.306,2.948 7.01,2.989 C6.265,3.093 5.528,3.396 4.862,3.87 L0.303,1.39 C0.969,0.917 1.706,0.614 2.451,0.509" id="path-35"></path>
        <path d="M3.316,0.492 L7.875,2.971 C7.594,2.942 7.306,2.948 7.01,2.989 C6.265,3.093 5.528,3.396 4.862,3.87 L0.303,1.39 C0.969,0.917 1.706,0.614 2.451,0.509" id="path-37"></path>
        <path d="M3.316,0.492 L7.875,2.971 C7.594,2.942 7.306,2.948 7.01,2.989 C6.265,3.093 5.528,3.396 4.862,3.87 L0.303,1.39 C0.969,0.917 1.706,0.614 2.451,0.509" id="path-39"></path>
        <path d="M1.449,0.57 L6.008,3.049 C5.598,3.859 5.388,4.745 5.387,5.618 C5.383,7.391 6.244,8.831 7.536,9.534 L2.978,7.054 C1.685,6.351 0.825,4.911 0.827992176,3.138" id="path-41"></path>
        <path d="M1.449,0.57 L6.008,3.049 C5.598,3.859 5.388,4.745 5.387,5.618 C5.383,7.391 6.244,8.831 7.536,9.534 L2.978,7.054 C1.685,6.351 0.825,4.911 0.827992176,3.138" id="path-43"></path>
        <path d="M5.366,1.215 L9.925,3.696 C9.405,3.413 8.789,3.293 8.131,3.386 C6.272,3.647 4.763,5.484 4.759,7.49 C4.758,8.242 4.981,8.955 5.397,9.518 L0.838,7.039 C0.422,6.474 0.199,5.762 0.200986664,5.01 C0.204,3.004 1.714,1.167 3.572,0.906" id="path-45"></path>
        <path d="M5.366,1.215 L9.925,3.696 C9.405,3.413 8.789,3.293 8.131,3.386 C6.272,3.647 4.763,5.484 4.759,7.49 C4.758,8.242 4.981,8.955 5.397,9.518 L0.838,7.039 C0.422,6.474 0.199,5.762 0.200986664,5.01 C0.204,3.004 1.714,1.167 3.572,0.906" id="path-47"></path>
        <path d="M5.366,1.215 L9.925,3.696 C9.405,3.413 8.789,3.293 8.131,3.386 C6.272,3.647 4.763,5.484 4.759,7.49 C4.758,8.242 4.981,8.955 5.397,9.518 L0.838,7.039 C0.422,6.474 0.199,5.762 0.200986664,5.01 C0.204,3.004 1.714,1.167 3.572,0.906" id="path-49"></path>
        <path d="M5.366,1.215 L9.925,3.696 C9.405,3.413 8.789,3.293 8.131,3.386 C6.272,3.647 4.763,5.484 4.759,7.49 C4.758,8.242 4.981,8.955 5.397,9.518 L0.838,7.039 C0.422,6.474 0.199,5.762 0.200986664,5.01 C0.204,3.004 1.714,1.167 3.572,0.906" id="path-51"></path>
        <path d="M5.366,1.215 L9.925,3.696 C9.405,3.413 8.789,3.293 8.131,3.386 C6.272,3.647 4.763,5.484 4.759,7.49 C4.758,8.242 4.981,8.955 5.397,9.518 L0.838,7.039 C0.422,6.474 0.199,5.762 0.200986664,5.01 C0.204,3.004 1.714,1.167 3.572,0.906" id="path-53"></path>
        <path d="M5.366,1.215 L9.925,3.696 C9.405,3.413 8.789,3.293 8.131,3.386 C6.272,3.647 4.763,5.484 4.759,7.49 C4.758,8.242 4.981,8.955 5.397,9.518 L0.838,7.039 C0.422,6.474 0.199,5.762 0.200986664,5.01 C0.204,3.004 1.714,1.167 3.572,0.906" id="path-55"></path>
        <path d="M5.366,1.215 L9.925,3.696 C9.405,3.413 8.789,3.293 8.131,3.386 C6.272,3.647 4.763,5.484 4.759,7.49 C4.758,8.242 4.981,8.955 5.397,9.518 L0.838,7.039 C0.422,6.474 0.199,5.762 0.200986664,5.01 C0.204,3.004 1.714,1.167 3.572,0.906" id="path-57"></path>
        <path d="M5.366,1.215 L9.925,3.696 C9.405,3.413 8.789,3.293 8.131,3.386 C6.272,3.647 4.763,5.484 4.759,7.49 C4.758,8.242 4.981,8.955 5.397,9.518 L0.838,7.039 C0.422,6.474 0.199,5.762 0.200986664,5.01 C0.204,3.004 1.714,1.167 3.572,0.906" id="path-59"></path>
        <path d="M5.366,1.215 L9.925,3.696 C9.405,3.413 8.789,3.293 8.131,3.386 C6.272,3.647 4.763,5.484 4.759,7.49 C4.758,8.242 4.981,8.955 5.397,9.518 L0.838,7.039 C0.422,6.474 0.199,5.762 0.200986664,5.01 C0.204,3.004 1.714,1.167 3.572,0.906" id="path-61"></path>
        <path d="M5.366,1.215 L9.925,3.696 C9.405,3.413 8.789,3.293 8.131,3.386 C6.272,3.647 4.763,5.484 4.759,7.49 C4.758,8.242 4.981,8.955 5.397,9.518 L0.838,7.039 C0.422,6.474 0.199,5.762 0.200986664,5.01 C0.204,3.004 1.714,1.167 3.572,0.906" id="path-63"></path>
        <path d="M3.808,0.373 C4.074,0.421 4.322,0.509 4.547,0.631 L9.105,3.112 C8.881,2.989 8.633,2.901 8.366,2.852 C8.081,2.8 7.792,2.796 7.507,2.836 C6.536,2.972 5.615,3.618 5.056,4.605 C4.333,5.891 4.402,7.403 5.241,8.374 C5.445,8.612 5.681,8.802 5.939,8.943 L1.38,6.462 C1.122,6.322 0.886,6.132 0.682,5.894 C-0.157,4.922 -0.226,3.412 0.497,2.125 C1.056,1.138 1.978,0.493 2.948,0.356" id="path-65"></path>
        <path d="M3.808,0.373 C4.074,0.421 4.322,0.509 4.547,0.631 L9.105,3.112 C8.881,2.989 8.633,2.901 8.366,2.852 C8.081,2.8 7.792,2.796 7.507,2.836 C6.536,2.972 5.615,3.618 5.056,4.605 C4.333,5.891 4.402,7.403 5.241,8.374 C5.445,8.612 5.681,8.802 5.939,8.943 L1.38,6.462 C1.122,6.322 0.886,6.132 0.682,5.894 C-0.157,4.922 -0.226,3.412 0.497,2.125 C1.056,1.138 1.978,0.493 2.948,0.356" id="path-67"></path>
        <path d="M3.808,0.373 C4.074,0.421 4.322,0.509 4.547,0.631 L9.105,3.112 C8.881,2.989 8.633,2.901 8.366,2.852 C8.081,2.8 7.792,2.796 7.507,2.836 C6.536,2.972 5.615,3.618 5.056,4.605 C4.333,5.891 4.402,7.403 5.241,8.374 C5.445,8.612 5.681,8.802 5.939,8.943 L1.38,6.462 C1.122,6.322 0.886,6.132 0.682,5.894 C-0.157,4.922 -0.226,3.412 0.497,2.125 C1.056,1.138 1.978,0.493 2.948,0.356" id="path-69"></path>
        <path d="M3.808,0.373 C4.074,0.421 4.322,0.509 4.547,0.631 L9.105,3.112 C8.881,2.989 8.633,2.901 8.366,2.852 C8.081,2.8 7.792,2.796 7.507,2.836 C6.536,2.972 5.615,3.618 5.056,4.605 C4.333,5.891 4.402,7.403 5.241,8.374 C5.445,8.612 5.681,8.802 5.939,8.943 L1.38,6.462 C1.122,6.322 0.886,6.132 0.682,5.894 C-0.157,4.922 -0.226,3.412 0.497,2.125 C1.056,1.138 1.978,0.493 2.948,0.356" id="path-71"></path>
        <path d="M3.808,0.373 C4.074,0.421 4.322,0.509 4.547,0.631 L9.105,3.112 C8.881,2.989 8.633,2.901 8.366,2.852 C8.081,2.8 7.792,2.796 7.507,2.836 C6.536,2.972 5.615,3.618 5.056,4.605 C4.333,5.891 4.402,7.403 5.241,8.374 C5.445,8.612 5.681,8.802 5.939,8.943 L1.38,6.462 C1.122,6.322 0.886,6.132 0.682,5.894 C-0.157,4.922 -0.226,3.412 0.497,2.125 C1.056,1.138 1.978,0.493 2.948,0.356" id="path-73"></path>
        <path d="M3.808,0.373 C4.074,0.421 4.322,0.509 4.547,0.631 L9.105,3.112 C8.881,2.989 8.633,2.901 8.366,2.852 C8.081,2.8 7.792,2.796 7.507,2.836 C6.536,2.972 5.615,3.618 5.056,4.605 C4.333,5.891 4.402,7.403 5.241,8.374 C5.445,8.612 5.681,8.802 5.939,8.943 L1.38,6.462 C1.122,6.322 0.886,6.132 0.682,5.894 C-0.157,4.922 -0.226,3.412 0.497,2.125 C1.056,1.138 1.978,0.493 2.948,0.356" id="path-75"></path>
        <path d="M3.808,0.373 C4.074,0.421 4.322,0.509 4.547,0.631 L9.105,3.112 C8.881,2.989 8.633,2.901 8.366,2.852 C8.081,2.8 7.792,2.796 7.507,2.836 C6.536,2.972 5.615,3.618 5.056,4.605 C4.333,5.891 4.402,7.403 5.241,8.374 C5.445,8.612 5.681,8.802 5.939,8.943 L1.38,6.462 C1.122,6.322 0.886,6.132 0.682,5.894 C-0.157,4.922 -0.226,3.412 0.497,2.125 C1.056,1.138 1.978,0.493 2.948,0.356" id="path-77"></path>
        <path d="M3.808,0.373 C4.074,0.421 4.322,0.509 4.547,0.631 L9.105,3.112 C8.881,2.989 8.633,2.901 8.366,2.852 C8.081,2.8 7.792,2.796 7.507,2.836 C6.536,2.972 5.615,3.618 5.056,4.605 C4.333,5.891 4.402,7.403 5.241,8.374 C5.445,8.612 5.681,8.802 5.939,8.943 L1.38,6.462 C1.122,6.322 0.886,6.132 0.682,5.894 C-0.157,4.922 -0.226,3.412 0.497,2.125 C1.056,1.138 1.978,0.493 2.948,0.356" id="path-79"></path>
        <path d="M3.808,0.373 C4.074,0.421 4.322,0.509 4.547,0.631 L9.105,3.112 C8.881,2.989 8.633,2.901 8.366,2.852 C8.081,2.8 7.792,2.796 7.507,2.836 C6.536,2.972 5.615,3.618 5.056,4.605 C4.333,5.891 4.402,7.403 5.241,8.374 C5.445,8.612 5.681,8.802 5.939,8.943 L1.38,6.462 C1.122,6.322 0.886,6.132 0.682,5.894 C-0.157,4.922 -0.226,3.412 0.497,2.125 C1.056,1.138 1.978,0.493 2.948,0.356" id="path-81"></path>
        <path d="M3.808,0.373 C4.074,0.421 4.322,0.509 4.547,0.631 L9.105,3.112 C8.881,2.989 8.633,2.901 8.366,2.852 C8.081,2.8 7.792,2.796 7.507,2.836 C6.536,2.972 5.615,3.618 5.056,4.605 C4.333,5.891 4.402,7.403 5.241,8.374 C5.445,8.612 5.681,8.802 5.939,8.943 L1.38,6.462 C1.122,6.322 0.886,6.132 0.682,5.894 C-0.157,4.922 -0.226,3.412 0.497,2.125 C1.056,1.138 1.978,0.493 2.948,0.356" id="path-83"></path>
        <polygon id="path-85" points="0.558679278 0.355068361 28.1418051 0.355068361 28.1418051 24 0.558679278 24"></polygon>
    </defs>
    <g id="工作空间项目-开发中心-具体工作流" stroke="none" stroke-width="1" fill="none" fill-rule="evenodd">
        <g id="侧边栏icon" transform="translate(-33.000000, -551.000000)">
            <g id="mlss" transform="translate(31.000000, 546.000000)">
                <g id="编组-29">
                    <g id="编组-29备份-3">
                        <g id="编组-30">
                            <rect id="矩形备份-17" x="0" y="0" width="36" height="36"></rect>
                        </g>
                    </g>
                </g>
                <g id="编组" transform="translate(2.000000, 4.000000)">
                    <g transform="translate(24.000000, 10.124800)">
                        <g>
                            <mask id="mask-2" fill="white">
                                <use xlink:href="#path-1"></use>
                            </mask>
                            <g id="Clip-2"></g>
                            <path d="M5.1999,3.1968 L0.6409,0.7178 C0.9989,0.6668 1.3409,0.6878 1.6579,0.7688 L6.2169,3.2498 C5.8999,3.1678 5.5569,3.1468 5.1999,3.1968" id="Fill-1" fill="#98E3FF" mask="url(#mask-2)"></path>
                        </g>
                        <g>
                            <mask id="mask-4" fill="white">
                                <use xlink:href="#path-3"></use>
                            </mask>
                            <g id="Clip-4"></g>
                            <path d="M6.2165,3.2495 L1.6575,0.7695 C1.8205,0.8115 1.9765,0.8685 2.1245,0.9415 L6.6825,3.4215 C6.5345,3.3495 6.3795,3.2905 6.2165,3.2495" id="Fill-3" fill="#9BE4FF" mask="url(#mask-4)"></path>
                        </g>
                        <g>
                            <mask id="mask-6" fill="white">
                                <use xlink:href="#path-5"></use>
                            </mask>
                            <g id="Clip-6"></g>
                            <path d="M6.6828,3.4214 L2.1238,0.9424 C2.1548,0.9564 2.1838,0.9724 2.2138,0.9874 L6.7728,3.4684 C6.7428,3.4514 6.7128,3.4364 6.6828,3.4214" id="Fill-5" fill="#9EE5FF" mask="url(#mask-6)"></path>
                        </g>
                    </g>
                    <g transform="translate(23.000000, 10.124800)">
                        <mask id="mask-8" fill="white">
                            <use xlink:href="#path-7"></use>
                        </mask>
                        <g id="Clip-8"></g>
                        <path d="M5.551,3.3745 L0.992,0.8955 C1.2,0.8055 1.417,0.7485 1.641,0.7175 L6.2,3.1965 C5.975,3.2285 5.759,3.2845 5.551,3.3745" id="Fill-7" fill="#98E3FF" mask="url(#mask-8)"></path>
                    </g>
                    <g transform="translate(21.000000, 12.124800)">
                        <g>
                            <mask id="mask-10" fill="white">
                                <use xlink:href="#path-9"></use>
                            </mask>
                            <g id="Clip-10"></g>
                            <path d="M6.6149,7.2896 L2.0559,4.8096 C1.2319,4.3606 0.6849,3.4436 0.686894534,2.3126 C0.6879,1.9026 0.7659,1.4876 0.9119,1.0926 L5.4699,3.5716 C5.3249,3.9676 5.2469,4.3826 5.2459,4.7926 C5.2439,5.9236 5.7909,6.8416 6.6149,7.2896" id="Fill-9" fill="#AEE9FF" mask="url(#mask-10)"></path>
                        </g>
                        <g>
                            <mask id="mask-12" fill="white">
                                <use xlink:href="#path-11"></use>
                            </mask>
                            <g id="Clip-12"></g>
                            <path d="M5.4704,3.5718 L0.9114,1.0928 C0.9354,1.0298 0.9594,0.9678 0.9864,0.9058 L5.5454,3.3848 C5.5184,3.4468 5.4934,3.5098 5.4704,3.5718" id="Fill-11" fill="#ABE8FF" mask="url(#mask-12)"></path>
                        </g>
                    </g>
                    <polygon id="Fill-13" fill="#B1EAFF" points="26.5451 15.5101 21.9861 13.0311 18.5761 7.9771 23.1341 10.4571"></polygon>
                    <g transform="translate(9.000000, 21.124800)">
                        <g>
                            <mask id="mask-14" fill="white">
                                <use xlink:href="#path-13"></use>
                            </mask>
                            <g id="Clip-16"></g>
                            <path d="M4.8996,3.0015 L0.3406,0.5225 L0.4036,0.5545 L4.9626,3.0335 C4.9416,3.0235 4.9206,3.0135 4.8996,3.0015" id="Fill-15" fill="#9EE5FF" mask="url(#mask-14)"></path>
                        </g>
                        <g>
                            <mask id="mask-16" fill="white">
                                <use xlink:href="#path-15"></use>
                            </mask>
                            <g id="Clip-18"></g>
                            <path d="M4.9626,3.0337 L0.4036,0.5547 C0.5076,0.6047 0.6166,0.6447 0.7306,0.6747 L5.2886,3.1547 C5.1756,3.1257 5.0666,3.0847 4.9626,3.0337" id="Fill-17" fill="#9BE4FF" mask="url(#mask-16)"></path>
                        </g>
                        <g>
                            <mask id="mask-18" fill="white">
                                <use xlink:href="#path-17"></use>
                            </mask>
                            <g id="Clip-20"></g>
                            <path d="M5.2888,3.1548 L0.7298,0.6748 C0.9518,0.7318 1.1898,0.7468 1.4378,0.7118 L5.9968,3.1908 C5.7478,3.2258 5.5098,3.2118 5.2888,3.1548" id="Fill-19" fill="#98E3FF" mask="url(#mask-18)"></path>
                        </g>
                    </g>
                    <g transform="translate(10.000000, 17.124800)">
                        <g>
                            <mask id="mask-20" fill="white">
                                <use xlink:href="#path-19"></use>
                            </mask>
                            <g id="Clip-22"></g>
                            <path d="M4.9968,7.1909 L0.4378,4.7119 C0.6478,4.6819 0.8498,4.6199 1.0398,4.5299 L5.5988,7.0099 C5.4088,7.0989 5.2058,7.1619 4.9968,7.1909" id="Fill-21" fill="#98E3FF" mask="url(#mask-20)"></path>
                        </g>
                        <g>
                            <mask id="mask-22" fill="white">
                                <use xlink:href="#path-21"></use>
                            </mask>
                            <g id="Clip-24"></g>
                            <path d="M5.5988,7.0103 L1.0398,4.5303 C1.1568,4.4753 1.2678,4.4103 1.3748,4.3373 L5.9328,6.8173 C5.8268,6.8913 5.7148,6.9553 5.5988,7.0103" id="Fill-23" fill="#9BE4FF" mask="url(#mask-22)"></path>
                        </g>
                        <g>
                            <mask id="mask-24" fill="white">
                                <use xlink:href="#path-23"></use>
                            </mask>
                            <g id="Clip-26"></g>
                            <path d="M5.9333,6.8169 L1.3743,4.3379 C1.4613,4.2769 1.5443,4.2119 1.6233,4.1399 L6.1823,6.6209 C6.1033,6.6909 6.0203,6.7569 5.9333,6.8169" id="Fill-25" fill="#9EE5FF" mask="url(#mask-24)"></path>
                        </g>
                        <g>
                            <mask id="mask-26" fill="white">
                                <use xlink:href="#path-25"></use>
                            </mask>
                            <g id="Clip-28"></g>
                            <path d="M6.1823,6.6206 L1.6233,4.1406 C1.6973,4.0736 1.7673,4.0036 1.8333,3.9286 L6.3913,6.4086 C6.3263,6.4826 6.2553,6.5546 6.1823,6.6206" id="Fill-27" fill="#A1E6FF" mask="url(#mask-26)"></path>
                        </g>
                        <g>
                            <mask id="mask-28" fill="white">
                                <use xlink:href="#path-27"></use>
                            </mask>
                            <g id="Clip-30"></g>
                            <path d="M6.3918,6.4087 L1.8328,3.9287 C1.8988,3.8537 1.9608,3.7757 2.0178,3.6937 L6.5778,6.1737 C6.5198,6.2557 6.4578,6.3337 6.3918,6.4087" id="Fill-29" fill="#A5E7FF" mask="url(#mask-28)"></path>
                        </g>
                        <g>
                            <mask id="mask-30" fill="white">
                                <use xlink:href="#path-29"></use>
                            </mask>
                            <g id="Clip-32"></g>
                            <path d="M6.5773,6.1733 L2.0183,3.6943 C2.0793,3.6073 2.1353,3.5163 2.1863,3.4213 L6.7443,5.9023 C6.6943,5.9953 6.6383,6.0863 6.5773,6.1733" id="Fill-31" fill="#A8E7FF" mask="url(#mask-30)"></path>
                        </g>
                        <g>
                            <mask id="mask-32" fill="white">
                                <use xlink:href="#path-31"></use>
                            </mask>
                            <g id="Clip-34"></g>
                            <path d="M6.7448,5.9019 L2.1858,3.4219 C2.2458,3.3099 2.2978,3.1949 2.3418,3.0759 L6.9008,5.5549 C6.8568,5.6739 6.8048,5.7909 6.7448,5.9019" id="Fill-33" fill="#ABE8FF" mask="url(#mask-32)"></path>
                        </g>
                        <g>
                            <mask id="mask-34" fill="white">
                                <use xlink:href="#path-33"></use>
                            </mask>
                            <g id="Clip-36"></g>
                            <path d="M6.9006,5.5552 L2.3416,3.0762 C2.4436,2.7982 2.5006,2.5022 2.5006,2.2002 C2.5026,1.4122 2.1196,0.7702 1.5426,0.4562 L6.1016,2.9362 C6.6786,3.2492 7.0606,3.8932 7.05960196,4.6802 C7.0586,4.9822 7.0026,5.2792 6.9006,5.5552" id="Fill-35" fill="#AEE9FF" mask="url(#mask-34)"></path>
                        </g>
                    </g>
                    <polygon id="Fill-37" fill="#A4E7FF" points="15.8752 17.096 11.3162 14.617 14.8382 7.163 19.3962 9.643"></polygon>
                    <g transform="translate(8.000000, 14.124800)">
                        <g>
                            <mask id="mask-36" fill="white">
                                <use xlink:href="#path-35"></use>
                            </mask>
                            <g id="Clip-40"></g>
                            <path d="M4.862,3.8696 L0.303,1.3906 C0.323,1.3756 0.343,1.3616 0.363,1.3486 L4.922,3.8276 C4.902,3.8416 4.882,3.8556 4.862,3.8696" id="Fill-39" fill="#9EE5FF" mask="url(#mask-36)"></path>
                        </g>
                        <g>
                            <mask id="mask-38" fill="white">
                                <use xlink:href="#path-37"></use>
                            </mask>
                            <g id="Clip-42"></g>
                            <path d="M4.9221,3.8276 L0.3631,1.3486 C0.6051,1.1806 0.8571,1.0356 1.1141,0.9146 L5.6721,3.3936 C5.4151,3.5156 5.1641,3.6606 4.9221,3.8276" id="Fill-41" fill="#9BE4FF" mask="url(#mask-38)"></path>
                        </g>
                        <g>
                            <mask id="mask-40" fill="white">
                                <use xlink:href="#path-39"></use>
                            </mask>
                            <g id="Clip-44"></g>
                            <path d="M5.6726,3.394 L1.1136,0.915 C1.5476,0.709 1.9976,0.573 2.4516,0.509 C2.7476,0.467 3.0356,0.461 3.3166,0.492 L7.8756,2.971 C7.5946,2.942 7.3066,2.948 7.0096,2.989 C6.5566,3.053 6.1056,3.19 5.6726,3.394" id="Fill-43" fill="#98E3FF" mask="url(#mask-40)"></path>
                        </g>
                    </g>
                    <g transform="translate(5.000000, 17.124800)">
                        <g>
                            <mask id="mask-42" fill="white">
                                <use xlink:href="#path-41"></use>
                            </mask>
                            <g id="Clip-46"></g>
                            <path d="M7.5363,9.5337 L2.9773,7.0547 C1.6853,6.3507 0.8253,4.9107 0.828292176,3.1377 C0.8293,2.4817 0.9483,1.8197 1.1803,1.1877 L5.7393,3.6677 C5.5063,4.3007 5.3883,4.9627 5.3873,5.6177 C5.3833,7.3907 6.2443,8.8307 7.5363,9.5337" id="Fill-45" fill="#AEE9FF" mask="url(#mask-42)"></path>
                        </g>
                        <g>
                            <mask id="mask-44" fill="white">
                                <use xlink:href="#path-43"></use>
                            </mask>
                            <g id="Clip-48"></g>
                            <path d="M5.739,3.6675 L1.18,1.1885 C1.258,0.9785 1.347,0.7715 1.449,0.5695 L6.008,3.0495 C5.906,3.2515 5.816,3.4575 5.739,3.6675" id="Fill-47" fill="#ABE8FF" mask="url(#mask-44)"></path>
                        </g>
                    </g>
                    <g transform="translate(14.000000, 0.124800)">
                        <g>
                            <mask id="mask-46" fill="white">
                                <use xlink:href="#path-45"></use>
                            </mask>
                            <g id="Clip-50"></g>
                            <path d="M5.3967,9.5181 L0.8377,7.0391 C0.4217,6.4741 0.1997,5.7621 0.200696636,5.0101 C0.2017,4.5161 0.2937,4.0331 0.4597,3.5811 L5.0187,6.0601 C4.8527,6.5121 4.7607,6.9971 4.7597,7.4901 C4.7577,8.2421 4.9807,8.9551 5.3967,9.5181" id="Fill-49" fill="#AEE9FF" mask="url(#mask-46)"></path>
                        </g>
                        <g>
                            <mask id="mask-48" fill="white">
                                <use xlink:href="#path-47"></use>
                            </mask>
                            <g id="Clip-52"></g>
                            <path d="M5.0188,6.0601 L0.4598,3.5811 C0.5318,3.3851 0.6168,3.1961 0.7148,3.0141 L5.2738,5.4951 C5.1758,5.6761 5.0908,5.8651 5.0188,6.0601" id="Fill-51" fill="#ABE8FF" mask="url(#mask-48)"></path>
                        </g>
                        <g>
                            <mask id="mask-50" fill="white">
                                <use xlink:href="#path-49"></use>
                            </mask>
                            <g id="Clip-54"></g>
                            <path d="M5.2736,5.4946 L0.7146,3.0146 C0.7976,2.8606 0.8896,2.7126 0.9886,2.5696 L5.5476,5.0496 C5.4476,5.1916 5.3566,5.3406 5.2736,5.4946" id="Fill-53" fill="#A8E7FF" mask="url(#mask-50)"></path>
                        </g>
                        <g>
                            <mask id="mask-52" fill="white">
                                <use xlink:href="#path-51"></use>
                            </mask>
                            <g id="Clip-56"></g>
                            <path d="M5.5476,5.0493 L0.9886,2.5703 C1.0826,2.4363 1.1836,2.3073 1.2916,2.1863 L5.8506,4.6653 C5.7426,4.7873 5.6416,4.9153 5.5476,5.0493" id="Fill-55" fill="#A5E7FF" mask="url(#mask-52)"></path>
                        </g>
                        <g>
                            <mask id="mask-54" fill="white">
                                <use xlink:href="#path-53"></use>
                            </mask>
                            <g id="Clip-58"></g>
                            <path d="M5.8503,4.6655 L1.2913,2.1865 C1.3993,2.0625 1.5143,1.9475 1.6353,1.8395 L6.1933,4.3185 C6.0733,4.4275 5.9583,4.5435 5.8503,4.6655" id="Fill-57" fill="#A1E6FF" mask="url(#mask-54)"></path>
                        </g>
                        <g>
                            <mask id="mask-56" fill="white">
                                <use xlink:href="#path-55"></use>
                            </mask>
                            <g id="Clip-60"></g>
                            <path d="M6.1936,4.3188 L1.6346,1.8398 C1.7636,1.7228 1.8996,1.6148 2.0416,1.5168 L6.6006,3.9968 C6.4586,4.0948 6.3226,4.2028 6.1936,4.3188" id="Fill-59" fill="#9EE5FF" mask="url(#mask-56)"></path>
                        </g>
                        <g>
                            <mask id="mask-58" fill="white">
                                <use xlink:href="#path-57"></use>
                            </mask>
                            <g id="Clip-62"></g>
                            <path d="M6.6003,3.9966 L2.0413,1.5176 C2.2153,1.3966 2.3983,1.2916 2.5883,1.2016 L7.1463,3.6826 C6.9563,3.7706 6.7743,3.8766 6.6003,3.9966" id="Fill-61" fill="#9BE4FF" mask="url(#mask-58)"></path>
                        </g>
                        <g>
                            <mask id="mask-60" fill="white">
                                <use xlink:href="#path-59"></use>
                            </mask>
                            <g id="Clip-64"></g>
                            <path d="M7.1467,3.6821 L2.5877,1.2021 C2.8987,1.0561 3.2297,0.9541 3.5717,0.9061 C3.9787,0.8491 4.3697,0.8721 4.7307,0.9651 L9.2897,3.4461 C8.9277,3.3521 8.5377,3.3281 8.1307,3.3861 C7.7887,3.4341 7.4587,3.5361 7.1467,3.6821" id="Fill-63" fill="#98E3FF" mask="url(#mask-60)"></path>
                        </g>
                        <g>
                            <mask id="mask-62" fill="white">
                                <use xlink:href="#path-61"></use>
                            </mask>
                            <g id="Clip-66"></g>
                            <path d="M9.2893,3.4458 L4.7303,0.9658 C4.9163,1.0128 5.0943,1.0798 5.2633,1.1628 L9.8223,3.6418 C9.6533,3.5588 9.4753,3.4938 9.2893,3.4458" id="Fill-65" fill="#9BE4FF" mask="url(#mask-62)"></path>
                        </g>
                        <g>
                            <mask id="mask-64" fill="white">
                                <use xlink:href="#path-63"></use>
                            </mask>
                            <g id="Clip-68"></g>
                            <path d="M9.822,3.6421 L5.263,1.1631 C5.298,1.1791 5.332,1.1971 5.366,1.2151 L9.925,3.6961 C9.891,3.6771 9.857,3.6601 9.822,3.6421" id="Fill-67" fill="#9EE5FF" mask="url(#mask-64)"></path>
                        </g>
                    </g>
                    <polygon id="Fill-69" fill="#B1EAFF" points="11.008 20.1741 6.449 17.6951 3.78 14.6041 8.339 17.0831"></polygon>
                    <g transform="translate(0.000000, 8.124800)">
                        <g>
                            <mask id="mask-66" fill="white">
                                <use xlink:href="#path-65"></use>
                            </mask>
                            <g id="Clip-72"></g>
                            <path d="M5.9387,8.9429 L1.3797,6.4629 C1.1217,6.3219 0.8857,6.1319 0.6827,5.8939 C-0.0333,5.0649 -0.1893,3.8429 0.2297,2.7049 L4.7887,5.1839 C4.3697,6.3239 4.5247,7.5459 5.2407,8.3739 C5.4447,8.6119 5.6807,8.8019 5.9387,8.9429" id="Fill-71" fill="#AEE9FF" mask="url(#mask-66)"></path>
                        </g>
                        <g>
                            <mask id="mask-68" fill="white">
                                <use xlink:href="#path-67"></use>
                            </mask>
                            <g id="Clip-74"></g>
                            <path d="M4.7883,5.1841 L0.2293,2.7051 C0.2933,2.5321 0.3703,2.3611 0.4593,2.1941 L5.0183,4.6731 C4.9283,4.8401 4.8513,5.0111 4.7883,5.1841" id="Fill-73" fill="#ABE8FF" mask="url(#mask-68)"></path>
                        </g>
                        <g>
                            <mask id="mask-70" fill="white">
                                <use xlink:href="#path-69"></use>
                            </mask>
                            <g id="Clip-76"></g>
                            <path d="M5.0183,4.6733 L0.4593,2.1943 C0.4723,2.1703 0.4843,2.1483 0.4973,2.1253 C0.5603,2.0143 0.6283,1.9063 0.7003,1.8043 L5.2583,4.2843 C5.1863,4.3873 5.1193,4.4933 5.0563,4.6053 C5.0433,4.6283 5.0303,4.6513 5.0183,4.6733" id="Fill-75" fill="#A8E7FF" mask="url(#mask-70)"></path>
                        </g>
                        <g>
                            <mask id="mask-72" fill="white">
                                <use xlink:href="#path-71"></use>
                            </mask>
                            <g id="Clip-78"></g>
                            <path d="M5.2585,4.2847 L0.6995,1.8047 C0.7825,1.6857 0.8705,1.5747 0.9645,1.4697 L5.5225,3.9487 C5.4295,4.0547 5.3415,4.1667 5.2585,4.2847" id="Fill-77" fill="#A5E7FF" mask="url(#mask-72)"></path>
                        </g>
                        <g>
                            <mask id="mask-74" fill="white">
                                <use xlink:href="#path-73"></use>
                            </mask>
                            <g id="Clip-80"></g>
                            <path d="M5.5227,3.9487 L0.9637,1.4697 C1.0587,1.3617 1.1577,1.2617 1.2617,1.1687 L5.8197,3.6487 C5.7167,3.7417 5.6167,3.8427 5.5227,3.9487" id="Fill-79" fill="#A1E6FF" mask="url(#mask-74)"></path>
                        </g>
                        <g>
                            <mask id="mask-76" fill="white">
                                <use xlink:href="#path-75"></use>
                            </mask>
                            <g id="Clip-82"></g>
                            <path d="M5.82,3.6489 L1.261,1.1689 C1.374,1.0669 1.492,0.9739 1.615,0.8889 L6.174,3.3689 C6.051,3.4539 5.933,3.5469 5.82,3.6489" id="Fill-81" fill="#9EE5FF" mask="url(#mask-76)"></path>
                        </g>
                        <g>
                            <mask id="mask-78" fill="white">
                                <use xlink:href="#path-77"></use>
                            </mask>
                            <g id="Clip-84"></g>
                            <path d="M6.1735,3.3687 L1.6145,0.8897 C1.7665,0.7837 1.9245,0.6927 2.0875,0.6157 L6.6455,3.0967 C6.4835,3.1727 6.3245,3.2647 6.1735,3.3687" id="Fill-83" fill="#9BE4FF" mask="url(#mask-78)"></path>
                        </g>
                        <g>
                            <mask id="mask-80" fill="white">
                                <use xlink:href="#path-79"></use>
                            </mask>
                            <g id="Clip-86"></g>
                            <path d="M6.6457,3.0962 L2.0867,0.6162 C2.3637,0.4862 2.6537,0.3982 2.9477,0.3562 C3.2327,0.3162 3.5217,0.3202 3.8077,0.3722 C3.8697,0.3832 3.9307,0.3972 3.9917,0.4122 L8.5497,2.8932 C8.4897,2.8772 8.4287,2.8642 8.3667,2.8522 C8.0817,2.8002 7.7917,2.7962 7.5067,2.8362 C7.2117,2.8772 6.9227,2.9652 6.6457,3.0962" id="Fill-85" fill="#98E3FF" mask="url(#mask-80)"></path>
                        </g>
                        <g>
                            <mask id="mask-82" fill="white">
                                <use xlink:href="#path-81"></use>
                            </mask>
                            <g id="Clip-88"></g>
                            <path d="M8.55,2.8931 L3.991,0.4131 C4.155,0.4551 4.311,0.5131 4.458,0.5851 L9.017,3.0651 C8.87,2.9941 8.714,2.9351 8.55,2.8931" id="Fill-87" fill="#9BE4FF" mask="url(#mask-82)"></path>
                        </g>
                        <g>
                            <mask id="mask-84" fill="white">
                                <use xlink:href="#path-83"></use>
                            </mask>
                            <g id="Clip-90"></g>
                            <path d="M9.0168,3.0649 L4.4578,0.5859 C4.4878,0.5999 4.5168,0.6159 4.5468,0.6309 L9.1048,3.1119 C9.0768,3.0949 9.0468,3.0809 9.0168,3.0649" id="Fill-89" fill="#9EE5FF" mask="url(#mask-84)"></path>
                        </g>
                    </g>
                    <g transform="translate(4.000000, 3.124800)">
                        <mask id="mask-86" fill="white">
                            <use xlink:href="#path-85"></use>
                        </mask>
                        <g id="Clip-92"></g>
                        <path d="M10.9968,21.1909 C12.1338,21.0309 13.0568,19.9079 13.0598033,18.6799 C13.0618,17.4609 12.1428,16.5869 11.0048,16.7469 C9.8748,16.9059 8.9448,18.0399 8.94179677,19.2579 C8.9398,20.4859 9.8668,21.3499 10.9968,21.1909 M25.1998,10.1969 C26.8258,9.9679 28.1448,11.2099 28.1418051,12.9639 C28.1388,14.7189 26.8138,16.3319 25.1878,16.5599 C23.5618,16.7889 22.2428,15.5479 22.2468,13.7929 C22.2468,13.3169 22.3518,12.8359 22.5448,12.3849 L19.1348,7.3329 C18.8048,7.4919 18.4788,7.5989 18.1358,7.6469 C17.9538,7.6719 17.7668,7.6809 17.5728,7.6729 L14.1478,14.9049 C15.0908,15.7139 15.6248,16.9449 15.6228,18.3199 C15.6178,21.0689 13.5388,23.5999 10.9918,23.9579 C8.4528,24.3149 6.3818,22.3669 6.3868,19.6179 C6.3888,18.7449 6.5988,17.8589 7.0078,17.0489 L4.3388,13.9589 C4.0598,14.0869 3.7748,14.1709 3.4938,14.2109 C2.6388,14.3309 1.8118,14.0419 1.2408,13.3739 C0.4018,12.4029 0.3328,10.8909 1.0558,9.6049 C1.6148,8.6179 2.5368,7.9719 3.5068,7.8369 C3.7918,7.7959 4.0808,7.7999 4.3668,7.8519 C5.6228,8.0819 6.4618,9.1919 6.4598,10.6089 C6.4588,11.0069 6.3858,11.4229 6.2328,11.8249 L8.8618,14.8699 C9.5278,14.3959 10.2658,14.0929 11.0098,13.9889 C11.3068,13.9479 11.5948,13.9419 11.8748,13.9709 L15.3968,6.5179 C14.9808,5.9549 14.7578,5.2419 14.7598,4.4899 C14.7638,2.4839 16.2718,0.6469 18.1308,0.3859 C19.9808,0.1259 21.4918,1.5389 21.4878,3.5449 C21.4868,4.1239 21.3578,4.7119 21.1008,5.2669 L24.5508,10.3749 C24.7588,10.2849 24.9758,10.2279 25.1998,10.1969" id="Fill-91" fill="#77DAFF" mask="url(#mask-86)"></path>
                    </g>
                </g>
            </g>
        </g>
    </g>
</svg>