<?xml version="1.0" encoding="UTF-8"?>
<svg width="32px" height="33px" viewBox="0 0 32 33" version="1.1" xmlns="http://www.w3.org/2000/svg" xmlns:xlink="http://www.w3.org/1999/xlink">
    <!-- Generator: Sketch 64 (93537) - https://sketch.com -->
    <title>pyspark</title>
    <desc>Created with Sketch.</desc>
    <defs>
        <path d="M0.539,0.458 C0.784,0.508 0.989,0.597 1.151,0.717 L5.32,3.807 C5.158,3.687 4.953,3.599 4.709,3.548" id="path-1"></path>
        <path d="M0.539,0.458 C0.784,0.508 0.989,0.597 1.151,0.717 L5.32,3.807 C5.158,3.687 4.953,3.599 4.709,3.548" id="path-3"></path>
        <path d="M0.539,0.458 C0.784,0.508 0.989,0.597 1.151,0.717 L5.32,3.807 C5.158,3.687 4.953,3.599 4.709,3.548" id="path-5"></path>
        <path d="M0.802,0.976 L4.972,4.066 C4.942,4.16 4.891,4.237 4.824,4.305 L0.655,1.215" id="path-7"></path>
        <path d="M0.802,0.976 L4.972,4.066 C4.942,4.16 4.891,4.237 4.824,4.305 L0.655,1.215" id="path-9"></path>
        <path d="M0.802,0.976 L4.972,4.066 C4.942,4.16 4.891,4.237 4.824,4.305 L0.655,1.215" id="path-11"></path>
        <path d="M0.802,0.976 L4.972,4.066 C4.942,4.16 4.891,4.237 4.824,4.305 L0.655,1.215" id="path-13"></path>
        <path d="M0.802,0.976 L4.972,4.066 C4.942,4.16 4.891,4.237 4.824,4.305 L0.655,1.215" id="path-15"></path>
        <path d="M1.03,0.415 C1.203,0.415 1.373,0.429 1.539,0.458 L5.709,3.548 C5.542,3.519 5.372,3.505 5.199,3.505 C4.904,3.505 4.603,3.547 4.305,3.633 L0.136,0.543" id="path-17"></path>
        <path d="M1.03,0.415 C1.203,0.415 1.373,0.429 1.539,0.458 L5.709,3.548 C5.542,3.519 5.372,3.505 5.199,3.505 C4.904,3.505 4.603,3.547 4.305,3.633 L0.136,0.543" id="path-19"></path>
        <path d="M1.03,0.415 C1.203,0.415 1.373,0.429 1.539,0.458 L5.709,3.548 C5.542,3.519 5.372,3.505 5.199,3.505 C4.904,3.505 4.603,3.547 4.305,3.633 L0.136,0.543" id="path-21"></path>
        <path d="M5.655,0.215 L9.824,3.305 C8.158,5.068 6.499,6.832 4.825,8.587 C4.682,8.741 4.659,8.843 4.723,9.023 C5.469,11.163 6.145,12.952 6.724,14.681 L2.555,11.591 C1.976,9.862 1.3,8.073 0.553,5.933 C0.49,5.753 0.513,5.65 0.656,5.496" id="path-23"></path>
        <path d="M5.655,0.215 L9.824,3.305 C8.158,5.068 6.499,6.832 4.825,8.587 C4.682,8.741 4.659,8.843 4.723,9.023 C5.469,11.163 6.145,12.952 6.724,14.681 L2.555,11.591 C1.976,9.862 1.3,8.073 0.553,5.933 C0.49,5.753 0.513,5.65 0.656,5.496" id="path-25"></path>
        <path d="M5.655,0.215 L9.824,3.305 C8.158,5.068 6.499,6.832 4.825,8.587 C4.682,8.741 4.659,8.843 4.723,9.023 C5.469,11.163 6.145,12.952 6.724,14.681 L2.555,11.591 C1.976,9.862 1.3,8.073 0.553,5.933 C0.49,5.753 0.513,5.65 0.656,5.496" id="path-27"></path>
        <path d="M5.655,0.215 L9.824,3.305 C8.158,5.068 6.499,6.832 4.825,8.587 C4.682,8.741 4.659,8.843 4.723,9.023 C5.469,11.163 6.145,12.952 6.724,14.681 L2.555,11.591 C1.976,9.862 1.3,8.073 0.553,5.933 C0.49,5.753 0.513,5.65 0.656,5.496" id="path-29"></path>
        <path d="M5.655,0.215 L9.824,3.305 C8.158,5.068 6.499,6.832 4.825,8.587 C4.682,8.741 4.659,8.843 4.723,9.023 C5.469,11.163 6.145,12.952 6.724,14.681 L2.555,11.591 C1.976,9.862 1.3,8.073 0.553,5.933 C0.49,5.753 0.513,5.65 0.656,5.496" id="path-31"></path>
        <path d="M0.691,0.706 C0.738,0.706 0.789,0.719 0.848,0.742 C1.424,0.956 2.001,1.161 2.568,1.384 L6.738,4.474 C6.171,4.252 5.593,4.046 5.017,3.832 C4.958,3.809 4.907,3.796 4.86,3.796 C4.768,3.796 4.691,3.844 4.596,3.952 L0.427,0.862" id="path-33"></path>
        <path d="M0.691,0.706 C0.738,0.706 0.789,0.719 0.848,0.742 C1.424,0.956 2.001,1.161 2.568,1.384 L6.738,4.474 C6.171,4.252 5.593,4.046 5.017,3.832 C4.958,3.809 4.907,3.796 4.86,3.796 C4.768,3.796 4.691,3.844 4.596,3.952 L0.427,0.862" id="path-35"></path>
        <path d="M0.691,0.706 C0.738,0.706 0.789,0.719 0.848,0.742 C1.424,0.956 2.001,1.161 2.568,1.384 L6.738,4.474 C6.171,4.252 5.593,4.046 5.017,3.832 C4.958,3.809 4.907,3.796 4.86,3.796 C4.768,3.796 4.691,3.844 4.596,3.952 L0.427,0.862" id="path-37"></path>
        <path d="M0.691,0.706 C0.738,0.706 0.789,0.719 0.848,0.742 C1.424,0.956 2.001,1.161 2.568,1.384 L6.738,4.474 C6.171,4.252 5.593,4.046 5.017,3.832 C4.958,3.809 4.907,3.796 4.86,3.796 C4.768,3.796 4.691,3.844 4.596,3.952 L0.427,0.862" id="path-39"></path>
        <path d="M0.691,0.706 C0.738,0.706 0.789,0.719 0.848,0.742 C1.424,0.956 2.001,1.161 2.568,1.384 L6.738,4.474 C6.171,4.252 5.593,4.046 5.017,3.832 C4.958,3.809 4.907,3.796 4.86,3.796 C4.768,3.796 4.691,3.844 4.596,3.952 L0.427,0.862" id="path-41"></path>
        <path d="M0.691,0.706 C0.738,0.706 0.789,0.719 0.848,0.742 C1.424,0.956 2.001,1.161 2.568,1.384 L6.738,4.474 C6.171,4.252 5.593,4.046 5.017,3.832 C4.958,3.809 4.907,3.796 4.86,3.796 C4.768,3.796 4.691,3.844 4.596,3.952 L0.427,0.862" id="path-43"></path>
        <path d="M0.691,0.706 C0.738,0.706 0.789,0.719 0.848,0.742 C1.424,0.956 2.001,1.161 2.568,1.384 L6.738,4.474 C6.171,4.252 5.593,4.046 5.017,3.832 C4.958,3.809 4.907,3.796 4.86,3.796 C4.768,3.796 4.691,3.844 4.596,3.952 L0.427,0.862" id="path-45"></path>
        <path d="M0.691,0.706 C0.738,0.706 0.789,0.719 0.848,0.742 C1.424,0.956 2.001,1.161 2.568,1.384 L6.738,4.474 C6.171,4.252 5.593,4.046 5.017,3.832 C4.958,3.809 4.907,3.796 4.86,3.796 C4.768,3.796 4.691,3.844 4.596,3.952 L0.427,0.862" id="path-47"></path>
        <path d="M5.427,0.862 L9.596,3.952 C7.945,5.715 6.278,7.479 4.62,9.242 L0.451,6.151" id="path-49"></path>
        <path d="M0.869,0.628 L5.039,3.718 C5.065,3.776 5.092,3.82 5.128,3.846 L0.959,0.756" id="path-51"></path>
        <path d="M8.136,0.543 L12.305,3.633 C10.001,4.25 7.695,4.875 5.398,5.499 C5.34,5.516 5.291,5.525 5.249,5.525 C5.199,5.525 5.159,5.513 5.125,5.487 L0.956,2.397 C0.99,2.422 1.03,2.434 1.08,2.434 C1.122,2.434 1.17,2.425 1.229,2.409" id="path-53"></path>
        <path d="M8.136,0.543 L12.305,3.633 C10.001,4.25 7.695,4.875 5.398,5.499 C5.34,5.516 5.291,5.525 5.249,5.525 C5.199,5.525 5.159,5.513 5.125,5.487 L0.956,2.397 C0.99,2.422 1.03,2.434 1.08,2.434 C1.122,2.434 1.17,2.425 1.229,2.409" id="path-55"></path>
        <path d="M8.136,0.543 L12.305,3.633 C10.001,4.25 7.695,4.875 5.398,5.499 C5.34,5.516 5.291,5.525 5.249,5.525 C5.199,5.525 5.159,5.513 5.125,5.487 L0.956,2.397 C0.99,2.422 1.03,2.434 1.08,2.434 C1.122,2.434 1.17,2.425 1.229,2.409" id="path-57"></path>
        <path d="M8.136,0.543 L12.305,3.633 C10.001,4.25 7.695,4.875 5.398,5.499 C5.34,5.516 5.291,5.525 5.249,5.525 C5.199,5.525 5.159,5.513 5.125,5.487 L0.956,2.397 C0.99,2.422 1.03,2.434 1.08,2.434 C1.122,2.434 1.17,2.425 1.229,2.409" id="path-59"></path>
        <path d="M8.136,0.543 L12.305,3.633 C10.001,4.25 7.695,4.875 5.398,5.499 C5.34,5.516 5.291,5.525 5.249,5.525 C5.199,5.525 5.159,5.513 5.125,5.487 L0.956,2.397 C0.99,2.422 1.03,2.434 1.08,2.434 C1.122,2.434 1.17,2.425 1.229,2.409" id="path-61"></path>
        <path d="M0.568,0.705 C0.678,0.743 0.753,0.778 0.802,0.815 L4.971,3.905 C4.922,3.868 4.847,3.833 4.737,3.795" id="path-63"></path>
        <path d="M0.568,0.705 C0.678,0.743 0.753,0.778 0.802,0.815 L4.971,3.905 C4.922,3.868 4.847,3.833 4.737,3.795" id="path-65"></path>
        <path d="M0.568,0.705 C0.678,0.743 0.753,0.778 0.802,0.815 L4.971,3.905 C4.922,3.868 4.847,3.833 4.737,3.795" id="path-67"></path>
        <path d="M2.654,0.555 L6.823,3.645 C6.253,6.059 5.699,8.473 5.145,10.886 C5.024,11.392 4.987,11.879 5.082,12.35 C5.165,12.76 5.339,13.061 5.581,13.24 L1.412,10.15 C1.169,9.97 0.995,9.67 0.913,9.26 C0.818,8.789 0.855,8.301 0.976,7.796" id="path-69"></path>
        <path d="M0.676,0.466 L4.845,3.556 C5.579,5.277 6.313,6.997 7.039,8.718 L2.869,5.628" id="path-71"></path>
        <path d="M0.501,0.218 L4.67,3.308 C4.751,3.368 4.812,3.454 4.845,3.556 L0.676,0.466" id="path-73"></path>
        <path d="M0.479,0.437 C2.038,1.138 3.993,2.003 5.568,2.705 L9.737,5.795 C8.163,5.093 6.207,4.229 4.648,3.526" id="path-75"></path>
        <path d="M0.935,0.81 C1.289,0.815 1.606,0.919 1.879,1.122 L6.048,4.212 C5.775,4.009 5.459,3.905 5.104,3.9" id="path-77"></path>
        <path d="M0.935,0.81 C1.289,0.815 1.606,0.919 1.879,1.122 L6.048,4.212 C5.775,4.009 5.459,3.905 5.104,3.9" id="path-79"></path>
        <path d="M0.935,0.81 C1.289,0.815 1.606,0.919 1.879,1.122 L6.048,4.212 C5.775,4.009 5.459,3.905 5.104,3.9" id="path-81"></path>
        <path d="M0.935,0.81 C1.289,0.815 1.606,0.919 1.879,1.122 L6.048,4.212 C5.775,4.009 5.459,3.905 5.104,3.9" id="path-83"></path>
        <path d="M5.935,0.81 L10.104,3.9 C9.625,3.917 9.113,4.157 8.659,4.619 C8.403,4.884 8.175,5.175 7.978,5.483 C7.469,6.271 7.261,7.161 6.993,8.025 C6.486,9.652 5.98,11.27 5.483,12.887 C5.424,13.076 5.339,13.161 5.162,13.212 L0.993,10.123 C1.17,10.071 1.255,9.985 1.314,9.797 C1.812,8.179 2.317,6.562 2.824,4.936 C3.092,4.071 3.3,3.181 3.809,2.393 C4.006,2.085 4.233,1.794 4.49,1.529" id="path-85"></path>
        <path d="M5.935,0.81 L10.104,3.9 C9.625,3.917 9.113,4.157 8.659,4.619 C8.403,4.884 8.175,5.175 7.978,5.483 C7.469,6.271 7.261,7.161 6.993,8.025 C6.486,9.652 5.98,11.27 5.483,12.887 C5.424,13.076 5.339,13.161 5.162,13.212 L0.993,10.123 C1.17,10.071 1.255,9.985 1.314,9.797 C1.812,8.179 2.317,6.562 2.824,4.936 C3.092,4.071 3.3,3.181 3.809,2.393 C4.006,2.085 4.233,1.794 4.49,1.529" id="path-87"></path>
        <path d="M5.935,0.81 L10.104,3.9 C9.625,3.917 9.113,4.157 8.659,4.619 C8.403,4.884 8.175,5.175 7.978,5.483 C7.469,6.271 7.261,7.161 6.993,8.025 C6.486,9.652 5.98,11.27 5.483,12.887 C5.424,13.076 5.339,13.161 5.162,13.212 L0.993,10.123 C1.17,10.071 1.255,9.985 1.314,9.797 C1.812,8.179 2.317,6.562 2.824,4.936 C3.092,4.071 3.3,3.181 3.809,2.393 C4.006,2.085 4.233,1.794 4.49,1.529" id="path-89"></path>
        <path d="M5.935,0.81 L10.104,3.9 C9.625,3.917 9.113,4.157 8.659,4.619 C8.403,4.884 8.175,5.175 7.978,5.483 C7.469,6.271 7.261,7.161 6.993,8.025 C6.486,9.652 5.98,11.27 5.483,12.887 C5.424,13.076 5.339,13.161 5.162,13.212 L0.993,10.123 C1.17,10.071 1.255,9.985 1.314,9.797 C1.812,8.179 2.317,6.562 2.824,4.936 C3.092,4.071 3.3,3.181 3.809,2.393 C4.006,2.085 4.233,1.794 4.49,1.529" id="path-91"></path>
        <path d="M5.935,0.81 L10.104,3.9 C9.625,3.917 9.113,4.157 8.659,4.619 C8.403,4.884 8.175,5.175 7.978,5.483 C7.469,6.271 7.261,7.161 6.993,8.025 C6.486,9.652 5.98,11.27 5.483,12.887 C5.424,13.076 5.339,13.161 5.162,13.212 L0.993,10.123 C1.17,10.071 1.255,9.985 1.314,9.797 C1.812,8.179 2.317,6.562 2.824,4.936 C3.092,4.071 3.3,3.181 3.809,2.393 C4.006,2.085 4.233,1.794 4.49,1.529" id="path-93"></path>
        <path d="M5.935,0.81 L10.104,3.9 C9.625,3.917 9.113,4.157 8.659,4.619 C8.403,4.884 8.175,5.175 7.978,5.483 C7.469,6.271 7.261,7.161 6.993,8.025 C6.486,9.652 5.98,11.27 5.483,12.887 C5.424,13.076 5.339,13.161 5.162,13.212 L0.993,10.123 C1.17,10.071 1.255,9.985 1.314,9.797 C1.812,8.179 2.317,6.562 2.824,4.936 C3.092,4.071 3.3,3.181 3.809,2.393 C4.006,2.085 4.233,1.794 4.49,1.529" id="path-95"></path>
        <path d="M5.935,0.81 L10.104,3.9 C9.625,3.917 9.113,4.157 8.659,4.619 C8.403,4.884 8.175,5.175 7.978,5.483 C7.469,6.271 7.261,7.161 6.993,8.025 C6.486,9.652 5.98,11.27 5.483,12.887 C5.424,13.076 5.339,13.161 5.162,13.212 L0.993,10.123 C1.17,10.071 1.255,9.985 1.314,9.797 C1.812,8.179 2.317,6.562 2.824,4.936 C3.092,4.071 3.3,3.181 3.809,2.393 C4.006,2.085 4.233,1.794 4.49,1.529" id="path-97"></path>
        <path d="M5.935,0.81 L10.104,3.9 C9.625,3.917 9.113,4.157 8.659,4.619 C8.403,4.884 8.175,5.175 7.978,5.483 C7.469,6.271 7.261,7.161 6.993,8.025 C6.486,9.652 5.98,11.27 5.483,12.887 C5.424,13.076 5.339,13.161 5.162,13.212 L0.993,10.123 C1.17,10.071 1.255,9.985 1.314,9.797 C1.812,8.179 2.317,6.562 2.824,4.936 C3.092,4.071 3.3,3.181 3.809,2.393 C4.006,2.085 4.233,1.794 4.49,1.529" id="path-99"></path>
        <path d="M5.935,0.81 L10.104,3.9 C9.625,3.917 9.113,4.157 8.659,4.619 C8.403,4.884 8.175,5.175 7.978,5.483 C7.469,6.271 7.261,7.161 6.993,8.025 C6.486,9.652 5.98,11.27 5.483,12.887 C5.424,13.076 5.339,13.161 5.162,13.212 L0.993,10.123 C1.17,10.071 1.255,9.985 1.314,9.797 C1.812,8.179 2.317,6.562 2.824,4.936 C3.092,4.071 3.3,3.181 3.809,2.393 C4.006,2.085 4.233,1.794 4.49,1.529" id="path-101"></path>
        <path d="M5.935,0.81 L10.104,3.9 C9.625,3.917 9.113,4.157 8.659,4.619 C8.403,4.884 8.175,5.175 7.978,5.483 C7.469,6.271 7.261,7.161 6.993,8.025 C6.486,9.652 5.98,11.27 5.483,12.887 C5.424,13.076 5.339,13.161 5.162,13.212 L0.993,10.123 C1.17,10.071 1.255,9.985 1.314,9.797 C1.812,8.179 2.317,6.562 2.824,4.936 C3.092,4.071 3.3,3.181 3.809,2.393 C4.006,2.085 4.233,1.794 4.49,1.529" id="path-103"></path>
        <path d="M5.935,0.81 L10.104,3.9 C9.625,3.917 9.113,4.157 8.659,4.619 C8.403,4.884 8.175,5.175 7.978,5.483 C7.469,6.271 7.261,7.161 6.993,8.025 C6.486,9.652 5.98,11.27 5.483,12.887 C5.424,13.076 5.339,13.161 5.162,13.212 L0.993,10.123 C1.17,10.071 1.255,9.985 1.314,9.797 C1.812,8.179 2.317,6.562 2.824,4.936 C3.092,4.071 3.3,3.181 3.809,2.393 C4.006,2.085 4.233,1.794 4.49,1.529" id="path-105"></path>
        <path d="M5.935,0.81 L10.104,3.9 C9.625,3.917 9.113,4.157 8.659,4.619 C8.403,4.884 8.175,5.175 7.978,5.483 C7.469,6.271 7.261,7.161 6.993,8.025 C6.486,9.652 5.98,11.27 5.483,12.887 C5.424,13.076 5.339,13.161 5.162,13.212 L0.993,10.123 C1.17,10.071 1.255,9.985 1.314,9.797 C1.812,8.179 2.317,6.562 2.824,4.936 C3.092,4.071 3.3,3.181 3.809,2.393 C4.006,2.085 4.233,1.794 4.49,1.529" id="path-107"></path>
        <path d="M5.935,0.81 L10.104,3.9 C9.625,3.917 9.113,4.157 8.659,4.619 C8.403,4.884 8.175,5.175 7.978,5.483 C7.469,6.271 7.261,7.161 6.993,8.025 C6.486,9.652 5.98,11.27 5.483,12.887 C5.424,13.076 5.339,13.161 5.162,13.212 L0.993,10.123 C1.17,10.071 1.255,9.985 1.314,9.797 C1.812,8.179 2.317,6.562 2.824,4.936 C3.092,4.071 3.3,3.181 3.809,2.393 C4.006,2.085 4.233,1.794 4.49,1.529" id="path-109"></path>
        <path d="M5.935,0.81 L10.104,3.9 C9.625,3.917 9.113,4.157 8.659,4.619 C8.403,4.884 8.175,5.175 7.978,5.483 C7.469,6.271 7.261,7.161 6.993,8.025 C6.486,9.652 5.98,11.27 5.483,12.887 C5.424,13.076 5.339,13.161 5.162,13.212 L0.993,10.123 C1.17,10.071 1.255,9.985 1.314,9.797 C1.812,8.179 2.317,6.562 2.824,4.936 C3.092,4.071 3.3,3.181 3.809,2.393 C4.006,2.085 4.233,1.794 4.49,1.529" id="path-111"></path>
        <path d="M5.935,0.81 L10.104,3.9 C9.625,3.917 9.113,4.157 8.659,4.619 C8.403,4.884 8.175,5.175 7.978,5.483 C7.469,6.271 7.261,7.161 6.993,8.025 C6.486,9.652 5.98,11.27 5.483,12.887 C5.424,13.076 5.339,13.161 5.162,13.212 L0.993,10.123 C1.17,10.071 1.255,9.985 1.314,9.797 C1.812,8.179 2.317,6.562 2.824,4.936 C3.092,4.071 3.3,3.181 3.809,2.393 C4.006,2.085 4.233,1.794 4.49,1.529" id="path-113"></path>
        <path d="M5.935,0.81 L10.104,3.9 C9.625,3.917 9.113,4.157 8.659,4.619 C8.403,4.884 8.175,5.175 7.978,5.483 C7.469,6.271 7.261,7.161 6.993,8.025 C6.486,9.652 5.98,11.27 5.483,12.887 C5.424,13.076 5.339,13.161 5.162,13.212 L0.993,10.123 C1.17,10.071 1.255,9.985 1.314,9.797 C1.812,8.179 2.317,6.562 2.824,4.936 C3.092,4.071 3.3,3.181 3.809,2.393 C4.006,2.085 4.233,1.794 4.49,1.529" id="path-115"></path>
        <path d="M5.935,0.81 L10.104,3.9 C9.625,3.917 9.113,4.157 8.659,4.619 C8.403,4.884 8.175,5.175 7.978,5.483 C7.469,6.271 7.261,7.161 6.993,8.025 C6.486,9.652 5.98,11.27 5.483,12.887 C5.424,13.076 5.339,13.161 5.162,13.212 L0.993,10.123 C1.17,10.071 1.255,9.985 1.314,9.797 C1.812,8.179 2.317,6.562 2.824,4.936 C3.092,4.071 3.3,3.181 3.809,2.393 C4.006,2.085 4.233,1.794 4.49,1.529" id="path-117"></path>
        <path d="M5.935,0.81 L10.104,3.9 C9.625,3.917 9.113,4.157 8.659,4.619 C8.403,4.884 8.175,5.175 7.978,5.483 C7.469,6.271 7.261,7.161 6.993,8.025 C6.486,9.652 5.98,11.27 5.483,12.887 C5.424,13.076 5.339,13.161 5.162,13.212 L0.993,10.123 C1.17,10.071 1.255,9.985 1.314,9.797 C1.812,8.179 2.317,6.562 2.824,4.936 C3.092,4.071 3.3,3.181 3.809,2.393 C4.006,2.085 4.233,1.794 4.49,1.529" id="path-119"></path>
        <path d="M8.993,0.123 L13.162,3.212 C11.086,3.872 9.002,4.531 6.931,5.215 C6.465,5.361 6.017,5.558 5.592,5.815 C4.307,6.602 3.952,7.903 4.663,9.042 C4.859,9.348 5.106,9.599 5.389,9.809 L1.22,6.719 C0.937,6.509 0.69,6.258 0.494,5.951 C-0.218,4.813 0.138,3.512 1.423,2.725 C1.848,2.468 2.296,2.271 2.762,2.126" id="path-121"></path>
        <path d="M8.993,0.123 L13.162,3.212 C11.086,3.872 9.002,4.531 6.931,5.215 C6.465,5.361 6.017,5.558 5.592,5.815 C4.307,6.602 3.952,7.903 4.663,9.042 C4.859,9.348 5.106,9.599 5.389,9.809 L1.22,6.719 C0.937,6.509 0.69,6.258 0.494,5.951 C-0.218,4.813 0.138,3.512 1.423,2.725 C1.848,2.468 2.296,2.271 2.762,2.126" id="path-123"></path>
        <path d="M8.993,0.123 L13.162,3.212 C11.086,3.872 9.002,4.531 6.931,5.215 C6.465,5.361 6.017,5.558 5.592,5.815 C4.307,6.602 3.952,7.903 4.663,9.042 C4.859,9.348 5.106,9.599 5.389,9.809 L1.22,6.719 C0.937,6.509 0.69,6.258 0.494,5.951 C-0.218,4.813 0.138,3.512 1.423,2.725 C1.848,2.468 2.296,2.271 2.762,2.126" id="path-125"></path>
        <path d="M8.993,0.123 L13.162,3.212 C11.086,3.872 9.002,4.531 6.931,5.215 C6.465,5.361 6.017,5.558 5.592,5.815 C4.307,6.602 3.952,7.903 4.663,9.042 C4.859,9.348 5.106,9.599 5.389,9.809 L1.22,6.719 C0.937,6.509 0.69,6.258 0.494,5.951 C-0.218,4.813 0.138,3.512 1.423,2.725 C1.848,2.468 2.296,2.271 2.762,2.126" id="path-127"></path>
        <path d="M8.993,0.123 L13.162,3.212 C11.086,3.872 9.002,4.531 6.931,5.215 C6.465,5.361 6.017,5.558 5.592,5.815 C4.307,6.602 3.952,7.903 4.663,9.042 C4.859,9.348 5.106,9.599 5.389,9.809 L1.22,6.719 C0.937,6.509 0.69,6.258 0.494,5.951 C-0.218,4.813 0.138,3.512 1.423,2.725 C1.848,2.468 2.296,2.271 2.762,2.126" id="path-129"></path>
        <path d="M8.993,0.123 L13.162,3.212 C11.086,3.872 9.002,4.531 6.931,5.215 C6.465,5.361 6.017,5.558 5.592,5.815 C4.307,6.602 3.952,7.903 4.663,9.042 C4.859,9.348 5.106,9.599 5.389,9.809 L1.22,6.719 C0.937,6.509 0.69,6.258 0.494,5.951 C-0.218,4.813 0.138,3.512 1.423,2.725 C1.848,2.468 2.296,2.271 2.762,2.126" id="path-131"></path>
        <path d="M8.993,0.123 L13.162,3.212 C11.086,3.872 9.002,4.531 6.931,5.215 C6.465,5.361 6.017,5.558 5.592,5.815 C4.307,6.602 3.952,7.903 4.663,9.042 C4.859,9.348 5.106,9.599 5.389,9.809 L1.22,6.719 C0.937,6.509 0.69,6.258 0.494,5.951 C-0.218,4.813 0.138,3.512 1.423,2.725 C1.848,2.468 2.296,2.271 2.762,2.126" id="path-133"></path>
        <path d="M8.993,0.123 L13.162,3.212 C11.086,3.872 9.002,4.531 6.931,5.215 C6.465,5.361 6.017,5.558 5.592,5.815 C4.307,6.602 3.952,7.903 4.663,9.042 C4.859,9.348 5.106,9.599 5.389,9.809 L1.22,6.719 C0.937,6.509 0.69,6.258 0.494,5.951 C-0.218,4.813 0.138,3.512 1.423,2.725 C1.848,2.468 2.296,2.271 2.762,2.126" id="path-135"></path>
        <path d="M8.993,0.123 L13.162,3.212 C11.086,3.872 9.002,4.531 6.931,5.215 C6.465,5.361 6.017,5.558 5.592,5.815 C4.307,6.602 3.952,7.903 4.663,9.042 C4.859,9.348 5.106,9.599 5.389,9.809 L1.22,6.719 C0.937,6.509 0.69,6.258 0.494,5.951 C-0.218,4.813 0.138,3.512 1.423,2.725 C1.848,2.468 2.296,2.271 2.762,2.126" id="path-137"></path>
    </defs>
    <g id="工作空间项目-开发中心-具体工作流" stroke="none" stroke-width="1" fill="none" fill-rule="evenodd">
        <g id="侧边栏icon" transform="translate(-184.000000, -119.000000)">
            <g id="pyspark" transform="translate(182.000000, 117.000000)">
                <g id="编组-33">
                    <g id="编组-25">
                        <rect id="矩形备份-13" x="0" y="0" width="36" height="36"></rect>
                    </g>
                </g>
                <g id="编组" transform="translate(2.000000, 2.000000)">
                    <g transform="translate(26.000000, 5.000000)">
                        <g>
                            <mask id="mask-2" fill="white">
                                <use xlink:href="#path-1"></use>
                            </mask>
                            <g id="Clip-150"></g>
                            <path d="M4.7085,3.5479 L0.5395,0.4579 C0.6455,0.4799 0.7445,0.5089 0.8355,0.5449 L5.0045,3.6349 C4.9135,3.5989 4.8145,3.5699 4.7085,3.5479" id="Fill-149" fill="#9992F8" mask="url(#mask-2)"></path>
                        </g>
                        <g>
                            <mask id="mask-4" fill="white">
                                <use xlink:href="#path-3"></use>
                            </mask>
                            <g id="Clip-152"></g>
                            <path d="M5.0044,3.6349 L0.8354,0.5449 C0.9104,0.5739 0.9814,0.6089 1.0454,0.6469 L5.2144,3.7369 C5.1504,3.6989 5.0804,3.6649 5.0044,3.6349" id="Fill-151" fill="#9C95F8" mask="url(#mask-4)"></path>
                        </g>
                        <g>
                            <mask id="mask-6" fill="white">
                                <use xlink:href="#path-5"></use>
                            </mask>
                            <g id="Clip-154"></g>
                            <path d="M5.2149,3.7369 L1.0459,0.6469 C1.0829,0.6689 1.1179,0.6929 1.1509,0.7169 L5.3199,3.8069 C5.2869,3.7819 5.2519,3.7589 5.2149,3.7369" id="Fill-153" fill="#9F99F9" mask="url(#mask-6)"></path>
                        </g>
                    </g>
                    <polygon id="Fill-155" fill="#968FF8" points="19.7378 22.4742 15.5688 19.3842 19.5548 20.5912 23.7238 23.6812"></polygon>
                    <g transform="translate(22.000000, 8.000000)">
                        <g>
                            <mask id="mask-8" fill="white">
                                <use xlink:href="#path-7"></use>
                            </mask>
                            <g id="Clip-158"></g>
                            <path d="M4.8242,4.3053 L0.6552,1.2153 C0.6612,1.2093 0.6672,1.2023 0.6722,1.1963 L4.8422,4.2863 C4.8362,4.2933 4.8302,4.2993 4.8242,4.3053" id="Fill-157" fill="#A59FF9" mask="url(#mask-8)"></path>
                        </g>
                        <g>
                            <mask id="mask-10" fill="white">
                                <use xlink:href="#path-9"></use>
                            </mask>
                            <g id="Clip-160"></g>
                            <path d="M4.8418,4.2867 L0.6728,1.1967 C0.6878,1.1807 0.7018,1.1627 0.7148,1.1457 L4.8838,4.2357 C4.8708,4.2537 4.8568,4.2697 4.8418,4.2867" id="Fill-159" fill="#A8A2F9" mask="url(#mask-10)"></path>
                        </g>
                        <g>
                            <mask id="mask-12" fill="white">
                                <use xlink:href="#path-11"></use>
                            </mask>
                            <g id="Clip-162"></g>
                            <path d="M4.8838,4.2359 L0.7148,1.1459 C0.7268,1.1289 0.7388,1.1109 0.7498,1.0929 L4.9188,4.1839 C4.9078,4.2019 4.8968,4.2189 4.8838,4.2359" id="Fill-161" fill="#ABA5F9" mask="url(#mask-12)"></path>
                        </g>
                        <g>
                            <mask id="mask-14" fill="white">
                                <use xlink:href="#path-13"></use>
                            </mask>
                            <g id="Clip-164"></g>
                            <path d="M4.919,4.1837 L0.75,1.0937 C0.762,1.0727 0.773,1.0517 0.782,1.0297 L4.952,4.1197 C4.942,4.1417 4.931,4.1627 4.919,4.1837" id="Fill-163" fill="#AEA9FA" mask="url(#mask-14)"></path>
                        </g>
                        <g>
                            <mask id="mask-16" fill="white">
                                <use xlink:href="#path-15"></use>
                            </mask>
                            <g id="Clip-166"></g>
                            <path d="M4.9517,4.1197 L0.7827,1.0297 C0.7897,1.0127 0.7967,0.9947 0.8027,0.9757 L4.9717,4.0657 C4.9657,4.0847 4.9587,4.1027 4.9517,4.1197" id="Fill-165" fill="#B1ACFA" mask="url(#mask-16)"></path>
                        </g>
                    </g>
                    <g transform="translate(25.000000, 5.000000)">
                        <g>
                            <mask id="mask-18" fill="white">
                                <use xlink:href="#path-17"></use>
                            </mask>
                            <g id="Clip-168"></g>
                            <path d="M4.3047,3.6334 L0.1357,0.5434 C0.2167,0.5194 0.2977,0.4994 0.3787,0.4824 L4.5477,3.5724 C4.4667,3.5904 4.3857,3.6104 4.3047,3.6334" id="Fill-167" fill="#9992F8" mask="url(#mask-18)"></path>
                        </g>
                        <g>
                            <mask id="mask-20" fill="white">
                                <use xlink:href="#path-19"></use>
                            </mask>
                            <g id="Clip-170"></g>
                            <path d="M4.5479,3.5728 L0.3789,0.4828 C0.5969,0.4368 0.8149,0.4148 1.0299,0.4148 C1.1709,0.4148 1.3099,0.4248 1.4469,0.4428 L5.6159,3.5328 C5.4789,3.5138 5.3399,3.5048 5.1989,3.5048 C4.9839,3.5048 4.7659,3.5278 4.5479,3.5728" id="Fill-169" fill="#968FF8" mask="url(#mask-20)"></path>
                        </g>
                        <g>
                            <mask id="mask-22" fill="white">
                                <use xlink:href="#path-21"></use>
                            </mask>
                            <g id="Clip-172"></g>
                            <path d="M5.6157,3.5333 L1.4467,0.4433 C1.4777,0.4473 1.5087,0.4523 1.5387,0.4573 L5.7087,3.5483 C5.6777,3.5423 5.6467,3.5373 5.6157,3.5333" id="Fill-171" fill="#9992F8" mask="url(#mask-22)"></path>
                        </g>
                    </g>
                    <g transform="translate(17.000000, 9.000000)">
                        <g>
                            <mask id="mask-24" fill="white">
                                <use xlink:href="#path-23"></use>
                            </mask>
                            <g id="Clip-174"></g>
                            <path d="M6.7236,14.6808 L2.5546,11.5908 C1.9756,9.8618 1.3006,8.0728 0.5536,5.9328 C0.5136,5.8208 0.5076,5.7388 0.5436,5.6548 L4.7126,8.7448 C4.6766,8.8288 4.6826,8.9108 4.7226,9.0228 C5.4696,11.1628 6.1446,12.9518 6.7236,14.6808" id="Fill-173" fill="#B1ACFA" mask="url(#mask-24)"></path>
                        </g>
                        <g>
                            <mask id="mask-26" fill="white">
                                <use xlink:href="#path-25"></use>
                            </mask>
                            <g id="Clip-176"></g>
                            <path d="M4.7129,8.7452 L0.5439,5.6552 C0.5499,5.6412 0.5569,5.6262 0.5659,5.6122 L4.7349,8.7022 C4.7269,8.7172 4.7189,8.7312 4.7129,8.7452" id="Fill-175" fill="#AEA9FA" mask="url(#mask-26)"></path>
                        </g>
                        <g>
                            <mask id="mask-28" fill="white">
                                <use xlink:href="#path-27"></use>
                            </mask>
                            <g id="Clip-178"></g>
                            <path d="M4.7349,8.7022 L0.5659,5.6122 C0.5749,5.5972 0.5849,5.5822 0.5959,5.5672 L4.7649,8.6572 C4.7539,8.6732 4.7439,8.6872 4.7349,8.7022" id="Fill-177" fill="#ABA5F9" mask="url(#mask-28)"></path>
                        </g>
                        <g>
                            <mask id="mask-30" fill="white">
                                <use xlink:href="#path-29"></use>
                            </mask>
                            <g id="Clip-180"></g>
                            <path d="M4.7652,8.6573 L0.5962,5.5673 C0.6102,5.5493 0.6252,5.5303 0.6432,5.5103 L4.8122,8.6003 C4.7952,8.6203 4.7792,8.6393 4.7652,8.6573" id="Fill-179" fill="#A8A2F9" mask="url(#mask-30)"></path>
                        </g>
                        <g>
                            <mask id="mask-32" fill="white">
                                <use xlink:href="#path-31"></use>
                            </mask>
                            <g id="Clip-182"></g>
                            <path d="M4.8125,8.6002 L0.6435,5.5102 C0.6475,5.5052 0.6515,5.5012 0.6565,5.4962 C2.3295,3.7422 3.9885,1.9782 5.6555,0.2152 L9.8245,3.3052 C8.1575,5.0682 6.4995,6.8312 4.8255,8.5862 C4.8205,8.5912 4.8165,8.5962 4.8125,8.6002" id="Fill-181" fill="#A59FF9" mask="url(#mask-32)"></path>
                        </g>
                    </g>
                    <g transform="translate(13.000000, 18.000000)">
                        <g>
                            <mask id="mask-34" fill="white">
                                <use xlink:href="#path-33"></use>
                            </mask>
                            <g id="Clip-184"></g>
                            <path d="M4.5957,3.9518 L0.4267,0.8618 C0.4287,0.8588 0.4317,0.8558 0.4347,0.8518 L4.6037,3.9428 C4.6017,3.9458 4.5987,3.9488 4.5957,3.9518" id="Fill-183" fill="#A8A2F9" mask="url(#mask-34)"></path>
                        </g>
                        <g>
                            <mask id="mask-36" fill="white">
                                <use xlink:href="#path-35"></use>
                            </mask>
                            <g id="Clip-186"></g>
                            <path d="M4.604,3.9425 L0.435,0.8525 C0.454,0.8315 0.472,0.8135 0.489,0.7975 L4.658,3.8875 C4.641,3.9035 4.623,3.9215 4.604,3.9425" id="Fill-185" fill="#A59FF9" mask="url(#mask-36)"></path>
                        </g>
                        <g>
                            <mask id="mask-38" fill="white">
                                <use xlink:href="#path-37"></use>
                            </mask>
                            <g id="Clip-188"></g>
                            <path d="M4.6582,3.8878 L0.4892,0.7978 C0.5022,0.7858 0.5142,0.7748 0.5272,0.7658 L4.6962,3.8558 C4.6832,3.8658 4.6712,3.8758 4.6582,3.8878" id="Fill-187" fill="#A29CF9" mask="url(#mask-38)"></path>
                        </g>
                        <g>
                            <mask id="mask-40" fill="white">
                                <use xlink:href="#path-39"></use>
                            </mask>
                            <g id="Clip-190"></g>
                            <path d="M4.6963,3.856 L0.5273,0.766 C0.5383,0.757 0.5493,0.75 0.5603,0.744 L4.7293,3.834 C4.7183,3.84 4.7073,3.848 4.6963,3.856" id="Fill-189" fill="#9F99F9" mask="url(#mask-40)"></path>
                        </g>
                        <g>
                            <mask id="mask-42" fill="white">
                                <use xlink:href="#path-41"></use>
                            </mask>
                            <g id="Clip-192"></g>
                            <path d="M4.729,3.8341 L0.56,0.7441 C0.571,0.7371 0.582,0.7311 0.593,0.7271 L4.762,3.8171 C4.751,3.8211 4.74,3.8271 4.729,3.8341" id="Fill-191" fill="#9C95F8" mask="url(#mask-42)"></path>
                        </g>
                        <g>
                            <mask id="mask-44" fill="white">
                                <use xlink:href="#path-43"></use>
                            </mask>
                            <g id="Clip-194"></g>
                            <path d="M4.7622,3.817 L0.5932,0.727 C0.6092,0.72 0.6242,0.715 0.6402,0.712 L4.8102,3.801 C4.7942,3.805 4.7782,3.81 4.7622,3.817" id="Fill-193" fill="#9992F8" mask="url(#mask-44)"></path>
                        </g>
                        <g>
                            <mask id="mask-46" fill="white">
                                <use xlink:href="#path-45"></use>
                            </mask>
                            <g id="Clip-196"></g>
                            <path d="M4.8101,3.8014 L0.6411,0.7114 C0.6571,0.7084 0.6741,0.7064 0.6911,0.7064 C0.7041,0.7064 0.7171,0.7074 0.7311,0.7094 L4.9001,3.7994 C4.8871,3.7974 4.8731,3.7964 4.8601,3.7964 C4.8431,3.7964 4.8261,3.7984 4.8101,3.8014" id="Fill-195" fill="#968FF8" mask="url(#mask-46)"></path>
                        </g>
                        <g>
                            <mask id="mask-48" fill="white">
                                <use xlink:href="#path-47"></use>
                            </mask>
                            <g id="Clip-198"></g>
                            <path d="M4.9004,3.7994 L0.7314,0.7094 C0.7674,0.7144 0.8054,0.7254 0.8484,0.7414 C1.4244,0.9554 2.0014,1.1614 2.5684,1.3834 L6.7374,4.4744 C6.1714,4.2514 5.5934,4.0464 5.0174,3.8324 C4.9744,3.8154 4.9364,3.8044 4.9004,3.7994" id="Fill-197" fill="#9992F8" mask="url(#mask-48)"></path>
                        </g>
                    </g>
                    <g transform="translate(8.000000, 18.000000)">
                        <mask id="mask-50" fill="white">
                            <use xlink:href="#path-49"></use>
                        </mask>
                        <g id="Clip-200"></g>
                        <path d="M4.6196,9.2418 L0.4506,6.1518 C2.1096,4.3878 3.7756,2.6248 5.4266,0.8618 L9.5956,3.9518 C7.9456,5.7158 6.2786,7.4788 4.6196,9.2418" id="Fill-199" fill="#A59FF9" mask="url(#mask-50)"></path>
                    </g>
                    <polygon id="Fill-201" fill="#9790F8" points="12.3955 27.3956 8.2265 24.3056 8.4505 24.1516 12.6195 27.2416"></polygon>
                    <g transform="translate(15.000000, 10.000000)">
                        <mask id="mask-52" fill="white">
                            <use xlink:href="#path-51"></use>
                        </mask>
                        <g id="Clip-204"></g>
                        <path d="M5.1279,3.8463 L0.9589,0.7563 C0.9229,0.7293 0.8959,0.6863 0.8689,0.6273 L5.0389,3.7183 C5.0649,3.7763 5.0919,3.8203 5.1279,3.8463" id="Fill-203" fill="#B1ACFA" mask="url(#mask-52)"></path>
                    </g>
                    <g transform="translate(17.000000, 5.000000)">
                        <g>
                            <mask id="mask-54" fill="white">
                                <use xlink:href="#path-53"></use>
                            </mask>
                            <g id="Clip-206"></g>
                            <path d="M5.125,5.4874 L0.956,2.3974 C0.961,2.4014 0.966,2.4044 0.972,2.4074 L5.141,5.4974 C5.135,5.4944 5.13,5.4904 5.125,5.4874" id="Fill-205" fill="#9F99F9" mask="url(#mask-54)"></path>
                        </g>
                        <g>
                            <mask id="mask-56" fill="white">
                                <use xlink:href="#path-55"></use>
                            </mask>
                            <g id="Clip-208"></g>
                            <path d="M5.1406,5.4977 L0.9716,2.4077 C0.9796,2.4127 0.9886,2.4167 0.9976,2.4197 L5.1666,5.5107 C5.1576,5.5067 5.1486,5.5027 5.1406,5.4977" id="Fill-207" fill="#9C95F8" mask="url(#mask-56)"></path>
                        </g>
                        <g>
                            <mask id="mask-58" fill="white">
                                <use xlink:href="#path-57"></use>
                            </mask>
                            <g id="Clip-210"></g>
                            <path d="M5.167,5.5103 L0.998,2.4203 C1.012,2.4263 1.027,2.4293 1.044,2.4323 L5.213,5.5223 C5.196,5.5203 5.181,5.5163 5.167,5.5103" id="Fill-209" fill="#9992F8" mask="url(#mask-58)"></path>
                        </g>
                        <g>
                            <mask id="mask-60" fill="white">
                                <use xlink:href="#path-59"></use>
                            </mask>
                            <g id="Clip-212"></g>
                            <path d="M5.2129,5.5221 L1.0439,2.4321 C1.0549,2.4341 1.0669,2.4341 1.0799,2.4341 C1.1069,2.4341 1.1369,2.4311 1.1709,2.4241 L5.3389,5.5141 C5.3059,5.5211 5.2759,5.5241 5.2489,5.5241 C5.2359,5.5241 5.2239,5.5231 5.2129,5.5221" id="Fill-211" fill="#968FF8" mask="url(#mask-60)"></path>
                        </g>
                        <g>
                            <mask id="mask-62" fill="white">
                                <use xlink:href="#path-61"></use>
                            </mask>
                            <g id="Clip-214"></g>
                            <path d="M5.3394,5.5138 L1.1704,2.4238 C1.1884,2.4198 1.2084,2.4148 1.2284,2.4098 C3.5264,1.7848 5.8314,1.1598 8.1354,0.5428 L12.3044,3.6338 C10.0004,4.2498 7.6954,4.8748 5.3984,5.4988 C5.3774,5.5048 5.3584,5.5098 5.3394,5.5138" id="Fill-213" fill="#9992F8" mask="url(#mask-62)"></path>
                        </g>
                    </g>
                    <g transform="translate(9.000000, 16.000000)">
                        <g>
                            <mask id="mask-64" fill="white">
                                <use xlink:href="#path-63"></use>
                            </mask>
                            <g id="Clip-216"></g>
                            <path d="M4.7368,3.795 L0.5678,0.705 C0.5938,0.714 0.6178,0.723 0.6398,0.732 L4.8088,3.821 C4.7868,3.813 4.7628,3.804 4.7368,3.795" id="Fill-215" fill="#9992F8" mask="url(#mask-64)"></path>
                        </g>
                        <g>
                            <mask id="mask-66" fill="white">
                                <use xlink:href="#path-65"></use>
                            </mask>
                            <g id="Clip-218"></g>
                            <path d="M4.8091,3.8214 L0.6401,0.7314 C0.6911,0.7514 0.7321,0.7704 0.7651,0.7904 L4.9341,3.8804 C4.9011,3.8614 4.8601,3.8414 4.8091,3.8214" id="Fill-217" fill="#9C95F8" mask="url(#mask-66)"></path>
                        </g>
                        <g>
                            <mask id="mask-68" fill="white">
                                <use xlink:href="#path-67"></use>
                            </mask>
                            <g id="Clip-220"></g>
                            <path d="M4.9341,3.8805 L0.7651,0.7905 C0.7791,0.7985 0.7911,0.8065 0.8021,0.8155 L4.9721,3.9045 C4.9601,3.8965 4.9481,3.8885 4.9341,3.8805" id="Fill-219" fill="#9F99F9" mask="url(#mask-68)"></path>
                        </g>
                    </g>
                    <g transform="translate(4.000000, 19.000000)">
                        <mask id="mask-70" fill="white">
                            <use xlink:href="#path-69"></use>
                        </mask>
                        <g id="Clip-222"></g>
                        <path d="M5.5806,13.2398 L1.4116,10.1498 C1.1696,9.9698 0.9956,9.6698 0.9126,9.2598 C0.8176,8.7888 0.8546,8.3018 0.9756,7.7968 C1.5296,5.3828 2.0836,2.9688 2.6546,0.5548 L6.8236,3.6448 C6.2526,6.0588 5.6986,8.4728 5.1446,10.8858 C5.0246,11.3918 4.9876,11.8798 5.0816,12.3498 C5.1646,12.7608 5.3386,13.0608 5.5806,13.2398" id="Fill-221" fill="#B1ACFA" mask="url(#mask-70)"></path>
                    </g>
                    <g transform="translate(13.000000, 5.000000)">
                        <mask id="mask-72" fill="white">
                            <use xlink:href="#path-71"></use>
                        </mask>
                        <g id="Clip-224"></g>
                        <path d="M7.0386,8.7179 L2.8696,5.6279 C2.1436,3.9069 1.4106,2.1869 0.6766,0.4659 L4.8456,3.5559 C5.5796,5.2769 6.3126,6.9969 7.0386,8.7179" id="Fill-223" fill="#B1ACFA" mask="url(#mask-72)"></path>
                    </g>
                    <g transform="translate(13.000000, 5.000000)">
                        <mask id="mask-74" fill="white">
                            <use xlink:href="#path-73"></use>
                        </mask>
                        <g id="Clip-226"></g>
                        <path d="M4.8452,3.5562 L0.6762,0.4662 C0.6422,0.3632 0.5812,0.2782 0.5012,0.2182 L4.6702,3.3082 C4.7512,3.3682 4.8112,3.4532 4.8452,3.5562" id="Fill-225" fill="#B1ACFA" mask="url(#mask-74)"></path>
                    </g>
                    <g transform="translate(4.000000, 14.000000)">
                        <mask id="mask-76" fill="white">
                            <use xlink:href="#path-75"></use>
                        </mask>
                        <g id="Clip-228"></g>
                        <path d="M4.6485,3.5265 L0.4795,0.4365 C2.0375,1.1385 3.9935,2.0035 5.5675,2.7045 L9.7365,5.7955 C8.1625,5.0925 6.2065,4.2285 4.6485,3.5265" id="Fill-227" fill="#9C95F8" mask="url(#mask-76)"></path>
                    </g>
                    <g transform="translate(13.000000, 0.000000)">
                        <g>
                            <mask id="mask-78" fill="white">
                                <use xlink:href="#path-77"></use>
                            </mask>
                            <g id="Clip-230"></g>
                            <path d="M5.104,3.9 L0.935,0.81 C1.009,0.811 1.082,0.817 1.153,0.826 L5.322,3.916 C5.251,3.906 5.179,3.901 5.104,3.9" id="Fill-229" fill="#968FF8" mask="url(#mask-78)"></path>
                        </g>
                        <g>
                            <mask id="mask-80" fill="white">
                                <use xlink:href="#path-79"></use>
                            </mask>
                            <g id="Clip-232"></g>
                            <path d="M5.3223,3.9161 L1.1533,0.8261 C1.2813,0.8441 1.4043,0.8751 1.5203,0.9221 L5.6903,4.0121 C5.5733,3.9661 5.4503,3.9341 5.3223,3.9161" id="Fill-231" fill="#9992F8" mask="url(#mask-80)"></path>
                        </g>
                        <g>
                            <mask id="mask-82" fill="white">
                                <use xlink:href="#path-81"></use>
                            </mask>
                            <g id="Clip-234"></g>
                            <path d="M5.69,4.0118 L1.521,0.9218 C1.598,0.9518 1.673,0.9888 1.745,1.0318 L5.914,4.1218 C5.842,4.0788 5.767,4.0428 5.69,4.0118" id="Fill-233" fill="#9C95F8" mask="url(#mask-82)"></path>
                        </g>
                        <g>
                            <mask id="mask-84" fill="white">
                                <use xlink:href="#path-83"></use>
                            </mask>
                            <g id="Clip-236"></g>
                            <path d="M5.9141,4.1222 L1.7451,1.0322 C1.7911,1.0592 1.8361,1.0892 1.8791,1.1222 L6.0481,4.2122 C6.0051,4.1792 5.9601,4.1492 5.9141,4.1222" id="Fill-235" fill="#9F99F9" mask="url(#mask-84)"></path>
                        </g>
                    </g>
                    <g transform="translate(8.000000, 0.000000)">
                        <g>
                            <mask id="mask-86" fill="white">
                                <use xlink:href="#path-85"></use>
                            </mask>
                            <g id="Clip-238"></g>
                            <path d="M5.1616,13.2125 L0.9926,10.1225 C1.0216,10.1135 1.0486,10.1045 1.0726,10.0945 L5.2426,13.1845 C5.2176,13.1945 5.1906,13.2045 5.1616,13.2125" id="Fill-237" fill="#9992F8" mask="url(#mask-86)"></path>
                        </g>
                        <g>
                            <mask id="mask-88" fill="white">
                                <use xlink:href="#path-87"></use>
                            </mask>
                            <g id="Clip-240"></g>
                            <path d="M5.2422,13.1842 L1.0732,10.0942 C1.0922,10.0862 1.1092,10.0772 1.1252,10.0672 L5.2942,13.1582 C5.2782,13.1672 5.2612,13.1762 5.2422,13.1842" id="Fill-239" fill="#9C95F8" mask="url(#mask-88)"></path>
                        </g>
                        <g>
                            <mask id="mask-90" fill="white">
                                <use xlink:href="#path-89"></use>
                            </mask>
                            <g id="Clip-242"></g>
                            <path d="M5.2944,13.1578 L1.1254,10.0678 C1.1374,10.0608 1.1484,10.0528 1.1584,10.0448 L5.3274,13.1358 C5.3174,13.1428 5.3064,13.1508 5.2944,13.1578" id="Fill-241" fill="#9F99F9" mask="url(#mask-90)"></path>
                        </g>
                        <g>
                            <mask id="mask-92" fill="white">
                                <use xlink:href="#path-91"></use>
                            </mask>
                            <g id="Clip-244"></g>
                            <path d="M5.3277,13.1353 L1.1587,10.0453 C1.1677,10.0383 1.1767,10.0313 1.1847,10.0233 L5.3537,13.1143 C5.3457,13.1213 5.3367,13.1283 5.3277,13.1353" id="Fill-243" fill="#A29CF9" mask="url(#mask-92)"></path>
                        </g>
                        <g>
                            <mask id="mask-94" fill="white">
                                <use xlink:href="#path-93"></use>
                            </mask>
                            <g id="Clip-246"></g>
                            <path d="M5.354,13.1139 L1.185,10.0239 C1.193,10.0159 1.201,10.0089 1.208,10.0009 L5.377,13.0909 C5.37,13.0989 5.362,13.1069 5.354,13.1139" id="Fill-245" fill="#A59FF9" mask="url(#mask-94)"></path>
                        </g>
                        <g>
                            <mask id="mask-96" fill="white">
                                <use xlink:href="#path-95"></use>
                            </mask>
                            <g id="Clip-248"></g>
                            <path d="M5.377,13.0904 L1.208,10.0004 C1.216,9.9914 1.223,9.9834 1.23,9.9734 L5.399,13.0634 C5.392,13.0724 5.385,13.0824 5.377,13.0904" id="Fill-247" fill="#A8A2F9" mask="url(#mask-96)"></path>
                        </g>
                        <g>
                            <mask id="mask-98" fill="white">
                                <use xlink:href="#path-97"></use>
                            </mask>
                            <g id="Clip-250"></g>
                            <path d="M5.3994,13.0636 L1.2304,9.9736 C1.2384,9.9616 1.2464,9.9506 1.2534,9.9376 L5.4234,13.0276 C5.4154,13.0406 5.4074,13.0526 5.3994,13.0636" id="Fill-249" fill="#ABA5F9" mask="url(#mask-98)"></path>
                        </g>
                        <g>
                            <mask id="mask-100" fill="white">
                                <use xlink:href="#path-99"></use>
                            </mask>
                            <g id="Clip-252"></g>
                            <path d="M5.4234,13.0274 L1.2544,9.9374 C1.2654,9.9184 1.2754,9.8984 1.2844,9.8764 L5.4544,12.9664 C5.4444,12.9884 5.4344,13.0084 5.4234,13.0274" id="Fill-251" fill="#AEA9FA" mask="url(#mask-100)"></path>
                        </g>
                        <g>
                            <mask id="mask-102" fill="white">
                                <use xlink:href="#path-101"></use>
                            </mask>
                            <g id="Clip-254"></g>
                            <path d="M5.4541,12.9669 L1.2851,9.8769 C1.2951,9.8519 1.3051,9.8259 1.3141,9.7979 C1.8111,8.1789 2.3171,6.5619 2.8241,4.9359 C3.0131,4.3259 3.1721,3.7039 3.4271,3.1139 L7.5971,6.2049 C7.3411,6.7949 7.1821,7.4169 6.9931,8.0259 C6.4861,9.6519 5.9801,11.2699 5.4831,12.8869 C5.4741,12.9159 5.4641,12.9429 5.4541,12.9669" id="Fill-253" fill="#B1ACFA" mask="url(#mask-102)"></path>
                        </g>
                        <g>
                            <mask id="mask-104" fill="white">
                                <use xlink:href="#path-103"></use>
                            </mask>
                            <g id="Clip-256"></g>
                            <path d="M7.5967,6.2047 L3.4277,3.1147 C3.5137,2.9147 3.6117,2.7197 3.7247,2.5287 L7.8937,5.6187 C7.7807,5.8087 7.6827,6.0047 7.5967,6.2047" id="Fill-255" fill="#AEA9FA" mask="url(#mask-104)"></path>
                        </g>
                        <g>
                            <mask id="mask-106" fill="white">
                                <use xlink:href="#path-105"></use>
                            </mask>
                            <g id="Clip-258"></g>
                            <path d="M7.8936,5.6187 L3.7246,2.5287 C3.7516,2.4827 3.7796,2.4377 3.8086,2.3927 C3.8826,2.2777 3.9606,2.1647 4.0426,2.0547 L8.2116,5.1447 C8.1296,5.2557 8.0516,5.3687 7.9776,5.4837 C7.9486,5.5287 7.9206,5.5737 7.8936,5.6187" id="Fill-257" fill="#ABA5F9" mask="url(#mask-106)"></path>
                        </g>
                        <g>
                            <mask id="mask-108" fill="white">
                                <use xlink:href="#path-107"></use>
                            </mask>
                            <g id="Clip-260"></g>
                            <path d="M8.2119,5.1451 L4.0429,2.0551 C4.1479,1.9141 4.2599,1.7781 4.3789,1.6471 L8.5479,4.7381 C8.4289,4.8681 8.3169,5.0041 8.2119,5.1451" id="Fill-259" fill="#A8A2F9" mask="url(#mask-108)"></path>
                        </g>
                        <g>
                            <mask id="mask-110" fill="white">
                                <use xlink:href="#path-109"></use>
                            </mask>
                            <g id="Clip-262"></g>
                            <path d="M8.5479,4.7379 L4.3789,1.6479 C4.4149,1.6079 4.4519,1.5679 4.4899,1.5289 C4.5299,1.4879 4.5699,1.4489 4.6099,1.4119 L8.7799,4.5029 C8.7389,4.5399 8.6989,4.5779 8.6589,4.6189 C8.6209,4.6579 8.5839,4.6979 8.5479,4.7379" id="Fill-261" fill="#A59FF9" mask="url(#mask-110)"></path>
                        </g>
                        <g>
                            <mask id="mask-112" fill="white">
                                <use xlink:href="#path-111"></use>
                            </mask>
                            <g id="Clip-264"></g>
                            <path d="M8.7798,4.5025 L4.6108,1.4125 C4.6788,1.3495 4.7488,1.2915 4.8198,1.2385 L8.9888,4.3285 C8.9178,4.3815 8.8488,4.4395 8.7798,4.5025" id="Fill-263" fill="#A29CF9" mask="url(#mask-112)"></path>
                        </g>
                        <g>
                            <mask id="mask-114" fill="white">
                                <use xlink:href="#path-113"></use>
                            </mask>
                            <g id="Clip-266"></g>
                            <path d="M8.9888,4.3287 L4.8198,1.2387 C4.8918,1.1837 4.9658,1.1347 5.0398,1.0907 L9.2088,4.1817 C9.1348,4.2247 9.0618,4.2747 8.9888,4.3287" id="Fill-265" fill="#9F99F9" mask="url(#mask-114)"></path>
                        </g>
                        <g>
                            <mask id="mask-116" fill="white">
                                <use xlink:href="#path-115"></use>
                            </mask>
                            <g id="Clip-268"></g>
                            <path d="M9.209,4.1812 L5.04,1.0912 C5.123,1.0412 5.207,0.9982 5.291,0.9612 L9.46,4.0522 C9.376,4.0882 9.292,4.1312 9.209,4.1812" id="Fill-267" fill="#9C95F8" mask="url(#mask-116)"></path>
                        </g>
                        <g>
                            <mask id="mask-118" fill="white">
                                <use xlink:href="#path-117"></use>
                            </mask>
                            <g id="Clip-270"></g>
                            <path d="M9.46,4.0518 L5.291,0.9618 C5.414,0.9078 5.536,0.8688 5.658,0.8438 L9.828,3.9338 C9.706,3.9588 9.583,3.9988 9.46,4.0518" id="Fill-269" fill="#9992F8" mask="url(#mask-118)"></path>
                        </g>
                        <g>
                            <mask id="mask-120" fill="white">
                                <use xlink:href="#path-119"></use>
                            </mask>
                            <g id="Clip-272"></g>
                            <path d="M9.8277,3.9337 L5.6587,0.8437 C5.7517,0.8247 5.8437,0.8127 5.9347,0.8097 L10.1037,3.8997 C10.0127,3.9027 9.9207,3.9147 9.8277,3.9337" id="Fill-271" fill="#968FF8" mask="url(#mask-120)"></path>
                        </g>
                    </g>
                    <g transform="translate(0.000000, 10.000000)">
                        <g>
                            <mask id="mask-122" fill="white">
                                <use xlink:href="#path-121"></use>
                            </mask>
                            <g id="Clip-274"></g>
                            <path d="M5.3892,9.8092 L1.2202,6.7192 C0.9372,6.5092 0.6902,6.2582 0.4942,5.9512 C0.0832,5.2942 0.0282,4.5842 0.3012,3.9492 L4.4712,7.0382 C4.1972,7.6742 4.2522,8.3852 4.6632,9.0412 C4.8592,9.3482 5.1062,9.5992 5.3892,9.8092" id="Fill-273" fill="#B1ACFA" mask="url(#mask-122)"></path>
                        </g>
                        <g>
                            <mask id="mask-124" fill="white">
                                <use xlink:href="#path-123"></use>
                            </mask>
                            <g id="Clip-276"></g>
                            <path d="M4.4707,7.0387 L0.3017,3.9487 C0.3397,3.8607 0.3837,3.7737 0.4337,3.6887 L4.6027,6.7797 C4.5527,6.8647 4.5087,6.9507 4.4707,7.0387" id="Fill-275" fill="#AEA9FA" mask="url(#mask-124)"></path>
                        </g>
                        <g>
                            <mask id="mask-126" fill="white">
                                <use xlink:href="#path-125"></use>
                            </mask>
                            <g id="Clip-278"></g>
                            <path d="M4.603,6.7794 L0.434,3.6894 C0.476,3.6184 0.523,3.5484 0.574,3.4794 L4.743,6.5704 C4.692,6.6384 4.645,6.7084 4.603,6.7794" id="Fill-277" fill="#ABA5F9" mask="url(#mask-126)"></path>
                        </g>
                        <g>
                            <mask id="mask-128" fill="white">
                                <use xlink:href="#path-127"></use>
                            </mask>
                            <g id="Clip-280"></g>
                            <path d="M4.7432,6.5699 L0.5742,3.4799 C0.6232,3.4139 0.6762,3.3499 0.7332,3.2869 L4.9022,6.3769 C4.8452,6.4399 4.7922,6.5049 4.7432,6.5699" id="Fill-279" fill="#A8A2F9" mask="url(#mask-128)"></path>
                        </g>
                        <g>
                            <mask id="mask-130" fill="white">
                                <use xlink:href="#path-129"></use>
                            </mask>
                            <g id="Clip-282"></g>
                            <path d="M4.9024,6.377 L0.7334,3.287 C0.7914,3.223 0.8544,3.16 0.9204,3.1 L5.0894,6.19 C5.0234,6.251 4.9604,6.313 4.9024,6.377" id="Fill-281" fill="#A59FF9" mask="url(#mask-130)"></path>
                        </g>
                        <g>
                            <mask id="mask-132" fill="white">
                                <use xlink:href="#path-131"></use>
                            </mask>
                            <g id="Clip-284"></g>
                            <path d="M5.0899,6.1895 L0.9209,3.0995 C0.9939,3.0325 1.0709,2.9685 1.1539,2.9065 L5.3229,5.9965 C5.2409,6.0585 5.1629,6.1235 5.0899,6.1895" id="Fill-283" fill="#A29CF9" mask="url(#mask-132)"></path>
                        </g>
                        <g>
                            <mask id="mask-134" fill="white">
                                <use xlink:href="#path-133"></use>
                            </mask>
                            <g id="Clip-286"></g>
                            <path d="M5.3233,5.9967 L1.1543,2.9067 C1.2393,2.8437 1.3283,2.7827 1.4233,2.7247 C1.4363,2.7167 1.4493,2.7087 1.4633,2.7007 L5.6323,5.7907 C5.6183,5.7987 5.6053,5.8067 5.5923,5.8147 C5.4973,5.8727 5.4073,5.9337 5.3233,5.9967" id="Fill-285" fill="#9F99F9" mask="url(#mask-134)"></path>
                        </g>
                        <g>
                            <mask id="mask-136" fill="white">
                                <use xlink:href="#path-135"></use>
                            </mask>
                            <g id="Clip-288"></g>
                            <path d="M5.6323,5.7906 L1.4633,2.7006 C1.6783,2.5726 1.9003,2.4596 2.1263,2.3616 L6.2963,5.4516 C6.0693,5.5496 5.8473,5.6626 5.6323,5.7906" id="Fill-287" fill="#9C95F8" mask="url(#mask-136)"></path>
                        </g>
                        <g>
                            <mask id="mask-138" fill="white">
                                <use xlink:href="#path-137"></use>
                            </mask>
                            <g id="Clip-290"></g>
                            <path d="M6.2959,5.4518 L2.1269,2.3618 C2.3349,2.2708 2.5459,2.1928 2.7619,2.1258 C4.8329,1.4408 6.9169,0.7818 8.9929,0.1228 L13.1619,3.2128 C11.0859,3.8718 9.0029,4.5308 6.9309,5.2158 C6.7149,5.2828 6.5039,5.3618 6.2959,5.4518" id="Fill-289" fill="#9992F8" mask="url(#mask-138)"></path>
                        </g>
                    </g>
                    <path d="M26.8242,12.3053 C26.8902,12.2373 26.9422,12.1593 26.9712,12.0653 C26.5422,12.1853 26.1142,12.2973 25.6852,12.4083 C23.9012,12.8963 22.1172,13.3753 20.3332,13.8633 C20.2952,13.8733 20.2622,13.8783 20.2322,13.8783 C20.1352,13.8783 20.0862,13.8233 20.0382,13.7183 C19.3132,11.9973 18.5792,10.2773 17.8452,8.5563 C17.8112,8.4533 17.7512,8.3673 17.6702,8.3083 C17.5252,8.7623 17.3782,9.2233 17.2402,9.6863 C16.7342,11.3043 16.2282,12.9213 15.7312,14.5393 C15.6732,14.7193 15.6082,14.8903 15.5672,15.0703 C15.5352,15.2323 15.4462,15.2923 15.2932,15.3443 C13.1762,16.0123 11.0562,16.6963 8.9452,17.3723 C8.8362,17.3983 8.7392,17.4583 8.6482,17.5263 C10.2062,18.2283 12.1622,19.0933 13.7372,19.7953 C14.2072,19.9573 14.0302,20.0693 14.0082,20.4453 C13.5732,22.3113 13.1372,24.1773 12.7002,26.0523 C12.5962,26.4973 12.4992,26.9513 12.3952,27.3953 L12.6192,27.2423 C14.2782,25.4783 15.9452,23.7153 17.5952,21.9513 C17.6912,21.8443 17.7682,21.7963 17.8602,21.7963 C17.9072,21.7963 17.9572,21.8093 18.0172,21.8323 C18.5932,22.0463 19.1712,22.2513 19.7382,22.4743 L23.7232,23.6803 C23.1452,21.9513 22.4692,20.1633 21.7222,18.0233 C21.6592,17.8433 21.6822,17.7413 21.8252,17.5863 C23.4992,15.8313 25.1572,14.0683 26.8242,12.3053 M30.7082,8.5483 C31.6982,8.7533 32.0342,9.5753 31.5372,10.6193 C31.3072,11.0983 30.9832,11.5003 30.6222,11.8773 C28.8032,13.8033 26.9842,15.7293 25.1572,17.6463 C25.0052,17.8093 24.9892,17.9203 25.0522,18.1003 C25.7122,19.9403 26.3712,21.7893 27.0292,23.6463 C27.1852,24.0833 27.2892,24.5453 27.2172,25.0503 C27.1022,25.9153 26.5592,26.6593 25.8242,27.0533 C25.5272,27.2593 25.2092,27.2763 24.8532,27.3363 C24.6942,27.3613 24.5622,27.3733 24.4412,27.3733 C24.1902,27.3733 23.9882,27.3203 23.6972,27.2163 C22.3682,26.7203 20.8192,26.3003 19.4822,25.8043 L19.3352,25.7523 L19.2512,25.7183 C18.8832,25.5813 18.5132,25.4443 18.1372,25.3073 C18.0792,25.2843 18.0292,25.2713 17.9812,25.2713 C17.8902,25.2713 17.8112,25.3173 17.7172,25.4183 C15.9042,27.3533 14.0852,29.2793 12.2722,31.2133 C11.9112,31.5903 11.5302,31.9413 11.0742,32.1803 C10.7592,32.3523 10.4632,32.4353 10.1992,32.4353 C9.6372,32.4353 9.2232,32.0553 9.0822,31.3503 C8.9872,30.8793 9.0242,30.3913 9.1452,29.8863 C9.6992,27.4723 10.2532,25.0593 10.8232,22.6453 L9.4632,21.9173 C8.2552,21.3103 7.0992,20.7363 5.9522,20.1543 C5.4322,19.8893 4.9802,19.5383 4.6632,19.0413 C3.9512,17.9033 4.3062,16.6023 5.5922,15.8143 C6.0162,15.5583 6.4652,15.3613 6.9312,15.2153 C9.0022,14.5313 11.0862,13.8713 13.1612,13.2123 C13.3392,13.1613 13.4242,13.0763 13.4832,12.8873 C13.9802,11.2693 14.4862,9.6523 14.9922,8.0253 C15.2612,7.1613 15.4692,6.2713 15.9772,5.4833 C16.1752,5.1753 16.4032,4.8843 16.6592,4.6183 C17.1132,4.1573 17.6242,3.9173 18.1042,3.9003 C18.6162,3.9073 19.0502,4.1213 19.3872,4.5423 C19.6272,4.8503 19.8222,5.1833 19.9802,5.5523 C20.6682,7.1353 21.3472,8.7273 22.0172,10.3283 C22.0742,10.4643 22.1372,10.5243 22.2482,10.5243 C22.2902,10.5243 22.3402,10.5153 22.3982,10.4993 C24.6952,9.8743 27.0002,9.2493 29.3042,8.6333 C29.6032,8.5473 29.9042,8.5053 30.1992,8.5053 C30.3712,8.5053 30.5422,8.5193 30.7082,8.5483" id="Fill-291" fill="#7F77F6"></path>
                </g>
            </g>
        </g>
    </g>
</svg>