<?xml version="1.0" encoding="UTF-8"?>
<svg width="32px" height="32px" viewBox="0 0 32 32" version="1.1" xmlns="http://www.w3.org/2000/svg" xmlns:xlink="http://www.w3.org/1999/xlink">
    <!-- Generator: Sketch 64 (93537) - https://sketch.com -->
    <title>python</title>
    <desc>Created with Sketch.</desc>
    <defs>
        <path d="M1.87,0.053 L6.421,2.052 C6.517,2.094 6.605,2.15 6.683,2.219 C6.761,2.288 6.831,2.37 6.888,2.462 C6.946,2.553 6.992,2.656 7.024,2.767 C7.056,2.878 7.075,2.998 7.078,3.124 C7.082,3.307 7.052,3.486 6.995,3.654 C6.938,3.821 6.854,3.976 6.748,4.111 C6.643,4.247 6.516,4.362 6.374,4.45 C6.232,4.538 6.075,4.597 5.91,4.621 C5.858,4.629 5.807,4.632 5.756,4.632 C5.706,4.633 5.657,4.629 5.608,4.623 C5.56,4.617 5.513,4.607 5.467,4.594 C5.421,4.581 5.377,4.565 5.334,4.546 L0.787,2.537 C0.83,2.556 0.874,2.572 0.919,2.585 C0.965,2.598 1.012,2.608 1.061,2.614 C1.108,2.621 1.158,2.624 1.208,2.624 C1.258,2.623 1.309,2.62 1.361,2.612 C1.526,2.588 1.683,2.529 1.824,2.442 C1.965,2.355 2.092,2.24 2.197,2.105 C2.302,1.97 2.386,1.815 2.443,1.649 C2.5,1.482 2.529,1.303 2.525,1.121 C2.522,0.995 2.503,0.876 2.471,0.765 C2.439,0.654 2.393,0.552 2.336,0.461 C2.278,0.369 2.209,0.288 2.131,0.219" id="path-1"></path>
        <path d="M1.87,0.053 L6.421,2.052 C6.517,2.094 6.605,2.15 6.683,2.219 C6.761,2.288 6.831,2.37 6.888,2.462 C6.946,2.553 6.992,2.656 7.024,2.767 C7.056,2.878 7.075,2.998 7.078,3.124 C7.082,3.307 7.052,3.486 6.995,3.654 C6.938,3.821 6.854,3.976 6.748,4.111 C6.643,4.247 6.516,4.362 6.374,4.45 C6.232,4.538 6.075,4.597 5.91,4.621 C5.858,4.629 5.807,4.632 5.756,4.632 C5.706,4.633 5.657,4.629 5.608,4.623 C5.56,4.617 5.513,4.607 5.467,4.594 C5.421,4.581 5.377,4.565 5.334,4.546 L0.787,2.537 C0.83,2.556 0.874,2.572 0.919,2.585 C0.965,2.598 1.012,2.608 1.061,2.614 C1.108,2.621 1.158,2.624 1.208,2.624 C1.258,2.623 1.309,2.62 1.361,2.612 C1.526,2.588 1.683,2.529 1.824,2.442 C1.965,2.355 2.092,2.24 2.197,2.105 C2.302,1.97 2.386,1.815 2.443,1.649 C2.5,1.482 2.529,1.303 2.525,1.121 C2.522,0.995 2.503,0.876 2.471,0.765 C2.439,0.654 2.393,0.552 2.336,0.461 C2.278,0.369 2.209,0.288 2.131,0.219" id="path-3"></path>
        <path d="M1.87,0.053 L6.421,2.052 C6.517,2.094 6.605,2.15 6.683,2.219 C6.761,2.288 6.831,2.37 6.888,2.462 C6.946,2.553 6.992,2.656 7.024,2.767 C7.056,2.878 7.075,2.998 7.078,3.124 C7.082,3.307 7.052,3.486 6.995,3.654 C6.938,3.821 6.854,3.976 6.748,4.111 C6.643,4.247 6.516,4.362 6.374,4.45 C6.232,4.538 6.075,4.597 5.91,4.621 C5.858,4.629 5.807,4.632 5.756,4.632 C5.706,4.633 5.657,4.629 5.608,4.623 C5.56,4.617 5.513,4.607 5.467,4.594 C5.421,4.581 5.377,4.565 5.334,4.546 L0.787,2.537 C0.83,2.556 0.874,2.572 0.919,2.585 C0.965,2.598 1.012,2.608 1.061,2.614 C1.108,2.621 1.158,2.624 1.208,2.624 C1.258,2.623 1.309,2.62 1.361,2.612 C1.526,2.588 1.683,2.529 1.824,2.442 C1.965,2.355 2.092,2.24 2.197,2.105 C2.302,1.97 2.386,1.815 2.443,1.649 C2.5,1.482 2.529,1.303 2.525,1.121 C2.522,0.995 2.503,0.876 2.471,0.765 C2.439,0.654 2.393,0.552 2.336,0.461 C2.278,0.369 2.209,0.288 2.131,0.219" id="path-5"></path>
        <path d="M1.87,0.053 L6.421,2.052 C6.517,2.094 6.605,2.15 6.683,2.219 C6.761,2.288 6.831,2.37 6.888,2.462 C6.946,2.553 6.992,2.656 7.024,2.767 C7.056,2.878 7.075,2.998 7.078,3.124 C7.082,3.307 7.052,3.486 6.995,3.654 C6.938,3.821 6.854,3.976 6.748,4.111 C6.643,4.247 6.516,4.362 6.374,4.45 C6.232,4.538 6.075,4.597 5.91,4.621 C5.858,4.629 5.807,4.632 5.756,4.632 C5.706,4.633 5.657,4.629 5.608,4.623 C5.56,4.617 5.513,4.607 5.467,4.594 C5.421,4.581 5.377,4.565 5.334,4.546 L0.787,2.537 C0.83,2.556 0.874,2.572 0.919,2.585 C0.965,2.598 1.012,2.608 1.061,2.614 C1.108,2.621 1.158,2.624 1.208,2.624 C1.258,2.623 1.309,2.62 1.361,2.612 C1.526,2.588 1.683,2.529 1.824,2.442 C1.965,2.355 2.092,2.24 2.197,2.105 C2.302,1.97 2.386,1.815 2.443,1.649 C2.5,1.482 2.529,1.303 2.525,1.121 C2.522,0.995 2.503,0.876 2.471,0.765 C2.439,0.654 2.393,0.552 2.336,0.461 C2.278,0.369 2.209,0.288 2.131,0.219" id="path-7"></path>
        <path d="M1.87,0.053 L6.421,2.052 C6.517,2.094 6.605,2.15 6.683,2.219 C6.761,2.288 6.831,2.37 6.888,2.462 C6.946,2.553 6.992,2.656 7.024,2.767 C7.056,2.878 7.075,2.998 7.078,3.124 C7.082,3.307 7.052,3.486 6.995,3.654 C6.938,3.821 6.854,3.976 6.748,4.111 C6.643,4.247 6.516,4.362 6.374,4.45 C6.232,4.538 6.075,4.597 5.91,4.621 C5.858,4.629 5.807,4.632 5.756,4.632 C5.706,4.633 5.657,4.629 5.608,4.623 C5.56,4.617 5.513,4.607 5.467,4.594 C5.421,4.581 5.377,4.565 5.334,4.546 L0.787,2.537 C0.83,2.556 0.874,2.572 0.919,2.585 C0.965,2.598 1.012,2.608 1.061,2.614 C1.108,2.621 1.158,2.624 1.208,2.624 C1.258,2.623 1.309,2.62 1.361,2.612 C1.526,2.588 1.683,2.529 1.824,2.442 C1.965,2.355 2.092,2.24 2.197,2.105 C2.302,1.97 2.386,1.815 2.443,1.649 C2.5,1.482 2.529,1.303 2.525,1.121 C2.522,0.995 2.503,0.876 2.471,0.765 C2.439,0.654 2.393,0.552 2.336,0.461 C2.278,0.369 2.209,0.288 2.131,0.219" id="path-9"></path>
        <path d="M1.87,0.053 L6.421,2.052 C6.517,2.094 6.605,2.15 6.683,2.219 C6.761,2.288 6.831,2.37 6.888,2.462 C6.946,2.553 6.992,2.656 7.024,2.767 C7.056,2.878 7.075,2.998 7.078,3.124 C7.082,3.307 7.052,3.486 6.995,3.654 C6.938,3.821 6.854,3.976 6.748,4.111 C6.643,4.247 6.516,4.362 6.374,4.45 C6.232,4.538 6.075,4.597 5.91,4.621 C5.858,4.629 5.807,4.632 5.756,4.632 C5.706,4.633 5.657,4.629 5.608,4.623 C5.56,4.617 5.513,4.607 5.467,4.594 C5.421,4.581 5.377,4.565 5.334,4.546 L0.787,2.537 C0.83,2.556 0.874,2.572 0.919,2.585 C0.965,2.598 1.012,2.608 1.061,2.614 C1.108,2.621 1.158,2.624 1.208,2.624 C1.258,2.623 1.309,2.62 1.361,2.612 C1.526,2.588 1.683,2.529 1.824,2.442 C1.965,2.355 2.092,2.24 2.197,2.105 C2.302,1.97 2.386,1.815 2.443,1.649 C2.5,1.482 2.529,1.303 2.525,1.121 C2.522,0.995 2.503,0.876 2.471,0.765 C2.439,0.654 2.393,0.552 2.336,0.461 C2.278,0.369 2.209,0.288 2.131,0.219" id="path-11"></path>
        <path d="M1.87,0.053 L6.421,2.052 C6.517,2.094 6.605,2.15 6.683,2.219 C6.761,2.288 6.831,2.37 6.888,2.462 C6.946,2.553 6.992,2.656 7.024,2.767 C7.056,2.878 7.075,2.998 7.078,3.124 C7.082,3.307 7.052,3.486 6.995,3.654 C6.938,3.821 6.854,3.976 6.748,4.111 C6.643,4.247 6.516,4.362 6.374,4.45 C6.232,4.538 6.075,4.597 5.91,4.621 C5.858,4.629 5.807,4.632 5.756,4.632 C5.706,4.633 5.657,4.629 5.608,4.623 C5.56,4.617 5.513,4.607 5.467,4.594 C5.421,4.581 5.377,4.565 5.334,4.546 L0.787,2.537 C0.83,2.556 0.874,2.572 0.919,2.585 C0.965,2.598 1.012,2.608 1.061,2.614 C1.108,2.621 1.158,2.624 1.208,2.624 C1.258,2.623 1.309,2.62 1.361,2.612 C1.526,2.588 1.683,2.529 1.824,2.442 C1.965,2.355 2.092,2.24 2.197,2.105 C2.302,1.97 2.386,1.815 2.443,1.649 C2.5,1.482 2.529,1.303 2.525,1.121 C2.522,0.995 2.503,0.876 2.471,0.765 C2.439,0.654 2.393,0.552 2.336,0.461 C2.278,0.369 2.209,0.288 2.131,0.219" id="path-13"></path>
        <path d="M1.87,0.053 L6.421,2.052 C6.517,2.094 6.605,2.15 6.683,2.219 C6.761,2.288 6.831,2.37 6.888,2.462 C6.946,2.553 6.992,2.656 7.024,2.767 C7.056,2.878 7.075,2.998 7.078,3.124 C7.082,3.307 7.052,3.486 6.995,3.654 C6.938,3.821 6.854,3.976 6.748,4.111 C6.643,4.247 6.516,4.362 6.374,4.45 C6.232,4.538 6.075,4.597 5.91,4.621 C5.858,4.629 5.807,4.632 5.756,4.632 C5.706,4.633 5.657,4.629 5.608,4.623 C5.56,4.617 5.513,4.607 5.467,4.594 C5.421,4.581 5.377,4.565 5.334,4.546 L0.787,2.537 C0.83,2.556 0.874,2.572 0.919,2.585 C0.965,2.598 1.012,2.608 1.061,2.614 C1.108,2.621 1.158,2.624 1.208,2.624 C1.258,2.623 1.309,2.62 1.361,2.612 C1.526,2.588 1.683,2.529 1.824,2.442 C1.965,2.355 2.092,2.24 2.197,2.105 C2.302,1.97 2.386,1.815 2.443,1.649 C2.5,1.482 2.529,1.303 2.525,1.121 C2.522,0.995 2.503,0.876 2.471,0.765 C2.439,0.654 2.393,0.552 2.336,0.461 C2.278,0.369 2.209,0.288 2.131,0.219" id="path-15"></path>
        <path d="M0.51,0.387 C0.637,0.387 0.763,0.396 0.887,0.413 C1.011,0.43 1.134,0.456 1.255,0.489 C1.376,0.523 1.495,0.565 1.612,0.614 L6.187,2.55 C6.069,2.501 5.95,2.459 5.829,2.425 C5.708,2.391 5.584,2.366 5.46,2.349 C5.335,2.331 5.209,2.323 5.082,2.323 C4.954,2.323 4.825,2.332 4.695,2.35 L0.125,0.414" id="path-17"></path>
        <path d="M0.51,0.387 C0.637,0.387 0.763,0.396 0.887,0.413 C1.011,0.43 1.134,0.456 1.255,0.489 C1.376,0.523 1.495,0.565 1.612,0.614 L6.187,2.55 C6.069,2.501 5.95,2.459 5.829,2.425 C5.708,2.391 5.584,2.366 5.46,2.349 C5.335,2.331 5.209,2.323 5.082,2.323 C4.954,2.323 4.825,2.332 4.695,2.35 L0.125,0.414" id="path-19"></path>
        <path d="M4.149,0.635 L8.716,2.583 C8.73,3.225 8.646,3.837 8.483,4.402 C8.321,4.967 8.079,5.486 7.776,5.943 C7.474,6.401 7.111,6.796 6.707,7.114 C6.302,7.432 5.856,7.672 5.386,7.819 C5.338,7.835 5.291,7.849 5.243,7.861 C5.195,7.874 5.147,7.885 5.1,7.895 L5.028,7.90925 L5.028,7.90925 L4.956,7.922 C4.908,7.93 4.86,7.938 4.812,7.944 L0.258,5.976 C0.306,5.969 0.354,5.962 0.402,5.954 C0.449,5.946 0.497,5.937 0.545,5.927 C0.593,5.917 0.641,5.906 0.688,5.894 C0.736,5.881 0.783,5.867 0.831,5.852 C1.299,5.706 1.744,5.466 2.147,5.15 C2.551,4.833 2.913,4.439 3.214,3.984 C3.515,3.528 3.756,3.011 3.918,2.448" id="path-21"></path>
        <path d="M4.149,0.635 L8.716,2.583 C8.73,3.225 8.646,3.837 8.483,4.402 C8.321,4.967 8.079,5.486 7.776,5.943 C7.474,6.401 7.111,6.796 6.707,7.114 C6.302,7.432 5.856,7.672 5.386,7.819 C5.338,7.835 5.291,7.849 5.243,7.861 C5.195,7.874 5.147,7.885 5.1,7.895 L5.028,7.90925 L5.028,7.90925 L4.956,7.922 C4.908,7.93 4.86,7.938 4.812,7.944 L0.258,5.976 C0.306,5.969 0.354,5.962 0.402,5.954 C0.449,5.946 0.497,5.937 0.545,5.927 C0.593,5.917 0.641,5.906 0.688,5.894 C0.736,5.881 0.783,5.867 0.831,5.852 C1.299,5.706 1.744,5.466 2.147,5.15 C2.551,4.833 2.913,4.439 3.214,3.984 C3.515,3.528 3.756,3.011 3.918,2.448" id="path-23"></path>
        <path d="M4.149,0.635 L8.716,2.583 C8.73,3.225 8.646,3.837 8.483,4.402 C8.321,4.967 8.079,5.486 7.776,5.943 C7.474,6.401 7.111,6.796 6.707,7.114 C6.302,7.432 5.856,7.672 5.386,7.819 C5.338,7.835 5.291,7.849 5.243,7.861 C5.195,7.874 5.147,7.885 5.1,7.895 L5.028,7.90925 L5.028,7.90925 L4.956,7.922 C4.908,7.93 4.86,7.938 4.812,7.944 L0.258,5.976 C0.306,5.969 0.354,5.962 0.402,5.954 C0.449,5.946 0.497,5.937 0.545,5.927 C0.593,5.917 0.641,5.906 0.688,5.894 C0.736,5.881 0.783,5.867 0.831,5.852 C1.299,5.706 1.744,5.466 2.147,5.15 C2.551,4.833 2.913,4.439 3.214,3.984 C3.515,3.528 3.756,3.011 3.918,2.448" id="path-25"></path>
        <path d="M4.149,0.635 L8.716,2.583 C8.73,3.225 8.646,3.837 8.483,4.402 C8.321,4.967 8.079,5.486 7.776,5.943 C7.474,6.401 7.111,6.796 6.707,7.114 C6.302,7.432 5.856,7.672 5.386,7.819 C5.338,7.835 5.291,7.849 5.243,7.861 C5.195,7.874 5.147,7.885 5.1,7.895 L5.028,7.90925 L5.028,7.90925 L4.956,7.922 C4.908,7.93 4.86,7.938 4.812,7.944 L0.258,5.976 C0.306,5.969 0.354,5.962 0.402,5.954 C0.449,5.946 0.497,5.937 0.545,5.927 C0.593,5.917 0.641,5.906 0.688,5.894 C0.736,5.881 0.783,5.867 0.831,5.852 C1.299,5.706 1.744,5.466 2.147,5.15 C2.551,4.833 2.913,4.439 3.214,3.984 C3.515,3.528 3.756,3.011 3.918,2.448" id="path-27"></path>
        <path d="M4.149,0.635 L8.716,2.583 C8.73,3.225 8.646,3.837 8.483,4.402 C8.321,4.967 8.079,5.486 7.776,5.943 C7.474,6.401 7.111,6.796 6.707,7.114 C6.302,7.432 5.856,7.672 5.386,7.819 C5.338,7.835 5.291,7.849 5.243,7.861 C5.195,7.874 5.147,7.885 5.1,7.895 L5.028,7.90925 L5.028,7.90925 L4.956,7.922 C4.908,7.93 4.86,7.938 4.812,7.944 L0.258,5.976 C0.306,5.969 0.354,5.962 0.402,5.954 C0.449,5.946 0.497,5.937 0.545,5.927 C0.593,5.917 0.641,5.906 0.688,5.894 C0.736,5.881 0.783,5.867 0.831,5.852 C1.299,5.706 1.744,5.466 2.147,5.15 C2.551,4.833 2.913,4.439 3.214,3.984 C3.515,3.528 3.756,3.011 3.918,2.448" id="path-29"></path>
        <path d="M4.149,0.635 L8.716,2.583 C8.73,3.225 8.646,3.837 8.483,4.402 C8.321,4.967 8.079,5.486 7.776,5.943 C7.474,6.401 7.111,6.796 6.707,7.114 C6.302,7.432 5.856,7.672 5.386,7.819 C5.338,7.835 5.291,7.849 5.243,7.861 C5.195,7.874 5.147,7.885 5.1,7.895 L5.028,7.90925 L5.028,7.90925 L4.956,7.922 C4.908,7.93 4.86,7.938 4.812,7.944 L0.258,5.976 C0.306,5.969 0.354,5.962 0.402,5.954 C0.449,5.946 0.497,5.937 0.545,5.927 C0.593,5.917 0.641,5.906 0.688,5.894 C0.736,5.881 0.783,5.867 0.831,5.852 C1.299,5.706 1.744,5.466 2.147,5.15 C2.551,4.833 2.913,4.439 3.214,3.984 C3.515,3.528 3.756,3.011 3.918,2.448" id="path-31"></path>
        <path d="M4.149,0.635 L8.716,2.583 C8.73,3.225 8.646,3.837 8.483,4.402 C8.321,4.967 8.079,5.486 7.776,5.943 C7.474,6.401 7.111,6.796 6.707,7.114 C6.302,7.432 5.856,7.672 5.386,7.819 C5.338,7.835 5.291,7.849 5.243,7.861 C5.195,7.874 5.147,7.885 5.1,7.895 L5.028,7.90925 L5.028,7.90925 L4.956,7.922 C4.908,7.93 4.86,7.938 4.812,7.944 L0.258,5.976 C0.306,5.969 0.354,5.962 0.402,5.954 C0.449,5.946 0.497,5.937 0.545,5.927 C0.593,5.917 0.641,5.906 0.688,5.894 C0.736,5.881 0.783,5.867 0.831,5.852 C1.299,5.706 1.744,5.466 2.147,5.15 C2.551,4.833 2.913,4.439 3.214,3.984 C3.515,3.528 3.756,3.011 3.918,2.448" id="path-33"></path>
        <path d="M0.077,0.316 L4.598,2.329 C4.605,2.65 4.663,2.942 4.762,3.206 C4.86,3.47 5,3.706 5.172,3.917 C5.345,4.128 5.549,4.313 5.777,4.476 C6.006,4.638 6.257,4.778 6.524,4.897 L1.999,2.876 C1.733,2.757 1.481,2.618 1.254,2.456 C1.026,2.294 0.822,2.109 0.65,1.899 C0.479,1.689 0.339,1.453 0.24,1.191" id="path-35"></path>
        <path d="M0.612,0.164 C0.728,0.169 0.842,0.179 0.955,0.194 C1.067,0.209 1.179,0.229 1.289,0.253 C1.398,0.277 1.506,0.306 1.612,0.339 C1.717,0.373 1.821,0.411 1.922,0.454 L6.484,2.37 L6.484,2.37 C6.383,2.328 6.279,2.29 6.173,2.256 C6.067,2.222 5.959,2.193 5.849,2.169 C5.739,2.145 5.627,2.125 5.514,2.11 C5.401,2.095 5.286,2.086 5.17,2.08" id="path-37"></path>
        <path d="M0.612,0.164 C0.728,0.169 0.842,0.179 0.955,0.194 C1.067,0.209 1.179,0.229 1.289,0.253 C1.398,0.277 1.506,0.306 1.612,0.339 C1.717,0.373 1.821,0.411 1.922,0.454 L6.484,2.37 L6.484,2.37 C6.383,2.328 6.279,2.29 6.173,2.256 C6.067,2.222 5.959,2.193 5.849,2.169 C5.739,2.145 5.627,2.125 5.514,2.11 C5.401,2.095 5.286,2.086 5.17,2.08" id="path-39"></path>
        <path d="M4.059,0.987 L8.593,2.962 C8.517,2.972 8.441,2.986 8.365,3.002 C8.289,3.018 8.213,3.037 8.138,3.059 C8.063,3.081 7.987,3.105 7.913,3.132 C7.838,3.159 7.764,3.189 7.69,3.221 C7.359,3.364 7.052,3.556 6.776,3.787 C6.501,4.018 6.258,4.29 6.058,4.591 C5.858,4.894 5.7,5.227 5.594,5.583 C5.489,5.939 5.436,6.316 5.445,6.708 L0.921,4.719 C0.912,4.328 0.965,3.952 1.07,3.597 C1.175,3.243 1.332,2.911 1.532,2.61 C1.731,2.309 1.973,2.039 2.248,1.808 C2.522,1.578 2.829,1.387 3.159,1.245 C3.232,1.212 3.306,1.183 3.381,1.156 C3.455,1.129 3.53,1.105 3.605,1.084 C3.681,1.062 3.756,1.043 3.832,1.027" id="path-41"></path>
        <path d="M4.059,0.987 L8.593,2.962 C8.517,2.972 8.441,2.986 8.365,3.002 C8.289,3.018 8.213,3.037 8.138,3.059 C8.063,3.081 7.987,3.105 7.913,3.132 C7.838,3.159 7.764,3.189 7.69,3.221 C7.359,3.364 7.052,3.556 6.776,3.787 C6.501,4.018 6.258,4.29 6.058,4.591 C5.858,4.894 5.7,5.227 5.594,5.583 C5.489,5.939 5.436,6.316 5.445,6.708 L0.921,4.719 C0.912,4.328 0.965,3.952 1.07,3.597 C1.175,3.243 1.332,2.911 1.532,2.61 C1.731,2.309 1.973,2.039 2.248,1.808 C2.522,1.578 2.829,1.387 3.159,1.245 C3.232,1.212 3.306,1.183 3.381,1.156 C3.455,1.129 3.53,1.105 3.605,1.084 C3.681,1.062 3.756,1.043 3.832,1.027" id="path-43"></path>
        <path d="M4.059,0.987 L8.593,2.962 C8.517,2.972 8.441,2.986 8.365,3.002 C8.289,3.018 8.213,3.037 8.138,3.059 C8.063,3.081 7.987,3.105 7.913,3.132 C7.838,3.159 7.764,3.189 7.69,3.221 C7.359,3.364 7.052,3.556 6.776,3.787 C6.501,4.018 6.258,4.29 6.058,4.591 C5.858,4.894 5.7,5.227 5.594,5.583 C5.489,5.939 5.436,6.316 5.445,6.708 L0.921,4.719 C0.912,4.328 0.965,3.952 1.07,3.597 C1.175,3.243 1.332,2.911 1.532,2.61 C1.731,2.309 1.973,2.039 2.248,1.808 C2.522,1.578 2.829,1.387 3.159,1.245 C3.232,1.212 3.306,1.183 3.381,1.156 C3.455,1.129 3.53,1.105 3.605,1.084 C3.681,1.062 3.756,1.043 3.832,1.027" id="path-45"></path>
        <path d="M4.059,0.987 L8.593,2.962 C8.517,2.972 8.441,2.986 8.365,3.002 C8.289,3.018 8.213,3.037 8.138,3.059 C8.063,3.081 7.987,3.105 7.913,3.132 C7.838,3.159 7.764,3.189 7.69,3.221 C7.359,3.364 7.052,3.556 6.776,3.787 C6.501,4.018 6.258,4.29 6.058,4.591 C5.858,4.894 5.7,5.227 5.594,5.583 C5.489,5.939 5.436,6.316 5.445,6.708 L0.921,4.719 C0.912,4.328 0.965,3.952 1.07,3.597 C1.175,3.243 1.332,2.911 1.532,2.61 C1.731,2.309 1.973,2.039 2.248,1.808 C2.522,1.578 2.829,1.387 3.159,1.245 C3.232,1.212 3.306,1.183 3.381,1.156 C3.455,1.129 3.53,1.105 3.605,1.084 C3.681,1.062 3.756,1.043 3.832,1.027" id="path-47"></path>
        <path d="M4.059,0.987 L8.593,2.962 C8.517,2.972 8.441,2.986 8.365,3.002 C8.289,3.018 8.213,3.037 8.138,3.059 C8.063,3.081 7.987,3.105 7.913,3.132 C7.838,3.159 7.764,3.189 7.69,3.221 C7.359,3.364 7.052,3.556 6.776,3.787 C6.501,4.018 6.258,4.29 6.058,4.591 C5.858,4.894 5.7,5.227 5.594,5.583 C5.489,5.939 5.436,6.316 5.445,6.708 L0.921,4.719 C0.912,4.328 0.965,3.952 1.07,3.597 C1.175,3.243 1.332,2.911 1.532,2.61 C1.731,2.309 1.973,2.039 2.248,1.808 C2.522,1.578 2.829,1.387 3.159,1.245 C3.232,1.212 3.306,1.183 3.381,1.156 C3.455,1.129 3.53,1.105 3.605,1.084 C3.681,1.062 3.756,1.043 3.832,1.027" id="path-49"></path>
        <path d="M4.059,0.987 L8.593,2.962 C8.517,2.972 8.441,2.986 8.365,3.002 C8.289,3.018 8.213,3.037 8.138,3.059 C8.063,3.081 7.987,3.105 7.913,3.132 C7.838,3.159 7.764,3.189 7.69,3.221 C7.359,3.364 7.052,3.556 6.776,3.787 C6.501,4.018 6.258,4.29 6.058,4.591 C5.858,4.894 5.7,5.227 5.594,5.583 C5.489,5.939 5.436,6.316 5.445,6.708 L0.921,4.719 C0.912,4.328 0.965,3.952 1.07,3.597 C1.175,3.243 1.332,2.911 1.532,2.61 C1.731,2.309 1.973,2.039 2.248,1.808 C2.522,1.578 2.829,1.387 3.159,1.245 C3.232,1.212 3.306,1.183 3.381,1.156 C3.455,1.129 3.53,1.105 3.605,1.084 C3.681,1.062 3.756,1.043 3.832,1.027" id="path-51"></path>
        <path d="M4.059,0.987 L8.593,2.962 C8.517,2.972 8.441,2.986 8.365,3.002 C8.289,3.018 8.213,3.037 8.138,3.059 C8.063,3.081 7.987,3.105 7.913,3.132 C7.838,3.159 7.764,3.189 7.69,3.221 C7.359,3.364 7.052,3.556 6.776,3.787 C6.501,4.018 6.258,4.29 6.058,4.591 C5.858,4.894 5.7,5.227 5.594,5.583 C5.489,5.939 5.436,6.316 5.445,6.708 L0.921,4.719 C0.912,4.328 0.965,3.952 1.07,3.597 C1.175,3.243 1.332,2.911 1.532,2.61 C1.731,2.309 1.973,2.039 2.248,1.808 C2.522,1.578 2.829,1.387 3.159,1.245 C3.232,1.212 3.306,1.183 3.381,1.156 C3.455,1.129 3.53,1.105 3.605,1.084 C3.681,1.062 3.756,1.043 3.832,1.027" id="path-53"></path>
        <path d="M0.069,0.559 C0.112,0.577 0.156,0.592 0.201,0.605 C0.246,0.617 0.292,0.627 0.339,0.633 C0.387,0.639 0.435,0.642 0.484,0.642 C0.533,0.642 0.583,0.638 0.633,0.631 L5.171,2.57 C5.12,2.577 5.07,2.58 5.021,2.581 C4.972,2.581 4.923,2.578 4.876,2.571 C4.829,2.565 4.782,2.556 4.737,2.543 C4.692,2.531 4.648,2.515 4.605,2.497" id="path-55"></path>
        <path d="M0.069,0.559 C0.112,0.577 0.156,0.592 0.201,0.605 C0.246,0.617 0.292,0.627 0.339,0.633 C0.387,0.639 0.435,0.642 0.484,0.642 C0.533,0.642 0.583,0.638 0.633,0.631 L5.171,2.57 C5.12,2.577 5.07,2.58 5.021,2.581 C4.972,2.581 4.923,2.578 4.876,2.571 C4.829,2.565 4.782,2.556 4.737,2.543 C4.692,2.531 4.648,2.515 4.605,2.497" id="path-57"></path>
        <path d="M1.127,0.053 L5.667,1.983 C5.766,2.025 5.857,2.082 5.939,2.152 C6.021,2.222 6.093,2.305 6.153,2.399 C6.213,2.493 6.262,2.598 6.295,2.712 C6.33,2.826 6.349,2.948 6.352,3.077 C6.356,3.261 6.326,3.441 6.268,3.608 C6.21,3.775 6.125,3.93 6.018,4.065 C5.91,4.2 5.782,4.315 5.639,4.401 C5.495,4.488 5.337,4.546 5.171,4.57 L0.633,2.631 C0.799,2.608 0.957,2.55 1.1,2.463 C1.243,2.377 1.371,2.263 1.478,2.129 C1.584,1.995 1.67,1.84 1.728,1.673 C1.785,1.507 1.815,1.328 1.811,1.145 C1.808,1.016 1.788,0.894 1.754,0.78 C1.721,0.667 1.672,0.563 1.612,0.469 C1.552,0.375 1.48,0.292 1.399,0.222" id="path-59"></path>
        <path d="M1.127,0.053 L5.667,1.983 C5.766,2.025 5.857,2.082 5.939,2.152 C6.021,2.222 6.093,2.305 6.153,2.399 C6.213,2.493 6.262,2.598 6.295,2.712 C6.33,2.826 6.349,2.948 6.352,3.077 C6.356,3.261 6.326,3.441 6.268,3.608 C6.21,3.775 6.125,3.93 6.018,4.065 C5.91,4.2 5.782,4.315 5.639,4.401 C5.495,4.488 5.337,4.546 5.171,4.57 L0.633,2.631 C0.799,2.608 0.957,2.55 1.1,2.463 C1.243,2.377 1.371,2.263 1.478,2.129 C1.584,1.995 1.67,1.84 1.728,1.673 C1.785,1.507 1.815,1.328 1.811,1.145 C1.808,1.016 1.788,0.894 1.754,0.78 C1.721,0.667 1.672,0.563 1.612,0.469 C1.552,0.375 1.48,0.292 1.399,0.222" id="path-61"></path>
        <path d="M1.127,0.053 L5.667,1.983 C5.766,2.025 5.857,2.082 5.939,2.152 C6.021,2.222 6.093,2.305 6.153,2.399 C6.213,2.493 6.262,2.598 6.295,2.712 C6.33,2.826 6.349,2.948 6.352,3.077 C6.356,3.261 6.326,3.441 6.268,3.608 C6.21,3.775 6.125,3.93 6.018,4.065 C5.91,4.2 5.782,4.315 5.639,4.401 C5.495,4.488 5.337,4.546 5.171,4.57 L0.633,2.631 C0.799,2.608 0.957,2.55 1.1,2.463 C1.243,2.377 1.371,2.263 1.478,2.129 C1.584,1.995 1.67,1.84 1.728,1.673 C1.785,1.507 1.815,1.328 1.811,1.145 C1.808,1.016 1.788,0.894 1.754,0.78 C1.721,0.667 1.672,0.563 1.612,0.469 C1.552,0.375 1.48,0.292 1.399,0.222" id="path-63"></path>
        <path d="M1.127,0.053 L5.667,1.983 C5.766,2.025 5.857,2.082 5.939,2.152 C6.021,2.222 6.093,2.305 6.153,2.399 C6.213,2.493 6.262,2.598 6.295,2.712 C6.33,2.826 6.349,2.948 6.352,3.077 C6.356,3.261 6.326,3.441 6.268,3.608 C6.21,3.775 6.125,3.93 6.018,4.065 C5.91,4.2 5.782,4.315 5.639,4.401 C5.495,4.488 5.337,4.546 5.171,4.57 L0.633,2.631 C0.799,2.608 0.957,2.55 1.1,2.463 C1.243,2.377 1.371,2.263 1.478,2.129 C1.584,1.995 1.67,1.84 1.728,1.673 C1.785,1.507 1.815,1.328 1.811,1.145 C1.808,1.016 1.788,0.894 1.754,0.78 C1.721,0.667 1.672,0.563 1.612,0.469 C1.552,0.375 1.48,0.292 1.399,0.222" id="path-65"></path>
        <path d="M1.127,0.053 L5.667,1.983 C5.766,2.025 5.857,2.082 5.939,2.152 C6.021,2.222 6.093,2.305 6.153,2.399 C6.213,2.493 6.262,2.598 6.295,2.712 C6.33,2.826 6.349,2.948 6.352,3.077 C6.356,3.261 6.326,3.441 6.268,3.608 C6.21,3.775 6.125,3.93 6.018,4.065 C5.91,4.2 5.782,4.315 5.639,4.401 C5.495,4.488 5.337,4.546 5.171,4.57 L0.633,2.631 C0.799,2.608 0.957,2.55 1.1,2.463 C1.243,2.377 1.371,2.263 1.478,2.129 C1.584,1.995 1.67,1.84 1.728,1.673 C1.785,1.507 1.815,1.328 1.811,1.145 C1.808,1.016 1.788,0.894 1.754,0.78 C1.721,0.667 1.672,0.563 1.612,0.469 C1.552,0.375 1.48,0.292 1.399,0.222" id="path-67"></path>
        <path d="M1.127,0.053 L5.667,1.983 C5.766,2.025 5.857,2.082 5.939,2.152 C6.021,2.222 6.093,2.305 6.153,2.399 C6.213,2.493 6.262,2.598 6.295,2.712 C6.33,2.826 6.349,2.948 6.352,3.077 C6.356,3.261 6.326,3.441 6.268,3.608 C6.21,3.775 6.125,3.93 6.018,4.065 C5.91,4.2 5.782,4.315 5.639,4.401 C5.495,4.488 5.337,4.546 5.171,4.57 L0.633,2.631 C0.799,2.608 0.957,2.55 1.1,2.463 C1.243,2.377 1.371,2.263 1.478,2.129 C1.584,1.995 1.67,1.84 1.728,1.673 C1.785,1.507 1.815,1.328 1.811,1.145 C1.808,1.016 1.788,0.894 1.754,0.78 C1.721,0.667 1.672,0.563 1.612,0.469 C1.552,0.375 1.48,0.292 1.399,0.222" id="path-69"></path>
        <path d="M1.127,0.053 L5.667,1.983 C5.766,2.025 5.857,2.082 5.939,2.152 C6.021,2.222 6.093,2.305 6.153,2.399 C6.213,2.493 6.262,2.598 6.295,2.712 C6.33,2.826 6.349,2.948 6.352,3.077 C6.356,3.261 6.326,3.441 6.268,3.608 C6.21,3.775 6.125,3.93 6.018,4.065 C5.91,4.2 5.782,4.315 5.639,4.401 C5.495,4.488 5.337,4.546 5.171,4.57 L0.633,2.631 C0.799,2.608 0.957,2.55 1.1,2.463 C1.243,2.377 1.371,2.263 1.478,2.129 C1.584,1.995 1.67,1.84 1.728,1.673 C1.785,1.507 1.815,1.328 1.811,1.145 C1.808,1.016 1.788,0.894 1.754,0.78 C1.721,0.667 1.672,0.563 1.612,0.469 C1.552,0.375 1.48,0.292 1.399,0.222" id="path-71"></path>
        <path d="M10.612,0.164 L15.17,2.08 C14.893,2.068 14.584,2.067 14.258,2.075 C13.932,2.084 13.59,2.101 13.249,2.124 C12.907,2.148 12.566,2.177 12.242,2.211 C11.917,2.244 11.609,2.281 11.334,2.318 C11.058,2.359 10.785,2.405 10.517,2.456 C10.248,2.506 9.984,2.562 9.726,2.623 C9.468,2.683 9.215,2.748 8.97,2.816 C8.724,2.885 8.484,2.958 8.252,3.034 C7.573,3.257 7.033,3.498 6.607,3.764 C6.181,4.031 5.869,4.323 5.643,4.651 C5.416,4.979 5.276,5.341 5.196,5.747 C5.116,6.153 5.095,6.603 5.106,7.106 L0.578,5.167 C0.565,4.667 0.586,4.218 0.666,3.814 C0.746,3.409 0.885,3.048 1.111,2.722 C1.336,2.396 1.648,2.104 2.073,1.838 C2.498,1.573 3.035,1.334 3.713,1.111 C3.944,1.036 4.183,0.963 4.428,0.895 C4.673,0.827 4.925,0.762 5.183,0.702 C5.44,0.642 5.703,0.587 5.971,0.536 C6.238,0.485 6.511,0.44 6.787,0.4 C7.061,0.362 7.367,0.326 7.691,0.293 C8.015,0.26 8.355,0.23 8.695,0.207 C9.036,0.184 9.377,0.167 9.702,0.159" id="path-73"></path>
        <path d="M10.612,0.164 L15.17,2.08 C14.893,2.068 14.584,2.067 14.258,2.075 C13.932,2.084 13.59,2.101 13.249,2.124 C12.907,2.148 12.566,2.177 12.242,2.211 C11.917,2.244 11.609,2.281 11.334,2.318 C11.058,2.359 10.785,2.405 10.517,2.456 C10.248,2.506 9.984,2.562 9.726,2.623 C9.468,2.683 9.215,2.748 8.97,2.816 C8.724,2.885 8.484,2.958 8.252,3.034 C7.573,3.257 7.033,3.498 6.607,3.764 C6.181,4.031 5.869,4.323 5.643,4.651 C5.416,4.979 5.276,5.341 5.196,5.747 C5.116,6.153 5.095,6.603 5.106,7.106 L0.578,5.167 C0.565,4.667 0.586,4.218 0.666,3.814 C0.746,3.409 0.885,3.048 1.111,2.722 C1.336,2.396 1.648,2.104 2.073,1.838 C2.498,1.573 3.035,1.334 3.713,1.111 C3.944,1.036 4.183,0.963 4.428,0.895 C4.673,0.827 4.925,0.762 5.183,0.702 C5.44,0.642 5.703,0.587 5.971,0.536 C6.238,0.485 6.511,0.44 6.787,0.4 C7.061,0.362 7.367,0.326 7.691,0.293 C8.015,0.26 8.355,0.23 8.695,0.207 C9.036,0.184 9.377,0.167 9.702,0.159" id="path-75"></path>
        <path d="M10.612,0.164 L15.17,2.08 C14.893,2.068 14.584,2.067 14.258,2.075 C13.932,2.084 13.59,2.101 13.249,2.124 C12.907,2.148 12.566,2.177 12.242,2.211 C11.917,2.244 11.609,2.281 11.334,2.318 C11.058,2.359 10.785,2.405 10.517,2.456 C10.248,2.506 9.984,2.562 9.726,2.623 C9.468,2.683 9.215,2.748 8.97,2.816 C8.724,2.885 8.484,2.958 8.252,3.034 C7.573,3.257 7.033,3.498 6.607,3.764 C6.181,4.031 5.869,4.323 5.643,4.651 C5.416,4.979 5.276,5.341 5.196,5.747 C5.116,6.153 5.095,6.603 5.106,7.106 L0.578,5.167 C0.565,4.667 0.586,4.218 0.666,3.814 C0.746,3.409 0.885,3.048 1.111,2.722 C1.336,2.396 1.648,2.104 2.073,1.838 C2.498,1.573 3.035,1.334 3.713,1.111 C3.944,1.036 4.183,0.963 4.428,0.895 C4.673,0.827 4.925,0.762 5.183,0.702 C5.44,0.642 5.703,0.587 5.971,0.536 C6.238,0.485 6.511,0.44 6.787,0.4 C7.061,0.362 7.367,0.326 7.691,0.293 C8.015,0.26 8.355,0.23 8.695,0.207 C9.036,0.184 9.377,0.167 9.702,0.159" id="path-77"></path>
        <path d="M10.612,0.164 L15.17,2.08 C14.893,2.068 14.584,2.067 14.258,2.075 C13.932,2.084 13.59,2.101 13.249,2.124 C12.907,2.148 12.566,2.177 12.242,2.211 C11.917,2.244 11.609,2.281 11.334,2.318 C11.058,2.359 10.785,2.405 10.517,2.456 C10.248,2.506 9.984,2.562 9.726,2.623 C9.468,2.683 9.215,2.748 8.97,2.816 C8.724,2.885 8.484,2.958 8.252,3.034 C7.573,3.257 7.033,3.498 6.607,3.764 C6.181,4.031 5.869,4.323 5.643,4.651 C5.416,4.979 5.276,5.341 5.196,5.747 C5.116,6.153 5.095,6.603 5.106,7.106 L0.578,5.167 C0.565,4.667 0.586,4.218 0.666,3.814 C0.746,3.409 0.885,3.048 1.111,2.722 C1.336,2.396 1.648,2.104 2.073,1.838 C2.498,1.573 3.035,1.334 3.713,1.111 C3.944,1.036 4.183,0.963 4.428,0.895 C4.673,0.827 4.925,0.762 5.183,0.702 C5.44,0.642 5.703,0.587 5.971,0.536 C6.238,0.485 6.511,0.44 6.787,0.4 C7.061,0.362 7.367,0.326 7.691,0.293 C8.015,0.26 8.355,0.23 8.695,0.207 C9.036,0.184 9.377,0.167 9.702,0.159" id="path-79"></path>
        <path d="M10.612,0.164 L15.17,2.08 C14.893,2.068 14.584,2.067 14.258,2.075 C13.932,2.084 13.59,2.101 13.249,2.124 C12.907,2.148 12.566,2.177 12.242,2.211 C11.917,2.244 11.609,2.281 11.334,2.318 C11.058,2.359 10.785,2.405 10.517,2.456 C10.248,2.506 9.984,2.562 9.726,2.623 C9.468,2.683 9.215,2.748 8.97,2.816 C8.724,2.885 8.484,2.958 8.252,3.034 C7.573,3.257 7.033,3.498 6.607,3.764 C6.181,4.031 5.869,4.323 5.643,4.651 C5.416,4.979 5.276,5.341 5.196,5.747 C5.116,6.153 5.095,6.603 5.106,7.106 L0.578,5.167 C0.565,4.667 0.586,4.218 0.666,3.814 C0.746,3.409 0.885,3.048 1.111,2.722 C1.336,2.396 1.648,2.104 2.073,1.838 C2.498,1.573 3.035,1.334 3.713,1.111 C3.944,1.036 4.183,0.963 4.428,0.895 C4.673,0.827 4.925,0.762 5.183,0.702 C5.44,0.642 5.703,0.587 5.971,0.536 C6.238,0.485 6.511,0.44 6.787,0.4 C7.061,0.362 7.367,0.326 7.691,0.293 C8.015,0.26 8.355,0.23 8.695,0.207 C9.036,0.184 9.377,0.167 9.702,0.159" id="path-81"></path>
        <path d="M10.612,0.164 L15.17,2.08 C14.893,2.068 14.584,2.067 14.258,2.075 C13.932,2.084 13.59,2.101 13.249,2.124 C12.907,2.148 12.566,2.177 12.242,2.211 C11.917,2.244 11.609,2.281 11.334,2.318 C11.058,2.359 10.785,2.405 10.517,2.456 C10.248,2.506 9.984,2.562 9.726,2.623 C9.468,2.683 9.215,2.748 8.97,2.816 C8.724,2.885 8.484,2.958 8.252,3.034 C7.573,3.257 7.033,3.498 6.607,3.764 C6.181,4.031 5.869,4.323 5.643,4.651 C5.416,4.979 5.276,5.341 5.196,5.747 C5.116,6.153 5.095,6.603 5.106,7.106 L0.578,5.167 C0.565,4.667 0.586,4.218 0.666,3.814 C0.746,3.409 0.885,3.048 1.111,2.722 C1.336,2.396 1.648,2.104 2.073,1.838 C2.498,1.573 3.035,1.334 3.713,1.111 C3.944,1.036 4.183,0.963 4.428,0.895 C4.673,0.827 4.925,0.762 5.183,0.702 C5.44,0.642 5.703,0.587 5.971,0.536 C6.238,0.485 6.511,0.44 6.787,0.4 C7.061,0.362 7.367,0.326 7.691,0.293 C8.015,0.26 8.355,0.23 8.695,0.207 C9.036,0.184 9.377,0.167 9.702,0.159" id="path-83"></path>
        <path d="M10.612,0.164 L15.17,2.08 C14.893,2.068 14.584,2.067 14.258,2.075 C13.932,2.084 13.59,2.101 13.249,2.124 C12.907,2.148 12.566,2.177 12.242,2.211 C11.917,2.244 11.609,2.281 11.334,2.318 C11.058,2.359 10.785,2.405 10.517,2.456 C10.248,2.506 9.984,2.562 9.726,2.623 C9.468,2.683 9.215,2.748 8.97,2.816 C8.724,2.885 8.484,2.958 8.252,3.034 C7.573,3.257 7.033,3.498 6.607,3.764 C6.181,4.031 5.869,4.323 5.643,4.651 C5.416,4.979 5.276,5.341 5.196,5.747 C5.116,6.153 5.095,6.603 5.106,7.106 L0.578,5.167 C0.565,4.667 0.586,4.218 0.666,3.814 C0.746,3.409 0.885,3.048 1.111,2.722 C1.336,2.396 1.648,2.104 2.073,1.838 C2.498,1.573 3.035,1.334 3.713,1.111 C3.944,1.036 4.183,0.963 4.428,0.895 C4.673,0.827 4.925,0.762 5.183,0.702 C5.44,0.642 5.703,0.587 5.971,0.536 C6.238,0.485 6.511,0.44 6.787,0.4 C7.061,0.362 7.367,0.326 7.691,0.293 C8.015,0.26 8.355,0.23 8.695,0.207 C9.036,0.184 9.377,0.167 9.702,0.159" id="path-85"></path>
        <path d="M0.152,0.773 L4.659,2.755 C4.663,2.937 4.671,3.116 4.684,3.294 C4.696,3.471 4.712,3.646 4.731,3.818 C4.751,3.99 4.775,4.159 4.802,4.326 C4.829,4.492 4.859,4.655 4.894,4.816 C5.008,5.354 5.162,5.858 5.349,6.323 C5.536,6.787 5.756,7.21 6.004,7.585 C6.252,7.96 6.527,8.286 6.826,8.556 C7.124,8.826 7.444,9.04 7.781,9.19 C7.646,9.129 7.464,9.048 7.329,8.988 C7.261,8.958 7.17,8.918 7.103,8.888 C6.967,8.828 6.786,8.747 6.65,8.687 C6.515,8.627 6.334,8.546 6.198,8.486 C6.13,8.457 6.04,8.416 5.972,8.386 C5.837,8.326 5.656,8.246 5.521,8.186 C5.386,8.126 5.205,8.046 5.07,7.985 C5.002,7.956 4.912,7.916 4.844,7.885 C4.709,7.825 4.529,7.746 4.394,7.686 C4.259,7.626 4.079,7.546 3.944,7.485 C3.876,7.456 3.786,7.416 3.719,7.386 C3.584,7.326 3.404,7.246 3.269,7.186 C2.933,7.037 2.613,6.824 2.315,6.554 C2.018,6.285 1.743,5.96 1.496,5.587 C1.248,5.213 1.028,4.791 0.842,4.328 C0.655,3.866 0.502,3.362 0.387,2.826 C0.353,2.667 0.322,2.504 0.295,2.338 C0.269,2.172 0.245,2.004 0.225,1.832 C0.206,1.661 0.189,1.486 0.177,1.31" id="path-87"></path>
        <path d="M4.485,0.861 L9.007,2.814 C8.386,2.9 7.799,3.185 7.269,3.628 C6.738,4.07 6.264,4.67 5.871,5.386 C5.478,6.103 5.164,6.936 4.955,7.844 C4.745,8.753 4.639,9.737 4.659,10.755 L0.152,8.773 C0.131,7.758 0.237,6.778 0.446,5.873 C0.654,4.968 0.966,4.138 1.358,3.424 C1.751,2.71 2.223,2.112 2.751,1.671" id="path-89"></path>
        <path d="M4.485,0.861 L9.007,2.814 C8.386,2.9 7.799,3.185 7.269,3.628 C6.738,4.07 6.264,4.67 5.871,5.386 C5.478,6.103 5.164,6.936 4.955,7.844 C4.745,8.753 4.639,9.737 4.659,10.755 L0.152,8.773 C0.131,7.758 0.237,6.778 0.446,5.873 C0.654,4.968 0.966,4.138 1.358,3.424 C1.751,2.71 2.223,2.112 2.751,1.671" id="path-91"></path>
        <path d="M4.485,0.861 L9.007,2.814 C8.386,2.9 7.799,3.185 7.269,3.628 C6.738,4.07 6.264,4.67 5.871,5.386 C5.478,6.103 5.164,6.936 4.955,7.844 C4.745,8.753 4.639,9.737 4.659,10.755 L0.152,8.773 C0.131,7.758 0.237,6.778 0.446,5.873 C0.654,4.968 0.966,4.138 1.358,3.424 C1.751,2.71 2.223,2.112 2.751,1.671" id="path-93"></path>
        <path d="M4.485,0.861 L9.007,2.814 C8.386,2.9 7.799,3.185 7.269,3.628 C6.738,4.07 6.264,4.67 5.871,5.386 C5.478,6.103 5.164,6.936 4.955,7.844 C4.745,8.753 4.639,9.737 4.659,10.755 L0.152,8.773 C0.131,7.758 0.237,6.778 0.446,5.873 C0.654,4.968 0.966,4.138 1.358,3.424 C1.751,2.71 2.223,2.112 2.751,1.671" id="path-95"></path>
        <path d="M4.485,0.861 L9.007,2.814 C8.386,2.9 7.799,3.185 7.269,3.628 C6.738,4.07 6.264,4.67 5.871,5.386 C5.478,6.103 5.164,6.936 4.955,7.844 C4.745,8.753 4.639,9.737 4.659,10.755 L0.152,8.773 C0.131,7.758 0.237,6.778 0.446,5.873 C0.654,4.968 0.966,4.138 1.358,3.424 C1.751,2.71 2.223,2.112 2.751,1.671" id="path-97"></path>
        <path d="M4.485,0.861 L9.007,2.814 C8.386,2.9 7.799,3.185 7.269,3.628 C6.738,4.07 6.264,4.67 5.871,5.386 C5.478,6.103 5.164,6.936 4.955,7.844 C4.745,8.753 4.639,9.737 4.659,10.755 L0.152,8.773 C0.131,7.758 0.237,6.778 0.446,5.873 C0.654,4.968 0.966,4.138 1.358,3.424 C1.751,2.71 2.223,2.112 2.751,1.671" id="path-99"></path>
        <path d="M4.485,0.861 L9.007,2.814 C8.386,2.9 7.799,3.185 7.269,3.628 C6.738,4.07 6.264,4.67 5.871,5.386 C5.478,6.103 5.164,6.936 4.955,7.844 C4.745,8.753 4.639,9.737 4.659,10.755 L0.152,8.773 C0.131,7.758 0.237,6.778 0.446,5.873 C0.654,4.968 0.966,4.138 1.358,3.424 C1.751,2.71 2.223,2.112 2.751,1.671" id="path-101"></path>
    </defs>
    <g id="工作空间项目-开发中心-具体工作流" stroke="none" stroke-width="1" fill="none" fill-rule="evenodd">
        <g id="侧边栏icon" transform="translate(-108.000000, -119.000000)">
            <g id="python" transform="translate(106.000000, 117.000000)">
                <g id="编组-32">
                    <rect id="矩形" x="0" y="0" width="36" height="36"></rect>
                </g>
                <g id="编组" transform="translate(2.000000, 2.000000)">
                    <g transform="translate(16.000000, 24.000000)">
                        <g>
                            <mask id="mask-2" fill="white">
                                <use xlink:href="#path-1"></use>
                            </mask>
                            <g id="Clip-28"></g>
                            <path d="M5.334,4.546 L0.787,2.537 C0.8,2.543 0.814,2.549 0.828,2.554 C0.842,2.56 0.856,2.565 0.871,2.569 C0.885,2.574 0.899,2.579 0.914,2.583 C0.928,2.588 0.943,2.591 0.958,2.595 L5.505,4.604 L5.461,4.592 C5.447,4.588 5.432,4.584 5.418,4.579 C5.404,4.574 5.39,4.568 5.376,4.563 C5.361,4.558 5.348,4.552 5.334,4.546" id="Fill-27" fill="#A29CF9" mask="url(#mask-2)"></path>
                        </g>
                        <g>
                            <mask id="mask-4" fill="white">
                                <use xlink:href="#path-3"></use>
                            </mask>
                            <g id="Clip-30"></g>
                            <path d="M5.5054,4.6041 L0.9574,2.5951 C0.9894,2.6031 1.0214,2.6081 1.0544,2.6131 C1.0874,2.6181 1.1204,2.6211 1.1534,2.6231 C1.1874,2.6241 1.2214,2.6241 1.2564,2.6221 C1.2904,2.6211 1.3254,2.6171 1.3604,2.6121 C1.3894,2.6081 1.4174,2.6031 1.4444,2.5971 C1.4724,2.5911 1.4994,2.5841 1.5264,2.5761 C1.5534,2.5681 1.5804,2.5591 1.6064,2.5491 C1.6324,2.5391 1.6584,2.5281 1.6844,2.5171 L6.2344,4.5251 C6.2084,4.5371 6.1824,4.5471 6.1554,4.5581 C6.1294,4.5671 6.1034,4.5771 6.0754,4.5841 C6.0484,4.5931 6.0214,4.6001 5.9934,4.6061 C5.9654,4.6121 5.9384,4.6171 5.9094,4.6211 C5.8744,4.6261 5.8394,4.6291 5.8044,4.6311 C5.7704,4.6331 5.7354,4.6331 5.7024,4.6311 C5.6684,4.6301 5.6354,4.6271 5.6024,4.6221 C5.5694,4.6181 5.5374,4.6111 5.5054,4.6041" id="Fill-29" fill="#9F99F9" mask="url(#mask-4)"></path>
                        </g>
                        <g>
                            <mask id="mask-6" fill="white">
                                <use xlink:href="#path-5"></use>
                            </mask>
                            <g id="Clip-32"></g>
                            <path d="M6.2344,4.525 L1.6844,2.517 C1.7044,2.507 1.7234,2.498 1.7434,2.488 C1.7624,2.478 1.7814,2.467 1.8004,2.456 C1.8184,2.445 1.8374,2.434 1.8554,2.421 C1.8744,2.41 1.8924,2.397 1.9094,2.384 L6.4604,4.392 C6.4424,4.405 6.4244,4.418 6.4054,4.43 C6.3874,4.442 6.3694,4.453 6.3504,4.464 C6.3314,4.476 6.3124,4.486 6.2934,4.496 C6.2734,4.506 6.2544,4.516 6.2344,4.525" id="Fill-31" fill="#A29CF9" mask="url(#mask-6)"></path>
                        </g>
                        <g>
                            <mask id="mask-8" fill="white">
                                <use xlink:href="#path-7"></use>
                            </mask>
                            <g id="Clip-34"></g>
                            <path d="M6.46,4.3922 L1.91,2.3842 C1.924,2.3742 1.938,2.3632 1.952,2.3522 C1.965,2.3412 1.979,2.3302 1.992,2.3192 C2.006,2.3082 2.019,2.2962 2.032,2.2842 C2.045,2.2722 2.058,2.2602 2.07,2.2472 L6.622,4.2542 C6.609,4.2672 6.596,4.2792 6.583,4.2912 C6.57,4.3032 6.557,4.3152 6.543,4.3272 C6.53,4.3382 6.516,4.3492 6.502,4.3602 C6.488,4.3712 6.474,4.3822 6.46,4.3922" id="Fill-33" fill="#A59FF9" mask="url(#mask-8)"></path>
                        </g>
                        <g>
                            <mask id="mask-10" fill="white">
                                <use xlink:href="#path-9"></use>
                            </mask>
                            <g id="Clip-36"></g>
                            <path d="M6.6216,4.2545 L2.0706,2.2475 C2.0826,2.2355 2.0946,2.2235 2.1056,2.2115 C2.1176,2.1985 2.1286,2.1865 2.1396,2.1735 C2.1506,2.1615 2.1616,2.1485 2.1726,2.1355 C2.1836,2.1225 2.1936,2.1085 2.2046,2.0955 L6.7556,4.1025 C6.7456,4.1155 6.7346,4.1295 6.7236,4.1425 C6.7126,4.1555 6.7026,4.1685 6.6906,4.1805 C6.6796,4.1935 6.6686,4.2065 6.6566,4.2185 C6.6446,4.2305 6.6336,4.2425 6.6216,4.2545" id="Fill-35" fill="#A8A2F9" mask="url(#mask-10)"></path>
                        </g>
                        <g>
                            <mask id="mask-12" fill="white">
                                <use xlink:href="#path-11"></use>
                            </mask>
                            <g id="Clip-38"></g>
                            <path d="M6.7554,4.1021 L2.2044,2.0951 C2.2144,2.0811 2.2254,2.0671 2.2354,2.0531 C2.2464,2.0391 2.2554,2.0241 2.2654,2.0091 C2.2754,1.9941 2.2854,1.9791 2.2944,1.9641 C2.3034,1.9491 2.3124,1.9341 2.3214,1.9181 L6.8734,3.9241 C6.8644,3.9401 6.8554,3.9561 6.8464,3.9711 C6.8364,3.9861 6.8274,4.0011 6.8174,4.0161 C6.8074,4.0301 6.7974,4.0451 6.7874,4.0601 C6.7764,4.0741 6.7664,4.0881 6.7554,4.1021" id="Fill-37" fill="#ABA5F9" mask="url(#mask-12)"></path>
                        </g>
                        <g>
                            <mask id="mask-14" fill="white">
                                <use xlink:href="#path-13"></use>
                            </mask>
                            <g id="Clip-40"></g>
                            <path d="M6.8731,3.9244 L2.3211,1.9184 C2.3311,1.9004 2.3421,1.8824 2.3511,1.8634 C2.3611,1.8454 2.3701,1.8264 2.3791,1.8074 C2.3881,1.7894 2.3961,1.7704 2.4041,1.7504 C2.4121,1.7314 2.4201,1.7124 2.4271,1.6924 L6.9791,3.6974 C6.9721,3.7174 6.9641,3.7374 6.9561,3.7564 C6.9481,3.7754 6.9391,3.7944 6.9311,3.8134 C6.9221,3.8324 6.9131,3.8514 6.9031,3.8694 C6.8941,3.8884 6.8831,3.9064 6.8731,3.9244" id="Fill-39" fill="#AEA9FA" mask="url(#mask-14)"></path>
                        </g>
                        <g>
                            <mask id="mask-16" fill="white">
                                <use xlink:href="#path-15"></use>
                            </mask>
                            <g id="Clip-42"></g>
                            <path d="M6.9795,3.6974 L2.4275,1.6924 C2.4435,1.6474 2.4585,1.6014 2.4715,1.5554 C2.4835,1.5094 2.4945,1.4624 2.5025,1.4144 C2.5115,1.3664 2.5175,1.3174 2.5215,1.2684 C2.5245,1.2194 2.5255,1.1704 2.5245,1.1214 C2.5215,0.9954 2.5035,0.8754 2.4715,0.7644 C2.4385,0.6544 2.3935,0.5524 2.3355,0.4604 C2.2785,0.3684 2.2095,0.2874 2.1305,0.2194 C2.0525,0.1504 1.9645,0.0944 1.8705,0.0524 L6.4215,2.0524 C6.5165,2.0944 6.6045,2.1504 6.6835,2.2194 C6.7615,2.2884 6.8305,2.3694 6.8885,2.4614 C6.9455,2.5534 6.9915,2.6554 7.0235,2.7664 C7.0565,2.8784 7.0745,2.9974 7.0775,3.1244 C7.0785,3.1744 7.0775,3.2234 7.0735,3.2724 C7.0695,3.3214 7.0635,3.3704 7.0555,3.4184 C7.0465,3.4664 7.0365,3.5134 7.0235,3.5604 C7.0115,3.6064 6.9965,3.6524 6.9795,3.6974" id="Fill-41" fill="#B1ACFA" mask="url(#mask-16)"></path>
                        </g>
                    </g>
                    <g transform="translate(22.000000, 6.000000)">
                        <g>
                            <mask id="mask-18" fill="white">
                                <use xlink:href="#path-17"></use>
                            </mask>
                            <g id="Clip-44"></g>
                            <path d="M4.6948,2.3502 L0.1248,0.4142 C0.2148,0.4022 0.3038,0.3932 0.3918,0.3902 C0.4808,0.3862 0.5688,0.3862 0.6558,0.3912 C0.7438,0.3952 0.8308,0.4042 0.9168,0.4172 C1.0028,0.4302 1.0878,0.4472 1.1718,0.4672 L5.7448,2.4032 C5.6608,2.3822 5.5748,2.3652 5.4888,2.3522 C5.4028,2.3402 5.3158,2.3312 5.2288,2.3272 C5.1408,2.3222 5.0518,2.3222 4.9638,2.3262 C4.8748,2.3292 4.7848,2.3372 4.6948,2.3502" id="Fill-43" fill="#9F99F9" mask="url(#mask-18)"></path>
                        </g>
                        <g>
                            <mask id="mask-20" fill="white">
                                <use xlink:href="#path-19"></use>
                            </mask>
                            <g id="Clip-46"></g>
                            <path d="M5.7451,2.4029 L1.1721,0.4669 C1.2091,0.4769 1.2461,0.4869 1.2841,0.4979 C1.3211,0.5079 1.3571,0.5199 1.3941,0.5319 C1.4311,0.5439 1.4671,0.5569 1.5041,0.5709 C1.5401,0.5849 1.5761,0.5989 1.6121,0.6139 L6.1871,2.5499 C6.1511,2.5349 6.1141,2.5209 6.0781,2.5069 C6.0411,2.4929 6.0051,2.4799 5.9681,2.4669 C5.9321,2.4549 5.8941,2.4439 5.8571,2.4329 C5.8201,2.4229 5.7831,2.4119 5.7451,2.4029" id="Fill-45" fill="#A29CF9" mask="url(#mask-20)"></path>
                        </g>
                    </g>
                    <polygon id="Fill-47" fill="#A19BF9" points="25.7163 11.5826 21.1493 9.6346 21.0813 6.5596 25.6493 8.4956"></polygon>
                    <polygon id="Fill-49" fill="#867EF7" points="25.6494 8.4957 21.0814 6.5587 22.1244 6.4137 26.6944 8.3497"></polygon>
                    <polygon id="Fill-51" fill="#857DF7" points="18.2227 25.3668 13.6817 23.3678 20.3247 22.4238 24.8827 24.4168"></polygon>
                    <g transform="translate(17.000000, 9.000000)">
                        <g>
                            <mask id="mask-22" fill="white">
                                <use xlink:href="#path-21"></use>
                            </mask>
                            <g id="Clip-54"></g>
                            <path d="M4.812,7.9444 L0.258,5.9764 C0.306,5.9694 0.354,5.9624 0.402,5.9544 C0.449,5.9454 0.497,5.9374 0.545,5.9274 C0.593,5.9174 0.641,5.9064 0.688,5.8934 C0.736,5.8814 0.783,5.8674 0.831,5.8524 C0.869,5.8404 0.907,5.8274 0.945,5.8144 C0.983,5.8014 1.02,5.7874 1.058,5.7734 C1.096,5.7584 1.133,5.7434 1.17,5.7284 C1.207,5.7124 1.244,5.6964 1.281,5.6794 L5.837,7.6464 C5.801,7.6634 5.764,7.6794 5.726,7.6944 C5.689,7.7104 5.651,7.7254 5.614,7.7404 C5.576,7.7544 5.539,7.7684 5.5,7.7814 C5.463,7.7954 5.425,7.8074 5.386,7.8194 C5.338,7.8354 5.291,7.8484 5.243,7.8614 C5.195,7.8734 5.147,7.8844 5.1,7.8954 C5.052,7.9044 5.004,7.9144 4.956,7.9224 C4.908,7.9304 4.86,7.9374 4.812,7.9444" id="Fill-53" fill="#9F99F9" mask="url(#mask-22)"></path>
                        </g>
                        <g>
                            <mask id="mask-24" fill="white">
                                <use xlink:href="#path-23"></use>
                            </mask>
                            <g id="Clip-56"></g>
                            <path d="M5.8374,7.6466 L1.2804,5.6796 C1.3444,5.6506 1.4074,5.6206 1.4704,5.5876 C1.5324,5.5556 1.5944,5.5216 1.6554,5.4846 C1.7164,5.4496 1.7774,5.4116 1.8374,5.3726 C1.8974,5.3336 1.9554,5.2926 2.0144,5.2506 L6.5724,7.2156 C6.5144,7.2576 6.4554,7.2986 6.3954,7.3376 C6.3354,7.3766 6.2744,7.4146 6.2134,7.4506 C6.1514,7.4866 6.0894,7.5216 6.0274,7.5536 C5.9644,7.5866 5.9014,7.6176 5.8374,7.6466" id="Fill-55" fill="#A29CF9" mask="url(#mask-24)"></path>
                        </g>
                        <g>
                            <mask id="mask-26" fill="white">
                                <use xlink:href="#path-25"></use>
                            </mask>
                            <g id="Clip-58"></g>
                            <path d="M6.5728,7.2154 L2.0138,5.2504 C2.0608,5.2164 2.1068,5.1814 2.1528,5.1454 C2.1988,5.1094 2.2438,5.0724 2.2878,5.0344 C2.3328,4.9964 2.3768,4.9574 2.4208,4.9184 C2.4638,4.8784 2.5068,4.8374 2.5488,4.7954 L7.1098,6.7584 C7.0668,6.8004 7.0238,6.8414 6.9808,6.8814 C6.9368,6.9214 6.8928,6.9604 6.8478,6.9984 C6.8028,7.0364 6.7578,7.0734 6.7118,7.1104 C6.6658,7.1464 6.6198,7.1814 6.5728,7.2154" id="Fill-57" fill="#A59FF9" mask="url(#mask-26)"></path>
                        </g>
                        <g>
                            <mask id="mask-28" fill="white">
                                <use xlink:href="#path-27"></use>
                            </mask>
                            <g id="Clip-60"></g>
                            <path d="M7.1094,6.7584 L2.5484,4.7954 C2.5884,4.7564 2.6284,4.7164 2.6674,4.6754 C2.7054,4.6334 2.7434,4.5914 2.7814,4.5494 C2.8184,4.5074 2.8564,4.4634 2.8924,4.4194 C2.9284,4.3754 2.9644,4.3304 2.9994,4.2844 L7.5614,6.2454 C7.5264,6.2914 7.4904,6.3364 7.4534,6.3804 C7.4174,6.4254 7.3804,6.4684 7.3424,6.5114 C7.3044,6.5544 7.2664,6.5964 7.2274,6.6374 C7.1894,6.6784 7.1494,6.7184 7.1094,6.7584" id="Fill-59" fill="#A8A2F9" mask="url(#mask-28)"></path>
                        </g>
                        <g>
                            <mask id="mask-30" fill="white">
                                <use xlink:href="#path-29"></use>
                            </mask>
                            <g id="Clip-62"></g>
                            <path d="M7.5611,6.2452 L2.9991,4.2842 C3.0361,4.2372 3.0721,4.1882 3.1061,4.1402 C3.1421,4.0912 3.1761,4.0402 3.2091,3.9902 C3.2431,3.9392 3.2761,3.8882 3.3081,3.8362 C3.3401,3.7842 3.3721,3.7312 3.4021,3.6782 L7.9651,5.6362 C7.9351,5.6902 7.9031,5.7432 7.8711,5.7952 C7.8391,5.8482 7.8061,5.8992 7.7721,5.9502 C7.7381,6.0012 7.7041,6.0512 7.6691,6.1002 C7.6341,6.1492 7.5981,6.1982 7.5611,6.2452" id="Fill-61" fill="#ABA5F9" mask="url(#mask-30)"></path>
                        </g>
                        <g>
                            <mask id="mask-32" fill="white">
                                <use xlink:href="#path-31"></use>
                            </mask>
                            <g id="Clip-64"></g>
                            <path d="M7.9653,5.6363 L3.4023,3.6783 C3.4383,3.6143 3.4723,3.5503 3.5063,3.4853 C3.5403,3.4203 3.5723,3.3543 3.6043,3.2863 C3.6353,3.2193 3.6653,3.1523 3.6943,3.0833 C3.7233,3.0143 3.7513,2.9443 3.7783,2.8733 L8.3423,4.8293 C8.3163,4.9003 8.2883,4.9703 8.2583,5.0393 C8.2303,5.1083 8.1993,5.1773 8.1683,5.2443 C8.1363,5.3113 8.1043,5.3773 8.0693,5.4433 C8.0363,5.5083 8.0013,5.5733 7.9653,5.6363" id="Fill-63" fill="#AEA9FA" mask="url(#mask-32)"></path>
                        </g>
                        <g>
                            <mask id="mask-34" fill="white">
                                <use xlink:href="#path-33"></use>
                            </mask>
                            <g id="Clip-66"></g>
                            <path d="M8.3423,4.8292 L3.7783,2.8732 C3.8413,2.7042 3.8973,2.5302 3.9453,2.3512 C3.9933,2.1722 4.0333,1.9892 4.0653,1.8022 C4.0973,1.6152 4.1203,1.4242 4.1343,1.2292 C4.1493,1.0342 4.1543,0.8362 4.1493,0.6352 L8.7163,2.5822 C8.7203,2.7842 8.7153,2.9832 8.7003,3.1792 C8.6863,3.3742 8.6633,3.5662 8.6313,3.7542 C8.5993,3.9422 8.5583,4.1252 8.5103,4.3052 C8.4623,4.4842 8.4053,4.6592 8.3423,4.8292" id="Fill-65" fill="#B1ACFA" mask="url(#mask-34)"></path>
                        </g>
                    </g>
                    <g transform="translate(7.000000, 26.000000)">
                        <mask id="mask-36" fill="white">
                            <use xlink:href="#path-35"></use>
                        </mask>
                        <g id="Clip-68"></g>
                        <path d="M6.5239,4.8971 L1.9989,2.8761 C1.7329,2.7571 1.4819,2.6181 1.2539,2.4561 C1.0259,2.2941 0.8219,2.1091 0.6499,1.8991 C0.4789,1.6891 0.3389,1.4531 0.2399,1.1901 C0.1419,0.9271 0.0849,0.6371 0.0769,0.3161 L4.5979,2.3291 C4.6059,2.6501 4.6629,2.9421 4.7619,3.2061 C4.8599,3.4701 4.9999,3.7061 5.1719,3.9171 C5.3449,4.1271 5.5489,4.3131 5.7769,4.4761 C6.0059,4.6381 6.2569,4.7781 6.5239,4.8971" id="Fill-67" fill="#B1ACFA" mask="url(#mask-36)"></path>
                    </g>
                    <polygon id="Fill-69" fill="#857DF7" points="14.5933 17.9615 10.0593 15.9865 17.2583 14.9765 21.8123 16.9445"></polygon>
                    <g transform="translate(16.000000, 0.000000)">
                        <g>
                            <mask id="mask-38" fill="white">
                                <use xlink:href="#path-37"></use>
                            </mask>
                            <g id="Clip-72"></g>
                            <path d="M5.1704,2.0802 L0.6114,0.1642 C0.6784,0.1672 0.7444,0.1712 0.8094,0.1782 C0.8754,0.1842 0.9404,0.1912 1.0044,0.2012 C1.0694,0.2102 1.1334,0.2212 1.1964,0.2332 C1.2604,0.2462 1.3234,0.2602 1.3854,0.2752 L5.9454,2.1912 C5.8834,2.1762 5.8204,2.1622 5.7564,2.1492 C5.6924,2.1372 5.6284,2.1262 5.5644,2.1172 C5.4994,2.1072 5.4344,2.1002 5.3684,2.0942 C5.3034,2.0882 5.2364,2.0832 5.1704,2.0802" id="Fill-71" fill="#9F99F9" mask="url(#mask-38)"></path>
                        </g>
                        <g>
                            <mask id="mask-40" fill="white">
                                <use xlink:href="#path-39"></use>
                            </mask>
                            <g id="Clip-74"></g>
                            <path d="M5.9458,2.1915 L1.3848,0.2755 C1.4318,0.2875 1.4778,0.2995 1.5228,0.3125 C1.5688,0.3255 1.6138,0.3395 1.6588,0.3545 C1.7028,0.3695 1.7478,0.3855 1.7918,0.4015 C1.8358,0.4185 1.8788,0.4355 1.9228,0.4535 L6.4848,2.3705 C6.4408,2.3525 6.3978,2.3345 6.3528,2.3175 C6.3088,2.3015 6.2648,2.2855 6.2198,2.2715 C6.1748,2.2555 6.1298,2.2425 6.0838,2.2295 C6.0388,2.2155 5.9918,2.2035 5.9458,2.1915" id="Fill-73" fill="#A29CF9" mask="url(#mask-40)"></path>
                        </g>
                    </g>
                    <polygon id="Fill-75" fill="#A19BF9" points="17.8677 9.5797 13.3217 7.6357 13.2937 6.4217 17.8407 8.3617"></polygon>
                    <polygon id="Fill-77" fill="#A19BF9" points="11.5982 28.3287 7.0772 26.3157 6.9212 19.7187 11.4452 21.7077"></polygon>
                    <path d="M21.8516,25.9781 C21.6836,26.0021 21.5256,26.0611 21.3826,26.1481 C21.2396,26.2351 21.1116,26.3501 21.0056,26.4841 C20.8996,26.6191 20.8146,26.7731 20.7576,26.9391 C20.7006,27.1061 20.6706,27.2851 20.6746,27.4681 C20.6786,27.6511 20.7166,27.8211 20.7806,27.9711 C20.8446,28.1211 20.9356,28.2511 21.0466,28.3551 C21.1586,28.4591 21.2906,28.5381 21.4356,28.5841 C21.5816,28.6311 21.7426,28.6451 21.9096,28.6211 C22.0756,28.5971 22.2326,28.5381 22.3736,28.4501 C22.5156,28.3621 22.6426,28.2471 22.7476,28.1111 C22.8536,27.9761 22.9376,27.8211 22.9956,27.6541 C23.0526,27.4861 23.0816,27.3071 23.0776,27.1241 C23.0736,26.9411 23.0366,26.7721 22.9726,26.6231 C22.9086,26.4741 22.8176,26.3441 22.7066,26.2411 C22.5966,26.1381 22.4646,26.0601 22.3206,26.0141 C22.1756,25.9691 22.0176,25.9551 21.8516,25.9781 M31.0056,12.5061 C31.0556,12.6961 31.0996,12.8911 31.1386,13.0911 C31.1776,13.2901 31.2116,13.4951 31.2396,13.7031 C31.2676,13.9121 31.2896,14.1241 31.3056,14.3401 C31.3226,14.5561 31.3326,14.7751 31.3376,14.9981 C31.3436,15.2941 31.3386,15.5881 31.3236,15.8781 C31.3086,16.1681 31.2826,16.4541 31.2476,16.7351 C31.2116,17.0161 31.1666,17.2921 31.1126,17.5631 C31.0576,17.8331 30.9936,18.0971 30.9216,18.3541 C30.7486,18.9721 30.5276,19.5481 30.2646,20.0711 C30.0016,20.5931 29.6976,21.0601 29.3606,21.4581 C29.0236,21.8561 28.6536,22.1861 28.2596,22.4301 C27.8646,22.6751 27.4446,22.8361 27.0086,22.8981 L18.1956,24.1531 L18.2226,25.3671 L24.8826,24.4171 L24.9266,26.4221 C24.9376,26.9211 24.8476,27.3741 24.6826,27.7831 C24.5166,28.1911 24.2756,28.5581 23.9826,28.8841 C23.6896,29.2111 23.3456,29.4991 22.9746,29.7501 C22.6026,30.0021 22.2056,30.2181 21.8056,30.4031 C21.5156,30.5361 21.2276,30.6561 20.9436,30.7631 C20.6596,30.8711 20.3776,30.9661 20.0996,31.0491 C19.8206,31.1331 19.5446,31.2041 19.2706,31.2651 C18.9976,31.3251 18.7266,31.3741 18.4586,31.4131 C18.1686,31.4551 17.8816,31.4841 17.5976,31.5011 C17.3126,31.5191 17.0316,31.5251 16.7526,31.5201 C16.4746,31.5151 16.1986,31.4991 15.9256,31.4731 C15.6526,31.4471 15.3836,31.4101 15.1156,31.3641 C14.6886,31.2901 14.2576,31.1811 13.8516,31.0301 C13.4446,30.8791 13.0626,30.6861 12.7326,30.4431 C12.4026,30.2001 12.1246,29.9081 11.9256,29.5581 C11.7276,29.2081 11.6096,28.8011 11.5986,28.3291 L11.4446,21.7081 C11.4356,21.3161 11.4886,20.9381 11.5946,20.5821 C11.6996,20.2271 11.8576,19.8941 12.0586,19.5911 C12.2586,19.2901 12.5006,19.0181 12.7766,18.7871 C13.0516,18.5561 13.3596,18.3641 13.6896,18.2211 C13.7636,18.1881 13.8376,18.1591 13.9126,18.1321 C13.9876,18.1041 14.0626,18.0811 14.1376,18.0591 C14.2136,18.0371 14.2896,18.0181 14.3646,18.0021 C14.4406,17.9861 14.5176,17.9721 14.5936,17.9611 L21.8116,16.9441 C21.8596,16.9371 21.9076,16.9301 21.9556,16.9221 C22.0036,16.9141 22.0516,16.9051 22.0996,16.8951 C22.1476,16.8851 22.1956,16.8741 22.2436,16.8611 C22.2906,16.8491 22.3386,16.8351 22.3866,16.8191 C22.8556,16.6721 23.3026,16.4321 23.7066,16.1141 C24.1116,15.7961 24.4746,15.4011 24.7766,14.9431 C25.0786,14.4861 25.3206,13.9671 25.4836,13.4021 C25.6466,12.8361 25.7296,12.2251 25.7166,11.5821 L25.6496,8.4961 L26.6946,8.3501 C27.1776,8.2831 27.6446,8.3421 28.0856,8.5091 C28.5256,8.6771 28.9386,8.9541 29.3136,9.3231 C29.6886,9.6921 30.0246,10.1531 30.3096,10.6891 C30.5956,11.2261 30.8316,11.8361 31.0056,12.5061" id="Fill-79" fill="#7971F6"></path>
                    <g transform="translate(6.000000, 15.000000)">
                        <g>
                            <mask id="mask-42" fill="white">
                                <use xlink:href="#path-41"></use>
                            </mask>
                            <g id="Clip-82"></g>
                            <path d="M5.4448,6.7081 L0.9208,4.7191 C0.9188,4.5991 0.9218,4.4791 0.9298,4.3621 C0.9388,4.2451 0.9528,4.1291 0.9718,4.0151 C0.9918,3.9011 1.0168,3.7891 1.0468,3.6791 C1.0758,3.5691 1.1118,3.4611 1.1508,3.3551 L5.6758,5.3391 C5.6358,5.4461 5.6008,5.5541 5.5708,5.6651 C5.5408,5.7751 5.5158,5.8881 5.4968,6.0021 C5.4768,6.1171 5.4628,6.2321 5.4538,6.3511 C5.4448,6.4681 5.4418,6.5871 5.4448,6.7081" id="Fill-81" fill="#B1ACFA" mask="url(#mask-42)"></path>
                        </g>
                        <g>
                            <mask id="mask-44" fill="white">
                                <use xlink:href="#path-43"></use>
                            </mask>
                            <g id="Clip-84"></g>
                            <path d="M5.6758,5.3394 L1.1508,3.3554 C1.1678,3.3094 1.1868,3.2634 1.2058,3.2184 C1.2238,3.1724 1.2438,3.1284 1.2648,3.0844 C1.2858,3.0394 1.3068,2.9964 1.3298,2.9524 C1.3518,2.9094 1.3758,2.8664 1.3998,2.8244 L5.9258,4.8074 C5.9018,4.8494 5.8778,4.8924 5.8558,4.9354 C5.8328,4.9794 5.8108,5.0234 5.7908,5.0674 C5.7698,5.1114 5.7498,5.1564 5.7308,5.2024 C5.7118,5.2474 5.6938,5.2934 5.6758,5.3394" id="Fill-83" fill="#AEA9FA" mask="url(#mask-44)"></path>
                        </g>
                        <g>
                            <mask id="mask-46" fill="white">
                                <use xlink:href="#path-45"></use>
                            </mask>
                            <g id="Clip-86"></g>
                            <path d="M5.9253,4.8072 L1.3993,2.8252 C1.4213,2.7872 1.4433,2.7502 1.4653,2.7132 C1.4883,2.6772 1.5103,2.6412 1.5343,2.6052 C1.5583,2.5702 1.5823,2.5342 1.6073,2.4992 C1.6323,2.4652 1.6583,2.4302 1.6843,2.3962 L6.2113,4.3772 C6.1853,4.4112 6.1593,4.4462 6.1343,4.4812 C6.1093,4.5152 6.0853,4.5512 6.0613,4.5872 C6.0373,4.6222 6.0143,4.6592 5.9913,4.6962 C5.9683,4.7322 5.9463,4.7692 5.9253,4.8072" id="Fill-85" fill="#ABA5F9" mask="url(#mask-46)"></path>
                        </g>
                        <g>
                            <mask id="mask-48" fill="white">
                                <use xlink:href="#path-47"></use>
                            </mask>
                            <g id="Clip-88"></g>
                            <path d="M6.211,4.3775 L1.684,2.3965 C1.711,2.3625 1.737,2.3295 1.764,2.2955 C1.792,2.2635 1.819,2.2305 1.848,2.1985 C1.876,2.1665 1.905,2.1345 1.934,2.1035 C1.963,2.0725 1.994,2.0425 2.024,2.0125 L6.552,3.9915 C6.522,4.0215 6.491,4.0525 6.462,4.0835 C6.433,4.1145 6.403,4.1465 6.375,4.1785 C6.347,4.2105 6.319,4.2435 6.292,4.2765 C6.264,4.3095 6.237,4.3435 6.211,4.3775" id="Fill-87" fill="#A8A2F9" mask="url(#mask-48)"></path>
                        </g>
                        <g>
                            <mask id="mask-50" fill="white">
                                <use xlink:href="#path-49"></use>
                            </mask>
                            <g id="Clip-90"></g>
                            <path d="M6.5518,3.9913 L2.0238,2.0123 C2.0578,1.9793 2.0918,1.9463 2.1268,1.9143 C2.1618,1.8823 2.1968,1.8513 2.2328,1.8213 C2.2688,1.7903 2.3058,1.7603 2.3428,1.7313 C2.3798,1.7023 2.4178,1.6733 2.4558,1.6463 L6.9848,3.6233 C6.9468,3.6513 6.9088,3.6803 6.8718,3.7093 C6.8348,3.7393 6.7978,3.7683 6.7618,3.7993 C6.7258,3.8303 6.6898,3.8613 6.6548,3.8933 C6.6198,3.9253 6.5858,3.9583 6.5518,3.9913" id="Fill-89" fill="#A59FF9" mask="url(#mask-50)"></path>
                        </g>
                        <g>
                            <mask id="mask-52" fill="white">
                                <use xlink:href="#path-51"></use>
                            </mask>
                            <g id="Clip-92"></g>
                            <path d="M6.9849,3.6236 L2.4559,1.6456 C2.5059,1.6086 2.5579,1.5736 2.6109,1.5396 C2.6629,1.5046 2.7169,1.4726 2.7709,1.4406 C2.8249,1.4086 2.8799,1.3786 2.9359,1.3506 C2.9919,1.3216 3.0479,1.2936 3.1059,1.2686 L7.6369,3.2446 C7.5799,3.2696 7.5229,3.2976 7.4669,3.3266 C7.4109,3.3556 7.3559,3.3856 7.3009,3.4176 C7.2469,3.4496 7.1929,3.4826 7.1399,3.5166 C7.0879,3.5506 7.0359,3.5866 6.9849,3.6236" id="Fill-91" fill="#A29CF9" mask="url(#mask-52)"></path>
                        </g>
                        <g>
                            <mask id="mask-54" fill="white">
                                <use xlink:href="#path-53"></use>
                            </mask>
                            <g id="Clip-94"></g>
                            <path d="M7.6367,3.2442 L3.1057,1.2682 L3.1187,1.2622 C3.1237,1.2602 3.1277,1.2582 3.1327,1.2562 L3.1457,1.2502 L3.1587,1.2442 C3.2327,1.2122 3.3057,1.1822 3.3807,1.1562 C3.4547,1.1292 3.5307,1.1052 3.6057,1.0832 C3.6807,1.0622 3.7557,1.0432 3.8317,1.0272 C3.9077,1.0112 3.9837,0.9972 4.0587,0.9872 L8.5937,2.9612 C8.5167,2.9722 8.4407,2.9862 8.3647,3.0022 C8.2887,3.0182 8.2137,3.0372 8.1377,3.0582 C8.0627,3.0802 7.9877,3.1042 7.9127,3.1322 C7.8377,3.1592 7.7637,3.1882 7.6897,3.2212 L7.6767,3.2262 L7.6637,3.2322 C7.6587,3.2342 7.6547,3.2362 7.6497,3.2382 L7.6367,3.2442" id="Fill-93" fill="#9F99F9" mask="url(#mask-54)"></path>
                        </g>
                    </g>
                    <g transform="translate(9.000000, 5.000000)">
                        <g>
                            <mask id="mask-56" fill="white">
                                <use xlink:href="#path-55"></use>
                            </mask>
                            <g id="Clip-96"></g>
                            <path d="M4.6055,2.4972 L0.0695,0.5592 C0.0825,0.5642 0.0955,0.5692 0.1075,0.5742 C0.1215,0.5792 0.1345,0.5842 0.1475,0.5882 C0.1605,0.5932 0.1735,0.5972 0.1875,0.6012 C0.2005,0.6042 0.2145,0.6082 0.2285,0.6122 L4.7645,2.5502 C4.7505,2.5472 4.7365,2.5432 4.7235,2.5392 C4.7095,2.5362 4.6965,2.5312 4.6835,2.5272 C4.6705,2.5222 4.6575,2.5182 4.6445,2.5132 C4.6305,2.5082 4.6185,2.5022 4.6055,2.4972" id="Fill-95" fill="#A29CF9" mask="url(#mask-56)"></path>
                        </g>
                        <g>
                            <mask id="mask-58" fill="white">
                                <use xlink:href="#path-57"></use>
                            </mask>
                            <g id="Clip-98"></g>
                            <path d="M4.7642,2.5504 L0.2282,0.6124 C0.2602,0.6194 0.2922,0.6264 0.3252,0.6304 C0.3582,0.6354 0.3912,0.6384 0.4252,0.6404 C0.4592,0.6424 0.4932,0.6424 0.5282,0.6404 C0.5632,0.6394 0.5982,0.6364 0.6332,0.6314 L5.1712,2.5704 C5.1352,2.5744 5.1002,2.5774 5.0652,2.5794 C5.0312,2.5814 4.9962,2.5804 4.9622,2.5794 C4.9282,2.5774 4.8952,2.5744 4.8622,2.5694 C4.8282,2.5644 4.7962,2.5584 4.7642,2.5504" id="Fill-97" fill="#9F99F9" mask="url(#mask-58)"></path>
                        </g>
                    </g>
                    <g transform="translate(9.000000, 3.000000)">
                        <g>
                            <mask id="mask-60" fill="white">
                                <use xlink:href="#path-59"></use>
                            </mask>
                            <g id="Clip-100"></g>
                            <path d="M5.1709,4.5699 L0.6329,2.6319 C0.6619,2.6269 0.6909,2.6219 0.7189,2.6159 C0.7469,2.6099 0.7749,2.6029 0.8029,2.5949 C0.8299,2.5869 0.8579,2.5779 0.8839,2.5679 C0.9109,2.5579 0.9379,2.5469 0.9639,2.5349 L5.5029,4.4729 C5.4759,4.4849 5.4499,4.4959 5.4219,4.5059 C5.3959,4.5159 5.3679,4.5249 5.3399,4.5329 C5.3129,4.5409 5.2849,4.5489 5.2559,4.5539 C5.2279,4.5609 5.1999,4.5659 5.1709,4.5699" id="Fill-99" fill="#9F99F9" mask="url(#mask-60)"></path>
                        </g>
                        <g>
                            <mask id="mask-62" fill="white">
                                <use xlink:href="#path-61"></use>
                            </mask>
                            <g id="Clip-102"></g>
                            <path d="M5.5025,4.4727 L0.9645,2.5347 C0.9845,2.5257 1.0045,2.5157 1.0235,2.5057 C1.0435,2.4957 1.0635,2.4847 1.0825,2.4737 C1.1015,2.4627 1.1205,2.4517 1.1395,2.4387 C1.1575,2.4267 1.1755,2.4137 1.1945,2.4007 L5.7325,4.3387 C5.7145,4.3517 5.6965,4.3647 5.6775,4.3767 C5.6595,4.3887 5.6405,4.4007 5.6215,4.4117 C5.6015,4.4227 5.5825,4.4337 5.5625,4.4437 C5.5425,4.4537 5.5225,4.4637 5.5025,4.4727" id="Fill-101" fill="#A29CF9" mask="url(#mask-62)"></path>
                        </g>
                        <g>
                            <mask id="mask-64" fill="white">
                                <use xlink:href="#path-63"></use>
                            </mask>
                            <g id="Clip-104"></g>
                            <path d="M5.7329,4.3385 L1.1939,2.4015 C1.2089,2.3905 1.2229,2.3805 1.2369,2.3685 C1.2509,2.3585 1.2649,2.3465 1.2779,2.3355 C1.2919,2.3235 1.3049,2.3115 1.3179,2.2995 C1.3319,2.2875 1.3449,2.2755 1.3579,2.2625 L5.8969,4.1995 C5.8839,4.2125 5.8709,4.2245 5.8579,4.2365 C5.8449,4.2485 5.8309,4.2605 5.8169,4.2725 C5.8039,4.2835 5.7899,4.2955 5.7759,4.3065 C5.7619,4.3175 5.7479,4.3275 5.7329,4.3385" id="Fill-103" fill="#A59FF9" mask="url(#mask-64)"></path>
                        </g>
                        <g>
                            <mask id="mask-66" fill="white">
                                <use xlink:href="#path-65"></use>
                            </mask>
                            <g id="Clip-106"></g>
                            <path d="M5.897,4.1993 L1.358,2.2623 C1.37,2.2503 1.381,2.2383 1.393,2.2263 C1.405,2.2133 1.417,2.2013 1.428,2.1883 C1.439,2.1763 1.45,2.1623 1.461,2.1493 C1.472,2.1363 1.482,2.1233 1.493,2.1093 L6.033,4.0453 C6.022,4.0593 6.011,4.0733 6.001,4.0863 C5.99,4.0993 5.979,4.1123 5.967,4.1253 C5.956,4.1373 5.944,4.1503 5.933,4.1623 C5.921,4.1753 5.909,4.1873 5.897,4.1993" id="Fill-105" fill="#A8A2F9" mask="url(#mask-66)"></path>
                        </g>
                        <g>
                            <mask id="mask-68" fill="white">
                                <use xlink:href="#path-67"></use>
                            </mask>
                            <g id="Clip-108"></g>
                            <path d="M6.0327,4.0455 L1.4927,2.1095 C1.5037,2.0955 1.5137,2.0815 1.5237,2.0665 C1.5337,2.0525 1.5447,2.0385 1.5537,2.0235 C1.5637,2.0085 1.5737,1.9935 1.5827,1.9785 C1.5927,1.9635 1.6007,1.9485 1.6097,1.9335 L6.1507,3.8685 C6.1417,3.8835 6.1327,3.8995 6.1227,3.9145 C6.1137,3.9295 6.1037,3.9445 6.0947,3.9595 C6.0847,3.9745 6.0747,3.9885 6.0637,4.0035 C6.0537,4.0175 6.0437,4.0315 6.0327,4.0455" id="Fill-107" fill="#ABA5F9" mask="url(#mask-68)"></path>
                        </g>
                        <g>
                            <mask id="mask-70" fill="white">
                                <use xlink:href="#path-69"></use>
                            </mask>
                            <g id="Clip-110"></g>
                            <path d="M6.1504,3.8687 L1.6094,1.9327 C1.6204,1.9147 1.6294,1.8967 1.6394,1.8787 C1.6494,1.8607 1.6574,1.8417 1.6664,1.8237 C1.6754,1.8047 1.6834,1.7857 1.6924,1.7667 C1.6994,1.7477 1.7074,1.7287 1.7144,1.7087 L6.2554,3.6437 C6.2484,3.6627 6.2404,3.6827 6.2324,3.7017 C6.2244,3.7207 6.2154,3.7397 6.2074,3.7587 C6.1984,3.7777 6.1894,3.7957 6.1794,3.8137 C6.1704,3.8327 6.1604,3.8507 6.1504,3.8687" id="Fill-109" fill="#AEA9FA" mask="url(#mask-70)"></path>
                        </g>
                        <g>
                            <mask id="mask-72" fill="white">
                                <use xlink:href="#path-71"></use>
                            </mask>
                            <g id="Clip-112"></g>
                            <path d="M6.2554,3.6436 L1.7144,1.7086 C1.7314,1.6646 1.7454,1.6196 1.7584,1.5736 C1.7704,1.5276 1.7814,1.4816 1.7894,1.4346 C1.7974,1.3866 1.8034,1.3386 1.8074,1.2906 C1.8104,1.2426 1.8124,1.1936 1.8114,1.1446 C1.8084,1.0156 1.7884,0.8936 1.7544,0.7806 C1.7204,0.6666 1.6724,0.5626 1.6124,0.4686 C1.5524,0.3746 1.4804,0.2916 1.3994,0.2226 C1.3174,0.1526 1.2264,0.0956 1.1274,0.0536 L5.6674,1.9826 C5.7664,2.0246 5.8574,2.0816 5.9394,2.1516 C6.0214,2.2216 6.0934,2.3056 6.1534,2.3986 C6.2134,2.4936 6.2614,2.5986 6.2954,2.7116 C6.3294,2.8256 6.3494,2.9486 6.3524,3.0776 C6.3534,3.1266 6.3524,3.1756 6.3484,3.2246 C6.3444,3.2726 6.3384,3.3206 6.3304,3.3686 C6.3224,3.4156 6.3114,3.4616 6.2994,3.5086 C6.2864,3.5546 6.2724,3.5996 6.2554,3.6436" id="Fill-111" fill="#B1ACFA" mask="url(#mask-72)"></path>
                        </g>
                    </g>
                    <polygon id="Fill-113" fill="#867EF7" points="9.0073 10.8136 4.4853 8.8616 13.3213 7.6356 17.8673 9.5796"></polygon>
                    <polygon id="Fill-115" fill="#A19BF9" points="11.1572 9.2906 6.6292 7.3446 6.5772 5.1666 11.1062 7.1056"></polygon>
                    <g transform="translate(6.000000, 0.000000)">
                        <g>
                            <mask id="mask-74" fill="white">
                                <use xlink:href="#path-73"></use>
                            </mask>
                            <g id="Clip-118"></g>
                            <path d="M5.1065,7.1056 L0.5775,5.1676 C0.5735,4.9866 0.5735,4.8136 0.5785,4.6466 C0.5845,4.4796 0.5945,4.3186 0.6125,4.1646 C0.6295,4.0096 0.6545,3.8606 0.6865,3.7176 C0.7185,3.5746 0.7585,3.4366 0.8085,3.3046 L5.3385,5.2356 C5.2895,5.3686 5.2495,5.5066 5.2165,5.6506 C5.1845,5.7936 5.1595,5.9436 5.1425,6.0986 C5.1245,6.2536 5.1135,6.4156 5.1075,6.5836 C5.1025,6.7506 5.1025,6.9246 5.1065,7.1056" id="Fill-117" fill="#B1ACFA" mask="url(#mask-74)"></path>
                        </g>
                        <g>
                            <mask id="mask-76" fill="white">
                                <use xlink:href="#path-75"></use>
                            </mask>
                            <g id="Clip-120"></g>
                            <path d="M5.3389,5.2359 L0.8079,3.3039 C0.8209,3.2699 0.8339,3.2359 0.8479,3.2029 C0.8619,3.1699 0.8769,3.1369 0.8919,3.1039 C0.9069,3.0709 0.9229,3.0389 0.9399,3.0069 C0.9559,2.9749 0.9729,2.9429 0.9909,2.9119 L5.5229,4.8419 C5.5049,4.8729 5.4869,4.9049 5.4709,4.9379 C5.4539,4.9699 5.4379,5.0019 5.4229,5.0349 C5.4079,5.0679 5.3929,5.1009 5.3789,5.1339 C5.3649,5.1679 5.3519,5.2019 5.3389,5.2359" id="Fill-119" fill="#AEA9FA" mask="url(#mask-76)"></path>
                        </g>
                        <g>
                            <mask id="mask-78" fill="white">
                                <use xlink:href="#path-77"></use>
                            </mask>
                            <g id="Clip-122"></g>
                            <path d="M5.5225,4.8419 L0.9915,2.9119 C1.0055,2.8859 1.0215,2.8609 1.0365,2.8349 C1.0525,2.8099 1.0685,2.7849 1.0855,2.7599 C1.1015,2.7349 1.1185,2.7099 1.1355,2.6859 C1.1535,2.6609 1.1715,2.6369 1.1895,2.6129 L5.7225,4.5419 C5.7035,4.5659 5.6855,4.5909 5.6685,4.6149 C5.6505,4.6389 5.6335,4.6639 5.6165,4.6899 C5.5995,4.7149 5.5835,4.7389 5.5675,4.7649 C5.5525,4.7899 5.5375,4.8159 5.5225,4.8419" id="Fill-121" fill="#ABA5F9" mask="url(#mask-78)"></path>
                        </g>
                        <g>
                            <mask id="mask-80" fill="white">
                                <use xlink:href="#path-79"></use>
                            </mask>
                            <g id="Clip-124"></g>
                            <path d="M5.7222,4.5416 L1.1902,2.6126 C1.2092,2.5876 1.2282,2.5636 1.2482,2.5396 C1.2692,2.5156 1.2892,2.4916 1.3102,2.4676 C1.3322,2.4436 1.3532,2.4196 1.3762,2.3956 C1.3982,2.3726 1.4212,2.3496 1.4442,2.3266 L5.9772,4.2536 C5.9532,4.2776 5.9302,4.3006 5.9092,4.3246 C5.8862,4.3476 5.8642,4.3716 5.8432,4.3956 C5.8222,4.4196 5.8012,4.4436 5.7812,4.4676 C5.7612,4.4926 5.7412,4.5166 5.7222,4.5416" id="Fill-123" fill="#A8A2F9" mask="url(#mask-80)"></path>
                        </g>
                        <g>
                            <mask id="mask-82" fill="white">
                                <use xlink:href="#path-81"></use>
                            </mask>
                            <g id="Clip-126"></g>
                            <path d="M5.9776,4.254 L1.4446,2.326 C1.4736,2.298 1.5026,2.27 1.5336,2.242 C1.5636,2.214 1.5956,2.187 1.6276,2.16 C1.6606,2.132 1.6936,2.105 1.7276,2.079 C1.7626,2.052 1.7976,2.025 1.8336,1.999 L6.3676,3.925 C6.3316,3.952 6.2966,3.979 6.2616,4.005 C6.2276,4.032 6.1936,4.059 6.1616,4.087 C6.1286,4.114 6.0976,4.142 6.0666,4.17 C6.0366,4.197 6.0066,4.226 5.9776,4.254" id="Fill-125" fill="#A59FF9" mask="url(#mask-82)"></path>
                        </g>
                        <g>
                            <mask id="mask-84" fill="white">
                                <use xlink:href="#path-83"></use>
                            </mask>
                            <g id="Clip-128"></g>
                            <path d="M6.3677,3.9254 L1.8337,1.9994 C1.8977,1.9524 1.9647,1.9074 2.0347,1.8624 C2.1037,1.8184 2.1777,1.7744 2.2537,1.7314 C2.3297,1.6884 2.4097,1.6454 2.4927,1.6034 C2.5747,1.5614 2.6607,1.5204 2.7507,1.4794 L7.2877,3.4044 C7.1977,3.4454 7.1117,3.4864 7.0277,3.5284 C6.9447,3.5704 6.8657,3.6134 6.7887,3.6564 C6.7117,3.6994 6.6387,3.7434 6.5687,3.7884 C6.4987,3.8334 6.4317,3.8794 6.3677,3.9254" id="Fill-127" fill="#A29CF9" mask="url(#mask-84)"></path>
                        </g>
                        <g>
                            <mask id="mask-86" fill="white">
                                <use xlink:href="#path-85"></use>
                            </mask>
                            <g id="Clip-130"></g>
                            <path d="M7.2876,3.4039 L2.7506,1.4799 C2.8226,1.4479 2.8956,1.4159 2.9706,1.3839 C3.0466,1.3529 3.1236,1.3219 3.2046,1.2919 C3.2846,1.2609 3.3666,1.2309 3.4516,1.1999 C3.5366,1.1709 3.6226,1.1409 3.7126,1.1119 C3.9436,1.0359 4.1826,0.9639 4.4276,0.8949 C4.6736,0.8269 4.9256,0.7619 5.1826,0.7019 C5.4396,0.6419 5.7036,0.5869 5.9706,0.5359 C6.2386,0.4859 6.5106,0.4399 6.7866,0.3999 C7.0606,0.3619 7.3676,0.3259 7.6906,0.2929 C8.0146,0.2599 8.3546,0.2299 8.6956,0.2069 C9.0356,0.1839 9.3766,0.1669 9.7016,0.1589 C10.0266,0.1509 10.3356,0.1519 10.6116,0.1639 L15.1706,2.0799 C14.8926,2.0679 14.5836,2.0679 14.2576,2.0749 C13.9326,2.0839 13.5906,2.1009 13.2486,2.1239 C12.9076,2.1479 12.5656,2.1769 12.2416,2.2109 C11.9166,2.2439 11.6096,2.2809 11.3346,2.3189 C11.0586,2.3589 10.7856,2.4049 10.5166,2.4559 C10.2476,2.5069 9.9846,2.5619 9.7256,2.6229 C9.4686,2.6829 9.2156,2.7479 8.9696,2.8169 C8.7236,2.8849 8.4836,2.9579 8.2526,3.0339 C8.1626,3.0629 8.0756,3.0929 7.9906,3.1229 C7.9056,3.1539 7.8226,3.1839 7.7426,3.2149 C7.6616,3.2459 7.5836,3.2769 7.5086,3.3079 C7.4326,3.3399 7.3586,3.3719 7.2876,3.4039" id="Fill-129" fill="#9F99F9" mask="url(#mask-86)"></path>
                        </g>
                    </g>
                    <g transform="translate(0.000000, 16.000000)">
                        <mask id="mask-88" fill="white">
                            <use xlink:href="#path-87"></use>
                        </mask>
                        <g id="Clip-132"></g>
                        <path d="M7.7813,9.1895 L3.2693,7.1865 C2.9323,7.0365 2.6133,6.8235 2.3153,6.5545 C2.0183,6.2855 1.7433,5.9605 1.4953,5.5865 C1.2483,5.2125 1.0283,4.7915 0.8423,4.3285 C0.6553,3.8655 0.5023,3.3625 0.3873,2.8265 C0.3533,2.6665 0.3223,2.5035 0.2953,2.3375 C0.2683,2.1725 0.2453,2.0035 0.2253,1.8325 C0.2053,1.6605 0.1893,1.4865 0.1773,1.3095 C0.1653,1.1335 0.1563,0.9545 0.1523,0.7725 L4.6583,2.7545 C4.6633,2.9365 4.6713,3.1165 4.6833,3.2935 C4.6963,3.4715 4.7123,3.6465 4.7313,3.8175 C4.7513,3.9895 4.7753,4.1595 4.8023,4.3255 C4.8293,4.4925 4.8593,4.6555 4.8933,4.8155 C5.0083,5.3535 5.1623,5.8585 5.3493,6.3225 C5.5353,6.7865 5.7563,7.2105 6.0043,7.5855 C6.2523,7.9595 6.5273,8.2855 6.8253,8.5555 C7.1233,8.8255 7.4443,9.0395 7.7813,9.1895" id="Fill-131" fill="#B1ACFA" mask="url(#mask-88)"></path>
                    </g>
                    <path d="M14.1709,7.5699 C14.3379,7.5469 14.4949,7.4879 14.6389,7.4009 C14.7819,7.3149 14.9099,7.1999 15.0179,7.0649 C15.1249,6.9299 15.2109,6.7759 15.2679,6.6089 C15.3259,6.4409 15.3569,6.2609 15.3519,6.0769 C15.3479,5.8929 15.3099,5.7219 15.2449,5.5709 C15.1789,5.4209 15.0869,5.2889 14.9749,5.1839 C14.8619,5.0779 14.7289,4.9989 14.5829,4.9509 C14.4369,4.9029 14.2759,4.8879 14.1099,4.9109 C13.9419,4.9349 13.7819,4.9939 13.6379,5.0819 C13.4949,5.1689 13.3659,5.2849 13.2599,5.4209 C13.1529,5.5559 13.0679,5.7129 13.0109,5.8809 C12.9539,6.0489 12.9239,6.2289 12.9279,6.4129 C12.9319,6.5969 12.9709,6.7669 13.0359,6.9179 C13.1009,7.0679 13.1929,7.1979 13.3059,7.3019 C13.4189,7.4069 13.5509,7.4849 13.6979,7.5319 C13.8439,7.5779 14.0039,7.5929 14.1709,7.5699 M21.1709,2.0799 C21.6079,2.0989 22.0309,2.1899 22.4189,2.3429 C22.8069,2.4979 23.1599,2.7159 23.4599,2.9899 C23.7589,3.2639 24.0059,3.5949 24.1799,3.9749 C24.3539,4.3549 24.4549,4.7839 24.4649,5.2549 L24.6089,11.8779 C24.6179,12.2799 24.5659,12.6719 24.4609,13.0419 C24.3569,13.4119 24.1999,13.7609 24.0009,14.0789 C23.8009,14.3959 23.5589,14.6809 23.2839,14.9239 C23.0079,15.1679 22.6989,15.3679 22.3659,15.5159 C22.2949,15.5479 22.2219,15.5779 22.1489,15.6059 C22.0749,15.6329 22.0009,15.6579 21.9259,15.6809 C21.8519,15.7029 21.7759,15.7229 21.7009,15.7399 C21.6259,15.7579 21.5499,15.7709 21.4739,15.7819 L14.4769,16.7659 C14.4089,16.7759 14.3409,16.7869 14.2749,16.7999 C14.2069,16.8129 14.1399,16.8269 14.0729,16.8429 C14.0059,16.8589 13.9389,16.8769 13.8719,16.8959 C13.8049,16.9149 13.7369,16.9359 13.6699,16.9589 C13.1619,17.1319 12.6969,17.3909 12.2849,17.7159 C11.8729,18.0409 11.5139,18.4299 11.2199,18.8619 C10.9259,19.2939 10.6969,19.7679 10.5449,20.2619 C10.3919,20.7559 10.3159,21.2689 10.3269,21.7779 L10.4079,25.2609 L9.3489,25.4119 C8.8369,25.4849 8.3419,25.4179 7.8779,25.2299 C7.4129,25.0419 6.9789,24.7339 6.5889,24.3249 C6.1989,23.9159 5.8539,23.4049 5.5669,22.8139 C5.2789,22.2219 5.0499,21.5499 4.8939,20.8159 C4.8589,20.6549 4.8289,20.4919 4.8019,20.3259 C4.7749,20.1589 4.7519,19.9899 4.7319,19.8179 C4.7119,19.6459 4.6959,19.4709 4.6839,19.2939 C4.6709,19.1159 4.6629,18.9369 4.6589,18.7549 C4.6389,17.7369 4.7449,16.7529 4.9549,15.8439 C5.1639,14.9359 5.4779,14.1029 5.8709,13.3859 C6.2639,12.6699 6.7379,12.0699 7.2689,11.6279 C7.7989,11.1849 8.3859,10.8999 9.0069,10.8139 L17.8679,9.5799 L17.8399,8.3619 L11.1569,9.2909 L11.1069,7.1059 C11.0949,6.6029 11.1159,6.1529 11.1959,5.7469 C11.2759,5.3409 11.4159,4.9789 11.6429,4.6509 C11.8689,4.3229 12.1809,4.0309 12.6079,3.7639 C13.0329,3.4979 13.5729,3.2579 14.2529,3.0339 C14.4839,2.9579 14.7239,2.8849 14.9699,2.8169 C15.2149,2.7479 15.4679,2.6829 15.7259,2.6229 C15.9839,2.5619 16.2479,2.5069 16.5169,2.4559 C16.7849,2.4049 17.0579,2.3589 17.3349,2.3189 C17.6089,2.2809 17.9169,2.2439 18.2419,2.2109 C18.5659,2.1769 18.9069,2.1479 19.2489,2.1239 C19.5899,2.1009 19.9319,2.0839 20.2579,2.0749 C20.5839,2.0679 20.8929,2.0679 21.1709,2.0799" id="Fill-133" fill="#7971F6"></path>
                    <g transform="translate(0.000000, 8.000000)">
                        <g>
                            <mask id="mask-90" fill="white">
                                <use xlink:href="#path-89"></use>
                            </mask>
                            <g id="Clip-136"></g>
                            <path d="M4.6587,10.755 L0.1517,8.773 C0.1447,8.392 0.1547,8.016 0.1807,7.648 C0.2077,7.279 0.2507,6.917 0.3087,6.564 C0.3677,6.212 0.4417,5.868 0.5297,5.536 C0.6167,5.203 0.7197,4.882 0.8337,4.575 L5.3447,6.542 C5.2287,6.85 5.1267,7.172 5.0387,7.506 C4.9507,7.839 4.8757,8.184 4.8177,8.538 C4.7587,8.892 4.7147,9.255 4.6887,9.626 C4.6617,9.996 4.6517,10.373 4.6587,10.755" id="Fill-135" fill="#B1ACFA" mask="url(#mask-90)"></path>
                        </g>
                        <g>
                            <mask id="mask-92" fill="white">
                                <use xlink:href="#path-91"></use>
                            </mask>
                            <g id="Clip-138"></g>
                            <path d="M5.3443,6.5416 L0.8343,4.5746 C0.8763,4.4626 0.9203,4.3526 0.9653,4.2436 C1.0103,4.1346 1.0573,4.0276 1.1063,3.9226 C1.1553,3.8186 1.2053,3.7156 1.2573,3.6146 C1.3083,3.5146 1.3623,3.4166 1.4163,3.3196 L5.9293,5.2816 C5.8743,5.3786 5.8213,5.4776 5.7693,5.5786 C5.7173,5.6796 5.6663,5.7826 5.6173,5.8876 C5.5693,5.9926 5.5213,6.0996 5.4763,6.2086 C5.4303,6.3176 5.3863,6.4286 5.3443,6.5416" id="Fill-137" fill="#AEA9FA" mask="url(#mask-92)"></path>
                        </g>
                        <g>
                            <mask id="mask-94" fill="white">
                                <use xlink:href="#path-93"></use>
                            </mask>
                            <g id="Clip-140"></g>
                            <path d="M5.9292,5.2818 L1.4162,3.3198 C1.4572,3.2478 1.4992,3.1778 1.5422,3.1078 C1.5842,3.0388 1.6272,2.9708 1.6712,2.9038 C1.7162,2.8378 1.7612,2.7718 1.8062,2.7078 C1.8512,2.6438 1.8982,2.5808 1.9452,2.5198 L6.4592,4.4788 C6.4122,4.5408 6.3662,4.6038 6.3202,4.6678 C6.2742,4.7318 6.2292,4.7978 6.1852,4.8648 C6.1402,4.9318 6.0972,4.9998 6.0542,5.0698 C6.0122,5.1388 5.9702,5.2098 5.9292,5.2818" id="Fill-139" fill="#ABA5F9" mask="url(#mask-94)"></path>
                        </g>
                        <g>
                            <mask id="mask-96" fill="white">
                                <use xlink:href="#path-95"></use>
                            </mask>
                            <g id="Clip-142"></g>
                            <path d="M6.4595,4.4791 L1.9455,2.5201 C1.9855,2.4671 2.0265,2.4161 2.0675,2.3661 C2.1095,2.3151 2.1515,2.2661 2.1935,2.2171 C2.2365,2.1691 2.2795,2.1221 2.3225,2.0761 C2.3665,2.0301 2.4105,1.9851 2.4545,1.9411 L6.9705,3.8981 C6.9255,3.9421 6.8815,3.9871 6.8385,4.0331 C6.7945,4.0801 6.7515,4.1271 6.7095,4.1751 C6.6665,4.2241 6.6245,4.2731 6.5825,4.3241 C6.5415,4.3751 6.5005,4.4261 6.4595,4.4791" id="Fill-141" fill="#A8A2F9" mask="url(#mask-96)"></path>
                        </g>
                        <g>
                            <mask id="mask-98" fill="white">
                                <use xlink:href="#path-97"></use>
                            </mask>
                            <g id="Clip-144"></g>
                            <path d="M6.9707,3.898 L2.4547,1.941 C2.4967,1.899 2.5397,1.858 2.5827,1.819 C2.6267,1.779 2.6697,1.74 2.7147,1.703 C2.7587,1.666 2.8027,1.629 2.8477,1.594 C2.8927,1.558 2.9377,1.524 2.9837,1.491 L7.5007,3.446 C7.4547,3.48 7.4097,3.514 7.3647,3.549 C7.3197,3.585 7.2757,3.621 7.2307,3.659 C7.1867,3.696 7.1427,3.735 7.0997,3.775 C7.0557,3.815 7.0127,3.856 6.9707,3.898" id="Fill-143" fill="#A59FF9" mask="url(#mask-98)"></path>
                        </g>
                        <g>
                            <mask id="mask-100" fill="white">
                                <use xlink:href="#path-99"></use>
                            </mask>
                            <g id="Clip-146"></g>
                            <path d="M7.501,3.4464 L2.983,1.4914 C3.036,1.4534 3.089,1.4164 3.143,1.3814 C3.196,1.3464 3.251,1.3134 3.305,1.2804 C3.359,1.2494 3.414,1.2184 3.47,1.1904 C3.525,1.1614 3.581,1.1344 3.637,1.1094 L8.157,3.0624 C8.1,3.0884 8.044,3.1154 7.989,3.1444 C7.933,3.1734 7.878,3.2034 7.823,3.2354 C7.769,3.2674 7.714,3.3004 7.661,3.3364 C7.607,3.3714 7.554,3.4074 7.501,3.4464" id="Fill-145" fill="#A29CF9" mask="url(#mask-100)"></path>
                        </g>
                        <g>
                            <mask id="mask-102" fill="white">
                                <use xlink:href="#path-101"></use>
                            </mask>
                            <g id="Clip-148"></g>
                            <path d="M8.1568,3.0626 L3.6368,1.1096 C3.7058,1.0786 3.7748,1.0496 3.8448,1.0236 C3.9138,0.9986 3.9838,0.9746 4.0548,0.9546 C4.1258,0.9336 4.1968,0.9156 4.2688,0.8996 C4.3408,0.8846 4.4128,0.8716 4.4858,0.8616 L9.0078,2.8136 C8.9348,2.8236 8.8628,2.8366 8.7898,2.8526 C8.7188,2.8676 8.6468,2.8856 8.5758,2.9066 C8.5048,2.9276 8.4338,2.9516 8.3648,2.9776 C8.2948,3.0026 8.2248,3.0316 8.1568,3.0626" id="Fill-147" fill="#9F99F9" mask="url(#mask-102)"></path>
                        </g>
                    </g>
                </g>
            </g>
        </g>
    </g>
</svg>