<?xml version="1.0" encoding="UTF-8"?>
<svg width="29px" height="32px" viewBox="0 0 29 32" version="1.1" xmlns="http://www.w3.org/2000/svg" xmlns:xlink="http://www.w3.org/1999/xlink">
    <!-- Generator: Sketch 64 (93537) - https://sketch.com -->
    <title>qualitis</title>
    <desc>Created with Sketch.</desc>
    <defs>
        <path d="M8.389,0.308 L12.947,2.788 C12.853,6.345 11.173,9.442 8.389,12.081 C7.362,13.055 6.239,13.904 5.117,14.615 L0.559,12.135 C1.681,11.424 2.804,10.575 3.831,9.601" id="path-1"></path>
        <path d="M8.389,0.308 L12.947,2.788 C12.853,6.345 11.173,9.442 8.389,12.081 C7.362,13.055 6.239,13.904 5.117,14.615 L0.559,12.135 C1.681,11.424 2.804,10.575 3.831,9.601" id="path-3"></path>
        <path d="M8.389,0.308 L12.947,2.788 C12.853,6.345 11.173,9.442 8.389,12.081 C7.362,13.055 6.239,13.904 5.117,14.615 L0.559,12.135 C1.681,11.424 2.804,10.575 3.831,9.601" id="path-5"></path>
        <path d="M8.389,0.308 L12.947,2.788 C12.853,6.345 11.173,9.442 8.389,12.081 C7.362,13.055 6.239,13.904 5.117,14.615 L0.559,12.135 C1.681,11.424 2.804,10.575 3.831,9.601" id="path-7"></path>
        <path d="M8.389,0.308 L12.947,2.788 C12.853,6.345 11.173,9.442 8.389,12.081 C7.362,13.055 6.239,13.904 5.117,14.615 L0.559,12.135 C1.681,11.424 2.804,10.575 3.831,9.601" id="path-9"></path>
        <path d="M8.389,0.308 L12.947,2.788 C12.853,6.345 11.173,9.442 8.389,12.081 C7.362,13.055 6.239,13.904 5.117,14.615 L0.559,12.135 C1.681,11.424 2.804,10.575 3.831,9.601" id="path-11"></path>
        <path d="M8.389,0.308 L12.947,2.788 C12.853,6.345 11.173,9.442 8.389,12.081 C7.362,13.055 6.239,13.904 5.117,14.615 L0.559,12.135 C1.681,11.424 2.804,10.575 3.831,9.601" id="path-13"></path>
        <path d="M1.246,0.335 L5.804,2.815 C5.459,3.018 5.147,3.201 4.891,3.332 L0.332,0.852" id="path-15"></path>
        <path d="M0.915,0.679 C1.251,0.788 1.563,0.882 1.803,0.944 L6.362,3.423 C6.122,3.362 5.81,3.268 5.473,3.16" id="path-17"></path>
        <path d="M0.915,0.679 C1.251,0.788 1.563,0.882 1.803,0.944 L6.362,3.423 C6.122,3.362 5.81,3.268 5.473,3.16" id="path-19"></path>
        <path d="M0.107,0.685 C0.307,0.692 0.491,0.717 0.691,0.767 L5.25,3.247 C5.05,3.197 4.866,3.171 4.666,3.165" id="path-21"></path>
        <path d="M0.444,0.612 C1.132,0.987 1.846,1.3 2.563,1.556 L7.121,4.036 C6.404,3.781 5.691,3.466 5.002,3.092" id="path-23"></path>
        <path d="M0.444,0.612 C1.132,0.987 1.846,1.3 2.563,1.556 L7.121,4.036 C6.404,3.781 5.691,3.466 5.002,3.092" id="path-25"></path>
        <path d="M0.748,0.103 C0.944,0.099 1.132,0.144 1.297,0.234 L5.856,2.713 C5.69,2.624 5.502,2.579 5.307,2.584" id="path-27"></path>
        <path d="M0.748,0.103 C0.944,0.099 1.132,0.144 1.297,0.234 L5.856,2.713 C5.69,2.624 5.502,2.579 5.307,2.584" id="path-29"></path>
        <path d="M0.748,0.103 C0.944,0.099 1.132,0.144 1.297,0.234 L5.856,2.713 C5.69,2.624 5.502,2.579 5.307,2.584" id="path-31"></path>
        <path d="M1.492,0.148 L6.05,2.629 C5.762,2.703 5.498,2.87 5.273,3.091 L0.714,0.612" id="path-33"></path>
        <path d="M1.492,0.148 L6.05,2.629 C5.762,2.703 5.498,2.87 5.273,3.091 L0.714,0.612" id="path-35"></path>
        <path d="M1.492,0.148 L6.05,2.629 C5.762,2.703 5.498,2.87 5.273,3.091 L0.714,0.612" id="path-37"></path>
        <path d="M1.492,0.148 L6.05,2.629 C5.762,2.703 5.498,2.87 5.273,3.091 L0.714,0.612" id="path-39"></path>
        <path d="M0.593,0.26 C1.578,0.451 2.218,0.568 2.763,0.647 L7.321,3.127 C6.777,3.047 6.136,2.93 5.151,2.741" id="path-41"></path>
        <path d="M1.372,1.019 L5.93,3.5 C5.717,3.383 5.478,3.334 5.23,3.355 L0.672,0.876" id="path-43"></path>
        <path d="M1.372,1.019 L5.93,3.5 C5.717,3.383 5.478,3.334 5.23,3.355 L0.672,0.876" id="path-45"></path>
        <path d="M1.372,1.019 L5.93,3.5 C5.717,3.383 5.478,3.334 5.23,3.355 L0.672,0.876" id="path-47"></path>
        <path d="M1.672,0.876 L6.23,3.355 C5.886,3.421 5.589,3.592 5.365,3.849 L0.806,1.369" id="path-49"></path>
        <path d="M1.672,0.876 L6.23,3.355 C5.886,3.421 5.589,3.592 5.365,3.849 L0.806,1.369" id="path-51"></path>
        <path d="M1.672,0.876 L6.23,3.355 C5.886,3.421 5.589,3.592 5.365,3.849 L0.806,1.369" id="path-53"></path>
        <path d="M1.672,0.876 L6.23,3.355 C5.886,3.421 5.589,3.592 5.365,3.849 L0.806,1.369" id="path-55"></path>
        <path d="M1.672,0.876 L6.23,3.355 C5.886,3.421 5.589,3.592 5.365,3.849 L0.806,1.369" id="path-57"></path>
        <path d="M0.726,0.466 L5.284,2.947 C5.052,3.204 4.907,3.596 4.906,3.976 C4.905,4.322 5.017,4.635 5.233,4.855 L0.674,2.376 C0.459,2.155 0.347,1.842 0.347993362,1.497" id="path-59"></path>
        <path d="M0.726,0.466 L5.284,2.947 C5.052,3.204 4.907,3.596 4.906,3.976 C4.905,4.322 5.017,4.635 5.233,4.855 L0.674,2.376 C0.459,2.155 0.347,1.842 0.347993362,1.497" id="path-61"></path>
        <path d="M0.726,0.466 L5.284,2.947 C5.052,3.204 4.907,3.596 4.906,3.976 C4.905,4.322 5.017,4.635 5.233,4.855 L0.674,2.376 C0.459,2.155 0.347,1.842 0.347993362,1.497" id="path-63"></path>
        <path d="M0.726,0.466 L5.284,2.947 C5.052,3.204 4.907,3.596 4.906,3.976 C4.905,4.322 5.017,4.635 5.233,4.855 L0.674,2.376 C0.459,2.155 0.347,1.842 0.347993362,1.497" id="path-65"></path>
        <path d="M0.726,0.466 L5.284,2.947 C5.052,3.204 4.907,3.596 4.906,3.976 C4.905,4.322 5.017,4.635 5.233,4.855 L0.674,2.376 C0.459,2.155 0.347,1.842 0.347993362,1.497" id="path-67"></path>
        <path d="M0.305,0.289 L4.864,2.768 C4.943,7.26 7.027,10.554 10.443,12.849 C10.86,13.129 11.287,13.387 11.723,13.624 L7.164,11.144 C6.729,10.907 6.301,10.649 5.884,10.37" id="path-69"></path>
        <path d="M5.208,1.783 L9.766,4.263 C6.692,3.64 5.483,3.43 4.81,3.481 L0.251,1.002" id="path-71"></path>
        <path d="M4.107,0.013 L8.666,2.493 C8.122,2.57 7.24,2.935 5.06,3.977 L0.501,1.497" id="path-73"></path>
        <path d="M4.107,0.013 L8.666,2.493 C8.122,2.57 7.24,2.935 5.06,3.977 L0.501,1.497" id="path-75"></path>
        <path d="M3.607,0.897 L8.166,3.378 C6.619,4.13 5.753,4.538 5.056,4.835 L0.498,2.354" id="path-77"></path>
        <path d="M3.607,0.897 L8.166,3.378 C6.619,4.13 5.753,4.538 5.056,4.835 L0.498,2.354" id="path-79"></path>
        <path d="M1.768,0.638 L6.327,3.119 C5.325,3.51 4.884,4.039 4.881,5.301 L0.323,2.821" id="path-81"></path>
        <path d="M1.768,0.638 L6.327,3.119 C5.325,3.51 4.884,4.039 4.881,5.301 L0.323,2.821" id="path-83"></path>
        <path d="M1.768,0.638 L6.327,3.119 C5.325,3.51 4.884,4.039 4.881,5.301 L0.323,2.821" id="path-85"></path>
        <path d="M1.768,0.638 L6.327,3.119 C5.325,3.51 4.884,4.039 4.881,5.301 L0.323,2.821" id="path-87"></path>
        <path d="M1.768,0.638 L6.327,3.119 C5.325,3.51 4.884,4.039 4.881,5.301 L0.323,2.821" id="path-89"></path>
        <path d="M1.768,0.638 L6.327,3.119 C5.325,3.51 4.884,4.039 4.881,5.301 L0.323,2.821" id="path-91"></path>
        <path d="M1.768,0.638 L6.327,3.119 C5.325,3.51 4.884,4.039 4.881,5.301 L0.323,2.821" id="path-93"></path>
        <path d="M1.768,0.638 L6.327,3.119 C5.325,3.51 4.884,4.039 4.881,5.301 L0.323,2.821" id="path-95"></path>
    </defs>
    <g id="工作空间项目-开发中心-具体工作流" stroke="none" stroke-width="1" fill="none" fill-rule="evenodd">
        <g id="侧边栏icon" transform="translate(-35.000000, -307.000000)">
            <g id="qualitis" transform="translate(31.000000, 304.000000)">
                <g id="编组-30">
                    <rect id="矩形备份-17" x="0" y="0" width="36" height="36"></rect>
                </g>
                <g id="编组" transform="translate(4.000000, 2.000000)">
                    <polygon id="Fill-748" fill="#AFC0FF" points="25.9473 16.7877 21.3883 14.3087 21.3893 14.0227 25.9473 16.5027"></polygon>
                    <g transform="translate(13.000000, 14.000000)">
                        <g>
                            <mask id="mask-2" fill="white">
                                <use xlink:href="#path-1"></use>
                            </mask>
                            <g id="Clip-751"></g>
                            <path d="M5.1172,14.6148 L0.5582,12.1358 C0.8142,11.9728 1.0702,11.8038 1.3252,11.6278 L5.8832,14.1078 C5.6282,14.2838 5.3722,14.4528 5.1172,14.6148" id="Fill-750" fill="#9BB0FF" mask="url(#mask-2)"></path>
                        </g>
                        <g>
                            <mask id="mask-4" fill="white">
                                <use xlink:href="#path-3"></use>
                            </mask>
                            <g id="Clip-753"></g>
                            <path d="M5.8833,14.108 L1.3243,11.628 C2.0533,11.124 2.7723,10.562 3.4563,9.947 L8.0143,12.426 C7.3313,13.042 6.6123,13.603 5.8833,14.108" id="Fill-752" fill="#9EB2FF" mask="url(#mask-4)"></path>
                        </g>
                        <g>
                            <mask id="mask-6" fill="white">
                                <use xlink:href="#path-5"></use>
                            </mask>
                            <g id="Clip-755"></g>
                            <path d="M8.0147,12.4263 L3.4557,9.9473 C3.5817,9.8333 3.7067,9.7183 3.8307,9.6013 C4.2397,9.2133 4.6237,8.8163 4.9837,8.4083 L9.5417,10.8893 C9.1827,11.2963 8.7977,11.6933 8.3897,12.0803 C8.2657,12.1973 8.1407,12.3133 8.0147,12.4263" id="Fill-754" fill="#A1B5FF" mask="url(#mask-6)"></path>
                        </g>
                        <g>
                            <mask id="mask-8" fill="white">
                                <use xlink:href="#path-7"></use>
                            </mask>
                            <g id="Clip-757"></g>
                            <path d="M9.542,10.8892 L4.983,8.4092 C5.385,7.9542 5.755,7.4882 6.091,7.0082 L10.65,9.4892 C10.313,9.9672 9.943,10.4342 9.542,10.8892" id="Fill-756" fill="#A5B7FF" mask="url(#mask-8)"></path>
                        </g>
                        <g>
                            <mask id="mask-10" fill="white">
                                <use xlink:href="#path-9"></use>
                            </mask>
                            <g id="Clip-759"></g>
                            <path d="M10.6499,9.4888 L6.0909,7.0088 C6.4099,6.5528 6.6989,6.0878 6.9559,5.6108 L11.5139,8.0908 C11.2569,8.5678 10.9689,9.0338 10.6499,9.4888" id="Fill-758" fill="#A8BAFF" mask="url(#mask-10)"></path>
                        </g>
                        <g>
                            <mask id="mask-12" fill="white">
                                <use xlink:href="#path-11"></use>
                            </mask>
                            <g id="Clip-761"></g>
                            <path d="M11.5142,8.0904 L6.9552,5.6114 C7.2362,5.0894 7.4782,4.5544 7.6802,4.0064 L12.2382,6.4864 C12.0362,7.0334 11.7952,7.5694 11.5142,8.0904" id="Fill-760" fill="#ABBCFF" mask="url(#mask-12)"></path>
                        </g>
                        <g>
                            <mask id="mask-14" fill="white">
                                <use xlink:href="#path-13"></use>
                            </mask>
                            <g id="Clip-763"></g>
                            <path d="M12.2383,6.4859 L7.6793,4.0069 C8.1103,2.8349 8.3543,1.6009 8.3883,0.3079 L12.9473,2.7879 C12.9123,4.0819 12.6683,5.3139 12.2383,6.4859" id="Fill-762" fill="#AEBFFF" mask="url(#mask-14)"></path>
                        </g>
                    </g>
                    <polygon id="Fill-764" fill="#94AAFF" points="17.8042 28.815 13.2452 26.335 13.5582 26.135 18.1172 28.615"></polygon>
                    <g transform="translate(12.000000, 26.000000)">
                        <mask id="mask-16" fill="white">
                            <use xlink:href="#path-15"></use>
                        </mask>
                        <g id="Clip-767"></g>
                        <path d="M4.8906,3.3316 L0.3316,0.8526 C0.5886,0.7216 0.9006,0.5386 1.2456,0.3346 L5.8046,2.8146 C5.4596,3.0186 5.1466,3.2006 4.8906,3.3316" id="Fill-766" fill="#9BB0FF" mask="url(#mask-16)"></path>
                    </g>
                    <polygon id="Fill-768" fill="#92A9FF" points="16.6021 29.4849 12.0431 27.0059 12.3311 26.8519 16.8911 29.3319"></polygon>
                    <polygon id="Fill-770" fill="#98ADFF" points="16.3618 29.4234 11.8028 26.9444 12.0428 27.0054 16.6018 29.4854"></polygon>
                    <g transform="translate(10.000000, 26.000000)">
                        <g>
                            <mask id="mask-18" fill="white">
                                <use xlink:href="#path-17"></use>
                            </mask>
                            <g id="Clip-773"></g>
                            <path d="M5.4732,3.1597 L0.9142,0.6797 C1.2392,0.7837 1.5402,0.8757 1.7772,0.9367 L6.3352,3.4167 C6.0992,3.3547 5.7972,3.2637 5.4732,3.1597" id="Fill-772" fill="#9BB0FF" mask="url(#mask-18)"></path>
                        </g>
                        <g>
                            <mask id="mask-20" fill="white">
                                <use xlink:href="#path-19"></use>
                            </mask>
                            <g id="Clip-775"></g>
                            <path d="M6.3355,3.4166 L1.7765,0.9376 C1.7855,0.9386 1.7945,0.9406 1.8035,0.9436 L6.3615,3.4236 C6.3535,3.4216 6.3445,3.4196 6.3355,3.4166" id="Fill-774" fill="#98ADFF" mask="url(#mask-20)"></path>
                        </g>
                    </g>
                    <polygon id="Fill-776" fill="#9AAFFF" points="15.1211 29.0357 10.5621 26.5567 10.9141 26.6797 15.4731 29.1597"></polygon>
                    <g transform="translate(22.000000, 2.000000)">
                        <path d="M5.522,3.356 L0.963,0.876 C0.985,0.885 1.006,0.895 1.027,0.906 L5.586,3.385 C5.565,3.376 5.543,3.366 5.522,3.356" id="Fill-778" fill="#9BB0FF"></path>
                        <path d="M5.586,3.3853 L1.027,0.9063 C1.05,0.9163 1.072,0.9283 1.094,0.9403 L5.653,3.4203 C5.631,3.4083 5.609,3.3973 5.586,3.3853" id="Fill-779" fill="#9EB2FF"></path>
                    </g>
                    <polygon id="Fill-780" fill="#9DB1FF" points="27.3941 5.2955 22.8351 2.8165 22.9631 2.8755 27.5221 5.3565"></polygon>
                    <polygon id="Fill-782" fill="#AFC0FF" points="25.9478 16.5025 21.3888 14.0235 21.4058 5.3675 25.9638 7.8485"></polygon>
                    <polygon id="Fill-784" fill="#9AAFFF" points="27.25 5.2467 22.691 2.7677 22.835 2.8157 27.394 5.2957"></polygon>
                    <g transform="translate(22.000000, 2.000000)">
                        <mask id="mask-22" fill="white">
                            <use xlink:href="#path-21"></use>
                        </mask>
                        <g id="Clip-787"></g>
                        <path d="M4.6655,3.1646 L0.1065,0.6856 C0.3075,0.6916 0.4915,0.7176 0.6915,0.7676 L5.2495,3.2466 C5.0495,3.1966 4.8655,3.1716 4.6655,3.1646" id="Fill-786" fill="#98ADFF" mask="url(#mask-22)"></path>
                    </g>
                    <polygon id="Fill-788" fill="#94AAFF" points="26.3213 5.1266 21.7623 2.6476 22.1073 2.6856 26.6653 5.1646"></polygon>
                    <g transform="translate(8.000000, 25.000000)">
                        <g>
                            <mask id="mask-24" fill="white">
                                <use xlink:href="#path-23"></use>
                            </mask>
                            <g id="Clip-791"></g>
                            <path d="M5.0025,3.0924 L0.4435,0.6124 C0.6155,0.7054 0.7895,0.7954 0.9635,0.8814 L5.5225,3.3624 C5.3485,3.2764 5.1745,3.1864 5.0025,3.0924" id="Fill-790" fill="#9EB2FF" mask="url(#mask-24)"></path>
                        </g>
                        <g>
                            <mask id="mask-26" fill="white">
                                <use xlink:href="#path-25"></use>
                            </mask>
                            <g id="Clip-793"></g>
                            <path d="M5.5225,3.3619 L0.9635,0.8819 C1.4885,1.1399 2.0245,1.3649 2.5625,1.5559 L7.1215,4.0359 C6.5835,3.8439 6.0475,3.6199 5.5225,3.3619" id="Fill-792" fill="#9BB0FF" mask="url(#mask-26)"></path>
                        </g>
                    </g>
                    <g transform="translate(17.000000, 8.000000)">
                        <g>
                            <mask id="mask-28" fill="white">
                                <use xlink:href="#path-27"></use>
                            </mask>
                            <g id="Clip-795"></g>
                            <path d="M5.3067,2.5836 L0.7477,0.1036 C0.8537,0.1016 0.9567,0.1126 1.0557,0.1386 L5.6137,2.6186 C5.5147,2.5926 5.4117,2.5806 5.3067,2.5836" id="Fill-794" fill="#98ADFF" mask="url(#mask-28)"></path>
                        </g>
                        <g>
                            <mask id="mask-30" fill="white">
                                <use xlink:href="#path-29"></use>
                            </mask>
                            <g id="Clip-797"></g>
                            <path d="M5.6138,2.6187 L1.0548,0.1387 C1.1258,0.1567 1.1938,0.1817 1.2588,0.2147 L5.8178,2.6937 C5.7528,2.6617 5.6838,2.6367 5.6138,2.6187" id="Fill-796" fill="#9BB0FF" mask="url(#mask-30)"></path>
                        </g>
                        <g>
                            <mask id="mask-32" fill="white">
                                <use xlink:href="#path-31"></use>
                            </mask>
                            <g id="Clip-799"></g>
                            <path d="M5.8174,2.6939 L1.2584,0.2149 C1.2714,0.2199 1.2844,0.2269 1.2974,0.2339 L5.8564,2.7139 C5.8434,2.7069 5.8304,2.6999 5.8174,2.6939" id="Fill-798" fill="#9EB2FF" mask="url(#mask-32)"></path>
                        </g>
                    </g>
                    <polygon id="Fill-800" fill="#91A7FF" points="22.1709 10.6021 17.6119 8.1231 17.7479 8.1031 22.3069 10.5831"></polygon>
                    <polygon id="Fill-802" fill="#90A7FF" points="22.0503 10.6285 17.4913 8.1485 17.6123 8.1225 22.1713 10.6025"></polygon>
                    <g transform="translate(16.000000, 8.000000)">
                        <g>
                            <mask id="mask-34" fill="white">
                                <use xlink:href="#path-33"></use>
                            </mask>
                            <g id="Clip-805"></g>
                            <path d="M5.273,3.0914 L0.714,0.6124 C0.738,0.5884 0.762,0.5664 0.787,0.5434 L5.345,3.0234 C5.321,3.0454 5.296,3.0684 5.273,3.0914" id="Fill-804" fill="#A1B5FF" mask="url(#mask-34)"></path>
                        </g>
                        <g>
                            <mask id="mask-36" fill="white">
                                <use xlink:href="#path-35"></use>
                            </mask>
                            <g id="Clip-807"></g>
                            <path d="M5.3452,3.023 L0.7862,0.544 C0.8502,0.486 0.9172,0.433 0.9862,0.385 L5.5452,2.865 C5.4752,2.913 5.4092,2.965 5.3452,3.023" id="Fill-806" fill="#9EB2FF" mask="url(#mask-36)"></path>
                        </g>
                        <g>
                            <mask id="mask-38" fill="white">
                                <use xlink:href="#path-37"></use>
                            </mask>
                            <g id="Clip-809"></g>
                            <path d="M5.5449,2.8648 L0.9859,0.3858 C1.0649,0.3308 1.1469,0.2828 1.2319,0.2428 L5.7899,2.7228 C5.7059,2.7628 5.6239,2.8108 5.5449,2.8648" id="Fill-808" fill="#9BB0FF" mask="url(#mask-38)"></path>
                        </g>
                        <g>
                            <mask id="mask-40" fill="white">
                                <use xlink:href="#path-39"></use>
                            </mask>
                            <g id="Clip-811"></g>
                            <path d="M5.7901,2.7232 L1.2311,0.2432 C1.3161,0.2032 1.4031,0.1712 1.4921,0.1482 L6.0501,2.6282 C5.9611,2.6512 5.8741,2.6832 5.7901,2.7232" id="Fill-810" fill="#98ADFF" mask="url(#mask-40)"></path>
                        </g>
                    </g>
                    <g transform="translate(19.000000, 2.000000)">
                        <mask id="mask-42" fill="white">
                            <use xlink:href="#path-41"></use>
                        </mask>
                        <g id="Clip-813"></g>
                        <path d="M5.1514,2.7408 L0.5924,0.2608 C1.5774,0.4508 2.2184,0.5678 2.7624,0.6468 L7.3214,3.1268 C6.7764,3.0478 6.1364,2.9298 5.1514,2.7408" id="Fill-812" fill="#98ADFF" mask="url(#mask-42)"></path>
                    </g>
                    <polygon id="Fill-814" fill="#9CB0FF" points="15.189 18.4898 10.63 16.0108 16.714 8.6118 21.273 11.0918"></polygon>
                    <polygon id="Fill-816" fill="#96ACFF" points="21.7661 4.2633 17.2071 1.7833 19.5931 2.2603 24.1511 4.7413"></polygon>
                    <polygon id="Fill-818" fill="#B1C1FF" points="15.1655 22.5035 10.6065 20.0245 5.6745 15.3755 10.2325 17.8555"></polygon>
                    <g transform="translate(6.000000, 12.000000)">
                        <g>
                            <mask id="mask-44" fill="white">
                                <use xlink:href="#path-43"></use>
                            </mask>
                            <g id="Clip-821"></g>
                            <path d="M5.2305,3.3551 L0.6715,0.8761 C0.8165,0.8631 0.9585,0.8751 1.0935,0.9101 L5.6515,3.3891 C5.5165,3.3541 5.3755,3.3421 5.2305,3.3551" id="Fill-820" fill="#98ADFF" mask="url(#mask-44)"></path>
                        </g>
                        <g>
                            <mask id="mask-46" fill="white">
                                <use xlink:href="#path-45"></use>
                            </mask>
                            <g id="Clip-823"></g>
                            <path d="M5.6519,3.3893 L1.0929,0.9103 C1.1729,0.9303 1.2519,0.9583 1.3259,0.9953 L5.8849,3.4763 C5.8099,3.4393 5.7319,3.4103 5.6519,3.3893" id="Fill-822" fill="#9BB0FF" mask="url(#mask-46)"></path>
                        </g>
                        <g>
                            <mask id="mask-48" fill="white">
                                <use xlink:href="#path-47"></use>
                            </mask>
                            <g id="Clip-825"></g>
                            <path d="M5.8848,3.4762 L1.3258,0.9962 L1.3718,1.0192 L5.9298,3.4992 C5.9148,3.4912 5.8998,3.4832 5.8848,3.4762" id="Fill-824" fill="#9EB2FF" mask="url(#mask-48)"></path>
                        </g>
                    </g>
                    <g transform="translate(5.000000, 12.000000)">
                        <g>
                            <mask id="mask-50" fill="white">
                                <use xlink:href="#path-49"></use>
                            </mask>
                            <g id="Clip-827"></g>
                            <path d="M5.3648,3.8492 L0.8058,1.3692 C0.8068,1.3682 0.8088,1.3662 0.8098,1.3652 L5.3688,3.8442 C5.3668,3.8462 5.3658,3.8472 5.3648,3.8492" id="Fill-826" fill="#A5B7FF" mask="url(#mask-50)"></path>
                        </g>
                        <g>
                            <mask id="mask-52" fill="white">
                                <use xlink:href="#path-51"></use>
                            </mask>
                            <g id="Clip-829"></g>
                            <path d="M5.3687,3.8443 L0.8097,1.3653 C0.8487,1.3203 0.8907,1.2783 0.9347,1.2393 L5.4937,3.7183 C5.4497,3.7573 5.4077,3.7993 5.3687,3.8443" id="Fill-828" fill="#A1B5FF" mask="url(#mask-52)"></path>
                        </g>
                        <g>
                            <mask id="mask-54" fill="white">
                                <use xlink:href="#path-53"></use>
                            </mask>
                            <g id="Clip-831"></g>
                            <path d="M5.4932,3.7184 L0.9342,1.2394 C0.9822,1.1954 1.0332,1.1554 1.0862,1.1184 L5.6442,3.5994 C5.5922,3.6354 5.5412,3.6754 5.4932,3.7184" id="Fill-830" fill="#9EB2FF" mask="url(#mask-54)"></path>
                        </g>
                        <g>
                            <mask id="mask-56" fill="white">
                                <use xlink:href="#path-55"></use>
                            </mask>
                            <g id="Clip-833"></g>
                            <path d="M5.6445,3.5992 L1.0855,1.1192 C1.1535,1.0732 1.2245,1.0312 1.2995,0.9952 L5.8575,3.4762 C5.7835,3.5112 5.7115,3.5522 5.6445,3.5992" id="Fill-832" fill="#9BB0FF" mask="url(#mask-56)"></path>
                        </g>
                        <g>
                            <mask id="mask-58" fill="white">
                                <use xlink:href="#path-57"></use>
                            </mask>
                            <g id="Clip-835"></g>
                            <path d="M5.8579,3.4762 L1.2989,0.9962 C1.4159,0.9412 1.5399,0.9012 1.6719,0.8752 L6.2309,3.3552 C6.0989,3.3802 5.9739,3.4212 5.8579,3.4762" id="Fill-834" fill="#98ADFF" mask="url(#mask-58)"></path>
                        </g>
                    </g>
                    <polygon id="Fill-836" fill="#9CB0FF" points="10.2842 15.9469 5.7252 13.4669 5.8062 13.3689 10.3652 15.8489"></polygon>
                    <g transform="translate(5.000000, 13.000000)">
                        <g>
                            <mask id="mask-60" fill="white">
                                <use xlink:href="#path-59"></use>
                            </mask>
                            <g id="Clip-839"></g>
                            <path d="M5.2329,4.8551 L0.6739,2.3761 C0.4589,2.1551 0.3469,1.8421 0.347893362,1.4971 C0.347893362,1.3061 0.3839,1.1141 0.4499,0.9361 L5.0079,3.4161 C4.9429,3.5931 4.9059,3.7871 4.9059,3.9761 C4.9049,4.3221 5.0169,4.6351 5.2329,4.8551" id="Fill-838" fill="#AEBFFF" mask="url(#mask-60)"></path>
                        </g>
                        <g>
                            <mask id="mask-62" fill="white">
                                <use xlink:href="#path-61"></use>
                            </mask>
                            <g id="Clip-841"></g>
                            <path d="M5.0083,3.4156 L0.4493,0.9366 C0.4753,0.8646 0.5063,0.7956 0.5413,0.7306 L5.1003,3.2106 C5.0653,3.2756 5.0343,3.3446 5.0083,3.4156" id="Fill-840" fill="#ABBCFF" mask="url(#mask-62)"></path>
                        </g>
                        <g>
                            <mask id="mask-64" fill="white">
                                <use xlink:href="#path-63"></use>
                            </mask>
                            <g id="Clip-843"></g>
                            <path d="M5.1001,3.2105 L0.5411,0.7315 C0.5681,0.6815 0.5981,0.6325 0.6301,0.5875 L5.1881,3.0665 C5.1571,3.1125 5.1271,3.1605 5.1001,3.2105" id="Fill-842" fill="#A8BAFF" mask="url(#mask-64)"></path>
                        </g>
                        <g>
                            <mask id="mask-66" fill="white">
                                <use xlink:href="#path-65"></use>
                            </mask>
                            <g id="Clip-845"></g>
                            <path d="M5.1885,3.067 L0.6295,0.588 C0.6575,0.548 0.6865,0.511 0.7165,0.477 L5.2755,2.957 C5.2445,2.992 5.2155,3.028 5.1885,3.067" id="Fill-844" fill="#A5B7FF" mask="url(#mask-66)"></path>
                        </g>
                        <g>
                            <mask id="mask-68" fill="white">
                                <use xlink:href="#path-67"></use>
                            </mask>
                            <g id="Clip-847"></g>
                            <path d="M5.2754,2.9566 L0.7164,0.4776 C0.7194,0.4736 0.7224,0.4706 0.7254,0.4666 L5.2844,2.9466 C5.2814,2.9496 5.2784,2.9536 5.2754,2.9566" id="Fill-846" fill="#A1B5FF" mask="url(#mask-68)"></path>
                        </g>
                    </g>
                    <g transform="translate(0.000000, 17.000000)">
                        <mask id="mask-70" fill="white">
                            <use xlink:href="#path-69"></use>
                        </mask>
                        <g id="Clip-849"></g>
                        <path d="M11.7227,13.6236 L7.1637,11.1446 C6.7287,10.9066 6.3017,10.6486 5.8847,10.3696 C2.4687,8.0746 0.3847,4.7806 0.3057,0.2886 L4.8637,2.7686 C4.9437,7.2606 7.0277,10.5546 10.4427,12.8496 C10.8597,13.1296 11.2867,13.3876 11.7227,13.6236" id="Fill-848" fill="#AEBFFF" mask="url(#mask-70)"></path>
                    </g>
                    <path d="M25.9478,16.5025 L25.9638,7.8485 L25.5478,7.7945 C24.9868,7.7175 24.3148,7.5955 23.3858,7.4235 L21.4168,7.0345 C20.0478,6.7175 18.6548,6.4725 17.2538,6.2975 L16.6608,6.2335 L16.0838,6.4705 C14.6898,7.0645 13.3188,7.7145 11.9478,8.4515 L9.3748,9.6785 C8.5418,10.0715 8.0128,10.3105 7.5238,10.5085 L7.4038,10.5605 L7.38777697,19.1105 C7.3808,22.6895 8.9698,25.3625 11.6728,27.2655 L11.8888,27.4155 C12.9048,28.1035 14.0088,28.6395 15.1208,29.0355 L15.4728,29.1595 C15.8098,29.2685 16.1218,29.3615 16.3618,29.4235 L16.6018,29.4845 L16.8908,29.3315 C17.1468,29.2005 17.4598,29.0185 17.8038,28.8145 L18.1168,28.6145 C19.2398,27.9035 20.3628,27.0555 21.3888,26.0805 C24.1728,23.4415 25.8528,20.3455 25.9478,16.7875 L25.9478,16.5025 M28.4888,6.8275 L28.4958,6.9815 L28.4788,16.1475 C28.4698,20.7985 26.3408,24.7885 22.8188,28.1095 C21.6478,29.2165 20.4048,30.1695 19.1298,30.9965 L18.7528,31.2395 C18.0748,31.6555 17.2528,32.1225 17.2348,32.1245 C17.0398,32.2155 16.8268,32.2795 16.6138,32.3105 C16.4518,32.3325 16.2908,32.3355 16.1318,32.3165 L15.9718,32.2965 C15.8838,32.2825 14.7868,31.9525 14.1068,31.7025 C12.8428,31.2315 11.6028,30.6285 10.4428,29.8495 C7.0278,27.5545 4.9438,24.2605 4.8638,19.7685 L4.8648,19.4655 L4.8818,10.3015 C4.8838,9.0385 5.3248,8.5105 6.3268,8.1185 L6.6878,7.9815 L7.0558,7.8345 C7.7538,7.5375 8.6188,7.1305 10.1658,6.3775 L13.0598,4.9775 C15.2398,3.9355 16.1218,3.5695 16.6658,3.4925 L16.8098,3.4815 C17.4828,3.4305 18.6918,3.6405 21.7658,4.2635 L24.1518,4.7405 C25.1358,4.9305 25.7768,5.0475 26.3218,5.1265 L26.6658,5.1645 C26.8658,5.1715 27.0498,5.1965 27.2498,5.2465 L27.3938,5.2955 L27.5218,5.3565 C28.0818,5.6055 28.4498,6.0895 28.4888,6.8275" id="Fill-850" fill="#7793FF"></path>
                    <path d="M22.3067,10.5836 C22.6027,10.5766 22.8837,10.6846 23.0917,10.8886 C23.5707,11.3826 23.5687,12.2386 23.0797,12.8776 L15.1657,22.5036 L10.2327,17.8546 C10.0167,17.6356 9.9057,17.3216 9.9066933,16.9766 C9.9066933,16.5966 10.0517,16.2036 10.2847,15.9466 L10.3647,15.8496 C10.5897,15.5926 10.8857,15.4216 11.2307,15.3546 C11.5747,15.3246 11.9027,15.4346 12.1667,15.6646 L15.1887,18.4896 L21.2727,11.0916 C21.4977,10.8696 21.7627,10.7026 22.0507,10.6286 L22.1707,10.6026 L22.3067,10.5836 Z" id="Fill-852" fill="#7793FF"></path>
                    <g transform="translate(12.000000, 0.000000)">
                        <mask id="mask-72" fill="white">
                            <use xlink:href="#path-71"></use>
                        </mask>
                        <g id="Clip-855"></g>
                        <path d="M4.8101,3.481 L0.2511,1.002 C0.9241,0.951 2.1331,1.161 5.2071,1.783 L9.7661,4.263 C6.6921,3.64 5.4831,3.43 4.8101,3.481" id="Fill-854" fill="#98ADFF" mask="url(#mask-72)"></path>
                    </g>
                    <polygon id="Fill-856" fill="#91A8FF" points="16.666 3.4928 12.107 1.0138 12.251 1.0018 16.81 3.4808"></polygon>
                    <g transform="translate(8.000000, 1.000000)">
                        <g>
                            <mask id="mask-74" fill="white">
                                <use xlink:href="#path-73"></use>
                            </mask>
                            <g id="Clip-859"></g>
                            <path d="M5.0596,3.9771 L0.5006,1.4971 C0.7126,1.3961 0.9116,1.3011 1.0996,1.2121 L5.6576,3.6931 C5.4706,3.7811 5.2706,3.8751 5.0596,3.9771" id="Fill-858" fill="#9BB0FF" mask="url(#mask-74)"></path>
                        </g>
                        <g>
                            <mask id="mask-76" fill="white">
                                <use xlink:href="#path-75"></use>
                            </mask>
                            <g id="Clip-861"></g>
                            <path d="M5.6577,3.693 L1.0987,1.213 C2.8487,0.387 3.6157,0.083 4.1077,0.013 L8.6657,2.493 C8.1747,2.562 7.4077,2.868 5.6577,3.693" id="Fill-860" fill="#98ADFF" mask="url(#mask-76)"></path>
                        </g>
                    </g>
                    <polygon id="Fill-862" fill="#AFC0FF" points="4.8638 19.7681 0.3048 17.2891 0.3058 16.9861 4.8638 19.4651"></polygon>
                    <polygon id="Fill-864" fill="#92A8FF" points="10.166 6.3775 5.607 3.8975 8.501 2.4965 13.06 4.9775"></polygon>
                    <g transform="translate(2.000000, 3.000000)">
                        <g>
                            <mask id="mask-78" fill="white">
                                <use xlink:href="#path-77"></use>
                            </mask>
                            <g id="Clip-867"></g>
                            <path d="M5.0562,4.8346 L0.4972,2.3546 C0.8812,2.1906 1.3162,1.9946 1.8882,1.7256 L6.4462,4.2046 C5.8752,4.4746 5.4402,4.6716 5.0562,4.8346" id="Fill-866" fill="#98ADFF" mask="url(#mask-78)"></path>
                        </g>
                        <g>
                            <mask id="mask-80" fill="white">
                                <use xlink:href="#path-79"></use>
                            </mask>
                            <g id="Clip-869"></g>
                            <path d="M6.4463,4.2047 L1.8873,1.7257 C2.3543,1.5047 2.9123,1.2357 3.6073,0.8967 L8.1663,3.3777 C7.4703,3.7167 6.9133,3.9847 6.4463,4.2047" id="Fill-868" fill="#9BB0FF" mask="url(#mask-80)"></path>
                        </g>
                    </g>
                    <polygon id="Fill-870" fill="#91A8FF" points="6.6875 7.981 2.1285 5.502 2.4975 5.354 7.0565 7.835"></polygon>
                    <polygon id="Fill-872" fill="#91A7FF" points="6.3267 8.1187 1.7677 5.6387 2.1287 5.5017 6.6877 7.9807"></polygon>
                    <polygon id="Fill-874" fill="#AFC0FF" points="4.8643 19.4654 0.3053 16.9864 0.3223 7.8204 4.8813 10.3014"></polygon>
                    <g transform="translate(0.000000, 5.000000)">
                        <g>
                            <mask id="mask-82" fill="white">
                                <use xlink:href="#path-81"></use>
                            </mask>
                            <g id="Clip-877"></g>
                            <path d="M4.8814,5.3014 L0.3224,2.8214 C0.3234,2.4024 0.3724,2.0644 0.4744,1.7844 L5.0334,4.2644 C4.9314,4.5434 4.8814,4.8814 4.8814,5.3014" id="Fill-876" fill="#AEBFFF" mask="url(#mask-82)"></path>
                        </g>
                        <g>
                            <mask id="mask-84" fill="white">
                                <use xlink:href="#path-83"></use>
                            </mask>
                            <g id="Clip-879"></g>
                            <path d="M5.0332,4.2643 L0.4742,1.7853 C0.5042,1.7043 0.5372,1.6293 0.5752,1.5593 L5.1342,4.0383 C5.0952,4.1103 5.0622,4.1843 5.0332,4.2643" id="Fill-878" fill="#ABBCFF" mask="url(#mask-84)"></path>
                        </g>
                        <g>
                            <mask id="mask-86" fill="white">
                                <use xlink:href="#path-85"></use>
                            </mask>
                            <g id="Clip-881"></g>
                            <path d="M5.1338,4.0387 L0.5748,1.5597 C0.6058,1.5027 0.6378,1.4497 0.6738,1.3987 L5.2328,3.8787 C5.1968,3.9297 5.1638,3.9827 5.1338,4.0387" id="Fill-880" fill="#A8BAFF" mask="url(#mask-86)"></path>
                        </g>
                        <g>
                            <mask id="mask-88" fill="white">
                                <use xlink:href="#path-87"></use>
                            </mask>
                            <g id="Clip-883"></g>
                            <path d="M5.2324,3.8785 L0.6734,1.3995 C0.7074,1.3505 0.7434,1.3055 0.7824,1.2615 L5.3404,3.7405 C5.3024,3.7845 5.2664,3.8305 5.2324,3.8785" id="Fill-882" fill="#A5B7FF" mask="url(#mask-88)"></path>
                        </g>
                        <g>
                            <mask id="mask-90" fill="white">
                                <use xlink:href="#path-89"></use>
                            </mask>
                            <g id="Clip-885"></g>
                            <path d="M5.3408,3.7408 L0.7818,1.2618 C0.8238,1.2148 0.8678,1.1698 0.9158,1.1278 L5.4738,3.6068 C5.4268,3.6498 5.3828,3.6938 5.3408,3.7408" id="Fill-884" fill="#A1B5FF" mask="url(#mask-90)"></path>
                        </g>
                        <g>
                            <mask id="mask-92" fill="white">
                                <use xlink:href="#path-91"></use>
                            </mask>
                            <g id="Clip-887"></g>
                            <path d="M5.4741,3.607 L0.9151,1.128 C0.9751,1.073 1.0391,1.023 1.1091,0.975 L5.6671,3.455 C5.5981,3.503 5.5341,3.553 5.4741,3.607" id="Fill-886" fill="#9EB2FF" mask="url(#mask-92)"></path>
                        </g>
                        <g>
                            <mask id="mask-94" fill="white">
                                <use xlink:href="#path-93"></use>
                            </mask>
                            <g id="Clip-889"></g>
                            <path d="M5.6675,3.4547 L1.1085,0.9757 C1.2255,0.8937 1.3555,0.8207 1.5005,0.7537 L6.0585,3.2327 C5.9145,3.3017 5.7845,3.3747 5.6675,3.4547" id="Fill-888" fill="#9BB0FF" mask="url(#mask-94)"></path>
                        </g>
                        <g>
                            <mask id="mask-96" fill="white">
                                <use xlink:href="#path-95"></use>
                            </mask>
                            <g id="Clip-891"></g>
                            <path d="M6.0586,3.233 L1.4996,0.754 C1.5846,0.713 1.6736,0.675 1.7676,0.638 L6.3266,3.119 C6.2326,3.155 6.1426,3.193 6.0586,3.233" id="Fill-890" fill="#98ADFF" mask="url(#mask-96)"></path>
                        </g>
                    </g>
                </g>
            </g>
        </g>
    </g>
</svg>