<?xml version="1.0" encoding="UTF-8"?>
<svg width="26px" height="35px" viewBox="0 0 26 35" version="1.1" xmlns="http://www.w3.org/2000/svg" xmlns:xlink="http://www.w3.org/1999/xlink">
    <!-- Generator: Sketch 64 (93537) - https://sketch.com -->
    <title>Scala</title>
    <desc>Created with Sketch.</desc>
    <g id="工作空间项目-开发中心-具体工作流" stroke="none" stroke-width="1" fill="none" fill-rule="evenodd">
        <g id="侧边栏icon" transform="translate(-36.000000, -184.000000)">
            <g id="Scala" transform="translate(31.000000, 184.000000)">
                <g id="编组-34">
                    <g id="编组-26">
                        <rect id="矩形备份-16" x="0" y="0" width="36" height="36"></rect>
                    </g>
                </g>
                <g id="编组" transform="translate(5.000000, 0.000000)">
                    <polygon id="Fill-399" fill="#9A94F8" points="21.3613 20.6734 16.8023 18.1934 20.7333 19.0064 25.2923 21.4864"></polygon>
                    <polygon id="Fill-401" fill="#9A94F8" points="21.3306 11.4635 16.7716 8.9845 20.7506 9.8075 25.3096 12.2875"></polygon>
                    <polygon id="Fill-403" fill="#958EF8" points="11.9107 25.5025 7.3517 23.0225 17.9767 19.8435 22.5357 22.3235"></polygon>
                    <polygon id="Fill-405" fill="#9A94F8" points="7.9722 24.6812 3.4132 22.2022 7.3522 23.0222 11.9102 25.5022"></polygon>
                    <polygon id="Fill-407" fill="#958EF8" points="11.96 16.2984 7.401 13.8194 17.994 10.6444 22.553 13.1244"></polygon>
                    <polygon id="Fill-409" fill="#958EF8" points="5.1958 27.5182 0.6368 25.0382 4.5878 23.8522 9.1468 26.3312"></polygon>
                    <polygon id="Fill-411" fill="#B2ADFA" points="5.1826 34.7115 0.6236 32.2315 0.6376 25.0375 5.1956 27.5185"></polygon>
                    <polygon id="Fill-413" fill="#9B94F8" points="7.9732 15.4586 3.4142 12.9796 7.4012 13.8186 11.9602 16.2986"></polygon>
                    <polygon id="Fill-415" fill="#958EF8" points="5.2129 18.3189 0.6539 15.8389 4.6369 14.6479 9.1949 17.1279"></polygon>
                    <polygon id="Fill-417" fill="#B2ADFA" points="5.2075 25.5103 0.6485 23.0313 0.6545 15.8383 5.2125 18.3193"></polygon>
                    <polygon id="Fill-419" fill="#958EF8" points="5.23 9.0934 0.671 6.6144 20.768 0.5914 25.326 3.0714"></polygon>
                    <polygon id="Fill-421" fill="#B2ADFA" points="5.2168 16.2955 0.6578 13.8155 0.6718 6.6135 5.2298 9.0935"></polygon>
                    <path d="M22.5357,22.3238 L18.5887,21.5038 L7.9727,24.6808 L11.9107,25.5028 L22.5357,22.3238 L22.5357,22.3238 Z M22.5527,13.1248 L18.5657,12.2928 L7.9727,15.4588 L11.9597,16.2988 L22.5527,13.1248 L22.5527,13.1248 Z M25.3267,3.0708 L25.3127,10.2638 L21.3307,11.4638 L25.3087,12.2878 L25.2957,19.4898 L21.3617,20.6738 L25.2917,21.4868 L25.2787,28.6968 L5.1827,34.7118 L5.1957,27.5178 L9.1467,26.3318 L5.2077,25.5108 L5.2127,18.3188 L9.1957,17.1278 L5.2167,16.2958 L5.2297,9.0938 L25.3267,3.0708 Z" id="Fill-423" fill="#7C73F6"></path>
                </g>
            </g>
        </g>
    </g>
</svg>