<?xml version="1.0" encoding="UTF-8"?>
<svg width="32px" height="26px" viewBox="0 0 32 26" version="1.1" xmlns="http://www.w3.org/2000/svg" xmlns:xlink="http://www.w3.org/1999/xlink">
    <!-- Generator: Sketch 64 (93537) - https://sketch.com -->
    <title>sendemail</title>
    <desc>Created with Sketch.</desc>
    <defs>
        <path d="M1.76,0.731 L6.319,3.211 C5.976,3.024 5.57,2.946 5.133,3.008 L0.574,0.527" id="path-1"></path>
        <path d="M1.76,0.731 L6.319,3.211 C5.976,3.024 5.57,2.946 5.133,3.008 L0.574,0.527" id="path-3"></path>
        <path d="M1.76,0.731 L6.319,3.211 C5.976,3.024 5.57,2.946 5.133,3.008 L0.574,0.527" id="path-5"></path>
        <path d="M3.151,0.069 L7.71,2.549 C6.931,3.401 6.362,3.853 5.993,3.905 C5.792,3.934 5.529,3.859 5.205,3.684 L0.647,1.204 C0.97,1.38 1.233,1.453 1.434,1.425" id="path-7"></path>
        <path d="M3.151,0.069 L7.71,2.549 C6.931,3.401 6.362,3.853 5.993,3.905 C5.792,3.934 5.529,3.859 5.205,3.684 L0.647,1.204 C0.97,1.38 1.233,1.453 1.434,1.425" id="path-9"></path>
        <path d="M3.151,0.069 L7.71,2.549 C6.931,3.401 6.362,3.853 5.993,3.905 C5.792,3.934 5.529,3.859 5.205,3.684 L0.647,1.204 C0.97,1.38 1.233,1.453 1.434,1.425" id="path-11"></path>
        <path d="M3.151,0.069 L7.71,2.549 C6.931,3.401 6.362,3.853 5.993,3.905 C5.792,3.934 5.529,3.859 5.205,3.684 L0.647,1.204 C0.97,1.38 1.233,1.453 1.434,1.425" id="path-13"></path>
        <path d="M3.151,0.069 L7.71,2.549 C6.931,3.401 6.362,3.853 5.993,3.905 C5.792,3.934 5.529,3.859 5.205,3.684 L0.647,1.204 C0.97,1.38 1.233,1.453 1.434,1.425" id="path-15"></path>
        <path d="M3.151,0.069 L7.71,2.549 C6.931,3.401 6.362,3.853 5.993,3.905 C5.792,3.934 5.529,3.859 5.205,3.684 L0.647,1.204 C0.97,1.38 1.233,1.453 1.434,1.425" id="path-17"></path>
        <path d="M-0.003,0.667 L4.556,3.146 C4.698,3.263 4.847,3.364 5.004,3.449 L0.446,0.97" id="path-19"></path>
        <path d="M0.0699981924,0.111 L4.629,2.592 C4.627,3.449 5.041,4.145 5.666,4.484 L1.108,2.005" id="path-21"></path>
        <path d="M2.337,0.653 L6.896,3.133 C5.662,3.306 4.658,4.527 4.656,5.868 L0.097,3.388" id="path-23"></path>
        <path d="M2.337,0.653 L6.896,3.133 C5.662,3.306 4.658,4.527 4.656,5.868 L0.097,3.388" id="path-25"></path>
        <path d="M2.337,0.653 L6.896,3.133 C5.662,3.306 4.658,4.527 4.656,5.868 L0.097,3.388" id="path-27"></path>
        <path d="M2.337,0.653 L6.896,3.133 C5.662,3.306 4.658,4.527 4.656,5.868 L0.097,3.388" id="path-29"></path>
        <path d="M2.337,0.653 L6.896,3.133 C5.662,3.306 4.658,4.527 4.656,5.868 L0.097,3.388" id="path-31"></path>
        <path d="M2.337,0.653 L6.896,3.133 C5.662,3.306 4.658,4.527 4.656,5.868 L0.097,3.388" id="path-33"></path>
        <path d="M2.337,0.653 L6.896,3.133 C5.662,3.306 4.658,4.527 4.656,5.868 L0.097,3.388" id="path-35"></path>
        <path d="M2.337,0.653 L6.896,3.133 C5.662,3.306 4.658,4.527 4.656,5.868 L0.097,3.388" id="path-37"></path>
    </defs>
    <g id="工作空间项目-开发中心-具体工作流" stroke="none" stroke-width="1" fill="none" fill-rule="evenodd">
        <g id="侧边栏icon" transform="translate(-33.000000, -916.000000)">
            <g id="sendemail" transform="translate(31.000000, 911.000000)">
                <g id="编组-15">
                    <g id="编组-29备份-15">
                        <g id="编组-30">
                            <rect id="矩形备份-17" x="0" y="0" width="36" height="36"></rect>
                        </g>
                    </g>
                </g>
                <g id="编组" transform="translate(2.000000, 5.000000)">
                    <polygon id="Fill-1" fill="#92D8D3" points="29.6706 19.5283 25.1116 17.0483 25.1366 3.7513 29.6946 6.2303"></polygon>
                    <g transform="translate(24.000000, 0.000000)">
                        <g>
                            <mask id="mask-2" fill="white">
                                <use xlink:href="#path-1"></use>
                            </mask>
                            <g id="Clip-4"></g>
                            <path d="M5.1325,3.0078 L0.5735,0.5278 C0.8445,0.4888 1.1035,0.5048 1.3415,0.5668 L5.9015,3.0468 C5.6615,2.9858 5.4035,2.9698 5.1325,3.0078" id="Fill-3" fill="#72CCC6" mask="url(#mask-2)"></path>
                        </g>
                        <g>
                            <mask id="mask-4" fill="white">
                                <use xlink:href="#path-3"></use>
                            </mask>
                            <g id="Clip-6"></g>
                            <path d="M5.9011,3.0468 L1.3421,0.5668 C1.4641,0.5988 1.5811,0.6418 1.6931,0.6958 L6.2511,3.1758 C6.1401,3.1218 6.0231,3.0778 5.9011,3.0468" id="Fill-5" fill="#76CEC7" mask="url(#mask-4)"></path>
                        </g>
                        <g>
                            <mask id="mask-6" fill="white">
                                <use xlink:href="#path-5"></use>
                            </mask>
                            <g id="Clip-8"></g>
                            <path d="M6.2512,3.1758 L1.6922,0.6968 C1.7152,0.7068 1.7382,0.7188 1.7602,0.7318 L6.3182,3.2108 C6.2962,3.1988 6.2742,3.1878 6.2512,3.1758" id="Fill-7" fill="#7ACFC9" mask="url(#mask-6)"></path>
                        </g>
                    </g>
                    <polygon id="Fill-9" fill="#94D9D3" points="28.5066 20.9189 23.9476 18.4389 17.0076 12.7499 21.5666 15.2299"></polygon>
                    <polygon id="Fill-11" fill="#75CDC7" points="19.7097 14.5488 15.1507 12.0698 24.0337 2.3318 28.5927 4.8128"></polygon>
                    <g transform="translate(12.000000, 12.000000)">
                        <g>
                            <mask id="mask-8" fill="white">
                                <use xlink:href="#path-7"></use>
                            </mask>
                            <g id="Clip-14"></g>
                            <path d="M5.2053,3.6836 L0.6463,1.2046 C0.6843,1.2236 0.7203,1.2436 0.7563,1.2606 L5.3143,3.7406 C5.2793,3.7226 5.2433,3.7046 5.2053,3.6836" id="Fill-13" fill="#7ACFC9" mask="url(#mask-8)"></path>
                        </g>
                        <g>
                            <mask id="mask-10" fill="white">
                                <use xlink:href="#path-9"></use>
                            </mask>
                            <g id="Clip-16"></g>
                            <path d="M5.3147,3.7402 L0.7557,1.2612 C0.8857,1.3242 1.0037,1.3702 1.1117,1.3982 L5.6707,3.8782 C5.5627,3.8492 5.4437,3.8032 5.3147,3.7402" id="Fill-15" fill="#76CEC7" mask="url(#mask-10)"></path>
                        </g>
                        <g>
                            <mask id="mask-12" fill="white">
                                <use xlink:href="#path-11"></use>
                            </mask>
                            <g id="Clip-18"></g>
                            <path d="M5.6706,3.8779 L1.1116,1.3989 C1.2326,1.4299 1.3396,1.4389 1.4346,1.4249 C1.5076,1.4149 1.5896,1.3889 1.6796,1.3459 L6.2386,3.8259 C6.1486,3.8679 6.0666,3.8949 5.9926,3.9049 C5.8986,3.9179 5.7916,3.9089 5.6706,3.8779" id="Fill-17" fill="#72CCC6" mask="url(#mask-12)"></path>
                        </g>
                        <g>
                            <mask id="mask-14" fill="white">
                                <use xlink:href="#path-13"></use>
                            </mask>
                            <g id="Clip-20"></g>
                            <path d="M6.2385,3.8261 L1.6795,1.3461 C1.7655,1.3051 1.8585,1.2511 1.9595,1.1801 L6.5185,3.6611 C6.4175,3.7301 6.3245,3.7851 6.2385,3.8261" id="Fill-19" fill="#76CEC7" mask="url(#mask-14)"></path>
                        </g>
                        <g>
                            <mask id="mask-16" fill="white">
                                <use xlink:href="#path-15"></use>
                            </mask>
                            <g id="Clip-22"></g>
                            <path d="M6.5183,3.6611 L1.9593,1.1811 C2.0933,1.0881 2.2403,0.9701 2.4013,0.8251 L6.9593,3.3051 C6.7993,3.4491 6.6523,3.5681 6.5183,3.6611" id="Fill-21" fill="#7ACFC9" mask="url(#mask-16)"></path>
                        </g>
                        <g>
                            <mask id="mask-18" fill="white">
                                <use xlink:href="#path-17"></use>
                            </mask>
                            <g id="Clip-24"></g>
                            <path d="M6.9597,3.3047 L2.4007,0.8257 C2.6247,0.6227 2.8747,0.3707 3.1507,0.0697 L7.7097,2.5487 C7.4337,2.8517 7.1837,3.1037 6.9597,3.3047" id="Fill-23" fill="#7FD1CB" mask="url(#mask-18)"></path>
                        </g>
                    </g>
                    <g transform="translate(11.000000, 14.000000)">
                        <mask id="mask-20" fill="white">
                            <use xlink:href="#path-19"></use>
                        </mask>
                        <g id="Clip-26"></g>
                        <path d="M5.0041,3.4492 L0.4451,0.9702 C0.2891,0.8842 0.1391,0.7832 -0.0029,0.6672 L4.5561,3.1462 C4.6981,3.2622 4.8471,3.3642 5.0041,3.4492" id="Fill-25" fill="#90D7D2" mask="url(#mask-20)"></path>
                    </g>
                    <polygon id="Fill-27" fill="#94D9D3" points="15.5564 17.1465 10.9974 14.6675 9.8624 13.7535 14.4204 16.2345"></polygon>
                    <polygon id="Fill-29" fill="#68C9C2" points="7.4553 23.8769 2.8963 21.3979 23.9483 18.4389 28.5063 20.9189"></polygon>
                    <polygon id="Fill-31" fill="#75CEC7" points="6.2878 22.8144 1.7288 20.3344 8.6708 12.6164 13.2298 15.0964"></polygon>
                    <g transform="translate(0.000000, 21.000000)">
                        <mask id="mask-22" fill="white">
                            <use xlink:href="#path-21"></use>
                        </mask>
                        <g id="Clip-34"></g>
                        <path d="M5.6662,4.4843 L1.1072,2.0053 C0.4822,1.6653 0.0682,0.9693 0.0701927856,0.1113 L4.6282,2.5913 C4.6272,3.4493 5.0412,4.1443 5.6662,4.4843" id="Fill-33" fill="#90D7D2" mask="url(#mask-22)"></path>
                    </g>
                    <polygon id="Fill-35" fill="#94D9D3" points="13.2297 15.0966 8.6707 12.6166 1.7537 7.0366 6.3127 9.5166"></polygon>
                    <polygon id="Fill-37" fill="#68C9C2" points="6.8957 6.1328 2.3367 3.6538 24.5737 0.5278 29.1327 3.0078"></polygon>
                    <polygon id="Fill-39" fill="#92D8D3" points="4.6286 23.5918 0.0696 21.1118 0.0976 6.3878 4.6556 8.8678"></polygon>
                    <g transform="translate(0.000000, 3.000000)">
                        <g>
                            <mask id="mask-24" fill="white">
                                <use xlink:href="#path-23"></use>
                            </mask>
                            <g id="Clip-42"></g>
                            <path d="M4.656,5.8681 L0.097,3.3881 C0.098,3.0561 0.16,2.7331 0.271,2.4301 L4.83,4.9101 C4.718,5.2131 4.657,5.5371 4.656,5.8681" id="Fill-41" fill="#90D7D2" mask="url(#mask-24)"></path>
                        </g>
                        <g>
                            <mask id="mask-26" fill="white">
                                <use xlink:href="#path-25"></use>
                            </mask>
                            <g id="Clip-44"></g>
                            <path d="M4.8298,4.9101 L0.2708,2.4311 C0.3188,2.3011 0.3758,2.1751 0.4408,2.0541 L4.9988,4.5331 C4.9338,4.6541 4.8768,4.7801 4.8298,4.9101" id="Fill-43" fill="#8BD5D0" mask="url(#mask-26)"></path>
                        </g>
                        <g>
                            <mask id="mask-28" fill="white">
                                <use xlink:href="#path-27"></use>
                            </mask>
                            <g id="Clip-46"></g>
                            <path d="M4.9992,4.5332 L0.4402,2.0542 C0.4962,1.9512 0.5572,1.8512 0.6232,1.7582 L5.1822,4.2372 C5.1152,4.3322 5.0542,4.4302 4.9992,4.5332" id="Fill-45" fill="#87D4CE" mask="url(#mask-28)"></path>
                        </g>
                        <g>
                            <mask id="mask-30" fill="white">
                                <use xlink:href="#path-29"></use>
                            </mask>
                            <g id="Clip-48"></g>
                            <path d="M5.1819,4.2373 L0.6229,1.7583 C0.6859,1.6683 0.7529,1.5833 0.8249,1.5023 L5.3829,3.9813 C5.3119,4.0623 5.2439,4.1483 5.1819,4.2373" id="Fill-47" fill="#83D2CD" mask="url(#mask-30)"></path>
                        </g>
                        <g>
                            <mask id="mask-32" fill="white">
                                <use xlink:href="#path-31"></use>
                            </mask>
                            <g id="Clip-50"></g>
                            <path d="M5.383,3.9814 L0.824,1.5024 C0.896,1.4204 0.972,1.3434 1.052,1.2714 L5.611,3.7524 C5.531,3.8234 5.455,3.9004 5.383,3.9814" id="Fill-49" fill="#7FD1CB" mask="url(#mask-32)"></path>
                        </g>
                        <g>
                            <mask id="mask-34" fill="white">
                                <use xlink:href="#path-33"></use>
                            </mask>
                            <g id="Clip-52"></g>
                            <path d="M5.6111,3.7519 L1.0521,1.2719 C1.1381,1.1939 1.2281,1.1229 1.3221,1.0579 L5.8811,3.5379 C5.7871,3.6029 5.6971,3.6749 5.6111,3.7519" id="Fill-51" fill="#7ACFC9" mask="url(#mask-34)"></path>
                        </g>
                        <g>
                            <mask id="mask-36" fill="white">
                                <use xlink:href="#path-35"></use>
                            </mask>
                            <g id="Clip-54"></g>
                            <path d="M5.8811,3.5381 L1.3221,1.0581 C1.4381,0.9781 1.5591,0.9081 1.6851,0.8491 L6.2431,3.3291 C6.1181,3.3881 5.9961,3.4581 5.8811,3.5381" id="Fill-53" fill="#76CEC7" mask="url(#mask-36)"></path>
                        </g>
                        <g>
                            <mask id="mask-38" fill="white">
                                <use xlink:href="#path-37"></use>
                            </mask>
                            <g id="Clip-56"></g>
                            <path d="M6.2434,3.3291 L1.6844,0.8491 C1.8914,0.7521 2.1104,0.6841 2.3374,0.6531 L6.8954,3.1331 C6.6694,3.1651 6.4504,3.2311 6.2434,3.3291" id="Fill-55" fill="#72CCC6" mask="url(#mask-38)"></path>
                        </g>
                    </g>
                    <path d="M29.6706,19.5283 L29.6946,6.2303 L22.7616,13.7573 L29.6706,19.5283 L29.6706,19.5283 Z M6.2876,22.8143 L13.2296,15.0963 L6.3126,9.5163 L6.2876,22.8143 L6.2876,22.8143 Z M7.4556,23.8773 L28.5066,20.9193 L21.5666,15.2293 L20.4266,16.4623 C19.7606,17.1863 18.9506,17.6203 17.9896,17.7553 C17.0276,17.8903 16.2126,17.6853 15.5566,17.1463 L14.4206,16.2343 L7.4556,23.8773 L7.4556,23.8773 Z M28.5926,4.8123 L7.4286,7.7873 L16.2736,15.0323 C17.0486,15.6663 17.6246,15.9573 17.9926,15.9053 C18.3616,15.8533 18.9306,15.4013 19.7096,14.5493 L28.5926,4.8123 L28.5926,4.8123 Z M29.1326,3.0073 C30.3656,2.8343 31.3576,3.7753 31.3546068,5.1153 L31.3276,19.8403 C31.3246,21.1713 30.3296,22.3913 29.0966,22.5643 L6.8596,25.6893 C5.6256,25.8633 4.6266,24.9233 4.628597,23.5913 L4.6556,8.8683 C4.6586,7.5273 5.6626,6.3053 6.8956,6.1323 L29.1326,3.0073 Z" id="Fill-57" fill="#44BCB3"></path>
                </g>
            </g>
        </g>
    </g>
</svg>