<?xml version="1.0" encoding="UTF-8"?>
<svg width="31px" height="29px" viewBox="0 0 31 29" version="1.1" xmlns="http://www.w3.org/2000/svg" xmlns:xlink="http://www.w3.org/1999/xlink">
    <!-- Generator: Sketch 64 (93537) - https://sketch.com -->
    <title>shell</title>
    <desc>Created with Sketch.</desc>
    <defs>
        <polygon id="path-1" points="0.5592 0.1382 26.3932 0.1382 26.3932 26 0.5592 26"></polygon>
        <polygon id="path-3" points="0 0.2823 4.5999 0.2823 4.5999 25 0 25"></polygon>
    </defs>
    <g id="工作空间项目-开发中心-具体工作流" stroke="none" stroke-width="1" fill="none" fill-rule="evenodd">
        <g id="侧边栏icon" transform="translate(-185.000000, -188.000000)">
            <g id="shell" transform="translate(182.000000, 184.000000)">
                <g id="编组-28">
                    <g id="编组-36">
                        <rect id="矩形备份-14" x="0" y="0" width="36" height="36"></rect>
                    </g>
                </g>
                <g id="编组" transform="translate(3.000000, 4.000000)">
                    <polygon id="Fill-1" fill="#B2ADFA" points="27.8342 22.3053 23.2752 19.8253 23.3062 3.1213 27.8652 5.6013"></polygon>
                    <polygon id="Fill-3" fill="#958EF8" points="7.1189 25.2164 2.5599 22.7374 23.2759 19.8244 27.8339 22.3054"></polygon>
                    <polygon id="Fill-5" fill="#B2ADFA" points="17.3142 20.6891 12.7552 18.2101 12.7602 15.4681 17.3192 17.9481"></polygon>
                    <polygon id="Fill-7" fill="#7C73F6" points="17.3191 17.9478 24.6491 16.9188 24.6441 19.6588 17.3141 20.6888"></polygon>
                    <polygon id="Fill-9" fill="#958EF8" points="17.3191 17.9478 12.7601 15.4688 20.0901 14.4378 24.6491 16.9188"></polygon>
                    <polygon id="Fill-11" fill="#A09AF9" points="10.3098 19.1754 5.7508 16.6964 8.5598 13.2764 13.1188 15.7554"></polygon>
                    <polygon id="Fill-13" fill="#B4AFFA" points="12.1004 20.86 7.5414 18.381 5.7514 16.696 10.3094 19.175"></polygon>
                    <polygon id="Fill-15" fill="#B4AFFA" points="13.1189 15.7555 8.5599 13.2765 5.7629 10.6265 10.3209 13.1065"></polygon>
                    <polygon id="Fill-17" fill="#A09AF9" points="10.3211 13.106 5.7621 10.627 7.5601 8.428 12.1191 10.909"></polygon>
                    <g transform="translate(4.000000, 2.342100)">
                        <mask id="mask-2" fill="white">
                            <use xlink:href="#path-1"></use>
                        </mask>
                        <g id="Clip-20"></g>
                        <path d="M23.8342,19.9632 L23.8652,3.2592 L3.1502,6.1702 L3.1192,22.8742 L23.8342,19.9632 L23.8342,19.9632 Z M26.3932,0.1382 L26.3682,22.3722 L0.5592,26.0002 L0.6002,3.7632 L26.3932,0.1382 Z" id="Fill-19" fill="#7C73F6" mask="url(#mask-2)"></path>
                    </g>
                    <polygon id="Fill-21" fill="#7C73F6" points="10.3211 13.106 12.1191 10.909 16.7161 15.233 12.1001 20.86 10.3101 19.175 13.1191 15.755"></polygon>
                    <polygon id="Fill-23" fill="#958EF8" points="4.5999 6.1051 0.0409 3.6251 25.8349 0.0001 30.3929 2.4801"></polygon>
                    <g transform="translate(0.000000, 3.342100)">
                        <mask id="mask-4" fill="white">
                            <use xlink:href="#path-3"></use>
                        </mask>
                        <g id="Clip-26"></g>
                        <polygon id="Fill-25" fill="#B2ADFA" mask="url(#mask-4)" points="4.5589 25.0003 -0.0001 22.5203 0.0409 0.2823 4.5999 2.7633"></polygon>
                    </g>
                </g>
            </g>
        </g>
    </g>
</svg>