<?xml version="1.0" encoding="UTF-8"?>
<svg width="31px" height="32px" viewBox="0 0 31 32" version="1.1" xmlns="http://www.w3.org/2000/svg" xmlns:xlink="http://www.w3.org/1999/xlink">
    <!-- Generator: Sketch 64 (93537) - https://sketch.com -->
    <title>sql</title>
    <desc>Created with Sketch.</desc>
    <defs>
        <path d="M0.871,0.006 C1.123,0.022 1.339,0.081 1.517,0.178 L6.076,2.658 C5.898,2.561 5.681,2.502 5.429,2.486" id="path-1"></path>
        <path d="M0.871,0.006 C1.123,0.022 1.339,0.081 1.517,0.178 L6.076,2.658 C5.898,2.561 5.681,2.502 5.429,2.486" id="path-3"></path>
        <path d="M0.871,0.006 C1.123,0.022 1.339,0.081 1.517,0.178 L6.076,2.658 C5.898,2.561 5.681,2.502 5.429,2.486" id="path-5"></path>
        <path d="M1.871,0.006 L6.429,2.486 C6.254,2.478 6.077,2.486 5.9,2.51 C5.618,2.55 5.335,2.632 5.06,2.756 L0.501,0.276 C0.777,0.152 1.059,0.07 1.342,0.031" id="path-7"></path>
        <path d="M0.291,0.631 L4.85,3.111 C5.887,5.135 6.813,6.811 7.619,8.436 L3.06,5.956" id="path-9"></path>
        <path d="M4.668,0.009 L9.227,2.489 C9.21,2.577 9.17,2.669 9.114,2.747 C7.709,4.716 6.304,6.694 4.898,8.664 C4.778,8.836 4.762,8.951 4.85,9.111 L0.291,6.631 C0.203,6.471 0.22,6.356 0.34,6.184 C1.745,4.214 3.15,2.236 4.555,0.267" id="path-11"></path>
        <path d="M4.668,0.009 L9.227,2.489 C9.21,2.577 9.17,2.669 9.114,2.747 C7.709,4.716 6.304,6.694 4.898,8.664 C4.778,8.836 4.762,8.951 4.85,9.111 L0.291,6.631 C0.203,6.471 0.22,6.356 0.34,6.184 C1.745,4.214 3.15,2.236 4.555,0.267" id="path-13"></path>
        <path d="M4.668,0.009 L9.227,2.489 C9.21,2.577 9.17,2.669 9.114,2.747 C7.709,4.716 6.304,6.694 4.898,8.664 C4.778,8.836 4.762,8.951 4.85,9.111 L0.291,6.631 C0.203,6.471 0.22,6.356 0.34,6.184 C1.745,4.214 3.15,2.236 4.555,0.267" id="path-15"></path>
        <path d="M4.668,0.009 L9.227,2.489 C9.21,2.577 9.17,2.669 9.114,2.747 C7.709,4.716 6.304,6.694 4.898,8.664 C4.778,8.836 4.762,8.951 4.85,9.111 L0.291,6.631 C0.203,6.471 0.22,6.356 0.34,6.184 C1.745,4.214 3.15,2.236 4.555,0.267" id="path-17"></path>
        <path d="M4.668,0.009 L9.227,2.489 C9.21,2.577 9.17,2.669 9.114,2.747 C7.709,4.716 6.304,6.694 4.898,8.664 C4.778,8.836 4.762,8.951 4.85,9.111 L0.291,6.631 C0.203,6.471 0.22,6.356 0.34,6.184 C1.745,4.214 3.15,2.236 4.555,0.267" id="path-19"></path>
        <path d="M4.668,0.009 L9.227,2.489 C9.21,2.577 9.17,2.669 9.114,2.747 C7.709,4.716 6.304,6.694 4.898,8.664 C4.778,8.836 4.762,8.951 4.85,9.111 L0.291,6.631 C0.203,6.471 0.22,6.356 0.34,6.184 C1.745,4.214 3.15,2.236 4.555,0.267" id="path-21"></path>
        <path d="M4.668,0.009 L9.227,2.489 C9.21,2.577 9.17,2.669 9.114,2.747 C7.709,4.716 6.304,6.694 4.898,8.664 C4.778,8.836 4.762,8.951 4.85,9.111 L0.291,6.631 C0.203,6.471 0.22,6.356 0.34,6.184 C1.745,4.214 3.15,2.236 4.555,0.267" id="path-23"></path>
        <path d="M3.595,0.746 L8.153,3.225 C7.142,4.655 6.138,6.084 5.126,7.514 L0.568,5.035" id="path-25"></path>
        <path d="M7.501,0.276 L12.06,2.756 C9.863,3.696 7.667,4.627 5.471,5.566 L0.913,3.086" id="path-27"></path>
        <path d="M0.913,0.086 L5.471,2.566 C5.416,2.592 5.369,2.608 5.327,2.614 C5.281,2.62 5.243,2.614 5.207,2.595 L0.648,0.115 C0.684,0.135 0.723,0.14 0.768,0.134" id="path-29"></path>
        <path d="M0.913,0.086 L5.471,2.566 C5.416,2.592 5.369,2.608 5.327,2.614 C5.281,2.62 5.243,2.614 5.207,2.595 L0.648,0.115 C0.684,0.135 0.723,0.14 0.768,0.134" id="path-31"></path>
        <path d="M0.913,0.086 L5.471,2.566 C5.416,2.592 5.369,2.608 5.327,2.614 C5.281,2.62 5.243,2.614 5.207,2.595 L0.648,0.115 C0.684,0.135 0.723,0.14 0.768,0.134" id="path-33"></path>
        <path d="M0.929,0.115 L5.487,2.595 C5.34,4.266 5.193,5.938 5.045,7.618 C5.004,8.126 5.027,8.615 5.195,9.075 C5.334,9.466 5.547,9.736 5.811,9.879 L1.252,7.4 C0.988,7.256 0.775,6.986 0.636,6.595 C0.469,6.135 0.446,5.646 0.487,5.138" id="path-35"></path>
        <polygon id="path-37" points="0.0278582047 0.0162 7.1255 0.0162 7.1255 10 0.0278582047 10"></polygon>
        <path d="M0.926,0.575 L5.485,3.055 C5.573,3.111 5.645,3.188 5.701,3.284 C6.659,4.878 7.633,6.478 8.591,8.081 C8.625,8.139 8.658,8.178 8.696,8.199 L4.138,5.719 C4.099,5.698 4.066,5.659 4.032,5.601 C3.074,3.998 2.1,2.398 1.142,0.804" id="path-39"></path>
        <path d="M0.283,0.967 C1.516,1.321 2.988,1.736 4.349,2.133 L8.908,4.612 C7.547,4.216 6.074,3.801 4.842,3.446" id="path-41"></path>
        <path d="M1.73,0.329 L6.289,2.809 C5.987,2.645 5.659,2.586 5.301,2.638 L0.742,0.158" id="path-43"></path>
        <path d="M1.73,0.329 L6.289,2.809 C5.987,2.645 5.659,2.586 5.301,2.638 L0.742,0.158" id="path-45"></path>
        <path d="M1.73,0.329 L6.289,2.809 C5.987,2.645 5.659,2.586 5.301,2.638 L0.742,0.158" id="path-47"></path>
        <path d="M2.742,0.158 L7.301,2.638 C6.828,2.721 6.363,3.029 5.97,3.551 C5.753,3.84 5.568,4.16 5.424,4.492 L0.865,2.012 C1.01,1.681 1.194,1.36 1.411,1.071" id="path-49"></path>
        <path d="M2.742,0.158 L7.301,2.638 C6.828,2.721 6.363,3.029 5.97,3.551 C5.753,3.84 5.568,4.16 5.424,4.492 L0.865,2.012 C1.01,1.681 1.194,1.36 1.411,1.071" id="path-51"></path>
        <path d="M2.742,0.158 L7.301,2.638 C6.828,2.721 6.363,3.029 5.97,3.551 C5.753,3.84 5.568,4.16 5.424,4.492 L0.865,2.012 C1.01,1.681 1.194,1.36 1.411,1.071" id="path-53"></path>
        <path d="M2.742,0.158 L7.301,2.638 C6.828,2.721 6.363,3.029 5.97,3.551 C5.753,3.84 5.568,4.16 5.424,4.492 L0.865,2.012 C1.01,1.681 1.194,1.36 1.411,1.071" id="path-55"></path>
        <path d="M2.742,0.158 L7.301,2.638 C6.828,2.721 6.363,3.029 5.97,3.551 C5.753,3.84 5.568,4.16 5.424,4.492 L0.865,2.012 C1.01,1.681 1.194,1.36 1.411,1.071" id="path-57"></path>
        <path d="M2.742,0.158 L7.301,2.638 C6.828,2.721 6.363,3.029 5.97,3.551 C5.753,3.84 5.568,4.16 5.424,4.492 L0.865,2.012 C1.01,1.681 1.194,1.36 1.411,1.071" id="path-59"></path>
        <path d="M2.742,0.158 L7.301,2.638 C6.828,2.721 6.363,3.029 5.97,3.551 C5.753,3.84 5.568,4.16 5.424,4.492 L0.865,2.012 C1.01,1.681 1.194,1.36 1.411,1.071" id="path-61"></path>
        <path d="M8.865,0.012 L13.424,2.492 C13.021,3.352 12.948,4.262 12.802,5.155 C12.519,6.829 12.251,8.5 11.984,10.171 C11.952,10.374 11.871,10.463 11.711,10.538 C9.739,11.489 7.775,12.431 5.812,13.39 C5.378,13.597 4.962,13.863 4.569,14.178 L0.01,11.698 C0.403,11.383 0.82,11.117 1.253,10.91 C3.217,9.951 5.18,9.009 7.152,8.058 C7.313,7.983 7.393,7.895 7.425,7.691 C7.692,6.02 7.96,4.349 8.243,2.675" id="path-63"></path>
        <path d="M8.865,0.012 L13.424,2.492 C13.021,3.352 12.948,4.262 12.802,5.155 C12.519,6.829 12.251,8.5 11.984,10.171 C11.952,10.374 11.871,10.463 11.711,10.538 C9.739,11.489 7.775,12.431 5.812,13.39 C5.378,13.597 4.962,13.863 4.569,14.178 L0.01,11.698 C0.403,11.383 0.82,11.117 1.253,10.91 C3.217,9.951 5.18,9.009 7.152,8.058 C7.313,7.983 7.393,7.895 7.425,7.691 C7.692,6.02 7.96,4.349 8.243,2.675" id="path-65"></path>
        <path d="M8.865,0.012 L13.424,2.492 C13.021,3.352 12.948,4.262 12.802,5.155 C12.519,6.829 12.251,8.5 11.984,10.171 C11.952,10.374 11.871,10.463 11.711,10.538 C9.739,11.489 7.775,12.431 5.812,13.39 C5.378,13.597 4.962,13.863 4.569,14.178 L0.01,11.698 C0.403,11.383 0.82,11.117 1.253,10.91 C3.217,9.951 5.18,9.009 7.152,8.058 C7.313,7.983 7.393,7.895 7.425,7.691 C7.692,6.02 7.96,4.349 8.243,2.675" id="path-67"></path>
        <path d="M8.865,0.012 L13.424,2.492 C13.021,3.352 12.948,4.262 12.802,5.155 C12.519,6.829 12.251,8.5 11.984,10.171 C11.952,10.374 11.871,10.463 11.711,10.538 C9.739,11.489 7.775,12.431 5.812,13.39 C5.378,13.597 4.962,13.863 4.569,14.178 L0.01,11.698 C0.403,11.383 0.82,11.117 1.253,10.91 C3.217,9.951 5.18,9.009 7.152,8.058 C7.313,7.983 7.393,7.895 7.425,7.691 C7.692,6.02 7.96,4.349 8.243,2.675" id="path-69"></path>
        <path d="M8.865,0.012 L13.424,2.492 C13.021,3.352 12.948,4.262 12.802,5.155 C12.519,6.829 12.251,8.5 11.984,10.171 C11.952,10.374 11.871,10.463 11.711,10.538 C9.739,11.489 7.775,12.431 5.812,13.39 C5.378,13.597 4.962,13.863 4.569,14.178 L0.01,11.698 C0.403,11.383 0.82,11.117 1.253,10.91 C3.217,9.951 5.18,9.009 7.152,8.058 C7.313,7.983 7.393,7.895 7.425,7.691 C7.692,6.02 7.96,4.349 8.243,2.675" id="path-71"></path>
        <path d="M8.865,0.012 L13.424,2.492 C13.021,3.352 12.948,4.262 12.802,5.155 C12.519,6.829 12.251,8.5 11.984,10.171 C11.952,10.374 11.871,10.463 11.711,10.538 C9.739,11.489 7.775,12.431 5.812,13.39 C5.378,13.597 4.962,13.863 4.569,14.178 L0.01,11.698 C0.403,11.383 0.82,11.117 1.253,10.91 C3.217,9.951 5.18,9.009 7.152,8.058 C7.313,7.983 7.393,7.895 7.425,7.691 C7.692,6.02 7.96,4.349 8.243,2.675" id="path-73"></path>
        <path d="M8.865,0.012 L13.424,2.492 C13.021,3.352 12.948,4.262 12.802,5.155 C12.519,6.829 12.251,8.5 11.984,10.171 C11.952,10.374 11.871,10.463 11.711,10.538 C9.739,11.489 7.775,12.431 5.812,13.39 C5.378,13.597 4.962,13.863 4.569,14.178 L0.01,11.698 C0.403,11.383 0.82,11.117 1.253,10.91 C3.217,9.951 5.18,9.009 7.152,8.058 C7.313,7.983 7.393,7.895 7.425,7.691 C7.692,6.02 7.96,4.349 8.243,2.675" id="path-75"></path>
        <path d="M8.865,0.012 L13.424,2.492 C13.021,3.352 12.948,4.262 12.802,5.155 C12.519,6.829 12.251,8.5 11.984,10.171 C11.952,10.374 11.871,10.463 11.711,10.538 C9.739,11.489 7.775,12.431 5.812,13.39 C5.378,13.597 4.962,13.863 4.569,14.178 L0.01,11.698 C0.403,11.383 0.82,11.117 1.253,10.91 C3.217,9.951 5.18,9.009 7.152,8.058 C7.313,7.983 7.393,7.895 7.425,7.691 C7.692,6.02 7.96,4.349 8.243,2.675" id="path-77"></path>
        <path d="M8.865,0.012 L13.424,2.492 C13.021,3.352 12.948,4.262 12.802,5.155 C12.519,6.829 12.251,8.5 11.984,10.171 C11.952,10.374 11.871,10.463 11.711,10.538 C9.739,11.489 7.775,12.431 5.812,13.39 C5.378,13.597 4.962,13.863 4.569,14.178 L0.01,11.698 C0.403,11.383 0.82,11.117 1.253,10.91 C3.217,9.951 5.18,9.009 7.152,8.058 C7.313,7.983 7.393,7.895 7.425,7.691 C7.692,6.02 7.96,4.349 8.243,2.675" id="path-79"></path>
        <path d="M8.865,0.012 L13.424,2.492 C13.021,3.352 12.948,4.262 12.802,5.155 C12.519,6.829 12.251,8.5 11.984,10.171 C11.952,10.374 11.871,10.463 11.711,10.538 C9.739,11.489 7.775,12.431 5.812,13.39 C5.378,13.597 4.962,13.863 4.569,14.178 L0.01,11.698 C0.403,11.383 0.82,11.117 1.253,10.91 C3.217,9.951 5.18,9.009 7.152,8.058 C7.313,7.983 7.393,7.895 7.425,7.691 C7.692,6.02 7.96,4.349 8.243,2.675" id="path-81"></path>
        <path d="M8.865,0.012 L13.424,2.492 C13.021,3.352 12.948,4.262 12.802,5.155 C12.519,6.829 12.251,8.5 11.984,10.171 C11.952,10.374 11.871,10.463 11.711,10.538 C9.739,11.489 7.775,12.431 5.812,13.39 C5.378,13.597 4.962,13.863 4.569,14.178 L0.01,11.698 C0.403,11.383 0.82,11.117 1.253,10.91 C3.217,9.951 5.18,9.009 7.152,8.058 C7.313,7.983 7.393,7.895 7.425,7.691 C7.692,6.02 7.96,4.349 8.243,2.675" id="path-83"></path>
        <path d="M1.01,0.698 L5.569,3.178 C4.414,4.135 4.235,5.466 5.106,6.493 C5.343,6.774 5.619,6.987 5.925,7.154 L1.367,4.674 C1.06,4.507 0.784,4.294 0.547,4.013" id="path-85"></path>
        <path d="M1.01,0.698 L5.569,3.178 C4.414,4.135 4.235,5.466 5.106,6.493 C5.343,6.774 5.619,6.987 5.925,7.154 L1.367,4.674 C1.06,4.507 0.784,4.294 0.547,4.013" id="path-87"></path>
        <path d="M1.01,0.698 L5.569,3.178 C4.414,4.135 4.235,5.466 5.106,6.493 C5.343,6.774 5.619,6.987 5.925,7.154 L1.367,4.674 C1.06,4.507 0.784,4.294 0.547,4.013" id="path-89"></path>
        <path d="M1.01,0.698 L5.569,3.178 C4.414,4.135 4.235,5.466 5.106,6.493 C5.343,6.774 5.619,6.987 5.925,7.154 L1.367,4.674 C1.06,4.507 0.784,4.294 0.547,4.013" id="path-91"></path>
        <path d="M1.01,0.698 L5.569,3.178 C4.414,4.135 4.235,5.466 5.106,6.493 C5.343,6.774 5.619,6.987 5.925,7.154 L1.367,4.674 C1.06,4.507 0.784,4.294 0.547,4.013" id="path-93"></path>
        <path d="M1.01,0.698 L5.569,3.178 C4.414,4.135 4.235,5.466 5.106,6.493 C5.343,6.774 5.619,6.987 5.925,7.154 L1.367,4.674 C1.06,4.507 0.784,4.294 0.547,4.013" id="path-95"></path>
    </defs>
    <g id="工作空间项目-开发中心-具体工作流" stroke="none" stroke-width="1" fill="none" fill-rule="evenodd">
        <g id="侧边栏icon" transform="translate(-34.000000, -120.000000)">
            <g id="sql" transform="translate(31.000000, 117.000000)">
                <g id="编组-31">
                    <g id="编组-11">
                        <rect id="矩形" x="0" y="0" width="36" height="36"></rect>
                    </g>
                </g>
                <g id="编组" transform="translate(3.000000, 2.000000)">
                    <g transform="translate(24.000000, 3.860200)">
                        <g>
                            <mask id="mask-2" fill="white">
                                <use xlink:href="#path-1"></use>
                            </mask>
                            <g id="Clip-2"></g>
                            <path d="M5.4292,2.4859 L0.8702,0.0059 C0.9912,0.0139 1.1022,0.0309 1.2062,0.0579 L5.7642,2.5379 C5.6612,2.5109 5.5492,2.4939 5.4292,2.4859" id="Fill-1" fill="#9C95F8" mask="url(#mask-2)"></path>
                        </g>
                        <g>
                            <mask id="mask-4" fill="white">
                                <use xlink:href="#path-3"></use>
                            </mask>
                            <g id="Clip-4"></g>
                            <path d="M5.7647,2.5377 L1.2057,0.0577 C1.3017,0.0817 1.3897,0.1147 1.4707,0.1547 L6.0297,2.6337 C5.9487,2.5947 5.8607,2.5617 5.7647,2.5377" id="Fill-3" fill="#9F99F9" mask="url(#mask-4)"></path>
                        </g>
                        <g>
                            <mask id="mask-6" fill="white">
                                <use xlink:href="#path-5"></use>
                            </mask>
                            <g id="Clip-6"></g>
                            <path d="M6.0293,2.6339 L1.4703,0.1549 C1.4863,0.1619 1.5023,0.1699 1.5173,0.1779 L6.0753,2.6579 C6.0603,2.6499 6.0453,2.6419 6.0293,2.6339" id="Fill-5" fill="#A29CF9" mask="url(#mask-6)"></path>
                        </g>
                    </g>
                    <polygon id="Fill-7" fill="#B3AEFA" points="20.7217 24.9867 16.1627 22.5077 15.9527 19.1747 20.5117 21.6537"></polygon>
                    <polygon id="Fill-9" fill="#9993F8" points="20.5117 21.6542 15.9527 19.1742 20.0597 19.8162 24.6187 22.2962"></polygon>
                    <g transform="translate(23.000000, 3.860200)">
                        <mask id="mask-8" fill="white">
                            <use xlink:href="#path-7"></use>
                        </mask>
                        <g id="Clip-12"></g>
                        <path d="M5.0596,2.7564 L0.5006,0.2764 C0.7766,0.1524 1.0596,0.0704 1.3416,0.0304 C1.5186,0.0064 1.6956,-0.0026 1.8706,0.0064 L6.4296,2.4854 C6.2536,2.4774 6.0776,2.4854 5.9006,2.5104 C5.6176,2.5504 5.3356,2.6324 5.0596,2.7564" id="Fill-11" fill="#9C95F8" mask="url(#mask-8)"></path>
                    </g>
                    <g transform="translate(17.000000, 13.860200)">
                        <mask id="mask-10" fill="white">
                            <use xlink:href="#path-9"></use>
                        </mask>
                        <g id="Clip-14"></g>
                        <path d="M7.6187,8.4356 L3.0597,5.9556 C2.2547,4.3316 1.3287,2.6546 0.2907,0.6316 L4.8497,3.1106 C5.8877,5.1346 6.8127,6.8106 7.6187,8.4356" id="Fill-13" fill="#B1ACFA" mask="url(#mask-10)"></path>
                    </g>
                    <g transform="translate(17.000000, 7.860200)">
                        <g>
                            <mask id="mask-12" fill="white">
                                <use xlink:href="#path-11"></use>
                            </mask>
                            <g id="Clip-16"></g>
                            <path d="M4.8496,9.1109 L0.2906,6.6319 C0.2316,6.5219 0.2196,6.4339 0.2566,6.3349 L4.8146,8.8149 C4.7786,8.9139 4.7896,9.0019 4.8496,9.1109" id="Fill-15" fill="#B1ACFA" mask="url(#mask-12)"></path>
                        </g>
                        <g>
                            <mask id="mask-14" fill="white">
                                <use xlink:href="#path-13"></use>
                            </mask>
                            <g id="Clip-18"></g>
                            <path d="M4.815,8.815 L0.256,6.335 C0.264,6.314 0.274,6.293 0.286,6.27 L4.845,8.75 C4.833,8.773 4.823,8.794 4.815,8.815" id="Fill-17" fill="#AEA9FA" mask="url(#mask-14)"></path>
                        </g>
                        <g>
                            <mask id="mask-16" fill="white">
                                <use xlink:href="#path-15"></use>
                            </mask>
                            <g id="Clip-20"></g>
                            <path d="M4.8447,8.7501 L0.2857,6.2701 C0.2997,6.2441 0.3167,6.2171 0.3357,6.1891 L4.8947,8.6691 C4.8747,8.6971 4.8587,8.7241 4.8447,8.7501" id="Fill-19" fill="#ABA5F9" mask="url(#mask-16)"></path>
                        </g>
                        <g>
                            <mask id="mask-18" fill="white">
                                <use xlink:href="#path-17"></use>
                            </mask>
                            <g id="Clip-22"></g>
                            <path d="M4.8945,8.669 L0.3355,6.189 C0.3375,6.187 0.3385,6.186 0.3395,6.184 C1.7455,4.214 3.1505,2.236 4.5555,0.267 C4.5575,0.263 4.5605,0.26 4.5615,0.257 L9.1205,2.737 C9.1185,2.74 9.1165,2.743 9.1135,2.747 C7.7085,4.716 6.3035,6.694 4.8985,8.664 C4.8975,8.665 4.8955,8.667 4.8945,8.669" id="Fill-21" fill="#A8A2F9" mask="url(#mask-18)"></path>
                        </g>
                        <g>
                            <mask id="mask-20" fill="white">
                                <use xlink:href="#path-19"></use>
                            </mask>
                            <g id="Clip-24"></g>
                            <path d="M9.1206,2.7369 L4.5616,0.2569 C4.5776,0.2359 4.5906,0.2139 4.6026,0.1909 L9.1616,2.6709 C9.1496,2.6939 9.1356,2.7159 9.1206,2.7369" id="Fill-23" fill="#ABA5F9" mask="url(#mask-20)"></path>
                        </g>
                        <g>
                            <mask id="mask-22" fill="white">
                                <use xlink:href="#path-21"></use>
                            </mask>
                            <g id="Clip-26"></g>
                            <path d="M9.1616,2.671 L4.6026,0.191 C4.6176,0.164 4.6306,0.135 4.6406,0.106 L9.1996,2.586 C9.1886,2.615 9.1766,2.644 9.1616,2.671" id="Fill-25" fill="#AEA9FA" mask="url(#mask-22)"></path>
                        </g>
                        <g>
                            <mask id="mask-24" fill="white">
                                <use xlink:href="#path-23"></use>
                            </mask>
                            <g id="Clip-28"></g>
                            <path d="M9.1997,2.586 L4.6407,0.106 C4.6527,0.074 4.6617,0.041 4.6677,0.009 L9.2267,2.489 C9.2207,2.521 9.2117,2.554 9.1997,2.586" id="Fill-27" fill="#B1ACFA" mask="url(#mask-24)"></path>
                        </g>
                    </g>
                    <g transform="translate(9.000000, 19.860200)">
                        <mask id="mask-26" fill="white">
                            <use xlink:href="#path-25"></use>
                        </mask>
                        <g id="Clip-30"></g>
                        <path d="M5.1265,7.5142 L0.5675,5.0352 C1.5795,3.6042 2.5835,2.1752 3.5945,0.7452 L8.1535,3.2252 C7.1415,4.6552 6.1385,6.0842 5.1265,7.5142" id="Fill-29" fill="#A8A2F9" mask="url(#mask-26)"></path>
                    </g>
                    <polygon id="Fill-31" fill="#9C95F8" points="13.9258 27.5585 9.3668 25.0785 9.5678 24.8945 14.1268 27.3745"></polygon>
                    <g transform="translate(16.000000, 3.860200)">
                        <mask id="mask-28" fill="white">
                            <use xlink:href="#path-27"></use>
                        </mask>
                        <g id="Clip-34"></g>
                        <path d="M5.4712,5.5665 L0.9122,3.0865 C3.1092,2.1475 5.3042,1.2155 7.5012,0.2765 L12.0592,2.7565 C9.8632,3.6955 7.6672,4.6275 5.4712,5.5665" id="Fill-33" fill="#9C95F8" mask="url(#mask-28)"></path>
                    </g>
                    <g transform="translate(16.000000, 6.860200)">
                        <g>
                            <mask id="mask-30" fill="white">
                                <use xlink:href="#path-29"></use>
                            </mask>
                            <g id="Clip-36"></g>
                            <path d="M5.207,2.5953 L0.648,0.1153 C0.65,0.1163 0.653,0.1173 0.655,0.1183 L5.213,2.5983 C5.211,2.5973 5.209,2.5963 5.207,2.5953" id="Fill-35" fill="#A29CF9" mask="url(#mask-30)"></path>
                        </g>
                        <g>
                            <mask id="mask-32" fill="white">
                                <use xlink:href="#path-31"></use>
                            </mask>
                            <g id="Clip-38"></g>
                            <path d="M5.2134,2.5987 L0.6544,0.1187 C0.6654,0.1237 0.6764,0.1277 0.6874,0.1307 L5.2464,2.6107 C5.2344,2.6077 5.2244,2.6037 5.2134,2.5987" id="Fill-37" fill="#9F99F9" mask="url(#mask-32)"></path>
                        </g>
                        <g>
                            <mask id="mask-34" fill="white">
                                <use xlink:href="#path-33"></use>
                            </mask>
                            <g id="Clip-40"></g>
                            <path d="M5.2461,2.6104 L0.6871,0.1314 C0.7121,0.1374 0.7391,0.1384 0.7681,0.1334 C0.8101,0.1284 0.8571,0.1114 0.9131,0.0864 L5.4711,2.5664 C5.4161,2.5914 5.3691,2.6084 5.3271,2.6134 C5.2971,2.6174 5.2711,2.6174 5.2461,2.6104" id="Fill-39" fill="#9C95F8" mask="url(#mask-34)"></path>
                        </g>
                    </g>
                    <g transform="translate(6.000000, 22.860200)">
                        <mask id="mask-36" fill="white">
                            <use xlink:href="#path-35"></use>
                        </mask>
                        <g id="Clip-42"></g>
                        <path d="M5.8111,9.8795 L1.2521,7.4005 C0.9881,7.2565 0.7751,6.9855 0.6361,6.5955 C0.4691,6.1345 0.4461,5.6455 0.4871,5.1385 C0.6341,3.4585 0.7811,1.7865 0.9291,0.1145 L5.4871,2.5945 C5.3401,4.2665 5.1931,5.9385 5.0451,7.6185 C5.0041,8.1255 5.0271,8.6145 5.1951,9.0755 C5.3331,9.4655 5.5471,9.7365 5.8111,9.8795" id="Fill-41" fill="#B1ACFA" mask="url(#mask-36)"></path>
                    </g>
                    <g transform="translate(11.000000, 22.860200)">
                        <mask id="mask-38" fill="white">
                            <use xlink:href="#path-37"></use>
                        </mask>
                        <g id="Clip-44"></g>
                        <path d="M3.1265,4.5142 C4.1385,3.0842 5.1415,1.6552 6.1535,0.2252 L7.1255,3.1142 C5.8645,4.9072 4.5955,6.7022 3.3275,8.4882 C3.0225,8.9202 2.7015,9.3192 2.2845,9.6202 C1.9975,9.8302 1.7175,9.9512 1.4585,9.9882 C0.8985,10.0672 0.4345,9.7502 0.1945,9.0752 C0.0275,8.6152 0.0045,8.1252 0.0455,7.6182 C0.1925,5.9382 0.3395,4.2662 0.4875,2.5952 L3.3345,0.0162 C3.2365,1.1192 3.1385,2.2132 3.0405,3.3162 C2.9995,3.7802 2.9595,4.2352 2.9255,4.6982 L3.1265,4.5142 Z" id="Fill-43" fill="#7C73F6" mask="url(#mask-38)"></path>
                    </g>
                    <polygon id="Fill-45" fill="#9C95F8" points="11.4873 25.455 6.9283 22.975 9.7763 20.397 14.3353 22.876"></polygon>
                    <g transform="translate(11.000000, 4.860200)">
                        <mask id="mask-40" fill="white">
                            <use xlink:href="#path-39"></use>
                        </mask>
                        <g id="Clip-48"></g>
                        <path d="M8.6963,8.1993 L4.1373,5.7193 C4.0993,5.6983 4.0663,5.6593 4.0323,5.6013 C3.0743,3.9983 2.1003,2.3983 1.1423,0.8033 C1.0863,0.7073 1.0143,0.6313 0.9263,0.5743 L5.4853,3.0543 C5.5723,3.1113 5.6453,3.1873 5.7003,3.2833 C6.6583,4.8773 7.6333,6.4783 8.5913,8.0803 C8.6253,8.1393 8.6573,8.1783 8.6963,8.1993" id="Fill-47" fill="#B1ACFA" mask="url(#mask-40)"></path>
                    </g>
                    <g transform="translate(4.000000, 14.860200)">
                        <mask id="mask-42" fill="white">
                            <use xlink:href="#path-41"></use>
                        </mask>
                        <g id="Clip-50"></g>
                        <path d="M4.8418,3.4464 L0.2828,0.9674 C1.5158,1.3214 2.9878,1.7364 4.3488,2.1334 L8.9078,4.6124 C7.5478,4.2164 6.0738,3.8004 4.8418,3.4464" id="Fill-49" fill="#9F99F9" mask="url(#mask-42)"></path>
                    </g>
                    <g transform="translate(11.000000, 0.860200)">
                        <g>
                            <mask id="mask-44" fill="white">
                                <use xlink:href="#path-43"></use>
                            </mask>
                            <g id="Clip-52"></g>
                            <path d="M5.3008,2.6378 L0.7418,0.1578 C0.9658,0.1258 1.1758,0.1368 1.3768,0.1888 L5.9348,2.6678 C5.7348,2.6168 5.5238,2.6058 5.3008,2.6378" id="Fill-51" fill="#9C95F8" mask="url(#mask-44)"></path>
                        </g>
                        <g>
                            <mask id="mask-46" fill="white">
                                <use xlink:href="#path-45"></use>
                            </mask>
                            <g id="Clip-54"></g>
                            <path d="M5.9351,2.668 L1.3761,0.189 C1.4771,0.214 1.5751,0.251 1.6701,0.298 L6.2291,2.778 C6.1341,2.731 6.0361,2.694 5.9351,2.668" id="Fill-53" fill="#9F99F9" mask="url(#mask-46)"></path>
                        </g>
                        <g>
                            <mask id="mask-48" fill="white">
                                <use xlink:href="#path-47"></use>
                            </mask>
                            <g id="Clip-56"></g>
                            <path d="M6.229,2.7779 L1.67,0.2979 C1.69,0.3079 1.71,0.3179 1.73,0.3289 L6.289,2.8089 C6.269,2.7979 6.249,2.7879 6.229,2.7779" id="Fill-55" fill="#A29CF9" mask="url(#mask-48)"></path>
                        </g>
                    </g>
                    <g transform="translate(9.000000, 0.860200)">
                        <g>
                            <mask id="mask-50" fill="white">
                                <use xlink:href="#path-49"></use>
                            </mask>
                            <g id="Clip-58"></g>
                            <path d="M5.4238,4.4918 L0.8648,2.0128 C0.9168,1.8928 0.9748,1.7748 1.0368,1.6588 L5.5948,4.1388 C5.5328,4.2548 5.4758,4.3728 5.4238,4.4918" id="Fill-57" fill="#AEA9FA" mask="url(#mask-50)"></path>
                        </g>
                        <g>
                            <mask id="mask-52" fill="white">
                                <use xlink:href="#path-51"></use>
                            </mask>
                            <g id="Clip-60"></g>
                            <path d="M5.5952,4.1392 L1.0362,1.6592 C1.1252,1.4942 1.2232,1.3352 1.3302,1.1832 L5.8882,3.6632 C5.7822,3.8152 5.6832,3.9742 5.5952,4.1392" id="Fill-59" fill="#ABA5F9" mask="url(#mask-52)"></path>
                        </g>
                        <g>
                            <mask id="mask-54" fill="white">
                                <use xlink:href="#path-53"></use>
                            </mask>
                            <g id="Clip-62"></g>
                            <path d="M5.8887,3.6631 L1.3297,1.1831 C1.3567,1.1451 1.3837,1.1081 1.4107,1.0711 C1.4627,1.0021 1.5157,0.9371 1.5697,0.8761 L6.1287,3.3561 C6.0747,3.4171 6.0217,3.4821 5.9697,3.5511 C5.9427,3.5871 5.9147,3.6251 5.8887,3.6631" id="Fill-61" fill="#A8A2F9" mask="url(#mask-54)"></path>
                        </g>
                        <g>
                            <mask id="mask-56" fill="white">
                                <use xlink:href="#path-55"></use>
                            </mask>
                            <g id="Clip-64"></g>
                            <path d="M6.1284,3.3565 L1.5694,0.8765 C1.6424,0.7935 1.7174,0.7175 1.7944,0.6485 L6.3534,3.1285 C6.2764,3.1975 6.2014,3.2735 6.1284,3.3565" id="Fill-63" fill="#A59FF9" mask="url(#mask-56)"></path>
                        </g>
                        <g>
                            <mask id="mask-58" fill="white">
                                <use xlink:href="#path-57"></use>
                            </mask>
                            <g id="Clip-66"></g>
                            <path d="M6.353,3.1285 L1.794,0.6485 C1.872,0.5785 1.952,0.5165 2.032,0.4605 L6.591,2.9405 C6.51,2.9955 6.431,3.0585 6.353,3.1285" id="Fill-65" fill="#A29CF9" mask="url(#mask-58)"></path>
                        </g>
                        <g>
                            <mask id="mask-60" fill="white">
                                <use xlink:href="#path-59"></use>
                            </mask>
                            <g id="Clip-68"></g>
                            <path d="M6.5908,2.94 L2.0318,0.46 C2.1258,0.396 2.2208,0.34 2.3178,0.294 L6.8768,2.774 C6.7798,2.82 6.6848,2.875 6.5908,2.94" id="Fill-67" fill="#9F99F9" mask="url(#mask-60)"></path>
                        </g>
                        <g>
                            <mask id="mask-62" fill="white">
                                <use xlink:href="#path-61"></use>
                            </mask>
                            <g id="Clip-70"></g>
                            <path d="M6.8765,2.7745 L2.3175,0.2945 C2.4575,0.2285 2.5995,0.1835 2.7425,0.1575 L7.3005,2.6375 C7.1585,2.6625 7.0165,2.7085 6.8765,2.7745" id="Fill-69" fill="#9C95F8" mask="url(#mask-62)"></path>
                        </g>
                    </g>
                    <g transform="translate(1.000000, 2.860200)">
                        <g>
                            <mask id="mask-64" fill="white">
                                <use xlink:href="#path-63"></use>
                            </mask>
                            <g id="Clip-72"></g>
                            <path d="M4.5689,14.1778 L0.0099,11.6978 C0.1369,11.5958 0.2669,11.4988 0.3999,11.4078 L4.9579,13.8878 C4.8259,13.9788 4.6959,14.0758 4.5689,14.1778" id="Fill-71" fill="#A29CF9" mask="url(#mask-64)"></path>
                        </g>
                        <g>
                            <mask id="mask-66" fill="white">
                                <use xlink:href="#path-65"></use>
                            </mask>
                            <g id="Clip-74"></g>
                            <path d="M4.958,13.8878 L0.399,11.4078 C0.675,11.2178 0.96,11.0498 1.253,10.9098 C3.176,9.9708 5.099,9.0488 7.029,8.1168 L11.587,10.5968 C9.657,11.5288 7.734,12.4508 5.812,13.3898 C5.519,13.5298 5.233,13.6968 4.958,13.8878" id="Fill-73" fill="#9F99F9" mask="url(#mask-66)"></path>
                        </g>
                        <g>
                            <mask id="mask-68" fill="white">
                                <use xlink:href="#path-67"></use>
                            </mask>
                            <g id="Clip-76"></g>
                            <path d="M11.5874,10.5972 L7.0284,8.1172 C7.0694,8.0972 7.1114,8.0772 7.1524,8.0582 C7.1534,8.0572 7.1554,8.0562 7.1574,8.0552 L11.7154,10.5352 C11.7144,10.5362 11.7124,10.5372 11.7114,10.5372 C11.6704,10.5572 11.6294,10.5772 11.5874,10.5972" id="Fill-75" fill="#9C95F8" mask="url(#mask-68)"></path>
                        </g>
                        <g>
                            <mask id="mask-70" fill="white">
                                <use xlink:href="#path-69"></use>
                            </mask>
                            <g id="Clip-78"></g>
                            <path d="M11.7158,10.5352 L7.1568,8.0562 C7.1918,8.0392 7.2228,8.0222 7.2508,8.0032 L11.8088,10.4832 C11.7818,10.5022 11.7508,10.5192 11.7158,10.5352" id="Fill-77" fill="#9F99F9" mask="url(#mask-70)"></path>
                        </g>
                        <g>
                            <mask id="mask-72" fill="white">
                                <use xlink:href="#path-71"></use>
                            </mask>
                            <g id="Clip-80"></g>
                            <path d="M11.8091,10.483 L7.2501,8.003 C7.2661,7.992 7.2801,7.982 7.2931,7.969 L11.8521,10.449 C11.8391,10.461 11.8251,10.472 11.8091,10.483" id="Fill-79" fill="#A29CF9" mask="url(#mask-72)"></path>
                        </g>
                        <g>
                            <mask id="mask-74" fill="white">
                                <use xlink:href="#path-73"></use>
                            </mask>
                            <g id="Clip-82"></g>
                            <path d="M11.8521,10.4493 L7.2931,7.9693 C7.3041,7.9603 7.3131,7.9503 7.3221,7.9403 L11.8811,10.4203 C11.8721,10.4303 11.8621,10.4403 11.8521,10.4493" id="Fill-81" fill="#A59FF9" mask="url(#mask-74)"></path>
                        </g>
                        <g>
                            <mask id="mask-76" fill="white">
                                <use xlink:href="#path-75"></use>
                            </mask>
                            <g id="Clip-84"></g>
                            <path d="M11.8809,10.42 L7.3219,7.94 C7.3309,7.93 7.3389,7.92 7.3469,7.91 L11.9049,10.389 C11.8979,10.4 11.8899,10.41 11.8809,10.42" id="Fill-83" fill="#A8A2F9" mask="url(#mask-76)"></path>
                        </g>
                        <g>
                            <mask id="mask-78" fill="white">
                                <use xlink:href="#path-77"></use>
                            </mask>
                            <g id="Clip-86"></g>
                            <path d="M11.9053,10.3892 L7.3463,7.9102 C7.3543,7.8982 7.3623,7.8862 7.3693,7.8722 L11.9273,10.3522 C11.9213,10.3662 11.9133,10.3782 11.9053,10.3892" id="Fill-85" fill="#ABA5F9" mask="url(#mask-78)"></path>
                        </g>
                        <g>
                            <mask id="mask-80" fill="white">
                                <use xlink:href="#path-79"></use>
                            </mask>
                            <g id="Clip-88"></g>
                            <path d="M11.9277,10.3526 L7.3687,7.8726 C7.3787,7.8556 7.3867,7.8376 7.3937,7.8176 L11.9527,10.2976 C11.9457,10.3166 11.9367,10.3356 11.9277,10.3526" id="Fill-87" fill="#AEA9FA" mask="url(#mask-80)"></path>
                        </g>
                        <g>
                            <mask id="mask-82" fill="white">
                                <use xlink:href="#path-81"></use>
                            </mask>
                            <g id="Clip-90"></g>
                            <path d="M11.9527,10.2974 L7.3937,7.8174 C7.4077,7.7804 7.4177,7.7394 7.4257,7.6914 C7.6927,6.0204 7.9597,4.3484 8.2437,2.6754 C8.3697,1.9024 8.4417,1.1184 8.7187,0.3644 L13.2777,2.8434 C13.0007,3.5984 12.9287,4.3824 12.8017,5.1544 C12.5187,6.8284 12.2517,8.4994 11.9837,10.1714 C11.9757,10.2184 11.9657,10.2604 11.9527,10.2974" id="Fill-89" fill="#B1ACFA" mask="url(#mask-82)"></path>
                        </g>
                        <g>
                            <mask id="mask-84" fill="white">
                                <use xlink:href="#path-83"></use>
                            </mask>
                            <g id="Clip-92"></g>
                            <path d="M13.2774,2.8438 L8.7184,0.3648 C8.7624,0.2458 8.8104,0.1288 8.8644,0.0118 L13.4234,2.4918 C13.3694,2.6088 13.3204,2.7258 13.2774,2.8438" id="Fill-91" fill="#AEA9FA" mask="url(#mask-84)"></path>
                        </g>
                    </g>
                    <path d="M29.4292,6.3461 C30.4462,6.4101 30.8852,7.1791 30.5392,8.2821 C30.3862,8.7791 30.1132,9.2231 29.8152,9.6541 C28.2742,11.8071 26.7482,13.9751 25.2072,16.1281 C25.0782,16.3021 25.0782,16.4141 25.1662,16.5831 C26.0752,18.3221 26.9772,20.0621 27.8872,21.8021 C28.1102,22.2201 28.2702,22.6561 28.2772,23.1731 C28.2832,24.0361 27.8412,24.8591 27.1762,25.3421 C26.9112,25.5951 26.5982,25.6481 26.2542,25.7571 C26.0922,25.8061 25.9572,25.8381 25.8312,25.8561 C25.5892,25.8901 25.3832,25.8691 25.0932,25.8071 C23.7002,25.5021 22.1062,25.2941 20.7212,24.9871 L20.5122,21.6541 L24.6182,22.2961 C23.8132,20.6711 22.8872,18.9951 21.8492,16.9711 C21.7622,16.8111 21.7782,16.6961 21.8982,16.5241 C23.3042,14.5541 24.7092,12.5761 26.1142,10.6071 C26.1702,10.5301 26.2102,10.4371 26.2262,10.3491 C25.8182,10.5181 25.4012,10.6901 24.9922,10.8681 C23.2932,11.5911 21.5942,12.3141 19.8952,13.0451 C19.8582,13.0611 19.8252,13.0711 19.7962,13.0751 C19.7072,13.0881 19.6512,13.0441 19.5912,12.9411 C18.6332,11.3381 17.6582,9.7381 16.7002,8.1441 C16.6452,8.0481 16.5732,7.9711 16.4852,7.9151 C16.4122,8.3921 16.3312,8.8611 16.2502,9.3391 C15.9742,11.0121 15.7072,12.6831 15.4322,14.3641 C15.4082,14.5401 15.3672,14.7271 15.3512,14.9031 C15.3342,15.0781 15.2542,15.1501 15.1182,15.2121 C13.1142,16.1771 11.1102,17.1411 9.1062,18.1051 C9.0102,18.1531 8.9222,18.2181 8.8422,18.3061 C10.0742,18.6611 11.5472,19.0761 12.9082,19.4721 L10.2592,22.5421 C8.9792,22.1081 7.7542,21.6921 6.5302,21.2771 C5.9772,21.0861 5.4902,20.8091 5.1062,20.3531 C4.2352,19.3261 4.4132,17.9951 5.5692,17.0381 C5.9622,16.7231 6.3782,16.4571 6.8112,16.2501 C8.7752,15.2911 10.7392,14.3491 12.7112,13.3981 C12.8712,13.3241 12.9512,13.2341 12.9842,13.0311 C13.2512,11.3601 13.5182,9.6891 13.8022,8.0151 C13.9482,7.1221 14.0212,6.2121 14.4242,5.3521 C14.5682,5.0201 14.7532,4.7001 14.9702,4.4111 C15.3632,3.8891 15.8282,3.5811 16.3012,3.4981 C16.8162,3.4241 17.2692,3.5771 17.6692,3.9451 C17.9492,4.2171 18.1892,4.5291 18.3882,4.8641 C19.2992,6.3441 20.1932,7.8251 21.0792,9.3091 C21.1532,9.4401 21.2232,9.4891 21.3262,9.4741 C21.3682,9.4681 21.4162,9.4521 21.4712,9.4271 C23.6672,8.4871 25.8632,7.5561 28.0592,6.6171 C28.3352,6.4921 28.6172,6.4101 28.9002,6.3701 C29.0772,6.3461 29.2542,6.3381 29.4292,6.3461" id="Fill-93" fill="#7C73F6"></path>
                    <g transform="translate(0.000000, 13.860200)">
                        <g>
                            <mask id="mask-86" fill="white">
                                <use xlink:href="#path-85"></use>
                            </mask>
                            <g id="Clip-96"></g>
                            <path d="M5.9253,7.1544 L1.3663,4.6744 C1.0603,4.5074 0.7843,4.2944 0.5473,4.0134 C0.0013,3.3684 -0.1327,2.6044 0.1293,1.8884 L4.6883,4.3684 C4.4263,5.0844 4.5593,5.8484 5.1063,6.4924 C5.3423,6.7744 5.6193,6.9874 5.9253,7.1544" id="Fill-95" fill="#B1ACFA" mask="url(#mask-86)"></path>
                        </g>
                        <g>
                            <mask id="mask-88" fill="white">
                                <use xlink:href="#path-87"></use>
                            </mask>
                            <g id="Clip-98"></g>
                            <path d="M4.688,4.3682 L0.129,1.8882 C0.167,1.7852 0.213,1.6822 0.268,1.5812 L4.826,4.0612 C4.772,4.1622 4.726,4.2642 4.688,4.3682" id="Fill-97" fill="#AEA9FA" mask="url(#mask-88)"></path>
                        </g>
                        <g>
                            <mask id="mask-90" fill="white">
                                <use xlink:href="#path-89"></use>
                            </mask>
                            <g id="Clip-100"></g>
                            <path d="M4.8262,4.0616 L0.2672,1.5816 C0.3152,1.4926 0.3702,1.4046 0.4302,1.3176 L4.9892,3.7976 C4.9292,3.8846 4.8742,3.9726 4.8262,4.0616" id="Fill-99" fill="#ABA5F9" mask="url(#mask-90)"></path>
                        </g>
                        <g>
                            <mask id="mask-92" fill="white">
                                <use xlink:href="#path-91"></use>
                            </mask>
                            <g id="Clip-102"></g>
                            <path d="M4.9893,3.7974 L0.4303,1.3174 C0.4913,1.2304 0.5593,1.1454 0.6333,1.0614 L5.1923,3.5414 C5.1183,3.6244 5.0503,3.7104 4.9893,3.7974" id="Fill-101" fill="#A8A2F9" mask="url(#mask-92)"></path>
                        </g>
                        <g>
                            <mask id="mask-94" fill="white">
                                <use xlink:href="#path-93"></use>
                            </mask>
                            <g id="Clip-104"></g>
                            <path d="M5.1924,3.5411 L0.6334,1.0611 C0.7144,0.9691 0.8034,0.8791 0.9004,0.7921 L5.4594,3.2721 C5.3624,3.3591 5.2734,3.4491 5.1924,3.5411" id="Fill-103" fill="#A59FF9" mask="url(#mask-94)"></path>
                        </g>
                        <g>
                            <mask id="mask-96" fill="white">
                                <use xlink:href="#path-95"></use>
                            </mask>
                            <g id="Clip-106"></g>
                            <path d="M5.459,3.2725 L0.9,0.7925 C0.936,0.7605 0.973,0.7295 1.01,0.6975 L5.569,3.1775 C5.531,3.2095 5.495,3.2405 5.459,3.2725" id="Fill-105" fill="#A29CF9" mask="url(#mask-96)"></path>
                        </g>
                    </g>
                </g>
            </g>
        </g>
    </g>
</svg>