<?xml version="1.0" encoding="UTF-8"?>
<svg width="25px" height="31px" viewBox="0 0 25 31" version="1.1" xmlns="http://www.w3.org/2000/svg" xmlns:xlink="http://www.w3.org/1999/xlink">
    <!-- Generator: Sketch 64 (93537) - https://sketch.com -->
    <title>subflow</title>
    <desc>Created with Sketch.</desc>
    <defs>
        <path d="M0.191,0.441 L4.75,2.922 C4.97,3.305 5.285,3.622 5.672,3.832 L1.113,1.353" id="path-1"></path>
        <path d="M2.137,0.801 L6.696,3.281 C6.262,3.045 5.747,2.945 5.194,3.022 L0.634,0.543" id="path-3"></path>
        <path d="M2.137,0.801 L6.696,3.281 C6.262,3.045 5.747,2.945 5.194,3.022 L0.634,0.543" id="path-5"></path>
        <path d="M2.137,0.801 L6.696,3.281 C6.262,3.045 5.747,2.945 5.194,3.022 L0.634,0.543" id="path-7"></path>
        <path d="M2.634,0.543 L7.194,3.022 C6.16,3.168 5.302,3.92 4.811,4.879 L0.253,2.399" id="path-9"></path>
        <path d="M2.634,0.543 L7.194,3.022 C6.16,3.168 5.302,3.92 4.811,4.879 L0.253,2.399" id="path-11"></path>
        <path d="M2.634,0.543 L7.194,3.022 C6.16,3.168 5.302,3.92 4.811,4.879 L0.253,2.399" id="path-13"></path>
        <path d="M2.634,0.543 L7.194,3.022 C6.16,3.168 5.302,3.92 4.811,4.879 L0.253,2.399" id="path-15"></path>
        <path d="M2.634,0.543 L7.194,3.022 C6.16,3.168 5.302,3.92 4.811,4.879 L0.253,2.399" id="path-17"></path>
        <path d="M2.634,0.543 L7.194,3.022 C6.16,3.168 5.302,3.92 4.811,4.879 L0.253,2.399" id="path-19"></path>
        <path d="M2.634,0.543 L7.194,3.022 C6.16,3.168 5.302,3.92 4.811,4.879 L0.253,2.399" id="path-21"></path>
        <path d="M0.208,0.338 L4.767,2.817 C4.991,3.216 5.316,3.532 5.712,3.748 L1.154,1.269" id="path-23"></path>
        <path d="M4.155,0.706 L8.713,3.186 C8.279,2.949 7.763,2.85 7.21,2.928 C6.177,3.072 5.319,3.815 4.828,4.775 L0.27,2.295 C0.76,1.336 1.618,0.593 2.652,0.447" id="path-25"></path>
        <path d="M4.155,0.706 L8.713,3.186 C8.279,2.949 7.763,2.85 7.21,2.928 C6.177,3.072 5.319,3.815 4.828,4.775 L0.27,2.295 C0.76,1.336 1.618,0.593 2.652,0.447" id="path-27"></path>
        <path d="M4.155,0.706 L8.713,3.186 C8.279,2.949 7.763,2.85 7.21,2.928 C6.177,3.072 5.319,3.815 4.828,4.775 L0.27,2.295 C0.76,1.336 1.618,0.593 2.652,0.447" id="path-29"></path>
        <path d="M4.155,0.706 L8.713,3.186 C8.279,2.949 7.763,2.85 7.21,2.928 C6.177,3.072 5.319,3.815 4.828,4.775 L0.27,2.295 C0.76,1.336 1.618,0.593 2.652,0.447" id="path-31"></path>
        <path d="M4.155,0.706 L8.713,3.186 C8.279,2.949 7.763,2.85 7.21,2.928 C6.177,3.072 5.319,3.815 4.828,4.775 L0.27,2.295 C0.76,1.336 1.618,0.593 2.652,0.447" id="path-33"></path>
        <path d="M4.155,0.706 L8.713,3.186 C8.279,2.949 7.763,2.85 7.21,2.928 C6.177,3.072 5.319,3.815 4.828,4.775 L0.27,2.295 C0.76,1.336 1.618,0.593 2.652,0.447" id="path-35"></path>
        <path d="M4.155,0.706 L8.713,3.186 C8.279,2.949 7.763,2.85 7.21,2.928 C6.177,3.072 5.319,3.815 4.828,4.775 L0.27,2.295 C0.76,1.336 1.618,0.593 2.652,0.447" id="path-37"></path>
        <path d="M4.155,0.706 L8.713,3.186 C8.279,2.949 7.763,2.85 7.21,2.928 C6.177,3.072 5.319,3.815 4.828,4.775 L0.27,2.295 C0.76,1.336 1.618,0.593 2.652,0.447" id="path-39"></path>
        <path d="M4.155,0.706 L8.713,3.186 C8.279,2.949 7.763,2.85 7.21,2.928 C6.177,3.072 5.319,3.815 4.828,4.775 L0.27,2.295 C0.76,1.336 1.618,0.593 2.652,0.447" id="path-41"></path>
        <path d="M0.98399424,0.843 L5.542,3.322 C5.54,4.402 6.06,5.276 6.845,5.704 L2.287,3.224" id="path-43"></path>
        <path d="M0.918,0.215 C1.351,0.45 1.863,0.55 2.413,0.472 L6.972,2.952 C6.423,3.029 5.909,2.93 5.477,2.694" id="path-45"></path>
        <path d="M0.918,0.215 C1.351,0.45 1.863,0.55 2.413,0.472 L6.972,2.952 C6.423,3.029 5.909,2.93 5.477,2.694" id="path-47"></path>
        <path d="M0.918,0.215 C1.351,0.45 1.863,0.55 2.413,0.472 L6.972,2.952 C6.423,3.029 5.909,2.93 5.477,2.694" id="path-49"></path>
        <path d="M1.927,0.669 L6.486,3.148 C7.272,3.576 7.791,4.45 7.78900576,5.53 C7.786,7.199 6.526,8.733 4.972,8.952 L0.413,6.472 C1.967,6.254 3.228,4.72 3.231,3.051" id="path-51"></path>
        <path d="M1.927,0.669 L6.486,3.148 C7.272,3.576 7.791,4.45 7.78900576,5.53 C7.786,7.199 6.526,8.733 4.972,8.952 L0.413,6.472 C1.967,6.254 3.228,4.72 3.231,3.051" id="path-53"></path>
        <path d="M1.927,0.669 L6.486,3.148 C7.272,3.576 7.791,4.45 7.78900576,5.53 C7.786,7.199 6.526,8.733 4.972,8.952 L0.413,6.472 C1.967,6.254 3.228,4.72 3.231,3.051" id="path-55"></path>
        <path d="M1.927,0.669 L6.486,3.148 C7.272,3.576 7.791,4.45 7.78900576,5.53 C7.786,7.199 6.526,8.733 4.972,8.952 L0.413,6.472 C1.967,6.254 3.228,4.72 3.231,3.051" id="path-57"></path>
        <path d="M1.927,0.669 L6.486,3.148 C7.272,3.576 7.791,4.45 7.78900576,5.53 C7.786,7.199 6.526,8.733 4.972,8.952 L0.413,6.472 C1.967,6.254 3.228,4.72 3.231,3.051" id="path-59"></path>
        <path d="M1.927,0.669 L6.486,3.148 C7.272,3.576 7.791,4.45 7.78900576,5.53 C7.786,7.199 6.526,8.733 4.972,8.952 L0.413,6.472 C1.967,6.254 3.228,4.72 3.231,3.051" id="path-61"></path>
        <path d="M1.927,0.669 L6.486,3.148 C7.272,3.576 7.791,4.45 7.78900576,5.53 C7.786,7.199 6.526,8.733 4.972,8.952 L0.413,6.472 C1.967,6.254 3.228,4.72 3.231,3.051" id="path-63"></path>
        <path d="M1.927,0.669 L6.486,3.148 C7.272,3.576 7.791,4.45 7.78900576,5.53 C7.786,7.199 6.526,8.733 4.972,8.952 L0.413,6.472 C1.967,6.254 3.228,4.72 3.231,3.051" id="path-65"></path>
        <path d="M9.436,0.893 L13.995,3.372 C13.127,2.9 12.095,2.701 10.989,2.856 C8.722,3.175 6.669,4.941 5.791,7.329 C4.914,9.718 5.39,12.261 6.997,13.772 C7.284,14.039 7.596,14.262 7.927,14.442 L3.368,11.963 C3.037,11.782 2.725,11.56 2.438,11.293 C0.831,9.781 0.355,7.237 1.233,4.85 C2.11,2.462 4.163,0.695 6.43,0.376" id="path-67"></path>
        <path d="M9.436,0.893 L13.995,3.372 C13.127,2.9 12.095,2.701 10.989,2.856 C8.722,3.175 6.669,4.941 5.791,7.329 C4.914,9.718 5.39,12.261 6.997,13.772 C7.284,14.039 7.596,14.262 7.927,14.442 L3.368,11.963 C3.037,11.782 2.725,11.56 2.438,11.293 C0.831,9.781 0.355,7.237 1.233,4.85 C2.11,2.462 4.163,0.695 6.43,0.376" id="path-69"></path>
        <path d="M9.436,0.893 L13.995,3.372 C13.127,2.9 12.095,2.701 10.989,2.856 C8.722,3.175 6.669,4.941 5.791,7.329 C4.914,9.718 5.39,12.261 6.997,13.772 C7.284,14.039 7.596,14.262 7.927,14.442 L3.368,11.963 C3.037,11.782 2.725,11.56 2.438,11.293 C0.831,9.781 0.355,7.237 1.233,4.85 C2.11,2.462 4.163,0.695 6.43,0.376" id="path-71"></path>
        <path d="M9.436,0.893 L13.995,3.372 C13.127,2.9 12.095,2.701 10.989,2.856 C8.722,3.175 6.669,4.941 5.791,7.329 C4.914,9.718 5.39,12.261 6.997,13.772 C7.284,14.039 7.596,14.262 7.927,14.442 L3.368,11.963 C3.037,11.782 2.725,11.56 2.438,11.293 C0.831,9.781 0.355,7.237 1.233,4.85 C2.11,2.462 4.163,0.695 6.43,0.376" id="path-73"></path>
        <path d="M9.436,0.893 L13.995,3.372 C13.127,2.9 12.095,2.701 10.989,2.856 C8.722,3.175 6.669,4.941 5.791,7.329 C4.914,9.718 5.39,12.261 6.997,13.772 C7.284,14.039 7.596,14.262 7.927,14.442 L3.368,11.963 C3.037,11.782 2.725,11.56 2.438,11.293 C0.831,9.781 0.355,7.237 1.233,4.85 C2.11,2.462 4.163,0.695 6.43,0.376" id="path-75"></path>
        <path d="M9.436,0.893 L13.995,3.372 C13.127,2.9 12.095,2.701 10.989,2.856 C8.722,3.175 6.669,4.941 5.791,7.329 C4.914,9.718 5.39,12.261 6.997,13.772 C7.284,14.039 7.596,14.262 7.927,14.442 L3.368,11.963 C3.037,11.782 2.725,11.56 2.438,11.293 C0.831,9.781 0.355,7.237 1.233,4.85 C2.11,2.462 4.163,0.695 6.43,0.376" id="path-77"></path>
        <path d="M9.436,0.893 L13.995,3.372 C13.127,2.9 12.095,2.701 10.989,2.856 C8.722,3.175 6.669,4.941 5.791,7.329 C4.914,9.718 5.39,12.261 6.997,13.772 C7.284,14.039 7.596,14.262 7.927,14.442 L3.368,11.963 C3.037,11.782 2.725,11.56 2.438,11.293 C0.831,9.781 0.355,7.237 1.233,4.85 C2.11,2.462 4.163,0.695 6.43,0.376" id="path-79"></path>
        <path d="M9.436,0.893 L13.995,3.372 C13.127,2.9 12.095,2.701 10.989,2.856 C8.722,3.175 6.669,4.941 5.791,7.329 C4.914,9.718 5.39,12.261 6.997,13.772 C7.284,14.039 7.596,14.262 7.927,14.442 L3.368,11.963 C3.037,11.782 2.725,11.56 2.438,11.293 C0.831,9.781 0.355,7.237 1.233,4.85 C2.11,2.462 4.163,0.695 6.43,0.376" id="path-81"></path>
        <path d="M9.436,0.893 L13.995,3.372 C13.127,2.9 12.095,2.701 10.989,2.856 C8.722,3.175 6.669,4.941 5.791,7.329 C4.914,9.718 5.39,12.261 6.997,13.772 C7.284,14.039 7.596,14.262 7.927,14.442 L3.368,11.963 C3.037,11.782 2.725,11.56 2.438,11.293 C0.831,9.781 0.355,7.237 1.233,4.85 C2.11,2.462 4.163,0.695 6.43,0.376" id="path-83"></path>
        <path d="M9.436,0.893 L13.995,3.372 C13.127,2.9 12.095,2.701 10.989,2.856 C8.722,3.175 6.669,4.941 5.791,7.329 C4.914,9.718 5.39,12.261 6.997,13.772 C7.284,14.039 7.596,14.262 7.927,14.442 L3.368,11.963 C3.037,11.782 2.725,11.56 2.438,11.293 C0.831,9.781 0.355,7.237 1.233,4.85 C2.11,2.462 4.163,0.695 6.43,0.376" id="path-85"></path>
    </defs>
    <g id="工作空间项目-开发中心-具体工作流" stroke="none" stroke-width="1" fill="none" fill-rule="evenodd">
        <g id="侧边栏icon" transform="translate(-112.000000, -792.000000)">
            <g id="subflow" transform="translate(107.000000, 789.000000)">
                <g id="编组-29备份-17">
                    <g id="编组-30">
                        <rect id="矩形备份-17" x="0" y="0" width="36" height="36"></rect>
                    </g>
                </g>
                <g id="编组" transform="translate(5.000000, 3.000000)">
                    <g transform="translate(15.000000, 26.000000)">
                        <mask id="mask-2" fill="white">
                            <use xlink:href="#path-1"></use>
                        </mask>
                        <g id="Clip-204"></g>
                        <path d="M5.6716,3.832 L1.1126,1.353 C0.7266,1.143 0.4116,0.824 0.1916,0.441 L4.7496,2.922 C4.9706,3.305 5.2856,3.622 5.6716,3.832" id="Fill-203" fill="#83DFDC" mask="url(#mask-2)"></path>
                    </g>
                    <g transform="translate(17.000000, 21.000000)">
                        <g>
                            <mask id="mask-4" fill="white">
                                <use xlink:href="#path-3"></use>
                            </mask>
                            <g id="Clip-206"></g>
                            <path d="M5.1936,3.0224 L0.6346,0.5434 C0.9766,0.4954 1.3046,0.5144 1.6076,0.5924 L6.1666,3.0724 C5.8636,2.9944 5.5356,2.9744 5.1936,3.0224" id="Fill-205" fill="#62D6D3" mask="url(#mask-4)"></path>
                        </g>
                        <g>
                            <mask id="mask-6" fill="white">
                                <use xlink:href="#path-5"></use>
                            </mask>
                            <g id="Clip-208"></g>
                            <path d="M6.1662,3.0722 L1.6072,0.5932 C1.7622,0.6332 1.9112,0.6872 2.0522,0.7572 L6.6102,3.2362 C6.4702,3.1682 6.3212,3.1122 6.1662,3.0722" id="Fill-207" fill="#67D7D4" mask="url(#mask-6)"></path>
                        </g>
                        <g>
                            <mask id="mask-8" fill="white">
                                <use xlink:href="#path-7"></use>
                            </mask>
                            <g id="Clip-210"></g>
                            <path d="M6.6106,3.2363 L2.0516,0.7573 C2.0806,0.7703 2.1096,0.7863 2.1376,0.8003 L6.6956,3.2813 C6.6676,3.2653 6.6396,3.2513 6.6106,3.2363" id="Fill-209" fill="#6BD9D5" mask="url(#mask-8)"></path>
                        </g>
                    </g>
                    <g transform="translate(15.000000, 21.000000)">
                        <g>
                            <mask id="mask-10" fill="white">
                                <use xlink:href="#path-9"></use>
                            </mask>
                            <g id="Clip-212"></g>
                            <path d="M4.8112,4.8789 L0.2522,2.3999 C0.2662,2.3739 0.2792,2.3489 0.2922,2.3239 L4.8512,4.8039 C4.8372,4.8289 4.8242,4.8539 4.8112,4.8789" id="Fill-211" fill="#7EDEDB" mask="url(#mask-10)"></path>
                        </g>
                        <g>
                            <mask id="mask-12" fill="white">
                                <use xlink:href="#path-11"></use>
                            </mask>
                            <g id="Clip-214"></g>
                            <path d="M4.8513,4.8037 L0.2923,2.3247 C0.3683,2.1827 0.4523,2.0467 0.5423,1.9167 L5.1013,4.3977 C5.0103,4.5277 4.9273,4.6627 4.8513,4.8037" id="Fill-213" fill="#7ADCD9" mask="url(#mask-12)"></path>
                        </g>
                        <g>
                            <mask id="mask-14" fill="white">
                                <use xlink:href="#path-13"></use>
                            </mask>
                            <g id="Clip-216"></g>
                            <path d="M5.1013,4.3974 L0.5423,1.9174 C0.6253,1.7984 0.7143,1.6864 0.8093,1.5804 L5.3673,4.0594 C5.2723,4.1664 5.1843,4.2794 5.1013,4.3974" id="Fill-215" fill="#75DBD8" mask="url(#mask-14)"></path>
                        </g>
                        <g>
                            <mask id="mask-16" fill="white">
                                <use xlink:href="#path-15"></use>
                            </mask>
                            <g id="Clip-218"></g>
                            <path d="M5.3674,4.0595 L0.8084,1.5805 C0.8994,1.4765 0.9964,1.3785 1.0974,1.2875 L5.6564,3.7675 C5.5544,3.8585 5.4584,3.9555 5.3674,4.0595" id="Fill-217" fill="#70DAD7" mask="url(#mask-16)"></path>
                        </g>
                        <g>
                            <mask id="mask-18" fill="white">
                                <use xlink:href="#path-17"></use>
                            </mask>
                            <g id="Clip-220"></g>
                            <path d="M5.6565,3.7675 L1.0975,1.2875 C1.2035,1.1925 1.3145,1.1045 1.4295,1.0245 L5.9885,3.5045 C5.8725,3.5835 5.7615,3.6715 5.6565,3.7675" id="Fill-219" fill="#6BD9D5" mask="url(#mask-18)"></path>
                        </g>
                        <g>
                            <mask id="mask-20" fill="white">
                                <use xlink:href="#path-19"></use>
                            </mask>
                            <g id="Clip-222"></g>
                            <path d="M5.988,3.5049 L1.429,1.0249 C1.566,0.9299 1.71,0.8469 1.859,0.7759 L6.418,3.2559 C6.268,3.3259 6.125,3.4099 5.988,3.5049" id="Fill-221" fill="#67D7D4" mask="url(#mask-20)"></path>
                        </g>
                        <g>
                            <mask id="mask-22" fill="white">
                                <use xlink:href="#path-21"></use>
                            </mask>
                            <g id="Clip-224"></g>
                            <path d="M6.4177,3.2558 L1.8587,0.7768 C2.1037,0.6608 2.3627,0.5808 2.6347,0.5428 L7.1937,3.0228 C6.9217,3.0618 6.6617,3.1418 6.4177,3.2558" id="Fill-223" fill="#62D6D3" mask="url(#mask-22)"></path>
                        </g>
                    </g>
                    <g transform="translate(15.000000, 17.000000)">
                        <mask id="mask-24" fill="white">
                            <use xlink:href="#path-23"></use>
                        </mask>
                        <g id="Clip-226"></g>
                        <path d="M5.7121,3.748 L1.1531,1.269 C0.7571,1.053 0.4331,0.736 0.2081,0.338 L4.7671,2.817 C4.9911,3.216 5.3161,3.532 5.7121,3.748" id="Fill-225" fill="#83DFDC" mask="url(#mask-24)"></path>
                    </g>
                    <g transform="translate(15.000000, 12.000000)">
                        <g>
                            <mask id="mask-26" fill="white">
                                <use xlink:href="#path-25"></use>
                            </mask>
                            <g id="Clip-228"></g>
                            <path d="M4.8283,4.7754 L0.2693,2.2954 C0.2823,2.2704 0.2953,2.2454 0.3083,2.2204 L4.8673,4.7004 C4.8543,4.7244 4.8413,4.7504 4.8283,4.7754" id="Fill-227" fill="#7EDEDB" mask="url(#mask-26)"></path>
                        </g>
                        <g>
                            <mask id="mask-28" fill="white">
                                <use xlink:href="#path-27"></use>
                            </mask>
                            <g id="Clip-230"></g>
                            <path d="M4.8674,4.7002 L0.3084,2.2212 C0.3844,2.0812 0.4664,1.9462 0.5564,1.8182 L5.1154,4.2982 C5.0254,4.4272 4.9424,4.5602 4.8674,4.7002" id="Fill-229" fill="#7ADCD9" mask="url(#mask-28)"></path>
                        </g>
                        <g>
                            <mask id="mask-30" fill="white">
                                <use xlink:href="#path-29"></use>
                            </mask>
                            <g id="Clip-232"></g>
                            <path d="M5.1154,4.2978 L0.5564,1.8188 C0.6384,1.7008 0.7264,1.5898 0.8194,1.4848 L5.3784,3.9638 C5.2844,4.0688 5.1974,4.1818 5.1154,4.2978" id="Fill-231" fill="#75DBD8" mask="url(#mask-30)"></path>
                        </g>
                        <g>
                            <mask id="mask-32" fill="white">
                                <use xlink:href="#path-31"></use>
                            </mask>
                            <g id="Clip-234"></g>
                            <path d="M5.3786,3.9638 L0.8196,1.4848 C0.9106,1.3808 1.0056,1.2838 1.1066,1.1928 L5.6656,3.6738 C5.5646,3.7648 5.4686,3.8608 5.3786,3.9638" id="Fill-233" fill="#70DAD7" mask="url(#mask-32)"></path>
                        </g>
                        <g>
                            <mask id="mask-34" fill="white">
                                <use xlink:href="#path-33"></use>
                            </mask>
                            <g id="Clip-236"></g>
                            <path d="M5.6653,3.6738 L1.1063,1.1938 C1.2123,1.0998 1.3223,1.0118 1.4373,0.9318 L5.9963,3.4118 C5.8813,3.4908 5.7703,3.5788 5.6653,3.6738" id="Fill-235" fill="#6BD9D5" mask="url(#mask-34)"></path>
                        </g>
                        <g>
                            <mask id="mask-36" fill="white">
                                <use xlink:href="#path-35"></use>
                            </mask>
                            <g id="Clip-238"></g>
                            <path d="M5.9963,3.4121 L1.4373,0.9321 C1.5743,0.8371 1.7183,0.7541 1.8683,0.6831 L6.4273,3.1631 C6.2773,3.2331 6.1333,3.3171 5.9963,3.4121" id="Fill-237" fill="#67D7D4" mask="url(#mask-36)"></path>
                        </g>
                        <g>
                            <mask id="mask-38" fill="white">
                                <use xlink:href="#path-37"></use>
                            </mask>
                            <g id="Clip-240"></g>
                            <path d="M6.427,3.1631 L1.868,0.6841 C2.115,0.5671 2.377,0.4861 2.652,0.4471 C2.994,0.3991 3.322,0.4191 3.625,0.4971 L8.183,2.9771 C7.88,2.8991 7.552,2.8801 7.21,2.9281 C6.936,2.9661 6.673,3.0471 6.427,3.1631" id="Fill-239" fill="#62D6D3" mask="url(#mask-38)"></path>
                        </g>
                        <g>
                            <mask id="mask-40" fill="white">
                                <use xlink:href="#path-39"></use>
                            </mask>
                            <g id="Clip-242"></g>
                            <path d="M8.1833,2.9775 L3.6243,0.4975 C3.7793,0.5375 3.9283,0.5925 4.0683,0.6615 L8.6273,3.1415 C8.4863,3.0725 8.3383,3.0165 8.1833,2.9775" id="Fill-241" fill="#67D7D4" mask="url(#mask-40)"></path>
                        </g>
                        <g>
                            <mask id="mask-42" fill="white">
                                <use xlink:href="#path-41"></use>
                            </mask>
                            <g id="Clip-244"></g>
                            <path d="M8.6277,3.1416 L4.0687,0.6616 C4.0977,0.6756 4.1267,0.6906 4.1547,0.7056 L8.7127,3.1856 C8.6847,3.1696 8.6567,3.1556 8.6277,3.1416" id="Fill-243" fill="#6BD9D5" mask="url(#mask-42)"></path>
                        </g>
                    </g>
                    <polygon id="Fill-245" fill="#57D3D0" points="12.3537 26.9277 7.7947 24.4477 15.2527 23.3997 19.8117 25.8787"></polygon>
                    <g transform="translate(4.000000, 24.000000)">
                        <mask id="mask-44" fill="white">
                            <use xlink:href="#path-43"></use>
                        </mask>
                        <g id="Clip-248"></g>
                        <path d="M6.8454,5.7041 L2.2864,3.2241 C1.5014,2.7971 0.9814,1.9231 0.983394251,0.8431 L5.5424,3.3221 C5.5404,4.4021 6.0594,5.2761 6.8454,5.7041" id="Fill-247" fill="#83DFDC" mask="url(#mask-44)"></path>
                    </g>
                    <polygon id="Fill-249" fill="#57D3D0" points="12.3703 17.8232 7.8113 15.3432 15.2693 14.2952 19.8283 16.7752"></polygon>
                    <polygon id="Fill-251" fill="#85DFDD" points="9.5422 27.3222 4.9832 24.8432 5.0062 12.4962 9.5652 14.9762"></polygon>
                    <g transform="translate(4.000000, 9.000000)">
                        <g>
                            <mask id="mask-46" fill="white">
                                <use xlink:href="#path-45"></use>
                            </mask>
                            <g id="Clip-254"></g>
                            <path d="M5.4768,2.6943 L0.9178,0.2153 C0.9458,0.2293 0.9748,0.2443 1.0038,0.2583 L5.5618,2.7383 C5.5338,2.7243 5.5048,2.7103 5.4768,2.6943" id="Fill-253" fill="#6BD9D5" mask="url(#mask-46)"></path>
                        </g>
                        <g>
                            <mask id="mask-48" fill="white">
                                <use xlink:href="#path-47"></use>
                            </mask>
                            <g id="Clip-256"></g>
                            <path d="M5.5622,2.7383 L1.0032,0.2593 C1.1442,0.3283 1.2922,0.3833 1.4472,0.4233 L6.0052,2.9023 C5.8512,2.8623 5.7032,2.8073 5.5622,2.7383" id="Fill-255" fill="#67D7D4" mask="url(#mask-48)"></path>
                        </g>
                        <g>
                            <mask id="mask-50" fill="white">
                                <use xlink:href="#path-49"></use>
                            </mask>
                            <g id="Clip-258"></g>
                            <path d="M6.0056,2.9023 L1.4466,0.4233 C1.7486,0.5003 2.0736,0.5193 2.4136,0.4713 L6.9716,2.9523 C6.6326,3.0003 6.3066,2.9793 6.0056,2.9023" id="Fill-257" fill="#62D6D3" mask="url(#mask-50)"></path>
                        </g>
                    </g>
                    <g transform="translate(6.000000, 3.000000)">
                        <g>
                            <mask id="mask-52" fill="white">
                                <use xlink:href="#path-51"></use>
                            </mask>
                            <g id="Clip-260"></g>
                            <path d="M4.9719,8.9521 L0.4129,6.4721 C0.6999,6.4311 0.9769,6.3471 1.2369,6.2241 L5.7959,8.7041 C5.5349,8.8271 5.2589,8.9121 4.9719,8.9521" id="Fill-259" fill="#62D6D3" mask="url(#mask-52)"></path>
                        </g>
                        <g>
                            <mask id="mask-54" fill="white">
                                <use xlink:href="#path-53"></use>
                            </mask>
                            <g id="Clip-262"></g>
                            <path d="M5.7956,8.7041 L1.2366,6.2251 C1.3966,6.1491 1.5486,6.0611 1.6946,5.9611 L6.2536,8.4401 C6.1076,8.5411 5.9546,8.6301 5.7956,8.7041" id="Fill-261" fill="#67D7D4" mask="url(#mask-54)"></path>
                        </g>
                        <g>
                            <mask id="mask-56" fill="white">
                                <use xlink:href="#path-55"></use>
                            </mask>
                            <g id="Clip-264"></g>
                            <path d="M6.2531,8.4404 L1.6941,5.9614 C1.8131,5.8784 1.9261,5.7894 2.0341,5.6914 L6.5931,8.1714 C6.4851,8.2684 6.3711,8.3584 6.2531,8.4404" id="Fill-263" fill="#6BD9D5" mask="url(#mask-56)"></path>
                        </g>
                        <g>
                            <mask id="mask-58" fill="white">
                                <use xlink:href="#path-57"></use>
                            </mask>
                            <g id="Clip-266"></g>
                            <path d="M6.593,8.1718 L2.034,5.6918 C2.135,5.6008 2.231,5.5038 2.322,5.4008 L6.88,7.8818 C6.79,7.9848 6.694,8.0808 6.593,8.1718" id="Fill-265" fill="#70DAD7" mask="url(#mask-58)"></path>
                        </g>
                        <g>
                            <mask id="mask-60" fill="white">
                                <use xlink:href="#path-59"></use>
                            </mask>
                            <g id="Clip-268"></g>
                            <path d="M6.8801,7.8818 L2.3211,5.4018 C2.4111,5.2998 2.4961,5.1928 2.5741,5.0808 L7.1331,7.5608 C7.0541,7.6728 6.9701,7.7798 6.8801,7.8818" id="Fill-267" fill="#75DBD8" mask="url(#mask-60)"></path>
                        </g>
                        <g>
                            <mask id="mask-62" fill="white">
                                <use xlink:href="#path-61"></use>
                            </mask>
                            <g id="Clip-270"></g>
                            <path d="M7.133,7.5605 L2.574,5.0815 C2.657,4.9615 2.734,4.8385 2.803,4.7095 L7.362,7.1905 C7.292,7.3185 7.216,7.4425 7.133,7.5605" id="Fill-269" fill="#7ADCD9" mask="url(#mask-62)"></path>
                        </g>
                        <g>
                            <mask id="mask-64" fill="white">
                                <use xlink:href="#path-63"></use>
                            </mask>
                            <g id="Clip-272"></g>
                            <path d="M7.3615,7.1904 L2.8025,4.7104 C2.8845,4.5584 2.9555,4.4004 3.0155,4.2384 L7.5735,6.7174 C7.5145,6.8804 7.4435,7.0384 7.3615,7.1904" id="Fill-271" fill="#7EDEDB" mask="url(#mask-64)"></path>
                        </g>
                        <g>
                            <mask id="mask-66" fill="white">
                                <use xlink:href="#path-65"></use>
                            </mask>
                            <g id="Clip-274"></g>
                            <path d="M7.5739,6.7177 L3.0149,4.2387 C3.1539,3.8627 3.2299,3.4607 3.2309,3.0507 C3.2329,1.9707 2.7129,1.0967 1.9279,0.6687 L6.4859,3.1487 C7.2719,3.5757 7.7909,4.4497 7.78890576,5.5307 C7.78890576,5.9407 7.7119,6.3417 7.5739,6.7177" id="Fill-273" fill="#83DFDC" mask="url(#mask-66)"></path>
                        </g>
                    </g>
                    <g>
                        <g>
                            <mask id="mask-68" fill="white">
                                <use xlink:href="#path-67"></use>
                            </mask>
                            <g id="Clip-276"></g>
                            <path d="M7.9275,14.4424 L3.3685,11.9634 C3.0375,11.7824 2.7255,11.5594 2.4385,11.2934 C0.8315,9.7814 0.3555,7.2374 1.2325,4.8494 L1.2335,4.8474 L5.7925,7.3274 C5.7915,7.3284 5.7915,7.3294 5.7915,7.3294 C4.9145,9.7174 5.3895,12.2604 6.9965,13.7724 C7.2835,14.0394 7.5955,14.2614 7.9275,14.4424" id="Fill-275" fill="#83DFDC" mask="url(#mask-68)"></path>
                        </g>
                        <g>
                            <mask id="mask-70" fill="white">
                                <use xlink:href="#path-69"></use>
                            </mask>
                            <g id="Clip-278"></g>
                            <path d="M5.7922,7.3271 L1.2332,4.8481 C1.3542,4.5181 1.4972,4.2021 1.6602,3.8991 L6.2192,6.3791 C6.0562,6.6811 5.9132,6.9991 5.7922,7.3271" id="Fill-277" fill="#7EDEDB" mask="url(#mask-70)"></path>
                        </g>
                        <g>
                            <mask id="mask-72" fill="white">
                                <use xlink:href="#path-71"></use>
                            </mask>
                            <g id="Clip-280"></g>
                            <path d="M6.219,6.3789 L1.66,3.8999 C1.799,3.6419 1.952,3.3939 2.118,3.1559 L6.677,5.6369 C6.511,5.8729 6.358,6.1209 6.219,6.3789" id="Fill-279" fill="#7ADCD9" mask="url(#mask-72)"></path>
                        </g>
                        <g>
                            <mask id="mask-74" fill="white">
                                <use xlink:href="#path-73"></use>
                            </mask>
                            <g id="Clip-282"></g>
                            <path d="M6.677,5.6367 L2.118,3.1567 C2.275,2.9327 2.444,2.7197 2.622,2.5177 L7.18,4.9967 C7.002,5.1997 6.834,5.4127 6.677,5.6367" id="Fill-281" fill="#75DBD8" mask="url(#mask-74)"></path>
                        </g>
                        <g>
                            <mask id="mask-76" fill="white">
                                <use xlink:href="#path-75"></use>
                            </mask>
                            <g id="Clip-284"></g>
                            <path d="M7.1804,4.997 L2.6214,2.518 C2.8034,2.312 2.9944,2.119 3.1944,1.938 L7.7534,4.419 C7.5534,4.6 7.3614,4.792 7.1804,4.997" id="Fill-283" fill="#70DAD7" mask="url(#mask-76)"></path>
                        </g>
                        <g>
                            <mask id="mask-78" fill="white">
                                <use xlink:href="#path-77"></use>
                            </mask>
                            <g id="Clip-286"></g>
                            <path d="M7.7531,4.4189 L3.1941,1.9389 C3.4121,1.7429 3.6391,1.5639 3.8761,1.3989 L8.4351,3.8799 C8.1981,4.0429 7.9701,4.2239 7.7531,4.4189" id="Fill-285" fill="#6BD9D5" mask="url(#mask-78)"></path>
                        </g>
                        <g>
                            <mask id="mask-80" fill="white">
                                <use xlink:href="#path-79"></use>
                            </mask>
                            <g id="Clip-288"></g>
                            <path d="M8.4348,3.8799 L3.8758,1.3999 C4.1668,1.1979 4.4718,1.0219 4.7868,0.8729 L9.3448,3.3539 C9.0308,3.5019 8.7258,3.6779 8.4348,3.8799" id="Fill-287" fill="#67D7D4" mask="url(#mask-80)"></path>
                        </g>
                        <g>
                            <mask id="mask-82" fill="white">
                                <use xlink:href="#path-81"></use>
                            </mask>
                            <g id="Clip-290"></g>
                            <path d="M9.3449,3.3535 L4.7859,0.8735 C5.3109,0.6255 5.8639,0.4565 6.4299,0.3755 C7.1149,0.2805 7.7699,0.3195 8.3769,0.4755 L12.9349,2.9555 C12.3289,2.7995 11.6739,2.7595 10.9889,2.8565 C10.4229,2.9355 9.8699,3.1055 9.3449,3.3535" id="Fill-289" fill="#62D6D3" mask="url(#mask-82)"></path>
                        </g>
                        <g>
                            <mask id="mask-84" fill="white">
                                <use xlink:href="#path-83"></use>
                            </mask>
                            <g id="Clip-292"></g>
                            <path d="M12.9353,2.955 L8.3763,0.476 C8.6863,0.556 8.9833,0.666 9.2653,0.804 L13.8233,3.284 C13.5423,3.145 13.2453,3.035 12.9353,2.955" id="Fill-291" fill="#67D7D4" mask="url(#mask-84)"></path>
                        </g>
                        <g>
                            <mask id="mask-86" fill="white">
                                <use xlink:href="#path-85"></use>
                            </mask>
                            <g id="Clip-294"></g>
                            <path d="M13.8235,3.2841 L9.2645,0.8041 C9.3235,0.8321 9.3805,0.8611 9.4365,0.8921 L13.9945,3.3721 C13.9385,3.3421 13.8815,3.3121 13.8235,3.2841" id="Fill-293" fill="#6BD9D5" mask="url(#mask-86)"></path>
                        </g>
                    </g>
                    <path d="M10.9719,11.9521 C12.5259,11.7331 13.7859,10.1991 13.7889054,8.5301 C13.7919,6.8531 12.5369,5.6731 10.9839,5.8901 C10.2389,5.9961 9.5249,6.4161 8.9949,7.0521 C8.4659,7.6971 8.1759,8.5151 8.17389463,9.3201 C8.1709,10.9881 9.4259,12.1691 10.9719,11.9521 M22.1939,24.0221 C23.7469,23.8051 25.0029,24.9851 24.9989,26.6631 C24.9969,27.7521 24.4589,28.8221 23.5849,29.4891 C23.1519,29.8221 22.6669,30.0261 22.1809,30.0951 C21.6959,30.1631 21.2089,30.0951 20.7729,29.8841 C20.3409,29.6771 19.9899,29.3371 19.7499,28.9221 L12.3479,29.9621 C10.7939,30.1811 9.5389,28.9991 9.5419,27.3221 L9.5649,14.9761 C8.6119,14.8421 7.7239,14.4481 6.9969,13.7721 C5.3899,12.2611 4.9139,9.7181 5.7909,7.3291 C6.6689,4.9411 8.7219,3.1751 10.9889,2.8561 C14.0969,2.4201 16.6079,4.7811 16.6009,8.1361 C16.5969,10.5821 15.2219,12.9881 13.1219,14.2251 C12.8729,14.3731 12.6249,14.4851 12.3769,14.5981 L12.3699,17.8231 L19.8279,16.7751 C20.3189,15.8151 21.1769,15.0721 22.2099,14.9281 C23.7639,14.7091 25.0189,15.8901 25.0159054,17.5671 C25.0139,18.6471 24.4759,19.7261 23.6019,20.3931 C23.1689,20.7231 22.6839,20.9251 22.1979,20.9931 C21.7119,21.0611 21.2259,20.9951 20.7899,20.7891 C20.3579,20.5731 20.0059,20.2421 19.7669,19.8171 L12.3649,20.8571 L12.3539,26.9281 L19.8109,25.8791 C20.3019,24.9201 21.1599,24.1681 22.1939,24.0221" id="Fill-295" fill="#2FC9C5"></path>
                </g>
            </g>
        </g>
    </g>
</svg>