<?xml version="1.0" encoding="UTF-8"?>
<svg width="31px" height="33px" viewBox="0 0 31 33" version="1.1" xmlns="http://www.w3.org/2000/svg" xmlns:xlink="http://www.w3.org/1999/xlink">
    <!-- Generator: Sketch 64 (93537) - https://sketch.com -->
    <title>widget</title>
    <desc>Created with Sketch.</desc>
    <defs>
        <path d="M1.585,0.432 L6.144,2.912 C5.94,2.801 5.699,2.754 5.441,2.79 L0.883,0.311" id="path-1"></path>
        <path d="M1.585,0.432 L6.144,2.912 C5.94,2.801 5.699,2.754 5.441,2.79 L0.883,0.311" id="path-3"></path>
        <path d="M1.585,0.432 L6.144,2.912 C5.94,2.801 5.699,2.754 5.441,2.79 L0.883,0.311" id="path-5"></path>
        <path d="M0.683996938,0.509 L5.242,2.989 C5.242,3.493 5.486,3.904 5.853,4.104 L1.295,1.623" id="path-7"></path>
        <path d="M2.008,0.417 L6.567,2.897 C5.846,2.998 5.26,3.711 5.258,4.49 L0.7,2.01" id="path-9"></path>
        <path d="M2.008,0.417 L6.567,2.897 C5.846,2.998 5.26,3.711 5.258,4.49 L0.7,2.01" id="path-11"></path>
        <path d="M2.008,0.417 L6.567,2.897 C5.846,2.998 5.26,3.711 5.258,4.49 L0.7,2.01" id="path-13"></path>
        <path d="M2.008,0.417 L6.567,2.897 C5.846,2.998 5.26,3.711 5.258,4.49 L0.7,2.01" id="path-15"></path>
        <path d="M2.008,0.417 L6.567,2.897 C5.846,2.998 5.26,3.711 5.258,4.49 L0.7,2.01" id="path-17"></path>
        <path d="M2.008,0.417 L6.567,2.897 C5.846,2.998 5.26,3.711 5.258,4.49 L0.7,2.01" id="path-19"></path>
        <path d="M2.008,0.417 L6.567,2.897 C5.846,2.998 5.26,3.711 5.258,4.49 L0.7,2.01" id="path-21"></path>
        <path d="M2.008,0.417 L6.567,2.897 C5.846,2.998 5.26,3.711 5.258,4.49 L0.7,2.01" id="path-23"></path>
        <path d="M0.024,0.162 L4.582,2.641 C4.652,2.706 4.728,2.762 4.81,2.806 L0.251,0.327" id="path-25"></path>
        <path d="M1.663,0.404 L6.222,2.884 C6.018,2.773 5.78,2.729 5.537,2.763 C5.184,2.813 4.856,3.015 4.607,3.318 L0.048,0.838 C0.297,0.535 0.626,0.333 0.978,0.284" id="path-27"></path>
        <path d="M1.663,0.404 L6.222,2.884 C6.018,2.773 5.78,2.729 5.537,2.763 C5.184,2.813 4.856,3.015 4.607,3.318 L0.048,0.838 C0.297,0.535 0.626,0.333 0.978,0.284" id="path-29"></path>
        <path d="M1.663,0.404 L6.222,2.884 C6.018,2.773 5.78,2.729 5.537,2.763 C5.184,2.813 4.856,3.015 4.607,3.318 L0.048,0.838 C0.297,0.535 0.626,0.333 0.978,0.284" id="path-31"></path>
        <path d="M1.663,0.404 L6.222,2.884 C6.018,2.773 5.78,2.729 5.537,2.763 C5.184,2.813 4.856,3.015 4.607,3.318 L0.048,0.838 C0.297,0.535 0.626,0.333 0.978,0.284" id="path-33"></path>
        <path d="M1.663,0.404 L6.222,2.884 C6.018,2.773 5.78,2.729 5.537,2.763 C5.184,2.813 4.856,3.015 4.607,3.318 L0.048,0.838 C0.297,0.535 0.626,0.333 0.978,0.284" id="path-35"></path>
        <path d="M1.663,0.404 L6.222,2.884 C6.018,2.773 5.78,2.729 5.537,2.763 C5.184,2.813 4.856,3.015 4.607,3.318 L0.048,0.838 C0.297,0.535 0.626,0.333 0.978,0.284" id="path-37"></path>
        <path d="M1.663,0.404 L6.222,2.884 C6.018,2.773 5.78,2.729 5.537,2.763 C5.184,2.813 4.856,3.015 4.607,3.318 L0.048,0.838 C0.297,0.535 0.626,0.333 0.978,0.284" id="path-39"></path>
        <polygon id="path-41" points="0.9629 0.752015146 14.076 0.752015146 14.076 14.9376352 0.9629 14.9376352"></polygon>
        <path d="M0.791,0.23 L5.349,2.709 C5.101,3.012 4.964,3.395 4.963,3.766 C4.963,4.147 5.098,4.482 5.346,4.715 L0.787,2.236 C0.539,2.002 0.404,1.666 0.404994484,1.287" id="path-43"></path>
        <path d="M0.791,0.23 L5.349,2.709 C5.101,3.012 4.964,3.395 4.963,3.766 C4.963,4.147 5.098,4.482 5.346,4.715 L0.787,2.236 C0.539,2.002 0.404,1.666 0.404994484,1.287" id="path-45"></path>
        <path d="M0.791,0.23 L5.349,2.709 C5.101,3.012 4.964,3.395 4.963,3.766 C4.963,4.147 5.098,4.482 5.346,4.715 L0.787,2.236 C0.539,2.002 0.404,1.666 0.404994484,1.287" id="path-47"></path>
        <path d="M0.791,0.23 L5.349,2.709 C5.101,3.012 4.964,3.395 4.963,3.766 C4.963,4.147 5.098,4.482 5.346,4.715 L0.787,2.236 C0.539,2.002 0.404,1.666 0.404994484,1.287" id="path-49"></path>
        <path d="M1.468,0.276 L6.026,2.755 C5.823,2.645 5.58,2.598 5.32,2.634 L0.761,0.155" id="path-51"></path>
        <path d="M1.468,0.276 L6.026,2.755 C5.823,2.645 5.58,2.598 5.32,2.634 L0.761,0.155" id="path-53"></path>
        <path d="M1.468,0.276 L6.026,2.755 C5.823,2.645 5.58,2.598 5.32,2.634 L0.761,0.155" id="path-55"></path>
        <path d="M0.562996963,0.353 L5.122,2.832 C5.121,3.334 5.367,3.745 5.735,3.945 L1.177,1.465" id="path-57"></path>
        <path d="M1.895,0.26 L6.454,2.74 C5.733,2.841 5.139,3.556 5.137,4.333 L0.579,1.854" id="path-59"></path>
        <path d="M1.895,0.26 L6.454,2.74 C5.733,2.841 5.139,3.556 5.137,4.333 L0.579,1.854" id="path-61"></path>
        <path d="M1.895,0.26 L6.454,2.74 C5.733,2.841 5.139,3.556 5.137,4.333 L0.579,1.854" id="path-63"></path>
        <path d="M1.895,0.26 L6.454,2.74 C5.733,2.841 5.139,3.556 5.137,4.333 L0.579,1.854" id="path-65"></path>
        <path d="M1.895,0.26 L6.454,2.74 C5.733,2.841 5.139,3.556 5.137,4.333 L0.579,1.854" id="path-67"></path>
        <path d="M1.895,0.26 L6.454,2.74 C5.733,2.841 5.139,3.556 5.137,4.333 L0.579,1.854" id="path-69"></path>
        <path d="M1.895,0.26 L6.454,2.74 C5.733,2.841 5.139,3.556 5.137,4.333 L0.579,1.854" id="path-71"></path>
        <path d="M1.895,0.26 L6.454,2.74 C5.733,2.841 5.139,3.556 5.137,4.333 L0.579,1.854" id="path-73"></path>
        <path d="M1.489,1.113 L6.047,3.593 C5.845,3.483 5.605,3.436 5.346,3.472 L0.787,0.993" id="path-75"></path>
        <path d="M1.489,1.113 L6.047,3.593 C5.845,3.483 5.605,3.436 5.346,3.472 L0.787,0.993" id="path-77"></path>
        <path d="M1.489,1.113 L6.047,3.593 C5.845,3.483 5.605,3.436 5.346,3.472 L0.787,0.993" id="path-79"></path>
        <path d="M0.58899695,0.191 L5.148,2.671 C5.147,3.177 5.391,3.583 5.758,3.783 L1.199,1.303" id="path-81"></path>
        <path d="M1.922,0.098 L6.48,2.578 C5.759,2.679 5.165,3.403 5.164,4.18 L0.605,1.701" id="path-83"></path>
        <path d="M1.922,0.098 L6.48,2.578 C5.759,2.679 5.165,3.403 5.164,4.18 L0.605,1.701" id="path-85"></path>
        <path d="M1.922,0.098 L6.48,2.578 C5.759,2.679 5.165,3.403 5.164,4.18 L0.605,1.701" id="path-87"></path>
        <path d="M1.922,0.098 L6.48,2.578 C5.759,2.679 5.165,3.403 5.164,4.18 L0.605,1.701" id="path-89"></path>
        <path d="M1.922,0.098 L6.48,2.578 C5.759,2.679 5.165,3.403 5.164,4.18 L0.605,1.701" id="path-91"></path>
        <path d="M1.922,0.098 L6.48,2.578 C5.759,2.679 5.165,3.403 5.164,4.18 L0.605,1.701" id="path-93"></path>
        <path d="M1.922,0.098 L6.48,2.578 C5.759,2.679 5.165,3.403 5.164,4.18 L0.605,1.701" id="path-95"></path>
        <path d="M1.922,0.098 L6.48,2.578 C5.759,2.679 5.165,3.403 5.164,4.18 L0.605,1.701" id="path-97"></path>
    </defs>
    <g id="工作空间项目-开发中心-具体工作流" stroke="none" stroke-width="1" fill="none" fill-rule="evenodd">
        <g id="侧边栏icon" transform="translate(-185.000000, -426.000000)">
            <g id="widget" transform="translate(182.000000, 424.000000)">
                <g id="编组-5" transform="translate(3.000000, 2.000000)">
                    <g id="编组" transform="translate(13.000000, 15.000000)">
                        <polygon id="Fill-215" fill="#B1D0F3" points="13.1116 11.4653 8.5526 8.9863 8.5636 3.3223 13.1216 5.8023"></polygon>
                        <g transform="translate(9.000000, 0.000000)">
                            <g>
                                <mask id="mask-2" fill="white">
                                    <use xlink:href="#path-1"></use>
                                </mask>
                                <g id="Clip-218"></g>
                                <path d="M5.4412,2.7905 L0.8822,0.3115 C1.0422,0.2885 1.1942,0.2975 1.3362,0.3345 L5.8952,2.8135 C5.7532,2.7775 5.6002,2.7685 5.4412,2.7905" id="Fill-217" fill="#9AC2F0" mask="url(#mask-2)"></path>
                            </g>
                            <g>
                                <mask id="mask-4" fill="white">
                                    <use xlink:href="#path-3"></use>
                                </mask>
                                <g id="Clip-220"></g>
                                <path d="M5.8948,2.8139 L1.3358,0.3349 C1.4088,0.3529 1.4788,0.3779 1.5448,0.4119 L6.1038,2.8909 C6.0378,2.8589 5.9678,2.8329 5.8948,2.8139" id="Fill-219" fill="#9DC4F0" mask="url(#mask-4)"></path>
                            </g>
                            <g>
                                <mask id="mask-6" fill="white">
                                    <use xlink:href="#path-5"></use>
                                </mask>
                                <g id="Clip-222"></g>
                                <path d="M6.1038,2.8911 L1.5448,0.4121 C1.5588,0.4171 1.5718,0.4251 1.5848,0.4321 L6.1438,2.9121 C6.1308,2.9051 6.1178,2.8981 6.1038,2.8911" id="Fill-221" fill="#A0C6F1" mask="url(#mask-6)"></path>
                            </g>
                        </g>
                        <polygon id="Fill-223" fill="#93BEEF" points="7.8645 12.2026 3.3055 9.7236 8.5525 8.9856 13.1115 11.4656"></polygon>
                        <g transform="translate(0.000000, 11.000000)">
                            <mask id="mask-8" fill="white">
                                <use xlink:href="#path-7"></use>
                            </mask>
                            <g id="Clip-226"></g>
                            <path d="M5.8533,4.1039 L1.2943,1.6239 C0.9273,1.4229 0.6833,1.0119 0.684296938,0.5089 L5.2423,2.9889 C5.2413,3.4929 5.4853,3.9039 5.8533,4.1039" id="Fill-225" fill="#AFCFF3" mask="url(#mask-8)"></path>
                        </g>
                        <polygon id="Fill-227" fill="#93BEEF" points="6.5667 3.8969 2.0077 1.4179 9.8827 0.3109 14.4417 2.7909"></polygon>
                        <polygon id="Fill-229" fill="#B1D0F3" points="5.2425 13.9887 0.6835 11.5097 0.6995 3.0097 5.2585 5.4897"></polygon>
                        <g transform="translate(0.000000, 1.000000)">
                            <g>
                                <mask id="mask-10" fill="white">
                                    <use xlink:href="#path-9"></use>
                                </mask>
                                <g id="Clip-232"></g>
                                <path d="M5.2581,4.4897 L0.6991,2.0107 C0.7001,1.8187 0.7361,1.6317 0.8001,1.4557 L5.3591,3.9357 C5.2941,4.1107 5.2581,4.2987 5.2581,4.4897" id="Fill-231" fill="#AFCFF3" mask="url(#mask-10)"></path>
                            </g>
                            <g>
                                <mask id="mask-12" fill="white">
                                    <use xlink:href="#path-11"></use>
                                </mask>
                                <g id="Clip-234"></g>
                                <path d="M5.3587,3.936 L0.7997,1.456 C0.8277,1.38 0.8607,1.306 0.8997,1.236 L5.4577,3.715 C5.4197,3.787 5.3867,3.86 5.3587,3.936" id="Fill-233" fill="#ACCDF3" mask="url(#mask-12)"></path>
                            </g>
                            <g>
                                <mask id="mask-14" fill="white">
                                    <use xlink:href="#path-13"></use>
                                </mask>
                                <g id="Clip-236"></g>
                                <path d="M5.4578,3.7153 L0.8988,1.2363 C0.9318,1.1763 0.9668,1.1183 1.0058,1.0633 L5.5638,3.5433 C5.5258,3.5983 5.4898,3.6553 5.4578,3.7153" id="Fill-235" fill="#A9CBF2" mask="url(#mask-14)"></path>
                            </g>
                            <g>
                                <mask id="mask-16" fill="white">
                                    <use xlink:href="#path-15"></use>
                                </mask>
                                <g id="Clip-238"></g>
                                <path d="M5.5643,3.5434 L1.0053,1.0634 C1.0423,1.0114 1.0813,0.9614 1.1233,0.9144 L5.6823,3.3944 C5.6403,3.4404 5.6013,3.4904 5.5643,3.5434" id="Fill-237" fill="#A6CAF2" mask="url(#mask-16)"></path>
                            </g>
                            <g>
                                <mask id="mask-18" fill="white">
                                    <use xlink:href="#path-17"></use>
                                </mask>
                                <g id="Clip-240"></g>
                                <path d="M5.6819,3.394 L1.1229,0.915 C1.1649,0.867 1.2099,0.822 1.2569,0.78 L5.8149,3.259 C5.7679,3.301 5.7239,3.346 5.6819,3.394" id="Fill-239" fill="#A3C8F1" mask="url(#mask-18)"></path>
                            </g>
                            <g>
                                <mask id="mask-20" fill="white">
                                    <use xlink:href="#path-19"></use>
                                </mask>
                                <g id="Clip-242"></g>
                                <path d="M5.8152,3.2592 L1.2562,0.7802 C1.3062,0.7342 1.3592,0.6932 1.4142,0.6552 L5.9732,3.1342 C5.9182,3.1722 5.8652,3.2142 5.8152,3.2592" id="Fill-241" fill="#A0C6F1" mask="url(#mask-20)"></path>
                            </g>
                            <g>
                                <mask id="mask-22" fill="white">
                                    <use xlink:href="#path-21"></use>
                                </mask>
                                <g id="Clip-244"></g>
                                <path d="M5.9729,3.1342 L1.4139,0.6552 C1.4819,0.6082 1.5529,0.5672 1.6269,0.5312 L6.1849,3.0122 C6.1119,3.0462 6.0409,3.0872 5.9729,3.1342" id="Fill-243" fill="#9DC4F0" mask="url(#mask-22)"></path>
                            </g>
                            <g>
                                <mask id="mask-24" fill="white">
                                    <use xlink:href="#path-23"></use>
                                </mask>
                                <g id="Clip-246"></g>
                                <path d="M6.1853,3.0121 L1.6263,0.5321 C1.7473,0.4751 1.8753,0.4361 2.0083,0.4171 L6.5663,2.8971 C6.4343,2.9151 6.3063,2.9551 6.1853,3.0121" id="Fill-245" fill="#9AC2F0" mask="url(#mask-24)"></path>
                            </g>
                        </g>
                        <path d="M13.1116,11.4653 L13.1216,5.8023 L7.8756,6.5393 L7.8646,12.2023 L13.1116,11.4653 L13.1116,11.4653 Z M14.4416,2.7903 C15.1616,2.6893 15.7536,3.2363 15.7526013,4.0153 L15.7366,12.5143 C15.7356,13.2923 15.1406,14.0153 14.4206,14.1163 L6.5456,15.2233 C5.8246,15.3243 5.2406,14.7673 5.24259488,13.9883 L5.2576,5.4893 C5.2596,4.7113 5.8456,3.9983 6.5666,3.8973 L14.4416,2.7903 Z" id="Fill-247" fill="#79AFEB"></path>
                    </g>
                    <g id="编组" transform="translate(12.000000, 0.000000)">
                        <g transform="translate(6.000000, 14.000000)">
                            <mask id="mask-26" fill="white">
                                <use xlink:href="#path-25"></use>
                            </mask>
                            <g id="Clip-250"></g>
                            <path d="M4.8099,2.8061 L0.2509,0.3271 C0.1699,0.2821 0.0939,0.2271 0.0239,0.1611 L4.5819,2.6411 C4.6519,2.7061 4.7279,2.7621 4.8099,2.8061" id="Fill-249" fill="#AFCFF3" mask="url(#mask-26)"></path>
                        </g>
                        <polygon id="Fill-251" fill="#9EC5F0" points="11.5169 13.5102 6.9579 11.0312 10.3529 6.8882 14.9119 9.3682"></polygon>
                        <polygon id="Fill-253" fill="#B3D1F3" points="14.9119 9.3686 10.3529 6.8886 6.9719 3.7076 11.5309 6.1866"></polygon>
                        <g transform="translate(6.000000, 0.000000)">
                            <g>
                                <mask id="mask-28" fill="white">
                                    <use xlink:href="#path-27"></use>
                                </mask>
                                <g id="Clip-256"></g>
                                <path d="M4.6067,3.3178 L0.0477,0.8388 C0.0627,0.8208 0.0767,0.8038 0.0907,0.7878 L4.6487,3.2678 C4.6347,3.2838 4.6207,3.3008 4.6067,3.3178" id="Fill-255" fill="#A6CAF2" mask="url(#mask-28)"></path>
                            </g>
                            <g>
                                <mask id="mask-30" fill="white">
                                    <use xlink:href="#path-29"></use>
                                </mask>
                                <g id="Clip-258"></g>
                                <path d="M4.6492,3.268 L0.0902,0.788 C0.1352,0.738 0.1822,0.691 0.2302,0.647 L4.7892,3.126 C4.7402,3.17 4.6932,3.217 4.6492,3.268" id="Fill-257" fill="#A3C8F1" mask="url(#mask-30)"></path>
                            </g>
                            <g>
                                <mask id="mask-32" fill="white">
                                    <use xlink:href="#path-31"></use>
                                </mask>
                                <g id="Clip-260"></g>
                                <path d="M4.7894,3.1264 L0.2304,0.6474 C0.2824,0.6004 0.3364,0.5574 0.3924,0.5194 L4.9504,2.9984 C4.8944,3.0374 4.8404,3.0804 4.7894,3.1264" id="Fill-259" fill="#A0C6F1" mask="url(#mask-32)"></path>
                            </g>
                            <g>
                                <mask id="mask-34" fill="white">
                                    <use xlink:href="#path-33"></use>
                                </mask>
                                <g id="Clip-262"></g>
                                <path d="M4.9505,2.9985 L0.3915,0.5195 C0.4595,0.4725 0.5305,0.4315 0.6025,0.3965 L5.1615,2.8765 C5.0885,2.9115 5.0185,2.9515 4.9505,2.9985" id="Fill-261" fill="#9DC4F0" mask="url(#mask-34)"></path>
                            </g>
                            <g>
                                <mask id="mask-36" fill="white">
                                    <use xlink:href="#path-35"></use>
                                </mask>
                                <g id="Clip-264"></g>
                                <path d="M5.1614,2.8764 L0.6024,0.3974 C0.7234,0.3404 0.8494,0.3024 0.9784,0.2834 C1.1294,0.2624 1.2784,0.2714 1.4184,0.3084 L5.9774,2.7874 C5.8374,2.7514 5.6874,2.7424 5.5364,2.7634 C5.4074,2.7814 5.2814,2.8204 5.1614,2.8764" id="Fill-263" fill="#9AC2F0" mask="url(#mask-36)"></path>
                            </g>
                            <g>
                                <mask id="mask-38" fill="white">
                                    <use xlink:href="#path-37"></use>
                                </mask>
                                <g id="Clip-266"></g>
                                <path d="M5.9773,2.7875 L1.4183,0.3085 C1.4903,0.3255 1.5593,0.3515 1.6243,0.3845 L6.1833,2.8635 C6.1173,2.8315 6.0483,2.8065 5.9773,2.7875" id="Fill-265" fill="#9DC4F0" mask="url(#mask-38)"></path>
                            </g>
                            <g>
                                <mask id="mask-40" fill="white">
                                    <use xlink:href="#path-39"></use>
                                </mask>
                                <g id="Clip-268"></g>
                                <path d="M6.1829,2.8637 L1.6239,0.3847 C1.6379,0.3897 1.6509,0.3967 1.6629,0.4037 L6.2219,2.8847 C6.2089,2.8767 6.1959,2.8707 6.1829,2.8637" id="Fill-267" fill="#A0C6F1" mask="url(#mask-40)"></path>
                            </g>
                        </g>
                        <polygon id="Fill-269" fill="#B3D1F3" points="10.5823 16.6411 6.0233 14.1621 0.7873 9.2361 5.3453 11.7151"></polygon>
                        <polygon id="Fill-271" fill="#9EC5F0" points="5.3494 9.7094 0.7904 7.2304 6.0484 0.8384 10.6064 3.3174"></polygon>
                        <g transform="translate(4.000000, 2.000000)">
                            <mask id="mask-42" fill="white">
                                <use xlink:href="#path-41"></use>
                            </mask>
                            <g id="Clip-274"></g>
                            <path d="M7.5169,11.5102 L10.9119,7.3682 L7.5309,4.1872 L4.1269,8.3222 L7.5169,11.5102 L7.5169,11.5102 Z M13.6939,5.9752 C13.9409,6.2072 14.0769,6.5522 14.0769,6.9232 C14.0759,7.3042 13.9389,7.6772 13.6899,7.9802 L8.4329,14.3812 C8.1919,14.6832 7.8549,14.8762 7.5109,14.9252 C7.1579,14.9752 6.8299,14.8732 6.5819,14.6412 L1.3459,9.7152 C1.0979,9.4822 0.9629,9.1472 0.9629,8.7662 C0.9639,8.3952 1.1009,8.0122 1.3499,7.7092 L6.6069,1.3182 C6.8559,1.0152 7.1839,0.8132 7.5369,0.7632 C7.8809,0.7152 8.2179,0.8232 8.4569,1.0582 L13.6939,5.9752 Z" id="Fill-273" fill="#79AFEB" mask="url(#mask-42)"></path>
                        </g>
                        <g transform="translate(0.000000, 7.000000)">
                            <g>
                                <mask id="mask-44" fill="white">
                                    <use xlink:href="#path-43"></use>
                                </mask>
                                <g id="Clip-276"></g>
                                <path d="M5.3455,4.7153 L0.7865,2.2363 C0.5395,2.0023 0.4045,1.6663 0.4045,1.2863 C0.4055,1.0993 0.4405,0.9073 0.5065,0.7263 L5.0655,3.2063 C4.9985,3.3883 4.9635,3.5783 4.9635,3.7663 C4.9625,4.1473 5.0975,4.4823 5.3455,4.7153" id="Fill-275" fill="#AFCFF3" mask="url(#mask-44)"></path>
                            </g>
                            <g>
                                <mask id="mask-46" fill="white">
                                    <use xlink:href="#path-45"></use>
                                </mask>
                                <g id="Clip-278"></g>
                                <path d="M5.0657,3.2065 L0.5067,0.7265 C0.5347,0.6505 0.5677,0.5765 0.6067,0.5045 L5.1657,2.9845 C5.1267,3.0565 5.0937,3.1305 5.0657,3.2065" id="Fill-277" fill="#ACCDF3" mask="url(#mask-46)"></path>
                            </g>
                            <g>
                                <mask id="mask-48" fill="white">
                                    <use xlink:href="#path-47"></use>
                                </mask>
                                <g id="Clip-280"></g>
                                <path d="M5.1653,2.9848 L0.6063,0.5048 C0.6383,0.4458 0.6743,0.3878 0.7133,0.3328 L5.2713,2.8118 C5.2323,2.8678 5.1973,2.9248 5.1653,2.9848" id="Fill-279" fill="#A9CBF2" mask="url(#mask-48)"></path>
                            </g>
                            <g>
                                <mask id="mask-50" fill="white">
                                    <use xlink:href="#path-49"></use>
                                </mask>
                                <g id="Clip-282"></g>
                                <path d="M5.2718,2.812 L0.7128,0.333 C0.7378,0.297 0.7638,0.263 0.7908,0.23 L5.3498,2.709 C5.3218,2.743 5.2958,2.777 5.2718,2.812" id="Fill-281" fill="#A6CAF2" mask="url(#mask-50)"></path>
                            </g>
                        </g>
                    </g>
                    <g id="编组" transform="translate(0.000000, 17.000000)">
                        <polygon id="Fill-283" fill="#B1D0F3" points="12.9983 11.308 8.4393 8.829 8.4503 3.165 13.0093 5.645"></polygon>
                        <g transform="translate(9.000000, 0.000000)">
                            <g>
                                <mask id="mask-52" fill="white">
                                    <use xlink:href="#path-51"></use>
                                </mask>
                                <g id="Clip-286"></g>
                                <path d="M5.3201,2.6342 L0.7611,0.1552 C0.9231,0.1322 1.0771,0.1412 1.2191,0.1782 L5.7781,2.6572 C5.6361,2.6212 5.4811,2.6122 5.3201,2.6342" id="Fill-285" fill="#9AC2F0" mask="url(#mask-52)"></path>
                            </g>
                            <g>
                                <mask id="mask-54" fill="white">
                                    <use xlink:href="#path-53"></use>
                                </mask>
                                <g id="Clip-288"></g>
                                <path d="M5.7781,2.6577 L1.2191,0.1787 C1.2921,0.1967 1.3611,0.2217 1.4271,0.2547 L5.9861,2.7347 C5.9201,2.7027 5.8511,2.6767 5.7781,2.6577" id="Fill-287" fill="#9DC4F0" mask="url(#mask-54)"></path>
                            </g>
                            <g>
                                <mask id="mask-56" fill="white">
                                    <use xlink:href="#path-55"></use>
                                </mask>
                                <g id="Clip-290"></g>
                                <path d="M5.9861,2.7348 L1.4271,0.2548 C1.4411,0.2608 1.4541,0.2678 1.4671,0.2758 L6.0261,2.7558 C6.0131,2.7488 6.0001,2.7418 5.9861,2.7348" id="Fill-289" fill="#A0C6F1" mask="url(#mask-56)"></path>
                            </g>
                        </g>
                        <polygon id="Fill-291" fill="#93BEEF" points="7.7518 12.0453 3.1928 9.5663 8.4398 8.8283 12.9988 11.3083"></polygon>
                        <g transform="translate(0.000000, 11.000000)">
                            <mask id="mask-58" fill="white">
                                <use xlink:href="#path-57"></use>
                            </mask>
                            <g id="Clip-294"></g>
                            <path d="M5.7352,3.9448 L1.1762,1.4658 C0.8082,1.2648 0.5622,0.8548 0.563196963,0.3528 L5.1222,2.8328 C5.1212,3.3348 5.3662,3.7448 5.7352,3.9448" id="Fill-293" fill="#AFCFF3" mask="url(#mask-58)"></path>
                        </g>
                        <polygon id="Fill-295" fill="#93BEEF" points="6.4539 3.7397 1.8949 1.2607 9.7609 0.1547 14.3199 2.6347"></polygon>
                        <polygon id="Fill-297" fill="#B1D0F3" points="5.1219 13.8325 0.5629 11.3535 0.5789 2.8535 5.1379 5.3335"></polygon>
                        <g transform="translate(0.000000, 1.000000)">
                            <g>
                                <mask id="mask-60" fill="white">
                                    <use xlink:href="#path-59"></use>
                                </mask>
                                <g id="Clip-300"></g>
                                <path d="M5.1375,4.3334 L0.5785,1.8544 C0.5785,1.6644 0.6145,1.4794 0.6785,1.3054 L5.2375,3.7854 C5.1735,3.9594 5.1375,4.1454 5.1375,4.3334" id="Fill-299" fill="#AFCFF3" mask="url(#mask-60)"></path>
                            </g>
                            <g>
                                <mask id="mask-62" fill="white">
                                    <use xlink:href="#path-61"></use>
                                </mask>
                                <g id="Clip-302"></g>
                                <path d="M5.2371,3.7856 L0.6781,1.3056 C0.7061,1.2296 0.7391,1.1556 0.7771,1.0856 L5.3361,3.5646 C5.2981,3.6366 5.2651,3.7096 5.2371,3.7856" id="Fill-301" fill="#ACCDF3" mask="url(#mask-62)"></path>
                            </g>
                            <g>
                                <mask id="mask-64" fill="white">
                                    <use xlink:href="#path-63"></use>
                                </mask>
                                <g id="Clip-304"></g>
                                <path d="M5.3362,3.5649 L0.7772,1.0859 C0.8092,1.0259 0.8452,0.9669 0.8842,0.9129 L5.4422,3.3919 C5.4042,3.4479 5.3682,3.5049 5.3362,3.5649" id="Fill-303" fill="#A9CBF2" mask="url(#mask-64)"></path>
                            </g>
                            <g>
                                <mask id="mask-66" fill="white">
                                    <use xlink:href="#path-65"></use>
                                </mask>
                                <g id="Clip-306"></g>
                                <path d="M5.4427,3.392 L0.8837,0.913 C0.9207,0.86 0.9607,0.81 1.0027,0.762 L5.5617,3.242 C5.5197,3.289 5.4797,3.339 5.4427,3.392" id="Fill-305" fill="#A6CAF2" mask="url(#mask-66)"></path>
                            </g>
                            <g>
                                <mask id="mask-68" fill="white">
                                    <use xlink:href="#path-67"></use>
                                </mask>
                                <g id="Clip-308"></g>
                                <path d="M5.5613,3.2416 L1.0023,0.7626 C1.0453,0.7136 1.0903,0.6686 1.1373,0.6256 L5.6963,3.1056 C5.6483,3.1476 5.6033,3.1936 5.5613,3.2416" id="Fill-307" fill="#A3C8F1" mask="url(#mask-68)"></path>
                            </g>
                            <g>
                                <mask id="mask-70" fill="white">
                                    <use xlink:href="#path-69"></use>
                                </mask>
                                <g id="Clip-310"></g>
                                <path d="M5.6961,3.1059 L1.1371,0.6259 C1.1881,0.5809 1.2411,0.5379 1.2971,0.4999 L5.8561,2.9789 C5.8001,3.0179 5.7471,3.0599 5.6961,3.1059" id="Fill-309" fill="#A0C6F1" mask="url(#mask-70)"></path>
                            </g>
                            <g>
                                <mask id="mask-72" fill="white">
                                    <use xlink:href="#path-71"></use>
                                </mask>
                                <g id="Clip-312"></g>
                                <path d="M5.8558,2.9789 L1.2968,0.4999 C1.3658,0.4529 1.4378,0.4109 1.5118,0.3749 L6.0698,2.8559 C5.9958,2.8899 5.9238,2.9319 5.8558,2.9789" id="Fill-311" fill="#9DC4F0" mask="url(#mask-72)"></path>
                            </g>
                            <g>
                                <mask id="mask-74" fill="white">
                                    <use xlink:href="#path-73"></use>
                                </mask>
                                <g id="Clip-314"></g>
                                <path d="M6.0701,2.8559 L1.5111,0.3759 C1.6331,0.3189 1.7621,0.2789 1.8951,0.2599 L6.4541,2.7399 C6.3201,2.7589 6.1921,2.7979 6.0701,2.8559" id="Fill-313" fill="#9AC2F0" mask="url(#mask-74)"></path>
                            </g>
                        </g>
                        <path d="M12.9983,11.308 L13.0093,5.645 L7.7623,6.382 L7.7513,12.045 L12.9983,11.308 L12.9983,11.308 Z M14.3203,2.634 C15.0493,2.532 15.6323,3.081 15.6313013,3.859 L15.6153,12.358 C15.6143,13.136 15.0283,13.858 14.2983,13.96 L6.4333,15.066 C5.7113,15.167 5.1203,14.611 5.12229494,13.832 L5.1373,5.333 C5.1393,4.556 5.7323,3.841 6.4543,3.74 L14.3203,2.634 Z" id="Fill-315" fill="#79AFEB"></path>
                    </g>
                    <g id="编组" transform="translate(0.000000, 2.000000)">
                        <polygon id="Fill-317" fill="#B1D0F3" points="13.0247 12.1547 8.4657 9.6757 8.4767 4.0117 13.0357 6.4917"></polygon>
                        <g transform="translate(9.000000, 0.000000)">
                            <g>
                                <mask id="mask-76" fill="white">
                                    <use xlink:href="#path-75"></use>
                                </mask>
                                <g id="Clip-320"></g>
                                <path d="M5.346,3.4721 L0.787,0.9931 C0.948,0.9701 1.1,0.9791 1.242,1.0161 L5.8,3.4951 C5.659,3.4591 5.506,3.4501 5.346,3.4721" id="Fill-319" fill="#9AC2F0" mask="url(#mask-76)"></path>
                            </g>
                            <g>
                                <mask id="mask-78" fill="white">
                                    <use xlink:href="#path-77"></use>
                                </mask>
                                <g id="Clip-322"></g>
                                <path d="M5.8001,3.4955 L1.2411,1.0165 C1.3141,1.0345 1.3831,1.0595 1.4481,1.0925 L6.0071,3.5715 C5.9421,3.5395 5.8721,3.5145 5.8001,3.4955" id="Fill-321" fill="#9DC4F0" mask="url(#mask-78)"></path>
                            </g>
                            <g>
                                <mask id="mask-80" fill="white">
                                    <use xlink:href="#path-79"></use>
                                </mask>
                                <g id="Clip-324"></g>
                                <path d="M6.0071,3.5717 L1.4481,1.0927 C1.4621,1.0987 1.4751,1.1057 1.4881,1.1127 L6.0471,3.5927 C6.0341,3.5857 6.0211,3.5787 6.0071,3.5717" id="Fill-323" fill="#A0C6F1" mask="url(#mask-80)"></path>
                            </g>
                        </g>
                        <polygon id="Fill-325" fill="#93BEEF" points="7.7776 12.892 3.2186 10.413 8.4656 9.675 13.0246 12.155"></polygon>
                        <g transform="translate(0.000000, 12.000000)">
                            <mask id="mask-82" fill="white">
                                <use xlink:href="#path-81"></use>
                            </mask>
                            <g id="Clip-328"></g>
                            <path d="M5.7576,3.7827 L1.1986,1.3037 C0.8326,1.1037 0.5886,0.6967 0.589596938,0.1907 L5.1476,2.6717 C5.1466,3.1777 5.3916,3.5837 5.7576,3.7827" id="Fill-327" fill="#AFCFF3" mask="url(#mask-82)"></path>
                        </g>
                        <polygon id="Fill-329" fill="#93BEEF" points="6.4803 4.5776 1.9213 2.0986 9.7873 0.9926 14.3463 3.4726"></polygon>
                        <polygon id="Fill-331" fill="#B1D0F3" points="5.1478 14.6713 0.5888 12.1913 0.6058 3.7003 5.1638 6.1803"></polygon>
                        <g transform="translate(0.000000, 2.000000)">
                            <g>
                                <mask id="mask-84" fill="white">
                                    <use xlink:href="#path-83"></use>
                                </mask>
                                <g id="Clip-334"></g>
                                <path d="M5.1639,4.1801 L0.6049,1.7011 C0.6049,1.5101 0.6419,1.3241 0.7059,1.1481 L5.2649,3.6281 C5.1999,3.8031 5.1639,3.9911 5.1639,4.1801" id="Fill-333" fill="#AFCFF3" mask="url(#mask-84)"></path>
                            </g>
                            <g>
                                <mask id="mask-86" fill="white">
                                    <use xlink:href="#path-85"></use>
                                </mask>
                                <g id="Clip-336"></g>
                                <path d="M5.2645,3.6284 L0.7055,1.1484 C0.7335,1.0714 0.7675,0.9974 0.8055,0.9264 L5.3645,3.4054 C5.3265,3.4774 5.2925,3.5514 5.2645,3.6284" id="Fill-335" fill="#ACCDF3" mask="url(#mask-86)"></path>
                            </g>
                            <g>
                                <mask id="mask-88" fill="white">
                                    <use xlink:href="#path-87"></use>
                                </mask>
                                <g id="Clip-338"></g>
                                <path d="M5.3645,3.4057 L0.8055,0.9267 C0.8385,0.8657 0.8745,0.8067 0.9135,0.7507 L5.4725,3.2307 C5.4325,3.2867 5.3965,3.3447 5.3645,3.4057" id="Fill-337" fill="#A9CBF2" mask="url(#mask-88)"></path>
                            </g>
                            <g>
                                <mask id="mask-90" fill="white">
                                    <use xlink:href="#path-89"></use>
                                </mask>
                                <g id="Clip-340"></g>
                                <path d="M5.4725,3.2309 L0.9135,0.7509 C0.9515,0.6979 0.9915,0.6469 1.0335,0.5989 L5.5925,3.0789 C5.5495,3.1269 5.5095,3.1769 5.4725,3.2309" id="Fill-339" fill="#A6CAF2" mask="url(#mask-90)"></path>
                            </g>
                            <g>
                                <mask id="mask-92" fill="white">
                                    <use xlink:href="#path-91"></use>
                                </mask>
                                <g id="Clip-342"></g>
                                <path d="M5.5921,3.0786 L1.0331,0.5996 C1.0761,0.5506 1.1211,0.5056 1.1691,0.4626 L5.7271,2.9416 C5.6801,2.9846 5.6341,3.0306 5.5921,3.0786" id="Fill-341" fill="#A3C8F1" mask="url(#mask-92)"></path>
                            </g>
                            <g>
                                <mask id="mask-94" fill="white">
                                    <use xlink:href="#path-93"></use>
                                </mask>
                                <g id="Clip-344"></g>
                                <path d="M5.7273,2.9418 L1.1683,0.4628 C1.2193,0.4168 1.2733,0.3738 1.3293,0.3358 L5.8873,2.8148 C5.8313,2.8538 5.7783,2.8958 5.7273,2.9418" id="Fill-343" fill="#A0C6F1" mask="url(#mask-94)"></path>
                            </g>
                            <g>
                                <mask id="mask-96" fill="white">
                                    <use xlink:href="#path-95"></use>
                                </mask>
                                <g id="Clip-346"></g>
                                <path d="M5.8875,2.8149 L1.3285,0.3359 C1.3965,0.2889 1.4685,0.2479 1.5425,0.2119 L6.1005,2.6919 C6.0265,2.7269 5.9555,2.7679 5.8875,2.8149" id="Fill-345" fill="#9DC4F0" mask="url(#mask-96)"></path>
                            </g>
                            <g>
                                <mask id="mask-98" fill="white">
                                    <use xlink:href="#path-97"></use>
                                </mask>
                                <g id="Clip-348"></g>
                                <path d="M6.1009,2.6918 L1.5419,0.2128 C1.6629,0.1558 1.7899,0.1168 1.9219,0.0978 L6.4799,2.5778 C6.3489,2.5958 6.2209,2.6348 6.1009,2.6918" id="Fill-347" fill="#9AC2F0" mask="url(#mask-98)"></path>
                            </g>
                        </g>
                        <path d="M13.0247,12.1547 L13.0357,6.4917 L7.7887,7.2287 L7.7777,12.8917 L13.0247,12.1547 L13.0247,12.1547 Z M14.3457,3.4717 C15.0757,3.3697 15.6587,3.9277 15.6577013,4.7057 L15.6417,13.1957 C15.6397,13.9827 15.0537,14.6957 14.3247,14.7987 L6.4597,15.9037 C5.7377,16.0057 5.1467,15.4577 5.14769873,14.6717 L5.1637,6.1797 C5.1657,5.4027 5.7587,4.6787 6.4807,4.5777 L14.3457,3.4717 Z" id="Fill-349" fill="#79AFEB"></path>
                    </g>
                </g>
                <g id="编组-30">
                    <rect id="矩形备份-17" x="0" y="0" width="36" height="36"></rect>
                </g>
            </g>
        </g>
    </g>
</svg>